<?xml version="1.0" standalone="no"?>
<!DOCTYPE svg PUBLIC "-//W3C//DTD SVG 1.1//EN" "http://www.w3.org/Graphics/SVG/1.1/DTD/svg11.dtd" >
<svg>
<metadata>
Created by FontForge 20110222 at Mon May  4 23:21:09 2015
 By www-data
Copyright (c) 2012 by Hannes von Dhren. All rights reserved.
</metadata>
<defs>
<font id="BrandonText-LightItalic" horiz-adv-x="600" >
  <font-face 
    font-family="Brandon Text Light"
    font-weight="330"
    font-style="italic"
    font-stretch="normal"
    units-per-em="1000"
    panose-1="2 11 3 3 2 2 3 13 2 3"
    ascent="700"
    descent="-300"
    x-height="462"
    cap-height="700"
    bbox="-160.444 -264.885 1072 1025.89"
    underline-thickness="50"
    underline-position="-50"
    slope="-8"
    stemh="43"
    stemv="44"
    unicode-range="U+000D-FB02"
  />
<missing-glyph horiz-adv-x="599" 
d="M50 30v640c0 21 9 30 30 30h439c21 0 30 -9 30 -30v-640c0 -21 -9 -30 -30 -30h-439c-21 0 -30 9 -30 30zM262 314c0 -7 7 -12 14 -12h36c9 0 15 4 15 13v26c0 48 105 63 105 150c0 65 -54 111 -125 111c-87 0 -130 -61 -130 -61c-4 -6 -6 -13 0 -18l22 -22
c6 -4 11 -4 17 0c13 12 36 41 84 41c40 0 61 -25 61 -52c0 -63 -99 -72 -99 -147v-29zM245 156c0 -26 22 -48 48 -48c27 0 49 22 49 48s-22 48 -49 48c-26 0 -48 -22 -48 -48z" />
    <glyph glyph-name="fi" unicode="fi" horiz-adv-x="524" 
d="M53 -238c-9 0 -14 8 -13 15l89 643h-68c-12 0 -15 8 -13 18l2 9c1 8 9 15 17 15h67l8 55c20 137 91 193 187 193c73 0 126 -41 144 -60c4 -5 4 -12 -1 -18l-12 -14c-5 -7 -12 -6 -19 -1c-20 16 -53 50 -112 50c-79 0 -126 -44 -141 -150l-8 -55h270c9 0 14 -7 13 -15
l-61 -432c-1 -10 -6 -15 -14 -15h-18c-6 0 -13 7 -12 15l56 405h-240l-89 -643c-1 -7 -8 -15 -15 -15h-17z" />
    <glyph glyph-name="fl" unicode="fl" horiz-adv-x="558" 
d="M54 -238c-9 0 -13 8 -12 15l89 643h-70c-11 0 -14 8 -13 15l2 12c1 8 9 15 17 15h68l8 52c18 136 107 196 196 196c76 0 130 -48 138 -60l10 37c2 8 4 13 18 13h7c8 0 12 -7 11 -14l-96 -671c-1 -10 -10 -15 -16 -15h-15c-8 0 -13 7 -12 15l82 585c-8 11 -51 67 -127 67
c-68 0 -134 -47 -150 -153l-8 -52h149c9 0 14 -5 12 -14l-3 -15c-1 -7 -5 -13 -16 -13h-148l-89 -643c-1 -7 -8 -15 -15 -15h-17z" />
    <glyph glyph-name="f_f" unicode="ff" horiz-adv-x="628" 
d="M39 -223l89 643h-66c-11 0 -13 8 -13 15l2 12c2 8 10 15 18 15h65l4 30c21 153 104 208 202 208c58 0 109 -27 129 -46c34 44 66 56 117 56c52 0 91 -24 110 -46c6 -7 3 -15 -1 -20l-11 -12c-6 -6 -13 -7 -20 0c-13 13 -39 35 -78 35c-72 0 -102 -51 -115 -143l-9 -62
h150c9 0 15 -5 13 -14l-3 -15c-1 -7 -7 -13 -16 -13h-149l-88 -643c-1 -9 -11 -15 -18 -15h-15c-8 0 -14 8 -13 15l89 643h-239l-89 -643c-1 -9 -10 -15 -19 -15h-13c-9 0 -14 8 -13 15zM180 462h237l9 61c4 25 10 65 22 91c-15 16 -64 42 -114 42c-80 0 -133 -46 -150 -165
z" />
    <glyph glyph-name="f_f_i" unicode="ffi" horiz-adv-x="807" 
d="M353 -238h-17c-8 0 -14 8 -13 15l89 643h-239l-89 -643c-1 -9 -10 -15 -19 -15h-13c-9 0 -14 8 -13 15l89 643h-66c-11 0 -13 8 -13 15l2 12c2 8 10 15 18 15h64l4 29c21 153 110 209 214 209c68 0 108 -31 127 -51c34 44 82 61 133 61c73 0 128 -41 146 -60
c4 -5 4 -12 -1 -18l-12 -14c-5 -7 -12 -6 -19 -1c-20 16 -54 50 -113 50c-80 0 -128 -46 -143 -160l-6 -45h270c9 0 14 -7 13 -15l-61 -432c-1 -10 -6 -15 -14 -15h-18c-6 0 -13 7 -12 15l56 405h-240l-89 -643c-1 -7 -8 -15 -15 -15zM179 462h239l7 51c5 35 16 72 28 98
c-15 18 -52 45 -108 45c-87 0 -145 -47 -162 -166z" />
    <glyph glyph-name="f_f_l" unicode="ffl" horiz-adv-x="840" 
d="M353 -238h-16c-8 0 -14 8 -13 15l89 643h-240l-89 -643c-1 -9 -10 -15 -19 -15h-13c-9 0 -14 8 -13 15l89 643h-66c-11 0 -13 8 -13 15l2 12c2 8 10 15 18 15h65l4 29c21 153 105 209 200 209c74 0 125 -33 145 -52c34 44 87 62 138 62c76 0 130 -48 138 -60l10 37
c2 8 4 13 18 13h7c8 0 12 -7 11 -14l-96 -671c-1 -10 -10 -15 -16 -15h-15c-8 0 -13 7 -12 15l82 585c-8 11 -51 67 -127 67c-75 0 -137 -58 -151 -153l-7 -52h149c9 0 14 -5 12 -14l-3 -15c-1 -7 -5 -13 -16 -13h-148l-89 -643c-1 -7 -8 -15 -15 -15zM180 462h237l7 51
c5 35 17 71 32 97c-16 17 -64 46 -120 46c-83 0 -135 -47 -152 -166z" />
    <glyph glyph-name="f_f_h" unicode="ffh" horiz-adv-x="1123" 
d="M180 462h237l7 51c5 35 17 71 32 97c-16 17 -64 46 -120 46c-83 0 -135 -47 -152 -166zM693 0h-15c-8 0 -13 7 -12 15l82 585c-8 11 -51 67 -127 67c-75 0 -137 -58 -151 -153l-7 -52h149c9 0 14 -5 12 -14l-3 -15c-1 -7 -5 -13 -16 -13h-148l-89 -643
c-1 -7 -8 -15 -15 -15h-16c-8 0 -14 8 -13 15l89 643h-240l-89 -643c-1 -9 -10 -15 -19 -15h-13c-9 0 -14 8 -13 15l89 643h-66c-11 0 -13 8 -13 15l2 12c2 8 10 15 18 15h65l4 29c21 153 105 209 200 209c74 0 125 -33 145 -52c34 44 87 62 138 62c76 0 130 -48 138 -60
l10 37c2 8 4 13 18 13h5c7 0 14 -7 13 -14l-41 -284c13 15 69 70 153 70c99 0 142 -68 122 -206l-35 -251c-1 -8 -8 -15 -16 -15h-15c-9 0 -14 7 -13 15l35 251c15 114 -13 163 -87 163c-87 0 -148 -75 -152 -81l-47 -333c-1 -10 -7 -15 -16 -15z" />
    <glyph glyph-name="f_k" unicode="fk" horiz-adv-x="764" 
d="M505 700h7c7 0 12 -7 11 -14l-59 -410l230 179c6 5 13 7 18 7h31c12 0 13 -11 3 -19l-244 -191l189 -232c8 -9 0 -20 -9 -20h-18c-9 0 -14 -1 -22 9l-183 230l-32 -224c-1 -10 -7 -15 -16 -15h-15c-8 0 -13 7 -12 15l82 585c-8 11 -51 67 -127 67
c-68 0 -134 -47 -150 -153l-8 -52h149c9 0 14 -5 12 -14l-3 -15c-1 -7 -5 -13 -16 -13h-148l-89 -643c-1 -7 -8 -15 -15 -15h-17c-9 0 -13 8 -12 15l89 643h-70c-11 0 -14 8 -13 15l2 12c1 8 9 15 17 15h68l8 52c18 136 107 196 196 196c76 0 130 -48 138 -60l10 37
c2 8 4 13 18 13z" />
    <glyph glyph-name="f_j" unicode="fj" horiz-adv-x="524" 
d="M345 -80l69 500h-240l-89 -643c-1 -7 -8 -15 -15 -15h-17c-9 0 -14 8 -13 15l89 643h-68c-12 0 -15 8 -13 18l2 9c1 8 9 15 17 15h67l8 55c20 137 91 193 187 193c73 0 126 -41 144 -60c4 -5 4 -12 -1 -18l-12 -14c-5 -7 -12 -6 -19 -1c-20 16 -53 50 -112 50
c-79 0 -126 -44 -141 -150l-8 -55h270c9 0 14 -7 13 -15l-73 -518c-16 -114 -61 -150 -139 -175c-13 -4 -19 -2 -22 8l-4 13c-3 8 1 19 13 22c54 13 96 43 107 123z" />
    <glyph glyph-name="f_f_j" unicode="ffj" horiz-adv-x="807" 
d="M179 462h239l7 51c5 35 16 72 28 98c-15 18 -52 45 -108 45c-87 0 -145 -47 -162 -166zM628 -80l69 500h-240l-89 -643c-1 -7 -8 -15 -15 -15h-17c-8 0 -14 8 -13 15l89 643h-239l-89 -643c-1 -9 -10 -15 -19 -15h-13c-9 0 -14 8 -13 15l89 643h-66c-11 0 -13 8 -13 15
l2 12c2 8 10 15 18 15h64l4 29c21 153 110 209 214 209c68 0 108 -31 127 -51c34 44 82 61 133 61c73 0 128 -41 146 -60c4 -5 4 -12 -1 -18l-12 -14c-5 -7 -12 -6 -19 -1c-20 16 -54 50 -113 50c-80 0 -128 -46 -143 -160l-6 -45h270c9 0 14 -7 13 -15l-73 -518
c-16 -114 -62 -150 -140 -175c-13 -4 -19 -2 -22 8l-4 13c-3 8 1 19 13 22c54 13 97 43 108 123z" />
    <glyph glyph-name="f_b" unicode="fb" horiz-adv-x="852" 
d="M503 700h8c7 0 12 -7 11 -14l-38 -259s59 45 137 45c97 0 169 -89 169 -210c0 -147 -102 -274 -226 -274c-80 0 -124 52 -132 69l-10 -42c-3 -11 -8 -15 -18 -15h-8c-8 0 -13 7 -12 15l82 585c-8 11 -51 67 -127 67c-68 0 -134 -47 -150 -153l-8 -52h149
c9 0 14 -5 12 -14l-3 -15c-1 -7 -5 -13 -16 -13h-148l-89 -643c-1 -7 -8 -15 -15 -15h-17c-9 0 -13 8 -12 15l89 643h-70c-11 0 -14 8 -13 15l2 12c1 8 9 15 17 15h68l8 52c18 136 107 196 196 196c76 0 130 -48 138 -60l10 37c2 8 3 13 16 13zM441 112c2 -5 38 -81 125 -81
c95 0 179 109 179 230c0 93 -55 168 -138 168c-72 0 -128 -48 -128 -48z" />
    <glyph glyph-name="f_f_k" unicode="ffk" horiz-adv-x="1046" 
d="M180 462h237l7 51c5 35 17 71 32 97c-16 17 -64 46 -120 46c-83 0 -135 -47 -152 -166zM693 0h-15c-8 0 -13 7 -12 15l82 585c-8 11 -51 67 -127 67c-75 0 -137 -58 -151 -153l-7 -52h149c9 0 14 -5 12 -14l-3 -15c-1 -7 -5 -13 -16 -13h-148l-89 -643
c-1 -7 -8 -15 -15 -15h-16c-8 0 -14 8 -13 15l89 643h-240l-89 -643c-1 -9 -10 -15 -19 -15h-13c-9 0 -14 8 -13 15l89 643h-66c-11 0 -13 8 -13 15l2 12c2 8 10 15 18 15h65l4 29c21 153 105 209 200 209c74 0 125 -33 145 -52c34 44 87 62 138 62c76 0 130 -48 138 -60
l10 37c2 8 4 13 18 13h5c7 0 14 -7 13 -14l-59 -410l230 179c6 5 13 7 18 7h31c12 0 13 -11 3 -19l-244 -191l189 -232c8 -9 0 -20 -9 -20h-18c-9 0 -14 -1 -22 9l-183 230l-32 -224c-1 -9 -7 -15 -16 -15z" />
    <glyph glyph-name="f_h" unicode="fh" horiz-adv-x="841" 
d="M505 700h5c9 0 14 -7 13 -14l-41 -284c13 15 69 70 153 70c99 0 142 -68 122 -206l-35 -251c-1 -8 -8 -15 -16 -15h-15c-9 0 -14 7 -13 15l35 251c15 114 -13 163 -87 163c-87 0 -148 -75 -152 -81l-47 -333c-1 -9 -7 -15 -16 -15h-15c-8 0 -13 7 -12 15l82 585
c-8 11 -51 67 -127 67c-68 0 -134 -47 -150 -153l-8 -52h149c9 0 14 -5 12 -14l-3 -15c-1 -7 -5 -13 -16 -13h-148l-89 -643c-1 -7 -8 -15 -15 -15h-17c-9 0 -13 8 -12 15l89 643h-70c-11 0 -14 8 -13 15l2 12c1 8 9 15 17 15h68l8 52c18 136 107 196 196 196
c76 0 130 -48 138 -60l10 37c2 8 4 13 18 13z" />
    <glyph glyph-name="f_f_b" unicode="ffb" horiz-adv-x="1135" 
d="M787 700h5c7 0 13 -7 12 -14l-38 -259s59 45 137 45c97 0 169 -89 169 -210c0 -147 -102 -274 -226 -274c-80 0 -124 52 -132 69l-10 -42c-3 -11 -8 -15 -18 -15h-8c-8 0 -13 7 -12 15l82 585c-8 11 -51 67 -127 67c-75 0 -137 -58 -151 -153l-7 -52h149
c9 0 14 -5 12 -14l-3 -15c-1 -7 -5 -13 -16 -13h-148l-89 -643c-1 -7 -8 -15 -15 -15h-16c-8 0 -14 8 -13 15l89 643h-240l-89 -643c-1 -9 -10 -15 -19 -15h-13c-9 0 -14 8 -13 15l89 643h-66c-11 0 -13 8 -13 15l2 12c2 8 10 15 18 15h65l4 29c21 153 105 209 200 209
c74 0 125 -33 145 -52c34 44 87 62 138 62c76 0 130 -48 138 -60l10 37c2 8 4 13 18 13zM180 462h237l7 51c5 35 17 71 32 97c-16 17 -64 46 -120 46c-83 0 -135 -47 -152 -166zM723 112c2 -5 38 -81 125 -81c95 0 179 109 179 230c0 93 -55 168 -138 168
c-72 0 -128 -48 -128 -48z" />
    <glyph glyph-name=".notdef" horiz-adv-x="599" 
d="M50 30v640c0 21 9 30 30 30h439c21 0 30 -9 30 -30v-640c0 -21 -9 -30 -30 -30h-439c-21 0 -30 9 -30 30zM262 314c0 -7 7 -12 14 -12h36c9 0 15 4 15 13v26c0 48 105 63 105 150c0 65 -54 111 -125 111c-87 0 -130 -61 -130 -61c-4 -6 -6 -13 0 -18l22 -22
c6 -4 11 -4 17 0c13 12 36 41 84 41c40 0 61 -25 61 -52c0 -63 -99 -72 -99 -147v-29zM245 156c0 -26 22 -48 48 -48c27 0 49 22 49 48s-22 48 -49 48c-26 0 -48 -22 -48 -48z" />
    <glyph glyph-name=".null" horiz-adv-x="0" 
 />
    <glyph glyph-name=".null" horiz-adv-x="0" 
 />
    <glyph glyph-name="CR" unicode="&#xd;" horiz-adv-x="0" 
 />
    <glyph glyph-name="space" unicode=" " horiz-adv-x="240" 
 />
    <glyph glyph-name="exclam" unicode="!" horiz-adv-x="250" 
d="M119 269c-7 0 -12 6 -11 12l47 406c1 11 9 13 16 13h26c7 0 12 -6 11 -13l-67 -406c-2 -6 -8 -12 -14 -12h-8zM50 25c0 26 22 45 45 45c20 0 33 -15 33 -35c0 -25 -20 -45 -44 -45c-20 0 -34 16 -34 35z" />
    <glyph glyph-name="quotedbl" unicode="&#x22;" horiz-adv-x="314" 
d="M244 501c-4 0 -8 3 -7 11l26 175c1 7 7 13 14 13h22c8 0 11 -6 9 -16l-42 -172c-1 -6 -6 -11 -11 -11h-11zM109 501c-5 0 -8 3 -7 11l25 175c1 7 8 13 15 13h22c7 0 11 -6 9 -16l-42 -172c-2 -6 -6 -11 -11 -11h-11z" />
    <glyph glyph-name="numbersign" unicode="#" horiz-adv-x="525" 
d="M75 15l55 191h-74c-6 0 -10 6 -9 13l1 7c1 7 6 11 13 11h77l53 182h-78c-7 0 -12 6 -11 13l1 6c1 7 7 13 14 13h83l68 238c2 8 8 11 14 11h6c8 0 11 -7 9 -15l-67 -234h145l68 238c2 8 8 11 14 11h5c8 0 11 -7 9 -15l-66 -234h73c7 0 11 -6 10 -13l-1 -6
c-1 -7 -6 -13 -13 -13h-77l-53 -182h77c7 0 12 -6 11 -13l-1 -7c-1 -7 -6 -11 -13 -11h-83l-56 -195c-2 -6 -8 -11 -14 -11h-6c-9 0 -13 4 -9 15l55 191h-146l-55 -195c-2 -6 -8 -11 -14 -11h-6c-8 0 -13 4 -9 15zM169 237h145l52 182h-144z" />
    <glyph glyph-name="dollar" unicode="$" 
d="M86 72c-4 5 -10 14 -1 22l14 13c8 7 15 5 21 -3c15 -19 54 -65 136 -71l42 300c-94 36 -155 93 -155 183c0 78 64 185 208 193l5 37c1 9 9 13 15 13h4c7 0 12 -5 11 -13l-6 -38c80 -5 132 -50 132 -50c2 -2 7 -8 2 -15l-17 -24c-3 -5 -10 -5 -16 0c-11 10 -48 40 -107 46
c-13 -98 -28 -200 -42 -298c96 -40 156 -89 156 -179c0 -114 -103 -192 -210 -198l-15 -108c-1 -8 -8 -12 -15 -12c-8 0 -15 3 -14 12l16 108c-112 10 -155 71 -164 82zM305 379l40 287c-109 -6 -155 -88 -155 -146c0 -73 45 -112 115 -141zM284 33c81 5 155 68 155 151
c0 65 -44 105 -114 136z" />
    <glyph glyph-name="percent" unicode="%" horiz-adv-x="628" 
d="M195 434c-61 0 -106 53 -106 119c0 87 70 157 145 157c61 0 106 -53 106 -119c0 -87 -70 -157 -145 -157zM82 14l435 679c4 7 10 7 14 7h18c8 0 11 -6 6 -14l-433 -676c-7 -10 -13 -10 -17 -10h-17c-8 0 -11 6 -6 14zM200 471c53 0 101 52 101 115c0 47 -30 86 -72 86
c-54 0 -101 -52 -101 -114c0 -48 29 -87 72 -87zM309 109c0 86 69 157 145 157c61 0 105 -54 105 -120c0 -86 -70 -157 -144 -157c-63 0 -106 54 -106 120zM347 113c0 -48 30 -86 73 -86c52 0 101 51 101 114c0 47 -30 86 -73 86c-53 0 -101 -52 -101 -114z" />
    <glyph glyph-name="ampersand" unicode="&#x26;" horiz-adv-x="610" 
d="M51 147c0 122 89 188 163 230l-18 23c-29 38 -49 76 -49 133c0 100 72 177 178 177c86 0 128 -63 128 -130c0 -103 -98 -168 -179 -214l149 -199c48 54 83 149 84 224c0 5 3 9 8 9h22c9 0 10 -5 10 -11c0 -80 -32 -173 -97 -255l77 -101c7 -7 12 -18 3 -24l-16 -12
c-10 -8 -16 -3 -20 2l-73 99s-96 -108 -217 -108c-98 0 -153 73 -153 157zM251 397c71 40 156 95 156 177c0 48 -27 97 -90 97c-71 0 -129 -68 -129 -137c0 -40 17 -77 41 -109zM95 153c0 -69 48 -123 115 -123c103 0 186 101 186 101l-159 216c-67 -39 -142 -95 -142 -194z
" />
    <glyph glyph-name="quotesingle" unicode="'" horiz-adv-x="178" 
d="M108 501c-4 0 -8 3 -7 11l26 175c1 7 7 13 14 13h22c8 0 11 -6 9 -16l-42 -172c-2 -6 -6 -11 -11 -11h-11z" />
    <glyph glyph-name="parenleft" unicode="(" horiz-adv-x="327" 
d="M61 207c0 370 153 496 280 503c7 0 11 -3 11 -9l-1 -15c0 -7 -5 -12 -9 -12c-143 -21 -237 -170 -237 -466c0 -158 52 -236 136 -249c5 -1 8 -5 6 -12l-4 -17c-1 -6 -6 -8 -12 -8c-87 6 -170 79 -170 285z" />
    <glyph glyph-name="parenright" unicode=")" horiz-adv-x="326" 
d="M-5 -40c145 21 236 168 236 463c0 157 -51 238 -135 251c-6 0 -9 6 -7 13l3 14c1 6 6 9 14 9c86 -5 168 -81 168 -287c0 -370 -150 -496 -278 -501c-9 0 -12 2 -12 8l1 18c0 7 5 11 10 12z" />
    <glyph glyph-name="asterisk" unicode="*" horiz-adv-x="390" 
d="M208 410c-7 0 -12 6 -11 13l15 103l-83 -55c-7 -4 -15 -2 -17 4l-3 8c-2 6 -2 13 5 17l88 55l-73 55c-4 3 -6 12 -1 17l7 8c4 5 10 8 16 4l69 -55l14 103c1 7 8 13 14 13h8c7 0 12 -6 11 -13l-16 -103l84 56c7 5 15 2 17 -4l3 -8c2 -6 1 -13 -6 -17l-88 -56l73 -56
c5 -3 5 -11 2 -16l-6 -9c-4 -6 -13 -8 -18 -4l-69 56l-13 -103c-1 -7 -6 -13 -15 -13h-7z" />
    <glyph glyph-name="plus" unicode="+" 
d="M262 155l24 171h-153c-7 0 -12 6 -11 13l3 16c1 7 7 13 14 13h153l24 172c1 7 7 12 14 12h16c7 0 12 -5 11 -12l-24 -172h152c7 0 12 -6 11 -13l-3 -16c-1 -7 -7 -13 -14 -13h-152l-24 -171c-1 -7 -7 -13 -14 -13h-17c-6 0 -11 6 -10 13z" />
    <glyph glyph-name="comma" unicode="," horiz-adv-x="223" 
d="M30 25c0 25 21 46 48 46c33 0 51 -35 51 -77c0 -62 -35 -122 -84 -164c-6 -5 -9 -4 -13 0l-10 10c-6 6 -2 10 3 15c33 33 67 73 67 124c0 10 -2 19 -5 25c-7 -7 -15 -11 -26 -11c-19 0 -31 14 -31 32z" />
    <glyph glyph-name="hyphen" unicode="-" horiz-adv-x="376" 
d="M80 231c-7 0 -11 6 -10 13l1 11c1 8 7 13 14 13h200c7 0 12 -5 11 -13l-1 -11c-1 -7 -6 -13 -15 -13h-200z" />
    <glyph glyph-name="period" unicode="." horiz-adv-x="216" 
d="M29 29c0 30 25 52 53 52c23 0 37 -17 37 -41c0 -28 -23 -51 -51 -51c-23 0 -39 18 -39 40z" />
    <glyph glyph-name="slash" unicode="/" horiz-adv-x="355" 
d="M23 14l290 678c2 5 7 8 13 8h16c9 0 13 -6 9 -14l-291 -677c-2 -6 -9 -9 -13 -9h-15c-8 0 -13 5 -9 14z" />
    <glyph glyph-name="zero" unicode="0" horiz-adv-x="618" 
d="M269 -10c-121 0 -185 104 -185 269c0 269 111 451 286 451c120 0 184 -105 184 -270c0 -270 -109 -450 -285 -450zM275 32c145 0 233 162 233 405c0 141 -50 229 -144 229c-146 0 -234 -163 -234 -405c0 -142 49 -229 145 -229z" />
    <glyph glyph-name="one" unicode="1" horiz-adv-x="328" 
d="M129 13l90 610h-1l-115 -95c-6 -4 -11 -4 -15 1l-13 18c-4 5 -4 10 3 16l157 131c5 5 11 6 18 6h10c5 0 10 -5 9 -12l-95 -675c-1 -7 -8 -13 -16 -13h-20c-7 0 -13 6 -12 13z" />
    <glyph glyph-name="two" unicode="2" horiz-adv-x="518" 
d="M94 43v-1h301c7 0 13 -6 12 -13l-3 -16c-1 -7 -8 -13 -14 -13h-361c-8 0 -12 6 -12 12l1 9c1 7 3 12 8 17l274 267c85 81 132 147 132 225c0 68 -36 134 -132 134c-76 0 -132 -68 -146 -83c-6 -7 -13 -9 -19 -4l-16 12c-5 4 -5 12 1 19c39 47 103 102 185 102
c120 0 177 -81 177 -172c0 -107 -65 -178 -151 -262z" />
    <glyph glyph-name="three" unicode="3" horiz-adv-x="537" 
d="M37 87c-3 6 -1 11 3 14l18 12c6 4 13 2 17 -5c12 -20 46 -77 142 -77c100 0 182 70 182 173c0 86 -75 131 -140 131h-87c-12 0 -13 5 -12 11l3 21c1 8 6 12 16 12h82c79 0 169 62 169 164c0 73 -48 122 -116 122c-85 0 -142 -63 -156 -77c-5 -5 -11 -5 -16 0l-14 15
c-5 4 -4 12 1 17c30 33 99 90 189 90c96 0 162 -64 162 -157c0 -97 -63 -167 -129 -196v-2c48 -18 97 -75 97 -147c0 -120 -97 -218 -237 -218c-113 0 -159 70 -174 97z" />
    <glyph glyph-name="four" unicode="4" horiz-adv-x="581" 
d="M36 161c-12 0 -16 4 -15 12l1 11c1 7 3 12 8 18l437 500c5 6 10 8 17 8h7c5 0 9 -2 8 -13l-69 -495h71c7 0 12 -5 11 -13l-2 -15c-1 -7 -8 -13 -14 -13h-72l-21 -148c-1 -7 -5 -13 -14 -13h-21c-11 0 -11 7 -10 14l21 147h-343zM85 204v-2h301l61 417h-2z" />
    <glyph glyph-name="five" unicode="5" horiz-adv-x="543" 
d="M48 87c-3 6 -1 11 3 14l20 12c5 4 12 2 16 -5c13 -20 46 -77 141 -77c113 0 201 105 201 225c0 84 -47 142 -147 142h-151c-13 0 -18 11 -17 21l37 268c1 7 7 13 16 13h289c6 0 11 -6 10 -13l-2 -16c-1 -8 -7 -14 -14 -14h-260l-31 -216h129c125 0 190 -66 190 -184
c0 -145 -115 -267 -255 -267c-113 0 -159 70 -175 97z" />
    <glyph glyph-name="six" unicode="6" horiz-adv-x="552" 
d="M68 224c0 323 274 458 370 496c8 2 12 -1 15 -11l4 -12c3 -8 -2 -15 -13 -19c-56 -21 -248 -113 -306 -299h1c18 23 88 74 178 74c95 0 174 -77 174 -193c0 -149 -116 -270 -243 -270c-124 0 -180 105 -180 234zM254 31c97 0 191 102 191 221c0 92 -59 158 -136 158
c-107 0 -184 -99 -187 -103c0 0 -10 -30 -10 -78c0 -102 43 -198 142 -198z" />
    <glyph glyph-name="seven" unicode="7" horiz-adv-x="466" 
d="M431 655v2h-332c-9 0 -14 3 -12 16l2 15c1 9 8 12 16 12h374c10 0 13 -8 13 -14c0 -4 0 -6 -6 -17l-358 -657c-4 -7 -7 -12 -16 -12h-28c-10 0 -8 10 -5 16z" />
    <glyph glyph-name="eight" unicode="8" horiz-adv-x="571" 
d="M61 156c0 109 84 180 161 201c0 1 0 1 1 2c-52 19 -97 74 -97 144c0 109 77 207 216 207c110 0 171 -73 171 -162c0 -98 -73 -166 -144 -189v-2c59 -17 113 -72 113 -151c0 -133 -87 -216 -238 -216c-110 0 -183 63 -183 166zM299 384c102 8 167 67 167 159
c0 68 -45 128 -129 128c-100 0 -166 -81 -166 -161c0 -74 47 -120 128 -126zM106 163c0 -91 63 -134 142 -134c101 0 186 59 186 169c0 68 -52 127 -142 136c-111 -11 -186 -85 -186 -171z" />
    <glyph glyph-name="nine" unicode="9" horiz-adv-x="552" 
d="M114 5c-4 11 2 16 13 20c56 20 248 112 306 299h-1c-18 -23 -88 -75 -178 -75c-95 0 -174 78 -174 194c0 148 119 267 243 267s180 -102 180 -231c0 -323 -274 -458 -370 -497c-8 -2 -12 1 -14 8zM262 293c107 0 184 99 187 103c0 0 10 30 10 78c0 102 -43 195 -142 195
c-97 0 -191 -99 -191 -219c0 -91 59 -157 136 -157z" />
    <glyph glyph-name="colon" unicode=":" horiz-adv-x="241" 
d="M136 380c-23 0 -41 20 -41 42c0 28 27 50 53 50c23 0 38 -17 38 -38c0 -30 -23 -54 -50 -54zM41 29c0 30 25 52 52 52c23 0 37 -17 37 -41c0 -28 -22 -51 -50 -51c-23 0 -39 18 -39 40z" />
    <glyph glyph-name="semicolon" unicode=";" horiz-adv-x="261" 
d="M142 380c-24 0 -40 20 -40 40c0 30 26 52 52 52c23 0 38 -17 38 -38c0 -30 -23 -54 -50 -54zM46 25c0 25 21 46 48 46c33 0 51 -35 51 -77c0 -62 -35 -122 -84 -164c-6 -5 -9 -4 -13 0l-10 10c-6 6 -2 10 3 15c33 33 67 73 67 124c0 10 -2 19 -5 25
c-7 -7 -15 -11 -26 -11c-19 0 -31 14 -31 32z" />
    <glyph glyph-name="less" unicode="&#x3c;" 
d="M118 215c-6 5 -8 9 -8 13v2c0 5 3 10 12 16l350 224c8 5 16 2 15 -10l-2 -26c0 -4 -2 -9 -11 -15l-300 -191l247 -187c7 -5 7 -13 6 -17l-3 -16c-2 -12 -11 -15 -19 -10z" />
    <glyph glyph-name="equal" unicode="=" 
d="M170 366c-11 0 -12 6 -11 13l2 17c1 7 4 13 15 13h281c6 0 11 -6 10 -13l-2 -17c-1 -7 -7 -13 -14 -13h-281zM140 158c-11 0 -11 6 -10 13l2 17c1 7 3 13 14 13h281c7 0 12 -6 11 -13l-2 -17c-1 -7 -6 -13 -15 -13h-281z" />
    <glyph glyph-name="greater" unicode="&#x3e;" 
d="M114 -2c-8 -5 -17 -2 -16 10l3 26c1 6 3 11 10 15l299 184l-246 192c-6 4 -7 10 -6 16l3 19c2 12 12 16 20 10l285 -224c6 -5 8 -10 8 -15v-1c0 -6 -5 -11 -12 -15z" />
    <glyph glyph-name="question" unicode="?" horiz-adv-x="424" 
d="M180 273c-8 0 -13 4 -12 14l8 58c5 39 30 67 64 92c53 40 115 77 115 146c0 41 -29 86 -87 86c-78 0 -122 -54 -132 -69c-3 -5 -8 -8 -17 -2l-14 10c-10 7 -5 13 -1 19c0 0 51 83 169 83c81 0 128 -56 128 -120c0 -98 -89 -148 -137 -185c-28 -22 -42 -40 -45 -61l-8 -57
c-1 -9 -6 -14 -14 -14h-17zM119 25c0 26 21 45 44 45c20 0 35 -15 35 -35c0 -25 -22 -45 -46 -45c-19 0 -33 16 -33 35z" />
    <glyph glyph-name="at" unicode="@" horiz-adv-x="915" 
d="M548 99c-18 -27 -71 -79 -141 -79c-84 0 -139 74 -139 175c0 149 103 245 209 245c65 0 96 -35 102 -43l6 21c3 8 5 12 15 12h10c7 0 12 -6 11 -13l-36 -251c-10 -76 12 -109 58 -109c115 0 186 141 186 307c0 180 -98 309 -293 309c-259 0 -442 -216 -442 -513
c0 -160 79 -287 196 -348c9 -4 9 -7 4 -16l-9 -16c-4 -7 -8 -9 -15 -6c-129 65 -216 205 -216 381c0 314 197 555 488 555c213 0 327 -143 327 -342c0 -143 -57 -348 -233 -348c-58 0 -83 35 -88 79zM313 201c0 -82 40 -139 103 -139c76 0 115 72 124 92l27 189
c-1 4 -25 56 -93 56c-83 0 -161 -77 -161 -198z" />
    <glyph glyph-name="A" unicode="A" horiz-adv-x="605" 
d="M10 0h-29c-7 0 -9 6 -5 14l370 689c2 4 5 7 13 7h3c5 0 10 0 12 -7l182 -691c2 -6 0 -12 -11 -12h-26c-9 0 -12 5 -13 9l-46 184h-338l-96 -184c-2 -4 -7 -9 -16 -9zM145 232h304l-96 398h-3z" />
    <glyph glyph-name="B" unicode="B" horiz-adv-x="583" 
d="M407 356v-1c50 -20 94 -69 94 -140c0 -131 -98 -215 -226 -215h-201c-7 0 -12 6 -11 13l95 674c1 7 8 13 14 13h193c100 0 163 -62 163 -155s-57 -161 -121 -189zM161 376h156c93 0 161 71 161 164c0 72 -45 116 -119 116h-159zM113 42h170c92 0 167 65 167 168
c0 76 -55 123 -137 123h-159z" />
    <glyph glyph-name="C" unicode="C" horiz-adv-x="656" 
d="M65 301c0 230 176 409 379 409c91 0 157 -34 207 -93c4 -5 4 -13 -1 -18l-17 -15c-7 -6 -11 -5 -17 1c-42 51 -105 80 -177 80c-170 0 -323 -164 -323 -359c0 -148 96 -267 234 -267c77 0 142 36 195 84c7 6 13 5 16 2l19 -21c4 -4 3 -12 -2 -17
c-71 -65 -152 -97 -232 -97c-162 0 -281 138 -281 311z" />
    <glyph glyph-name="D" unicode="D" horiz-adv-x="683" 
d="M63 13l95 674c1 7 7 13 13 13h193c153 0 271 -137 271 -304c0 -218 -173 -396 -369 -396h-193c-6 0 -11 6 -10 13zM114 43h149c172 0 322 153 322 351c0 148 -95 263 -236 263h-149z" />
    <glyph glyph-name="E" unicode="E" horiz-adv-x="538" 
d="M63 13l95 674c1 7 8 13 14 13h360c7 0 12 -6 11 -13l-2 -17c-1 -7 -8 -13 -15 -13h-324l-39 -276h280c7 0 12 -6 11 -13l-2 -17c-1 -7 -8 -13 -15 -13h-280l-42 -296h325c7 0 12 -6 11 -13l-3 -16c-1 -7 -7 -13 -14 -13h-360c-7 0 -12 6 -11 13z" />
    <glyph glyph-name="F" unicode="F" horiz-adv-x="522" 
d="M63 13l95 674c1 7 8 13 14 13h360c7 0 12 -6 11 -13l-2 -17c-1 -7 -8 -13 -15 -13h-324l-43 -304h284c7 0 12 -6 11 -13l-2 -17c-1 -7 -8 -13 -15 -13h-284l-43 -297c-2 -9 -7 -13 -15 -13h-21c-7 0 -12 6 -11 13z" />
    <glyph glyph-name="G" unicode="G" horiz-adv-x="685" 
d="M65 306c0 225 177 404 381 404c90 0 155 -34 205 -93c4 -5 4 -13 -2 -18l-18 -16c-7 -7 -12 -6 -17 0c-41 52 -104 82 -176 82c-169 0 -322 -162 -322 -357c0 -149 95 -270 234 -270c112 0 191 64 191 64l24 177h-143c-11 0 -12 4 -11 13l3 20c1 8 3 12 14 12h179
c7 0 12 -6 11 -12l-30 -215c-2 -17 -9 -24 -17 -31c-19 -16 -118 -76 -226 -76c-158 0 -280 138 -280 316z" />
    <glyph glyph-name="H" unicode="H" horiz-adv-x="694" 
d="M63 13l95 674c1 7 6 13 14 13h22c8 0 12 -6 11 -13l-44 -307h398l43 307c1 7 6 13 14 13h22c8 0 12 -6 11 -13l-95 -674c-1 -7 -7 -13 -14 -13h-22c-7 0 -12 6 -11 13l46 325h-397l-46 -325c-1 -7 -7 -13 -15 -13h-21c-7 0 -12 6 -11 13z" />
    <glyph glyph-name="I" unicode="I" horiz-adv-x="252" 
d="M64 13l94 674c1 7 6 13 15 13h22c7 0 12 -6 11 -13l-94 -674c-2 -8 -9 -13 -16 -13h-21c-7 0 -12 6 -11 13z" />
    <glyph glyph-name="J" unicode="J" horiz-adv-x="434" 
d="M-6 65c-3 6 -3 13 3 17l14 11c6 5 12 7 17 0c15 -22 43 -61 100 -61c72 0 133 42 150 161l70 494c1 8 7 13 15 13h21c7 0 12 -6 11 -13l-70 -493c-20 -140 -93 -204 -201 -204c-79 0 -118 54 -130 75z" />
    <glyph glyph-name="K" unicode="K" horiz-adv-x="534" 
d="M63 13l95 672c1 9 8 15 16 15h19c9 0 14 -6 13 -15l-45 -312l346 320c9 7 11 7 20 7h30c11 0 11 -11 4 -17l-357 -330l274 -336c5 -5 1 -17 -13 -17h-24c-9 0 -13 2 -20 10l-265 329l-45 -326c-1 -10 -9 -13 -17 -13h-20c-8 0 -12 5 -11 13z" />
    <glyph glyph-name="L" unicode="L" horiz-adv-x="457" 
d="M63 13l95 674c1 7 8 13 14 13h23c6 0 11 -6 10 -13l-91 -645h283c12 0 12 -6 11 -13l-3 -18c-1 -7 -7 -11 -14 -11h-317c-7 0 -12 6 -11 13z" />
    <glyph glyph-name="M" unicode="M" horiz-adv-x="791" 
d="M15 13l227 690c1 4 3 7 10 7h9c5 0 6 -2 7 -7l94 -602h2l275 602c2 5 5 7 9 7h9c4 0 8 -3 8 -7l33 -690c0 -10 -4 -13 -13 -13h-24c-6 0 -10 5 -10 11l-20 572h-2l-264 -585c-3 -6 -6 -8 -12 -8h-4c-5 0 -9 1 -10 8l-93 585h-2l-183 -572c-2 -6 -7 -11 -13 -11h-24
c-9 0 -12 3 -9 13z" />
    <glyph glyph-name="N" unicode="N" horiz-adv-x="709" 
d="M64 13l96 684c2 8 8 13 16 13h5c7 0 11 -3 15 -9l338 -612h2l82 598c1 7 8 13 15 13h20c7 0 12 -6 11 -13l-96 -684c-1 -9 -9 -13 -17 -13h-6c-7 0 -11 3 -15 9l-336 614h-1l-84 -600c-2 -13 -15 -13 -25 -13h-9c-7 0 -12 6 -11 13z" />
    <glyph glyph-name="O" unicode="O" horiz-adv-x="769" 
d="M65 300c0 226 172 410 379 410c158 0 278 -140 278 -313c0 -226 -172 -407 -379 -407c-158 0 -278 138 -278 310zM111 306c0 -150 98 -272 238 -272c170 0 327 160 327 357c0 151 -98 275 -238 275c-171 0 -327 -162 -327 -360z" />
    <glyph glyph-name="P" unicode="P" horiz-adv-x="555" 
d="M63 13l95 674c1 7 8 13 14 13h195c96 0 174 -88 174 -195c0 -140 -104 -256 -237 -256h-161l-33 -236c-1 -7 -8 -13 -18 -13h-18c-7 0 -12 6 -11 13zM150 295h158c103 0 184 93 184 205c0 90 -56 153 -135 153h-157z" />
    <glyph glyph-name="Q" unicode="Q" horiz-adv-x="769" 
d="M65 300c0 226 172 410 379 410c158 0 278 -140 278 -313c0 -177 -104 -325 -252 -384l80 -191c2 -5 -1 -15 -9 -15h-33c-3 0 -9 2 -12 10l-73 183c-25 -7 -55 -10 -80 -10c-158 0 -278 138 -278 310zM112 306c0 -150 97 -272 237 -272c170 0 327 160 327 357
c0 151 -98 275 -238 275c-171 0 -326 -162 -326 -360z" />
    <glyph glyph-name="R" unicode="R" horiz-adv-x="602" 
d="M146 270l-36 -257c-1 -7 -8 -13 -18 -13h-18c-7 0 -12 6 -11 13l95 674c1 7 6 13 14 13h225c94 0 172 -81 172 -186c0 -115 -77 -210 -177 -237l93 -259c3 -8 1 -18 -10 -18h-25c-11 0 -14 3 -17 13l-91 258c-12 -1 -25 -1 -37 -1h-159zM153 316h187c92 0 179 82 179 192
c0 82 -55 146 -131 146h-187z" />
    <glyph glyph-name="S" unicode="S" horiz-adv-x="503" 
d="M39 70c-5 5 -10 13 -2 21l11 14c7 9 14 9 21 2c29 -28 76 -75 159 -75c89 0 164 65 164 151c0 74 -61 109 -150 154c-87 44 -149 85 -149 177c0 93 65 196 216 196c71 0 115 -25 153 -51c6 -4 9 -13 3 -21l-8 -11c-6 -8 -13 -11 -22 -5c-42 29 -80 45 -130 45
c-111 0 -165 -77 -165 -149c0 -70 53 -105 126 -140c105 -50 174 -95 174 -190c0 -118 -97 -198 -215 -198c-95 0 -163 56 -186 80z" />
    <glyph glyph-name="T" unicode="T" horiz-adv-x="469" 
d="M171 13l91 644h-170c-10 0 -11 6 -10 15l2 15c1 8 8 13 14 13h386c8 0 12 -6 11 -13l-2 -17c-1 -7 -7 -13 -15 -13h-170l-90 -644c-1 -7 -7 -13 -17 -13h-19c-7 0 -12 6 -11 13z" />
    <glyph glyph-name="U" unicode="U" horiz-adv-x="663" 
d="M89 242l63 445c1 7 8 13 14 13h22c7 0 12 -6 11 -13l-62 -440c-2 -16 -3 -31 -3 -45c0 -103 58 -166 162 -166c118 0 201 81 219 210l63 441c1 8 5 13 15 13h21c6 0 11 -6 10 -13l-62 -445c-22 -153 -126 -252 -273 -252c-123 0 -203 80 -203 207c0 15 1 29 3 45z" />
    <glyph glyph-name="V" unicode="V" horiz-adv-x="598" 
d="M242 -1l-175 688c-2 8 0 13 10 13h27c5 0 8 -3 9 -7l151 -609h3l328 609c2 3 4 7 12 7h28c9 0 12 -5 7 -14l-372 -687c-3 -5 -7 -9 -13 -9h-4c-7 0 -10 4 -11 9z" />
    <glyph glyph-name="W" unicode="W" horiz-adv-x="809" 
d="M176 -3l-84 690c-1 10 4 13 13 13h24c6 0 9 -5 10 -11l65 -571h3l240 583c3 6 5 9 11 9h6c6 0 9 -3 10 -9l80 -582h2l225 570c2 6 7 11 13 11h26c9 0 13 -3 10 -13l-276 -690c-2 -4 -5 -7 -9 -7h-7c-6 0 -8 2 -9 7l-81 595h-3l-244 -595c-2 -5 -4 -7 -9 -7h-7
c-6 0 -9 3 -9 7z" />
    <glyph glyph-name="X" unicode="X" horiz-adv-x="518" 
d="M2 0c-10 0 -12 7 -6 15l244 344l-139 326c-3 8 1 15 11 15h24c4 0 9 -2 11 -6l124 -298h1l205 298c3 5 9 6 14 6h31c10 0 13 -7 7 -15l-232 -327l149 -343c4 -8 0 -15 -10 -15h-26c-5 0 -10 1 -12 6l-134 312h-1l-216 -312c-3 -4 -8 -6 -13 -6h-32z" />
    <glyph glyph-name="Y" unicode="Y" horiz-adv-x="527" 
d="M270 388h2l247 306c4 4 9 6 14 6h33c10 0 14 -7 7 -15l-282 -344l-46 -328c-1 -7 -8 -13 -15 -13h-20c-7 0 -12 4 -11 13l45 327l-181 347c-4 8 0 13 9 13h28c7 0 10 -4 11 -6z" />
    <glyph glyph-name="Z" unicode="Z" horiz-adv-x="484" 
d="M3 0c-10 0 -13 5 -12 12l1 8c1 7 3 12 7 18l438 615v3h-315c-8 0 -11 5 -10 13l2 19c1 7 6 12 15 12h368c9 0 12 -5 11 -12l-1 -7c-1 -7 -3 -12 -7 -18l-439 -616v-3h325c8 0 12 -6 11 -13l-2 -18c-1 -7 -7 -13 -15 -13h-377z" />
    <glyph glyph-name="bracketleft" unicode="[" horiz-adv-x="317" 
d="M62 -197h144c7 0 12 -6 11 -13l-2 -15c-1 -7 -7 -13 -15 -13h-174c-7 0 -12 6 -11 13l128 912c1 7 8 13 15 13h174c7 0 12 -6 11 -13l-2 -15c-1 -7 -7 -13 -15 -13h-144z" />
    <glyph glyph-name="backslash" unicode="\" horiz-adv-x="354" 
d="M218 9l-101 681c-1 7 0 10 9 10h18c6 0 10 -3 11 -8l100 -682c1 -6 -1 -10 -9 -10h-17c-5 0 -10 3 -11 9z" />
    <glyph glyph-name="bracketright" unicode="]" horiz-adv-x="317" 
d="M-24 -197h143l120 856h-143c-7 0 -12 6 -11 13l2 15c1 7 8 13 15 13h173c7 0 12 -6 11 -13l-128 -912c-1 -7 -8 -13 -15 -13h-173c-7 0 -12 6 -11 13l2 15c1 7 8 13 15 13z" />
    <glyph glyph-name="asciicircum" unicode="^" horiz-adv-x="472" 
d="M58 400c-10 0 -10 7 -3 16l229 291c3 4 7 7 11 7h1c5 0 7 -3 9 -7l151 -291c5 -8 2 -16 -8 -16h-21c-8 0 -13 4 -15 8l-122 240h-1l-189 -240c-3 -4 -9 -8 -16 -8h-26z" />
    <glyph glyph-name="underscore" unicode="_" horiz-adv-x="523" 
d="M72 -10h281c7 0 12 -6 11 -13l-2 -10c-1 -7 -7 -12 -14 -12h-281c-8 0 -12 5 -11 12l1 10c1 7 7 13 15 13z" />
    <glyph glyph-name="grave" unicode="`" horiz-adv-x="272" 
d="M238 560l-142 79c-5 3 -5 9 -1 15l12 19c4 7 12 7 17 3l132 -90c6 -4 6 -9 4 -14l-6 -9c-4 -5 -7 -7 -16 -3z" />
    <glyph glyph-name="a" unicode="a" horiz-adv-x="517" 
d="M453 447l-59 -432c-1 -8 -9 -15 -16 -15h-9c-8 0 -14 5 -13 16l2 40c-13 -16 -71 -67 -150 -67c-95 0 -160 91 -160 212c0 147 105 271 233 271c76 0 119 -43 127 -54l10 31c3 10 7 13 14 13h10c7 0 13 -7 11 -15zM364 115l34 254c-3 5 -39 60 -118 60
c-106 0 -188 -106 -188 -228c0 -89 49 -170 124 -170c85 0 146 79 148 84z" />
    <glyph glyph-name="b" unicode="b" horiz-adv-x="519" 
d="M61 0c-9 0 -14 7 -13 15l94 671c1 7 8 14 16 14h17c7 0 14 -7 13 -14l-38 -259s59 45 137 45c97 0 169 -89 169 -210c0 -147 -102 -274 -226 -274c-80 0 -124 52 -132 69l-10 -42c-3 -11 -8 -15 -18 -15h-9zM107 112c2 -5 38 -81 125 -81c95 0 179 109 179 230
c0 93 -55 168 -138 168c-72 0 -128 -48 -128 -48z" />
    <glyph glyph-name="c" unicode="c" horiz-adv-x="479" 
d="M47 197c0 169 117 275 250 275c75 0 123 -43 143 -70c5 -6 1 -13 -6 -21l-7 -8c-8 -9 -17 -3 -23 3c-16 18 -50 53 -111 53c-101 0 -202 -85 -202 -232c0 -87 63 -166 144 -166c74 0 122 56 137 73c8 10 12 8 20 2l12 -10c6 -5 6 -12 1 -18c-22 -29 -86 -89 -175 -89
c-104 0 -183 90 -183 208z" />
    <glyph glyph-name="d" unicode="d" horiz-adv-x="517" 
d="M47 194c0 156 101 278 237 278c77 0 122 -45 122 -45l37 259c2 11 6 14 15 14h17c8 0 14 -7 12 -14l-93 -671c-1 -8 -9 -15 -16 -15h-10c-8 0 -14 5 -13 16l2 40c-13 -16 -74 -67 -152 -67c-96 0 -158 91 -158 205zM214 31c85 0 146 79 148 84l37 263s-43 51 -117 51
c-109 0 -191 -104 -191 -232c0 -89 49 -166 123 -166z" />
    <glyph glyph-name="e" unicode="e" horiz-adv-x="474" 
d="M47 193c0 151 97 279 238 279c81 0 142 -46 142 -117c0 -138 -192 -149 -335 -138c-10 -107 41 -186 131 -186c66 0 107 30 129 46c10 7 16 6 22 -4l7 -11c3 -5 4 -12 -3 -18c-28 -21 -81 -55 -160 -55c-108 0 -171 91 -171 204zM98 257c141 -11 285 2 285 95
c0 48 -44 77 -103 77c-88 0 -168 -77 -182 -172z" />
    <glyph glyph-name="f" unicode="f" horiz-adv-x="345" 
d="M50 -238c-8 0 -14 8 -12 15l91 643h-66c-10 0 -14 8 -13 15l2 12c2 8 9 15 16 15h66l12 76c16 104 62 172 157 172c53 0 92 -24 110 -47c6 -7 3 -14 -1 -19l-11 -12c-7 -6 -14 -7 -20 0c-19 20 -44 35 -78 35c-68 0 -100 -48 -113 -134l-11 -71h150c9 0 15 -5 13 -14
l-3 -15c-1 -7 -6 -13 -16 -13h-149l-91 -643c-1 -7 -9 -15 -17 -15h-16z" />
    <glyph glyph-name="g" unicode="g" horiz-adv-x="517" 
d="M46 194c0 154 106 278 234 278c76 0 120 -43 128 -54l10 31c2 10 8 13 15 13h8c7 0 13 -7 11 -15l-59 -435c-24 -176 -112 -231 -203 -231c-79 0 -137 60 -151 76c-7 7 -6 16 1 23l9 9c6 6 15 9 26 -3c16 -18 57 -62 118 -62c59 0 133 31 156 185l3 24
c-11 -12 -61 -43 -131 -43c-109 0 -175 90 -175 204zM92 199c0 -91 51 -168 134 -168c75 0 128 48 132 54l40 282c-3 5 -40 62 -119 62c-106 0 -187 -107 -187 -230z" />
    <glyph glyph-name="h" unicode="h" horiz-adv-x="506" 
d="M59 0c-9 0 -12 7 -11 15l94 671c1 7 4 14 13 14h20c7 0 14 -7 13 -14l-41 -284c13 15 69 70 153 70c99 0 142 -68 122 -206l-35 -251c-1 -8 -8 -15 -16 -15h-15c-9 0 -14 7 -13 15l35 251c15 114 -13 163 -87 163c-87 0 -148 -75 -152 -81l-47 -333
c-1 -10 -7 -15 -16 -15h-17z" />
    <glyph glyph-name="i" unicode="i" horiz-adv-x="216" 
d="M59 0c-9 0 -12 7 -11 15l61 432c1 8 9 15 18 15h14c8 0 13 -7 12 -15l-61 -432c-1 -10 -5 -15 -15 -15h-18zM150 590c-20 0 -35 14 -35 33c0 24 22 44 46 44c20 0 33 -14 33 -33c0 -24 -20 -44 -44 -44z" />
    <glyph glyph-name="j" unicode="j" horiz-adv-x="216" 
d="M150 591c-20 0 -35 14 -35 33c0 24 22 44 46 44c20 0 33 -14 33 -33c0 -24 -20 -44 -44 -44zM153 447l-72 -518c-16 -114 -62 -150 -140 -175c-13 -4 -19 -2 -22 8l-4 13c-3 8 1 19 13 22c54 13 96 43 107 123l74 527c1 8 9 15 18 15h14c7 0 14 -7 12 -15z" />
    <glyph glyph-name="k" unicode="k" horiz-adv-x="428" 
d="M59 0c-9 0 -12 7 -11 15l94 671c1 7 8 14 16 14h16c7 0 14 -7 13 -14l-59 -410l230 179c6 5 13 7 18 7h31c12 0 13 -11 3 -19l-244 -191l189 -232c8 -9 0 -20 -9 -20h-18c-9 0 -14 -1 -22 9l-183 230l-32 -224c-1 -10 -7 -15 -16 -15h-16z" />
    <glyph glyph-name="l" unicode="l" horiz-adv-x="229" 
d="M65 0c-9 0 -12 7 -11 15l94 671c1 7 8 14 14 14h19c6 0 14 -7 13 -14l-96 -671c-1 -10 -6 -15 -16 -15h-17z" />
    <glyph glyph-name="m" unicode="m" horiz-adv-x="761" 
d="M59 0c-9 0 -12 7 -11 15l60 432c1 8 6 15 15 15h10c7 0 11 -4 11 -12l-2 -46c15 16 66 68 145 68c63 0 93 -32 111 -77c26 25 76 77 160 77c108 0 137 -84 119 -206l-34 -251c-1 -8 -9 -15 -17 -15h-17c-8 0 -12 5 -11 15l35 251c15 107 -6 163 -83 163
c-79 0 -125 -56 -143 -78c4 -24 2 -54 -2 -85l-34 -251c-1 -8 -10 -15 -17 -15h-16c-9 0 -13 5 -12 15l35 251c15 107 -9 163 -82 163c-88 0 -135 -71 -140 -81l-47 -333c-2 -10 -6 -15 -16 -15h-17z" />
    <glyph glyph-name="n" unicode="n" horiz-adv-x="505" 
d="M59 0c-9 0 -12 7 -11 15l61 432c1 8 5 15 14 15h10c8 0 13 -4 13 -12l-3 -46c20 18 71 68 155 68c111 0 142 -81 124 -206l-36 -251c-1 -8 -8 -15 -16 -15h-15c-9 0 -14 7 -13 15l36 251c14 107 -8 163 -89 163c-84 0 -139 -65 -149 -77l-48 -337c-1 -10 -7 -15 -17 -15
h-16z" />
    <glyph glyph-name="o" unicode="o" horiz-adv-x="531" 
d="M46 197c0 151 111 275 247 275c100 0 176 -93 176 -207c0 -152 -112 -276 -245 -276c-100 0 -178 93 -178 208zM90 202c0 -96 57 -171 139 -171c101 0 196 102 196 230c0 94 -58 168 -139 168c-106 0 -196 -102 -196 -227z" />
    <glyph glyph-name="p" unicode="p" horiz-adv-x="517" 
d="M95 35l-36 -258c-1 -7 -9 -15 -18 -15h-13c-8 0 -14 8 -13 15l94 670c1 10 9 15 18 15h6c8 0 13 -3 13 -12l-1 -31c11 11 68 53 144 53c100 0 166 -91 166 -208c0 -152 -109 -275 -243 -275c-66 0 -103 30 -117 46zM103 83c12 -17 52 -52 110 -52c109 0 198 107 198 234
c0 89 -50 164 -132 164c-79 0 -134 -58 -138 -64z" />
    <glyph glyph-name="q" unicode="q" horiz-adv-x="515" 
d="M47 198c0 150 100 274 232 274c76 0 121 -43 129 -54l10 31c3 10 8 13 15 13h7c7 0 12 -7 11 -15l-92 -670c-1 -7 -9 -15 -16 -15h-15c-8 0 -14 8 -13 15l36 256c-11 -12 -61 -44 -131 -44c-103 0 -173 91 -173 209zM91 197c0 -91 55 -166 141 -166c69 0 121 48 125 54
l40 283c-3 5 -40 61 -119 61c-106 0 -187 -103 -187 -232z" />
    <glyph glyph-name="r" unicode="r" horiz-adv-x="359" 
d="M59 0c-9 0 -12 7 -11 15l61 432c1 8 7 15 14 15h11c6 0 13 -4 12 -13l-3 -44c13 19 64 67 141 67c32 0 53 -8 62 -12c10 -5 14 -12 10 -21l-9 -18c-4 -9 -11 -11 -20 -5c-6 3 -26 13 -57 13c-64 0 -112 -53 -130 -81l-48 -333c-1 -10 -5 -15 -15 -15h-18z" />
    <glyph glyph-name="s" unicode="s" horiz-adv-x="393" 
d="M162 -11c-61 0 -110 30 -133 51c-4 3 -7 10 -2 17l11 16c4 6 14 8 20 2c16 -14 49 -44 107 -44c66 0 113 41 113 93c0 45 -46 67 -105 96c-60 29 -106 60 -106 122c0 61 48 130 150 130c55 0 94 -21 113 -35c7 -5 8 -13 3 -21l-8 -12c-6 -8 -14 -9 -21 -4
c-8 6 -46 29 -90 29c-68 0 -103 -40 -103 -84c0 -39 38 -65 88 -89c67 -30 123 -63 123 -127c0 -82 -68 -140 -160 -140z" />
    <glyph glyph-name="t" unicode="t" horiz-adv-x="340" 
d="M155 -11c-74 0 -87 56 -76 130l44 301h-54c-11 0 -12 6 -10 15l3 15c2 9 7 12 14 12h53l17 126c1 9 9 15 17 15l13 1c9 0 15 -7 13 -15l-17 -127h143c9 0 13 -7 12 -15l-2 -12c-1 -9 -8 -15 -16 -15h-143l-43 -301c-8 -60 -2 -88 40 -88c40 0 81 26 96 35
c10 7 13 2 17 -4l8 -12c5 -8 4 -13 -5 -19c-19 -12 -66 -42 -124 -42z" />
    <glyph glyph-name="u" unicode="u" horiz-adv-x="494" 
d="M190 -11c-110 0 -141 69 -124 191l38 267c1 8 8 15 15 15h16c8 0 14 -7 13 -15l-39 -267c-14 -107 11 -149 91 -149c85 0 136 76 140 82l47 334c1 10 6 15 16 15h16c7 0 13 -7 11 -15l-59 -432c-1 -8 -6 -15 -14 -15h-12c-8 0 -11 7 -11 14l2 42
c-12 -17 -63 -67 -146 -67z" />
    <glyph glyph-name="v" unicode="v" horiz-adv-x="453" 
d="M168 0l-115 445c-2 9 0 17 10 17h21c5 0 11 -2 13 -11l94 -378h1l205 378c4 9 10 11 16 11h23c10 0 13 -8 7 -17l-242 -445c-4 -7 -10 -11 -15 -11h-6c-6 0 -11 6 -12 11z" />
    <glyph glyph-name="w" unicode="w" horiz-adv-x="649" 
d="M130 0l-64 443c-2 11 2 19 11 19h20c6 0 12 -2 13 -11l47 -355h2l172 365c4 8 9 11 14 11h5c5 0 9 -3 11 -11l72 -365h1l145 355c4 9 11 11 17 11h23c11 0 12 -8 7 -19l-189 -443c-3 -7 -7 -11 -13 -11h-4c-5 0 -9 4 -10 11l-73 380h-1l-179 -380c-3 -7 -8 -11 -14 -11
h-5c-3 0 -7 4 -8 11z" />
    <glyph glyph-name="x" unicode="x" horiz-adv-x="434" 
d="M6 0c-8 0 -13 8 -5 16l182 223l-113 207c-5 8 0 16 10 16h22c5 0 11 -3 15 -11l94 -178h2l146 178c5 8 12 11 19 11h25c10 0 15 -8 7 -16l-173 -211l120 -219c6 -8 0 -16 -9 -16h-26c-5 0 -8 3 -12 10l-102 192h-2l-154 -192c-7 -7 -12 -10 -19 -10h-27z" />
    <glyph glyph-name="y" unicode="y" horiz-adv-x="466" 
d="M170 3l-115 440c-3 10 1 19 11 19h21c6 0 11 -3 13 -11l98 -395h2l209 395c4 8 10 11 15 11h24c9 0 13 -9 7 -19l-359 -671c-3 -6 -9 -10 -16 -10h-21c-9 0 -13 6 -8 16z" />
    <glyph glyph-name="z" unicode="z" horiz-adv-x="392" 
d="M12 0c-10 0 -11 5 -11 13c0 10 4 14 8 20l297 386v1h-217c-7 0 -13 7 -11 14l3 13c3 11 6 15 14 15h268c8 0 14 -5 14 -11c0 -5 -2 -8 -4 -11l-304 -396v-2h219c8 0 14 -6 12 -15l-2 -12c-1 -8 -8 -15 -17 -15h-269z" />
    <glyph glyph-name="braceleft" unicode="{" horiz-adv-x="347" 
d="M70 -18l20 144c9 64 -35 82 -53 89c-5 2 -7 3 -6 9l2 16c1 6 3 7 9 9c20 7 69 25 78 89l19 140c26 189 135 232 229 232c6 0 11 -5 10 -12l-1 -12c-1 -7 -5 -11 -11 -12c-97 -8 -169 -60 -188 -197l-19 -139c-10 -70 -69 -102 -76 -106v-1c3 -2 56 -33 46 -105l-19 -143
c-18 -137 36 -188 131 -196c6 -1 8 -5 7 -12l-1 -12c-1 -7 -8 -12 -14 -12c-94 0 -186 63 -163 231z" />
    <glyph glyph-name="bar" unicode="|" horiz-adv-x="203" 
d="M15 -226l136 972c2 8 8 13 15 13h6c6 0 11 -5 9 -13l-136 -972c-1 -7 -7 -12 -14 -12h-5c-7 0 -12 5 -11 12z" />
    <glyph glyph-name="braceright" unicode="}" horiz-adv-x="347" 
d="M212 126l-20 -144c-26 -184 -129 -227 -228 -231c-6 0 -11 5 -10 12l1 12c1 7 5 11 11 12c96 8 168 58 187 195l20 144c10 72 71 103 76 105v1c-7 4 -56 36 -46 106l19 139c19 137 -37 189 -132 197c-6 1 -8 5 -7 12l2 15c1 7 7 9 13 9c94 0 185 -67 163 -232l-19 -140
c-9 -64 34 -82 52 -89c6 -2 8 -3 7 -12l-2 -13c-1 -6 -3 -7 -10 -9c-20 -7 -68 -25 -77 -89z" />
    <glyph glyph-name="asciitilde" unicode="~" horiz-adv-x="530" 
d="M71 239l-11 10c-4 4 -4 9 0 16c0 0 50 95 131 95c42 0 72 -32 90 -54c14 -17 35 -44 64 -44c53 0 90 66 96 76c5 8 11 7 17 3l15 -9c5 -4 4 -8 0 -16c0 0 -49 -95 -131 -95c-42 0 -70 32 -88 53c-16 18 -35 45 -66 45c-53 0 -92 -66 -98 -77c-4 -7 -13 -8 -19 -3z" />
    <glyph glyph-name="uni00A0" unicode="&#xa0;" horiz-adv-x="240" 
 />
    <glyph glyph-name="Agrave" unicode="&#xc0;" horiz-adv-x="605" 
d="M10 0h-29c-7 0 -9 6 -5 14l370 689c2 4 5 7 13 7h3c5 0 10 0 12 -7l182 -691c2 -6 0 -12 -11 -12h-26c-9 0 -12 5 -13 9l-46 184h-338l-96 -184c-2 -4 -7 -9 -16 -9zM145 232h304l-96 398h-3zM446 783l-142 79c-5 3 -5 9 -1 15l12 19c4 7 11 7 17 3l132 -90
c6 -4 6 -9 4 -14l-6 -9c-4 -5 -7 -7 -16 -3z" />
    <glyph glyph-name="Aacute" unicode="&#xc1;" horiz-adv-x="605" 
d="M10 0h-29c-7 0 -9 6 -5 14l370 689c2 4 5 7 13 7h3c5 0 10 0 12 -7l182 -691c2 -6 0 -12 -11 -12h-26c-9 0 -12 5 -13 9l-46 184h-338l-96 -184c-2 -4 -7 -9 -16 -9zM145 232h304l-96 398h-3zM310 781c-9 -4 -13 -3 -15 3l-4 11c-2 5 0 10 8 14l157 90c4 2 13 4 16 -3
l9 -21c2 -6 0 -12 -6 -15z" />
    <glyph glyph-name="Acircumflex" unicode="&#xc2;" horiz-adv-x="605" 
d="M10 0h-29c-7 0 -9 6 -5 14l370 689c2 4 5 7 13 7h3c5 0 10 0 12 -7l182 -691c2 -6 0 -12 -11 -12h-26c-9 0 -12 5 -13 9l-46 184h-338l-96 -184c-2 -4 -7 -9 -16 -9zM145 232h304l-96 398h-3zM273 768c-9 -6 -12 -2 -15 2l-7 11c-3 5 -1 10 4 14l123 98c5 4 9 5 12 5
c4 0 6 -2 9 -5l96 -98c4 -4 7 -9 2 -14l-7 -8c-4 -4 -8 -8 -15 -2l-89 81z" />
    <glyph glyph-name="Atilde" unicode="&#xc3;" horiz-adv-x="605" 
d="M10 0h-29c-7 0 -9 6 -5 14l370 689c2 4 5 7 13 7h3c5 0 10 0 12 -7l182 -691c2 -6 0 -12 -11 -12h-26c-9 0 -12 5 -13 9l-46 184h-338l-96 -184c-2 -4 -7 -9 -16 -9zM145 232h304l-96 398h-3zM262 799l-11 5c-6 2 -7 8 -4 14c9 18 34 86 94 86c62 0 51 -91 91 -91
c32 0 49 41 56 59c3 7 9 10 15 7l12 -4c3 -2 7 -5 4 -13s-29 -86 -93 -86c-60 0 -54 92 -91 92c-34 0 -52 -45 -59 -63c-2 -6 -8 -9 -14 -6z" />
    <glyph glyph-name="Adieresis" unicode="&#xc4;" horiz-adv-x="605" 
d="M10 0h-29c-7 0 -9 6 -5 14l370 689c2 4 5 7 13 7h3c5 0 10 0 12 -7l182 -691c2 -6 0 -12 -11 -12h-26c-9 0 -12 5 -13 9l-46 184h-338l-96 -184c-2 -4 -7 -9 -16 -9zM145 232h304l-96 398h-3zM471 795c-19 0 -34 16 -34 35c0 25 21 45 44 45c20 0 35 -16 35 -36
c0 -24 -21 -44 -45 -44zM283 795c-20 0 -34 16 -34 35c0 25 21 45 44 45c20 0 35 -16 35 -36c0 -24 -21 -44 -45 -44z" />
    <glyph glyph-name="Amacron" unicode="&#x100;" horiz-adv-x="605" 
d="M10 0h-29c-7 0 -9 6 -5 14l370 689c2 4 5 7 13 7h3c5 0 10 0 12 -7l182 -691c2 -6 0 -12 -11 -12h-26c-9 0 -12 5 -13 9l-46 184h-338l-96 -184c-2 -4 -7 -9 -16 -9zM145 232h304l-96 398h-3zM261 831c-8 0 -12 6 -11 13l2 12c1 8 6 13 14 13h243c6 0 12 -5 10 -13
l-1 -12c-1 -7 -8 -13 -15 -13h-242z" />
    <glyph glyph-name="Abreve" unicode="&#x102;" horiz-adv-x="605" 
d="M10 0h-29c-7 0 -9 6 -5 14l370 689c2 4 5 7 13 7h3c5 0 10 0 12 -7l182 -691c2 -6 0 -12 -11 -12h-26c-9 0 -12 5 -13 9l-46 184h-338l-96 -184c-2 -4 -7 -9 -16 -9zM145 232h304l-96 398h-3zM377 775c-58 0 -104 49 -103 111c0 7 3 14 11 14h11c7 0 9 -6 10 -12
c6 -44 31 -78 74 -78c39 0 78 34 94 78c3 7 7 12 13 12h16c7 0 10 -7 8 -14c-19 -63 -69 -111 -134 -111z" />
    <glyph glyph-name="Aring" unicode="&#xc5;" horiz-adv-x="605" 
d="M10 0h-29c-7 0 -9 6 -5 14l370 689c2 4 5 7 13 7h3c5 0 10 0 12 -7l182 -691c2 -6 0 -12 -11 -12h-26c-9 0 -12 5 -13 9l-46 184h-338l-96 -184c-2 -4 -7 -9 -16 -9zM145 232h304l-96 398h-3zM373 754c-49 0 -83 40 -83 91c0 68 49 122 113 122c48 0 82 -41 82 -92
c0 -68 -48 -121 -112 -121zM378 786c42 0 73 39 73 84c0 34 -22 64 -52 64c-43 0 -76 -38 -76 -83c0 -35 23 -65 55 -65z" />
    <glyph glyph-name="Aringacute" unicode="&#x1fa;" horiz-adv-x="607" 
d="M314 909l-4 11c-2 5 0 10 8 14l157 90c4 2 13 4 16 -3l9 -21c2 -6 0 -12 -6 -15l-165 -79c-9 -4 -13 -3 -15 3zM11 0h-29c-7 0 -9 6 -5 14l365 676c-35 11 -58 46 -58 88c0 68 49 122 113 122c48 0 82 -41 82 -92c0 -62 -40 -111 -94 -120l172 -676c2 -6 0 -12 -11 -12
h-26c-9 0 -12 5 -13 9l-46 184h-338l-96 -184c-2 -4 -7 -9 -16 -9zM372 719c42 0 73 39 73 84c0 34 -22 64 -52 64c-43 0 -76 -38 -76 -83c0 -35 23 -65 55 -65zM146 232h304l-93 403h-3z" />
    <glyph glyph-name="Aogonek" unicode="&#x104;" horiz-adv-x="605" 
d="M505 11l-45 182h-338l-96 -184c-2 -4 -7 -9 -16 -9h-29c-7 0 -9 6 -5 14l371 689c2 4 5 7 13 7h3c5 0 10 0 12 -7l181 -691c1 -5 -1 -9 -7 -12c-53 -27 -133 -79 -133 -155c0 -29 19 -48 52 -48c31 0 59 19 71 26c3 2 10 3 10 -4l-1 -19c0 -7 -2 -13 -12 -18
c-14 -8 -44 -24 -77 -24c-54 0 -87 37 -87 83c0 77 62 129 133 170zM145 232h304l-95 398h-3z" />
    <glyph glyph-name="AE" unicode="&#xc6;" horiz-adv-x="824" 
d="M-5 0h-29c-9 0 -8 8 -1 17l472 666c7 9 13 17 28 17h352c8 0 12 -6 11 -13l-2 -16c-1 -7 -7 -13 -15 -13h-328l-39 -277h282c10 0 17 -5 15 -15l-2 -13c-1 -8 -6 -15 -16 -15h-285l-41 -296h328c8 0 13 -6 11 -15l-3 -14c-1 -7 -7 -13 -14 -13h-359c-7 0 -12 6 -11 13
l25 180h-235l-127 -184c-6 -7 -12 -9 -17 -9zM167 232h213l53 382z" />
    <glyph glyph-name="AEacute" unicode="&#x1fc;" horiz-adv-x="824" 
d="M-5 0h-29c-9 0 -8 8 -1 17l472 666c7 9 13 17 28 17h352c8 0 12 -6 11 -13l-2 -16c-1 -7 -7 -13 -15 -13h-328l-39 -277h282c10 0 17 -5 15 -15l-2 -13c-1 -8 -6 -15 -16 -15h-285l-41 -296h328c8 0 13 -6 11 -15l-3 -14c-1 -7 -7 -13 -14 -13h-359c-7 0 -12 6 -11 13
l25 180h-235l-127 -184c-6 -7 -12 -9 -17 -9zM167 232h213l53 382zM584 782c-9 -4 -13 -3 -15 3l-4 11c-2 5 0 10 8 14l157 90c4 2 13 4 16 -3l9 -21c2 -6 0 -12 -6 -15z" />
    <glyph glyph-name="Cacute" unicode="&#x106;" horiz-adv-x="656" 
d="M65 301c0 230 176 409 379 409c91 0 157 -34 207 -93c4 -5 4 -13 -1 -18l-17 -15c-7 -6 -11 -5 -17 1c-42 51 -105 80 -177 80c-170 0 -323 -164 -323 -359c0 -148 96 -267 234 -267c77 0 142 36 195 84c7 6 13 5 16 2l19 -21c4 -4 3 -12 -2 -17
c-71 -65 -152 -97 -232 -97c-162 0 -281 138 -281 311zM390 781c-9 -4 -13 -3 -15 3l-4 11c-2 5 0 10 8 14l157 90c4 2 13 4 16 -3l9 -21c2 -6 0 -12 -6 -15z" />
    <glyph glyph-name="Ccircumflex" unicode="&#x108;" horiz-adv-x="656" 
d="M65 301c0 230 176 409 379 409c91 0 157 -34 207 -93c4 -5 4 -13 -1 -18l-17 -15c-7 -6 -11 -5 -17 1c-42 51 -105 80 -177 80c-170 0 -323 -164 -323 -359c0 -148 96 -267 234 -267c77 0 142 36 195 84c7 6 13 5 16 2l19 -21c4 -4 3 -12 -2 -17
c-71 -65 -152 -97 -232 -97c-162 0 -281 138 -281 311zM356 768c-9 -6 -12 -2 -15 2l-7 11c-3 5 -1 10 4 14l123 98c5 4 9 5 12 5c4 0 6 -2 9 -5l96 -98c4 -4 7 -9 2 -14l-7 -8c-4 -4 -8 -8 -15 -2l-89 81z" />
    <glyph glyph-name="Ccaron" unicode="&#x10c;" horiz-adv-x="656" 
d="M65 301c0 230 176 409 379 409c91 0 157 -34 207 -93c4 -5 4 -13 -1 -18l-17 -15c-7 -6 -11 -5 -17 1c-42 51 -105 80 -177 80c-170 0 -323 -164 -323 -359c0 -148 96 -267 234 -267c77 0 142 36 195 84c7 6 13 5 16 2l19 -21c4 -4 3 -12 -2 -17
c-71 -65 -152 -97 -232 -97c-162 0 -281 138 -281 311zM455 762c-4 0 -6 2 -9 5l-96 98c-4 4 -7 9 -2 14l7 8c4 4 8 8 15 2l89 -81l113 84c9 6 12 2 15 -2l7 -11c3 -5 1 -10 -4 -14l-123 -98c-5 -4 -9 -5 -12 -5z" />
    <glyph glyph-name="Cdotaccent" unicode="&#x10a;" horiz-adv-x="656" 
d="M65 301c0 230 176 409 379 409c91 0 157 -34 207 -93c4 -5 4 -13 -1 -18l-17 -15c-7 -6 -11 -5 -17 1c-42 51 -105 80 -177 80c-170 0 -323 -164 -323 -359c0 -148 96 -267 234 -267c77 0 142 36 195 84c7 6 13 5 16 2l19 -21c4 -4 3 -12 -2 -17
c-71 -65 -152 -97 -232 -97c-162 0 -281 138 -281 311zM464 809c-20 0 -35 14 -35 33c0 24 22 44 46 44c20 0 33 -14 33 -33c0 -24 -20 -44 -44 -44z" />
    <glyph glyph-name="Ccedilla" unicode="&#xc7;" horiz-adv-x="656" 
d="M65 301c0 230 176 409 379 409c91 0 157 -34 207 -93c4 -5 4 -13 -1 -18l-17 -15c-7 -6 -11 -5 -17 1c-42 51 -105 80 -177 80c-170 0 -323 -164 -323 -359c0 -148 96 -267 234 -267c77 0 142 36 195 84c7 6 13 5 16 2l19 -21c4 -4 3 -12 -2 -17
c-67 -61 -142 -92 -216 -96l-44 -60c5 1 11 2 15 2c39 0 83 -19 83 -75c0 -53 -51 -94 -114 -94c-37 0 -65 15 -80 31c-4 5 -1 10 1 13l12 19c4 6 9 6 14 1c13 -13 27 -25 53 -25c27 0 70 15 70 54c0 26 -22 38 -53 38c-19 0 -38 -4 -51 -9c-7 -3 -16 9 -12 15l64 90
c-149 13 -255 146 -255 310z" />
    <glyph glyph-name="Dcaron" unicode="&#x10e;" horiz-adv-x="683" 
d="M63 13l95 674c1 7 7 13 13 13h193c153 0 271 -137 271 -304c0 -218 -173 -396 -369 -396h-193c-6 0 -11 6 -10 13zM114 43h149c172 0 322 153 322 351c0 148 -95 263 -236 263h-149zM356 762c-4 0 -6 2 -9 5l-96 98c-4 4 -7 9 -2 14l7 8c4 4 8 8 15 2l89 -81l113 84
c9 6 12 2 15 -2l7 -11c3 -5 1 -10 -4 -14l-123 -98c-5 -4 -9 -5 -12 -5z" />
    <glyph glyph-name="Dcroat" unicode="&#x110;" horiz-adv-x="691" 
d="M64 13l45 319h-31c-7 0 -11 6 -10 13l1 7c1 7 7 11 14 11h30l46 324c1 7 6 13 13 13h200c158 0 272 -137 272 -304c0 -218 -179 -396 -370 -396h-200c-7 0 -11 6 -10 13zM115 43h157c171 0 320 153 320 351c0 148 -95 263 -234 263h-157l-41 -294h219c7 0 12 -4 11 -11
l-1 -8c-1 -7 -8 -12 -14 -12h-219z" />
    <glyph glyph-name="Eth" unicode="&#xd0;" horiz-adv-x="691" 
d="M64 13l45 319h-31c-7 0 -11 6 -10 13l1 7c1 7 7 11 14 11h30l46 324c1 7 6 13 13 13h200c158 0 272 -137 272 -304c0 -218 -179 -396 -370 -396h-200c-7 0 -11 6 -10 13zM115 43h157c171 0 320 153 320 351c0 148 -95 263 -234 263h-157l-41 -294h219c7 0 12 -4 11 -11
l-1 -8c-1 -7 -8 -12 -14 -12h-219z" />
    <glyph glyph-name="Egrave" unicode="&#xc8;" horiz-adv-x="538" 
d="M63 13l95 674c1 7 8 13 14 13h360c7 0 12 -6 11 -13l-2 -17c-1 -7 -8 -13 -15 -13h-324l-39 -276h280c7 0 12 -6 11 -13l-2 -17c-1 -7 -8 -13 -15 -13h-280l-42 -296h325c7 0 12 -6 11 -13l-3 -16c-1 -7 -7 -13 -14 -13h-360c-7 0 -12 6 -11 13zM427 783l-142 79
c-5 3 -5 9 -1 15l12 19c4 7 11 7 17 3l132 -90c6 -4 6 -9 4 -14l-6 -9c-4 -5 -7 -7 -16 -3z" />
    <glyph glyph-name="Eacute" unicode="&#xc9;" horiz-adv-x="538" 
d="M63 13l95 674c1 7 8 13 14 13h360c7 0 12 -6 11 -13l-2 -17c-1 -7 -8 -13 -15 -13h-324l-39 -276h280c7 0 12 -6 11 -13l-2 -17c-1 -7 -8 -13 -15 -13h-280l-42 -296h325c7 0 12 -6 11 -13l-3 -16c-1 -7 -7 -13 -14 -13h-360c-7 0 -12 6 -11 13zM291 781
c-9 -4 -13 -3 -15 3l-4 11c-2 5 0 10 8 14l157 90c4 2 13 4 16 -3l9 -21c2 -6 0 -12 -6 -15z" />
    <glyph glyph-name="Ecircumflex" unicode="&#xca;" horiz-adv-x="538" 
d="M63 13l95 674c1 7 8 13 14 13h360c7 0 12 -6 11 -13l-2 -17c-1 -7 -8 -13 -15 -13h-324l-39 -276h280c7 0 12 -6 11 -13l-2 -17c-1 -7 -8 -13 -15 -13h-280l-42 -296h325c7 0 12 -6 11 -13l-3 -16c-1 -7 -7 -13 -14 -13h-360c-7 0 -12 6 -11 13zM250 768
c-9 -6 -12 -2 -15 2l-7 11c-3 5 -1 10 4 14l123 98c5 4 9 5 12 5c4 0 6 -2 9 -5l96 -98c4 -4 7 -9 2 -14l-7 -8c-4 -4 -8 -8 -15 -2l-89 81z" />
    <glyph glyph-name="Ecaron" unicode="&#x11a;" horiz-adv-x="538" 
d="M63 13l95 674c1 7 8 13 14 13h360c7 0 12 -6 11 -13l-2 -17c-1 -7 -8 -13 -15 -13h-324l-39 -276h280c7 0 12 -6 11 -13l-2 -17c-1 -7 -8 -13 -15 -13h-280l-42 -296h325c7 0 12 -6 11 -13l-3 -16c-1 -7 -7 -13 -14 -13h-360c-7 0 -12 6 -11 13zM356 762c-4 0 -6 2 -9 5
l-96 98c-4 4 -7 9 -2 14l7 8c4 4 8 8 15 2l89 -81l113 84c9 6 12 2 15 -2l7 -11c3 -5 1 -10 -4 -14l-123 -98c-5 -4 -9 -5 -12 -5z" />
    <glyph glyph-name="Edieresis" unicode="&#xcb;" horiz-adv-x="538" 
d="M63 13l95 674c1 7 8 13 14 13h360c7 0 12 -6 11 -13l-2 -17c-1 -7 -8 -13 -15 -13h-324l-39 -276h280c7 0 12 -6 11 -13l-2 -17c-1 -7 -8 -13 -15 -13h-280l-42 -296h325c7 0 12 -6 11 -13l-3 -16c-1 -7 -7 -13 -14 -13h-360c-7 0 -12 6 -11 13zM452 795
c-19 0 -34 16 -34 35c0 25 21 45 44 45c20 0 35 -16 35 -36c0 -24 -21 -44 -45 -44zM264 795c-20 0 -34 16 -34 35c0 25 21 45 44 45c20 0 35 -16 35 -36c0 -24 -21 -44 -45 -44z" />
    <glyph glyph-name="Emacron" unicode="&#x112;" horiz-adv-x="538" 
d="M63 13l95 674c1 7 8 13 14 13h360c7 0 12 -6 11 -13l-2 -17c-1 -7 -8 -13 -15 -13h-324l-39 -276h280c7 0 12 -6 11 -13l-2 -17c-1 -7 -8 -13 -15 -13h-280l-42 -296h325c7 0 12 -6 11 -13l-3 -16c-1 -7 -7 -13 -14 -13h-360c-7 0 -12 6 -11 13zM246 831
c-8 0 -12 6 -11 13l2 12c1 8 6 13 14 13h243c6 0 12 -5 10 -13l-1 -12c-1 -7 -8 -13 -15 -13h-242z" />
    <glyph glyph-name="Ebreve" unicode="&#x114;" horiz-adv-x="538" 
d="M63 13l95 674c1 7 8 13 14 13h360c7 0 12 -6 11 -13l-2 -17c-1 -7 -8 -13 -15 -13h-324l-39 -276h280c7 0 12 -6 11 -13l-2 -17c-1 -7 -8 -13 -15 -13h-280l-42 -296h325c7 0 12 -6 11 -13l-3 -16c-1 -7 -7 -13 -14 -13h-360c-7 0 -12 6 -11 13zM363 775
c-58 0 -104 49 -103 111c0 7 3 14 11 14h11c7 0 9 -6 10 -12c6 -44 31 -78 74 -78c39 0 78 34 94 78c3 7 7 12 13 12h16c7 0 10 -7 8 -14c-19 -63 -69 -111 -134 -111z" />
    <glyph glyph-name="Edotaccent" unicode="&#x116;" horiz-adv-x="538" 
d="M63 13l95 674c1 7 8 13 14 13h360c7 0 12 -6 11 -13l-2 -17c-1 -7 -8 -13 -15 -13h-324l-39 -276h280c7 0 12 -6 11 -13l-2 -17c-1 -7 -8 -13 -15 -13h-280l-42 -296h325c7 0 12 -6 11 -13l-3 -16c-1 -7 -7 -13 -14 -13h-360c-7 0 -12 6 -11 13zM362 809
c-20 0 -35 14 -35 33c0 24 22 44 46 44c20 0 33 -14 33 -33c0 -24 -20 -44 -44 -44z" />
    <glyph glyph-name="Eogonek" unicode="&#x118;" horiz-adv-x="538" 
d="M63 13l95 674c1 7 8 13 14 13h360c7 0 12 -6 11 -13l-2 -17c-1 -7 -8 -13 -15 -13h-324l-39 -276h280c7 0 12 -6 11 -13l-2 -17c-1 -7 -8 -13 -15 -13h-280l-42 -296h325c7 0 12 -6 11 -13l-3 -16c-1 -7 -6 -9 -13 -13c-60 -34 -132 -80 -132 -155c0 -29 19 -48 52 -48
c31 0 59 19 71 26c3 2 10 3 10 -4l-1 -19c0 -7 -2 -13 -12 -18c-14 -8 -44 -24 -77 -24c-54 0 -87 37 -87 83c0 71 51 119 114 159h-299c-7 0 -12 6 -11 13z" />
    <glyph glyph-name="Gcircumflex" unicode="&#x11c;" horiz-adv-x="685" 
d="M65 306c0 225 177 404 381 404c90 0 155 -34 205 -93c4 -5 4 -13 -2 -18l-18 -16c-7 -7 -12 -6 -17 0c-41 52 -104 82 -176 82c-169 0 -322 -162 -322 -357c0 -149 95 -270 234 -270c112 0 191 64 191 64l24 177h-143c-11 0 -12 4 -11 13l3 20c1 8 3 12 14 12h179
c7 0 12 -6 11 -12l-30 -215c-2 -17 -9 -24 -17 -31c-19 -16 -118 -76 -226 -76c-158 0 -280 138 -280 316zM355 768c-9 -6 -12 -2 -15 2l-7 11c-3 5 -1 10 4 14l123 98c5 4 9 5 12 5c4 0 6 -2 9 -5l96 -98c4 -4 7 -9 2 -14l-7 -8c-4 -4 -8 -8 -15 -2l-89 81z" />
    <glyph glyph-name="Gbreve" unicode="&#x11e;" horiz-adv-x="685" 
d="M65 306c0 225 177 404 381 404c90 0 155 -34 205 -93c4 -5 4 -13 -2 -18l-18 -16c-7 -7 -12 -6 -17 0c-41 52 -104 82 -176 82c-169 0 -322 -162 -322 -357c0 -149 95 -270 234 -270c112 0 191 64 191 64l24 177h-143c-11 0 -12 4 -11 13l3 20c1 8 3 12 14 12h179
c7 0 12 -6 11 -12l-30 -215c-2 -17 -9 -24 -17 -31c-19 -16 -118 -76 -226 -76c-158 0 -280 138 -280 316zM463 775c-58 0 -104 49 -103 111c0 7 3 14 11 14h11c7 0 9 -6 10 -12c6 -44 31 -78 74 -78c39 0 78 34 94 78c3 7 7 12 13 12h16c7 0 10 -7 8 -14
c-19 -63 -69 -111 -134 -111z" />
    <glyph glyph-name="Gdotaccent" unicode="&#x120;" horiz-adv-x="685" 
d="M65 306c0 225 177 404 381 404c90 0 155 -34 205 -93c4 -5 4 -13 -2 -18l-18 -16c-7 -7 -12 -6 -17 0c-41 52 -104 82 -176 82c-169 0 -322 -162 -322 -357c0 -149 95 -270 234 -270c112 0 191 64 191 64l24 177h-143c-11 0 -12 4 -11 13l3 20c1 8 3 12 14 12h179
c7 0 12 -6 11 -12l-30 -215c-2 -17 -9 -24 -17 -31c-19 -16 -118 -76 -226 -76c-158 0 -280 138 -280 316zM462 809c-20 0 -35 14 -35 33c0 24 22 44 46 44c20 0 33 -14 33 -33c0 -24 -20 -44 -44 -44z" />
    <glyph glyph-name="Gcommaaccent" unicode="&#x122;" horiz-adv-x="685" 
d="M65 306c0 225 177 404 381 404c90 0 155 -34 205 -93c4 -5 4 -13 -2 -18l-18 -16c-7 -7 -12 -6 -17 0c-41 52 -104 82 -176 82c-169 0 -322 -162 -322 -357c0 -149 95 -270 234 -270c112 0 191 64 191 64l24 177h-143c-11 0 -12 4 -11 13l3 20c1 8 3 12 14 12h179
c7 0 12 -6 11 -12l-30 -215c-2 -17 -9 -24 -17 -31c-19 -16 -118 -76 -226 -76c-158 0 -280 138 -280 316zM281 -119c0 24 21 43 47 43c31 0 48 -21 48 -57c0 -42 -20 -91 -57 -120c-5 -5 -8 -5 -12 -1l-10 10c-6 6 -2 10 3 14c21 18 38 49 38 76c0 6 -1 10 -3 14
c-4 -4 -13 -7 -23 -7c-19 0 -31 12 -31 28z" />
    <glyph glyph-name="Hcircumflex" unicode="&#x124;" horiz-adv-x="694" 
d="M63 13l95 674c1 7 6 13 14 13h22c8 0 12 -6 11 -13l-44 -307h398l43 307c1 7 6 13 14 13h22c8 0 12 -6 11 -13l-95 -674c-1 -7 -7 -13 -14 -13h-22c-7 0 -12 6 -11 13l46 325h-397l-46 -325c-1 -7 -7 -13 -15 -13h-21c-7 0 -12 6 -11 13zM316 768c-9 -6 -12 -2 -15 2
l-7 11c-3 5 -1 10 4 14l123 98c5 4 9 5 12 5c4 0 6 -2 9 -5l96 -98c4 -4 7 -9 2 -14l-7 -8c-4 -4 -8 -8 -15 -2l-89 81z" />
    <glyph glyph-name="Hbar" unicode="&#x126;" horiz-adv-x="696" 
d="M64 13l74 529h-23c-8 0 -10 6 -9 14l1 6c1 7 6 11 13 11h23l16 114c1 7 8 13 14 13h22c8 0 12 -6 11 -13l-16 -114h397l16 114c2 14 11 13 17 13h20c7 0 12 -6 11 -13l-16 -114h22c9 0 12 -4 11 -12l-1 -7c-1 -7 -6 -12 -14 -12h-22l-75 -529c-1 -7 -8 -13 -14 -13h-21
c-12 0 -14 8 -13 18l46 320h-397l-46 -325c-2 -11 -8 -13 -18 -13h-18c-7 0 -12 6 -11 13zM163 381h397l23 161h-398z" />
    <glyph glyph-name="Igrave" unicode="&#xcc;" horiz-adv-x="252" 
d="M64 13l94 674c1 7 6 13 15 13h22c7 0 12 -6 11 -13l-94 -674c-2 -8 -9 -13 -16 -13h-21c-7 0 -12 6 -11 13zM264 783l-142 79c-5 3 -5 9 -1 15l12 19c4 7 11 7 17 3l132 -90c6 -4 6 -9 4 -14l-6 -9c-4 -5 -7 -7 -16 -3z" />
    <glyph glyph-name="Iacute" unicode="&#xcd;" horiz-adv-x="252" 
d="M64 13l94 674c1 7 6 13 15 13h22c7 0 12 -6 11 -13l-94 -674c-2 -8 -9 -13 -16 -13h-21c-7 0 -12 6 -11 13zM126 781c-9 -4 -13 -3 -15 3l-4 11c-2 5 0 10 8 14l157 90c4 2 13 4 16 -3l9 -21c2 -6 0 -12 -6 -15z" />
    <glyph glyph-name="Ibreve" unicode="&#x12c;" horiz-adv-x="252" 
d="M64 13l94 674c1 7 6 13 15 13h22c7 0 12 -6 11 -13l-94 -674c-2 -8 -9 -13 -16 -13h-21c-7 0 -12 6 -11 13zM196 775c-58 0 -104 49 -103 111c0 7 3 14 11 14h11c7 0 9 -6 10 -12c6 -44 31 -78 74 -78c39 0 78 34 94 78c3 7 7 12 13 12h16c7 0 10 -7 8 -14
c-19 -63 -69 -111 -134 -111z" />
    <glyph glyph-name="Icircumflex" unicode="&#xce;" horiz-adv-x="252" 
d="M64 13l94 674c1 7 6 13 15 13h22c7 0 12 -6 11 -13l-94 -674c-2 -8 -9 -13 -16 -13h-21c-7 0 -12 6 -11 13zM90 768c-9 -6 -12 -2 -15 2l-7 11c-3 5 -1 10 4 14l123 98c5 4 9 5 12 5c4 0 6 -2 9 -5l96 -98c4 -4 7 -9 2 -14l-7 -8c-4 -4 -8 -8 -15 -2l-89 81z" />
    <glyph glyph-name="Itilde" unicode="&#x128;" horiz-adv-x="252" 
d="M64 13l94 674c1 7 6 13 15 13h22c7 0 12 -6 11 -13l-94 -674c-2 -8 -9 -13 -16 -13h-21c-7 0 -12 6 -11 13zM81 799l-11 5c-6 2 -7 8 -4 14c9 18 34 86 94 86c62 0 51 -91 91 -91c32 0 49 41 56 59c3 7 9 10 15 7l12 -4c3 -2 7 -5 4 -13s-29 -86 -93 -86
c-60 0 -54 92 -91 92c-34 0 -52 -45 -59 -63c-2 -6 -8 -9 -14 -6z" />
    <glyph glyph-name="Idieresis" unicode="&#xcf;" horiz-adv-x="252" 
d="M64 13l94 674c1 7 6 13 15 13h22c7 0 12 -6 11 -13l-94 -674c-2 -8 -9 -13 -16 -13h-21c-7 0 -12 6 -11 13zM290 795c-19 0 -34 16 -34 35c0 25 21 45 44 45c20 0 35 -16 35 -36c0 -24 -21 -44 -45 -44zM102 795c-20 0 -34 16 -34 35c0 25 21 45 44 45
c20 0 35 -16 35 -36c0 -24 -21 -44 -45 -44z" />
    <glyph glyph-name="Imacron" unicode="&#x12a;" horiz-adv-x="252" 
d="M64 13l94 674c1 7 6 13 15 13h22c7 0 12 -6 11 -13l-94 -674c-2 -8 -9 -13 -16 -13h-21c-7 0 -12 6 -11 13zM79 831c-8 0 -12 6 -11 13l2 12c1 8 6 13 14 13h243c6 0 12 -5 10 -13l-1 -12c-1 -7 -8 -13 -15 -13h-242z" />
    <glyph glyph-name="Idotaccent" unicode="&#x130;" horiz-adv-x="252" 
d="M64 13l94 674c1 7 6 13 15 13h22c7 0 12 -6 11 -13l-94 -674c-2 -8 -9 -13 -16 -13h-21c-7 0 -12 6 -11 13zM199 809c-20 0 -35 14 -35 33c0 24 22 44 46 44c20 0 33 -14 33 -33c0 -24 -20 -44 -44 -44z" />
    <glyph glyph-name="Iogonek" unicode="&#x12e;" horiz-adv-x="252" 
d="M65 16l94 671c1 7 6 13 15 13h22c7 0 12 -6 11 -13l-94 -672c-1 -9 -7 -12 -13 -15c-59 -31 -133 -79 -133 -155c0 -29 19 -48 52 -48c31 0 59 19 71 26c3 2 10 3 10 -4l-1 -19c0 -7 -2 -13 -12 -18c-14 -8 -44 -24 -77 -24c-54 0 -87 37 -87 83c0 80 67 132 142 175z
" />
    <glyph glyph-name="Jcircumflex" unicode="&#x134;" horiz-adv-x="434" 
d="M-6 65c-3 6 -3 13 3 17l14 11c6 5 12 7 17 0c15 -22 43 -61 100 -61c72 0 133 42 150 161l70 494c1 8 7 13 15 13h21c7 0 12 -6 11 -13l-70 -493c-20 -140 -93 -204 -201 -204c-79 0 -118 54 -130 75zM283 768c-9 -6 -12 -2 -15 2l-7 11c-3 5 -1 10 4 14l123 98
c5 4 9 5 12 5c4 0 6 -2 9 -5l96 -98c4 -4 7 -9 2 -14l-7 -8c-4 -4 -8 -8 -15 -2l-89 81z" />
    <glyph glyph-name="Kcommaaccent" unicode="&#x136;" horiz-adv-x="534" 
d="M63 13l95 672c1 9 8 15 16 15h19c9 0 14 -6 13 -15l-45 -312l346 320c9 7 11 7 20 7h30c11 0 11 -11 4 -17l-357 -330l274 -336c5 -5 1 -17 -13 -17h-24c-9 0 -13 2 -20 10l-265 329l-45 -326c-1 -10 -9 -13 -17 -13h-20c-8 0 -12 5 -11 13zM176 -119c0 24 21 43 47 43
c31 0 48 -21 48 -57c0 -42 -20 -91 -57 -120c-5 -5 -8 -5 -12 -1l-10 10c-6 6 -2 10 3 14c21 18 38 49 38 76c0 6 -1 10 -3 14c-4 -4 -13 -7 -23 -7c-19 0 -31 12 -31 28z" />
    <glyph glyph-name="Lacute" unicode="&#x139;" horiz-adv-x="457" 
d="M63 13l95 674c1 7 8 13 14 13h23c6 0 11 -6 10 -13l-91 -645h283c12 0 12 -6 11 -13l-3 -18c-1 -7 -7 -11 -14 -11h-317c-7 0 -12 6 -11 13zM128 781c-9 -4 -13 -3 -15 3l-4 11c-2 5 0 10 8 14l157 90c4 2 13 4 16 -3l9 -21c2 -6 0 -12 -6 -15z" />
    <glyph glyph-name="Lcaron" unicode="&#x13d;" horiz-adv-x="459" 
d="M63 13l95 674c1 7 8 13 14 13h23c6 0 11 -6 10 -13l-91 -645h283c12 0 12 -6 11 -13l-3 -18c-1 -7 -7 -11 -14 -11h-317c-7 0 -12 6 -11 13zM333 668c0 24 21 43 47 43c31 0 48 -21 48 -57c0 -42 -20 -91 -57 -120c-5 -5 -8 -5 -12 -1l-10 10c-6 6 -2 10 3 14
c21 18 38 49 38 76c0 6 -1 10 -3 14c-4 -4 -13 -7 -23 -7c-19 0 -31 12 -31 28z" />
    <glyph glyph-name="Lcommaaccent" unicode="&#x13b;" horiz-adv-x="457" 
d="M63 13l95 674c1 7 8 13 14 13h23c6 0 11 -6 10 -13l-91 -645h283c12 0 12 -6 11 -13l-3 -18c-1 -7 -7 -11 -14 -11h-317c-7 0 -12 6 -11 13zM166 -119c0 24 21 43 47 43c31 0 48 -21 48 -57c0 -42 -20 -91 -57 -120c-5 -5 -8 -5 -12 -1l-10 10c-6 6 -2 10 3 14
c21 18 38 49 38 76c0 6 -1 10 -3 14c-4 -4 -13 -7 -23 -7c-19 0 -31 12 -31 28z" />
    <glyph glyph-name="Lslash" unicode="&#x141;" horiz-adv-x="459" 
d="M64 13l43 307l-30 -16c-6 -4 -13 -2 -15 4l-2 8c-1 6 0 12 6 15l46 24l47 332c1 7 7 13 15 13h21c7 0 12 -6 11 -13l-43 -305l137 74c6 4 13 2 15 -5l2 -6c2 -6 -1 -13 -7 -16l-152 -83l-43 -304h290c12 0 12 -6 11 -15l-2 -14c-1 -7 -8 -13 -15 -13h-324
c-8 0 -12 6 -11 13z" />
    <glyph glyph-name="Ldot" unicode="&#x13f;" horiz-adv-x="475" 
d="M63 13l95 674c1 7 8 13 14 13h23c6 0 11 -6 10 -13l-91 -645h283c12 0 12 -6 11 -13l-3 -18c-1 -7 -7 -11 -14 -11h-317c-7 0 -12 6 -11 13zM412 316c-20 0 -35 16 -35 35c0 26 23 45 46 45c20 0 33 -15 33 -35c0 -25 -20 -45 -44 -45z" />
    <glyph glyph-name="Nacute" unicode="&#x143;" horiz-adv-x="709" 
d="M64 13l96 684c2 8 8 13 16 13h5c7 0 11 -3 15 -9l338 -612h2l82 598c1 7 8 13 15 13h20c7 0 12 -6 11 -13l-96 -684c-1 -9 -9 -13 -17 -13h-6c-7 0 -11 3 -15 9l-336 614h-1l-84 -600c-2 -13 -15 -13 -25 -13h-9c-7 0 -12 6 -11 13zM362 781c-9 -4 -13 -3 -15 3l-4 11
c-2 5 0 10 8 14l157 90c4 2 13 4 16 -3l9 -21c2 -6 0 -12 -6 -15z" />
    <glyph glyph-name="Ncaron" unicode="&#x147;" horiz-adv-x="709" 
d="M64 13l96 684c2 8 8 13 16 13h5c7 0 11 -3 15 -9l338 -612h2l82 598c1 7 8 13 15 13h20c7 0 12 -6 11 -13l-96 -684c-1 -9 -9 -13 -17 -13h-6c-7 0 -11 3 -15 9l-336 614h-1l-84 -600c-2 -13 -15 -13 -25 -13h-9c-7 0 -12 6 -11 13zM428 762c-4 0 -6 2 -9 5l-96 98
c-4 4 -7 9 -2 14l7 8c4 4 8 8 15 2l89 -81l113 84c9 6 12 2 15 -2l7 -11c3 -5 1 -10 -4 -14l-123 -98c-5 -4 -9 -5 -12 -5z" />
    <glyph glyph-name="Ntilde" unicode="&#xd1;" horiz-adv-x="709" 
d="M64 13l96 684c2 8 8 13 16 13h5c7 0 11 -3 15 -9l338 -612h2l82 598c1 7 8 13 15 13h20c7 0 12 -6 11 -13l-96 -684c-1 -9 -9 -13 -17 -13h-6c-7 0 -11 3 -15 9l-336 614h-1l-84 -600c-2 -13 -15 -13 -25 -13h-9c-7 0 -12 6 -11 13zM314 799l-11 5c-6 2 -7 8 -4 14
c9 18 34 86 94 86c62 0 51 -91 91 -91c32 0 49 41 56 59c3 7 9 10 15 7l12 -4c3 -2 7 -5 4 -13s-29 -86 -93 -86c-60 0 -54 92 -91 92c-34 0 -52 -45 -59 -63c-2 -6 -8 -9 -14 -6z" />
    <glyph glyph-name="Ncommaaccent" unicode="&#x145;" horiz-adv-x="709" 
d="M64 13l96 684c2 8 8 13 16 13h5c7 0 11 -3 15 -9l338 -612h2l82 598c1 7 8 13 15 13h20c7 0 12 -6 11 -13l-96 -684c-1 -9 -9 -13 -17 -13h-6c-7 0 -11 3 -15 9l-336 614h-1l-84 -600c-2 -13 -15 -13 -25 -13h-9c-7 0 -12 6 -11 13zM255 -119c0 24 21 43 47 43
c31 0 48 -21 48 -57c0 -42 -20 -91 -57 -120c-5 -5 -8 -5 -12 -1l-10 10c-6 6 -2 10 3 14c21 18 38 49 38 76c0 6 -1 10 -3 14c-4 -4 -13 -7 -23 -7c-19 0 -31 12 -31 28z" />
    <glyph glyph-name="Ograve" unicode="&#xd2;" horiz-adv-x="769" 
d="M65 300c0 226 172 410 379 410c158 0 278 -140 278 -313c0 -226 -172 -407 -379 -407c-158 0 -278 138 -278 310zM111 306c0 -150 98 -272 238 -272c170 0 327 160 327 357c0 151 -98 275 -238 275c-171 0 -327 -162 -327 -360zM534 783l-142 79c-5 3 -5 9 -1 15l12 19
c4 7 11 7 17 3l132 -90c6 -4 6 -9 4 -14l-6 -9c-4 -5 -7 -7 -16 -3z" />
    <glyph glyph-name="Oacute" unicode="&#xd3;" horiz-adv-x="769" 
d="M65 300c0 226 172 410 379 410c158 0 278 -140 278 -313c0 -226 -172 -407 -379 -407c-158 0 -278 138 -278 310zM111 306c0 -150 98 -272 238 -272c170 0 327 160 327 357c0 151 -98 275 -238 275c-171 0 -327 -162 -327 -360zM396 781c-9 -4 -13 -3 -15 3l-4 11
c-2 5 0 10 8 14l157 90c4 2 13 4 16 -3l9 -21c2 -6 0 -12 -6 -15z" />
    <glyph glyph-name="Ocircumflex" unicode="&#xd4;" horiz-adv-x="769" 
d="M65 300c0 226 172 410 379 410c158 0 278 -140 278 -313c0 -226 -172 -407 -379 -407c-158 0 -278 138 -278 310zM111 306c0 -150 98 -272 238 -272c170 0 327 160 327 357c0 151 -98 275 -238 275c-171 0 -327 -162 -327 -360zM360 768c-9 -6 -12 -2 -15 2l-7 11
c-3 5 -1 10 4 14l123 98c5 4 9 5 12 5c4 0 6 -2 9 -5l96 -98c4 -4 7 -9 2 -14l-7 -8c-4 -4 -8 -8 -15 -2l-89 81z" />
    <glyph glyph-name="Otilde" unicode="&#xd5;" horiz-adv-x="769" 
d="M65 300c0 226 172 410 379 410c158 0 278 -140 278 -313c0 -226 -172 -407 -379 -407c-158 0 -278 138 -278 310zM111 306c0 -150 98 -272 238 -272c170 0 327 160 327 357c0 151 -98 275 -238 275c-171 0 -327 -162 -327 -360zM350 799l-11 5c-6 2 -7 8 -4 14
c9 18 34 86 94 86c62 0 51 -91 91 -91c32 0 49 41 56 59c3 7 9 10 15 7l12 -4c3 -2 7 -5 4 -13s-29 -86 -93 -86c-60 0 -54 92 -91 92c-34 0 -52 -45 -59 -63c-2 -6 -8 -9 -14 -6z" />
    <glyph glyph-name="Odieresis" unicode="&#xd6;" horiz-adv-x="769" 
d="M65 300c0 226 172 410 379 410c158 0 278 -140 278 -313c0 -226 -172 -407 -379 -407c-158 0 -278 138 -278 310zM111 306c0 -150 98 -272 238 -272c170 0 327 160 327 357c0 151 -98 275 -238 275c-171 0 -327 -162 -327 -360zM559 795c-19 0 -34 16 -34 35
c0 25 21 45 44 45c20 0 35 -16 35 -36c0 -24 -21 -44 -45 -44zM371 795c-20 0 -34 16 -34 35c0 25 21 45 44 45c20 0 35 -16 35 -36c0 -24 -21 -44 -45 -44z" />
    <glyph glyph-name="Omacron" unicode="&#x14c;" horiz-adv-x="769" 
d="M65 300c0 226 172 410 379 410c158 0 278 -140 278 -313c0 -226 -172 -407 -379 -407c-158 0 -278 138 -278 310zM111 306c0 -150 98 -272 238 -272c170 0 327 160 327 357c0 151 -98 275 -238 275c-171 0 -327 -162 -327 -360zM348 831c-8 0 -12 6 -11 13l2 12
c1 8 6 13 14 13h243c6 0 12 -5 10 -13l-1 -12c-1 -7 -8 -13 -15 -13h-242z" />
    <glyph glyph-name="Obreve" unicode="&#x14e;" horiz-adv-x="769" 
d="M65 300c0 226 172 410 379 410c158 0 278 -140 278 -313c0 -226 -172 -407 -379 -407c-158 0 -278 138 -278 310zM111 306c0 -150 98 -272 238 -272c170 0 327 160 327 357c0 151 -98 275 -238 275c-171 0 -327 -162 -327 -360zM463 775c-58 0 -104 49 -103 111
c0 7 3 14 11 14h11c7 0 9 -6 10 -12c6 -44 31 -78 74 -78c39 0 78 34 94 78c3 7 7 12 13 12h16c7 0 10 -7 8 -14c-19 -63 -69 -111 -134 -111z" />
    <glyph glyph-name="Ohungarumlaut" unicode="&#x150;" horiz-adv-x="769" 
d="M65 300c0 226 172 410 379 410c158 0 278 -140 278 -313c0 -226 -172 -407 -379 -407c-158 0 -278 138 -278 310zM111 306c0 -150 98 -272 238 -272c170 0 327 160 327 357c0 151 -98 275 -238 275c-171 0 -327 -162 -327 -360zM521 766c-7 0 -9 5 -5 12l89 159
c3 7 8 11 15 11h22c11 0 14 -8 8 -17l-103 -157c-4 -6 -9 -8 -14 -8h-12zM372 766c-7 0 -9 5 -6 12l89 159c4 7 9 11 15 11h23c11 0 14 -8 8 -17l-104 -157c-3 -6 -9 -8 -13 -8h-12z" />
    <glyph glyph-name="Oslash" unicode="&#xd8;" horiz-adv-x="768" 
d="M49 28c-4 6 -3 13 2 18l65 62c-33 50 -51 124 -51 192c0 226 180 410 379 410c85 0 158 -37 207 -98l68 64c5 5 13 6 17 0l3 -4c4 -5 3 -13 -3 -18l-67 -64c33 -51 53 -126 53 -194c0 -225 -182 -406 -380 -406c-86 0 -159 35 -208 96l-66 -62c-4 -5 -12 -5 -16 0z
M152 140l464 441c-43 53 -106 85 -179 85c-170 0 -328 -162 -328 -361c0 -59 15 -122 43 -165zM170 118c42 -53 105 -84 179 -84c170 0 329 160 329 358c0 58 -16 123 -45 167z" />
    <glyph glyph-name="Oslashacute" unicode="&#x1fe;" horiz-adv-x="768" 
d="M49 28c-4 6 -3 13 2 18l65 62c-33 50 -51 124 -51 192c0 226 180 410 379 410c85 0 158 -37 207 -98l68 64c5 5 13 6 17 0l3 -4c4 -5 3 -13 -3 -18l-67 -64c33 -51 53 -126 53 -194c0 -225 -182 -406 -380 -406c-86 0 -159 35 -208 96l-66 -62c-4 -5 -12 -5 -16 0z
M152 140l464 441c-43 53 -106 85 -179 85c-170 0 -328 -162 -328 -361c0 -59 15 -122 43 -165zM170 118c42 -53 105 -84 179 -84c170 0 329 160 329 358c0 58 -16 123 -45 167zM399 781c-9 -4 -13 -3 -15 3l-4 11c-2 5 0 10 8 14l157 90c4 2 13 4 16 -3l9 -21
c2 -6 0 -12 -6 -15z" />
    <glyph glyph-name="OE" unicode="&#x152;" horiz-adv-x="881" 
d="M65 300c0 226 172 410 377 410c35 0 66 -7 76 -10h358c7 0 11 -6 10 -13l-2 -17c-1 -7 -7 -13 -14 -13h-325l-38 -276h280c7 0 12 -6 11 -13l-2 -17c-1 -7 -8 -13 -15 -13h-280l-42 -296h325c6 0 11 -6 10 -13l-3 -16c-1 -7 -6 -13 -13 -13h-358c-11 -3 -44 -10 -79 -10
c-158 0 -276 137 -276 310zM108 306c0 -150 100 -272 240 -272c21 0 42 2 63 7l87 616c-20 5 -40 8 -62 8c-170 0 -328 -161 -328 -359z" />
    <glyph glyph-name="Racute" unicode="&#x154;" horiz-adv-x="602" 
d="M146 270l-36 -257c-1 -7 -8 -13 -18 -13h-18c-7 0 -12 6 -11 13l95 674c1 7 6 13 14 13h225c94 0 172 -81 172 -186c0 -115 -77 -210 -177 -237l93 -259c3 -8 1 -18 -10 -18h-25c-11 0 -14 3 -17 13l-91 258c-12 -1 -25 -1 -37 -1h-159zM153 316h187c92 0 179 82 179 192
c0 82 -55 146 -131 146h-187zM275 781c-9 -4 -13 -3 -15 3l-4 11c-2 5 0 10 8 14l157 90c4 2 13 4 16 -3l9 -21c2 -6 0 -12 -6 -15z" />
    <glyph glyph-name="Rcaron" unicode="&#x158;" horiz-adv-x="602" 
d="M146 270l-36 -257c-1 -7 -8 -13 -18 -13h-18c-7 0 -12 6 -11 13l95 674c1 7 6 13 14 13h225c94 0 172 -81 172 -186c0 -115 -77 -210 -177 -237l93 -259c3 -8 1 -18 -10 -18h-25c-11 0 -14 3 -17 13l-91 258c-12 -1 -25 -1 -37 -1h-159zM153 316h187c92 0 179 82 179 192
c0 82 -55 146 -131 146h-187zM341 762c-4 0 -6 2 -9 5l-96 98c-4 4 -7 9 -2 14l7 8c4 4 8 8 15 2l89 -81l113 84c9 6 12 2 15 -2l7 -11c3 -5 1 -10 -4 -14l-123 -98c-5 -4 -9 -5 -12 -5z" />
    <glyph glyph-name="Rcommaaccent" unicode="&#x156;" horiz-adv-x="602" 
d="M146 270l-36 -257c-1 -7 -8 -13 -18 -13h-18c-7 0 -12 6 -11 13l95 674c1 7 6 13 14 13h225c94 0 172 -81 172 -186c0 -115 -77 -210 -177 -237l93 -259c3 -8 1 -18 -10 -18h-25c-11 0 -14 3 -17 13l-91 258c-12 -1 -25 -1 -37 -1h-159zM153 316h187c92 0 179 82 179 192
c0 82 -55 146 -131 146h-187zM197 -119c0 24 21 43 47 43c31 0 48 -21 48 -57c0 -42 -20 -91 -57 -120c-5 -5 -8 -5 -12 -1l-10 10c-6 6 -2 10 3 14c21 18 38 49 38 76c0 6 -1 10 -3 14c-4 -4 -13 -7 -23 -7c-19 0 -31 12 -31 28z" />
    <glyph glyph-name="Sacute" unicode="&#x15a;" horiz-adv-x="503" 
d="M39 70c-5 5 -10 13 -2 21l11 14c7 9 14 9 21 2c29 -28 76 -75 159 -75c89 0 164 65 164 151c0 74 -61 109 -150 154c-87 44 -149 85 -149 177c0 93 65 196 216 196c71 0 115 -25 153 -51c6 -4 9 -13 3 -21l-8 -11c-6 -8 -13 -11 -22 -5c-42 29 -80 45 -130 45
c-111 0 -165 -77 -165 -149c0 -70 53 -105 126 -140c105 -50 174 -95 174 -190c0 -118 -97 -198 -215 -198c-95 0 -163 56 -186 80zM253 773c-9 -4 -13 -3 -15 3l-4 11c-2 5 0 10 8 14l157 90c4 2 13 4 16 -3l9 -21c2 -6 0 -12 -6 -15z" />
    <glyph glyph-name="Scircumflex" unicode="&#x15c;" horiz-adv-x="503" 
d="M39 70c-5 5 -10 13 -2 21l11 14c7 9 14 9 21 2c29 -28 76 -75 159 -75c89 0 164 65 164 151c0 74 -61 109 -150 154c-87 44 -149 85 -149 177c0 93 65 196 216 196c71 0 115 -25 153 -51c6 -4 9 -13 3 -21l-8 -11c-6 -8 -13 -11 -22 -5c-42 29 -80 45 -130 45
c-111 0 -165 -77 -165 -149c0 -70 53 -105 126 -140c105 -50 174 -95 174 -190c0 -118 -97 -198 -215 -198c-95 0 -163 56 -186 80zM215 760c-9 -6 -12 -2 -15 2l-7 11c-3 5 -1 10 4 14l123 98c5 4 9 5 12 5c4 0 6 -2 9 -5l96 -98c4 -4 7 -9 2 -14l-7 -8c-4 -4 -8 -8 -15 -2
l-89 81z" />
    <glyph glyph-name="Scaron" unicode="&#x160;" horiz-adv-x="503" 
d="M39 70c-5 5 -10 13 -2 21l11 14c7 9 14 9 21 2c29 -28 76 -75 159 -75c89 0 164 65 164 151c0 74 -61 109 -150 154c-87 44 -149 85 -149 177c0 93 65 196 216 196c71 0 115 -25 153 -51c6 -4 9 -13 3 -21l-8 -11c-6 -8 -13 -11 -22 -5c-42 29 -80 45 -130 45
c-111 0 -165 -77 -165 -149c0 -70 53 -105 126 -140c105 -50 174 -95 174 -190c0 -118 -97 -198 -215 -198c-95 0 -163 56 -186 80zM317 754c-4 0 -6 2 -9 5l-96 98c-4 4 -7 9 -2 14l7 8c4 4 8 8 15 2l89 -81l113 84c9 6 12 2 15 -2l7 -11c3 -5 1 -10 -4 -14l-123 -98
c-5 -4 -9 -5 -12 -5z" />
    <glyph glyph-name="Scedilla" unicode="&#x15e;" horiz-adv-x="503" 
d="M39 70c-5 5 -10 13 -2 21l11 14c7 9 14 9 21 2c29 -28 76 -75 159 -75c89 0 164 65 164 151c0 74 -61 109 -150 154c-87 44 -149 85 -149 177c0 93 65 196 216 196c71 0 115 -25 153 -51c6 -4 9 -13 3 -21l-8 -11c-6 -8 -13 -11 -22 -5c-42 29 -80 45 -130 45
c-111 0 -165 -77 -165 -149c0 -70 53 -105 126 -140c105 -50 174 -95 174 -190c0 -110 -84 -186 -190 -196l-44 -61c5 1 11 2 15 2c39 0 83 -19 83 -75c0 -53 -51 -94 -114 -94c-37 0 -65 15 -80 31c-4 5 -1 10 1 13l12 19c4 6 9 6 14 1c13 -13 27 -25 53 -25
c27 0 70 15 70 54c0 26 -22 38 -53 38c-19 0 -38 -4 -51 -9c-7 -3 -16 9 -12 15l64 90c-86 6 -148 56 -169 79z" />
    <glyph glyph-name="Scommaaccent" unicode="&#x218;" horiz-adv-x="503" 
d="M39 70c-5 5 -10 13 -2 21l11 14c7 9 14 9 21 2c29 -28 76 -75 159 -75c89 0 164 65 164 151c0 74 -61 109 -150 154c-87 44 -149 85 -149 177c0 93 65 196 216 196c71 0 115 -25 153 -51c6 -4 9 -13 3 -21l-8 -11c-6 -8 -13 -11 -22 -5c-42 29 -80 45 -130 45
c-111 0 -165 -77 -165 -149c0 -70 53 -105 126 -140c105 -50 174 -95 174 -190c0 -118 -97 -198 -215 -198c-95 0 -163 56 -186 80zM158 -127c0 24 21 43 47 43c31 0 48 -21 48 -57c0 -42 -20 -91 -57 -120c-5 -5 -8 -5 -12 -1l-10 10c-6 6 -2 10 3 14c21 18 38 49 38 76
c0 6 -1 10 -3 14c-4 -4 -13 -7 -23 -7c-19 0 -31 12 -31 28z" />
    <glyph glyph-name="Tcaron" unicode="&#x164;" horiz-adv-x="469" 
d="M171 13l91 644h-170c-10 0 -11 6 -10 15l2 15c1 8 8 13 14 13h386c8 0 12 -6 11 -13l-2 -17c-1 -7 -7 -13 -15 -13h-170l-90 -644c-1 -7 -7 -13 -17 -13h-19c-7 0 -12 6 -11 13zM300 762c-4 0 -6 2 -9 5l-96 98c-4 4 -7 9 -2 14l7 8c4 4 8 8 15 2l89 -81l113 84
c9 6 12 2 15 -2l7 -11c3 -5 1 -10 -4 -14l-123 -98c-5 -4 -9 -5 -12 -5z" />
    <glyph glyph-name="Tcommaaccent" unicode="&#x162;" horiz-adv-x="469" 
d="M171 13l91 644h-170c-10 0 -11 6 -10 15l2 15c1 8 8 13 14 13h386c8 0 12 -6 11 -13l-2 -17c-1 -7 -7 -13 -15 -13h-170l-90 -644c-1 -4 -3 -8 -7 -10l-57 -74c8 3 16 4 27 4c38 0 70 -21 70 -70c0 -59 -47 -99 -109 -99c-37 0 -66 15 -81 31c-4 5 -2 10 1 13l11 14
c5 6 9 5 13 1c11 -14 29 -23 55 -23c36 0 71 23 71 63c0 29 -22 43 -52 43c-19 0 -35 -4 -48 -9c-7 -3 -12 6 -8 12l68 96c-1 2 -1 5 -1 8z" />
    <glyph glyph-name="uni021A" unicode="&#x21a;" horiz-adv-x="469" 
d="M171 13l91 644h-170c-10 0 -11 6 -10 15l2 15c1 8 8 13 14 13h386c8 0 12 -6 11 -13l-2 -17c-1 -7 -7 -13 -15 -13h-170l-90 -644c-1 -7 -7 -13 -17 -13h-19c-7 0 -12 6 -11 13zM114 -119c0 24 21 43 47 43c31 0 48 -21 48 -57c0 -42 -20 -91 -57 -120
c-5 -5 -8 -5 -12 -1l-10 10c-6 6 -2 10 3 14c21 18 38 49 38 76c0 6 -1 10 -3 14c-4 -4 -13 -7 -23 -7c-19 0 -31 12 -31 28z" />
    <glyph glyph-name="Tbar" unicode="&#x166;" horiz-adv-x="470" 
d="M172 13l41 290h-112c-8 0 -12 7 -10 15v4c1 6 8 12 14 12h112l46 323h-170c-10 0 -11 6 -10 15l2 15c1 8 8 13 14 13h386c8 0 12 -6 11 -13l-2 -17c-1 -7 -7 -13 -15 -13h-170l-45 -323h109c7 0 12 -6 11 -12l-1 -6c-1 -7 -8 -13 -14 -13h-110l-40 -290
c-1 -7 -7 -13 -17 -13h-19c-7 0 -12 6 -11 13z" />
    <glyph glyph-name="Thorn" unicode="&#xde;" horiz-adv-x="554" 
d="M63 13l95 674c1 7 8 13 14 13h22c7 0 12 -6 11 -13l-16 -111h161c95 0 174 -88 174 -194c0 -141 -111 -256 -237 -256h-161l-16 -113c-1 -7 -8 -13 -18 -13h-18c-7 0 -12 6 -11 13zM132 171h158c94 0 186 93 186 206c0 85 -58 152 -136 152h-157z" />
    <glyph glyph-name="Ugrave" unicode="&#xd9;" horiz-adv-x="663" 
d="M89 242l63 445c1 7 8 13 14 13h22c7 0 12 -6 11 -13l-62 -440c-2 -16 -3 -31 -3 -45c0 -103 58 -166 162 -166c118 0 201 81 219 210l63 441c1 8 5 13 15 13h21c6 0 11 -6 10 -13l-62 -445c-22 -153 -126 -252 -273 -252c-123 0 -203 80 -203 207c0 15 1 29 3 45z
M465 783l-142 79c-5 3 -5 9 -1 15l12 19c4 7 11 7 17 3l132 -90c6 -4 6 -9 4 -14l-6 -9c-4 -5 -7 -7 -16 -3z" />
    <glyph glyph-name="Uacute" unicode="&#xda;" horiz-adv-x="663" 
d="M89 242l63 445c1 7 8 13 14 13h22c7 0 12 -6 11 -13l-62 -440c-2 -16 -3 -31 -3 -45c0 -103 58 -166 162 -166c118 0 201 81 219 210l63 441c1 8 5 13 15 13h21c6 0 11 -6 10 -13l-62 -445c-22 -153 -126 -252 -273 -252c-123 0 -203 80 -203 207c0 15 1 29 3 45z
M327 781c-9 -4 -13 -3 -15 3l-4 11c-2 5 0 10 8 14l157 90c4 2 13 4 16 -3l9 -21c2 -6 0 -12 -6 -15z" />
    <glyph glyph-name="Ucircumflex" unicode="&#xdb;" horiz-adv-x="663" 
d="M89 242l63 445c1 7 8 13 14 13h22c7 0 12 -6 11 -13l-62 -440c-2 -16 -3 -31 -3 -45c0 -103 58 -166 162 -166c118 0 201 81 219 210l63 441c1 8 5 13 15 13h21c6 0 11 -6 10 -13l-62 -445c-22 -153 -126 -252 -273 -252c-123 0 -203 80 -203 207c0 15 1 29 3 45z
M292 768c-9 -6 -12 -2 -15 2l-7 11c-3 5 -1 10 4 14l123 98c5 4 9 5 12 5c4 0 6 -2 9 -5l96 -98c4 -4 7 -9 2 -14l-7 -8c-4 -4 -8 -8 -15 -2l-89 81z" />
    <glyph glyph-name="Utilde" unicode="&#x168;" horiz-adv-x="663" 
d="M89 242l63 445c1 7 8 13 14 13h22c7 0 12 -6 11 -13l-62 -440c-2 -16 -3 -31 -3 -45c0 -103 58 -166 162 -166c118 0 201 81 219 210l63 441c1 8 5 13 15 13h21c6 0 11 -6 10 -13l-62 -445c-22 -153 -126 -252 -273 -252c-123 0 -203 80 -203 207c0 15 1 29 3 45z
M282 799l-11 5c-6 2 -7 8 -4 14c9 18 34 86 94 86c62 0 51 -91 91 -91c32 0 49 41 56 59c3 7 9 10 15 7l12 -4c3 -2 7 -5 4 -13s-29 -86 -93 -86c-60 0 -54 92 -91 92c-34 0 -52 -45 -59 -63c-2 -6 -8 -9 -14 -6z" />
    <glyph glyph-name="Udieresis" unicode="&#xdc;" horiz-adv-x="663" 
d="M89 242l63 445c1 7 8 13 14 13h22c7 0 12 -6 11 -13l-62 -440c-2 -16 -3 -31 -3 -45c0 -103 58 -166 162 -166c118 0 201 81 219 210l63 441c1 8 5 13 15 13h21c6 0 11 -6 10 -13l-62 -445c-22 -153 -126 -252 -273 -252c-123 0 -203 80 -203 207c0 15 1 29 3 45z
M492 795c-19 0 -34 16 -34 35c0 25 21 45 44 45c20 0 35 -16 35 -36c0 -24 -21 -44 -45 -44zM304 795c-20 0 -34 16 -34 35c0 25 21 45 44 45c20 0 35 -16 35 -36c0 -24 -21 -44 -45 -44z" />
    <glyph glyph-name="Umacron" unicode="&#x16a;" horiz-adv-x="663" 
d="M89 242l63 445c1 7 8 13 14 13h22c7 0 12 -6 11 -13l-62 -440c-2 -16 -3 -31 -3 -45c0 -103 58 -166 162 -166c118 0 201 81 219 210l63 441c1 8 5 13 15 13h21c6 0 11 -6 10 -13l-62 -445c-22 -153 -126 -252 -273 -252c-123 0 -203 80 -203 207c0 15 1 29 3 45z
M280 831c-8 0 -12 6 -11 13l2 12c1 8 6 13 14 13h243c6 0 12 -5 10 -13l-1 -12c-1 -7 -8 -13 -15 -13h-242z" />
    <glyph glyph-name="Ubreve" unicode="&#x16c;" horiz-adv-x="663" 
d="M89 242l63 445c1 7 8 13 14 13h22c7 0 12 -6 11 -13l-62 -440c-2 -16 -3 -31 -3 -45c0 -103 58 -166 162 -166c118 0 201 81 219 210l63 441c1 8 5 13 15 13h21c6 0 11 -6 10 -13l-62 -445c-22 -153 -126 -252 -273 -252c-123 0 -203 80 -203 207c0 15 1 29 3 45z
M396 775c-58 0 -104 49 -103 111c0 7 3 14 11 14h11c7 0 9 -6 10 -12c6 -44 31 -78 74 -78c39 0 78 34 94 78c3 7 7 12 13 12h16c7 0 10 -7 8 -14c-19 -63 -69 -111 -134 -111z" />
    <glyph glyph-name="Uring" unicode="&#x16e;" horiz-adv-x="663" 
d="M89 242l63 445c1 7 8 13 14 13h22c7 0 12 -6 11 -13l-62 -440c-2 -16 -3 -31 -3 -45c0 -103 58 -166 162 -166c118 0 201 81 219 210l63 441c1 8 5 13 15 13h21c6 0 11 -6 10 -13l-62 -445c-22 -153 -126 -252 -273 -252c-123 0 -203 80 -203 207c0 15 1 29 3 45z
M392 754c-49 0 -83 40 -83 91c0 68 49 122 113 122c48 0 82 -41 82 -92c0 -68 -48 -121 -112 -121zM397 786c42 0 73 39 73 84c0 34 -22 64 -52 64c-43 0 -76 -38 -76 -83c0 -35 23 -65 55 -65z" />
    <glyph glyph-name="Uhungarumlaut" unicode="&#x170;" horiz-adv-x="663" 
d="M89 242l63 445c1 7 8 13 14 13h22c7 0 12 -6 11 -13l-62 -440c-2 -16 -3 -31 -3 -45c0 -103 58 -166 162 -166c118 0 201 81 219 210l63 441c1 8 5 13 15 13h21c6 0 11 -6 10 -13l-62 -445c-22 -153 -126 -252 -273 -252c-123 0 -203 80 -203 207c0 15 1 29 3 45z
M453 766c-7 0 -9 5 -5 12l89 159c3 7 8 11 15 11h22c11 0 14 -8 8 -17l-103 -157c-4 -6 -9 -8 -14 -8h-12zM304 766c-7 0 -9 5 -6 12l89 159c4 7 9 11 15 11h23c11 0 14 -8 8 -17l-104 -157c-3 -6 -9 -8 -13 -8h-12z" />
    <glyph glyph-name="Uogonek" unicode="&#x172;" horiz-adv-x="663" 
d="M91 255l61 432c1 7 8 13 14 13h22c7 0 12 -6 11 -13l-60 -427c-19 -129 39 -224 157 -224s203 94 221 223l61 428c1 8 5 13 15 13h21c6 0 11 -6 10 -13l-60 -432c-20 -136 -105 -239 -227 -260c-55 -30 -122 -79 -122 -150c0 -29 19 -48 52 -48c31 0 59 19 71 26
c3 2 10 3 10 -4l-1 -19c0 -7 -2 -13 -12 -18c-14 -8 -44 -24 -77 -24c-54 0 -87 37 -87 83c0 65 44 112 100 150c-126 9 -200 117 -180 264z" />
    <glyph glyph-name="Wacute" unicode="&#x1e82;" horiz-adv-x="809" 
d="M176 -3l-84 690c-1 10 4 13 13 13h24c6 0 9 -5 10 -11l65 -571h3l240 583c3 6 5 9 11 9h6c6 0 9 -3 10 -9l80 -582h2l225 570c2 6 7 11 13 11h26c9 0 13 -3 10 -13l-276 -690c-2 -4 -5 -7 -9 -7h-7c-6 0 -8 2 -9 7l-81 595h-3l-244 -595c-2 -5 -4 -7 -9 -7h-7
c-6 0 -9 3 -9 7zM405 781c-9 -4 -13 -3 -15 3l-4 11c-2 5 0 10 8 14l157 90c4 2 13 4 16 -3l9 -21c2 -6 0 -12 -6 -15z" />
    <glyph glyph-name="Wcircumflex" unicode="&#x174;" horiz-adv-x="809" 
d="M176 -3l-84 690c-1 10 4 13 13 13h24c6 0 9 -5 10 -11l65 -571h3l240 583c3 6 5 9 11 9h6c6 0 9 -3 10 -9l80 -582h2l225 570c2 6 7 11 13 11h26c9 0 13 -3 10 -13l-276 -690c-2 -4 -5 -7 -9 -7h-7c-6 0 -8 2 -9 7l-81 595h-3l-244 -595c-2 -5 -4 -7 -9 -7h-7
c-6 0 -9 3 -9 7zM371 768c-9 -6 -12 -2 -15 2l-7 11c-3 5 -1 10 4 14l123 98c5 4 9 5 12 5c4 0 6 -2 9 -5l96 -98c4 -4 7 -9 2 -14l-7 -8c-4 -4 -8 -8 -15 -2l-89 81z" />
    <glyph glyph-name="Wdieresis" unicode="&#x1e84;" horiz-adv-x="809" 
d="M176 -3l-84 690c-1 10 4 13 13 13h24c6 0 9 -5 10 -11l65 -571h3l240 583c3 6 5 9 11 9h6c6 0 9 -3 10 -9l80 -582h2l225 570c2 6 7 11 13 11h26c9 0 13 -3 10 -13l-276 -690c-2 -4 -5 -7 -9 -7h-7c-6 0 -8 2 -9 7l-81 595h-3l-244 -595c-2 -5 -4 -7 -9 -7h-7
c-6 0 -9 3 -9 7zM570 795c-19 0 -34 16 -34 35c0 25 21 45 44 45c20 0 35 -16 35 -36c0 -24 -21 -44 -45 -44zM382 795c-20 0 -34 16 -34 35c0 25 21 45 44 45c20 0 35 -16 35 -36c0 -24 -21 -44 -45 -44z" />
    <glyph glyph-name="Wgrave" unicode="&#x1e80;" horiz-adv-x="809" 
d="M176 -3l-84 690c-1 10 4 13 13 13h24c6 0 9 -5 10 -11l65 -571h3l240 583c3 6 5 9 11 9h6c6 0 9 -3 10 -9l80 -582h2l225 570c2 6 7 11 13 11h26c9 0 13 -3 10 -13l-276 -690c-2 -4 -5 -7 -9 -7h-7c-6 0 -8 2 -9 7l-81 595h-3l-244 -595c-2 -5 -4 -7 -9 -7h-7
c-6 0 -9 3 -9 7zM543 783l-142 79c-5 3 -5 9 -1 15l12 19c4 7 11 7 17 3l132 -90c6 -4 6 -9 4 -14l-6 -9c-4 -5 -7 -7 -16 -3z" />
    <glyph glyph-name="Yacute" unicode="&#xdd;" horiz-adv-x="527" 
d="M270 388h2l247 306c4 4 9 6 14 6h33c10 0 14 -7 7 -15l-282 -344l-46 -328c-1 -7 -8 -13 -15 -13h-20c-7 0 -12 4 -11 13l45 327l-181 347c-4 8 0 13 9 13h28c7 0 10 -4 11 -6zM259 781c-9 -4 -13 -3 -15 3l-4 11c-2 5 0 10 8 14l157 90c4 2 13 4 16 -3l9 -21
c2 -6 0 -12 -6 -15z" />
    <glyph glyph-name="Ycircumflex" unicode="&#x176;" horiz-adv-x="527" 
d="M270 388h2l247 306c4 4 9 6 14 6h33c10 0 14 -7 7 -15l-282 -344l-46 -328c-1 -7 -8 -13 -15 -13h-20c-7 0 -12 4 -11 13l45 327l-181 347c-4 8 0 13 9 13h28c7 0 10 -4 11 -6zM223 768c-9 -6 -12 -2 -15 2l-7 11c-3 5 -1 10 4 14l123 98c5 4 9 5 12 5c4 0 6 -2 9 -5
l96 -98c4 -4 7 -9 2 -14l-7 -8c-4 -4 -8 -8 -15 -2l-89 81z" />
    <glyph glyph-name="Ydieresis" unicode="&#x178;" horiz-adv-x="527" 
d="M270 388h2l247 306c4 4 9 6 14 6h33c10 0 14 -7 7 -15l-282 -344l-46 -328c-1 -7 -8 -13 -15 -13h-20c-7 0 -12 4 -11 13l45 327l-181 347c-4 8 0 13 9 13h28c7 0 10 -4 11 -6zM423 795c-19 0 -34 16 -34 35c0 25 21 45 44 45c20 0 35 -16 35 -36c0 -24 -21 -44 -45 -44z
M235 795c-20 0 -34 16 -34 35c0 25 21 45 44 45c20 0 35 -16 35 -36c0 -24 -21 -44 -45 -44z" />
    <glyph glyph-name="Ygrave" unicode="&#x1ef2;" horiz-adv-x="527" 
d="M270 388h2l247 306c4 4 9 6 14 6h33c10 0 14 -7 7 -15l-282 -344l-46 -328c-1 -7 -8 -13 -15 -13h-20c-7 0 -12 4 -11 13l45 327l-181 347c-4 8 0 13 9 13h28c7 0 10 -4 11 -6zM396 783l-142 79c-5 3 -5 9 -1 15l12 19c4 7 11 7 17 3l132 -90c6 -4 6 -9 4 -14l-6 -9
c-4 -5 -7 -7 -16 -3z" />
    <glyph glyph-name="Zacute" unicode="&#x179;" horiz-adv-x="484" 
d="M3 0c-10 0 -13 5 -12 12l1 8c1 7 3 12 7 18l438 615v3h-315c-8 0 -11 5 -10 13l2 19c1 7 6 12 15 12h368c9 0 12 -5 11 -12l-1 -7c-1 -7 -3 -12 -7 -18l-439 -616v-3h325c8 0 12 -6 11 -13l-2 -18c-1 -7 -7 -13 -15 -13h-377zM259 781c-9 -4 -13 -3 -15 3l-4 11
c-2 5 0 10 8 14l157 90c4 2 13 4 16 -3l9 -21c2 -6 0 -12 -6 -15z" />
    <glyph glyph-name="Zcaron" unicode="&#x17d;" horiz-adv-x="484" 
d="M3 0c-10 0 -13 5 -12 12l1 8c1 7 3 12 7 18l438 615v3h-315c-8 0 -11 5 -10 13l2 19c1 7 6 12 15 12h368c9 0 12 -5 11 -12l-1 -7c-1 -7 -3 -12 -7 -18l-439 -616v-3h325c8 0 12 -6 11 -13l-2 -18c-1 -7 -7 -13 -15 -13h-377zM320 762c-4 0 -6 2 -9 5l-96 98
c-4 4 -7 9 -2 14l7 8c4 4 8 8 15 2l89 -81l113 84c9 6 12 2 15 -2l7 -11c3 -5 1 -10 -4 -14l-123 -98c-5 -4 -9 -5 -12 -5z" />
    <glyph glyph-name="Zdotaccent" unicode="&#x17b;" horiz-adv-x="484" 
d="M3 0c-10 0 -13 5 -12 12l1 8c1 7 3 12 7 18l438 615v3h-315c-8 0 -11 5 -10 13l2 19c1 7 6 12 15 12h368c9 0 12 -5 11 -12l-1 -7c-1 -7 -3 -12 -7 -18l-439 -616v-3h325c8 0 12 -6 11 -13l-2 -18c-1 -7 -7 -13 -15 -13h-377zM329 809c-20 0 -35 14 -35 33
c0 24 22 44 46 44c20 0 33 -14 33 -33c0 -24 -20 -44 -44 -44z" />
    <glyph glyph-name="agrave" unicode="&#xe0;" horiz-adv-x="517" 
d="M453 447l-59 -432c-1 -8 -9 -15 -16 -15h-9c-8 0 -14 5 -13 16l2 40c-13 -16 -71 -67 -150 -67c-95 0 -160 91 -160 212c0 147 105 271 233 271c76 0 119 -43 127 -54l10 31c3 10 7 13 14 13h10c7 0 13 -7 11 -15zM364 115l34 254c-3 5 -39 60 -118 60
c-106 0 -188 -106 -188 -228c0 -89 49 -170 124 -170c85 0 146 79 148 84zM372 560l-142 79c-5 3 -5 9 -1 15l12 19c4 7 12 7 17 3l132 -90c6 -4 6 -9 4 -14l-6 -9c-4 -5 -7 -7 -16 -3z" />
    <glyph glyph-name="aacute" unicode="&#xe1;" horiz-adv-x="517" 
d="M453 447l-59 -432c-1 -8 -9 -15 -16 -15h-9c-8 0 -14 5 -13 16l2 40c-13 -16 -71 -67 -150 -67c-95 0 -160 91 -160 212c0 147 105 271 233 271c76 0 119 -43 127 -54l10 31c3 10 7 13 14 13h10c7 0 13 -7 11 -15zM364 115l34 254c-3 5 -39 60 -118 60
c-106 0 -188 -106 -188 -228c0 -89 49 -170 124 -170c85 0 146 79 148 84zM261 559c-9 -4 -13 -3 -15 3l-4 11c-2 5 0 10 8 14l157 90c4 2 13 4 16 -3l9 -21c2 -6 0 -12 -6 -15z" />
    <glyph glyph-name="acircumflex" unicode="&#xe2;" horiz-adv-x="516" 
d="M452 447l-59 -432c-1 -8 -9 -15 -16 -15h-9c-8 0 -14 5 -13 16l2 40c-13 -16 -71 -67 -150 -67c-95 0 -160 91 -160 212c0 147 105 271 233 271c76 0 119 -43 127 -54l10 31c3 10 7 13 14 13h10c7 0 13 -7 11 -15zM363 115l34 254c-3 5 -39 60 -118 60
c-106 0 -188 -106 -188 -228c0 -89 49 -170 124 -170c85 0 146 79 148 84zM193 552l-7 11c-3 5 -1 10 4 14l123 98c5 4 9 5 12 5c4 0 6 -2 9 -5l96 -98c4 -4 7 -9 2 -14l-7 -8c-4 -4 -8 -8 -15 -2l-89 81l-113 -84c-9 -6 -12 -2 -15 2z" />
    <glyph glyph-name="atilde" unicode="&#xe3;" horiz-adv-x="517" 
d="M453 447l-59 -432c-1 -8 -9 -15 -16 -15h-9c-8 0 -14 5 -13 16l2 40c-13 -16 -71 -67 -150 -67c-95 0 -160 91 -160 212c0 147 105 271 233 271c76 0 119 -43 127 -54l10 31c3 10 7 13 14 13h10c7 0 13 -7 11 -15zM364 115l34 254c-3 5 -39 60 -118 60
c-106 0 -188 -106 -188 -228c0 -89 49 -170 124 -170c85 0 146 79 148 84zM203 579l-11 5c-6 2 -7 8 -4 14c9 18 34 86 94 86c62 0 51 -91 91 -91c32 0 49 41 56 59c3 7 9 10 15 7l12 -4c3 -2 7 -5 4 -13s-29 -86 -93 -86c-60 0 -54 92 -91 92c-34 0 -52 -45 -59 -63
c-2 -6 -8 -9 -14 -6z" />
    <glyph glyph-name="adieresis" unicode="&#xe4;" horiz-adv-x="517" 
d="M453 447l-59 -432c-1 -8 -9 -15 -16 -15h-9c-8 0 -14 5 -13 16l2 40c-13 -16 -71 -67 -150 -67c-95 0 -160 91 -160 212c0 147 105 271 233 271c76 0 119 -43 127 -54l10 31c3 10 7 13 14 13h10c7 0 13 -7 11 -15zM364 115l34 254c-3 5 -39 60 -118 60
c-106 0 -188 -106 -188 -228c0 -89 49 -170 124 -170c85 0 146 79 148 84zM402 590c-20 0 -34 16 -34 35c0 25 20 45 43 45c21 0 36 -16 36 -36c0 -24 -21 -44 -45 -44zM230 590c-20 0 -35 16 -35 35c0 25 21 45 44 45c21 0 34 -16 34 -36c0 -24 -19 -44 -43 -44z" />
    <glyph glyph-name="amacron" unicode="&#x101;" horiz-adv-x="516" 
d="M452 447l-59 -432c-1 -8 -9 -15 -16 -15h-9c-8 0 -14 5 -13 16l2 40c-13 -16 -71 -67 -150 -67c-95 0 -160 91 -160 212c0 147 105 271 233 271c76 0 119 -43 127 -54l10 31c3 10 7 13 14 13h10c7 0 13 -7 11 -15zM363 115l34 254c-3 5 -39 60 -118 60
c-106 0 -188 -106 -188 -228c0 -89 49 -170 124 -170c85 0 146 79 148 84zM190 595c-8 0 -12 5 -11 12l2 13c1 7 6 13 14 13h242c7 0 12 -6 11 -13l-2 -13c-1 -7 -7 -12 -14 -12h-242z" />
    <glyph glyph-name="abreve" unicode="&#x103;" horiz-adv-x="517" 
d="M453 447l-59 -432c-1 -8 -9 -15 -16 -15h-9c-8 0 -14 5 -13 16l2 40c-13 -16 -71 -67 -150 -67c-95 0 -160 91 -160 212c0 147 105 271 233 271c76 0 119 -43 127 -54l10 31c3 10 7 13 14 13h10c7 0 13 -7 11 -15zM364 115l34 254c-3 5 -39 60 -118 60
c-106 0 -188 -106 -188 -228c0 -89 49 -170 124 -170c85 0 146 79 148 84zM299 538c-57 0 -101 49 -103 110c0 8 4 14 12 14h11c7 0 9 -5 10 -11c4 -45 30 -79 73 -79c40 0 79 34 94 79c3 7 8 11 14 11h16c7 0 9 -6 7 -14c-17 -62 -68 -110 -134 -110z" />
    <glyph glyph-name="aring" unicode="&#xe5;" horiz-adv-x="516" 
d="M452 447l-59 -432c-1 -8 -9 -15 -16 -15h-9c-8 0 -14 5 -13 16l2 40c-13 -16 -71 -67 -150 -67c-95 0 -160 91 -160 212c0 147 105 271 233 271c76 0 119 -43 127 -54l10 31c3 10 7 13 14 13h10c7 0 13 -7 11 -15zM363 115l34 254c-3 5 -39 60 -118 60
c-106 0 -188 -106 -188 -228c0 -89 49 -170 124 -170c85 0 146 79 148 84zM301 510c-49 0 -83 40 -83 91c0 68 49 122 113 122c48 0 82 -41 82 -92c0 -68 -48 -121 -112 -121zM306 542c42 0 73 39 73 84c0 34 -22 64 -52 64c-43 0 -76 -38 -76 -83c0 -35 23 -65 55 -65z" />
    <glyph glyph-name="aringacute" unicode="&#x1fb;" horiz-adv-x="517" 
d="M302 510c-49 0 -83 40 -83 91c0 68 49 122 113 122c48 0 82 -41 82 -92c0 -68 -48 -121 -112 -121zM307 542c42 0 73 39 73 84c0 34 -22 64 -52 64c-43 0 -76 -38 -76 -83c0 -35 23 -65 55 -65zM263 731c-9 -4 -13 -3 -15 3l-4 11c-2 5 0 10 8 14l157 90c4 2 13 4 16 -3
l9 -21c2 -6 0 -12 -6 -15zM453 447l-59 -432c-1 -8 -9 -15 -16 -15h-9c-8 0 -14 5 -13 16l2 40c-13 -16 -71 -67 -150 -67c-95 0 -160 91 -160 212c0 147 105 271 233 271c76 0 119 -43 127 -54l10 31c3 10 7 13 14 13h10c7 0 13 -7 11 -15zM364 115l34 254
c-3 5 -39 60 -118 60c-106 0 -188 -106 -188 -228c0 -89 49 -170 124 -170c85 0 146 79 148 84z" />
    <glyph glyph-name="aogonek" unicode="&#x105;" horiz-adv-x="516" 
d="M453 447l-59 -430c-2 -13 -13 -17 -19 -20c-54 -28 -128 -77 -128 -152c0 -29 19 -48 52 -48c31 0 59 19 71 26c3 2 10 3 10 -4l-1 -19c0 -7 -2 -13 -12 -18c-14 -8 -44 -24 -77 -24c-54 0 -87 37 -87 83c0 80 63 132 153 175l2 40c-13 -16 -71 -67 -150 -67
c-95 0 -160 91 -160 212c0 147 105 271 233 271c76 0 119 -43 127 -54l10 31c3 10 7 13 14 13h10c7 0 13 -7 11 -15zM364 115l34 254c-3 5 -39 60 -118 60c-106 0 -188 -106 -188 -228c0 -89 49 -170 124 -170c85 0 146 79 148 84z" />
    <glyph glyph-name="ae" unicode="&#xe6;" horiz-adv-x="733" 
d="M146 -11c-67 0 -120 48 -120 127c0 101 83 181 192 181c54 0 91 -10 103 -16c15 103 18 148 -62 148c-72 0 -125 -27 -134 -31c-8 -2 -13 2 -14 9l-3 18c-1 7 5 13 11 15c0 0 63 32 147 32c64 0 94 -33 99 -86c37 49 104 86 179 86c79 0 142 -47 142 -118
c-1 -169 -292 -139 -332 -137l-12 -102c24 -53 72 -84 135 -84c73 0 107 27 134 46c7 5 15 7 20 -1l9 -15c4 -7 3 -13 -4 -19c-27 -23 -82 -53 -168 -53c-68 0 -116 36 -145 79c-34 -37 -106 -79 -177 -79zM158 31c59 0 116 39 139 69l19 141c-7 2 -43 17 -100 17
c-76 0 -146 -57 -146 -139c0 -58 38 -88 88 -88zM371 334l-11 -77c141 -13 282 2 282 95c0 48 -44 77 -103 77c-61 0 -134 -40 -168 -95z" />
    <glyph glyph-name="aeacute" unicode="&#x1fd;" horiz-adv-x="733" 
d="M146 -11c-67 0 -120 48 -120 127c0 101 83 181 192 181c54 0 91 -10 103 -16c15 103 18 148 -62 148c-72 0 -125 -27 -134 -31c-8 -2 -13 2 -14 9l-3 18c-1 7 5 13 11 15c0 0 63 32 147 32c64 0 94 -33 99 -86c37 49 104 86 179 86c79 0 142 -47 142 -118
c-1 -169 -292 -139 -332 -137l-12 -102c24 -53 72 -84 135 -84c73 0 107 27 134 46c7 5 15 7 20 -1l9 -15c4 -7 3 -13 -4 -19c-27 -23 -82 -53 -168 -53c-68 0 -116 36 -145 79c-34 -37 -106 -79 -177 -79zM158 31c59 0 116 39 139 69l19 141c-7 2 -43 17 -100 17
c-76 0 -146 -57 -146 -139c0 -58 38 -88 88 -88zM371 334l-11 -77c141 -13 282 2 282 95c0 48 -44 77 -103 77c-61 0 -134 -40 -168 -95zM383 559c-9 -4 -13 -3 -15 3l-4 11c-2 5 0 10 8 14l157 90c4 2 13 4 16 -3l9 -21c2 -6 0 -12 -6 -15z" />
    <glyph glyph-name="cacute" unicode="&#x107;" horiz-adv-x="479" 
d="M47 197c0 169 117 275 250 275c75 0 123 -43 143 -70c5 -6 1 -13 -6 -21l-7 -8c-8 -9 -17 -3 -23 3c-16 18 -50 53 -111 53c-101 0 -202 -85 -202 -232c0 -87 63 -166 144 -166c74 0 122 56 137 73c8 10 12 8 20 2l12 -10c6 -5 6 -12 1 -18c-22 -29 -86 -89 -175 -89
c-104 0 -183 90 -183 208zM270 559c-9 -4 -13 -3 -15 3l-4 11c-2 5 0 10 8 14l157 90c4 2 13 4 16 -3l9 -21c2 -6 0 -12 -6 -15z" />
    <glyph glyph-name="ccircumflex" unicode="&#x109;" horiz-adv-x="479" 
d="M47 197c0 169 117 275 250 275c75 0 123 -43 143 -70c5 -6 1 -13 -6 -21l-7 -8c-8 -9 -17 -3 -23 3c-16 18 -50 53 -111 53c-101 0 -202 -85 -202 -232c0 -87 63 -166 144 -166c74 0 122 56 137 73c8 10 12 8 20 2l12 -10c6 -5 6 -12 1 -18c-22 -29 -86 -89 -175 -89
c-104 0 -183 90 -183 208zM202 552l-7 11c-3 5 -1 10 4 14l123 98c5 4 9 5 12 5c4 0 6 -2 9 -5l96 -98c4 -4 7 -9 2 -14l-7 -8c-4 -4 -8 -8 -15 -2l-89 81l-113 -84c-9 -6 -12 -2 -15 2z" />
    <glyph glyph-name="ccaron" unicode="&#x10d;" horiz-adv-x="479" 
d="M47 197c0 169 117 275 250 275c75 0 123 -43 143 -70c5 -6 1 -13 -6 -21l-7 -8c-8 -9 -17 -3 -23 3c-16 18 -50 53 -111 53c-101 0 -202 -85 -202 -232c0 -87 63 -166 144 -166c74 0 122 56 137 73c8 10 12 8 20 2l12 -10c6 -5 6 -12 1 -18c-22 -29 -86 -89 -175 -89
c-104 0 -183 90 -183 208zM318 544c-4 0 -6 2 -9 5l-96 98c-4 4 -7 9 -2 14l7 8c4 4 8 8 15 2l89 -81l113 84c9 6 12 2 15 -2l7 -11c3 -5 1 -10 -4 -14l-123 -98c-5 -4 -9 -5 -12 -5z" />
    <glyph glyph-name="cdotaccent" unicode="&#x10b;" horiz-adv-x="479" 
d="M47 197c0 169 117 275 250 275c75 0 123 -43 143 -70c5 -6 1 -13 -6 -21l-7 -8c-8 -9 -17 -3 -23 3c-16 18 -50 53 -111 53c-101 0 -202 -85 -202 -232c0 -87 63 -166 144 -166c74 0 122 56 137 73c8 10 12 8 20 2l12 -10c6 -5 6 -12 1 -18c-22 -29 -86 -89 -175 -89
c-104 0 -183 90 -183 208zM318 590c-20 0 -35 14 -35 33c0 24 22 44 46 44c20 0 33 -14 33 -33c0 -24 -20 -44 -44 -44z" />
    <glyph glyph-name="ccedilla" unicode="&#xe7;" horiz-adv-x="479" 
d="M47 197c0 169 117 275 250 275c75 0 123 -43 143 -70c5 -6 1 -13 -6 -21l-7 -8c-8 -9 -17 -3 -23 3c-16 18 -50 53 -111 53c-101 0 -202 -85 -202 -232c0 -87 63 -166 144 -166c74 0 122 56 137 73c8 10 12 8 20 2l12 -10c6 -5 6 -12 1 -18c-20 -26 -74 -78 -149 -87
l-44 -60c5 1 11 2 15 2c39 0 83 -19 83 -75c0 -53 -51 -94 -114 -94c-37 0 -65 15 -80 31c-4 5 -1 10 1 13l12 19c4 6 9 6 14 1c13 -13 27 -25 53 -25c27 0 70 15 70 54c0 26 -22 38 -53 38c-19 0 -38 -4 -51 -9c-7 -3 -16 9 -12 15l63 89c-96 9 -166 95 -166 207z" />
    <glyph glyph-name="dcaron" unicode="&#x10f;" horiz-adv-x="524" 
d="M47 194c0 156 101 278 237 278c77 0 122 -45 122 -45l37 259c2 11 6 14 15 14h17c8 0 14 -7 12 -14l-93 -671c-1 -8 -9 -15 -16 -15h-10c-8 0 -14 5 -13 16l2 40c-13 -16 -74 -67 -152 -67c-96 0 -158 91 -158 205zM214 31c85 0 146 79 148 84l37 263s-43 51 -117 51
c-109 0 -191 -104 -191 -232c0 -89 49 -166 123 -166zM549 667c0 24 21 43 47 43c31 0 48 -21 48 -57c0 -42 -20 -91 -57 -120c-5 -5 -8 -5 -12 -1l-10 10c-6 6 -2 10 3 14c21 18 38 49 38 76c0 6 -1 10 -3 14c-4 -4 -13 -7 -23 -7c-19 0 -31 12 -31 28z" />
    <glyph glyph-name="dcroat" unicode="&#x111;" horiz-adv-x="515" 
d="M47 194c0 156 101 278 237 278c77 0 122 -45 122 -45l16 115h-165c-8 0 -12 6 -11 13l1 6c1 7 7 12 14 12h166l16 113c2 11 6 14 15 14h15c8 0 14 -7 12 -14l-16 -113h36c8 0 11 -4 10 -12l-1 -6c-1 -7 -7 -13 -14 -13h-35l-73 -527c-1 -8 -9 -15 -16 -15h-8
c-8 0 -14 5 -13 16l2 40c-13 -16 -74 -67 -152 -67c-96 0 -158 91 -158 205zM214 31c85 0 146 79 148 84l37 263s-43 51 -117 51c-109 0 -191 -104 -191 -232c0 -89 49 -166 123 -166z" />
    <glyph glyph-name="eth" unicode="&#xf0;" horiz-adv-x="551" 
d="M45 184c0 157 125 269 238 269c89 0 146 -56 158 -79h1c-3 96 -49 170 -99 222l-116 -68c-6 -3 -14 -1 -16 6l-2 5c-3 6 0 14 6 17l105 62c-40 35 -79 56 -98 65c-9 3 -13 13 -7 22l9 14c2 4 7 9 15 6c29 -14 77 -40 124 -82l67 40c8 4 15 1 18 -5l2 -5
c2 -7 0 -14 -7 -18l-57 -34c55 -58 103 -143 103 -258c0 -176 -92 -373 -267 -373c-102 0 -177 82 -177 194zM90 191c0 -91 59 -160 138 -160c120 0 210 156 208 276c-1 4 -48 103 -156 103c-92 0 -190 -98 -190 -219z" />
    <glyph glyph-name="egrave" unicode="&#xe8;" horiz-adv-x="474" 
d="M47 193c0 151 97 279 238 279c81 0 142 -46 142 -117c0 -138 -192 -149 -335 -138c-10 -107 41 -186 131 -186c66 0 107 30 129 46c10 7 16 6 22 -4l7 -11c3 -5 4 -12 -3 -18c-28 -21 -81 -55 -160 -55c-108 0 -171 91 -171 204zM98 257c141 -11 285 2 285 95
c0 48 -44 77 -103 77c-88 0 -168 -77 -182 -172zM390 560l-142 79c-5 3 -5 9 -1 15l12 19c4 7 12 7 17 3l132 -90c6 -4 6 -9 4 -14l-6 -9c-4 -5 -7 -7 -16 -3z" />
    <glyph glyph-name="eacute" unicode="&#xe9;" horiz-adv-x="474" 
d="M47 193c0 151 97 279 238 279c81 0 142 -46 142 -117c0 -138 -192 -149 -335 -138c-10 -107 41 -186 131 -186c66 0 107 30 129 46c10 7 16 6 22 -4l7 -11c3 -5 4 -12 -3 -18c-28 -21 -81 -55 -160 -55c-108 0 -171 91 -171 204zM98 257c141 -11 285 2 285 95
c0 48 -44 77 -103 77c-88 0 -168 -77 -182 -172zM209 559c-9 -4 -13 -3 -15 3l-4 11c-2 5 0 10 8 14l157 90c4 2 13 4 16 -3l9 -21c2 -6 0 -12 -6 -15z" />
    <glyph glyph-name="ecircumflex" unicode="&#xea;" horiz-adv-x="474" 
d="M47 193c0 151 97 279 238 279c81 0 142 -46 142 -117c0 -138 -192 -149 -335 -138c-10 -107 41 -186 131 -186c66 0 107 30 129 46c10 7 16 6 22 -4l7 -11c3 -5 4 -12 -3 -18c-28 -21 -81 -55 -160 -55c-108 0 -171 91 -171 204zM98 257c141 -11 285 2 285 95
c0 48 -44 77 -103 77c-88 0 -168 -77 -182 -172zM180 552l-7 11c-3 5 -1 10 4 14l123 98c5 4 9 5 12 5c4 0 6 -2 9 -5l96 -98c4 -4 7 -9 2 -14l-7 -8c-4 -4 -8 -8 -15 -2l-89 81l-113 -84c-9 -6 -12 -2 -15 2z" />
    <glyph glyph-name="ecaron" unicode="&#x11b;" horiz-adv-x="474" 
d="M47 193c0 151 97 279 238 279c81 0 142 -46 142 -117c0 -138 -192 -149 -335 -138c-10 -107 41 -186 131 -186c66 0 107 30 129 46c10 7 16 6 22 -4l7 -11c3 -5 4 -12 -3 -18c-28 -21 -81 -55 -160 -55c-108 0 -171 91 -171 204zM98 257c141 -11 285 2 285 95
c0 48 -44 77 -103 77c-88 0 -168 -77 -182 -172zM298 544c-4 0 -6 2 -9 5l-96 98c-4 4 -7 9 -2 14l7 8c4 4 8 8 15 2l89 -81l113 84c9 6 12 2 15 -2l7 -11c3 -5 1 -10 -4 -14l-123 -98c-5 -4 -9 -5 -12 -5z" />
    <glyph glyph-name="edieresis" unicode="&#xeb;" horiz-adv-x="474" 
d="M47 193c0 151 97 279 238 279c81 0 142 -46 142 -117c0 -138 -192 -149 -335 -138c-10 -107 41 -186 131 -186c66 0 107 30 129 46c10 7 16 6 22 -4l7 -11c3 -5 4 -12 -3 -18c-28 -21 -81 -55 -160 -55c-108 0 -171 91 -171 204zM98 257c141 -11 285 2 285 95
c0 48 -44 77 -103 77c-88 0 -168 -77 -182 -172zM398 590c-20 0 -34 16 -34 35c0 25 20 45 43 45c21 0 36 -16 36 -36c0 -24 -21 -44 -45 -44zM226 590c-20 0 -35 16 -35 35c0 25 21 45 44 45c21 0 34 -16 34 -36c0 -24 -19 -44 -43 -44z" />
    <glyph glyph-name="emacron" unicode="&#x113;" horiz-adv-x="474" 
d="M47 193c0 151 97 279 238 279c81 0 142 -46 142 -117c0 -138 -192 -149 -335 -138c-10 -107 41 -186 131 -186c66 0 107 30 129 46c10 7 16 6 22 -4l7 -11c3 -5 4 -12 -3 -18c-28 -21 -81 -55 -160 -55c-108 0 -171 91 -171 204zM98 257c141 -11 285 2 285 95
c0 48 -44 77 -103 77c-88 0 -168 -77 -182 -172zM187 595c-8 0 -12 5 -11 12l2 13c1 7 6 13 14 13h242c7 0 12 -6 11 -13l-2 -13c-1 -7 -7 -12 -14 -12h-242z" />
    <glyph glyph-name="ebreve" unicode="&#x115;" horiz-adv-x="474" 
d="M47 193c0 151 97 279 238 279c81 0 142 -46 142 -117c0 -138 -192 -149 -335 -138c-10 -107 41 -186 131 -186c66 0 107 30 129 46c10 7 16 6 22 -4l7 -11c3 -5 4 -12 -3 -18c-28 -21 -81 -55 -160 -55c-108 0 -171 91 -171 204zM98 257c141 -11 285 2 285 95
c0 48 -44 77 -103 77c-88 0 -168 -77 -182 -172zM297 538c-57 0 -101 49 -103 110c0 8 4 14 12 14h11c7 0 9 -5 10 -11c4 -45 30 -79 73 -79c40 0 79 34 94 79c3 7 8 11 14 11h16c7 0 9 -6 7 -14c-17 -62 -68 -110 -134 -110z" />
    <glyph glyph-name="edotaccent" unicode="&#x117;" horiz-adv-x="474" 
d="M47 193c0 151 97 279 238 279c81 0 142 -46 142 -117c0 -138 -192 -149 -335 -138c-10 -107 41 -186 131 -186c66 0 107 30 129 46c10 7 16 6 22 -4l7 -11c3 -5 4 -12 -3 -18c-28 -21 -81 -55 -160 -55c-108 0 -171 91 -171 204zM98 257c141 -11 285 2 285 95
c0 48 -44 77 -103 77c-88 0 -168 -77 -182 -172zM304 590c-20 0 -35 14 -35 33c0 24 22 44 46 44c20 0 33 -14 33 -33c0 -24 -20 -44 -44 -44z" />
    <glyph glyph-name="eogonek" unicode="&#x119;" horiz-adv-x="474" 
d="M47 193c0 151 97 279 238 279c81 0 142 -46 142 -117c0 -138 -192 -149 -335 -138c-10 -107 41 -186 131 -186c66 0 107 30 129 46c10 7 16 6 22 -4l7 -12c3 -5 4 -12 -3 -18c-11 -10 -45 -31 -90 -44c-57 -29 -131 -79 -131 -154c0 -29 19 -48 52 -48c31 0 59 19 71 26
c3 2 10 3 10 -4l-1 -19c0 -7 -2 -13 -12 -18c-14 -8 -44 -24 -77 -24c-54 0 -87 37 -87 83c0 64 43 110 98 148c-104 4 -164 93 -164 204zM98 257c141 -11 285 2 285 95c0 48 -44 77 -103 77c-88 0 -168 -77 -182 -172z" />
    <glyph glyph-name="gcircumflex" unicode="&#x11d;" horiz-adv-x="517" 
d="M46 194c0 154 106 278 234 278c76 0 120 -43 128 -54l10 31c2 10 8 13 15 13h8c7 0 13 -7 11 -15l-59 -435c-24 -176 -112 -231 -203 -231c-79 0 -137 60 -151 76c-7 7 -6 16 1 23l9 9c6 6 15 9 26 -3c16 -18 57 -62 118 -62c59 0 133 31 156 185l3 24
c-11 -12 -61 -43 -131 -43c-109 0 -175 90 -175 204zM92 199c0 -91 51 -168 134 -168c75 0 128 48 132 54l40 282c-3 5 -40 62 -119 62c-106 0 -187 -107 -187 -230zM185 552l-7 11c-3 5 -1 10 4 14l123 98c5 4 9 5 12 5c4 0 6 -2 9 -5l96 -98c4 -4 7 -9 2 -14l-7 -8
c-4 -4 -8 -8 -15 -2l-89 81l-113 -84c-9 -6 -12 -2 -15 2z" />
    <glyph glyph-name="gbreve" unicode="&#x11f;" horiz-adv-x="517" 
d="M46 194c0 154 106 278 234 278c76 0 120 -43 128 -54l10 31c2 10 8 13 15 13h8c7 0 13 -7 11 -15l-59 -435c-24 -176 -112 -231 -203 -231c-79 0 -137 60 -151 76c-7 7 -6 16 1 23l9 9c6 6 15 9 26 -3c16 -18 57 -62 118 -62c59 0 133 31 156 185l3 24
c-11 -12 -61 -43 -131 -43c-109 0 -175 90 -175 204zM92 199c0 -91 51 -168 134 -168c75 0 128 48 132 54l40 282c-3 5 -40 62 -119 62c-106 0 -187 -107 -187 -230zM295 538c-57 0 -101 49 -103 110c0 8 4 14 12 14h11c7 0 9 -5 10 -11c4 -45 30 -79 73 -79
c40 0 79 34 94 79c3 7 8 11 14 11h16c7 0 9 -6 7 -14c-17 -62 -68 -110 -134 -110z" />
    <glyph glyph-name="gdotaccent" unicode="&#x121;" horiz-adv-x="517" 
d="M46 194c0 154 106 278 234 278c76 0 120 -43 128 -54l10 31c2 10 8 13 15 13h8c7 0 13 -7 11 -15l-59 -435c-24 -176 -112 -231 -203 -231c-79 0 -137 60 -151 76c-7 7 -6 16 1 23l9 9c6 6 15 9 26 -3c16 -18 57 -62 118 -62c59 0 133 31 156 185l3 24
c-11 -12 -61 -43 -131 -43c-109 0 -175 90 -175 204zM92 199c0 -91 51 -168 134 -168c75 0 128 48 132 54l40 282c-3 5 -40 62 -119 62c-106 0 -187 -107 -187 -230zM304 590c-20 0 -35 14 -35 33c0 24 22 44 46 44c20 0 33 -14 33 -33c0 -24 -20 -44 -44 -44z" />
    <glyph glyph-name="gcommaaccent" unicode="&#x123;" horiz-adv-x="517" 
d="M46 194c0 154 106 278 234 278c76 0 120 -43 128 -54l10 31c2 10 8 13 15 13h8c7 0 13 -7 11 -15l-59 -435c-24 -176 -112 -231 -203 -231c-79 0 -137 60 -151 76c-7 7 -6 16 1 23l9 9c6 6 15 9 26 -3c16 -18 57 -62 118 -62c59 0 133 31 156 185l3 24
c-11 -12 -61 -43 -131 -43c-109 0 -175 90 -175 204zM92 199c0 -91 51 -168 134 -168c75 0 128 48 132 54l40 282c-3 5 -40 62 -119 62c-106 0 -187 -107 -187 -230zM351 606c0 -24 -21 -43 -47 -43c-31 0 -48 21 -48 57c0 42 20 91 57 120c5 5 8 5 12 1l10 -10
c6 -6 2 -10 -3 -14c-21 -18 -38 -49 -38 -76c0 -6 1 -10 3 -14c4 4 13 7 23 7c19 0 31 -12 31 -28z" />
    <glyph glyph-name="hcircumflex" unicode="&#x125;" horiz-adv-x="506" 
d="M59 0c-9 0 -12 7 -11 15l94 671c1 7 4 14 13 14h20c7 0 14 -7 13 -14l-41 -284c13 15 69 70 153 70c99 0 142 -68 122 -206l-35 -251c-1 -8 -8 -15 -16 -15h-15c-9 0 -14 7 -13 15l35 251c15 114 -13 163 -87 163c-87 0 -148 -75 -152 -81l-47 -333
c-1 -10 -7 -15 -16 -15h-17zM50 769l-7 11c-3 5 -1 10 4 14l123 98c5 4 9 5 12 5c4 0 6 -2 9 -5l96 -98c4 -4 7 -9 2 -14l-7 -8c-4 -4 -8 -8 -15 -2l-89 81l-113 -84c-9 -6 -12 -2 -15 2z" />
    <glyph glyph-name="hbar" unicode="&#x127;" horiz-adv-x="524" 
d="M59 0c-9 0 -12 7 -11 15l74 527h-34c-7 0 -10 7 -9 14l1 6c1 7 6 11 13 11h33l16 113c1 7 4 14 13 14h19c7 0 14 -7 13 -14l-17 -113h166c9 0 12 -4 11 -12l-1 -7c-1 -6 -7 -12 -14 -12h-166l-20 -140c13 15 79 70 163 70c99 0 152 -68 132 -206l-35 -251
c-1 -8 -8 -15 -16 -15h-15c-9 0 -14 7 -13 15l35 251c15 114 -23 163 -97 163c-87 0 -158 -75 -162 -81l-47 -333c-1 -10 -7 -15 -16 -15h-16z" />
    <glyph glyph-name="dotlessi" unicode="&#x131;" horiz-adv-x="216" 
d="M59 0c-9 0 -12 7 -11 15l61 432c1 8 9 15 18 15h14c8 0 13 -7 12 -15l-61 -432c-1 -10 -5 -15 -15 -15h-18z" />
    <glyph glyph-name="igrave" unicode="&#xec;" horiz-adv-x="216" 
d="M59 0c-9 0 -12 7 -11 15l61 432c1 8 9 15 18 15h14c8 0 13 -7 12 -15l-61 -432c-1 -10 -5 -15 -15 -15h-18zM198 560l-142 79c-5 3 -5 9 -1 15l12 19c4 7 12 7 17 3l132 -90c6 -4 6 -9 4 -14l-6 -9c-4 -5 -7 -7 -16 -3z" />
    <glyph glyph-name="iacute" unicode="&#xed;" horiz-adv-x="216" 
d="M59 0c-9 0 -12 7 -11 15l61 432c1 8 9 15 18 15h14c8 0 13 -7 12 -15l-61 -432c-1 -10 -5 -15 -15 -15h-18zM100 559c-9 -4 -13 -3 -15 3l-4 11c-2 5 0 10 8 14l157 90c4 2 13 4 16 -3l9 -21c2 -6 0 -12 -6 -15z" />
    <glyph glyph-name="ibreve" unicode="&#x12d;" horiz-adv-x="216" 
d="M59 0c-9 0 -12 7 -11 15l61 432c1 8 9 15 18 15h14c8 0 13 -7 12 -15l-61 -432c-1 -10 -5 -15 -15 -15h-18zM145 538c-57 0 -101 49 -103 110c0 8 4 14 12 14h11c7 0 9 -5 10 -11c4 -45 30 -79 73 -79c40 0 79 34 94 79c3 7 8 11 14 11h16c7 0 9 -6 7 -14
c-17 -62 -68 -110 -134 -110z" />
    <glyph glyph-name="icircumflex" unicode="&#xee;" horiz-adv-x="215" 
d="M58 0c-9 0 -12 7 -11 15l61 432c1 8 9 15 18 15h14c8 0 13 -7 12 -15l-61 -432c-1 -10 -5 -15 -15 -15h-18zM25 552l-7 11c-3 5 -1 10 4 14l123 98c5 4 9 5 12 5c4 0 6 -2 9 -5l96 -98c4 -4 7 -9 2 -14l-7 -8c-4 -4 -8 -8 -15 -2l-89 81l-113 -84c-9 -6 -12 -2 -15 2z
" />
    <glyph glyph-name="itilde" unicode="&#x129;" horiz-adv-x="216" 
d="M59 0c-9 0 -12 7 -11 15l61 432c1 8 9 15 18 15h14c8 0 13 -7 12 -15l-61 -432c-1 -10 -5 -15 -15 -15h-18zM34 579l-11 5c-6 2 -7 8 -4 14c9 18 34 86 94 86c62 0 51 -91 91 -91c32 0 49 41 56 59c3 7 9 10 15 7l12 -4c3 -2 7 -5 4 -13s-29 -86 -93 -86
c-60 0 -54 92 -91 92c-34 0 -52 -45 -59 -63c-2 -6 -8 -9 -14 -6z" />
    <glyph glyph-name="idieresis" unicode="&#xef;" horiz-adv-x="215" 
d="M58 0c-9 0 -12 7 -11 15l61 432c1 8 9 15 18 15h14c8 0 13 -7 12 -15l-61 -432c-1 -10 -5 -15 -15 -15h-18zM236 590c-20 0 -34 16 -34 35c0 25 20 45 43 45c21 0 36 -16 36 -36c0 -24 -21 -44 -45 -44zM64 590c-20 0 -35 16 -35 35c0 25 21 45 44 45c21 0 34 -16 34 -36
c0 -24 -19 -44 -43 -44z" />
    <glyph glyph-name="imacron" unicode="&#x12b;" horiz-adv-x="216" 
d="M59 0c-9 0 -12 7 -11 15l61 432c1 8 9 15 18 15h14c8 0 13 -7 12 -15l-61 -432c-1 -10 -5 -15 -15 -15h-18zM31 595c-8 0 -12 5 -11 12l2 13c1 7 6 13 14 13h242c7 0 12 -6 11 -13l-2 -13c-1 -7 -7 -12 -14 -12h-242z" />
    <glyph glyph-name="iogonek" unicode="&#x12f;" horiz-adv-x="216" 
d="M49 17l61 430c1 8 9 15 18 15h14c8 0 13 -7 12 -15l-61 -428c-1 -9 -4 -15 -11 -19c-53 -27 -133 -79 -133 -155c0 -29 19 -48 52 -48c31 0 59 19 71 26c3 2 10 3 10 -4l-1 -19c0 -7 -2 -13 -12 -18c-14 -8 -44 -24 -77 -24c-54 0 -87 37 -87 83c0 80 69 134 144 176z
M151 590c-20 0 -35 14 -35 33c0 24 22 44 46 44c20 0 33 -14 33 -33c0 -24 -20 -44 -44 -44z" />
    <glyph glyph-name="dotlessj" unicode="&#x237;" horiz-adv-x="216" 
d="M153 447l-72 -518c-16 -114 -62 -150 -140 -175c-13 -4 -19 -2 -22 8l-4 13c-3 8 1 19 13 22c54 13 96 43 107 123l74 527c1 8 9 15 18 15h14c7 0 14 -7 12 -15z" />
    <glyph glyph-name="jcircumflex" unicode="&#x135;" horiz-adv-x="216" 
d="M153 447l-72 -518c-16 -114 -62 -150 -140 -175c-13 -4 -19 -2 -22 8l-4 13c-3 8 1 19 13 22c54 13 96 43 107 123l74 527c1 8 9 15 18 15h14c7 0 14 -7 12 -15zM29 552l-7 11c-3 5 -1 10 4 14l123 98c5 4 9 5 12 5c4 0 6 -2 9 -5l96 -98c4 -4 7 -9 2 -14l-7 -8
c-4 -4 -8 -8 -15 -2l-89 81l-113 -84c-9 -6 -12 -2 -15 2z" />
    <glyph glyph-name="kcommaaccent" unicode="&#x137;" horiz-adv-x="428" 
d="M59 0c-9 0 -12 7 -11 15l94 671c1 7 8 14 16 14h16c7 0 14 -7 13 -14l-59 -410l230 179c6 5 13 7 18 7h31c12 0 13 -11 3 -19l-244 -191l189 -232c8 -9 0 -20 -9 -20h-18c-9 0 -14 -1 -22 9l-183 230l-32 -224c-1 -10 -7 -15 -16 -15h-16zM132 -119c0 24 21 43 47 43
c31 0 48 -21 48 -57c0 -42 -20 -91 -57 -120c-5 -5 -8 -5 -12 -1l-10 10c-6 6 -2 10 3 14c21 18 38 49 38 76c0 6 -1 10 -3 14c-4 -4 -13 -7 -23 -7c-19 0 -31 12 -31 28z" />
    <glyph glyph-name="kgreenlandic" unicode="&#x138;" horiz-adv-x="457" 
d="M47 15l61 432c1 8 8 15 16 15h22c7 0 12 -7 11 -15l-27 -196l248 204c6 5 13 7 19 7h36c11 0 10 -14 -1 -21l-257 -210l214 -211c8 -7 0 -20 -8 -20h-29c-6 0 -10 1 -19 9l-209 205l-28 -199c-1 -10 -7 -15 -15 -15h-18c-9 0 -17 7 -16 15z" />
    <glyph glyph-name="lacute" unicode="&#x13a;" horiz-adv-x="229" 
d="M65 0c-9 0 -12 7 -11 15l94 671c1 7 8 14 14 14h19c6 0 14 -7 13 -14l-96 -671c-1 -10 -6 -15 -16 -15h-17zM131 776c-9 -4 -13 -3 -15 3l-4 11c-2 5 0 10 8 14l157 90c4 2 13 4 16 -3l9 -21c2 -6 0 -12 -6 -15z" />
    <glyph glyph-name="lcaron" unicode="&#x13e;" horiz-adv-x="229" 
d="M65 0c-9 0 -12 7 -11 15l94 671c1 7 8 14 14 14h19c6 0 14 -7 13 -14l-96 -671c-1 -10 -6 -15 -16 -15h-17zM256 667c0 24 21 43 47 43c31 0 48 -21 48 -57c0 -42 -20 -91 -57 -120c-5 -5 -8 -5 -12 -1l-10 10c-6 6 -2 10 3 14c21 18 38 49 38 76c0 6 -1 10 -3 14
c-4 -4 -13 -7 -23 -7c-19 0 -31 12 -31 28z" />
    <glyph glyph-name="lcommaaccent" unicode="&#x13c;" horiz-adv-x="229" 
d="M65 0c-9 0 -12 7 -11 15l94 671c1 7 8 14 14 14h19c6 0 14 -7 13 -14l-96 -671c-1 -10 -6 -15 -16 -15h-17zM10 -119c0 24 21 43 47 43c31 0 48 -21 48 -57c0 -42 -20 -91 -57 -120c-5 -5 -8 -5 -12 -1l-10 10c-6 6 -2 10 3 14c21 18 38 49 38 76c0 6 -1 10 -3 14
c-4 -4 -13 -7 -23 -7c-19 0 -31 12 -31 28z" />
    <glyph glyph-name="lslash" unicode="&#x142;" horiz-adv-x="275" 
d="M71 0c-9 0 -12 7 -11 15l45 320l-63 -34c-6 -3 -13 -2 -15 4l-2 6c-2 6 -2 13 6 17l79 42l44 316c1 7 8 14 14 14h19c6 0 14 -7 13 -14l-42 -290l106 57c7 4 13 1 15 -5l2 -6c2 -5 0 -12 -7 -16l-121 -65l-49 -346c-1 -10 -6 -15 -16 -15h-17z" />
    <glyph glyph-name="ldot" unicode="&#x140;" horiz-adv-x="294" 
d="M65 0c-9 0 -12 7 -11 15l94 671c1 7 8 14 14 14h19c6 0 14 -7 13 -14l-96 -671c-1 -10 -6 -15 -16 -15h-17zM265 303c-20 0 -35 16 -35 35c0 26 23 45 46 45c20 0 33 -15 33 -35c0 -25 -20 -45 -44 -45z" />
    <glyph glyph-name="nacute" unicode="&#x144;" horiz-adv-x="505" 
d="M59 0c-9 0 -12 7 -11 15l61 432c1 8 5 15 14 15h10c8 0 13 -4 13 -12l-3 -46c20 18 71 68 155 68c111 0 142 -81 124 -206l-36 -251c-1 -8 -8 -15 -16 -15h-15c-9 0 -14 7 -13 15l36 251c14 107 -8 163 -89 163c-84 0 -139 -65 -149 -77l-48 -337c-1 -10 -7 -15 -17 -15
h-16zM262 559c-9 -4 -13 -3 -15 3l-4 11c-2 5 0 10 8 14l157 90c4 2 13 4 16 -3l9 -21c2 -6 0 -12 -6 -15z" />
    <glyph glyph-name="ncaron" unicode="&#x148;" horiz-adv-x="505" 
d="M59 0c-9 0 -12 7 -11 15l61 432c1 8 5 15 14 15h10c8 0 13 -4 13 -12l-3 -46c20 18 71 68 155 68c111 0 142 -81 124 -206l-36 -251c-1 -8 -8 -15 -16 -15h-15c-9 0 -14 7 -13 15l36 251c14 107 -8 163 -89 163c-84 0 -139 -65 -149 -77l-48 -337c-1 -10 -7 -15 -17 -15
h-16zM297 544c-4 0 -6 2 -9 5l-96 98c-4 4 -7 9 -2 14l7 8c4 4 8 8 15 2l89 -81l113 84c9 6 12 2 15 -2l7 -11c3 -5 1 -10 -4 -14l-123 -98c-5 -4 -9 -5 -12 -5z" />
    <glyph glyph-name="ntilde" unicode="&#xf1;" horiz-adv-x="505" 
d="M59 0c-9 0 -12 7 -11 15l61 432c1 8 5 15 14 15h10c8 0 13 -4 13 -12l-3 -46c20 18 71 68 155 68c111 0 142 -81 124 -206l-36 -251c-1 -8 -8 -15 -16 -15h-15c-9 0 -14 7 -13 15l36 251c14 107 -8 163 -89 163c-84 0 -139 -65 -149 -77l-48 -337c-1 -10 -7 -15 -17 -15
h-16zM196 579l-11 5c-6 2 -7 8 -4 14c9 18 34 86 94 86c62 0 51 -91 91 -91c32 0 49 41 56 59c3 7 9 10 15 7l12 -4c3 -2 7 -5 4 -13s-29 -86 -93 -86c-60 0 -54 92 -91 92c-34 0 -52 -45 -59 -63c-2 -6 -8 -9 -14 -6z" />
    <glyph glyph-name="ncommaaccent" unicode="&#x146;" horiz-adv-x="505" 
d="M59 0c-9 0 -12 7 -11 15l61 432c1 8 5 15 14 15h10c8 0 13 -4 13 -12l-3 -46c20 18 71 68 155 68c111 0 142 -81 124 -206l-36 -251c-1 -8 -8 -15 -16 -15h-15c-9 0 -14 7 -13 15l36 251c14 107 -8 163 -89 163c-84 0 -139 -65 -149 -77l-48 -337c-1 -10 -7 -15 -17 -15
h-16zM164 -119c0 24 21 43 47 43c31 0 48 -21 48 -57c0 -42 -20 -91 -57 -120c-5 -5 -8 -5 -12 -1l-10 10c-6 6 -2 10 3 14c21 18 38 49 38 76c0 6 -1 10 -3 14c-4 -4 -13 -7 -23 -7c-19 0 -31 12 -31 28z" />
    <glyph glyph-name="napostrophe" unicode="&#x149;" horiz-adv-x="505" 
d="M48 668c0 24 21 43 47 43c31 0 48 -21 48 -57c0 -42 -20 -91 -57 -120c-5 -5 -8 -5 -12 -1l-10 10c-6 6 -2 10 3 14c21 18 38 49 38 76c0 6 -1 10 -3 14c-4 -4 -13 -7 -23 -7c-19 0 -31 12 -31 28zM59 0c-9 0 -12 7 -11 15l61 432c1 8 5 15 14 15h10c8 0 13 -4 13 -12
l-3 -46c20 18 71 68 155 68c111 0 142 -81 124 -206l-36 -251c-1 -8 -8 -15 -16 -15h-15c-9 0 -14 7 -13 15l36 251c14 107 -8 163 -89 163c-84 0 -139 -65 -149 -77l-48 -337c-1 -10 -7 -15 -17 -15h-16z" />
    <glyph glyph-name="ograve" unicode="&#xf2;" horiz-adv-x="531" 
d="M46 197c0 151 111 275 247 275c100 0 176 -93 176 -207c0 -152 -112 -276 -245 -276c-100 0 -178 93 -178 208zM90 202c0 -96 57 -171 139 -171c101 0 196 102 196 230c0 94 -58 168 -139 168c-106 0 -196 -102 -196 -227zM353 560l-142 79c-5 3 -5 9 -1 15l12 19
c4 7 12 7 17 3l132 -90c6 -4 6 -9 4 -14l-6 -9c-4 -5 -7 -7 -16 -3z" />
    <glyph glyph-name="oacute" unicode="&#xf3;" horiz-adv-x="531" 
d="M46 197c0 151 111 275 247 275c100 0 176 -93 176 -207c0 -152 -112 -276 -245 -276c-100 0 -178 93 -178 208zM90 202c0 -96 57 -171 139 -171c101 0 196 102 196 230c0 94 -58 168 -139 168c-106 0 -196 -102 -196 -227zM256 559c-9 -4 -13 -3 -15 3l-4 11
c-2 5 0 10 8 14l157 90c4 2 13 4 16 -3l9 -21c2 -6 0 -12 -6 -15z" />
    <glyph glyph-name="ocircumflex" unicode="&#xf4;" horiz-adv-x="531" 
d="M46 197c0 151 111 275 247 275c100 0 176 -93 176 -207c0 -152 -112 -276 -245 -276c-100 0 -178 93 -178 208zM90 202c0 -96 57 -171 139 -171c101 0 196 102 196 230c0 94 -58 168 -139 168c-106 0 -196 -102 -196 -227zM186 552l-7 11c-3 5 -1 10 4 14l123 98
c5 4 9 5 12 5c4 0 6 -2 9 -5l96 -98c4 -4 7 -9 2 -14l-7 -8c-4 -4 -8 -8 -15 -2l-89 81l-113 -84c-9 -6 -12 -2 -15 2z" />
    <glyph glyph-name="otilde" unicode="&#xf5;" horiz-adv-x="531" 
d="M46 197c0 151 111 275 247 275c100 0 176 -93 176 -207c0 -152 -112 -276 -245 -276c-100 0 -178 93 -178 208zM90 202c0 -96 57 -171 139 -171c101 0 196 102 196 230c0 94 -58 168 -139 168c-106 0 -196 -102 -196 -227zM195 579l-11 5c-6 2 -7 8 -4 14
c9 18 34 86 94 86c62 0 51 -91 91 -91c32 0 49 41 56 59c3 7 9 10 15 7l12 -4c3 -2 7 -5 4 -13s-29 -86 -93 -86c-60 0 -54 92 -91 92c-34 0 -52 -45 -59 -63c-2 -6 -8 -9 -14 -6z" />
    <glyph glyph-name="odieresis" unicode="&#xf6;" horiz-adv-x="531" 
d="M46 197c0 151 111 275 247 275c100 0 176 -93 176 -207c0 -152 -112 -276 -245 -276c-100 0 -178 93 -178 208zM90 202c0 -96 57 -171 139 -171c101 0 196 102 196 230c0 94 -58 168 -139 168c-106 0 -196 -102 -196 -227zM401 590c-20 0 -34 16 -34 35c0 25 20 45 43 45
c21 0 36 -16 36 -36c0 -24 -21 -44 -45 -44zM229 590c-20 0 -35 16 -35 35c0 25 21 45 44 45c21 0 34 -16 34 -36c0 -24 -19 -44 -43 -44z" />
    <glyph glyph-name="omacron" unicode="&#x14d;" horiz-adv-x="531" 
d="M46 197c0 151 111 275 247 275c100 0 176 -93 176 -207c0 -152 -112 -276 -245 -276c-100 0 -178 93 -178 208zM90 202c0 -96 57 -171 139 -171c101 0 196 102 196 230c0 94 -58 168 -139 168c-106 0 -196 -102 -196 -227zM188 595c-8 0 -12 5 -11 12l2 13
c1 7 6 13 14 13h242c7 0 12 -6 11 -13l-2 -13c-1 -7 -7 -12 -14 -12h-242z" />
    <glyph glyph-name="obreve" unicode="&#x14f;" horiz-adv-x="531" 
d="M46 197c0 151 111 275 247 275c100 0 176 -93 176 -207c0 -152 -112 -276 -245 -276c-100 0 -178 93 -178 208zM90 202c0 -96 57 -171 139 -171c101 0 196 102 196 230c0 94 -58 168 -139 168c-106 0 -196 -102 -196 -227zM299 538c-57 0 -101 49 -103 110
c0 8 4 14 12 14h11c7 0 9 -5 10 -11c4 -45 30 -79 73 -79c40 0 79 34 94 79c3 7 8 11 14 11h16c7 0 9 -6 7 -14c-17 -62 -68 -110 -134 -110z" />
    <glyph glyph-name="ohungarumlaut" unicode="&#x151;" horiz-adv-x="531" 
d="M46 197c0 151 111 275 247 275c100 0 176 -93 176 -207c0 -152 -112 -276 -245 -276c-100 0 -178 93 -178 208zM90 202c0 -96 57 -171 139 -171c101 0 196 102 196 230c0 94 -58 168 -139 168c-106 0 -196 -102 -196 -227zM355 518c-7 0 -9 5 -5 12l89 159
c3 7 8 11 14 11h23c11 0 14 -8 8 -17l-104 -157c-3 -6 -8 -8 -13 -8h-12zM206 518c-7 0 -9 5 -6 12l89 159c4 7 8 11 15 11h23c11 0 13 -8 7 -17l-103 -157c-4 -6 -9 -8 -13 -8h-12z" />
    <glyph glyph-name="oslash" unicode="&#xf8;" horiz-adv-x="531" 
d="M47 197c0 151 111 275 247 275c52 0 98 -26 130 -67l29 27c6 6 14 6 19 0l5 -5c6 -5 5 -14 -3 -21l-32 -29c18 -33 28 -71 28 -112c0 -152 -112 -276 -245 -276c-53 0 -99 25 -132 67l-21 -20c-6 -6 -14 -5 -19 1l-5 5c-6 6 -3 15 3 20l24 22c-18 32 -28 71 -28 113z
M91 202c0 -32 6 -62 17 -87l283 260c-25 33 -61 54 -104 54c-106 0 -196 -102 -196 -227zM426 261c0 31 -6 60 -18 84l-283 -260c25 -34 61 -54 105 -54c101 0 196 102 196 230z" />
    <glyph glyph-name="oslashacute" unicode="&#x1ff;" horiz-adv-x="531" 
d="M46 197c0 151 111 275 247 275c52 0 98 -26 130 -67l29 27c6 6 14 6 19 0l5 -5c6 -5 5 -14 -3 -21l-32 -29c18 -33 28 -71 28 -112c0 -152 -112 -276 -245 -276c-53 0 -99 25 -132 67l-21 -20c-6 -6 -14 -5 -19 1l-5 5c-6 6 -3 15 3 20l24 22c-18 32 -28 71 -28 113z
M90 202c0 -32 6 -62 17 -87l283 260c-25 33 -61 54 -104 54c-106 0 -196 -102 -196 -227zM425 261c0 31 -6 60 -18 84l-283 -260c25 -34 61 -54 105 -54c101 0 196 102 196 230zM257 559c-9 -4 -13 -3 -15 3l-4 11c-2 5 0 10 8 14l157 90c4 2 13 4 16 -3l9 -21
c2 -6 0 -12 -6 -15z" />
    <glyph glyph-name="oe" unicode="&#x153;" horiz-adv-x="829" 
d="M450 268c138 -21 290 -10 290 84c0 48 -43 77 -106 77c-81 0 -145 -51 -177 -94zM91 203c0 -93 56 -172 138 -172c83 0 145 61 166 107l20 196c-13 39 -58 95 -131 95c-102 0 -193 -102 -193 -226zM569 -11c-67 0 -139 49 -161 97c-46 -59 -108 -97 -186 -97
c-98 0 -175 93 -175 214c0 145 112 269 242 269c69 0 121 -38 152 -96c49 58 129 96 192 96c81 0 151 -39 151 -117c0 -184 -339 -127 -339 -127l-9 -107c21 -51 82 -90 142 -90c66 0 105 30 127 46c10 7 16 6 22 -4l7 -12c3 -5 4 -12 -3 -18c-16 -14 -83 -54 -162 -54z" />
    <glyph glyph-name="racute" unicode="&#x155;" horiz-adv-x="358" 
d="M58 0c-9 0 -12 7 -11 15l61 432c1 8 7 15 14 15h11c6 0 13 -4 12 -13l-3 -44c13 19 64 67 141 67c32 0 53 -8 62 -12c10 -5 14 -12 10 -21l-9 -18c-4 -9 -11 -11 -20 -5c-6 3 -26 13 -57 13c-64 0 -112 -53 -130 -81l-48 -333c-1 -10 -5 -15 -15 -15h-18zM157 559
c-9 -4 -13 -3 -15 3l-4 11c-2 5 0 10 8 14l157 90c4 2 13 4 16 -3l9 -21c2 -6 0 -12 -6 -15z" />
    <glyph glyph-name="rcaron" unicode="&#x159;" horiz-adv-x="358" 
d="M58 0c-9 0 -12 7 -11 15l61 432c1 8 7 15 14 15h11c6 0 13 -4 12 -13l-3 -44c13 19 64 67 141 67c32 0 53 -8 62 -12c10 -5 14 -12 10 -21l-9 -18c-4 -9 -11 -11 -20 -5c-6 3 -26 13 -57 13c-64 0 -112 -53 -130 -81l-48 -333c-1 -10 -5 -15 -15 -15h-18zM239 544
c-4 0 -6 2 -9 5l-96 98c-4 4 -7 9 -2 14l7 8c4 4 8 8 15 2l89 -81l113 84c9 6 12 2 15 -2l7 -11c3 -5 1 -10 -4 -14l-123 -98c-5 -4 -9 -5 -12 -5z" />
    <glyph glyph-name="rcommaaccent" unicode="&#x157;" horiz-adv-x="358" 
d="M58 0c-9 0 -12 7 -11 15l61 432c1 8 7 15 14 15h11c6 0 13 -4 12 -13l-3 -44c13 19 64 67 141 67c32 0 53 -8 62 -12c10 -5 14 -12 10 -21l-9 -18c-4 -9 -11 -11 -20 -5c-6 3 -26 13 -57 13c-64 0 -112 -53 -130 -81l-48 -333c-1 -10 -5 -15 -15 -15h-18zM7 -119
c0 24 21 43 47 43c31 0 48 -21 48 -57c0 -42 -20 -91 -57 -120c-5 -5 -8 -5 -12 -1l-10 10c-6 6 -2 10 3 14c21 18 38 49 38 76c0 6 -1 10 -3 14c-4 -4 -13 -7 -23 -7c-19 0 -31 12 -31 28z" />
    <glyph glyph-name="sacute" unicode="&#x15b;" horiz-adv-x="393" 
d="M162 -11c-61 0 -110 30 -133 51c-4 3 -7 10 -2 17l11 16c4 6 14 8 20 2c16 -14 49 -44 107 -44c66 0 113 41 113 93c0 45 -46 67 -105 96c-60 29 -106 60 -106 122c0 61 48 130 150 130c55 0 94 -21 113 -35c7 -5 8 -13 3 -21l-8 -12c-6 -8 -14 -9 -21 -4
c-8 6 -46 29 -90 29c-68 0 -103 -40 -103 -84c0 -39 38 -65 88 -89c67 -30 123 -63 123 -127c0 -82 -68 -140 -160 -140zM184 560c-9 -4 -13 -3 -15 3l-4 11c-2 5 0 10 8 14l157 90c4 2 13 4 16 -3l9 -21c2 -6 0 -12 -6 -15z" />
    <glyph glyph-name="scircumflex" unicode="&#x15d;" horiz-adv-x="393" 
d="M162 -11c-61 0 -110 30 -133 51c-4 3 -7 10 -2 17l11 16c4 6 14 8 20 2c16 -14 49 -44 107 -44c66 0 113 41 113 93c0 45 -46 67 -105 96c-60 29 -106 60 -106 122c0 61 48 130 150 130c55 0 94 -21 113 -35c7 -5 8 -13 3 -21l-8 -12c-6 -8 -14 -9 -21 -4
c-8 6 -46 29 -90 29c-68 0 -103 -40 -103 -84c0 -39 38 -65 88 -89c67 -30 123 -63 123 -127c0 -82 -68 -140 -160 -140zM115 553l-7 11c-3 5 -1 10 4 14l123 98c5 4 9 5 12 5c4 0 6 -2 9 -5l96 -98c4 -4 7 -9 2 -14l-7 -8c-4 -4 -8 -8 -15 -2l-89 81l-113 -84
c-9 -6 -12 -2 -15 2z" />
    <glyph glyph-name="scaron" unicode="&#x161;" horiz-adv-x="393" 
d="M162 -11c-61 0 -110 30 -133 51c-4 3 -7 10 -2 17l11 16c4 6 14 8 20 2c16 -14 49 -44 107 -44c66 0 113 41 113 93c0 45 -46 67 -105 96c-60 29 -106 60 -106 122c0 61 48 130 150 130c55 0 94 -21 113 -35c7 -5 8 -13 3 -21l-8 -12c-6 -8 -14 -9 -21 -4
c-8 6 -46 29 -90 29c-68 0 -103 -40 -103 -84c0 -39 38 -65 88 -89c67 -30 123 -63 123 -127c0 -82 -68 -140 -160 -140zM230 545c-4 0 -6 2 -9 5l-96 98c-4 4 -7 9 -2 14l7 8c4 4 8 8 15 2l89 -81l113 84c9 6 12 2 15 -2l7 -11c3 -5 1 -10 -4 -14l-123 -98
c-5 -4 -9 -5 -12 -5z" />
    <glyph glyph-name="scedilla" unicode="&#x15f;" horiz-adv-x="393" 
d="M322 129c0 -75 -57 -129 -136 -138l-44 -60c5 1 11 2 15 2c39 0 83 -19 83 -75c0 -53 -51 -94 -114 -94c-37 0 -65 15 -80 31c-4 5 -1 10 1 13l12 19c4 6 9 6 14 1c13 -13 27 -25 53 -25c27 0 70 15 70 54c0 26 -22 38 -53 38c-19 0 -38 -4 -51 -9c-7 -3 -16 9 -12 15
l63 89c-52 5 -94 31 -114 50c-4 3 -7 10 -2 17l11 16c4 6 14 8 20 2c16 -14 49 -44 107 -44c66 0 113 41 113 93c0 45 -46 67 -105 96c-60 29 -106 60 -106 122c0 61 48 130 150 130c55 0 94 -21 113 -35c7 -5 8 -13 3 -21l-8 -12c-6 -8 -14 -9 -21 -4c-8 6 -46 29 -90 29
c-68 0 -103 -40 -103 -84c0 -39 38 -65 88 -89c67 -30 123 -63 123 -127z" />
    <glyph glyph-name="scommaaccent" unicode="&#x219;" horiz-adv-x="393" 
d="M162 -11c-61 0 -110 30 -133 51c-4 3 -7 10 -2 17l11 16c4 6 14 8 20 2c16 -14 49 -44 107 -44c66 0 113 41 113 93c0 45 -46 67 -105 96c-60 29 -106 60 -106 122c0 61 48 130 150 130c55 0 94 -21 113 -35c7 -5 8 -13 3 -21l-8 -12c-6 -8 -14 -9 -21 -4
c-8 6 -46 29 -90 29c-68 0 -103 -40 -103 -84c0 -39 38 -65 88 -89c67 -30 123 -63 123 -127c0 -82 -68 -140 -160 -140zM91 -118c0 24 21 43 47 43c31 0 48 -21 48 -57c0 -42 -20 -91 -57 -120c-5 -5 -8 -5 -12 -1l-10 10c-6 6 -2 10 3 14c21 18 38 49 38 76
c0 6 -1 10 -3 14c-4 -4 -13 -7 -23 -7c-19 0 -31 12 -31 28z" />
    <glyph glyph-name="germandbls" unicode="&#xdf;" horiz-adv-x="556" 
d="M302 -11c-40 0 -76 11 -97 22c-8 4 -14 11 -9 22l5 12c3 7 11 13 20 8c20 -11 48 -22 88 -22c73 0 130 43 130 115c0 84 -120 145 -120 193c0 57 129 116 129 212c0 70 -42 116 -114 116c-106 0 -160 -77 -175 -193l-99 -697c-2 -11 -5 -15 -16 -15h-19
c-7 0 -11 8 -10 15l98 697c22 151 96 236 222 236c98 0 159 -68 159 -158c0 -113 -126 -172 -126 -208c0 -34 118 -100 118 -196c0 -103 -80 -159 -184 -159z" />
    <glyph glyph-name="tcaron" unicode="&#x165;" horiz-adv-x="340" 
d="M155 -11c-74 0 -87 56 -76 130l44 301h-54c-11 0 -12 6 -10 15l3 15c2 9 7 12 14 12h53l17 126c1 9 9 15 17 15l13 1c9 0 15 -7 13 -15l-17 -127h143c9 0 13 -7 12 -15l-2 -12c-1 -9 -8 -15 -16 -15h-143l-43 -301c-8 -60 -2 -88 40 -88c40 0 81 26 96 35
c10 7 13 2 17 -4l8 -12c5 -8 4 -13 -5 -19c-19 -12 -66 -42 -124 -42zM325 667c0 24 21 43 47 43c31 0 48 -21 48 -57c0 -42 -20 -91 -57 -120c-5 -5 -8 -5 -12 -1l-10 10c-6 6 -2 10 3 14c21 18 38 49 38 76c0 6 -1 10 -3 14c-4 -4 -13 -7 -23 -7c-19 0 -31 12 -31 28z" />
    <glyph glyph-name="tcommaaccent" unicode="&#x163;" horiz-adv-x="341" 
d="M281 31c-16 -10 -53 -33 -99 -40l-49 -62c8 3 16 4 27 4c38 0 70 -21 70 -70c0 -59 -47 -99 -109 -99c-37 0 -66 15 -81 31c-4 5 -2 10 1 13l11 14c5 6 9 5 13 1c11 -14 29 -23 55 -23c36 0 71 23 71 63c0 29 -22 43 -52 43c-19 0 -35 -4 -48 -9c-7 -3 -12 6 -8 12l58 81
c-60 8 -70 60 -60 129l44 301h-54c-11 0 -12 6 -10 15l3 15c2 9 7 12 14 12h53l17 126c1 9 9 15 17 15l13 1c9 0 15 -7 13 -15l-17 -127h143c9 0 13 -7 12 -15l-2 -12c-1 -9 -8 -15 -16 -15h-143l-43 -301c-8 -60 -2 -88 40 -88c40 0 81 26 96 35c10 7 13 2 17 -4l8 -12
c5 -8 4 -13 -5 -19z" />
    <glyph glyph-name="uni021B" unicode="&#x21b;" horiz-adv-x="340" 
d="M155 -11c-74 0 -87 56 -76 130l44 301h-54c-11 0 -12 6 -10 15l3 15c2 9 7 12 14 12h53l17 126c1 9 9 15 17 15l13 1c9 0 15 -7 13 -15l-17 -127h143c9 0 13 -7 12 -15l-2 -12c-1 -9 -8 -15 -16 -15h-143l-43 -301c-8 -60 -2 -88 40 -88c40 0 81 26 96 35
c10 7 13 2 17 -4l8 -12c5 -8 4 -13 -5 -19c-19 -12 -66 -42 -124 -42zM95 -119c0 24 21 43 47 43c31 0 48 -21 48 -57c0 -42 -20 -91 -57 -120c-5 -5 -8 -5 -12 -1l-10 10c-6 6 -2 10 3 14c21 18 38 49 38 76c0 6 -1 10 -3 14c-4 -4 -13 -7 -23 -7c-19 0 -31 12 -31 28z" />
    <glyph glyph-name="tbar" unicode="&#x167;" horiz-adv-x="340" 
d="M156 -11c-74 0 -87 56 -76 130l15 101h-34c-8 0 -12 6 -11 13l1 6c1 7 7 12 14 12h34l25 169h-54c-11 0 -12 6 -10 15l3 15c2 9 7 12 14 12h53l17 126c1 9 9 15 17 15l13 1c9 0 15 -7 13 -15l-17 -127h143c9 0 13 -7 12 -15l-2 -12c-1 -9 -8 -15 -16 -15h-143l-24 -169
h100c8 0 12 -6 11 -13l-1 -6c-1 -7 -6 -12 -14 -12h-101l-14 -101c-8 -60 -2 -88 40 -88c40 0 81 26 96 35c10 7 13 2 17 -4l8 -12c5 -8 4 -13 -5 -19c-19 -12 -66 -42 -124 -42z" />
    <glyph glyph-name="thorn" unicode="&#xfe;" horiz-adv-x="516" 
d="M93 37l-36 -260c-1 -7 -9 -15 -16 -15h-15c-8 0 -13 8 -11 15l126 909c1 9 10 14 18 14h13c7 0 14 -7 13 -14l-39 -267c13 11 65 53 141 53c103 0 166 -92 166 -210c0 -152 -102 -273 -243 -273c-68 0 -109 36 -117 48zM102 86c14 -19 52 -55 109 -55
c109 0 197 95 197 231c0 89 -49 167 -131 167c-72 0 -123 -49 -138 -68z" />
    <glyph glyph-name="ugrave" unicode="&#xf9;" horiz-adv-x="494" 
d="M190 -11c-110 0 -141 69 -124 191l38 267c1 8 8 15 15 15h16c8 0 14 -7 13 -15l-39 -267c-14 -107 11 -149 91 -149c85 0 136 76 140 82l47 334c1 10 6 15 16 15h16c7 0 13 -7 11 -15l-59 -432c-1 -8 -6 -15 -14 -15h-12c-8 0 -11 7 -11 14l2 42
c-12 -17 -63 -67 -146 -67zM324 560l-142 79c-5 3 -5 9 -1 15l12 19c4 7 12 7 17 3l132 -90c6 -4 6 -9 4 -14l-6 -9c-4 -5 -7 -7 -16 -3z" />
    <glyph glyph-name="uacute" unicode="&#xfa;" horiz-adv-x="494" 
d="M190 -11c-110 0 -141 69 -124 191l38 267c1 8 8 15 15 15h16c8 0 14 -7 13 -15l-39 -267c-14 -107 11 -149 91 -149c85 0 136 76 140 82l47 334c1 10 6 15 16 15h16c7 0 13 -7 11 -15l-59 -432c-1 -8 -6 -15 -14 -15h-12c-8 0 -11 7 -11 14l2 42
c-12 -17 -63 -67 -146 -67zM228 559c-9 -4 -13 -3 -15 3l-4 11c-2 5 0 10 8 14l157 90c4 2 13 4 16 -3l9 -21c2 -6 0 -12 -6 -15z" />
    <glyph glyph-name="ucircumflex" unicode="&#xfb;" horiz-adv-x="494" 
d="M190 -11c-110 0 -141 69 -124 191l38 267c1 8 8 15 15 15h16c8 0 14 -7 13 -15l-39 -267c-14 -107 11 -149 91 -149c85 0 136 76 140 82l47 334c1 10 6 15 16 15h16c7 0 13 -7 11 -15l-59 -432c-1 -8 -6 -15 -14 -15h-12c-8 0 -11 7 -11 14l2 42
c-12 -17 -63 -67 -146 -67zM157 552l-7 11c-3 5 -1 10 4 14l123 98c5 4 9 5 12 5c4 0 6 -2 9 -5l96 -98c4 -4 7 -9 2 -14l-7 -8c-4 -4 -8 -8 -15 -2l-89 81l-113 -84c-9 -6 -12 -2 -15 2z" />
    <glyph glyph-name="utilde" unicode="&#x169;" horiz-adv-x="494" 
d="M190 -11c-110 0 -141 69 -124 191l38 267c1 8 8 15 15 15h16c8 0 14 -7 13 -15l-39 -267c-14 -107 11 -149 91 -149c85 0 136 76 140 82l47 334c1 10 6 15 16 15h16c7 0 13 -7 11 -15l-59 -432c-1 -8 -6 -15 -14 -15h-12c-8 0 -11 7 -11 14l2 42
c-12 -17 -63 -67 -146 -67zM163 579l-11 5c-6 2 -7 8 -4 14c9 18 34 86 94 86c62 0 51 -91 91 -91c32 0 49 41 56 59c3 7 9 10 15 7l12 -4c3 -2 7 -5 4 -13s-29 -86 -93 -86c-60 0 -54 92 -91 92c-34 0 -52 -45 -59 -63c-2 -6 -8 -9 -14 -6z" />
    <glyph glyph-name="udieresis" unicode="&#xfc;" horiz-adv-x="494" 
d="M190 -11c-110 0 -141 69 -124 191l38 267c1 8 8 15 15 15h16c8 0 14 -7 13 -15l-39 -267c-14 -107 11 -149 91 -149c85 0 136 76 140 82l47 334c1 10 6 15 16 15h16c7 0 13 -7 11 -15l-59 -432c-1 -8 -6 -15 -14 -15h-12c-8 0 -11 7 -11 14l2 42
c-12 -17 -63 -67 -146 -67zM367 590c-20 0 -34 16 -34 35c0 25 20 45 43 45c21 0 36 -16 36 -36c0 -24 -21 -44 -45 -44zM195 590c-20 0 -35 16 -35 35c0 25 21 45 44 45c21 0 34 -16 34 -36c0 -24 -19 -44 -43 -44z" />
    <glyph glyph-name="umacron" unicode="&#x16b;" horiz-adv-x="494" 
d="M190 -11c-110 0 -141 69 -124 191l38 267c1 8 8 15 15 15h16c8 0 14 -7 13 -15l-39 -267c-14 -107 11 -149 91 -149c85 0 136 76 140 82l47 334c1 10 6 15 16 15h16c7 0 13 -7 11 -15l-59 -432c-1 -8 -6 -15 -14 -15h-12c-8 0 -11 7 -11 14l2 42
c-12 -17 -63 -67 -146 -67zM160 595c-8 0 -12 5 -11 12l2 13c1 7 6 13 14 13h242c7 0 12 -6 11 -13l-2 -13c-1 -7 -7 -12 -14 -12h-242z" />
    <glyph glyph-name="ubreve" unicode="&#x16d;" horiz-adv-x="494" 
d="M190 -11c-110 0 -141 69 -124 191l38 267c1 8 8 15 15 15h16c8 0 14 -7 13 -15l-39 -267c-14 -107 11 -149 91 -149c85 0 136 76 140 82l47 334c1 10 6 15 16 15h16c7 0 13 -7 11 -15l-59 -432c-1 -8 -6 -15 -14 -15h-12c-8 0 -11 7 -11 14l2 42
c-12 -17 -63 -67 -146 -67zM272 538c-57 0 -101 49 -103 110c0 8 4 14 12 14h11c7 0 9 -5 10 -11c4 -45 30 -79 73 -79c40 0 79 34 94 79c3 7 8 11 14 11h16c7 0 9 -6 7 -14c-17 -62 -68 -110 -134 -110z" />
    <glyph glyph-name="uring" unicode="&#x16f;" horiz-adv-x="494" 
d="M190 -11c-110 0 -141 69 -124 191l38 267c1 8 8 15 15 15h16c8 0 14 -7 13 -15l-39 -267c-14 -107 11 -149 91 -149c85 0 136 76 140 82l47 334c1 10 6 15 16 15h16c7 0 13 -7 11 -15l-59 -432c-1 -8 -6 -15 -14 -15h-12c-8 0 -11 7 -11 14l2 42
c-12 -17 -63 -67 -146 -67zM270 497c-49 0 -83 40 -83 91c0 68 49 122 113 122c48 0 82 -41 82 -92c0 -68 -48 -121 -112 -121zM275 529c42 0 73 39 73 84c0 34 -22 64 -52 64c-43 0 -76 -38 -76 -83c0 -35 23 -65 55 -65z" />
    <glyph glyph-name="uhungarumlaut" unicode="&#x171;" horiz-adv-x="494" 
d="M190 -11c-110 0 -141 69 -124 191l38 267c1 8 8 15 15 15h16c8 0 14 -7 13 -15l-39 -267c-14 -107 11 -149 91 -149c85 0 136 76 140 82l47 334c1 10 6 15 16 15h16c7 0 13 -7 11 -15l-59 -432c-1 -8 -6 -15 -14 -15h-12c-8 0 -11 7 -11 14l2 42
c-12 -17 -63 -67 -146 -67zM349 518c-7 0 -9 5 -5 12l89 159c3 7 8 11 14 11h23c11 0 14 -8 8 -17l-104 -157c-3 -6 -8 -8 -13 -8h-12zM200 518c-7 0 -9 5 -6 12l89 159c4 7 8 11 15 11h23c11 0 13 -8 7 -17l-103 -157c-4 -6 -9 -8 -13 -8h-12z" />
    <glyph glyph-name="uogonek" unicode="&#x173;" horiz-adv-x="494" 
d="M190 -11c-110 0 -139 82 -122 204l36 254c1 8 8 15 15 15h16c8 0 14 -7 13 -15l-37 -254c-14 -107 9 -162 89 -162c85 0 136 76 140 82l47 334c1 10 6 15 16 15h16c7 0 13 -7 11 -15l-59 -432c-1 -8 -5 -15 -12 -19c-55 -29 -133 -76 -133 -151c0 -29 19 -48 52 -48
c31 0 59 19 71 26c3 2 10 3 10 -4l-1 -19c0 -7 -2 -13 -12 -18c-14 -8 -44 -24 -77 -24c-54 0 -87 37 -87 83c0 80 71 133 152 173l2 42c-12 -17 -63 -67 -146 -67z" />
    <glyph glyph-name="wacute" unicode="&#x1e83;" horiz-adv-x="649" 
d="M130 0l-64 443c-2 11 2 19 11 19h20c6 0 12 -2 13 -11l47 -355h2l172 365c4 8 9 11 14 11h5c5 0 9 -3 11 -11l72 -365h1l145 355c4 9 11 11 17 11h23c11 0 12 -8 7 -19l-189 -443c-3 -7 -7 -11 -13 -11h-4c-5 0 -9 4 -10 11l-73 380h-1l-179 -380c-3 -7 -8 -11 -14 -11
h-5c-3 0 -7 4 -8 11zM313 559c-9 -4 -13 -3 -15 3l-4 11c-2 5 0 10 8 14l157 90c4 2 13 4 16 -3l9 -21c2 -6 0 -12 -6 -15z" />
    <glyph glyph-name="wcircumflex" unicode="&#x175;" horiz-adv-x="649" 
d="M130 0l-64 443c-2 11 2 19 11 19h20c6 0 12 -2 13 -11l47 -355h2l172 365c4 8 9 11 14 11h5c5 0 9 -3 11 -11l72 -365h1l145 355c4 9 11 11 17 11h23c11 0 12 -8 7 -19l-189 -443c-3 -7 -7 -11 -13 -11h-4c-5 0 -9 4 -10 11l-73 380h-1l-179 -380c-3 -7 -8 -11 -14 -11
h-5c-3 0 -7 4 -8 11zM244 552l-7 11c-3 5 -1 10 4 14l123 98c5 4 9 5 12 5c4 0 6 -2 9 -5l96 -98c4 -4 7 -9 2 -14l-7 -8c-4 -4 -8 -8 -15 -2l-89 81l-113 -84c-9 -6 -12 -2 -15 2z" />
    <glyph glyph-name="wdieresis" unicode="&#x1e85;" horiz-adv-x="649" 
d="M130 0l-64 443c-2 11 2 19 11 19h20c6 0 12 -2 13 -11l47 -355h2l172 365c4 8 9 11 14 11h5c5 0 9 -3 11 -11l72 -365h1l145 355c4 9 11 11 17 11h23c11 0 12 -8 7 -19l-189 -443c-3 -7 -7 -11 -13 -11h-4c-5 0 -9 4 -10 11l-73 380h-1l-179 -380c-3 -7 -8 -11 -14 -11
h-5c-3 0 -7 4 -8 11zM451 590c-20 0 -34 16 -34 35c0 25 20 45 43 45c21 0 36 -16 36 -36c0 -24 -21 -44 -45 -44zM279 590c-20 0 -35 16 -35 35c0 25 21 45 44 45c21 0 34 -16 34 -36c0 -24 -19 -44 -43 -44z" />
    <glyph glyph-name="wgrave" unicode="&#x1e81;" horiz-adv-x="649" 
d="M130 0l-64 443c-2 11 2 19 11 19h20c6 0 12 -2 13 -11l47 -355h2l172 365c4 8 9 11 14 11h5c5 0 9 -3 11 -11l72 -365h1l145 355c4 9 11 11 17 11h23c11 0 12 -8 7 -19l-189 -443c-3 -7 -7 -11 -13 -11h-4c-5 0 -9 4 -10 11l-73 380h-1l-179 -380c-3 -7 -8 -11 -14 -11
h-5c-3 0 -7 4 -8 11zM411 560l-142 79c-5 3 -5 9 -1 15l12 19c4 7 12 7 17 3l132 -90c6 -4 6 -9 4 -14l-6 -9c-4 -5 -7 -7 -16 -3z" />
    <glyph glyph-name="yacute" unicode="&#xfd;" horiz-adv-x="466" 
d="M170 3l-115 440c-3 10 1 19 11 19h21c6 0 11 -3 13 -11l98 -395h2l209 395c4 8 10 11 15 11h24c9 0 13 -9 7 -19l-359 -671c-3 -6 -9 -10 -16 -10h-21c-9 0 -13 6 -8 16zM220 559c-9 -4 -13 -3 -15 3l-4 11c-2 5 0 10 8 14l157 90c4 2 13 4 16 -3l9 -21
c2 -6 0 -12 -6 -15z" />
    <glyph glyph-name="ycircumflex" unicode="&#x177;" horiz-adv-x="466" 
d="M170 3l-115 440c-3 10 1 19 11 19h21c6 0 11 -3 13 -11l98 -395h2l209 395c4 8 10 11 15 11h24c9 0 13 -9 7 -19l-359 -671c-3 -6 -9 -10 -16 -10h-21c-9 0 -13 6 -8 16zM152 552l-7 11c-3 5 -1 10 4 14l123 98c5 4 9 5 12 5c4 0 6 -2 9 -5l96 -98c4 -4 7 -9 2 -14l-7 -8
c-4 -4 -8 -8 -15 -2l-89 81l-113 -84c-9 -6 -12 -2 -15 2z" />
    <glyph glyph-name="ydieresis" unicode="&#xff;" horiz-adv-x="466" 
d="M170 3l-115 440c-3 10 1 19 11 19h21c6 0 11 -3 13 -11l98 -395h2l209 395c4 8 10 11 15 11h24c9 0 13 -9 7 -19l-359 -671c-3 -6 -9 -10 -16 -10h-21c-9 0 -13 6 -8 16zM359 590c-20 0 -34 16 -34 35c0 25 20 45 43 45c21 0 36 -16 36 -36c0 -24 -21 -44 -45 -44z
M187 590c-20 0 -35 16 -35 35c0 25 21 45 44 45c21 0 34 -16 34 -36c0 -24 -19 -44 -43 -44z" />
    <glyph glyph-name="ygrave" unicode="&#x1ef3;" horiz-adv-x="466" 
d="M170 3l-115 440c-3 10 1 19 11 19h21c6 0 11 -3 13 -11l98 -395h2l209 395c4 8 10 11 15 11h24c9 0 13 -9 7 -19l-359 -671c-3 -6 -9 -10 -16 -10h-21c-9 0 -13 6 -8 16zM309 560l-142 79c-5 3 -5 9 -1 15l12 19c4 7 12 7 17 3l132 -90c6 -4 6 -9 4 -14l-6 -9
c-4 -5 -7 -7 -16 -3z" />
    <glyph glyph-name="zacute" unicode="&#x17a;" horiz-adv-x="392" 
d="M12 0c-10 0 -11 5 -11 13c0 10 4 14 8 20l297 386v1h-217c-7 0 -13 7 -11 14l3 13c3 11 6 15 14 15h268c8 0 14 -5 14 -11c0 -5 -2 -8 -4 -11l-304 -396v-2h219c8 0 14 -6 12 -15l-2 -12c-1 -8 -8 -15 -17 -15h-269zM190 559c-9 -4 -13 -3 -15 3l-4 11c-2 5 0 10 8 14
l157 90c4 2 13 4 16 -3l9 -21c2 -6 0 -12 -6 -15z" />
    <glyph glyph-name="zcaron" unicode="&#x17e;" horiz-adv-x="392" 
d="M12 0c-10 0 -11 5 -11 13c0 10 4 14 8 20l297 386v1h-217c-7 0 -13 7 -11 14l3 13c3 11 6 15 14 15h268c8 0 14 -5 14 -11c0 -5 -2 -8 -4 -11l-304 -396v-2h219c8 0 14 -6 12 -15l-2 -12c-1 -8 -8 -15 -17 -15h-269zM237 544c-4 0 -6 2 -9 5l-96 98c-4 4 -7 9 -2 14l7 8
c4 4 8 8 15 2l89 -81l113 84c9 6 12 2 15 -2l7 -11c3 -5 1 -10 -4 -14l-123 -98c-5 -4 -9 -5 -12 -5z" />
    <glyph glyph-name="zdotaccent" unicode="&#x17c;" horiz-adv-x="392" 
d="M12 0c-10 0 -11 5 -11 13c0 10 4 14 8 20l297 386v1h-217c-7 0 -13 7 -11 14l3 13c3 11 6 15 14 15h268c8 0 14 -5 14 -11c0 -5 -2 -8 -4 -11l-304 -396v-2h219c8 0 14 -6 12 -15l-2 -12c-1 -8 -8 -15 -17 -15h-269zM244 590c-20 0 -35 14 -35 33c0 24 22 44 46 44
c20 0 33 -14 33 -33c0 -24 -20 -44 -44 -44z" />
    <glyph glyph-name="IJ" unicode="&#x132;" horiz-adv-x="641" 
d="M64 13l94 674c1 7 6 13 15 13h22c7 0 12 -6 11 -13l-94 -674c-2 -8 -9 -13 -16 -13h-21c-7 0 -12 6 -11 13zM201 65c-3 6 -3 13 3 17l14 11c6 5 12 7 17 0c15 -22 43 -61 100 -61c72 0 133 42 150 161l70 494c1 8 7 13 15 13h21c7 0 12 -6 11 -13l-70 -493
c-20 -140 -93 -204 -201 -204c-79 0 -118 54 -130 75z" />
    <glyph glyph-name="ij" unicode="&#x133;" horiz-adv-x="415" 
d="M58 0c-9 0 -12 7 -11 15l61 432c1 8 9 15 18 15h14c8 0 13 -7 12 -15l-61 -432c-1 -10 -5 -15 -15 -15h-18zM149 590c-20 0 -35 14 -35 33c0 24 22 44 46 44c20 0 33 -14 33 -33c0 -24 -20 -44 -44 -44zM349 591c-20 0 -35 14 -35 33c0 24 22 44 46 44
c20 0 33 -14 33 -33c0 -24 -20 -44 -44 -44zM352 447l-72 -518c-16 -114 -62 -150 -140 -175c-13 -4 -19 -2 -22 8l-4 13c-3 8 1 19 13 22c54 13 96 43 107 123l74 527c1 8 9 15 18 15h14c7 0 14 -7 12 -15z" />
    <glyph glyph-name="grave.cap" horiz-adv-x="272" 
d="M241 783l-142 79c-5 3 -5 9 -1 15l12 19c4 7 11 7 17 3l132 -90c6 -4 6 -9 4 -14l-6 -9c-4 -5 -7 -7 -16 -3z" />
    <glyph glyph-name="acute" unicode="&#xb4;" horiz-adv-x="272" 
d="M106 559c-9 -4 -13 -3 -15 3l-4 11c-2 5 0 10 8 14l157 90c4 2 13 4 16 -3l9 -21c2 -6 0 -12 -6 -15z" />
    <glyph glyph-name="acute.cap" horiz-adv-x="272" 
d="M106 781c-9 -4 -13 -3 -15 3l-4 11c-2 5 0 10 8 14l157 90c4 2 13 4 16 -3l9 -21c2 -6 0 -12 -6 -15z" />
    <glyph glyph-name="circumflex" unicode="&#x2c6;" horiz-adv-x="336" 
d="M69 552l-7 11c-3 5 -1 10 4 14l123 98c5 4 9 5 12 5c4 0 6 -2 9 -5l96 -98c4 -4 7 -9 2 -14l-7 -8c-4 -4 -8 -8 -15 -2l-89 81l-113 -84c-9 -6 -12 -2 -15 2z" />
    <glyph glyph-name="circumflex.cap" horiz-adv-x="336" 
d="M92 768c-9 -6 -12 -2 -15 2l-7 11c-3 5 -1 10 4 14l123 98c5 4 9 5 12 5c4 0 6 -2 9 -5l96 -98c4 -4 7 -9 2 -14l-7 -8c-4 -4 -8 -8 -15 -2l-89 81z" />
    <glyph glyph-name="caron" unicode="&#x2c7;" horiz-adv-x="336" 
d="M171 544c-4 0 -6 2 -9 5l-96 98c-4 4 -7 9 -2 14l7 8c4 4 8 8 15 2l89 -81l113 84c9 6 12 2 15 -2l7 -11c3 -5 1 -10 -4 -14l-123 -98c-5 -4 -9 -5 -12 -5z" />
    <glyph glyph-name="caron.cap" horiz-adv-x="336" 
d="M195 762c-4 0 -6 2 -9 5l-96 98c-4 4 -7 9 -2 14l7 8c4 4 8 8 15 2l89 -81l113 84c9 6 12 2 15 -2l7 -11c3 -5 1 -10 -4 -14l-123 -98c-5 -4 -9 -5 -12 -5z" />
    <glyph glyph-name="caron.alt" horiz-adv-x="336" 
d="M139 668c0 24 21 43 47 43c31 0 48 -21 48 -57c0 -42 -20 -91 -57 -120c-5 -5 -8 -5 -12 -1l-10 10c-6 6 -2 10 3 14c21 18 38 49 38 76c0 6 -1 10 -3 14c-4 -4 -13 -7 -23 -7c-19 0 -31 12 -31 28z" />
    <glyph glyph-name="tilde" unicode="&#x2dc;" horiz-adv-x="342" 
d="M72 579l-11 5c-6 2 -7 8 -4 14c9 18 34 86 94 86c62 0 51 -91 91 -91c32 0 49 41 56 59c3 7 9 10 15 7l12 -4c3 -2 7 -5 4 -13s-29 -86 -93 -86c-60 0 -54 92 -91 92c-34 0 -52 -45 -59 -63c-2 -6 -8 -9 -14 -6z" />
    <glyph glyph-name="tilde.cap" horiz-adv-x="342" 
d="M84 799l-11 5c-6 2 -7 8 -4 14c9 18 34 86 94 86c62 0 51 -91 91 -91c32 0 49 41 56 59c3 7 9 10 15 7l12 -4c3 -2 7 -5 4 -13s-29 -86 -93 -86c-60 0 -54 92 -91 92c-34 0 -52 -45 -59 -63c-2 -6 -8 -9 -14 -6z" />
    <glyph glyph-name="dieresis" unicode="&#xa8;" horiz-adv-x="373" 
d="M311 590c-20 0 -34 16 -34 35c0 25 20 45 43 45c21 0 36 -16 36 -36c0 -24 -21 -44 -45 -44zM139 590c-20 0 -35 16 -35 35c0 25 21 45 44 45c21 0 34 -16 34 -36c0 -24 -19 -44 -43 -44z" />
    <glyph glyph-name="dieresis.cap" horiz-adv-x="427" 
d="M339 795c-19 0 -34 16 -34 35c0 25 21 45 44 45c20 0 35 -16 35 -36c0 -24 -21 -44 -45 -44zM151 795c-20 0 -34 16 -34 35c0 25 21 45 44 45c20 0 35 -16 35 -36c0 -24 -21 -44 -45 -44z" />
    <glyph glyph-name="macron" unicode="&#xaf;" horiz-adv-x="373" 
d="M50 595c-8 0 -12 5 -11 12l2 13c1 7 6 13 14 13h242c7 0 12 -6 11 -13l-2 -13c-1 -7 -7 -12 -14 -12h-242z" />
    <glyph glyph-name="macron.cap" horiz-adv-x="373" 
d="M102 831c-8 0 -12 6 -11 13l2 12c1 8 6 13 14 13h243c6 0 12 -5 10 -13l-1 -12c-1 -7 -8 -13 -15 -13h-242z" />
    <glyph glyph-name="uni02C9" unicode="&#x2c9;" horiz-adv-x="373" 
d="M89 595c-8 0 -12 5 -11 12l2 13c1 7 6 13 14 13h242c7 0 12 -6 11 -13l-2 -13c-1 -7 -7 -12 -14 -12h-242z" />
    <glyph glyph-name="breve" unicode="&#x2d8;" horiz-adv-x="311" 
d="M171 538c-57 0 -101 49 -103 110c0 8 4 14 12 14h11c7 0 9 -5 10 -11c4 -45 30 -79 73 -79c40 0 79 34 94 79c3 7 8 11 14 11h16c7 0 9 -6 7 -14c-17 -62 -68 -110 -134 -110z" />
    <glyph glyph-name="breve.cap" horiz-adv-x="311" 
d="M187 775c-58 0 -104 49 -103 111c0 7 3 14 11 14h11c7 0 9 -6 10 -12c6 -44 31 -78 74 -78c39 0 78 34 94 78c3 7 7 12 13 12h16c7 0 10 -7 8 -14c-19 -63 -69 -111 -134 -111z" />
    <glyph glyph-name="ring" unicode="&#x2da;" horiz-adv-x="261" 
d="M140 497c-49 0 -83 40 -83 91c0 68 49 122 113 122c48 0 82 -41 82 -92c0 -68 -48 -121 -112 -121zM145 529c42 0 73 39 73 84c0 34 -22 64 -52 64c-43 0 -76 -38 -76 -83c0 -35 23 -65 55 -65z" />
    <glyph glyph-name="ring.cap" horiz-adv-x="261" 
d="M157 754c-49 0 -83 40 -83 91c0 68 49 122 113 122c48 0 82 -41 82 -92c0 -68 -48 -121 -112 -121zM162 786c42 0 73 39 73 84c0 34 -22 64 -52 64c-43 0 -76 -38 -76 -83c0 -35 23 -65 55 -65z" />
    <glyph glyph-name="hungarumlaut" unicode="&#x2dd;" horiz-adv-x="353" 
d="M221 518c-7 0 -9 5 -5 12l89 159c3 7 8 11 14 11h23c11 0 14 -8 8 -17l-104 -157c-3 -6 -8 -8 -13 -8h-12zM72 518c-7 0 -9 5 -6 12l89 159c4 7 8 11 15 11h23c11 0 13 -8 7 -17l-103 -157c-4 -6 -9 -8 -13 -8h-12z" />
    <glyph glyph-name="hungarumlaut.cap" horiz-adv-x="353" 
d="M226 766c-7 0 -9 5 -5 12l89 159c3 7 8 11 15 11h22c11 0 14 -8 8 -17l-103 -157c-4 -6 -9 -8 -14 -8h-12zM77 766c-7 0 -9 5 -6 12l89 159c4 7 9 11 15 11h23c11 0 14 -8 8 -17l-104 -157c-3 -6 -9 -8 -13 -8h-12z" />
    <glyph glyph-name="dotaccent" unicode="&#x2d9;" horiz-adv-x="197" 
d="M120 581c-20 0 -35 14 -35 33c0 24 22 44 46 44c20 0 33 -14 33 -33c0 -24 -20 -44 -44 -44z" />
    <glyph glyph-name="dotaccent.cap" horiz-adv-x="197" 
d="M132 809c-20 0 -35 14 -35 33c0 24 22 44 46 44c20 0 33 -14 33 -33c0 -24 -20 -44 -44 -44z" />
    <glyph glyph-name="cedilla" unicode="&#xb8;" horiz-adv-x="247" 
d="M133 2l43 -2h-2l-51 -69c5 1 11 2 15 2c39 0 83 -19 83 -75c0 -53 -51 -94 -114 -94c-37 0 -65 15 -80 31c-4 5 -1 10 1 13l12 19c4 6 9 6 14 1c13 -13 27 -25 53 -25c27 0 70 15 70 54c0 26 -22 38 -53 38c-19 0 -38 -4 -51 -9c-7 -3 -16 9 -12 15z" />
    <glyph glyph-name="cedilla.cap" horiz-adv-x="247" 
d="M133 2l43 -2h-2l-51 -69c5 1 11 2 15 2c39 0 83 -19 83 -75c0 -53 -51 -94 -114 -94c-37 0 -65 15 -80 31c-4 5 -1 10 1 13l12 19c4 6 9 6 14 1c13 -13 27 -25 53 -25c27 0 70 15 70 54c0 26 -22 38 -53 38c-19 0 -38 -4 -51 -9c-7 -3 -16 9 -12 15z" />
    <glyph glyph-name="ogonek" unicode="&#x2db;" horiz-adv-x="276" 
d="M207 3c-57 -29 -139 -80 -139 -158c0 -29 19 -48 52 -48c31 0 59 19 71 26c3 2 10 3 10 -4l-1 -19c0 -7 -2 -13 -12 -18c-14 -8 -44 -24 -77 -24c-54 0 -87 37 -87 83c0 80 67 132 141 175z" />
    <glyph glyph-name="ogonek.cap" horiz-adv-x="276" 
d="M207 3c-57 -29 -139 -80 -139 -158c0 -29 19 -48 52 -48c31 0 59 19 71 26c3 2 10 3 10 -4l-1 -19c0 -7 -2 -13 -12 -18c-14 -8 -44 -24 -77 -24c-54 0 -87 37 -87 83c0 80 67 132 141 175z" />
    <glyph glyph-name="commaaccent" unicode="&#xf6c3;" horiz-adv-x="262" 
d="M124 -119c0 24 21 43 47 43c31 0 48 -21 48 -57c0 -42 -20 -91 -57 -120c-5 -5 -8 -5 -12 -1l-10 10c-6 6 -2 10 3 14c21 18 38 49 38 76c0 6 -1 10 -3 14c-4 -4 -13 -7 -23 -7c-19 0 -31 12 -31 28z" />
    <glyph glyph-name="commaaccent.alt" horiz-adv-x="262" 
d="M197 606c0 -24 -21 -43 -47 -43c-31 0 -48 21 -48 57c0 42 20 91 57 120c5 5 8 5 12 1l10 -10c6 -6 2 -10 -3 -14c-21 -18 -38 -49 -38 -76c0 -6 1 -10 3 -14c4 4 13 7 23 7c19 0 31 -12 31 -28z" />
    <glyph glyph-name="commaaccent.cap" horiz-adv-x="262" 
d="M124 -119c0 24 21 43 47 43c31 0 48 -21 48 -57c0 -42 -20 -91 -57 -120c-5 -5 -8 -5 -12 -1l-10 10c-6 6 -2 10 3 14c21 18 38 49 38 76c0 6 -1 10 -3 14c-4 -4 -13 -7 -23 -7c-19 0 -31 12 -31 28z" />
    <glyph glyph-name="ellipsis" unicode="&#x2026;" horiz-adv-x="555" 
d="M379 26c0 25 22 45 45 45c20 0 33 -16 33 -35c0 -24 -20 -46 -45 -46c-19 0 -33 17 -33 36zM203 26c0 25 22 45 45 45c20 0 33 -16 33 -35c0 -24 -20 -46 -44 -46c-20 0 -34 17 -34 36zM30 26c0 25 23 45 46 45c20 0 33 -16 33 -35c0 -24 -20 -46 -45 -46
c-19 0 -34 17 -34 36z" />
    <glyph glyph-name="uni00AD" unicode="&#xad;" horiz-adv-x="376" 
d="M80 231c-7 0 -11 6 -10 13l1 11c1 8 7 13 14 13h200c7 0 12 -5 11 -13l-1 -11c-1 -7 -6 -13 -15 -13h-200z" />
    <glyph glyph-name="exclamdown" unicode="&#xa1;" horiz-adv-x="228" 
d="M130 392c-20 0 -33 15 -33 35c0 25 20 45 44 45c20 0 34 -16 34 -35c0 -26 -22 -45 -45 -45zM84 181c2 6 8 12 14 12h8c7 0 12 -6 11 -12l-47 -406c-1 -11 -9 -13 -16 -13h-26c-7 0 -12 6 -11 13z" />
    <glyph glyph-name="questiondown" unicode="&#xbf;" horiz-adv-x="393" 
d="M220 392c-20 0 -35 15 -35 35c0 25 22 45 46 45c19 0 33 -16 33 -35c0 -26 -21 -45 -44 -45zM119 57c28 22 42 40 45 61l8 57c1 9 6 14 14 14h17c8 0 13 -4 12 -14l-8 -58c-5 -39 -30 -67 -64 -92c-53 -40 -115 -77 -115 -146c0 -41 29 -86 87 -86c78 0 122 54 132 69
c3 5 8 8 17 2l14 -10c10 -7 5 -13 1 -19c0 0 -51 -83 -169 -83c-81 0 -128 56 -128 120c0 98 89 148 137 185z" />
    <glyph glyph-name="quoteleft" unicode="&#x2018;" horiz-adv-x="219" 
d="M194 510c0 -25 -21 -46 -48 -46c-33 0 -51 35 -51 77c0 66 35 122 84 164c6 5 9 4 13 0l10 -10c6 -6 3 -9 -3 -15c-36 -30 -67 -73 -67 -124c0 -10 2 -19 5 -25c7 7 15 11 26 11c19 0 31 -14 31 -32z" />
    <glyph glyph-name="quoteright" unicode="&#x2019;" horiz-adv-x="218" 
d="M109 664c0 25 21 46 48 46c33 0 51 -35 51 -77c0 -66 -35 -122 -84 -164c-6 -5 -9 -4 -13 0l-10 10c-6 6 -3 9 3 15c36 30 67 73 67 124c0 10 -2 19 -5 25c-7 -7 -15 -11 -26 -11c-19 0 -31 14 -31 32z" />
    <glyph glyph-name="quotedblleft" unicode="&#x201c;" horiz-adv-x="380" 
d="M354 510c0 -25 -21 -46 -48 -46c-33 0 -51 35 -51 77c0 66 35 122 84 164c6 5 9 4 13 0l10 -10c6 -6 3 -9 -3 -15c-36 -30 -67 -73 -67 -124c0 -10 2 -19 5 -25c7 7 15 11 26 11c19 0 31 -14 31 -32zM194 510c0 -25 -21 -46 -48 -46c-33 0 -51 35 -51 77
c0 66 35 122 84 164c6 5 9 4 13 0l10 -10c6 -6 3 -9 -3 -15c-36 -30 -67 -73 -67 -124c0 -10 2 -19 5 -25c7 7 15 11 26 11c19 0 31 -14 31 -32z" />
    <glyph glyph-name="quotedblright" unicode="&#x201d;" horiz-adv-x="380" 
d="M109 664c0 25 21 46 48 46c33 0 51 -35 51 -77c0 -66 -35 -122 -84 -164c-6 -5 -9 -4 -13 0l-10 10c-6 6 -3 9 3 15c36 30 67 73 67 124c0 10 -2 19 -5 25c-7 -7 -15 -11 -26 -11c-19 0 -31 14 -31 32zM271 664c0 25 21 46 48 46c33 0 51 -35 51 -77
c0 -66 -35 -122 -84 -164c-6 -5 -9 -4 -13 0l-10 10c-6 6 -3 9 3 15c36 30 67 73 67 124c0 10 -2 19 -5 25c-7 -7 -15 -11 -26 -11c-19 0 -31 14 -31 32z" />
    <glyph glyph-name="quotesinglbase" unicode="&#x201a;" horiz-adv-x="223" 
d="M30 25c0 25 21 46 48 46c33 0 51 -35 51 -77c0 -66 -35 -122 -84 -164c-6 -5 -9 -4 -13 0l-10 10c-6 6 -3 9 3 15c36 30 67 73 67 124c0 10 -2 19 -5 25c-7 -7 -15 -11 -26 -11c-19 0 -31 14 -31 32z" />
    <glyph glyph-name="quotedblbase" unicode="&#x201e;" horiz-adv-x="385" 
d="M30 25c0 25 21 46 48 46c33 0 51 -35 51 -77c0 -66 -35 -122 -84 -164c-6 -5 -9 -4 -13 0l-10 10c-6 6 -3 9 3 15c36 30 67 73 67 124c0 10 -2 19 -5 25c-7 -7 -15 -11 -26 -11c-19 0 -31 14 -31 32zM192 25c0 25 21 46 48 46c33 0 51 -35 51 -77
c0 -66 -35 -122 -84 -164c-6 -5 -9 -4 -13 0l-10 10c-6 6 -3 9 3 15c36 30 67 73 67 124c0 10 -2 19 -5 25c-7 -7 -15 -11 -26 -11c-19 0 -31 14 -31 32z" />
    <glyph glyph-name="guilsinglleft" unicode="&#x2039;" horiz-adv-x="254" 
d="M121 72l-73 157c-2 5 -1 12 3 17l116 154c6 8 11 9 17 9h16c8 0 10 -8 3 -18l-103 -153l59 -157c4 -10 0 -18 -7 -18h-17c-5 0 -10 1 -14 9z" />
    <glyph glyph-name="guilsinglright" unicode="&#x203a;" horiz-adv-x="254" 
d="M38 63c-8 0 -9 7 -2 18l103 157l-60 153c-4 10 0 18 8 18h16c6 0 10 -1 14 -9l73 -154c3 -5 2 -11 -2 -17l-117 -157c-6 -8 -10 -9 -17 -9h-16z" />
    <glyph glyph-name="guillemotleft" unicode="&#xab;" horiz-adv-x="398" 
d="M265 72l-73 157c-2 5 -1 12 3 17l116 154c6 8 11 9 17 9h16c8 0 10 -8 3 -18l-103 -153l59 -157c4 -10 0 -18 -7 -18h-17c-5 0 -10 1 -14 9zM121 72l-73 157c-2 5 -1 12 3 17l116 154c6 8 11 9 17 9h16c8 0 10 -8 3 -18l-103 -153l59 -157c4 -10 0 -18 -7 -18h-17
c-5 0 -10 1 -14 9z" />
    <glyph glyph-name="guillemotright" unicode="&#xbb;" horiz-adv-x="398" 
d="M182 63c-8 0 -9 7 -2 18l103 157l-60 153c-4 10 0 18 8 18h16c6 0 10 -1 14 -9l73 -154c3 -5 2 -11 -2 -17l-117 -157c-6 -8 -10 -9 -17 -9h-16zM38 63c-8 0 -9 7 -2 18l103 157l-60 153c-4 10 0 18 8 18h16c6 0 10 -1 14 -9l73 -154c3 -5 2 -11 -2 -17l-117 -157
c-6 -8 -10 -9 -17 -9h-16z" />
    <glyph glyph-name="endash" unicode="&#x2013;" horiz-adv-x="513" 
d="M77 233c-7 0 -12 5 -11 12l1 8c1 7 8 13 15 13h343c8 0 12 -6 11 -13l-1 -8c-1 -7 -7 -12 -15 -12h-343z" />
    <glyph glyph-name="emdash" unicode="&#x2014;" horiz-adv-x="709" 
d="M77 233c-7 0 -12 5 -11 12l1 8c1 7 8 13 15 13h539c8 0 12 -6 11 -13l-1 -8c-1 -7 -6 -12 -14 -12h-540z" />
    <glyph glyph-name="bullet" unicode="&#x2022;" horiz-adv-x="326" 
d="M147 184c-34 0 -60 28 -60 62c0 46 39 83 81 83c36 0 62 -29 62 -65c0 -44 -39 -80 -83 -80z" />
    <glyph glyph-name="periodcentered" unicode="&#xb7;" horiz-adv-x="227" 
d="M105 221c-20 0 -35 16 -35 35c0 26 23 45 46 45c20 0 33 -15 33 -35c0 -25 -20 -45 -44 -45z" />
    <glyph glyph-name="uni2219" unicode="&#x2219;" horiz-adv-x="227" 
d="M105 221c-20 0 -35 16 -35 35c0 26 23 45 46 45c20 0 33 -15 33 -35c0 -25 -20 -45 -44 -45z" />
    <glyph glyph-name="dagger" unicode="&#x2020;" horiz-adv-x="517" 
d="M169 -227l74 585h-184c-9 0 -12 6 -11 15l2 14c1 7 8 13 14 13h183l41 287c1 7 7 13 15 13h27c7 0 12 -6 11 -13l-40 -287h184c7 0 11 -6 10 -13l-2 -16c-1 -7 -7 -13 -13 -13h-186l-92 -585c-1 -6 -7 -11 -14 -11h-8c-9 0 -12 5 -11 11z" />
    <glyph glyph-name="daggerdbl" unicode="&#x2021;" horiz-adv-x="542" 
d="M37 14l2 15c1 7 7 13 14 13h160l46 358h-183c-7 0 -11 6 -10 14l2 15c1 7 8 13 14 13h183l35 245c1 7 7 13 15 13h27c7 0 12 -6 11 -13l-35 -245h185c12 0 10 -13 9 -22l-1 -7c-1 -7 -7 -13 -14 -13h-184l-56 -358h163c7 0 11 -6 10 -13l-2 -16c-1 -7 -7 -13 -14 -13
h-164l-36 -227c-1 -9 -10 -11 -18 -11h-4c-9 0 -12 5 -11 11l27 227h-161c-7 0 -12 6 -10 14z" />
    <glyph glyph-name="section" unicode="&#xa7;" horiz-adv-x="536" 
d="M42 -114c6 6 13 8 19 1c6 -9 62 -75 148 -75c75 0 160 53 160 139c0 70 -55 111 -146 147c-86 34 -146 82 -146 168c0 80 63 126 80 143c-8 13 -44 52 -44 112c0 79 62 189 219 189c86 0 147 -51 147 -51c4 -2 10 -10 1 -20l-12 -15c-5 -6 -11 -10 -20 -4
c-5 3 -57 48 -122 48c-119 0 -167 -82 -167 -146c0 -65 49 -106 123 -134c104 -40 174 -84 174 -172c0 -78 -71 -129 -86 -145c10 -13 48 -54 48 -117c0 -107 -102 -184 -216 -184c-100 0 -165 67 -175 79c-4 5 -10 11 0 21zM244 143c33 -13 64 -29 93 -49
c12 13 68 50 68 113c0 68 -55 102 -147 139c-27 11 -57 25 -74 38c-15 -14 -60 -46 -60 -111c0 -67 48 -100 120 -130z" />
    <glyph glyph-name="paragraph" unicode="&#xb6;" horiz-adv-x="658" 
d="M210 -225l71 508h-65c-96 0 -150 80 -150 173c0 107 81 244 209 244h385c7 0 11 -6 10 -13l-2 -12c-1 -8 -7 -13 -14 -13h-91l-124 -887c-1 -7 -7 -13 -14 -13h-15c-5 0 -10 4 -9 13l124 887h-153l-124 -887c-1 -7 -7 -13 -13 -13h-15c-6 0 -11 4 -10 13z" />
    <glyph glyph-name="brokenbar.case" horiz-adv-x="209" 
d="M127 460c-7 0 -12 6 -11 13l48 345c2 8 8 13 15 13h6c6 0 11 -5 9 -13l-48 -345c-1 -7 -8 -13 -15 -13h-4zM77 192c1 7 7 13 14 13h6c7 0 11 -6 10 -13l-49 -346c-1 -7 -7 -12 -14 -12h-5c-7 0 -12 5 -11 12z" />
    <glyph glyph-name="copyright" unicode="&#xa9;" horiz-adv-x="795" 
d="M78 302c0 223 178 408 379 408c156 0 278 -142 278 -313c0 -224 -179 -407 -379 -407c-157 0 -278 140 -278 312zM117 307c0 -153 102 -278 244 -278c173 0 334 164 334 364c0 152 -102 277 -244 277c-172 0 -334 -163 -334 -363zM241 323c0 119 91 215 200 215
c36 0 73 -11 99 -38c5 -5 5 -13 -1 -19l-11 -11c-6 -7 -12 -5 -17 -1c-20 21 -48 29 -75 29c-80 0 -150 -77 -150 -170c0 -70 43 -127 109 -127c27 0 55 10 82 31c8 5 14 6 18 -2l8 -12c3 -6 2 -12 -4 -17c-34 -31 -72 -43 -112 -43c-80 0 -146 74 -146 165z" />
    <glyph glyph-name="registered" unicode="&#xae;" horiz-adv-x="795" 
d="M78 302c0 223 178 408 379 408c156 0 278 -142 278 -313c0 -224 -179 -407 -379 -407c-157 0 -278 140 -278 312zM117 307c0 -153 102 -278 244 -278c173 0 334 164 334 364c0 152 -102 277 -244 277c-172 0 -334 -163 -334 -363zM267 180l48 343c1 7 7 13 14 13h131
c48 0 99 -31 99 -96c0 -84 -57 -120 -100 -129l43 -128c3 -7 -1 -15 -10 -15h-21c-6 0 -10 4 -12 10l-40 130h-94l-18 -128c-1 -8 -5 -13 -14 -13h-16c-7 0 -11 6 -10 13zM330 345h103c43 0 85 33 85 91c0 47 -33 64 -76 64h-90z" />
    <glyph glyph-name="trademark" unicode="&#x2122;" horiz-adv-x="701" 
d="M319 394c-8 0 -10 7 -7 15l102 291c3 7 4 10 11 10h7c4 0 7 -2 8 -10l39 -241h1l111 241c4 8 6 10 10 10h7c7 0 8 -3 9 -10l20 -291c1 -8 -2 -15 -11 -15h-14c-6 0 -9 3 -10 10l-12 217h-1l-104 -224c-3 -6 -5 -8 -9 -8h-9c-4 0 -6 2 -7 8l-41 224h-1l-73 -217
c-2 -7 -6 -10 -11 -10h-15zM183 394c-5 0 -10 5 -9 13l37 260h-77c-7 0 -10 7 -9 15l1 6c1 7 7 12 13 12h188c6 0 10 -6 9 -13l-1 -7c-1 -8 -7 -13 -13 -13h-76l-37 -260c-1 -7 -6 -13 -13 -13h-13z" />
    <glyph glyph-name="currency" unicode="&#xa4;" horiz-adv-x="467" 
d="M82 162l-9 10c-5 6 -1 15 2 18l55 53c-25 46 -15 112 22 157l-40 52c-3 4 -3 12 4 18l11 11c7 6 14 6 17 2l39 -53c48 36 104 34 141 -1l55 53c3 3 12 4 17 -3l7 -9c5 -7 3 -15 -2 -19l-54 -51c25 -46 16 -111 -21 -156l38 -51c4 -6 3 -12 -4 -19l-12 -11
c-7 -6 -13 -5 -16 -1l-39 51c-46 -34 -105 -35 -141 0l-51 -51c-5 -5 -14 -5 -19 0zM171 253c28 -36 78 -37 116 0s49 99 21 136c-28 38 -78 37 -116 0c-39 -37 -50 -99 -21 -136z" />
    <glyph glyph-name="Euro" unicode="&#x20ac;" 
d="M470 377h-328c-6 -30 -10 -66 -10 -87h287c8 0 11 -6 10 -13l-1 -7c-1 -7 -6 -11 -13 -11h-283c3 -129 69 -224 203 -224c71 0 122 32 168 65c7 5 13 6 17 2l14 -19c5 -6 3 -13 -2 -17c-61 -48 -128 -76 -197 -76c-159 0 -250 106 -253 269h-49c-8 0 -12 5 -11 12l1 7
c1 7 7 12 14 12h45c1 19 4 49 10 87h-43c-7 0 -11 5 -10 12l1 9c1 7 7 11 14 11h45c41 160 149 301 326 301c74 0 133 -19 186 -71c5 -5 4 -14 -1 -19l-12 -13c-6 -7 -15 -6 -20 -1c-40 42 -96 59 -154 59c-135 0 -236 -102 -274 -256h325c9 0 12 -8 11 -15l-1 -6
c-1 -7 -7 -11 -15 -11z" />
    <glyph glyph-name="cent" unicode="&#xa2;" horiz-adv-x="524" 
d="M174 5c-64 31 -107 105 -107 191c0 159 116 276 254 276c12 0 22 0 32 -2l18 47c3 7 7 11 15 10l9 -3c7 -2 11 -8 7 -18l-17 -44c43 -15 70 -46 80 -61c4 -7 1 -14 -6 -21l-13 -11c-11 -11 -15 -4 -22 3c-5 6 -26 31 -59 43l-139 -375c10 -2 22 -3 33 -3
c75 0 119 54 136 67c8 9 15 8 22 2l10 -9c6 -5 8 -13 3 -19c-23 -29 -92 -89 -176 -89c-18 0 -32 2 -48 7l-39 -106c-3 -8 -9 -10 -17 -9l-8 1c-8 1 -11 10 -8 17zM193 54l139 369c-4 1 -11 2 -17 2c-101 0 -195 -96 -195 -221c0 -68 28 -126 73 -150z" />
    <glyph glyph-name="sterling" unicode="&#xa3;" 
d="M106 23c38 72 66 153 71 198c4 34 4 58 4 81h-39c-8 0 -11 6 -10 14l1 7c1 6 7 10 14 10h31c-1 31 -8 80 -8 125c0 164 96 252 216 252c79 0 135 -50 146 -73c3 -7 4 -13 -6 -22l-9 -9c-5 -5 -14 -7 -21 2c-4 8 -46 60 -118 60c-84 0 -164 -75 -164 -208
c0 -46 7 -97 8 -127h176c9 0 12 -7 11 -14l-1 -7c-1 -7 -7 -10 -14 -10h-169c1 -24 -2 -54 -6 -81c-9 -59 -25 -117 -57 -180h261c11 0 12 -5 11 -14l-2 -15c-1 -6 -6 -12 -13 -12h-304c-13 0 -10 14 -9 23z" />
    <glyph glyph-name="florin" unicode="&#x192;" horiz-adv-x="335" 
d="M69 -73l60 434h-74c-9 0 -12 7 -11 13l2 13c1 7 7 13 14 13h75l19 137c17 118 78 173 161 173c45 0 84 -25 94 -43c4 -6 3 -12 0 -16l-12 -14c-5 -6 -12 -7 -17 -1c-11 14 -40 34 -71 34c-54 0 -98 -41 -111 -133l-19 -137h128c7 0 12 -5 11 -12l-3 -15
c-1 -7 -5 -12 -14 -12h-128l-61 -434c-16 -118 -77 -175 -160 -175c-45 0 -84 25 -95 43c-4 6 -3 12 1 16l12 14c4 6 11 7 16 1c11 -14 40 -34 71 -34c55 0 99 43 112 135z" />
    <glyph glyph-name="yen" unicode="&#xa5;" 
d="M120 139c-7 0 -11 5 -10 12l1 8c1 7 5 11 13 11h132l13 88h-132c-7 0 -11 5 -10 12l1 8c1 7 5 11 13 11h132l7 51l-179 345c-5 8 0 15 10 15h28c5 0 10 -2 12 -6l155 -309l246 309c3 4 8 6 13 6h38c10 0 13 -7 6 -15l-282 -344l-7 -52h132c8 0 11 -6 10 -13l-1 -7
c-1 -7 -7 -11 -14 -11h-131l-13 -88h132c8 0 11 -6 10 -13l-1 -6c-1 -7 -6 -12 -13 -12h-132l-18 -126c-1 -7 -8 -13 -14 -13h-23c-7 0 -11 6 -10 13l18 126h-132z" />
    <glyph glyph-name="ordfeminine" unicode="&#xaa;" horiz-adv-x="330" 
d="M155 403c-43 0 -72 32 -72 82c0 66 48 113 124 113c27 0 54 -8 59 -11c9 63 7 91 -39 91c-42 0 -72 -17 -80 -20c-12 -4 -14 10 -14 17c0 6 5 11 9 13c5 3 38 22 92 22c78 0 74 -59 64 -136l-22 -154c-1 -6 -6 -10 -11 -10h-11c-6 0 -8 3 -8 8v23
c-19 -16 -51 -38 -91 -38zM162 434c37 0 73 25 88 43l11 83c-9 4 -31 11 -60 11c-49 0 -86 -34 -86 -80c0 -34 18 -57 47 -57z" />
    <glyph glyph-name="ordmasculine" unicode="&#xba;" horiz-adv-x="338" 
d="M183 394c-59 0 -91 43 -91 117c0 122 61 199 136 199c59 0 91 -43 91 -116c0 -122 -58 -200 -136 -200zM188 427c55 0 95 63 95 165c0 54 -20 86 -60 86c-54 0 -95 -65 -95 -167c0 -53 20 -84 60 -84z" />
    <glyph glyph-name="onesuperior" unicode="&#xb9;" horiz-adv-x="172" 
d="M122 504c-5 0 -7 3 -6 8l34 239l-47 -26c-4 -2 -7 -1 -8 2l-4 13c-1 4 -1 7 4 11l76 49h11c4 0 9 -2 8 -8l-39 -280c-1 -5 -5 -8 -8 -8h-21z" />
    <glyph glyph-name="twosuperior" unicode="&#xb2;" horiz-adv-x="267" 
d="M124 743l-12 12c-3 3 -2 6 1 10c0 0 36 45 91 45c53 0 83 -35 83 -77c0 -37 -22 -73 -53 -101l-107 -97h125c4 0 7 -2 6 -8l-2 -15c0 -4 -3 -8 -8 -8h-173c-6 0 -7 4 -7 8l1 9l141 130c20 18 42 45 42 75c0 26 -16 51 -55 51c-33 0 -55 -26 -63 -34c-4 -4 -7 -4 -10 0z
" />
    <glyph glyph-name="threesuperior" unicode="&#xb3;" horiz-adv-x="277" 
d="M131 649l2 12c0 5 4 8 8 8h41c36 0 71 33 71 63c0 28 -20 46 -52 46c-39 0 -62 -25 -68 -30c-2 -3 -7 -4 -9 -1l-10 11c-3 4 -2 8 1 11c0 0 36 41 93 41c43 0 82 -27 82 -71c0 -35 -25 -66 -58 -83c0 0 45 -16 45 -64c0 -58 -57 -98 -116 -98c-56 0 -80 31 -88 41
c-3 3 -3 7 2 11l11 11c4 4 9 4 11 0c7 -7 22 -32 68 -32c36 0 76 26 76 65c0 27 -19 49 -63 49h-41c-5 0 -7 5 -6 10z" />
    <glyph glyph-name="fraction" unicode="&#x2044;" horiz-adv-x="140" 
d="M-118 10c-7 -10 -13 -10 -17 -10h-17c-8 0 -11 6 -6 14l435 679c4 7 10 7 14 7h18c8 0 11 -6 6 -14z" />
    <glyph glyph-name="uni2215" unicode="&#x2215;" horiz-adv-x="407" 
d="M17 10c-7 -10 -13 -10 -17 -10h-17c-8 0 -11 6 -6 14l435 679c4 7 10 7 14 7h18c8 0 11 -6 6 -14z" />
    <glyph glyph-name="onehalf" unicode="&#xbd;" horiz-adv-x="614" 
d="M44 14l435 679c4 7 10 7 14 7h18c8 0 11 -6 6 -14l-433 -676c-7 -10 -13 -10 -17 -10h-17c-8 0 -11 6 -6 14zM136 404c-5 0 -7 3 -6 8l34 239l-47 -26c-4 -2 -7 -1 -8 2l-4 13c-1 4 -1 7 4 11l76 49h11c4 0 9 -2 8 -8l-39 -280c-1 -5 -5 -8 -8 -8h-21zM387 239l-12 12
c-3 3 -2 6 1 10c0 0 36 45 91 45c53 0 83 -35 83 -77c0 -37 -22 -73 -53 -101l-107 -97h125c4 0 7 -2 6 -8l-2 -15c0 -4 -3 -8 -8 -8h-173c-6 0 -7 4 -7 8l1 9l141 130c20 18 42 45 42 75c0 26 -16 51 -55 51c-33 0 -55 -26 -63 -34c-4 -4 -7 -4 -10 0z" />
    <glyph glyph-name="onethird" unicode="&#x2153;" horiz-adv-x="620" 
d="M44 14l435 679c4 7 10 7 14 7h18c8 0 11 -6 6 -14l-433 -676c-7 -10 -13 -10 -17 -10h-17c-8 0 -11 6 -6 14zM136 404c-5 0 -7 3 -6 8l34 239l-47 -26c-4 -2 -7 -1 -8 2l-4 13c-1 4 -1 7 4 11l76 49h11c4 0 9 -2 8 -8l-39 -280c-1 -5 -5 -8 -8 -8h-21zM391 145l2 12
c0 5 4 8 8 8h41c36 0 71 33 71 63c0 28 -20 46 -52 46c-39 0 -62 -25 -68 -30c-2 -3 -7 -4 -9 -1l-10 11c-3 4 -2 8 1 11c0 0 36 41 93 41c43 0 82 -27 82 -71c0 -35 -25 -66 -58 -83c0 0 45 -16 45 -64c0 -58 -57 -98 -116 -98c-56 0 -80 31 -88 41c-3 3 -3 7 2 11l11 11
c4 4 9 4 11 0c7 -7 22 -32 68 -32c36 0 76 26 76 65c0 27 -19 49 -63 49h-41c-5 0 -7 5 -6 10z" />
    <glyph glyph-name="onequarter" unicode="&#xbc;" horiz-adv-x="611" 
d="M44 14l435 679c4 7 10 7 14 7h18c8 0 11 -6 6 -14l-433 -676c-7 -10 -13 -10 -17 -10h-17c-8 0 -11 6 -6 14zM136 404c-5 0 -7 3 -6 8l34 239l-47 -26c-4 -2 -7 -1 -8 2l-4 13c-1 4 -1 7 4 11l76 49h11c4 0 9 -2 8 -8l-39 -280c-1 -5 -5 -8 -8 -8h-21zM299 78l1 9
l199 209h13c4 0 9 -4 8 -9l-26 -185h35c4 0 8 -3 7 -8l-2 -16c-1 -5 -5 -8 -9 -8h-35l-9 -61c-1 -5 -6 -9 -10 -9h-19c-4 0 -9 4 -8 9l8 60h-147c-4 0 -7 4 -6 9zM358 103h99l18 126z" />
    <glyph glyph-name="oneeighth" unicode="&#x215b;" horiz-adv-x="624" 
d="M44 14l435 679c4 7 10 7 14 7h18c8 0 11 -6 6 -14l-433 -676c-7 -10 -13 -10 -17 -10h-17c-8 0 -11 6 -6 14zM136 404c-5 0 -7 3 -6 8l34 239l-47 -26c-4 -2 -7 -1 -8 2l-4 13c-1 4 -1 7 4 11l76 49h11c4 0 9 -2 8 -8l-39 -280c-1 -5 -5 -8 -8 -8h-21zM338 76
c8 52 52 72 60 75v2c-21 11 -35 39 -31 71c7 51 49 82 105 82c50 0 88 -31 81 -82c-4 -32 -28 -60 -52 -71v-2c7 -3 47 -23 39 -75c-7 -49 -48 -86 -113 -86c-57 0 -96 37 -89 86zM404 220c-5 -34 11 -52 48 -55c37 3 59 21 64 55c4 33 -14 54 -49 54s-59 -21 -63 -54z
M376 78c-5 -33 15 -57 56 -57c40 0 67 24 72 57c3 27 -8 54 -56 57c-51 -3 -69 -30 -72 -57z" />
    <glyph glyph-name="twothirds" unicode="&#x2154;" horiz-adv-x="683" 
d="M107 14l435 679c4 7 10 7 14 7h18c8 0 11 -6 6 -14l-433 -676c-7 -10 -13 -10 -17 -10h-17c-8 0 -11 6 -6 14zM130 643l-12 12c-3 3 -2 6 1 10c0 0 36 45 91 45c53 0 83 -35 83 -77c0 -37 -22 -73 -53 -101l-107 -97h125c4 0 7 -2 6 -8l-2 -15c0 -4 -3 -8 -8 -8h-173
c-6 0 -7 4 -7 8l1 9l141 130c20 18 42 45 42 75c0 26 -16 51 -55 51c-33 0 -55 -26 -63 -34c-4 -4 -7 -4 -10 0zM454 145l2 12c0 5 4 8 8 8h41c36 0 71 33 71 63c0 28 -20 46 -52 46c-39 0 -62 -25 -68 -30c-2 -3 -7 -4 -9 -1l-10 11c-3 4 -2 8 1 11c0 0 36 41 93 41
c43 0 82 -27 82 -71c0 -35 -25 -66 -58 -83c0 0 45 -16 45 -64c0 -58 -57 -98 -116 -98c-56 0 -80 31 -88 41c-3 3 -3 7 2 11l11 11c4 4 9 4 11 0c7 -7 22 -32 68 -32c36 0 76 26 76 65c0 27 -19 49 -63 49h-41c-5 0 -7 5 -6 10z" />
    <glyph glyph-name="threequarters" unicode="&#xbe;" horiz-adv-x="683" 
d="M116 14l435 679c4 7 10 7 14 7h18c8 0 11 -6 6 -14l-433 -676c-7 -10 -13 -10 -17 -10h-17c-8 0 -11 6 -6 14zM371 78l1 9l199 209h13c4 0 9 -4 8 -9l-26 -185h35c4 0 8 -3 7 -8l-2 -16c-1 -5 -5 -8 -9 -8h-35l-9 -61c-1 -5 -6 -9 -10 -9h-19c-4 0 -9 4 -8 9l8 60h-147
c-4 0 -7 4 -6 9zM430 103h99l18 126zM135 549l2 12c0 5 4 8 8 8h41c36 0 71 33 71 63c0 28 -20 46 -52 46c-39 0 -62 -25 -68 -30c-2 -3 -7 -4 -9 -1l-10 11c-3 4 -2 8 1 11c0 0 36 41 93 41c43 0 82 -27 82 -71c0 -35 -25 -66 -58 -83c0 0 45 -16 45 -64
c0 -58 -57 -98 -116 -98c-56 0 -80 31 -88 41c-3 3 -3 7 2 11l11 11c4 4 9 4 11 0c7 -7 22 -32 68 -32c36 0 76 26 76 65c0 27 -19 49 -63 49h-41c-5 0 -7 5 -6 10z" />
    <glyph glyph-name="threeeighths" unicode="&#x215c;" horiz-adv-x="696" 
d="M116 14l435 679c4 7 10 7 14 7h18c8 0 11 -6 6 -14l-433 -676c-7 -10 -13 -10 -17 -10h-17c-8 0 -11 6 -6 14zM499 -10c-53 0 -90 31 -90 75c0 39 26 71 61 86v2c-19 10 -32 33 -32 60c0 57 47 93 106 93c46 0 82 -26 82 -70c0 -37 -26 -70 -53 -83v-2
c6 -3 40 -20 40 -62c0 -55 -44 -99 -114 -99zM539 274c-35 0 -64 -26 -64 -66c0 -26 16 -40 49 -43c39 3 64 24 64 64c0 28 -17 45 -49 45zM504 21c42 0 72 28 72 65c0 24 -13 46 -56 49c-36 -3 -73 -22 -73 -67c0 -28 20 -47 57 -47zM135 549l2 12c0 5 4 8 8 8h41
c36 0 71 33 71 63c0 28 -20 46 -52 46c-39 0 -62 -25 -68 -30c-2 -3 -7 -4 -9 -1l-10 11c-3 4 -2 8 1 11c0 0 36 41 93 41c43 0 82 -27 82 -71c0 -35 -25 -66 -58 -83c0 0 45 -16 45 -64c0 -58 -57 -98 -116 -98c-56 0 -80 31 -88 41c-3 3 -3 7 2 11l11 11c4 4 9 4 11 0
c7 -7 22 -32 68 -32c36 0 76 26 76 65c0 27 -19 49 -63 49h-41c-5 0 -7 5 -6 10z" />
    <glyph glyph-name="fiveeighths" unicode="&#x215d;" horiz-adv-x="694" 
d="M114 14l435 679c4 7 10 7 14 7h18c8 0 11 -6 6 -14l-433 -676c-7 -10 -13 -10 -17 -10h-17c-8 0 -11 6 -6 14zM163 394c-45 0 -74 25 -84 38c-5 7 -3 9 2 15l10 11c3 4 8 4 11 0c2 -3 23 -33 66 -33c40 0 80 36 80 82c0 30 -19 51 -54 51h-70c-10 0 -13 6 -12 15l17 118
c0 5 5 9 9 9h133c5 0 8 -4 7 -9l-3 -17c-1 -4 -4 -8 -9 -8h-108l-10 -75h50c55 0 88 -28 88 -77c0 -68 -53 -120 -123 -120zM497 -10c-53 0 -90 31 -90 75c0 39 26 71 61 86v2c-19 10 -32 33 -32 60c0 57 47 93 106 93c46 0 82 -26 82 -70c0 -37 -26 -70 -53 -83v-2
c6 -3 40 -20 40 -62c0 -55 -44 -99 -114 -99zM537 274c-35 0 -64 -26 -64 -66c0 -26 16 -40 49 -43c39 3 64 24 64 64c0 28 -17 45 -49 45zM502 21c42 0 72 28 72 65c0 24 -13 46 -56 49c-36 -3 -73 -22 -73 -67c0 -28 20 -47 57 -47z" />
    <glyph glyph-name="seveneighths" unicode="&#x215e;" horiz-adv-x="667" 
d="M87 14l435 679c4 7 10 7 14 7h18c8 0 11 -6 6 -14l-433 -676c-7 -10 -13 -10 -17 -10h-17c-8 0 -11 6 -6 14zM104 404c-6 0 -13 1 -11 14l156 248h-141c-5 0 -8 4 -7 9l2 16c1 5 4 9 9 9h177c5 0 8 -4 7 -9l-2 -16l-162 -262c-4 -7 -7 -9 -13 -9h-15zM471 -10
c-53 0 -90 31 -90 75c0 39 26 71 61 86v2c-19 10 -32 33 -32 60c0 57 47 93 106 93c46 0 82 -26 82 -70c0 -37 -26 -70 -53 -83v-2c6 -3 40 -20 40 -62c0 -55 -44 -99 -114 -99zM511 274c-35 0 -64 -26 -64 -66c0 -26 16 -40 49 -43c39 3 64 24 64 64c0 28 -17 45 -49 45z
M476 21c42 0 72 28 72 65c0 24 -13 46 -56 49c-36 -3 -73 -22 -73 -67c0 -28 20 -47 57 -47z" />
    <glyph glyph-name="perthousand" unicode="&#x2030;" horiz-adv-x="904" 
d="M197 434c-60 0 -106 53 -106 119c0 87 64 157 145 157c58 0 105 -53 105 -119c0 -87 -65 -157 -144 -157zM82 14l435 679c4 7 10 7 14 7h18c8 0 11 -6 6 -14l-433 -676c-7 -10 -13 -10 -17 -10h-17c-8 0 -11 6 -6 14zM202 471c51 0 101 51 101 114c0 48 -31 87 -73 87
c-53 0 -103 -52 -103 -114c0 -48 31 -87 75 -87zM594 109c0 87 64 157 145 157c58 0 105 -53 105 -119c0 -87 -65 -157 -144 -157c-60 0 -106 53 -106 119zM310 109c0 87 64 157 145 157c58 0 105 -53 105 -119c0 -87 -65 -157 -144 -157c-60 0 -106 53 -106 119zM630 114
c0 -48 31 -87 75 -87c51 0 101 51 101 114c0 48 -31 87 -73 87c-53 0 -103 -52 -103 -114zM346 114c0 -48 31 -87 75 -87c51 0 101 51 101 114c0 48 -31 87 -73 87c-53 0 -103 -52 -103 -114z" />
    <glyph glyph-name="minus" unicode="&#x2212;" 
d="M132 327c-7 0 -12 6 -11 13l2 16c1 7 8 13 14 13h346c7 0 11 -6 10 -13l-2 -16c-1 -7 -7 -13 -14 -13h-345z" />
    <glyph glyph-name="plusminus" unicode="&#xb1;" 
d="M288 243c-7 0 -11 6 -10 13l18 126h-152c-6 0 -12 6 -11 13l3 15c1 7 7 13 13 13h152l24 168c1 7 7 12 14 12h19c6 0 11 -5 10 -12l-24 -168h152c6 0 10 -6 9 -13l-3 -15c-1 -7 -5 -13 -11 -13h-152l-18 -126c-1 -7 -8 -13 -14 -13h-19zM100 74c-6 0 -11 6 -10 13l2 15
c1 7 8 13 14 13h347c6 0 9 -6 8 -13l-2 -15c-1 -7 -6 -13 -12 -13h-347z" />
    <glyph glyph-name="multiply" unicode="&#xd7;" 
d="M162 196l-13 13c-5 5 -3 13 3 18l125 122l-89 120c-4 5 -3 15 2 19l11 9c5 5 14 5 18 0l90 -120l125 123c5 5 13 4 18 -1l12 -13c4 -4 3 -13 -2 -18l-126 -123l90 -120c4 -5 2 -14 -3 -18l-12 -9c-5 -4 -12 -6 -16 -1l-91 121l-126 -122c-5 -4 -12 -4 -16 0z" />
    <glyph glyph-name="divide" unicode="&#xf7;" 
d="M321 463c-19 0 -34 17 -34 36c0 25 23 45 46 45c20 0 33 -16 33 -35c0 -24 -20 -46 -45 -46zM133 327c-7 0 -12 6 -11 13l2 16c1 7 8 13 14 13h346c7 0 11 -6 10 -13l-2 -16c-1 -7 -7 -13 -14 -13h-345zM243 185c0 25 23 45 46 45c20 0 33 -16 33 -35
c0 -24 -20 -46 -45 -46c-19 0 -34 17 -34 36z" />
    <glyph glyph-name="notequal" unicode="&#x2260;" 
d="M177 70c-6 3 -8 10 -4 16l42 72h-75c-9 0 -12 5 -11 14l2 16c1 7 7 13 15 13h96l99 165h-172c-9 0 -12 6 -10 15l2 15c1 7 6 13 14 13h192l43 71c4 7 11 10 17 7l7 -4c5 -3 5 -10 1 -16l-34 -58h55c7 0 12 -6 11 -13l-2 -17c-1 -7 -8 -13 -15 -13h-76l-98 -165h151
c9 0 12 -7 10 -16l-2 -14c-1 -7 -7 -13 -14 -13h-173l-50 -85c-4 -7 -10 -9 -15 -6z" />
    <glyph glyph-name="approxequal" unicode="&#x2248;" 
d="M157 332l-10 7c-6 4 -6 14 0 24c8 13 42 82 105 82c36 0 58 -28 67 -38c9 -11 29 -32 49 -32c35 0 56 40 65 57c5 9 14 8 21 4l13 -8c6 -4 3 -13 -1 -22c-7 -15 -47 -77 -104 -77s-71 70 -114 70c-34 0 -58 -38 -67 -55c-5 -9 -15 -19 -24 -12zM148 164l-10 7
c-6 4 -6 14 0 24c8 13 42 82 105 82c36 0 58 -28 67 -38c9 -11 29 -32 49 -32c35 0 56 40 65 57c5 9 14 8 21 4l13 -8c6 -4 3 -13 -1 -22c-7 -15 -47 -77 -104 -77s-71 70 -114 70c-34 0 -58 -38 -67 -55c-5 -9 -15 -19 -24 -12z" />
    <glyph glyph-name="lessequal" unicode="&#x2264;" 
d="M134 382c-8 5 -8 10 -7 17v1c1 5 2 10 11 15l376 199c8 4 12 1 11 -10l-3 -24c-1 -4 -2 -11 -9 -15l-332 -169l285 -166c6 -4 5 -11 5 -15l-3 -18c-2 -11 -7 -14 -14 -10zM93 74c-6 0 -11 6 -10 13l2 15c1 7 8 13 14 13h347c6 0 9 -6 8 -13l-2 -15c-1 -7 -6 -13 -12 -13
h-347z" />
    <glyph glyph-name="greaterequal" unicode="&#x2265;" 
d="M122 187c-7 -4 -12 -1 -10 10l3 23c0 4 1 11 9 15l331 166l-284 169c-7 4 -6 11 -5 15l3 19c1 11 7 14 13 10l320 -199c7 -5 8 -10 7 -15v-1c-1 -7 -3 -12 -11 -17zM104 74c-6 0 -9 6 -8 13l2 15c1 7 6 13 12 13h347c6 0 11 -6 10 -13l-2 -15c-1 -7 -8 -13 -14 -13h-347z
" />
    <glyph glyph-name="logicalnot" unicode="&#xac;" horiz-adv-x="553" 
d="M105 327c-7 0 -11 6 -10 13l2 16c1 7 7 13 14 13h346c6 0 10 -6 9 -13l-28 -201c-1 -7 -7 -12 -14 -12h-14c-6 0 -11 5 -10 12l24 172h-319z" />
    <glyph glyph-name="Delta" unicode="&#x2206;" horiz-adv-x="643" 
d="M18 0c-23 0 -18 18 -8 37l360 666c2 4 8 7 12 7h3c4 0 9 -1 11 -7l171 -668c3 -13 6 -35 -21 -35h-528zM64 42h452l-140 584h-2z" />
    <glyph glyph-name="uni0394" unicode="&#x394;" horiz-adv-x="643" 
d="M18 0c-23 0 -18 18 -8 37l361 666c2 4 8 7 12 7h3c4 0 9 -1 11 -7l170 -668c3 -13 6 -35 -21 -35h-528zM64 42h452l-139 584h-2z" />
    <glyph glyph-name="Omega" unicode="&#x2126;" horiz-adv-x="771" 
d="M49 13l3 15c1 7 6 13 13 13h129c-86 61 -142 174 -123 308c28 200 189 361 374 361c175 0 302 -161 274 -361c-19 -134 -98 -247 -206 -308h124c6 0 12 -6 11 -13l-3 -15c-1 -7 -7 -13 -13 -13h-213c-6 0 -11 6 -10 13l3 15c1 7 6 11 12 13c128 34 229 160 250 308
c24 175 -78 317 -235 317c-158 0 -299 -142 -323 -317c-21 -148 44 -274 162 -308c6 -2 11 -6 10 -13l-3 -15c-1 -7 -6 -13 -12 -13h-213c-7 0 -12 6 -11 13z" />
    <glyph glyph-name="uni03A9" unicode="&#x3a9;" horiz-adv-x="771" 
d="M49 13l3 15c1 7 6 13 13 13h129c-86 61 -142 174 -123 308c28 200 189 361 374 361c175 0 302 -161 274 -361c-19 -134 -98 -247 -206 -308h124c6 0 12 -6 11 -13l-3 -15c-1 -7 -7 -13 -13 -13h-213c-6 0 -11 6 -10 13l3 15c1 7 6 11 12 13c128 34 229 160 250 308
c24 175 -78 317 -235 317c-158 0 -299 -142 -323 -317c-21 -148 44 -274 162 -308c6 -2 11 -6 10 -13l-3 -15c-1 -7 -6 -13 -12 -13h-213c-7 0 -12 6 -11 13z" />
    <glyph glyph-name="mu" unicode="&#xb5;" horiz-adv-x="500" 
d="M206 -11c-50 0 -83 17 -103 46l-37 -258c-1 -10 -6 -15 -16 -15h-13c-9 0 -12 7 -11 15l94 670c1 8 8 15 15 15h16c8 0 14 -7 13 -15l-37 -254c-16 -107 9 -162 89 -162c85 0 136 76 140 82l47 334c1 10 6 15 16 15h16c7 0 13 -7 11 -15l-59 -432c-1 -8 -6 -15 -14 -15
h-12c-8 0 -11 7 -11 14l2 42c-12 -17 -63 -67 -146 -67z" />
    <glyph glyph-name="uni03BC" unicode="&#x3bc;" horiz-adv-x="500" 
d="M206 -11c-50 0 -83 17 -103 46l-37 -258c-1 -10 -6 -15 -16 -15h-13c-9 0 -12 7 -11 15l94 670c1 8 8 15 15 15h16c8 0 14 -7 13 -15l-37 -254c-16 -107 9 -162 89 -162c85 0 136 76 140 82l47 334c1 10 6 15 16 15h16c7 0 13 -7 11 -15l-59 -432c-1 -8 -6 -15 -14 -15
h-12c-8 0 -11 7 -11 14l2 42c-12 -17 -63 -67 -146 -67z" />
    <glyph glyph-name="pi" unicode="&#x3c0;" horiz-adv-x="606" 
d="M111 15l58 404h-111c-9 0 -12 8 -11 15l1 13c1 8 8 15 16 15h527c8 0 13 -5 12 -14l-2 -16c-1 -7 -7 -13 -15 -13h-112l-58 -404c-1 -10 -8 -15 -17 -15h-16c-7 0 -12 7 -11 15l58 404h-215l-58 -404c-1 -10 -11 -15 -18 -15h-16c-8 0 -13 7 -12 15z" />
    <glyph glyph-name="degree" unicode="&#xb0;" horiz-adv-x="355" 
d="M198 435c-63 0 -106 53 -106 119c0 87 68 156 144 156c61 0 106 -52 106 -119c0 -86 -71 -156 -144 -156zM203 470c50 0 103 53 103 116c0 48 -33 88 -75 88c-52 0 -105 -52 -105 -114c0 -49 33 -90 77 -90z" />
    <glyph glyph-name="afii61289" unicode="&#x2113;" horiz-adv-x="435" 
d="M181 -10c-88 0 -111 75 -99 155c4 29 11 54 19 81c-20 -7 -40 -12 -51 -14c-9 -1 -12 0 -14 8l-1 12c-1 12 5 18 14 19c22 4 46 9 66 16l31 99c69 218 141 344 229 344c54 0 87 -50 76 -128c-25 -176 -164 -286 -306 -341c-9 -27 -18 -60 -23 -94c-8 -59 -1 -117 65 -117
c88 0 146 42 153 46c8 5 13 4 15 -2l4 -13c2 -7 4 -9 -5 -17c-5 -4 -73 -54 -173 -54zM159 281c120 53 231 153 252 301c8 54 -4 88 -42 88c-69 0 -122 -116 -185 -310z" />
    <glyph glyph-name="estimated" unicode="&#x212e;" horiz-adv-x="778" 
d="M149 154c37 -80 120 -126 212 -126c70 0 145 32 211 88c5 5 14 8 18 0l5 -9c4 -8 2 -12 -4 -18c-72 -66 -150 -99 -235 -99c-178 0 -305 156 -277 359c29 203 190 361 378 361c177 0 304 -156 278 -359c-2 -14 -10 -21 -19 -21h-543zM178 366h464l25 177
c-42 81 -116 129 -215 129c-98 0 -186 -47 -249 -127z" />
    <glyph glyph-name="eng" unicode="&#x14b;" horiz-adv-x="506" 
d="M59 0c-9 0 -12 7 -11 15l61 432c1 8 5 15 14 15h10c8 0 13 -4 13 -12l-3 -46c20 18 71 68 155 68c111 0 142 -81 124 -206l-47 -337c-16 -114 -62 -150 -140 -175c-13 -4 -19 -2 -22 8l-4 13c-3 8 1 19 13 22c54 13 96 43 107 123l49 346c15 107 -8 163 -89 163
c-84 0 -139 -65 -149 -77l-48 -337c-1 -10 -7 -15 -17 -15h-16z" />
    <glyph glyph-name="Eng" unicode="&#x14a;" horiz-adv-x="710" 
d="M64 13l96 684c2 8 8 13 16 13h5c7 0 11 -3 15 -9l338 -612h1l83 598c1 7 8 13 15 13h20c7 0 12 -6 11 -13l-106 -758c-16 -114 -62 -150 -140 -175c-13 -4 -19 -2 -22 8l-4 13c-3 8 1 19 13 22c54 13 96 43 107 123l12 90l-330 603h-1l-84 -600c-2 -13 -15 -13 -25 -13
h-9c-7 0 -12 6 -11 13z" />
    <glyph glyph-name="infinity" unicode="&#x221e;" horiz-adv-x="618" 
d="M183 158c-58 0 -106 52 -106 119c0 85 67 158 145 158c46 0 81 -31 97 -73c28 42 68 73 119 73c56 0 105 -52 105 -119c0 -85 -67 -158 -144 -158c-44 0 -83 31 -99 72c-28 -41 -66 -72 -117 -72zM330 296c-1 -6 -1 -11 -1 -16c0 -48 29 -84 75 -84c54 0 99 54 99 118
c0 46 -28 82 -71 82c-51 0 -94 -45 -102 -100zM188 196c54 0 102 53 102 117c0 47 -30 83 -74 83c-54 0 -101 -54 -101 -116c0 -48 28 -84 73 -84z" />
    <glyph glyph-name="partialdiff" unicode="&#x2202;" horiz-adv-x="553" 
d="M43 184c0 157 125 269 238 269c89 0 146 -56 158 -79h1c-5 186 -171 288 -220 309c-9 3 -13 13 -7 22l9 14c2 4 7 9 15 6c71 -32 250 -137 250 -362c0 -176 -92 -373 -267 -373c-102 0 -177 82 -177 194zM88 191c0 -91 59 -160 138 -160c120 0 210 156 208 276
c-1 4 -48 103 -156 103c-92 0 -190 -98 -190 -219z" />
    <glyph glyph-name="integral" unicode="&#x222b;" horiz-adv-x="470" 
d="M163 -73l85 610c17 118 78 173 161 173c45 0 84 -25 94 -43c4 -6 3 -12 0 -16l-12 -14c-5 -6 -12 -7 -17 -1c-11 14 -40 34 -71 34c-54 0 -98 -41 -111 -133l-86 -610c-16 -118 -77 -175 -160 -175c-45 0 -84 25 -95 43c-4 6 -3 12 1 16l12 14c4 6 11 7 16 1
c11 -14 40 -34 71 -34c55 0 99 43 112 135z" />
    <glyph glyph-name="radical" unicode="&#x221a;" horiz-adv-x="609" 
d="M152 -1l-97 388c-1 8 1 13 9 13h26c5 0 9 -4 9 -7l76 -315h2l327 613c2 5 6 9 13 9h120c7 0 11 -6 10 -13l-3 -15c-1 -7 -5 -13 -12 -13h-96l-358 -660c-3 -5 -7 -9 -12 -9h-5c-5 0 -9 6 -9 9z" />
    <glyph glyph-name="summation" unicode="&#x2211;" horiz-adv-x="503" 
d="M13 13l1 9l340 341l-248 314l2 10c1 7 8 13 14 13h361c6 0 11 -6 10 -13l-3 -17c-1 -7 -7 -13 -13 -13h-294l211 -272c4 -5 11 -13 10 -20l-2 -11c-1 -7 -10 -15 -15 -20l-291 -292h294c6 0 11 -6 10 -13l-2 -16c-1 -7 -8 -13 -14 -13h-361c-6 0 -11 6 -10 13z" />
    <glyph glyph-name="product" unicode="&#x220f;" horiz-adv-x="716" 
d="M75 13l95 674c1 7 8 13 14 13h465c7 0 11 -6 10 -13l-95 -674c-1 -7 -7 -13 -14 -13h-24c-6 0 -10 6 -9 13l91 645h-395l-91 -645c-1 -7 -6 -13 -13 -13h-24c-6 0 -11 6 -10 13z" />
    <glyph glyph-name="lozenge" unicode="&#x25ca;" horiz-adv-x="570" 
d="M233 -4l-150 307c-16 30 -17 35 -15 54c3 20 8 25 30 54l234 292c2 4 8 7 12 7h3c4 0 9 -1 10 -7l149 -290c13 -26 18 -33 14 -56c-3 -21 -10 -29 -29 -56l-233 -305c-3 -6 -8 -7 -12 -7h-3c-4 0 -8 3 -10 7zM249 53h2l231 304l-142 289h-2l-231 -289z" />
    <glyph glyph-name="uniF8FF" unicode="&#xf8ff;" horiz-adv-x="599" 
d="M50 30v640c0 21 9 30 30 30h439c21 0 30 -9 30 -30v-640c0 -21 -9 -30 -30 -30h-439c-21 0 -30 9 -30 30zM262 314c0 -7 7 -12 14 -12h36c9 0 15 4 15 13v26c0 48 105 63 105 150c0 65 -54 111 -125 111c-87 0 -130 -61 -130 -61c-4 -6 -6 -13 0 -18l22 -22
c6 -4 11 -4 17 0c13 12 36 41 84 41c40 0 61 -25 61 -52c0 -63 -99 -72 -99 -147v-29zM245 156c0 -26 22 -48 48 -48c27 0 49 22 49 48s-22 48 -49 48c-26 0 -48 -22 -48 -48z" />
    <glyph glyph-name="zero.tf" 
d="M258 -10c-133 0 -195 92 -195 250c0 177 64 470 296 470c133 0 195 -91 195 -250c0 -186 -65 -470 -296 -470zM264 33c195 0 244 267 244 424c0 135 -49 210 -155 210c-197 0 -245 -268 -245 -426c0 -134 49 -208 156 -208z" />
    <glyph glyph-name="one.tf" 
d="M353 631h-2l-184 -119c-6 -4 -12 -4 -15 1l-10 17c-3 6 -3 12 3 16l227 149c5 3 11 5 18 5h5c8 0 15 -4 14 -12l-91 -650h176c7 0 12 -5 11 -13l-2 -12c-1 -7 -8 -13 -15 -13h-417c-7 0 -11 6 -10 13l2 12c1 8 7 13 14 13h193z" />
    <glyph glyph-name="two.tf" 
d="M121 44v-2h336c7 0 12 -6 11 -13l-3 -16c-1 -7 -7 -13 -14 -13h-398c-8 0 -14 6 -13 12l1 9c1 7 4 12 9 17l299 267c62 55 145 131 145 225c0 70 -47 135 -153 135c-94 0 -151 -66 -166 -84c-6 -8 -14 -8 -21 -3l-14 11c-5 4 -5 12 1 19c27 33 102 102 204 102
c131 0 197 -80 197 -174c0 -108 -79 -187 -161 -260z" />
    <glyph glyph-name="three.tf" 
d="M287 336h-97c-11 0 -14 3 -13 13l3 19c1 8 6 12 17 12h96c89 0 190 55 190 162c0 75 -59 124 -139 124c-98 0 -158 -61 -174 -77c-5 -5 -12 -7 -17 -2l-15 14c-6 6 -5 11 1 17c23 23 95 92 207 92c108 0 187 -68 187 -163c0 -91 -62 -156 -144 -188v-3
c59 -18 114 -76 114 -150c0 -131 -116 -216 -254 -216c-116 0 -185 64 -204 91c-5 7 -3 14 2 18l16 13c8 6 13 4 18 -3c19 -25 75 -78 171 -78c94 0 202 61 202 174c0 87 -82 131 -167 131z" />
    <glyph glyph-name="four.tf" 
d="M39 161c-12 0 -16 4 -15 12l1 11c1 7 3 12 8 18l442 500c5 6 10 8 17 8h7c5 0 9 -2 8 -13l-69 -495h77c7 0 12 -5 11 -13l-2 -15c-1 -7 -8 -13 -14 -13h-78l-21 -148c-1 -7 -5 -13 -14 -13h-21c-11 0 -11 7 -10 14l21 147h-348zM88 204v-2h306l61 417h-2z" />
    <glyph glyph-name="five.tf" 
d="M165 441h148c141 0 214 -67 214 -178c0 -148 -117 -273 -274 -273c-109 0 -165 55 -189 86c-8 11 -7 14 2 23l13 13c6 6 13 5 17 -2c14 -22 59 -78 160 -78c124 0 222 97 222 226c0 86 -55 140 -171 140h-171c-13 0 -19 11 -17 21l38 268c1 7 6 13 15 13h323
c7 0 13 -6 12 -13l-3 -16c-1 -8 -8 -14 -15 -14h-294z" />
    <glyph glyph-name="six.tf" 
d="M71 218c0 235 179 427 401 500c7 2 13 -1 15 -7l5 -19c2 -8 -2 -15 -15 -19c-86 -26 -277 -125 -336 -305c19 21 94 84 200 84s194 -75 194 -192c0 -137 -110 -270 -258 -270c-138 0 -206 96 -206 228zM126 307c-5 -25 -10 -50 -10 -83c0 -105 49 -193 162 -193
s211 103 211 223c0 93 -66 156 -155 156c-123 0 -204 -99 -208 -103z" />
    <glyph glyph-name="seven.tf" 
d="M518 654v3h-377c-11 0 -13 6 -12 15l2 15c1 9 9 13 16 13h426c10 0 13 -4 13 -10s-2 -9 -7 -17l-390 -657c-8 -13 -11 -16 -23 -16h-26c-11 0 -9 10 -5 16z" />
    <glyph glyph-name="eight.tf" 
d="M52 154c0 102 81 177 182 204v2c-63 19 -115 71 -115 142c0 111 90 208 234 208c125 0 194 -74 194 -163c0 -96 -77 -164 -161 -187v-2c72 -17 132 -83 132 -153c0 -140 -117 -216 -259 -216c-124 0 -207 61 -207 165zM313 383c109 11 187 69 187 160
c0 71 -53 127 -149 127c-113 0 -186 -80 -186 -168c0 -68 54 -113 148 -119zM306 333c-95 -9 -206 -65 -206 -177c0 -84 70 -126 162 -126c104 0 207 54 207 166c0 70 -59 128 -163 137z" />
    <glyph glyph-name="nine.tf" 
d="M547 483c0 -235 -179 -427 -401 -500c-7 -2 -13 1 -15 7l-5 19c-2 8 2 15 15 19c86 26 277 125 336 305c-19 -21 -94 -84 -200 -84s-194 75 -194 192c0 137 110 269 258 269c138 0 206 -95 206 -227zM492 394c5 25 10 50 10 83c0 105 -49 192 -162 192
s-211 -102 -211 -222c0 -93 66 -156 155 -156c123 0 204 99 208 103z" />
    <glyph glyph-name="zerosuperior" unicode="&#x2070;" horiz-adv-x="306" 
d="M182 494c-59 0 -91 43 -91 117c0 122 61 199 136 199c59 0 91 -43 91 -116c0 -122 -58 -200 -136 -200zM187 527c55 0 95 63 95 165c0 54 -20 86 -60 86c-54 0 -95 -65 -95 -167c0 -53 20 -84 60 -84z" />
    <glyph glyph-name="foursuperior" unicode="&#x2074;" horiz-adv-x="297" 
d="M221 504c-4 0 -9 4 -8 9l8 60h-147c-4 0 -7 4 -6 9l1 9l199 209h13c4 0 9 -4 8 -9l-26 -185h35c4 0 8 -3 7 -8l-2 -16c-1 -5 -5 -8 -9 -8h-35l-9 -61c-1 -5 -6 -9 -10 -9h-19zM127 607h99l18 126z" />
    <glyph glyph-name="fivesuperior" unicode="&#x2075;" horiz-adv-x="274" 
d="M110 673l17 118c0 5 5 9 9 9h133c5 0 8 -4 7 -9l-3 -17c-1 -4 -4 -8 -9 -8h-108l-10 -75h50c55 0 88 -28 88 -81c0 -67 -53 -116 -123 -116c-45 0 -74 25 -84 38c-5 7 -3 9 2 15l10 11c3 4 8 4 11 0c2 -3 23 -33 66 -33c40 0 80 36 80 82c0 30 -19 51 -54 51h-70
c-10 0 -13 6 -12 15z" />
    <glyph glyph-name="sixsuperior" unicode="&#x2076;" horiz-adv-x="276" 
d="M88 628c17 121 131 174 170 187c5 2 9 -1 10 -6l3 -11c2 -6 1 -14 -8 -17c-46 -14 -103 -51 -133 -115c5 3 28 30 76 30c40 0 78 -31 78 -82c0 -59 -46 -120 -113 -120c-56 0 -85 47 -85 106c0 9 1 19 2 28zM122 623c-1 -7 -2 -15 -2 -22c0 -40 17 -76 56 -76
c42 0 71 42 71 86c0 33 -21 55 -53 55c-34 0 -61 -27 -72 -43z" />
    <glyph glyph-name="sevensuperior" unicode="&#x2077;" horiz-adv-x="251" 
d="M103 504c-6 0 -13 1 -11 14l156 248h-141c-5 0 -8 4 -7 9l2 16c1 5 4 9 9 9h177c5 0 8 -4 7 -9l-2 -16l-162 -262c-4 -7 -7 -9 -13 -9h-15z" />
    <glyph glyph-name="eightsuperior" unicode="&#x2078;" horiz-adv-x="287" 
d="M173 494c-53 0 -90 31 -90 75c0 39 26 71 61 86v2c-19 10 -32 33 -32 60c0 57 47 93 106 93c46 0 82 -26 82 -70c0 -37 -26 -70 -53 -83v-2c6 -3 40 -20 40 -62c0 -55 -44 -99 -114 -99zM213 778c-35 0 -64 -26 -64 -66c0 -26 16 -40 49 -43c39 3 64 24 64 64
c0 28 -17 45 -49 45zM178 525c42 0 72 28 72 65c0 24 -13 46 -56 49c-36 -3 -73 -22 -73 -67c0 -28 20 -47 57 -47z" />
    <glyph glyph-name="ninesuperior" unicode="&#x2079;" horiz-adv-x="276" 
d="M292 702c0 -9 -1 -19 -2 -28c-17 -121 -131 -174 -170 -187c-5 -2 -9 1 -10 6l-3 11c-2 6 -1 14 8 17c46 14 103 51 133 115c-5 -3 -28 -30 -76 -30c-40 0 -78 31 -78 82c0 63 47 120 113 120c56 0 85 -47 85 -106zM256 679c1 7 2 15 2 22c0 40 -17 76 -56 76
c-40 0 -71 -42 -71 -86c0 -33 21 -55 53 -55c34 0 61 27 72 43z" />
    <glyph glyph-name="zeroinferior" unicode="&#x2080;" horiz-adv-x="306" 
d="M2 -3c14 99 64 159 133 159c59 0 91 -43 91 -116c0 -122 -58 -200 -136 -200c-59 0 -91 43 -91 117c0 12 1 26 3 40zM38 -3c-2 -14 -3 -28 -3 -40c0 -53 20 -84 60 -84c55 0 95 63 95 165c0 54 -20 86 -60 86c-49 0 -81 -48 -92 -127z" />
    <glyph glyph-name="oneinferior" unicode="&#x2081;" horiz-adv-x="171" 
d="M3 73l-4 13c-1 4 -1 7 4 11l76 49h11c4 0 9 -2 8 -8l-39 -280c-1 -5 -5 -8 -8 -8h-21c-5 0 -7 3 -6 8l34 239l-47 -26c-4 -2 -7 -1 -8 2z" />
    <glyph glyph-name="twoinferior" unicode="&#x2082;" horiz-adv-x="267" 
d="M32 89l-12 12c-3 3 -2 6 1 10c0 0 36 45 91 45c53 0 83 -35 83 -77c0 -37 -22 -73 -53 -101l-107 -97h125c4 0 7 -2 6 -8l-2 -15c0 -4 -3 -8 -8 -8h-173c-6 0 -7 4 -7 8l1 9l141 130c20 18 42 45 42 75c0 26 -16 51 -55 51c-33 0 -55 -26 -63 -34c-4 -4 -7 -4 -10 0z" />
    <glyph glyph-name="threeinferior" unicode="&#x2083;" horiz-adv-x="277" 
d="M39 -5l2 12c0 5 4 8 8 8h41c36 0 71 33 71 63c0 28 -20 46 -52 46c-39 0 -62 -25 -68 -30c-2 -3 -7 -4 -9 -1l-10 11c-3 4 -2 8 1 11c0 0 36 41 93 41c43 0 82 -27 82 -71c0 -35 -25 -66 -58 -83c0 0 45 -16 45 -64c0 -58 -57 -98 -116 -98c-56 0 -80 31 -88 41
c-3 3 -3 7 2 11l11 11c4 4 9 4 11 0c7 -7 22 -32 68 -32c36 0 76 26 76 65c0 27 -19 49 -63 49h-41c-5 0 -7 5 -6 10z" />
    <glyph glyph-name="fourinferior" unicode="&#x2084;" horiz-adv-x="298" 
d="M-22 -63l199 209h13c4 0 9 -4 8 -9l-26 -185h35c4 0 8 -3 7 -8l-2 -16c-1 -5 -5 -8 -9 -8h-35l-9 -61c-1 -5 -6 -9 -10 -9h-19c-4 0 -9 4 -8 9l8 60h-147c-4 0 -7 4 -6 9zM36 -47h99l18 126z" />
    <glyph glyph-name="fiveinferior" unicode="&#x2085;" horiz-adv-x="274" 
d="M18 19l17 118c0 5 5 9 9 9h133c5 0 8 -4 7 -9l-3 -17c-1 -4 -4 -8 -9 -8h-108l-10 -75h50c55 0 88 -28 88 -81c0 -67 -53 -116 -123 -116c-45 0 -74 25 -84 38c-5 7 -3 9 2 15l10 11c3 4 8 4 11 0c2 -3 23 -33 66 -33c40 0 80 36 80 82c0 30 -19 51 -54 51h-70
c-10 0 -13 6 -12 15z" />
    <glyph glyph-name="sixinferior" unicode="&#x2086;" horiz-adv-x="276" 
d="M-4 -26c17 121 131 174 170 187c5 2 9 -1 10 -6l3 -11c2 -6 1 -14 -8 -17c-46 -14 -103 -51 -133 -115c5 3 28 30 76 30c40 0 78 -31 78 -82c0 -59 -46 -120 -113 -120c-56 0 -85 47 -85 106c0 9 1 19 2 28zM30 -31c-1 -7 -2 -15 -2 -22c0 -40 17 -76 56 -76
c42 0 71 42 71 86c0 33 -21 55 -53 55c-34 0 -61 -27 -72 -43z" />
    <glyph glyph-name="seveninferior" unicode="&#x2087;" horiz-adv-x="250" 
d="M15 112c-5 0 -8 4 -7 9l2 16c1 5 4 9 9 9h177c5 0 8 -4 7 -9l-2 -16l-162 -262c-4 -7 -7 -9 -13 -9h-15c-6 0 -13 1 -11 14l156 248h-141z" />
    <glyph glyph-name="eightinferior" unicode="&#x2088;" horiz-adv-x="287" 
d="M81 -160c-53 0 -90 31 -90 75c0 39 26 71 61 86v2c-19 10 -32 33 -32 60c0 57 47 93 106 93c46 0 82 -26 82 -70c0 -37 -26 -70 -53 -83v-2c6 -3 40 -20 40 -62c0 -55 -44 -99 -114 -99zM121 124c-35 0 -64 -26 -64 -66c0 -26 16 -40 49 -43c39 3 64 24 64 64
c0 28 -17 45 -49 45zM86 -129c42 0 72 28 72 65c0 24 -13 46 -56 49c-36 -3 -73 -22 -73 -67c0 -28 20 -47 57 -47z" />
    <glyph glyph-name="nineinferior" unicode="&#x2089;" horiz-adv-x="275" 
d="M200 48c0 -9 -1 -19 -2 -28c-17 -121 -131 -174 -170 -187c-5 -2 -9 1 -10 6l-3 11c-2 6 -1 14 8 17c46 14 103 51 133 115c-5 -3 -28 -30 -76 -30c-40 0 -78 31 -78 82c0 63 47 120 113 120c56 0 85 -47 85 -106zM164 25c1 7 2 15 2 22c0 40 -17 76 -56 76
c-40 0 -71 -42 -71 -86c0 -33 21 -55 53 -55c34 0 61 27 72 43z" />
    <glyph glyph-name="zero.denom" horiz-adv-x="342" 
d="M129 -10c-59 0 -91 43 -91 117c0 122 61 199 136 199c59 0 91 -43 91 -116c0 -122 -58 -200 -136 -200zM134 23c55 0 95 63 95 165c0 54 -20 86 -60 86c-54 0 -95 -65 -95 -167c0 -53 20 -84 60 -84z" />
    <glyph glyph-name="one.denom" horiz-adv-x="214" 
d="M65 8l34 239l-47 -26c-4 -2 -7 -1 -8 2l-4 13c-1 4 -1 7 4 11l76 49h11c4 0 9 -2 8 -8l-39 -280c-1 -5 -5 -8 -8 -8h-21c-5 0 -7 3 -6 8z" />
    <glyph glyph-name="two.denom" horiz-adv-x="309" 
d="M75 239l-12 12c-3 3 -2 6 1 10c0 0 36 45 91 45c53 0 83 -35 83 -77c0 -37 -22 -73 -53 -101l-107 -97h125c4 0 7 -2 6 -8l-2 -15c0 -4 -3 -8 -8 -8h-173c-6 0 -7 4 -7 8l1 9l141 130c20 18 42 45 42 75c0 26 -16 51 -55 51c-33 0 -55 -26 -63 -34c-4 -4 -7 -4 -10 0z
" />
    <glyph glyph-name="three.denom" horiz-adv-x="320" 
d="M26 31c-3 3 -3 7 2 11l11 11c4 4 9 4 11 0c7 -7 22 -32 68 -32c41 0 70 24 75 57c4 30 -13 57 -62 57h-41c-5 0 -7 5 -6 10l2 12c0 5 4 8 8 8h41c37 0 64 18 70 55c4 33 -16 54 -51 54c-39 0 -62 -25 -68 -30c-2 -3 -7 -4 -9 -1l-10 11c-3 4 -2 8 1 11c0 0 36 41 93 41
c46 0 88 -31 81 -82c-4 -33 -33 -61 -57 -72c0 0 52 -19 44 -76c-7 -49 -48 -86 -115 -86c-56 0 -80 31 -88 41z" />
    <glyph glyph-name="four.denom" horiz-adv-x="326" 
d="M17 69c-4 0 -7 4 -6 9l1 9l199 209h13c4 0 9 -4 8 -9l-26 -185h35c4 0 8 -3 7 -8l-2 -16c-1 -5 -5 -8 -9 -8h-35l-9 -61c-1 -5 -6 -9 -10 -9h-19c-4 0 -9 4 -8 9l8 60h-147zM70 103h99l18 126z" />
    <glyph glyph-name="five.denom" horiz-adv-x="321" 
d="M63 169l17 118c0 5 5 9 9 9h133c5 0 8 -4 7 -9l-3 -17c-1 -4 -4 -8 -9 -8h-108l-10 -75h50c55 0 88 -28 88 -81c0 -67 -53 -116 -123 -116c-45 0 -74 25 -84 38c-5 7 -3 9 2 15l10 11c3 4 8 4 11 0c2 -3 23 -33 66 -33c40 0 80 36 80 82c0 30 -19 51 -54 51h-70
c-10 0 -13 6 -12 15z" />
    <glyph glyph-name="six.denom" horiz-adv-x="328" 
d="M42 124c17 121 131 174 170 187c5 2 9 -1 10 -6l3 -11c2 -6 1 -14 -8 -17c-46 -14 -103 -51 -133 -115c5 3 28 30 76 30c40 0 78 -31 78 -82c0 -59 -46 -120 -113 -120c-56 0 -85 47 -85 106c0 9 1 19 2 28zM76 119c-1 -7 -2 -15 -2 -22c0 -40 17 -76 56 -76
c42 0 71 42 71 86c0 33 -21 55 -53 55c-34 0 -61 -27 -72 -43z" />
    <glyph glyph-name="seven.denom" horiz-adv-x="301" 
d="M48 14l156 248h-141c-5 0 -8 4 -7 9l2 16c1 5 4 9 9 9h177c5 0 8 -4 7 -9l-2 -16l-162 -262c-4 -7 -7 -9 -13 -9h-15c-6 0 -13 1 -11 14z" />
    <glyph glyph-name="eight.denom" horiz-adv-x="326" 
d="M122 -10c-53 0 -90 31 -90 75c0 39 26 71 61 86v2c-19 10 -32 33 -32 60c0 57 47 93 106 93c46 0 82 -26 82 -70c0 -37 -26 -70 -53 -83v-2c6 -3 40 -20 40 -62c0 -55 -44 -99 -114 -99zM162 274c-35 0 -64 -26 -64 -66c0 -26 16 -40 49 -43c39 3 64 24 64 64
c0 28 -17 45 -49 45zM127 21c42 0 72 28 72 65c0 24 -13 46 -56 49c-36 -3 -73 -22 -73 -67c0 -28 20 -47 57 -47z" />
    <glyph glyph-name="nine.denom" horiz-adv-x="311" 
d="M240 198c0 -9 -1 -19 -2 -28c-17 -121 -131 -174 -170 -187c-5 -2 -9 1 -10 6l-3 11c-2 6 -1 14 8 17c46 14 103 51 133 115c-5 -3 -28 -30 -76 -30c-40 0 -78 31 -78 82c0 63 47 120 113 120c56 0 85 -47 85 -106zM204 175c1 7 2 15 2 22c0 40 -17 76 -56 76
c-40 0 -71 -42 -71 -86c0 -33 21 -55 53 -55c34 0 61 27 72 43z" />
    <glyph glyph-name="zero.num" horiz-adv-x="306" 
d="M168 394c-59 0 -91 43 -91 117c0 122 61 199 136 199c59 0 91 -43 91 -116c0 -122 -58 -200 -136 -200zM173 427c55 0 95 63 95 165c0 54 -20 86 -60 86c-54 0 -95 -65 -95 -167c0 -53 20 -84 60 -84z" />
    <glyph glyph-name="one.num" horiz-adv-x="172" 
d="M108 404c-5 0 -7 3 -6 8l34 239l-47 -26c-4 -2 -7 -1 -8 2l-4 13c-1 4 -1 7 4 11l76 49h11c4 0 9 -2 8 -8l-39 -280c-1 -5 -5 -8 -8 -8h-21z" />
    <glyph glyph-name="two.num" horiz-adv-x="268" 
d="M110 643l-12 12c-3 3 -2 6 1 10c0 0 36 45 91 45c53 0 83 -35 83 -77c0 -37 -22 -73 -53 -101l-107 -97h125c4 0 7 -2 6 -8l-2 -15c0 -4 -3 -8 -8 -8h-173c-6 0 -7 4 -7 8l1 9l141 130c20 18 42 45 42 75c0 26 -16 51 -55 51c-33 0 -55 -26 -63 -34c-4 -4 -7 -4 -10 0z
" />
    <glyph glyph-name="three.num" horiz-adv-x="277" 
d="M147 394c-56 0 -80 31 -88 41c-3 3 -3 7 2 11l11 11c4 4 9 4 11 0c7 -7 22 -32 68 -32c41 0 70 24 75 57c4 30 -13 57 -62 57h-41c-5 0 -7 5 -6 10l2 12c0 5 4 8 8 8h41c37 0 64 18 70 55c4 33 -16 54 -51 54c-39 0 -62 -25 -68 -30c-2 -3 -7 -4 -9 -1l-10 11
c-3 4 -2 8 1 11c0 0 36 41 93 41c46 0 88 -31 81 -82c-4 -33 -33 -61 -57 -72c0 0 52 -19 44 -76c-7 -49 -48 -86 -115 -86z" />
    <glyph glyph-name="four.num" horiz-adv-x="297" 
d="M207 404c-4 0 -9 4 -8 9l8 60h-147c-4 0 -7 4 -6 9l1 9l199 209h13c4 0 9 -4 8 -9l-26 -185h35c4 0 8 -3 7 -8l-2 -16c-1 -5 -5 -8 -9 -8h-35l-9 -61c-1 -5 -6 -9 -10 -9h-19zM113 507h99l18 126z" />
    <glyph glyph-name="five.num" horiz-adv-x="274" 
d="M96 573l17 118c0 5 5 9 9 9h133c5 0 8 -4 7 -9l-3 -17c-1 -4 -4 -8 -9 -8h-108l-10 -75h50c55 0 88 -28 88 -81c0 -67 -53 -116 -123 -116c-45 0 -74 25 -84 38c-5 7 -3 9 2 15l10 11c3 4 8 4 11 0c2 -3 23 -33 66 -33c40 0 80 36 80 82c0 30 -19 51 -54 51h-70
c-10 0 -13 6 -12 15z" />
    <glyph glyph-name="six.num" horiz-adv-x="276" 
d="M74 528c17 121 131 174 170 187c5 2 9 -1 10 -6l3 -11c2 -6 1 -14 -8 -17c-46 -14 -103 -51 -133 -115c5 3 28 30 76 30c40 0 78 -31 78 -82c0 -59 -46 -120 -113 -120c-56 0 -85 47 -85 106c0 9 1 19 2 28zM108 523c-1 -7 -2 -15 -2 -22c0 -40 17 -76 56 -76
c42 0 71 42 71 86c0 33 -21 55 -53 55c-34 0 -61 -27 -72 -43z" />
    <glyph glyph-name="seven.num" horiz-adv-x="251" 
d="M89 404c-6 0 -13 1 -11 14l156 248h-141c-5 0 -8 4 -7 9l2 16c1 5 4 9 9 9h177c5 0 8 -4 7 -9l-2 -16l-162 -262c-4 -7 -7 -9 -13 -9h-15z" />
    <glyph glyph-name="eight.num" horiz-adv-x="287" 
d="M159 394c-53 0 -90 31 -90 75c0 39 26 71 61 86v2c-19 10 -32 33 -32 60c0 57 47 93 106 93c46 0 82 -26 82 -70c0 -37 -26 -70 -53 -83v-2c6 -3 40 -20 40 -62c0 -55 -44 -99 -114 -99zM199 678c-35 0 -64 -26 -64 -66c0 -26 16 -40 49 -43c39 3 64 24 64 64
c0 28 -17 45 -49 45zM164 425c42 0 72 28 72 65c0 24 -13 46 -56 49c-36 -3 -73 -22 -73 -67c0 -28 20 -47 57 -47z" />
    <glyph glyph-name="nine.num" horiz-adv-x="275" 
d="M277 602c0 -9 -1 -19 -2 -28c-17 -121 -131 -174 -170 -187c-5 -2 -9 1 -10 6l-3 11c-2 6 -1 14 8 17c46 14 103 51 133 115c-5 -3 -28 -30 -76 -30c-40 0 -78 31 -78 82c0 63 47 120 113 120c56 0 85 -47 85 -106zM241 579c1 7 2 15 2 22c0 40 -17 76 -56 76
c-40 0 -71 -42 -71 -86c0 -33 21 -55 53 -55c34 0 61 27 72 43z" />
    <glyph glyph-name="parenleft.case" horiz-adv-x="325" 
d="M61 237c0 370 163 576 300 583c7 0 11 -3 11 -9l-1 -15c0 -7 -5 -12 -9 -12c-143 -21 -257 -250 -257 -546c0 -158 50 -299 134 -319c5 -1 8 -5 6 -12l-4 -17c-1 -6 -6 -9 -12 -8c-89 13 -168 149 -168 355z" />
    <glyph glyph-name="parenright.case" horiz-adv-x="325" 
d="M282 464c0 -370 -163 -576 -300 -583c-7 0 -11 3 -11 9l1 15c0 7 5 12 9 12c143 21 257 250 257 546c0 158 -50 299 -134 319c-5 1 -8 5 -6 12l4 17c1 6 6 9 12 8c89 -13 168 -149 168 -355z" />
    <glyph glyph-name="hyphen.case" horiz-adv-x="363" 
d="M85 321c-7 0 -11 6 -10 13l1 11c1 8 7 13 14 13h200c7 0 12 -5 11 -13l-1 -11c-1 -7 -6 -13 -15 -13h-200z" />
    <glyph glyph-name="bracketleft.case" horiz-adv-x="317" 
d="M80 -78h144c7 0 12 -6 11 -13l-2 -15c-1 -7 -7 -13 -15 -13h-174c-7 0 -12 6 -11 13l128 912c1 7 8 13 15 13h174c7 0 12 -6 11 -13l-2 -15c-1 -7 -7 -13 -15 -13h-144z" />
    <glyph glyph-name="bracketright.case" horiz-adv-x="316" 
d="M-8 -78h143l120 856h-143c-7 0 -12 6 -11 13l2 15c1 7 8 13 15 13h173c7 0 12 -6 11 -13l-128 -912c-1 -7 -8 -13 -15 -13h-173c-7 0 -12 6 -11 13l2 15c1 7 8 13 15 13z" />
    <glyph glyph-name="braceleft.case" horiz-adv-x="347" 
d="M87 102l20 144c9 64 -35 82 -53 89c-5 2 -7 3 -6 9l2 16c1 6 3 7 9 9c20 7 69 25 78 89l19 140c26 189 135 232 229 232c6 0 11 -5 10 -12l-1 -12c-1 -7 -5 -11 -11 -12c-97 -8 -169 -60 -188 -197l-19 -139c-10 -70 -69 -102 -76 -106v-1c3 -2 56 -33 46 -105l-19 -143
c-18 -137 36 -188 131 -196c6 -1 8 -5 7 -12l-1 -12c-1 -7 -8 -12 -14 -12c-94 0 -186 63 -163 231z" />
    <glyph glyph-name="bar.case" horiz-adv-x="203" 
d="M25 -155l136 972c2 8 8 13 15 13h6c6 0 11 -5 9 -13l-136 -972c-1 -7 -7 -12 -14 -12h-5c-7 0 -12 5 -11 12z" />
    <glyph glyph-name="braceright.case" horiz-adv-x="347" 
d="M229 246l-20 -144c-26 -184 -129 -227 -228 -231c-6 0 -11 5 -10 12l1 12c1 7 5 11 11 12c96 8 168 58 187 195l20 144c10 72 71 103 76 105v1c-7 4 -56 36 -46 106l19 139c19 137 -37 189 -132 197c-6 1 -8 5 -7 12l2 15c1 7 7 9 13 9c94 0 185 -67 163 -232l-19 -140
c-9 -64 34 -82 52 -89c6 -2 8 -3 7 -12l-2 -13c-1 -6 -3 -7 -10 -9c-20 -7 -68 -25 -77 -89z" />
    <glyph glyph-name="guilsinglleft.case" horiz-adv-x="255" 
d="M135 162l-73 157c-2 5 -1 12 3 17l116 154c6 8 11 9 17 9h16c8 0 10 -8 3 -18l-103 -153l59 -157c4 -10 0 -18 -7 -18h-17c-5 0 -10 1 -14 9z" />
    <glyph glyph-name="guilsinglright.case" horiz-adv-x="254" 
d="M50 153c-8 0 -9 7 -2 18l103 157l-60 153c-4 10 0 18 8 18h16c6 0 10 -1 14 -9l73 -154c3 -5 2 -11 -2 -17l-117 -157c-6 -8 -10 -9 -17 -9h-16z" />
    <glyph glyph-name="guillemotleft.case" horiz-adv-x="399" 
d="M279 162l-73 157c-2 5 -1 12 3 17l116 154c6 8 11 9 17 9h16c8 0 10 -8 3 -18l-103 -153l59 -157c4 -10 0 -18 -7 -18h-17c-5 0 -10 1 -14 9zM135 162l-73 157c-2 5 -1 12 3 17l116 154c6 8 11 9 17 9h16c8 0 10 -8 3 -18l-103 -153l59 -157c4 -10 0 -18 -7 -18h-17
c-5 0 -10 1 -14 9z" />
    <glyph glyph-name="guillemotright.case" horiz-adv-x="398" 
d="M194 153c-8 0 -9 7 -2 18l103 157l-60 153c-4 10 0 18 8 18h16c6 0 10 -1 14 -9l73 -154c3 -5 2 -11 -2 -17l-117 -157c-6 -8 -10 -9 -17 -9h-16zM50 153c-8 0 -9 7 -2 18l103 157l-60 153c-4 10 0 18 8 18h16c6 0 10 -1 14 -9l73 -154c3 -5 2 -11 -2 -17l-117 -157
c-6 -8 -10 -9 -17 -9h-16z" />
    <glyph glyph-name="endash.case" horiz-adv-x="506" 
d="M85 323c-7 0 -12 5 -11 12l1 8c1 7 8 13 15 13h343c8 0 12 -6 11 -13l-1 -8c-1 -7 -7 -12 -15 -12h-343z" />
    <glyph glyph-name="emdash.case" horiz-adv-x="702" 
d="M85 323c-7 0 -12 5 -11 12l1 8c1 7 8 13 15 13h539c8 0 12 -6 11 -13l-1 -8c-1 -7 -6 -12 -14 -12h-540z" />
    <glyph glyph-name="bullet.case" horiz-adv-x="324" 
d="M154 244c-34 0 -60 28 -60 62c0 46 39 83 81 83c36 0 62 -29 62 -65c0 -44 -39 -80 -83 -80z" />
    <glyph glyph-name="periodcentered.case" horiz-adv-x="218" 
d="M112 311c-20 0 -35 16 -35 35c0 26 23 45 46 45c20 0 33 -15 33 -35c0 -25 -20 -45 -44 -45z" />
    <glyph glyph-name="brokenbar" unicode="&#xa6;" horiz-adv-x="210" 
d="M117 388c-7 0 -12 6 -11 13l48 345c2 8 8 13 15 13h6c6 0 11 -5 9 -13l-48 -345c-1 -7 -8 -13 -15 -13h-4zM67 120c1 7 7 13 14 13h6c7 0 11 -6 10 -13l-49 -346c-1 -7 -7 -12 -14 -12h-5c-7 0 -12 5 -11 12z" />
    <glyph glyph-name="uni2117" unicode="&#x2117;" horiz-adv-x="795" 
d="M78 302c0 223 178 408 379 408c156 0 278 -142 278 -313c0 -224 -179 -407 -379 -407c-157 0 -278 140 -278 312zM117 307c0 -153 102 -278 244 -278c173 0 334 164 334 364c0 152 -102 277 -244 277c-172 0 -334 -163 -334 -363zM343 308l-18 -125c-1 -8 -5 -16 -13 -16
h-19c-7 0 -10 6 -9 13l48 343c1 7 6 13 13 13h115c60 0 107 -28 107 -99s-54 -129 -131 -129h-93zM348 344h81c62 0 100 31 100 94c0 46 -34 62 -78 62h-81z" />
    </font>
</defs>
</svg>
