<?xml version="1.0" standalone="no"?>
<!DOCTYPE svg PUBLIC "-//W3C//DTD SVG 1.1//EN" "http://www.w3.org/Graphics/SVG/1.1/DTD/svg11.dtd" >
<svg>
<metadata>
Created by FontForge 20110222 at Mon May  4 23:20:12 2015
 By www-data
Copyright (c) 2012 by Hannes von Dhren. All rights reserved.
</metadata>
<defs>
<font id="BrandonText-Bold" horiz-adv-x="600" >
  <font-face 
    font-family="Brandon Text Bold"
    font-weight="450"
    font-stretch="normal"
    units-per-em="1000"
    panose-1="2 11 8 3 2 2 3 6 2 3"
    ascent="700"
    descent="-300"
    x-height="462"
    cap-height="700"
    bbox="-155.414 -305.531 1199 1042.59"
    underline-thickness="50"
    underline-position="-50"
    stemh="114"
    stemv="125"
    unicode-range="U+000D-FB02"
  />
<missing-glyph horiz-adv-x="599" 
d="M50 30v640c0 21 9 30 30 30h439c21 0 30 -9 30 -30v-640c0 -21 -9 -30 -30 -30h-439c-21 0 -30 9 -30 30zM262 314c0 -7 7 -12 14 -12h36c9 0 15 4 15 13v26c0 48 105 63 105 150c0 65 -54 111 -125 111c-87 0 -130 -61 -130 -61c-4 -6 -6 -13 0 -18l22 -22
c6 -4 11 -4 17 0c13 12 36 41 84 41c40 0 61 -25 61 -52c0 -63 -99 -72 -99 -147v-29zM245 156c0 -26 22 -48 48 -48c27 0 49 22 49 48s-22 48 -49 48c-26 0 -48 -22 -48 -48z" />
    <glyph glyph-name="fi" unicode="fi" horiz-adv-x="605" 
d="M102 22v328h-48c-13 0 -22 11 -22 22v68c0 13 9 22 22 22h48v48c0 121 69 200 198 200c77 0 148 -33 177 -49c10 -6 12 -20 7 -30l-28 -61c-8 -16 -22 -16 -35 -9c-22 12 -71 35 -120 35c-61 0 -74 -30 -74 -82v-52h294c12 0 22 -9 22 -22v-418c0 -12 -10 -22 -22 -22
h-81c-14 0 -22 10 -22 22v328h-191v-328c0 -22 -15 -22 -33 -22h-70c-12 0 -22 10 -22 22z" />
    <glyph glyph-name="fl" unicode="fl" horiz-adv-x="614" 
d="M103 22v328h-50c-13 0 -22 9 -22 20v69c0 12 9 23 22 23h50v40c0 130 83 208 206 208c66 0 121 -29 151 -62l13 31c5 13 13 21 27 21h27c12 0 22 -11 22 -22v-656c0 -12 -10 -22 -22 -22h-81c-11 0 -22 10 -22 22v505c-11 24 -52 69 -108 69c-61 0 -88 -37 -88 -94v-40
h86c12 0 22 -9 22 -22v-69c0 -11 -10 -21 -22 -21h-86v-328c0 -12 -10 -22 -22 -22h-82c-12 0 -21 10 -21 22z" />
    <glyph glyph-name="f_f" unicode="ff" horiz-adv-x="707" 
d="M103 22v328h-50c-13 0 -22 11 -22 22v68c0 13 9 22 22 22h50v19c0 121 87 219 211 219c73 0 116 -25 147 -47c31 38 76 57 141 57c61 0 116 -26 137 -45c6 -5 9 -18 4 -26l-34 -62c-5 -9 -18 -12 -28 -6c-15 10 -47 25 -73 25c-57 0 -67 -27 -67 -82v-52h125
c13 0 22 -9 22 -22v-68c0 -11 -9 -22 -22 -22h-125v-328c0 -12 -11 -22 -22 -22h-81c-12 0 -22 10 -22 22v328h-188v-328c0 -12 -10 -22 -22 -22h-81c-12 0 -22 10 -22 22zM228 462h188v38c0 18 0 37 4 53c-17 16 -53 33 -98 33c-70 0 -94 -48 -94 -105v-19z" />
    <glyph glyph-name="f_f_i" unicode="ffi" horiz-adv-x="920" 
d="M541 462h295c12 0 22 -9 22 -22v-418c0 -12 -10 -22 -22 -22h-81c-14 0 -22 10 -22 22v328h-191v-325c0 -22 -10 -25 -28 -25h-76c-12 0 -22 10 -22 22v328h-188v-328c0 -12 -10 -22 -22 -22h-81c-12 0 -22 10 -22 22v328h-50c-13 0 -22 11 -22 22v68c0 13 9 22 22 22h50
v19c0 121 88 219 211 219c72 0 118 -25 147 -46c35 38 80 56 145 56c77 0 157 -33 186 -49c10 -6 12 -20 7 -30l-26 -62c-8 -16 -22 -16 -35 -9c-22 12 -73 36 -122 36c-61 0 -75 -30 -75 -82v-52zM228 462h188v38c0 18 0 38 4 54c-17 16 -53 32 -98 32
c-70 0 -94 -48 -94 -105v-19z" />
    <glyph glyph-name="f_f_l" unicode="ffl" horiz-adv-x="927" 
d="M541 462h86c12 0 22 -9 22 -22v-69c0 -11 -10 -21 -22 -21h-86v-328c0 -12 -10 -22 -22 -22h-81c-12 0 -22 10 -22 22v328h-188v-328c0 -12 -10 -22 -22 -22h-81c-12 0 -22 10 -22 22v328h-50c-13 0 -22 11 -22 22v68c0 13 9 22 22 22h50v19c0 121 86 219 211 219
c78 0 118 -27 147 -48c35 38 96 58 146 58c81 0 136 -29 166 -62l13 31c5 13 13 21 27 21h27c12 0 22 -11 22 -22v-656c0 -12 -10 -22 -22 -22h-81c-11 0 -22 10 -22 22v505c-11 24 -52 69 -108 69c-61 0 -88 -37 -88 -94v-40zM228 462h188v38c0 18 0 38 4 54
c-17 16 -50 32 -98 32c-70 0 -94 -48 -94 -105v-19z" />
    <glyph glyph-name="f_f_h" unicode="ffh" horiz-adv-x="1226" 
d="M228 462h188v38c0 18 0 38 4 54c-17 16 -50 32 -98 32c-70 0 -94 -48 -94 -105v-19zM838 0h-79c-11 0 -22 10 -22 22v505c-11 24 -52 69 -108 69c-61 0 -88 -37 -88 -94v-40h86c12 0 22 -9 22 -22v-69c0 -11 -10 -21 -22 -21h-86v-328c0 -12 -10 -22 -22 -22h-81
c-12 0 -22 10 -22 22v328h-188v-328c0 -12 -10 -22 -22 -22h-81c-12 0 -22 10 -22 22v328h-50c-13 0 -22 11 -22 22v68c0 13 9 22 22 22h50v19c0 121 86 219 211 219c78 0 118 -27 147 -48c35 38 96 58 146 58c81 0 136 -29 166 -62l13 31c5 13 13 21 27 21h27
c13 0 22 -11 22 -22v-245c23 20 63 39 118 39c147 0 187 -102 187 -218v-232c0 -12 -11 -22 -22 -22h-81c-12 0 -22 10 -22 22v233c0 64 -29 103 -84 103c-54 0 -84 -34 -96 -81v-255c0 -13 -6 -22 -24 -22z" />
    <glyph glyph-name="f_k" unicode="fk" horiz-adv-x="877" 
d="M527 0h-81c-11 0 -22 10 -22 22v505c-11 24 -52 69 -108 69c-61 0 -88 -37 -88 -94v-40h86c12 0 22 -9 22 -22v-69c0 -11 -10 -21 -22 -21h-86v-328c0 -12 -10 -22 -22 -22h-82c-12 0 -21 10 -21 22v328h-50c-13 0 -22 9 -22 20v69c0 12 9 23 22 23h50v40
c0 130 83 208 206 208c66 0 121 -29 151 -62l13 31c5 13 13 21 27 21h27c12 0 22 -11 22 -22v-391l159 161c8 7 16 14 29 14h94c19 0 26 -21 15 -34l-183 -180l192 -215c12 -13 5 -33 -14 -33h-98c-8 0 -17 4 -20 9l-174 208v-195c0 -12 -10 -22 -22 -22z" />
    <glyph glyph-name="f_j" unicode="fj" horiz-adv-x="606" 
d="M418 -36v386h-191v-328c0 -22 -15 -22 -33 -22h-70c-12 0 -22 10 -22 22v328h-48c-13 0 -22 11 -22 22v68c0 13 9 22 22 22h48v48c0 121 69 200 198 200c77 0 148 -33 177 -49c10 -6 12 -20 7 -30l-28 -61c-8 -16 -22 -16 -35 -9c-22 12 -71 35 -120 35
c-61 0 -74 -30 -74 -82v-52h294c12 0 22 -9 22 -22v-459c0 -137 -64 -193 -140 -226c-16 -7 -37 -8 -44 10l-24 56c-7 18 -5 31 12 40c33 18 71 41 71 103z" />
    <glyph glyph-name="f_f_j" unicode="ffj" horiz-adv-x="921" 
d="M228 462h188v38c0 18 0 38 4 54c-17 16 -53 32 -98 32c-70 0 -94 -48 -94 -105v-19zM733 -36v386h-191v-325c0 -22 -10 -25 -28 -25h-76c-12 0 -22 10 -22 22v328h-188v-328c0 -12 -10 -22 -22 -22h-81c-12 0 -22 10 -22 22v328h-50c-13 0 -22 11 -22 22v68
c0 13 9 22 22 22h50v19c0 121 88 219 211 219c72 0 118 -25 147 -46c35 38 80 56 145 56c77 0 157 -33 186 -49c10 -6 12 -20 7 -30l-26 -62c-8 -16 -22 -16 -35 -9c-22 12 -73 36 -122 36c-61 0 -75 -30 -75 -82v-52h295c12 0 22 -9 22 -22v-459c0 -137 -64 -193 -140 -226
c-16 -7 -37 -8 -44 10l-24 56c-7 18 -5 31 12 40c33 18 71 41 71 103z" />
    <glyph glyph-name="f_b" unicode="fb" horiz-adv-x="923" 
d="M500 700h27c13 0 22 -11 22 -22v-226c21 9 67 20 113 20c137 0 224 -106 224 -241c0 -132 -91 -242 -217 -242c-101 0 -154 69 -154 69l-11 -36c-5 -13 -12 -22 -23 -22h-35c-11 0 -22 10 -22 22v505c-11 24 -52 69 -108 69c-61 0 -88 -37 -88 -94v-40h86
c12 0 22 -9 22 -22v-69c0 -11 -10 -21 -22 -21h-86v-328c0 -12 -10 -22 -22 -22h-82c-12 0 -21 10 -21 22v328h-50c-13 0 -22 9 -22 20v69c0 12 9 23 22 23h50v40c0 130 83 208 206 208c66 0 121 -29 151 -62l13 31c5 13 13 21 27 21zM549 167c10 -26 42 -64 102 -64
c72 0 109 63 109 128s-39 127 -115 127c-58 0 -96 -26 -96 -26v-165z" />
    <glyph glyph-name="f_f_k" unicode="ffk" horiz-adv-x="1190" 
d="M813 700h27c12 0 22 -11 22 -22v-391l159 161c7 8 16 14 29 14h94c19 0 27 -22 15 -34l-183 -180l192 -215c12 -13 5 -33 -14 -33h-98c-8 0 -16 5 -20 9l-174 208v-195c0 -12 -10 -22 -22 -22h-81c-11 0 -22 10 -22 22v505c-11 24 -52 69 -108 69c-61 0 -88 -37 -88 -94
v-40h86c12 0 22 -9 22 -22v-69c0 -11 -10 -21 -22 -21h-86v-328c0 -12 -10 -22 -22 -22h-81c-12 0 -22 10 -22 22v328h-188v-328c0 -12 -10 -22 -22 -22h-81c-12 0 -22 10 -22 22v328h-50c-13 0 -22 11 -22 22v68c0 13 9 22 22 22h50v19c0 121 86 219 211 219
c78 0 118 -27 147 -48c35 38 96 58 146 58c81 0 136 -29 166 -62l13 31c5 13 13 21 27 21zM228 462h188v38c0 18 0 38 4 54c-17 16 -50 32 -98 32c-70 0 -94 -48 -94 -105v-19z" />
    <glyph glyph-name="f_h" unicode="fh" horiz-adv-x="913" 
d="M525 0h-79c-11 0 -22 10 -22 22v505c-11 24 -52 69 -108 69c-61 0 -88 -37 -88 -94v-40h86c12 0 22 -9 22 -22v-69c0 -11 -10 -21 -22 -21h-86v-328c0 -12 -10 -22 -22 -22h-82c-12 0 -21 10 -21 22v328h-50c-13 0 -22 9 -22 20v69c0 12 9 23 22 23h50v40
c0 130 83 208 206 208c66 0 121 -29 151 -62l13 31c5 13 13 21 27 21h27c12 0 22 -11 22 -22v-245c23 20 63 39 118 39c147 0 187 -102 187 -218v-232c0 -12 -11 -22 -22 -22h-81c-12 0 -22 10 -22 22v233c0 64 -29 103 -84 103c-54 0 -84 -34 -96 -81v-255
c0 -13 -6 -22 -24 -22z" />
    <glyph glyph-name="f_f_b" unicode="ffb" horiz-adv-x="1236" 
d="M228 462h188v38c0 18 0 38 4 54c-17 16 -50 32 -98 32c-70 0 -94 -48 -94 -105v-19zM794 0h-35c-11 0 -22 10 -22 22v505c-11 24 -52 69 -108 69c-61 0 -88 -37 -88 -94v-40h86c12 0 22 -9 22 -22v-69c0 -11 -10 -21 -22 -21h-86v-328c0 -12 -10 -22 -22 -22h-81
c-12 0 -22 10 -22 22v328h-188v-328c0 -12 -10 -22 -22 -22h-81c-12 0 -22 10 -22 22v328h-50c-13 0 -22 11 -22 22v68c0 13 9 22 22 22h50v19c0 121 86 219 211 219c78 0 118 -27 147 -48c35 38 96 58 146 58c81 0 136 -29 166 -62l13 31c5 13 13 21 27 21h27
c12 0 22 -11 22 -22v-226c21 9 67 20 113 20c137 0 224 -106 224 -241c0 -132 -91 -242 -217 -242c-101 0 -154 69 -154 69l-11 -36c-5 -13 -12 -22 -23 -22zM862 167c10 -26 42 -64 102 -64c72 0 109 63 109 128s-39 127 -115 127c-58 0 -96 -26 -96 -26v-165z" />
    <glyph glyph-name=".notdef" horiz-adv-x="599" 
d="M50 30v640c0 21 9 30 30 30h439c21 0 30 -9 30 -30v-640c0 -21 -9 -30 -30 -30h-439c-21 0 -30 9 -30 30zM262 314c0 -7 7 -12 14 -12h36c9 0 15 4 15 13v26c0 48 105 63 105 150c0 65 -54 111 -125 111c-87 0 -130 -61 -130 -61c-4 -6 -6 -13 0 -18l22 -22
c6 -4 11 -4 17 0c13 12 36 41 84 41c40 0 61 -25 61 -52c0 -63 -99 -72 -99 -147v-29zM245 156c0 -26 22 -48 48 -48c27 0 49 22 49 48s-22 48 -49 48c-26 0 -48 -22 -48 -48z" />
    <glyph glyph-name=".null" horiz-adv-x="0" 
 />
    <glyph glyph-name=".null" horiz-adv-x="0" 
 />
    <glyph glyph-name="CR" unicode="&#xd;" horiz-adv-x="0" 
 />
    <glyph glyph-name="space" unicode=" " horiz-adv-x="240" 
 />
    <glyph glyph-name="exclam" unicode="!" horiz-adv-x="266" 
d="M117 272c-9 0 -18 8 -19 16l-39 279v114c0 10 9 19 19 19h110c10 0 19 -9 19 -19v-112l-39 -281c-1 -8 -10 -16 -19 -16h-32zM51 72c0 45 37 83 81 83c46 0 83 -38 83 -83s-37 -82 -83 -82c-44 0 -81 37 -81 82z" />
    <glyph glyph-name="quotedbl" unicode="&#x22;" horiz-adv-x="372" 
d="M241 501c-10 0 -19 9 -19 19v161c0 10 9 19 19 19h80c13 0 22 -11 18 -25l-41 -159c-2 -8 -11 -15 -18 -15h-39zM70 501c-10 0 -19 9 -19 19v161c0 10 9 19 19 19h80c13 0 22 -11 18 -25l-41 -159c-2 -8 -11 -15 -18 -15h-39z" />
    <glyph glyph-name="numbersign" unicode="#" horiz-adv-x="573" 
d="M117 22l23 166h-71c-11 0 -19 9 -19 19v14c0 11 8 19 19 19h78l23 164h-72c-10 0 -19 9 -19 19v14c0 10 9 19 19 19h79l32 228c1 8 9 16 18 16h14c11 0 20 -10 18 -22l-30 -222h158l33 228c1 8 10 16 19 16h12c12 0 21 -10 19 -22l-32 -222h64c11 0 19 -9 19 -19v-14
c0 -10 -8 -19 -19 -19h-71l-23 -164h65c10 0 19 -8 19 -19v-14c0 -10 -9 -19 -19 -19h-73l-22 -172c-1 -9 -9 -16 -19 -16h-13c-12 0 -20 10 -19 22l22 166h-159l-23 -172c-1 -9 -10 -16 -19 -16h-12c-13 0 -21 10 -19 22zM198 240h159l22 164h-158z" />
    <glyph glyph-name="dollar" unicode="$" 
d="M272 -9c-108 8 -172 60 -190 77c-9 9 -14 15 -5 30l39 60c8 13 20 15 40 -2c30 -25 72 -47 116 -54v195c-93 37 -198 90 -198 222c0 95 61 179 198 190v32c0 11 9 19 19 19h13c10 0 19 -8 19 -19v-33c89 -7 158 -52 176 -65c10 -6 13 -22 6 -33l-40 -58
c-8 -11 -19 -14 -28 -8c-28 19 -67 44 -114 54v-183c87 -36 208 -96 208 -227c0 -109 -74 -189 -208 -197v-104c0 -11 -9 -18 -20 -18c-12 0 -31 1 -31 18v104zM272 435v163c-50 -6 -76 -35 -76 -74c0 -40 25 -62 76 -89zM323 100c45 5 77 29 77 74c0 39 -23 74 -77 102
v-176z" />
    <glyph glyph-name="percent" unicode="%" horiz-adv-x="693" 
d="M182 440c-75 0 -135 60 -135 135s60 135 135 135c74 0 135 -60 135 -135s-61 -135 -135 -135zM129 27l343 663c3 6 9 10 17 10h50c15 0 24 -14 17 -27l-345 -663c-2 -4 -9 -10 -17 -10h-48c-15 0 -24 14 -17 27zM182 526c26 0 48 22 48 49c0 26 -22 48 -48 48
c-27 0 -49 -22 -49 -48c0 -27 22 -49 49 -49zM376 125c0 75 61 135 135 135c75 0 136 -60 136 -135s-61 -135 -136 -135c-74 0 -135 60 -135 135zM462 125c0 -27 22 -49 49 -49c26 0 49 22 49 49c0 26 -23 48 -49 48c-27 0 -49 -22 -49 -48z" />
    <glyph glyph-name="ampersand" unicode="&#x26;" horiz-adv-x="678" 
d="M52 178c0 132 120 190 138 201v2l-21 23c-40 42 -68 85 -68 144c0 76 63 162 189 162c112 0 189 -73 189 -163c0 -103 -102 -164 -122 -182l115 -116c16 32 29 73 36 111c4 21 10 32 33 25l55 -16c26 -7 19 -29 17 -39c-17 -72 -49 -135 -62 -159l89 -84
c12 -12 22 -23 -2 -46l-41 -42c-12 -11 -28 -13 -44 3l-72 73c-18 -21 -88 -85 -218 -85c-127 0 -211 86 -211 188zM286 436c15 9 85 43 85 105c0 38 -33 75 -85 75c-46 0 -74 -31 -74 -68c0 -35 21 -59 52 -90zM171 191c0 -55 46 -94 105 -94c75 0 114 42 129 59l-149 158
c-16 -10 -85 -43 -85 -123z" />
    <glyph glyph-name="quotesingle" unicode="'" horiz-adv-x="201" 
d="M70 501c-10 0 -19 9 -19 19v161c0 10 9 19 19 19h80c13 0 22 -11 18 -25l-41 -159c-2 -8 -11 -15 -18 -15h-39z" />
    <glyph glyph-name="parenleft" unicode="(" horiz-adv-x="339" 
d="M289 -79c-114 8 -248 80 -248 394s134 388 248 394c11 1 19 -6 19 -15l3 -66c1 -8 -5 -17 -12 -18c-98 -26 -135 -129 -135 -295c0 -167 37 -268 135 -294c9 -2 13 -11 12 -19l-3 -65c-1 -10 -8 -16 -19 -16z" />
    <glyph glyph-name="parenright" unicode=")" horiz-adv-x="339" 
d="M28 2c-1 8 3 17 12 19c98 26 135 127 135 294c0 166 -37 269 -135 295c-7 1 -13 10 -12 18l3 66c0 9 8 16 19 15c114 -6 248 -80 248 -394s-134 -386 -248 -394c-11 0 -18 6 -19 16z" />
    <glyph glyph-name="asterisk" unicode="*" horiz-adv-x="432" 
d="M200 370c-10 0 -19 9 -19 19l2 87l-72 -50c-8 -6 -21 -3 -26 5l-17 27c-6 9 -4 21 5 27l83 50l-83 50c-9 6 -11 18 -6 27c8 11 12 18 19 27c5 7 17 10 25 4l72 -50l-2 88c0 10 9 19 19 19h32c10 0 19 -9 19 -19l-2 -88l72 51c8 5 21 3 26 -5l17 -27c6 -9 5 -21 -5 -27
l-83 -50l83 -51c10 -6 11 -18 6 -26l-19 -27c-5 -9 -17 -11 -25 -6l-72 50l2 -86c0 -10 -9 -19 -19 -19h-32z" />
    <glyph glyph-name="plus" unicode="+" 
d="M253 150v149h-150c-10 0 -19 9 -19 19v56c0 10 9 19 19 19h150v151c0 10 9 18 19 18h56c10 0 19 -8 19 -18v-151h151c10 0 18 -9 18 -19v-56c0 -10 -8 -19 -18 -19h-151v-149c0 -10 -9 -18 -19 -18h-56c-10 0 -19 8 -19 18z" />
    <glyph glyph-name="comma" unicode="," horiz-adv-x="267" 
d="M40 90c0 46 36 81 86 81c55 0 100 -46 100 -132c0 -96 -40 -166 -80 -219c-7 -7 -15 -8 -23 -1l-31 22c-8 8 -6 17 1 25c30 39 56 89 56 136c0 9 -1 15 -3 21c-10 -7 -23 -11 -37 -11c-45 0 -69 35 -69 78z" />
    <glyph glyph-name="hyphen" unicode="-" horiz-adv-x="371" 
d="M74 192c-11 0 -19 8 -19 18v67c0 11 8 19 19 19h223c11 0 19 -8 19 -19v-67c0 -10 -8 -18 -19 -18h-223z" />
    <glyph glyph-name="period" unicode="." horiz-adv-x="269" 
d="M39 84c0 52 43 96 95 96s96 -44 96 -96c0 -51 -44 -95 -96 -95s-95 44 -95 95z" />
    <glyph glyph-name="slash" unicode="/" horiz-adv-x="414" 
d="M55 25l196 662c2 7 10 13 18 13h72c14 0 22 -11 18 -25l-195 -662c-2 -7 -11 -13 -18 -13h-73c-13 0 -22 11 -18 25z" />
    <glyph glyph-name="zero" unicode="0" horiz-adv-x="641" 
d="M320 -10c-164 0 -259 135 -259 360c0 226 95 360 259 360c165 0 260 -134 260 -360c0 -225 -95 -360 -260 -360zM320 108c80 0 130 89 130 242s-50 241 -130 241c-79 0 -129 -88 -129 -241s50 -242 129 -242z" />
    <glyph glyph-name="one" unicode="1" horiz-adv-x="373" 
d="M151 20v493l-90 -20c-10 -2 -20 4 -21 14l-6 50c-1 11 1 15 10 22l128 108c10 9 21 13 35 13h52c11 0 19 -9 19 -19v-661c0 -11 -8 -20 -19 -20h-88c-12 0 -20 9 -20 20z" />
    <glyph glyph-name="two" unicode="2" horiz-adv-x="553" 
d="M247 112v-2h220c11 0 20 -9 20 -19v-71c0 -11 -9 -20 -20 -20h-406c-11 0 -19 9 -19 20v10c0 11 5 19 8 23c70 86 193 246 259 333c32 39 52 79 52 114c0 46 -35 93 -109 93c-49 0 -92 -35 -115 -60c-9 -9 -20 -9 -28 0l-50 49c-6 6 -8 19 -1 27c0 0 81 101 203 101
c148 0 230 -94 230 -205c0 -67 -29 -108 -69 -166c-43 -62 -121 -158 -175 -227z" />
    <glyph glyph-name="three" unicode="3" horiz-adv-x="558" 
d="M48 81c-6 8 -5 19 1 26l53 51c9 8 18 8 26 0c28 -28 64 -56 127 -56s109 40 109 93c0 66 -49 106 -142 106h-58c-11 0 -19 8 -19 20v65c0 14 7 21 19 21h58c85 0 128 41 128 94c0 56 -48 94 -100 94c-54 0 -87 -28 -104 -49c-7 -8 -19 -9 -28 -1l-50 47c-9 7 -7 19 0 27
c30 38 94 91 193 91c120 0 220 -73 220 -189c0 -89 -60 -138 -106 -159v-4c55 -21 124 -76 124 -167c0 -117 -95 -201 -237 -201c-128 0 -191 65 -214 91z" />
    <glyph glyph-name="four" unicode="4" horiz-adv-x="638" 
d="M49 149c-11 0 -20 10 -20 20v65c0 14 4 25 13 35l354 430c7 8 13 11 26 11h49c11 0 20 -9 20 -20v-434h82c12 0 20 -8 20 -18v-69c0 -10 -8 -20 -20 -20h-82l1 -129c0 -11 -9 -20 -20 -20h-85c-10 0 -20 9 -20 20v129h-318zM167 255v-2h204v249h-2z" />
    <glyph glyph-name="five" unicode="5" horiz-adv-x="565" 
d="M70 75c-14 16 -15 23 -2 35l51 51c7 6 17 8 25 1c29 -24 71 -58 133 -58c70 0 119 57 119 122c0 63 -43 115 -124 115h-159c-21 0 -32 19 -32 36v304c0 10 8 19 20 19h325c11 0 20 -9 20 -19v-70c0 -11 -9 -20 -20 -20h-229v-137h89c146 0 236 -94 236 -228
c0 -129 -107 -236 -249 -236c-111 0 -178 54 -203 85z" />
    <glyph glyph-name="six" unicode="6" horiz-adv-x="581" 
d="M55 274c0 301 255 415 343 444c15 4 25 -1 29 -14l24 -61c5 -12 1 -24 -19 -30c-48 -15 -194 -79 -226 -193c17 11 69 29 117 29c103 0 210 -76 210 -223c0 -130 -106 -236 -233 -236c-161 0 -245 129 -245 284zM299 105c65 0 118 50 118 123c0 69 -53 121 -119 121
c-68 0 -108 -53 -119 -90c0 -71 37 -154 120 -154z" />
    <glyph glyph-name="seven" unicode="7" horiz-adv-x="517" 
d="M332 587v2h-271c-10 0 -19 9 -19 20v72c0 10 9 19 19 19h429c10 0 20 -9 20 -19c0 -4 0 -7 -4 -15l-303 -638c-8 -17 -18 -28 -35 -28h-77c-12 0 -25 3 -25 20c0 8 1 13 5 21z" />
    <glyph glyph-name="eight" unicode="8" horiz-adv-x="607" 
d="M59 187c0 90 67 146 125 172v4c-49 21 -106 78 -106 158c0 115 99 189 223 189c129 0 228 -74 228 -189c0 -78 -59 -135 -106 -157v-5c62 -26 125 -83 125 -172c0 -112 -95 -197 -247 -197c-147 0 -242 85 -242 197zM304 419c63 15 93 53 93 97c0 49 -38 88 -96 88
c-54 0 -91 -39 -91 -88c0 -46 29 -81 94 -97zM196 190c0 -57 43 -95 108 -95c64 0 107 38 107 95c0 46 -38 93 -107 109c-69 -16 -108 -63 -108 -109z" />
    <glyph glyph-name="nine" unicode="9" horiz-adv-x="581" 
d="M130 57c-5 12 -1 23 19 30c48 15 195 79 226 192c-17 -10 -69 -29 -117 -29c-103 0 -210 77 -210 224c0 130 106 236 233 236c161 0 245 -130 245 -284c0 -301 -255 -416 -343 -444c-15 -5 -25 1 -29 14zM283 351c68 0 108 53 119 90c0 70 -37 153 -120 153
c-65 0 -118 -57 -118 -122c0 -66 53 -121 119 -121z" />
    <glyph glyph-name="colon" unicode=":" horiz-adv-x="283" 
d="M141 307c-46 0 -83 36 -83 83c0 46 37 82 83 82c47 0 84 -36 84 -82c0 -47 -37 -83 -84 -83zM58 72c0 47 37 83 83 83c47 0 84 -36 84 -83c0 -46 -37 -83 -84 -83c-46 0 -83 37 -83 83z" />
    <glyph glyph-name="semicolon" unicode=";" horiz-adv-x="271" 
d="M138 307c-47 0 -83 36 -83 83c0 46 36 82 83 82c46 0 82 -36 82 -82c0 -47 -36 -83 -82 -83zM52 70c0 42 33 73 78 73c49 0 90 -41 90 -119c0 -86 -36 -149 -72 -197c-7 -6 -14 -7 -21 -1l-28 20c-7 7 -5 15 1 23c27 35 50 80 50 122c0 8 -1 13 -2 19
c-9 -6 -21 -10 -34 -10c-40 0 -62 31 -62 70z" />
    <glyph glyph-name="less" unicode="&#x3c;" 
d="M103 210c-5 3 -10 11 -10 17v5c0 6 5 14 10 17l347 212c13 8 28 0 28 -16v-70c0 -9 -5 -13 -9 -16l-215 -128l215 -124c4 -3 9 -7 9 -16v-70c0 -16 -15 -24 -28 -16z" />
    <glyph glyph-name="equal" unicode="=" 
d="M137 338c-11 0 -19 9 -19 19v56c0 10 8 19 19 19h326c11 0 19 -9 19 -19v-56c0 -10 -8 -19 -19 -19h-326zM137 127c-11 0 -19 9 -19 19v57c0 10 8 19 19 19h326c11 0 19 -9 19 -19v-57c0 -10 -8 -19 -19 -19h-326z" />
    <glyph glyph-name="greater" unicode="&#x3e;" 
d="M122 21v70c0 9 4 13 9 16l214 124l-214 128c-5 3 -9 7 -9 16v70c0 16 15 24 28 16l347 -212c5 -3 10 -11 10 -17v-5c0 -6 -5 -14 -10 -17l-347 -205c-13 -8 -28 0 -28 16z" />
    <glyph glyph-name="question" unicode="?" horiz-adv-x="498" 
d="M189 272c-10 0 -19 8 -19 19v42c0 95 139 131 139 201c0 36 -30 67 -80 67c-61 0 -88 -39 -108 -52c-8 -5 -15 -5 -22 1l-47 46c-8 7 -7 19 0 26c0 0 68 88 196 88c105 0 194 -70 194 -168c0 -121 -152 -156 -152 -216v-33c0 -12 -7 -21 -20 -21h-81zM147 72
c0 45 37 83 82 83s83 -38 83 -83s-38 -82 -83 -82s-82 37 -82 82z" />
    <glyph glyph-name="at" unicode="@" horiz-adv-x="1015" 
d="M57 223c0 284 192 487 476 487c277 0 436 -181 436 -422c0 -132 -81 -268 -227 -268c-69 0 -103 36 -119 78h-8c-21 -42 -67 -78 -130 -78c-105 0 -181 96 -181 211c0 120 77 209 184 209c64 0 105 -42 121 -59c12 33 10 49 47 49h17c10 0 19 -8 19 -19v-183
c0 -90 29 -106 62 -106c65 0 103 73 103 161c0 183 -109 324 -328 324c-221 0 -363 -147 -363 -384c0 -163 100 -293 241 -352c11 -5 15 -13 11 -24l-24 -63c-4 -10 -12 -15 -22 -11c-181 66 -315 240 -315 450zM408 238c-4 -64 39 -111 87 -111c64 0 83 54 85 109v37
c-5 24 -38 66 -86 66s-83 -41 -86 -101z" />
    <glyph glyph-name="A" unicode="A" horiz-adv-x="668" 
d="M19 0c-15 0 -23 13 -17 26l311 673c3 6 8 11 17 11h10c10 0 14 -5 17 -11l308 -673c6 -13 -2 -26 -17 -26h-87c-15 0 -22 6 -29 20l-49 108h-299l-49 -108c-4 -10 -13 -20 -29 -20h-87zM233 239h201l-100 220h-3z" />
    <glyph glyph-name="B" unicode="B" horiz-adv-x="616" 
d="M444 359v-5c58 -20 120 -67 120 -161c0 -112 -96 -193 -218 -193h-242c-11 0 -19 9 -19 19v662c0 10 8 19 19 19h229c119 0 211 -80 211 -185c0 -75 -48 -130 -100 -156zM214 406h109c51 0 84 40 84 90s-33 85 -84 85h-109v-175zM214 118h123c50 0 88 39 88 91
c0 50 -38 87 -88 87h-123v-178z" />
    <glyph glyph-name="C" unicode="C" horiz-adv-x="688" 
d="M44 349c0 200 161 361 361 361c101 0 174 -32 242 -93c9 -8 9 -20 1 -28l-61 -63c-7 -8 -17 -8 -25 0c-42 37 -98 59 -154 59c-128 0 -223 -107 -223 -233c0 -125 96 -231 224 -231c60 0 111 23 153 57c8 7 19 6 25 0l62 -64c8 -7 6 -20 -1 -27
c-68 -66 -154 -97 -243 -97c-200 0 -361 159 -361 359z" />
    <glyph glyph-name="D" unicode="D" horiz-adv-x="735" 
d="M85 19v662c0 10 8 19 18 19h237c193 0 351 -157 351 -349c0 -194 -158 -351 -351 -351h-237c-10 0 -18 9 -18 19zM214 122h114c130 0 225 92 225 229c0 136 -95 228 -225 228h-114v-457z" />
    <glyph glyph-name="E" unicode="E" horiz-adv-x="576" 
d="M85 19v662c0 10 8 19 19 19h407c11 0 19 -9 19 -19v-82c0 -10 -8 -19 -19 -19h-296v-164h247c10 0 19 -9 19 -19v-83c0 -11 -9 -19 -19 -19h-247v-175h296c11 0 19 -9 19 -19v-82c0 -10 -8 -19 -19 -19h-407c-11 0 -19 9 -19 19z" />
    <glyph glyph-name="F" unicode="F" horiz-adv-x="557" 
d="M85 19v662c0 10 8 19 19 19h407c11 0 19 -9 19 -19v-82c0 -10 -8 -19 -19 -19h-296v-188h247c10 0 19 -9 19 -19v-82c0 -10 -9 -19 -19 -19h-247v-253c0 -10 -9 -19 -19 -19h-92c-11 0 -19 9 -19 19z" />
    <glyph glyph-name="G" unicode="G" horiz-adv-x="718" 
d="M44 349c0 200 160 361 359 361c90 0 176 -35 244 -93c8 -8 9 -20 1 -28l-62 -65c-8 -8 -17 -8 -26 0c-43 38 -96 58 -151 58c-125 0 -224 -107 -224 -232c0 -124 99 -229 225 -229c56 0 99 17 119 25v85h-80c-11 0 -19 8 -19 18v79c0 11 8 19 19 19h192
c10 0 18 -9 18 -19v-256c0 -8 -4 -13 -8 -16c0 0 -103 -65 -248 -65c-199 0 -359 158 -359 358z" />
    <glyph glyph-name="H" unicode="H" horiz-adv-x="757" 
d="M85 19v662c0 10 9 19 19 19h93c11 0 19 -9 19 -19v-265h326v265c0 10 8 19 19 19h92c10 0 19 -9 19 -19v-662c0 -10 -9 -19 -19 -19h-92c-11 0 -19 9 -19 19v276h-326v-276c0 -10 -8 -19 -19 -19h-93c-10 0 -19 9 -19 19z" />
    <glyph glyph-name="I" unicode="I" horiz-adv-x="301" 
d="M85 19v662c0 10 9 19 19 19h93c10 0 19 -9 19 -19v-662c0 -10 -9 -19 -19 -19h-93c-10 0 -19 9 -19 19z" />
    <glyph glyph-name="J" unicode="J" horiz-adv-x="456" 
d="M14 63c-5 8 -4 18 2 25l52 53c11 10 21 8 30 -1c13 -14 33 -32 66 -32c41 0 80 22 80 91v482c0 10 8 19 19 19h94c11 0 19 -9 19 -19v-482c0 -139 -93 -209 -210 -209c-87 0 -135 52 -152 73z" />
    <glyph glyph-name="K" unicode="K" horiz-adv-x="642" 
d="M85 24v652c0 13 10 24 24 24h88c13 0 24 -11 24 -24v-270l252 284c4 5 10 10 19 10h100c19 0 29 -21 16 -36l-261 -294l280 -335c10 -13 2 -35 -18 -35h-109c-10 0 -16 4 -18 7l-261 322v-305c0 -13 -11 -24 -24 -24h-88c-14 0 -24 11 -24 24z" />
    <glyph glyph-name="L" unicode="L" horiz-adv-x="505" 
d="M85 19v662c0 10 8 19 19 19h92c10 0 19 -9 19 -19v-561h255c11 0 19 -9 19 -19v-82c0 -10 -8 -19 -19 -19h-366c-11 0 -19 9 -19 19z" />
    <glyph glyph-name="M" unicode="M" horiz-adv-x="876" 
d="M47 23l119 672c1 8 7 15 18 15h16c8 0 14 -4 17 -10l220 -472h3l220 472c3 6 8 10 17 10h16c11 0 17 -7 18 -15l118 -672c3 -14 -5 -23 -18 -23h-91c-9 0 -17 8 -19 15l-59 379h-3l-175 -393c-2 -6 -8 -11 -17 -11h-18c-9 0 -14 5 -17 11l-177 393h-3l-58 -379
c-1 -7 -9 -15 -18 -15h-90c-13 0 -21 9 -19 23z" />
    <glyph glyph-name="N" unicode="N" horiz-adv-x="761" 
d="M85 19v673c0 10 9 18 19 18h15c7 0 12 -2 17 -7l408 -435h2v413c0 10 8 19 19 19h92c10 0 19 -9 19 -19v-673c0 -10 -9 -18 -19 -18h-14c-7 0 -12 2 -17 7l-410 452h-2v-430c0 -10 -8 -19 -19 -19h-91c-10 0 -19 9 -19 19z" />
    <glyph glyph-name="O" unicode="O" horiz-adv-x="807" 
d="M44 349c0 200 159 361 359 361s360 -161 360 -361s-160 -359 -360 -359s-359 159 -359 359zM174 349c0 -126 103 -229 229 -229s230 103 230 229s-104 231 -230 231s-229 -105 -229 -231z" />
    <glyph glyph-name="P" unicode="P" horiz-adv-x="589" 
d="M85 19v662c0 10 8 19 19 19h235c123 0 224 -100 224 -221c0 -124 -101 -225 -223 -225h-125v-235c0 -10 -9 -19 -19 -19h-92c-11 0 -19 9 -19 19zM215 376h120c56 0 99 45 99 104c0 55 -43 97 -99 97h-120v-201z" />
    <glyph glyph-name="Q" unicode="Q" horiz-adv-x="807" 
d="M44 349c0 200 159 361 359 361s360 -161 360 -361c0 -136 -79 -256 -195 -320l125 -197c9 -14 0 -30 -16 -30h-106c-4 0 -13 4 -16 10l-107 181c-16 -2 -33 -3 -45 -3c-200 0 -359 159 -359 359zM174 349c0 -126 103 -229 229 -229s230 103 230 229s-104 231 -230 231
s-229 -105 -229 -231z" />
    <glyph glyph-name="R" unicode="R" horiz-adv-x="660" 
d="M85 19v662c0 10 8 19 19 19h286c120 0 218 -96 218 -215c0 -92 -61 -167 -148 -202l137 -254c7 -13 0 -29 -17 -29h-105c-9 0 -14 5 -16 9l-133 265h-111v-255c0 -10 -9 -19 -19 -19h-92c-11 0 -19 9 -19 19zM216 381h163c53 0 99 46 99 102c0 53 -46 97 -99 97h-163
v-199z" />
    <glyph glyph-name="S" unicode="S" horiz-adv-x="545" 
d="M276 -10c-126 0 -191 53 -220 78c-10 8 -14 14 -5 30l36 62c8 14 25 14 34 7c41 -31 86 -62 151 -62c52 0 91 34 91 77c0 51 -43 86 -127 120c-94 38 -188 98 -188 216c0 89 66 192 225 192c102 0 180 -52 200 -67c10 -6 13 -23 6 -33l-38 -57c-8 -12 -23 -20 -35 -12
c-43 27 -84 55 -139 55c-57 0 -88 -32 -88 -70c0 -47 37 -79 118 -112c97 -39 209 -97 209 -226c0 -103 -89 -198 -230 -198z" />
    <glyph glyph-name="T" unicode="T" horiz-adv-x="527" 
d="M198 19v561h-153c-11 0 -19 9 -19 19v82c0 10 8 19 19 19h437c11 0 19 -9 19 -19v-82c0 -10 -8 -19 -19 -19h-153v-561c0 -10 -9 -19 -19 -19h-93c-10 0 -19 9 -19 19z" />
    <glyph glyph-name="U" unicode="U" horiz-adv-x="713" 
d="M78 257v424c0 10 9 19 19 19h95c11 0 19 -9 19 -19v-417c0 -85 58 -144 145 -144s146 59 146 143v418c0 10 8 19 19 19h95c10 0 19 -9 19 -19v-424c0 -152 -121 -267 -279 -267c-157 0 -278 115 -278 267z" />
    <glyph glyph-name="V" unicode="V" horiz-adv-x="665" 
d="M310 1l-309 673c-6 13 2 26 17 26h102c9 0 15 -6 17 -11l193 -430h5l193 430c2 5 8 11 17 11h102c15 0 23 -13 17 -26l-310 -673c-3 -6 -8 -11 -17 -11h-10c-9 0 -14 5 -17 11z" />
    <glyph glyph-name="W" unicode="W" horiz-adv-x="885" 
d="M211 4l-189 672c-4 14 4 24 18 24h92c8 0 16 -7 18 -14l104 -399h4l159 412c2 6 7 11 17 11h18c10 0 15 -5 17 -11l160 -412h4l102 399c2 7 10 14 18 14h92c14 0 22 -10 18 -24l-189 -672c-2 -8 -10 -14 -18 -14h-16c-9 0 -15 5 -17 11l-179 453h-5l-177 -453
c-3 -6 -7 -11 -17 -11h-16c-8 0 -16 6 -18 14z" />
    <glyph glyph-name="X" unicode="X" horiz-adv-x="622" 
d="M25 28l208 331l-200 313c-8 13 0 28 17 28h116c8 0 13 -5 16 -9l126 -212h4l129 212c2 4 8 9 16 9h116c17 0 25 -15 17 -28l-201 -313l208 -331c8 -14 0 -28 -17 -28h-108c-8 0 -15 5 -17 9l-143 229h-4l-140 -229c-3 -4 -9 -9 -17 -9h-108c-18 0 -26 15 -18 28z" />
    <glyph glyph-name="Y" unicode="Y" horiz-adv-x="593" 
d="M231 19v318l-228 334c-8 13 0 29 16 29h102c8 0 13 -5 16 -9l160 -230l160 230c3 4 8 9 16 9h103c16 0 24 -16 16 -29l-231 -333v-319c0 -10 -9 -19 -19 -19h-92c-11 0 -19 9 -19 19z" />
    <glyph glyph-name="Z" unicode="Z" horiz-adv-x="538" 
d="M216 123v-2h255c11 0 19 -9 19 -19v-83c0 -10 -8 -19 -19 -19h-427c-10 0 -19 9 -19 19c0 11 0 18 7 31l291 525v4h-250c-10 0 -19 9 -19 19v83c0 10 9 19 19 19h418c10 0 19 -9 19 -19c0 -6 0 -13 -9 -29z" />
    <glyph glyph-name="bracketleft" unicode="[" horiz-adv-x="353" 
d="M180 -138h130c10 0 19 -8 19 -18v-63c0 -10 -9 -19 -19 -19h-226c-10 0 -19 9 -19 19v900c0 10 9 19 19 19h226c10 0 19 -9 19 -19v-62c0 -11 -9 -19 -19 -19h-130v-738z" />
    <glyph glyph-name="backslash" unicode="\" horiz-adv-x="416" 
d="M249 13l-195 662c-4 14 4 25 18 25h76c8 0 16 -6 18 -13l196 -662c4 -14 -5 -25 -18 -25h-77c-7 0 -16 6 -18 13z" />
    <glyph glyph-name="bracketright" unicode="]" horiz-adv-x="353" 
d="M43 -138h130v738h-130c-10 0 -19 8 -19 19v62c0 10 9 19 19 19h226c10 0 19 -9 19 -19v-900c0 -10 -9 -19 -19 -19h-226c-10 0 -19 9 -19 19v63c0 10 9 18 19 18z" />
    <glyph glyph-name="asciicircum" unicode="^" horiz-adv-x="524" 
d="M53 385c-16 0 -24 15 -16 28l208 291c3 5 9 10 17 10h5c8 0 14 -5 17 -10l203 -291c8 -13 0 -28 -16 -28h-69c-7 0 -13 5 -16 9l-123 169l-125 -169c-3 -4 -9 -9 -16 -9h-69z" />
    <glyph glyph-name="underscore" unicode="_" horiz-adv-x="603" 
d="M113 -29c0 11 8 19 19 19h339c11 0 19 -8 19 -19v-39c0 -10 -8 -18 -19 -18h-339c-11 0 -19 8 -19 18v39z" />
    <glyph glyph-name="grave" unicode="`" horiz-adv-x="302" 
d="M234 528l-175 77c-8 4 -13 14 -6 27l28 51c5 9 17 9 26 3l164 -97c6 -3 10 -11 6 -19l-18 -36c-4 -9 -11 -12 -25 -6z" />
    <glyph glyph-name="a" unicode="a" horiz-adv-x="482" 
d="M32 147c0 82 67 145 184 145c47 0 89 -13 89 -13c2 59 -15 87 -64 87c-42 0 -103 -9 -130 -17c-15 -5 -24 6 -26 20l-10 52c-4 17 5 25 15 28c10 4 83 23 158 23c144 0 174 -75 174 -201v-249c0 -12 -10 -22 -22 -22h-34c-8 0 -14 3 -20 16l-13 31
c-27 -26 -73 -58 -145 -58c-92 0 -156 59 -156 158zM152 147c0 -39 24 -65 67 -65c41 0 77 32 83 49v68s-31 14 -68 14c-53 0 -82 -25 -82 -66z" />
    <glyph glyph-name="b" unicode="b" horiz-adv-x="563" 
d="M64 22v656c0 11 11 22 22 22h81c12 0 22 -11 22 -22v-226c21 9 67 20 113 20c137 0 224 -106 224 -241c0 -132 -91 -242 -217 -242c-101 0 -154 69 -154 69l-11 -36c-5 -13 -12 -22 -23 -22h-35c-11 0 -22 10 -22 22zM189 167c10 -26 42 -64 102 -64c72 0 109 63 109 128
s-39 127 -115 127c-58 0 -96 -26 -96 -26v-165z" />
    <glyph glyph-name="c" unicode="c" horiz-adv-x="492" 
d="M36 231c0 136 108 241 245 241c72 0 128 -31 172 -78c10 -10 5 -23 -5 -33l-42 -46c-10 -11 -21 -6 -30 3c-22 21 -49 40 -92 40c-72 0 -122 -56 -122 -127c0 -72 49 -128 121 -128c51 0 78 28 98 51c7 8 21 10 29 3l45 -38c11 -10 16 -21 8 -33
c-39 -61 -101 -97 -183 -97c-135 0 -244 103 -244 242z" />
    <glyph glyph-name="d" unicode="d" horiz-adv-x="565" 
d="M36 231c0 135 91 241 229 241c46 0 90 -11 111 -19v225c0 11 11 22 22 22h81c12 0 22 -11 22 -22v-656c0 -12 -10 -22 -22 -22h-37c-11 0 -18 9 -22 22l-12 36s-53 -69 -151 -69c-126 0 -221 102 -221 242zM376 167v165s-38 26 -96 26c-76 0 -115 -62 -115 -127
s37 -128 109 -128c60 0 92 38 102 64z" />
    <glyph glyph-name="e" unicode="e" horiz-adv-x="511" 
d="M36 231c0 130 96 241 233 241c120 0 212 -89 212 -214c0 -7 -1 -23 -2 -30c-1 -12 -12 -21 -22 -21h-296c1 -57 48 -107 115 -107c46 0 78 17 99 34c11 9 23 10 30 0l39 -52c8 -9 9 -20 -2 -30c-40 -34 -97 -63 -172 -63c-138 0 -234 110 -234 242zM168 289h187
c-2 45 -38 80 -89 80c-56 0 -92 -34 -98 -80z" />
    <glyph glyph-name="f" unicode="f" horiz-adv-x="394" 
d="M102 22v328h-48c-13 0 -22 11 -22 22v68c0 13 9 22 22 22h48v55c0 123 65 193 187 193c61 0 115 -26 136 -45c8 -5 10 -18 5 -26l-35 -61c-5 -9 -18 -12 -28 -6c-15 10 -47 24 -72 24c-58 0 -68 -31 -68 -79v-55h126c13 0 22 -9 22 -22v-68c0 -11 -9 -22 -22 -22h-126
v-328c0 -12 -10 -22 -22 -22h-81c-12 0 -22 10 -22 22z" />
    <glyph glyph-name="g" unicode="g" horiz-adv-x="565" 
d="M376 129v165c-10 26 -42 64 -102 64c-72 0 -109 -63 -109 -128s39 -127 115 -127c58 0 96 26 96 26zM501 440v-445c0 -149 -104 -224 -230 -224c-76 0 -144 35 -166 52c-7 6 -10 18 -5 26l30 65c4 9 17 12 27 6c17 -10 62 -35 110 -35c71 0 109 24 109 110v13
c-21 -8 -65 -19 -111 -19c-138 0 -229 106 -229 241c0 140 95 242 221 242c98 0 151 -69 151 -69l12 37c4 13 11 22 22 22h37c12 0 22 -10 22 -22z" />
    <glyph glyph-name="h" unicode="h" horiz-adv-x="552" 
d="M64 22v656c0 11 11 22 22 22h81c12 0 22 -11 22 -22v-245c23 20 63 39 118 39c147 0 187 -102 187 -218v-232c0 -12 -11 -22 -22 -22h-81c-12 0 -22 10 -22 22v233c0 64 -29 103 -84 103c-54 0 -84 -34 -96 -81v-255c0 -13 -6 -22 -24 -22h-79c-11 0 -22 10 -22 22z" />
    <glyph glyph-name="i" unicode="i" horiz-adv-x="253" 
d="M64 22v418c0 13 11 22 22 22h81c11 0 22 -9 22 -22v-418c0 -12 -11 -22 -22 -22h-81c-11 0 -22 10 -22 22zM125 541c-45 0 -79 36 -79 80s34 79 79 79s80 -35 80 -79s-35 -80 -80 -80z" />
    <glyph glyph-name="j" unicode="j" horiz-adv-x="253" 
d="M189 440v-459c0 -137 -64 -193 -140 -226c-16 -7 -37 -8 -44 10l-24 56c-7 18 -5 31 12 40c33 18 71 41 71 103v476c0 13 11 22 22 22h81c11 0 22 -9 22 -22zM125 541c-45 0 -79 36 -79 80s34 79 79 79s80 -35 80 -79s-35 -80 -80 -80z" />
    <glyph glyph-name="k" unicode="k" horiz-adv-x="517" 
d="M64 22v656c0 11 11 22 22 22h81c12 0 22 -11 22 -22v-391l159 161c8 7 16 14 29 14h94c19 0 26 -21 15 -34l-183 -180l192 -215c12 -13 5 -33 -14 -33h-98c-8 0 -17 4 -20 9l-174 208v-195c0 -12 -10 -22 -22 -22h-81c-11 0 -22 10 -22 22z" />
    <glyph glyph-name="l" unicode="l" horiz-adv-x="255" 
d="M65 22v656c0 11 11 22 22 22h81c11 0 22 -11 22 -22v-656c0 -12 -11 -22 -22 -22h-81c-11 0 -22 10 -22 22z" />
    <glyph glyph-name="m" unicode="m" horiz-adv-x="828" 
d="M64 22v418c0 13 11 22 22 22h36c10 0 17 -5 19 -13l17 -44c19 22 60 67 141 67c67 0 100 -24 138 -70c20 21 66 70 149 70c148 0 183 -94 183 -214v-236c0 -12 -10 -22 -23 -22h-80c-12 0 -22 10 -22 22v239c0 60 -22 97 -80 97c-67 0 -86 -48 -86 -48s2 -23 2 -44v-244
c0 -12 -11 -22 -22 -22h-82c-13 0 -22 10 -22 22v239c0 60 -17 97 -76 97c-57 0 -78 -40 -89 -72v-264c0 -12 -11 -22 -22 -22h-81c-11 0 -22 10 -22 22z" />
    <glyph glyph-name="n" unicode="n" horiz-adv-x="553" 
d="M64 22v418c0 13 11 22 22 22h38c11 0 16 -5 19 -14l17 -43c17 19 60 67 149 67c147 0 185 -99 185 -211v-239c0 -12 -11 -22 -22 -22h-81c-12 0 -22 10 -22 22v239c0 60 -24 97 -80 97c-60 0 -89 -40 -100 -72v-264c0 -17 -7 -22 -29 -22h-74c-11 0 -22 10 -22 22z" />
    <glyph glyph-name="o" unicode="o" horiz-adv-x="544" 
d="M36 232c0 130 106 240 236 240c131 0 237 -110 237 -240c0 -132 -106 -243 -237 -243c-130 0 -236 111 -236 243zM152 232c0 -71 53 -129 120 -129s121 58 121 129c0 70 -54 126 -121 126s-120 -56 -120 -126z" />
    <glyph glyph-name="p" unicode="p" horiz-adv-x="566" 
d="M529 230c0 -135 -91 -241 -229 -241c-46 0 -90 11 -111 19v-224c0 -11 -11 -22 -22 -22h-81c-12 0 -22 11 -22 22v656c0 12 10 22 22 22h37c11 0 18 -9 22 -22l12 -37s53 69 151 69c126 0 221 -102 221 -242zM189 294v-165s38 -26 96 -26c76 0 115 62 115 127
s-37 128 -109 128c-60 0 -92 -38 -102 -64z" />
    <glyph glyph-name="g.alt" horiz-adv-x="537" 
d="M23 78c0 90 86 119 86 119s-35 23 -35 92c0 108 88 183 202 183h210c13 0 22 -9 22 -22v-37c0 -9 -5 -18 -13 -20l-67 -21s49 -27 49 -100c0 -92 -76 -161 -198 -161c-44 0 -73 10 -92 10c-16 0 -46 -10 -46 -39c0 -24 21 -32 46 -32h151c116 0 186 -39 186 -141
c0 -106 -81 -158 -248 -158c-171 0 -236 45 -236 120c0 69 56 89 69 94v3c-19 5 -86 26 -86 110zM194 283c0 -50 37 -75 85 -75c49 0 84 25 84 75s-35 75 -84 75c-48 0 -85 -25 -85 -75zM165 -97c-2 -39 45 -51 110 -51c66 0 123 11 123 50c0 18 -10 37 -56 37h-120
c-46 0 -56 -19 -57 -36z" />
    <glyph glyph-name="r" unicode="r" horiz-adv-x="387" 
d="M64 22v418c0 13 11 22 22 22h37c11 0 16 -5 20 -15l17 -45c16 23 59 70 130 70c55 0 100 -15 87 -45l-30 -68c-5 -11 -16 -15 -27 -10s-22 9 -43 9c-50 0 -80 -32 -88 -48v-288c0 -17 -11 -22 -26 -22h-77c-11 0 -22 10 -22 22z" />
    <glyph glyph-name="s" unicode="s" horiz-adv-x="413" 
d="M201 -11c-77 0 -125 24 -151 42c-6 4 -11 15 -6 25l30 60c5 11 16 15 27 8c21 -13 54 -30 102 -30c35 0 51 13 51 33c0 21 -26 40 -87 64c-89 34 -129 76 -129 146s53 135 166 135c68 0 112 -18 137 -34c10 -8 16 -20 10 -32l-26 -53c-7 -11 -19 -13 -29 -9
c-22 10 -54 23 -92 23c-31 0 -44 -15 -44 -30c0 -21 23 -32 66 -50c89 -36 153 -68 153 -160c0 -73 -62 -138 -178 -138z" />
    <glyph glyph-name="t" unicode="t" horiz-adv-x="390" 
d="M95 138v212h-45c-12 0 -21 11 -21 22v68c0 13 9 22 21 22h45v128c0 12 11 22 22 22h82c12 0 21 -10 21 -22v-128h108c12 0 22 -9 22 -22v-68c0 -11 -10 -22 -22 -22h-108v-208c0 -31 15 -38 38 -38c20 0 58 11 70 15c13 5 24 -1 26 -12l13 -61c3 -12 -2 -21 -13 -27
c-16 -9 -82 -30 -130 -30c-103 0 -129 69 -129 149z" />
    <glyph glyph-name="u" unicode="u" horiz-adv-x="533" 
d="M59 195v245c0 13 10 22 22 22h81c12 0 22 -9 22 -22v-245c0 -61 21 -92 78 -92c51 0 75 46 82 86v251c0 18 6 22 25 22h78c12 0 22 -9 22 -22v-418c0 -12 -10 -22 -22 -22h-36c-11 0 -19 8 -22 17l-13 39c-24 -25 -72 -67 -143 -67c-143 0 -174 89 -174 206z" />
    <glyph glyph-name="v" unicode="v" horiz-adv-x="491" 
d="M222 1l-207 434c-7 14 -1 27 16 27h95c11 0 17 -5 21 -13l96 -228h2l102 228c6 12 16 13 29 13h84c17 0 24 -13 16 -27l-208 -434c-4 -6 -10 -12 -20 -12h-6c-10 0 -16 6 -20 12z" />
    <glyph glyph-name="w" unicode="w" horiz-adv-x="713" 
d="M167 2l-141 434c-7 14 3 26 19 26h78c6 0 18 -5 20 -14l70 -220h1l121 234c2 5 7 10 18 10h9c11 0 16 -4 19 -10l120 -234h1l69 220c4 13 14 14 26 14h70c16 0 26 -12 21 -26l-142 -434c-2 -7 -10 -13 -21 -13h-4c-10 0 -15 5 -19 11l-145 278h-1l-145 -278
c-3 -6 -10 -11 -18 -11h-6c-11 0 -18 6 -20 13z" />
    <glyph glyph-name="x" unicode="x" horiz-adv-x="513" 
d="M41 0c-20 0 -25 19 -15 34l147 201l-141 193c-12 15 -3 34 16 34h91c15 0 27 -1 38 -16l77 -121h2l79 121c9 13 19 16 35 16h98c20 0 25 -19 13 -34l-142 -191l143 -203c11 -15 6 -34 -13 -34h-96c-15 0 -24 7 -32 19l-85 127h-2l-90 -137c-4 -5 -12 -9 -19 -9h-104z" />
    <glyph glyph-name="y" unicode="y" horiz-adv-x="499" 
d="M165 27l-144 405c-6 16 2 30 20 30h96c10 0 17 -5 19 -13l83 -276h2l105 276c7 12 15 13 29 13h85c18 0 27 -15 20 -30l-272 -656c-3 -7 -11 -14 -20 -14h-96c-18 0 -27 15 -20 31z" />
    <glyph glyph-name="z" unicode="z" horiz-adv-x="408" 
d="M207 113h132c12 0 22 -10 22 -22v-69c0 -12 -10 -22 -22 -22h-285c-12 0 -22 10 -22 22c0 8 0 12 5 21l165 303v2h-139c-11 0 -21 11 -21 22v70c0 13 10 22 21 22h298c14 0 23 -9 23 -21c0 -4 -1 -7 -3 -11l-174 -315v-2z" />
    <glyph glyph-name="braceleft" unicode="{" horiz-adv-x="396" 
d="M103 4v113c0 45 -45 64 -69 68c-8 1 -15 8 -15 18v49c0 10 7 15 14 17c9 2 70 26 70 69v117c0 220 145 251 248 255c11 1 19 -5 20 -17l4 -63c1 -11 -7 -17 -14 -18c-78 -17 -134 -55 -134 -157v-95c0 -86 -74 -126 -83 -130v-4c27 -11 83 -44 83 -125v-97
c0 -102 56 -137 134 -153c7 -2 15 -8 14 -19l-4 -63c-1 -10 -10 -18 -20 -17c-103 4 -248 32 -248 252z" />
    <glyph glyph-name="bar" unicode="|" horiz-adv-x="178" 
d="M64 -220v961c0 11 9 19 19 19h13c10 0 18 -8 18 -19v-961c0 -10 -9 -18 -19 -18h-12c-10 0 -19 8 -19 18z" />
    <glyph glyph-name="braceright" unicode="}" horiz-adv-x="396" 
d="M169 4v97c0 81 56 114 83 125v4c-9 4 -83 44 -83 130v95c0 102 -56 140 -134 157c-7 1 -15 7 -14 18l4 63c1 12 9 18 20 17c103 -4 248 -35 248 -255v-117c0 -43 61 -67 70 -69c7 -2 14 -7 14 -17v-49c0 -10 -7 -17 -15 -18c-24 -4 -69 -23 -69 -68v-113
c0 -220 -145 -249 -248 -253c-12 0 -19 7 -20 17l-4 63c-1 11 7 17 14 19c78 16 134 52 134 154z" />
    <glyph glyph-name="asciitilde" unicode="~" horiz-adv-x="544" 
d="M84 194c-16 16 -28 28 -45 44c-6 7 -8 17 -2 24c0 0 72 99 150 99c43 0 73 -22 101 -41c20 -13 45 -32 73 -32c34 0 61 32 74 52c8 10 20 10 29 2l42 -44c7 -6 8 -17 2 -24c0 0 -70 -98 -147 -98c-48 0 -79 23 -110 43c-19 13 -39 28 -65 28c-34 0 -61 -31 -74 -51
c-7 -10 -20 -11 -28 -2z" />
    <glyph glyph-name="uni00A0" unicode="&#xa0;" horiz-adv-x="240" 
 />
    <glyph glyph-name="Agrave" unicode="&#xc0;" horiz-adv-x="668" 
d="M19 0c-15 0 -23 13 -17 26l311 673c3 6 8 11 17 11h10c10 0 14 -5 17 -11l308 -673c6 -13 -2 -26 -17 -26h-87c-15 0 -22 6 -29 20l-49 108h-299l-49 -108c-4 -10 -13 -20 -29 -20h-87zM233 239h201l-100 220h-3zM404 768l-175 77c-9 4 -13 15 -6 27l28 52c5 9 18 8 26 3
l164 -98c5 -3 10 -11 6 -19l-18 -35c-4 -9 -11 -13 -25 -7z" />
    <glyph glyph-name="Aacute" unicode="&#xc1;" horiz-adv-x="668" 
d="M19 0c-15 0 -23 13 -17 26l311 673c3 6 8 11 17 11h10c10 0 14 -5 17 -11l308 -673c6 -13 -2 -26 -17 -26h-87c-15 0 -22 6 -29 20l-49 108h-299l-49 -108c-4 -10 -13 -20 -29 -20h-87zM233 239h201l-100 220h-3zM263 768c-14 -6 -21 -2 -25 7l-18 35c-4 8 1 16 6 19
l164 98c11 7 21 6 26 -3l28 -52c7 -12 3 -23 -6 -27z" />
    <glyph glyph-name="Acircumflex" unicode="&#xc2;" horiz-adv-x="668" 
d="M19 0c-15 0 -23 13 -17 26l311 673c3 6 8 11 17 11h10c10 0 14 -5 17 -11l308 -673c6 -13 -2 -26 -17 -26h-87c-15 0 -22 6 -29 20l-49 108h-299l-49 -108c-4 -10 -13 -20 -29 -20h-87zM233 239h201l-100 220h-3zM236 766c-12 -7 -17 -5 -23 3l-26 37c-5 7 0 15 6 19
l130 101c6 5 14 5 21 0l130 -101c6 -4 11 -12 6 -19l-26 -37c-6 -8 -11 -10 -23 -3l-97 61z" />
    <glyph glyph-name="Atilde" unicode="&#xc3;" horiz-adv-x="668" 
d="M19 0c-15 0 -23 13 -17 26l311 673c3 6 8 11 17 11h10c10 0 14 -5 17 -11l308 -673c6 -13 -2 -26 -17 -26h-87c-15 0 -22 6 -29 20l-49 108h-299l-49 -108c-4 -10 -13 -20 -29 -20h-87zM233 239h201l-100 220h-3zM213 789l-29 21c-7 5 -9 16 -6 23c10 18 43 84 104 84
c52 0 69 -55 107 -55c35 0 36 62 65 41l28 -20c9 -7 8 -19 1 -31c-11 -19 -40 -76 -97 -76c-52 0 -76 56 -109 56c-36 0 -34 -62 -64 -43z" />
    <glyph glyph-name="Adieresis" unicode="&#xc4;" horiz-adv-x="668" 
d="M19 0c-15 0 -23 13 -17 26l311 673c3 6 8 11 17 11h10c10 0 14 -5 17 -11l308 -673c6 -13 -2 -26 -17 -26h-87c-15 0 -22 6 -29 20l-49 108h-299l-49 -108c-4 -10 -13 -20 -29 -20h-87zM233 239h201l-100 220h-3zM456 766c-41 0 -72 32 -72 73s31 72 72 72s73 -31 73 -72
s-32 -73 -73 -73zM209 766c-41 0 -72 32 -72 73s31 72 72 72s73 -31 73 -72s-32 -73 -73 -73z" />
    <glyph glyph-name="Amacron" unicode="&#x100;" horiz-adv-x="668" 
d="M19 0c-15 0 -23 13 -17 26l311 673c3 6 8 11 17 11h10c10 0 14 -5 17 -11l308 -673c6 -13 -2 -26 -17 -26h-87c-15 0 -22 6 -29 20l-49 108h-299l-49 -108c-4 -10 -13 -20 -29 -20h-87zM233 239h201l-100 220h-3zM205 808c-11 0 -19 8 -19 18v34c0 11 8 19 19 19h256
c11 0 19 -8 19 -19v-34c0 -10 -8 -18 -19 -18h-256z" />
    <glyph glyph-name="Abreve" unicode="&#x102;" horiz-adv-x="668" 
d="M19 0c-15 0 -23 13 -17 26l311 673c3 6 8 11 17 11h10c10 0 14 -5 17 -11l308 -673c6 -13 -2 -26 -17 -26h-87c-15 0 -22 6 -29 20l-49 108h-299l-49 -108c-4 -10 -13 -20 -29 -20h-87zM233 239h201l-100 220h-3zM334 766c-73 0 -130 51 -140 118c-2 11 5 21 18 21h37
c9 0 15 -7 17 -14c10 -30 35 -53 68 -53c30 0 56 26 66 53c2 9 10 14 17 14h39c12 0 19 -10 18 -21c-11 -67 -68 -118 -140 -118z" />
    <glyph glyph-name="Aring" unicode="&#xc5;" horiz-adv-x="668" 
d="M19 0c-15 0 -23 13 -17 26l311 673c3 6 8 11 17 11h10c10 0 14 -5 17 -11l308 -673c6 -13 -2 -26 -17 -26h-87c-15 0 -22 6 -29 20l-49 108h-299l-49 -108c-4 -10 -13 -20 -29 -20h-87zM233 239h201l-100 220h-3zM333 754c-63 0 -113 50 -113 113s50 113 113 113
c62 0 113 -50 113 -113s-51 -113 -113 -113zM333 817c26 0 48 24 48 50s-22 48 -48 48s-50 -22 -50 -48s24 -50 50 -50z" />
    <glyph glyph-name="Aringacute" unicode="&#x1fa;" horiz-adv-x="670" 
d="M243 886l-18 35c-4 8 1 16 6 19l164 98c11 7 21 6 26 -3l28 -52c7 -12 3 -23 -6 -27l-175 -77c-14 -6 -21 -2 -25 7zM20 0c-15 0 -23 13 -17 26l293 634c-42 16 -71 57 -71 105c0 63 50 113 113 113c62 0 113 -50 113 -113c0 -49 -32 -91 -75 -107l290 -632
c6 -13 -2 -26 -17 -26h-87c-15 0 -22 6 -29 20l-49 108h-299l-49 -108c-4 -10 -13 -20 -29 -20h-87zM338 715c26 0 48 24 48 50s-22 48 -48 48s-50 -22 -50 -48s24 -50 50 -50zM234 239h201l-100 220h-3z" />
    <glyph glyph-name="Aogonek" unicode="&#x104;" horiz-adv-x="668" 
d="M19 0c-15 0 -23 13 -17 26l311 673c3 6 8 11 17 11h10c10 0 14 -5 17 -11l308 -673c6 -13 -2 -26 -17 -26h-24c-33 -22 -94 -72 -94 -122c0 -30 15 -43 39 -43c27 0 53 21 61 28c9 8 20 4 20 -7l1 -49c0 -12 -3 -22 -15 -31c-16 -10 -50 -23 -89 -23
c-70 0 -105 46 -105 104c0 75 60 122 96 148l-55 123h-299l-49 -108c-4 -10 -13 -20 -29 -20h-87zM233 239h201l-100 220h-3z" />
    <glyph glyph-name="AE" unicode="&#xc6;" horiz-adv-x="896" 
d="M3 0c-15 0 -20 13 -12 26l401 643c13 20 18 31 44 31h395c11 0 19 -9 19 -19v-82c0 -10 -8 -19 -19 -19h-299v-164h250c10 0 19 -9 19 -19v-83c0 -11 -9 -19 -19 -19h-250v-175h299c11 0 19 -9 19 -19v-82c0 -10 -8 -19 -19 -19h-408c-11 0 -19 9 -19 19v109h-210
l-71 -113c-6 -9 -13 -15 -25 -15h-95zM264 239h140v226z" />
    <glyph glyph-name="AEacute" unicode="&#x1fc;" horiz-adv-x="896" 
d="M3 0c-15 0 -20 13 -12 26l401 643c13 20 18 31 44 31h395c11 0 19 -9 19 -19v-82c0 -10 -8 -19 -19 -19h-299v-164h250c10 0 19 -9 19 -19v-83c0 -11 -9 -19 -19 -19h-250v-175h299c11 0 19 -9 19 -19v-82c0 -10 -8 -19 -19 -19h-408c-11 0 -19 9 -19 19v109h-210
l-71 -113c-6 -9 -13 -15 -25 -15h-95zM264 239h140v226zM553 769c-14 -6 -21 -2 -25 7l-18 35c-4 8 1 16 6 19l164 98c11 7 21 6 26 -3l28 -52c7 -12 3 -23 -6 -27z" />
    <glyph glyph-name="Cacute" unicode="&#x106;" horiz-adv-x="688" 
d="M44 349c0 200 161 361 361 361c101 0 174 -32 242 -93c9 -8 9 -20 1 -28l-61 -63c-7 -8 -17 -8 -25 0c-42 37 -98 59 -154 59c-128 0 -223 -107 -223 -233c0 -125 96 -231 224 -231c60 0 111 23 153 57c8 7 19 6 25 0l62 -64c8 -7 6 -20 -1 -27
c-68 -66 -154 -97 -243 -97c-200 0 -361 159 -361 359zM339 768c-14 -6 -21 -2 -25 7l-18 35c-4 8 1 16 6 19l164 98c11 7 21 6 26 -3l28 -52c7 -12 3 -23 -6 -27z" />
    <glyph glyph-name="Ccircumflex" unicode="&#x108;" horiz-adv-x="688" 
d="M44 349c0 200 161 361 361 361c101 0 174 -32 242 -93c9 -8 9 -20 1 -28l-61 -63c-7 -8 -17 -8 -25 0c-42 37 -98 59 -154 59c-128 0 -223 -107 -223 -233c0 -125 96 -231 224 -231c60 0 111 23 153 57c8 7 19 6 25 0l62 -64c8 -7 6 -20 -1 -27
c-68 -66 -154 -97 -243 -97c-200 0 -361 159 -361 359zM307 766c-12 -7 -17 -5 -23 3l-26 37c-5 7 0 15 6 19l130 101c6 5 14 5 21 0l130 -101c6 -4 11 -12 6 -19l-26 -37c-6 -8 -11 -10 -23 -3l-97 61z" />
    <glyph glyph-name="Ccaron" unicode="&#x10c;" horiz-adv-x="688" 
d="M44 349c0 200 161 361 361 361c101 0 174 -32 242 -93c9 -8 9 -20 1 -28l-61 -63c-7 -8 -17 -8 -25 0c-42 37 -98 59 -154 59c-128 0 -223 -107 -223 -233c0 -125 96 -231 224 -231c60 0 111 23 153 57c8 7 19 6 25 0l62 -64c8 -7 6 -20 -1 -27
c-68 -66 -154 -97 -243 -97c-200 0 -361 159 -361 359zM394 764l-130 101c-6 4 -11 12 -6 19l26 37c6 8 11 10 23 3l97 -61l98 61c12 7 17 5 23 -3l26 -37c5 -7 0 -15 -6 -19l-130 -101c-6 -5 -14 -5 -21 0z" />
    <glyph glyph-name="Cdotaccent" unicode="&#x10a;" horiz-adv-x="688" 
d="M44 349c0 200 161 361 361 361c101 0 174 -32 242 -93c9 -8 9 -20 1 -28l-61 -63c-7 -8 -17 -8 -25 0c-42 37 -98 59 -154 59c-128 0 -223 -107 -223 -233c0 -125 96 -231 224 -231c60 0 111 23 153 57c8 7 19 6 25 0l62 -64c8 -7 6 -20 -1 -27
c-68 -66 -154 -97 -243 -97c-200 0 -361 159 -361 359zM406 773c-45 0 -79 36 -79 80s34 79 79 79s80 -35 80 -79s-35 -80 -80 -80z" />
    <glyph glyph-name="Ccedilla" unicode="&#xc7;" horiz-adv-x="688" 
d="M44 349c0 200 161 361 361 361c101 0 174 -32 242 -93c9 -8 9 -20 1 -28l-61 -63c-7 -8 -17 -8 -25 0c-42 37 -98 59 -154 59c-128 0 -223 -107 -223 -233c0 -125 96 -231 224 -231c60 0 111 23 153 57c8 7 19 6 25 0l62 -64c8 -7 6 -20 -1 -27
c-67 -65 -151 -96 -238 -97l-33 -52c7 2 14 3 21 3c45 0 85 -31 85 -87c0 -63 -52 -100 -120 -100c-39 0 -67 11 -84 25c-8 8 -6 17 0 28l9 20c6 14 15 17 27 9c7 -6 24 -16 43 -16c28 0 47 13 47 39c0 25 -19 38 -46 38c-18 0 -29 -8 -38 -11c-10 -4 -22 9 -17 18l44 90
c-173 26 -304 174 -304 355z" />
    <glyph glyph-name="Dcaron" unicode="&#x10e;" horiz-adv-x="735" 
d="M85 19v662c0 10 8 19 18 19h237c193 0 351 -157 351 -349c0 -194 -158 -351 -351 -351h-237c-10 0 -18 9 -18 19zM214 122h114c130 0 225 92 225 229c0 136 -95 228 -225 228h-114v-457zM333 764l-130 101c-6 4 -11 12 -6 19l26 37c6 8 11 10 23 3l97 -61l98 61
c12 7 17 5 23 -3l26 -37c5 -7 0 -15 -6 -19l-130 -101c-6 -5 -14 -5 -21 0z" />
    <glyph glyph-name="Dcroat" unicode="&#x110;" horiz-adv-x="735" 
d="M85 19v302h-29c-10 0 -18 9 -18 19v13c0 10 8 19 18 19h29v309c0 10 8 19 18 19h237c193 0 351 -157 351 -349c0 -194 -158 -351 -351 -351h-237c-10 0 -18 9 -18 19zM214 122h114c130 0 225 98 225 229c0 130 -95 228 -225 228h-114v-207h165c11 0 19 -9 19 -19v-14
c0 -10 -8 -18 -19 -18h-165v-199z" />
    <glyph glyph-name="Eth" unicode="&#xd0;" horiz-adv-x="735" 
d="M85 19v302h-29c-10 0 -18 9 -18 19v13c0 10 8 19 18 19h29v309c0 10 8 19 18 19h237c193 0 351 -157 351 -349c0 -194 -158 -351 -351 -351h-237c-10 0 -18 9 -18 19zM214 122h114c130 0 225 98 225 229c0 130 -95 228 -225 228h-114v-207h165c11 0 19 -9 19 -19v-14
c0 -10 -8 -18 -19 -18h-165v-199z" />
    <glyph glyph-name="Egrave" unicode="&#xc8;" horiz-adv-x="576" 
d="M85 19v662c0 10 8 19 19 19h407c11 0 19 -9 19 -19v-82c0 -10 -8 -19 -19 -19h-296v-164h247c10 0 19 -9 19 -19v-83c0 -11 -9 -19 -19 -19h-247v-175h296c11 0 19 -9 19 -19v-82c0 -10 -8 -19 -19 -19h-407c-11 0 -19 9 -19 19zM384 768l-175 77c-9 4 -13 15 -6 27
l28 52c5 9 18 8 26 3l164 -98c5 -3 10 -11 6 -19l-18 -35c-4 -9 -11 -13 -25 -7z" />
    <glyph glyph-name="Eacute" unicode="&#xc9;" horiz-adv-x="576" 
d="M85 19v662c0 10 8 19 19 19h407c11 0 19 -9 19 -19v-82c0 -10 -8 -19 -19 -19h-296v-164h247c10 0 19 -9 19 -19v-83c0 -11 -9 -19 -19 -19h-247v-175h296c11 0 19 -9 19 -19v-82c0 -10 -8 -19 -19 -19h-407c-11 0 -19 9 -19 19zM244 768c-14 -6 -21 -2 -25 7l-18 35
c-4 8 1 16 6 19l164 98c11 7 21 6 26 -3l28 -52c7 -12 3 -23 -6 -27z" />
    <glyph glyph-name="Ecircumflex" unicode="&#xca;" horiz-adv-x="576" 
d="M85 19v662c0 10 8 19 19 19h407c11 0 19 -9 19 -19v-82c0 -10 -8 -19 -19 -19h-296v-164h247c10 0 19 -9 19 -19v-83c0 -11 -9 -19 -19 -19h-247v-175h296c11 0 19 -9 19 -19v-82c0 -10 -8 -19 -19 -19h-407c-11 0 -19 9 -19 19zM211 766c-12 -7 -17 -5 -23 3l-26 37
c-5 7 0 15 6 19l130 101c6 5 14 5 21 0l130 -101c6 -4 11 -12 6 -19l-26 -37c-6 -8 -11 -10 -23 -3l-97 61z" />
    <glyph glyph-name="Ecaron" unicode="&#x11a;" horiz-adv-x="576" 
d="M85 19v662c0 10 8 19 19 19h407c11 0 19 -9 19 -19v-82c0 -10 -8 -19 -19 -19h-296v-164h247c10 0 19 -9 19 -19v-83c0 -11 -9 -19 -19 -19h-247v-175h296c11 0 19 -9 19 -19v-82c0 -10 -8 -19 -19 -19h-407c-11 0 -19 9 -19 19zM299 764l-130 101c-6 4 -11 12 -6 19
l26 37c6 8 11 10 23 3l97 -61l98 61c12 7 17 5 23 -3l26 -37c5 -7 0 -15 -6 -19l-130 -101c-6 -5 -14 -5 -21 0z" />
    <glyph glyph-name="Edieresis" unicode="&#xcb;" horiz-adv-x="576" 
d="M85 19v662c0 10 8 19 19 19h407c11 0 19 -9 19 -19v-82c0 -10 -8 -19 -19 -19h-296v-164h247c10 0 19 -9 19 -19v-83c0 -11 -9 -19 -19 -19h-247v-175h296c11 0 19 -9 19 -19v-82c0 -10 -8 -19 -19 -19h-407c-11 0 -19 9 -19 19zM436 766c-41 0 -72 32 -72 73
s31 72 72 72s73 -31 73 -72s-32 -73 -73 -73zM189 766c-41 0 -72 32 -72 73s31 72 72 72s73 -31 73 -72s-32 -73 -73 -73z" />
    <glyph glyph-name="Emacron" unicode="&#x112;" horiz-adv-x="576" 
d="M85 19v662c0 10 8 19 19 19h407c11 0 19 -9 19 -19v-82c0 -10 -8 -19 -19 -19h-296v-164h247c10 0 19 -9 19 -19v-83c0 -11 -9 -19 -19 -19h-247v-175h296c11 0 19 -9 19 -19v-82c0 -10 -8 -19 -19 -19h-407c-11 0 -19 9 -19 19zM183 808c-11 0 -19 8 -19 18v34
c0 11 8 19 19 19h256c11 0 19 -8 19 -19v-34c0 -10 -8 -18 -19 -18h-256z" />
    <glyph glyph-name="Ebreve" unicode="&#x114;" horiz-adv-x="576" 
d="M85 19v662c0 10 8 19 19 19h407c11 0 19 -9 19 -19v-82c0 -10 -8 -19 -19 -19h-296v-164h247c10 0 19 -9 19 -19v-83c0 -11 -9 -19 -19 -19h-247v-175h296c11 0 19 -9 19 -19v-82c0 -10 -8 -19 -19 -19h-407c-11 0 -19 9 -19 19zM316 766c-73 0 -130 51 -140 118
c-2 11 5 21 18 21h37c9 0 15 -7 17 -14c10 -30 35 -53 68 -53c30 0 56 26 66 53c2 9 10 14 17 14h39c12 0 19 -10 18 -21c-11 -67 -68 -118 -140 -118z" />
    <glyph glyph-name="Edotaccent" unicode="&#x116;" horiz-adv-x="576" 
d="M85 19v662c0 10 8 19 19 19h407c11 0 19 -9 19 -19v-82c0 -10 -8 -19 -19 -19h-296v-164h247c10 0 19 -9 19 -19v-83c0 -11 -9 -19 -19 -19h-247v-175h296c11 0 19 -9 19 -19v-82c0 -10 -8 -19 -19 -19h-407c-11 0 -19 9 -19 19zM316 773c-45 0 -79 36 -79 80
s34 79 79 79s80 -35 80 -79s-35 -80 -80 -80z" />
    <glyph glyph-name="Eogonek" unicode="&#x118;" horiz-adv-x="576" 
d="M85 19v662c0 10 8 19 19 19h407c11 0 19 -9 19 -19v-82c0 -10 -8 -19 -19 -19h-296v-164h247c10 0 19 -9 19 -19v-83c0 -11 -9 -19 -19 -19h-247v-175h296c11 0 19 -9 19 -19v-74c0 -18 -12 -22 -18 -27c-32 -24 -94 -72 -94 -122c0 -30 15 -43 39 -43c27 0 53 21 61 28
c9 8 20 4 20 -7l1 -49c0 -12 -3 -22 -15 -31c-16 -10 -50 -23 -89 -23c-70 0 -105 46 -105 104c0 71 55 116 92 143h-318c-11 0 -19 9 -19 19z" />
    <glyph glyph-name="Gcircumflex" unicode="&#x11c;" horiz-adv-x="718" 
d="M44 349c0 200 160 361 359 361c90 0 176 -35 244 -93c8 -8 9 -20 1 -28l-62 -65c-8 -8 -17 -8 -26 0c-43 38 -96 58 -151 58c-125 0 -224 -107 -224 -232c0 -124 99 -229 225 -229c56 0 99 17 119 25v85h-80c-11 0 -19 8 -19 18v79c0 11 8 19 19 19h192
c10 0 18 -9 18 -19v-256c0 -8 -4 -13 -8 -16c0 0 -103 -65 -248 -65c-199 0 -359 158 -359 358zM304 766c-12 -7 -17 -5 -23 3l-26 37c-5 7 0 15 6 19l130 101c6 5 14 5 21 0l130 -101c6 -4 11 -12 6 -19l-26 -37c-6 -8 -11 -10 -23 -3l-97 61z" />
    <glyph glyph-name="Gbreve" unicode="&#x11e;" horiz-adv-x="718" 
d="M44 349c0 200 160 361 359 361c90 0 176 -35 244 -93c8 -8 9 -20 1 -28l-62 -65c-8 -8 -17 -8 -26 0c-43 38 -96 58 -151 58c-125 0 -224 -107 -224 -232c0 -124 99 -229 225 -229c56 0 99 17 119 25v85h-80c-11 0 -19 8 -19 18v79c0 11 8 19 19 19h192
c10 0 18 -9 18 -19v-256c0 -8 -4 -13 -8 -16c0 0 -103 -65 -248 -65c-199 0 -359 158 -359 358zM404 766c-73 0 -130 51 -140 118c-2 11 5 21 18 21h37c9 0 15 -7 17 -14c10 -30 35 -53 68 -53c30 0 56 26 66 53c2 9 10 14 17 14h39c12 0 19 -10 18 -21
c-11 -67 -68 -118 -140 -118z" />
    <glyph glyph-name="Gdotaccent" unicode="&#x120;" horiz-adv-x="718" 
d="M44 349c0 200 160 361 359 361c90 0 176 -35 244 -93c8 -8 9 -20 1 -28l-62 -65c-8 -8 -17 -8 -26 0c-43 38 -96 58 -151 58c-125 0 -224 -107 -224 -232c0 -124 99 -229 225 -229c56 0 99 17 119 25v85h-80c-11 0 -19 8 -19 18v79c0 11 8 19 19 19h192
c10 0 18 -9 18 -19v-256c0 -8 -4 -13 -8 -16c0 0 -103 -65 -248 -65c-199 0 -359 158 -359 358zM404 773c-45 0 -79 36 -79 80s34 79 79 79s80 -35 80 -79s-35 -80 -80 -80z" />
    <glyph glyph-name="Gcommaaccent" unicode="&#x122;" horiz-adv-x="718" 
d="M44 349c0 200 160 361 359 361c90 0 176 -35 244 -93c8 -8 9 -20 1 -28l-62 -65c-8 -8 -17 -8 -26 0c-43 38 -96 58 -151 58c-125 0 -224 -107 -224 -232c0 -124 99 -229 225 -229c56 0 99 17 119 25v85h-80c-11 0 -19 8 -19 18v79c0 11 8 19 19 19h192
c10 0 18 -9 18 -19v-256c0 -8 -4 -13 -8 -16c0 0 -103 -65 -248 -65c-199 0 -359 158 -359 358zM323 -134c0 44 33 70 77 70c50 0 90 -30 90 -99c0 -63 -26 -108 -53 -137c-4 -7 -12 -7 -20 -2l-26 20c-9 6 -8 14 -1 21c15 16 26 43 26 66v13c-2 -1 -16 -10 -33 -10
c-37 0 -60 26 -60 58z" />
    <glyph glyph-name="Hcircumflex" unicode="&#x124;" horiz-adv-x="757" 
d="M85 19v662c0 10 9 19 19 19h93c11 0 19 -9 19 -19v-265h326v265c0 10 8 19 19 19h92c10 0 19 -9 19 -19v-662c0 -10 -9 -19 -19 -19h-92c-11 0 -19 9 -19 19v276h-326v-276c0 -10 -8 -19 -19 -19h-93c-10 0 -19 9 -19 19zM285 766c-12 -7 -17 -5 -23 3l-26 37
c-5 7 0 15 6 19l130 101c6 5 14 5 21 0l130 -101c6 -4 11 -12 6 -19l-26 -37c-6 -8 -11 -10 -23 -3l-97 61z" />
    <glyph glyph-name="Hbar" unicode="&#x126;" horiz-adv-x="757" 
d="M85 19v514h-26c-10 0 -18 9 -18 19v13c0 10 8 19 18 19h26v97c0 10 9 19 19 19h93c11 0 19 -9 19 -19v-97h326v97c0 10 8 19 19 19h92c10 0 19 -9 19 -19v-97h26c11 0 19 -9 19 -19v-14c0 -10 -8 -18 -19 -18h-26v-514c0 -10 -9 -19 -19 -19h-92c-11 0 -19 9 -19 19v276
h-326v-276c0 -10 -8 -19 -19 -19h-93c-10 0 -19 9 -19 19zM216 416h326v117h-326v-117z" />
    <glyph glyph-name="Igrave" unicode="&#xcc;" horiz-adv-x="301" 
d="M85 19v662c0 10 9 19 19 19h93c10 0 19 -9 19 -19v-662c0 -10 -9 -19 -19 -19h-93c-10 0 -19 9 -19 19zM220 768l-175 77c-9 4 -13 15 -6 27l28 52c5 9 18 8 26 3l164 -98c5 -3 10 -11 6 -19l-18 -35c-4 -9 -11 -13 -25 -7z" />
    <glyph glyph-name="Iacute" unicode="&#xcd;" horiz-adv-x="301" 
d="M85 19v662c0 10 9 19 19 19h93c10 0 19 -9 19 -19v-662c0 -10 -9 -19 -19 -19h-93c-10 0 -19 9 -19 19zM80 768c-14 -6 -21 -2 -25 7l-18 35c-4 8 1 16 6 19l164 98c11 7 21 6 26 -3l28 -52c7 -12 3 -23 -6 -27z" />
    <glyph glyph-name="Ibreve" unicode="&#x12c;" horiz-adv-x="301" 
d="M85 19v662c0 10 9 19 19 19h93c10 0 19 -9 19 -19v-662c0 -10 -9 -19 -19 -19h-93c-10 0 -19 9 -19 19zM151 766c-73 0 -130 51 -140 118c-2 11 5 21 18 21h37c9 0 15 -7 17 -14c10 -30 35 -53 68 -53c30 0 56 26 66 53c2 9 10 14 17 14h39c12 0 19 -10 18 -21
c-11 -67 -68 -118 -140 -118z" />
    <glyph glyph-name="Icircumflex" unicode="&#xce;" horiz-adv-x="301" 
d="M85 19v662c0 10 9 19 19 19h93c10 0 19 -9 19 -19v-662c0 -10 -9 -19 -19 -19h-93c-10 0 -19 9 -19 19zM51 766c-12 -7 -17 -5 -23 3l-26 37c-5 7 0 15 6 19l130 101c6 5 14 5 21 0l130 -101c6 -4 11 -12 6 -19l-26 -37c-6 -8 -11 -10 -23 -3l-97 61z" />
    <glyph glyph-name="Itilde" unicode="&#x128;" horiz-adv-x="301" 
d="M85 19v662c0 10 9 19 19 19h93c10 0 19 -9 19 -19v-662c0 -10 -9 -19 -19 -19h-93c-10 0 -19 9 -19 19zM31 789l-29 21c-7 5 -9 16 -6 23c10 18 43 84 104 84c52 0 69 -55 107 -55c35 0 36 62 65 41l28 -20c9 -7 8 -19 1 -31c-11 -19 -40 -76 -97 -76
c-52 0 -76 56 -109 56c-36 0 -34 -62 -64 -43z" />
    <glyph glyph-name="Idieresis" unicode="&#xcf;" horiz-adv-x="301" 
d="M85 19v662c0 10 9 19 19 19h93c10 0 19 -9 19 -19v-662c0 -10 -9 -19 -19 -19h-93c-10 0 -19 9 -19 19zM273 766c-41 0 -72 32 -72 73s31 72 72 72s73 -31 73 -72s-32 -73 -73 -73zM26 766c-41 0 -72 32 -72 73s31 72 72 72s73 -31 73 -72s-32 -73 -73 -73z" />
    <glyph glyph-name="Imacron" unicode="&#x12a;" horiz-adv-x="301" 
d="M85 19v662c0 10 9 19 19 19h93c10 0 19 -9 19 -19v-662c0 -10 -9 -19 -19 -19h-93c-10 0 -19 9 -19 19zM23 808c-11 0 -19 8 -19 18v34c0 11 8 19 19 19h256c11 0 19 -8 19 -19v-34c0 -10 -8 -18 -19 -18h-256z" />
    <glyph glyph-name="Idotaccent" unicode="&#x130;" horiz-adv-x="301" 
d="M85 19v662c0 10 9 19 19 19h93c10 0 19 -9 19 -19v-662c0 -10 -9 -19 -19 -19h-93c-10 0 -19 9 -19 19zM151 773c-45 0 -79 36 -79 80s34 79 79 79s80 -35 80 -79s-35 -80 -80 -80z" />
    <glyph glyph-name="Iogonek" unicode="&#x12e;" horiz-adv-x="301" 
d="M85 19v662c0 10 9 19 19 19h93c10 0 19 -9 19 -19v-653c0 -15 -8 -23 -17 -28c-33 -22 -94 -72 -94 -122c0 -30 15 -43 39 -43c27 0 53 21 61 28c9 8 20 4 20 -7l1 -49c0 -12 -3 -23 -15 -31c-16 -11 -50 -23 -89 -23c-70 0 -105 46 -105 104c0 71 55 116 92 143h-5
c-10 0 -19 9 -19 19z" />
    <glyph glyph-name="Jcircumflex" unicode="&#x134;" horiz-adv-x="456" 
d="M14 63c-5 8 -4 18 2 25l52 53c11 10 21 8 30 -1c13 -14 33 -32 66 -32c41 0 80 22 80 91v482c0 10 8 19 19 19h94c11 0 19 -9 19 -19v-482c0 -139 -93 -209 -210 -209c-87 0 -135 52 -152 73zM214 766c-12 -7 -17 -5 -23 3l-26 37c-5 7 0 15 6 19l130 101c6 5 14 5 21 0
l130 -101c6 -4 11 -12 6 -19l-26 -37c-6 -8 -11 -10 -23 -3l-97 61z" />
    <glyph glyph-name="Kcommaaccent" unicode="&#x136;" horiz-adv-x="642" 
d="M85 24v652c0 13 10 24 24 24h88c13 0 24 -11 24 -24v-270l252 284c4 5 10 10 19 10h100c19 0 29 -21 16 -36l-261 -294l280 -335c10 -13 2 -35 -18 -35h-109c-10 0 -16 4 -18 7l-261 322v-305c0 -13 -11 -24 -24 -24h-88c-14 0 -24 11 -24 24zM267 -134c0 44 33 70 77 70
c50 0 90 -30 90 -99c0 -63 -26 -108 -53 -137c-4 -7 -12 -7 -20 -2l-26 20c-9 6 -8 14 -1 21c15 16 26 43 26 66v13c-2 -1 -16 -10 -33 -10c-37 0 -60 26 -60 58z" />
    <glyph glyph-name="Lacute" unicode="&#x139;" horiz-adv-x="505" 
d="M85 19v662c0 10 8 19 19 19h92c10 0 19 -9 19 -19v-561h255c11 0 19 -9 19 -19v-82c0 -10 -8 -19 -19 -19h-366c-11 0 -19 9 -19 19zM79 768c-14 -6 -21 -2 -25 7l-18 35c-4 8 1 16 6 19l164 98c11 7 21 6 26 -3l28 -52c7 -12 3 -23 -6 -27z" />
    <glyph glyph-name="Lcaron" unicode="&#x13d;" horiz-adv-x="513" 
d="M85 19v662c0 10 8 19 19 19h92c10 0 19 -9 19 -19v-561h255c11 0 19 -9 19 -19v-82c0 -10 -8 -19 -19 -19h-366c-11 0 -19 9 -19 19zM311 640c0 44 33 70 77 70c50 0 90 -30 90 -99c0 -63 -26 -108 -53 -137c-4 -7 -12 -7 -20 -2l-26 20c-9 6 -8 14 -1 21
c15 16 26 43 26 66v13c-2 -1 -16 -10 -33 -10c-37 0 -60 26 -60 58z" />
    <glyph glyph-name="Lcommaaccent" unicode="&#x13b;" horiz-adv-x="505" 
d="M85 19v662c0 10 8 19 19 19h92c10 0 19 -9 19 -19v-561h255c11 0 19 -9 19 -19v-82c0 -10 -8 -19 -19 -19h-366c-11 0 -19 9 -19 19zM210 -134c0 44 33 70 77 70c50 0 90 -30 90 -99c0 -63 -26 -108 -53 -137c-4 -7 -12 -7 -20 -2l-26 20c-9 6 -8 14 -1 21
c15 16 26 43 26 66v13c-2 -1 -16 -10 -33 -10c-37 0 -60 26 -60 58z" />
    <glyph glyph-name="Lslash" unicode="&#x141;" horiz-adv-x="505" 
d="M85 19v287l-23 -12c-8 -5 -20 -2 -25 7l-7 12c-5 8 -3 20 6 25l49 27v316c0 10 8 19 19 19h92c10 0 19 -9 19 -19v-240l87 51c10 5 21 1 26 -7l7 -13c5 -8 2 -19 -7 -25l-113 -66v-261h255c11 0 19 -9 19 -19v-82c0 -10 -8 -19 -19 -19h-366c-11 0 -19 9 -19 19z" />
    <glyph glyph-name="Ldot" unicode="&#x13f;" horiz-adv-x="536" 
d="M85 19v662c0 10 8 19 19 19h92c10 0 19 -9 19 -19v-561h255c11 0 19 -9 19 -19v-82c0 -10 -8 -19 -19 -19h-366c-11 0 -19 9 -19 19zM447 295c-45 0 -79 36 -79 80s34 79 79 79s80 -35 80 -79s-35 -80 -80 -80z" />
    <glyph glyph-name="Nacute" unicode="&#x143;" horiz-adv-x="761" 
d="M85 19v673c0 10 9 18 19 18h15c7 0 12 -2 17 -7l408 -435h2v413c0 10 8 19 19 19h92c10 0 19 -9 19 -19v-673c0 -10 -9 -18 -19 -18h-14c-7 0 -12 2 -17 7l-410 452h-2v-430c0 -10 -8 -19 -19 -19h-91c-10 0 -19 9 -19 19zM313 768c-14 -6 -21 -2 -25 7l-18 35
c-4 8 1 16 6 19l164 98c11 7 21 6 26 -3l28 -52c7 -12 3 -23 -6 -27z" />
    <glyph glyph-name="Ncaron" unicode="&#x147;" horiz-adv-x="761" 
d="M85 19v673c0 10 9 18 19 18h15c7 0 12 -2 17 -7l408 -435h2v413c0 10 8 19 19 19h92c10 0 19 -9 19 -19v-673c0 -10 -9 -18 -19 -18h-14c-7 0 -12 2 -17 7l-410 452h-2v-430c0 -10 -8 -19 -19 -19h-91c-10 0 -19 9 -19 19zM368 764l-130 101c-6 4 -11 12 -6 19l26 37
c6 8 11 10 23 3l97 -61l98 61c12 7 17 5 23 -3l26 -37c5 -7 0 -15 -6 -19l-130 -101c-6 -5 -14 -5 -21 0z" />
    <glyph glyph-name="Ntilde" unicode="&#xd1;" horiz-adv-x="761" 
d="M85 19v673c0 10 9 18 19 18h15c7 0 12 -2 17 -7l408 -435h2v413c0 10 8 19 19 19h92c10 0 19 -9 19 -19v-673c0 -10 -9 -18 -19 -18h-14c-7 0 -12 2 -17 7l-410 452h-2v-430c0 -10 -8 -19 -19 -19h-91c-10 0 -19 9 -19 19zM260 789l-29 21c-7 5 -9 16 -6 23
c10 18 43 84 104 84c52 0 69 -55 107 -55c35 0 36 62 65 41l28 -20c9 -7 8 -19 1 -31c-11 -19 -40 -76 -97 -76c-52 0 -76 56 -109 56c-36 0 -34 -62 -64 -43z" />
    <glyph glyph-name="Ncommaaccent" unicode="&#x145;" horiz-adv-x="761" 
d="M85 19v673c0 10 9 18 19 18h15c7 0 12 -2 17 -7l408 -435h2v413c0 10 8 19 19 19h92c10 0 19 -9 19 -19v-673c0 -10 -9 -18 -19 -18h-14c-7 0 -12 2 -17 7l-410 452h-2v-430c0 -10 -8 -19 -19 -19h-91c-10 0 -19 9 -19 19zM317 -134c0 44 33 70 77 70c50 0 90 -30 90 -99
c0 -63 -26 -108 -53 -137c-4 -7 -12 -7 -20 -2l-26 20c-9 6 -8 14 -1 21c15 16 26 43 26 66v13c-2 -1 -16 -10 -33 -10c-37 0 -60 26 -60 58z" />
    <glyph glyph-name="Ograve" unicode="&#xd2;" horiz-adv-x="807" 
d="M44 349c0 200 159 361 359 361s360 -161 360 -361s-160 -359 -360 -359s-359 159 -359 359zM174 349c0 -126 103 -229 229 -229s230 103 230 229s-104 231 -230 231s-229 -105 -229 -231zM476 768l-175 77c-9 4 -13 15 -6 27l28 52c5 9 18 8 26 3l164 -98
c5 -3 10 -11 6 -19l-18 -35c-4 -9 -11 -13 -25 -7z" />
    <glyph glyph-name="Oacute" unicode="&#xd3;" horiz-adv-x="807" 
d="M44 349c0 200 159 361 359 361s360 -161 360 -361s-160 -359 -360 -359s-359 159 -359 359zM174 349c0 -126 103 -229 229 -229s230 103 230 229s-104 231 -230 231s-229 -105 -229 -231zM334 768c-14 -6 -21 -2 -25 7l-18 35c-4 8 1 16 6 19l164 98c11 7 21 6 26 -3
l28 -52c7 -12 3 -23 -6 -27z" />
    <glyph glyph-name="Ocircumflex" unicode="&#xd4;" horiz-adv-x="807" 
d="M44 349c0 200 159 361 359 361s360 -161 360 -361s-160 -359 -360 -359s-359 159 -359 359zM174 349c0 -126 103 -229 229 -229s230 103 230 229s-104 231 -230 231s-229 -105 -229 -231zM305 766c-12 -7 -17 -5 -23 3l-26 37c-5 7 0 15 6 19l130 101c6 5 14 5 21 0
l130 -101c6 -4 11 -12 6 -19l-26 -37c-6 -8 -11 -10 -23 -3l-97 61z" />
    <glyph glyph-name="Otilde" unicode="&#xd5;" horiz-adv-x="807" 
d="M44 349c0 200 159 361 359 361s360 -161 360 -361s-160 -359 -360 -359s-359 159 -359 359zM174 349c0 -126 103 -229 229 -229s230 103 230 229s-104 231 -230 231s-229 -105 -229 -231zM284 789l-29 21c-7 5 -9 16 -6 23c10 18 43 84 104 84c52 0 69 -55 107 -55
c35 0 36 62 65 41l28 -20c9 -7 8 -19 1 -31c-11 -19 -40 -76 -97 -76c-52 0 -76 56 -109 56c-36 0 -34 -62 -64 -43z" />
    <glyph glyph-name="Odieresis" unicode="&#xd6;" horiz-adv-x="807" 
d="M44 349c0 200 159 361 359 361s360 -161 360 -361s-160 -359 -360 -359s-359 159 -359 359zM174 349c0 -126 103 -229 229 -229s230 103 230 229s-104 231 -230 231s-229 -105 -229 -231zM526 766c-41 0 -72 32 -72 73s31 72 72 72s73 -31 73 -72s-32 -73 -73 -73z
M279 766c-41 0 -72 32 -72 73s31 72 72 72s73 -31 73 -72s-32 -73 -73 -73z" />
    <glyph glyph-name="Omacron" unicode="&#x14c;" horiz-adv-x="807" 
d="M44 349c0 200 159 361 359 361s360 -161 360 -361s-160 -359 -360 -359s-359 159 -359 359zM174 349c0 -126 103 -229 229 -229s230 103 230 229s-104 231 -230 231s-229 -105 -229 -231zM275 808c-11 0 -19 8 -19 18v34c0 11 8 19 19 19h256c11 0 19 -8 19 -19v-34
c0 -10 -8 -18 -19 -18h-256z" />
    <glyph glyph-name="Obreve" unicode="&#x14e;" horiz-adv-x="807" 
d="M44 349c0 200 159 361 359 361s360 -161 360 -361s-160 -359 -360 -359s-359 159 -359 359zM174 349c0 -126 103 -229 229 -229s230 103 230 229s-104 231 -230 231s-229 -105 -229 -231zM403 766c-73 0 -130 51 -140 118c-2 11 5 21 18 21h37c9 0 15 -7 17 -14
c10 -30 35 -53 68 -53c30 0 56 26 66 53c2 9 10 14 17 14h39c12 0 19 -10 18 -21c-11 -67 -68 -118 -140 -118z" />
    <glyph glyph-name="Ohungarumlaut" unicode="&#x150;" horiz-adv-x="807" 
d="M44 349c0 200 159 361 359 361s360 -161 360 -361s-160 -359 -360 -359s-359 159 -359 359zM174 349c0 -126 103 -229 229 -229s230 103 230 229s-104 231 -230 231s-229 -105 -229 -231zM482 768c-16 0 -22 9 -19 19l37 141c3 10 9 19 19 19h76c19 0 25 -13 18 -25
l-78 -139c-4 -8 -11 -15 -18 -15h-35zM316 768c-16 0 -22 9 -19 19l37 141c3 10 9 19 19 19h76c19 0 25 -12 18 -25l-78 -139c-4 -8 -11 -15 -18 -15h-35z" />
    <glyph glyph-name="Oslash" unicode="&#xd8;" horiz-adv-x="806" 
d="M66 23c-7 7 -8 19 -1 26l65 64c-54 63 -86 145 -86 236c0 200 159 361 359 361c90 0 173 -34 236 -88l68 67c7 7 19 7 26 0l10 -10c7 -7 7 -18 0 -26l-68 -68c54 -63 88 -145 88 -235c0 -200 -160 -360 -360 -360c-92 0 -174 32 -236 87l-65 -65c-7 -7 -19 -6 -26 1z
M224 207l323 322c-40 31 -90 51 -144 51c-126 0 -229 -105 -229 -231c0 -54 19 -103 50 -142zM260 170c39 -31 89 -50 143 -50c126 0 230 104 230 230c0 54 -19 104 -51 142z" />
    <glyph glyph-name="Oslashacute" unicode="&#x1fe;" horiz-adv-x="806" 
d="M66 23c-7 7 -8 19 -1 26l65 64c-54 63 -86 145 -86 236c0 200 159 361 359 361c90 0 173 -34 236 -88l68 67c7 7 19 7 26 0l10 -10c7 -7 7 -18 0 -26l-68 -68c54 -63 88 -145 88 -235c0 -200 -160 -360 -360 -360c-92 0 -174 32 -236 87l-65 -65c-7 -7 -19 -6 -26 1z
M224 207l323 322c-40 31 -90 51 -144 51c-126 0 -229 -105 -229 -231c0 -54 19 -103 50 -142zM260 170c39 -31 89 -50 143 -50c126 0 230 104 230 230c0 54 -19 104 -51 142zM333 768c-14 -6 -21 -2 -25 7l-18 35c-4 8 1 16 6 19l164 98c11 7 21 6 26 -3l28 -52
c7 -12 3 -23 -6 -27z" />
    <glyph glyph-name="OE" unicode="&#x152;" horiz-adv-x="972" 
d="M44 349c0 200 159 361 359 361c54 0 97 -10 97 -10h407c11 0 19 -9 19 -19v-82c0 -10 -8 -19 -19 -19h-296v-164h247c10 0 19 -9 19 -19v-83c0 -11 -9 -19 -19 -19h-247v-175h296c11 0 19 -9 19 -19v-82c0 -10 -8 -19 -19 -19h-407s-56 -10 -97 -10
c-200 0 -359 159 -359 359zM174 349c0 -126 103 -231 229 -231c27 0 53 3 78 13v437c-25 9 -51 14 -78 14c-126 0 -229 -107 -229 -233z" />
    <glyph glyph-name="Racute" unicode="&#x154;" horiz-adv-x="660" 
d="M85 19v662c0 10 8 19 19 19h286c120 0 218 -96 218 -215c0 -92 -61 -167 -148 -202l137 -254c7 -13 0 -29 -17 -29h-105c-9 0 -14 5 -16 9l-133 265h-111v-255c0 -10 -9 -19 -19 -19h-92c-11 0 -19 9 -19 19zM216 381h163c53 0 99 46 99 102c0 53 -46 97 -99 97h-163
v-199zM252 768c-14 -6 -21 -2 -25 7l-18 35c-4 8 1 16 6 19l164 98c11 7 21 6 26 -3l28 -52c7 -12 3 -23 -6 -27z" />
    <glyph glyph-name="Rcaron" unicode="&#x158;" horiz-adv-x="660" 
d="M85 19v662c0 10 8 19 19 19h286c120 0 218 -96 218 -215c0 -92 -61 -167 -148 -202l137 -254c7 -13 0 -29 -17 -29h-105c-9 0 -14 5 -16 9l-133 265h-111v-255c0 -10 -9 -19 -19 -19h-92c-11 0 -19 9 -19 19zM216 381h163c53 0 99 46 99 102c0 53 -46 97 -99 97h-163
v-199zM307 764l-130 101c-6 4 -11 12 -6 19l26 37c6 8 11 10 23 3l97 -61l98 61c12 7 17 5 23 -3l26 -37c5 -7 0 -15 -6 -19l-130 -101c-6 -5 -14 -5 -21 0z" />
    <glyph glyph-name="Rcommaaccent" unicode="&#x156;" horiz-adv-x="660" 
d="M85 19v662c0 10 8 19 19 19h286c120 0 218 -96 218 -215c0 -92 -61 -167 -148 -202l137 -254c7 -13 0 -29 -17 -29h-105c-9 0 -14 5 -16 9l-133 265h-111v-255c0 -10 -9 -19 -19 -19h-92c-11 0 -19 9 -19 19zM216 381h163c53 0 99 46 99 102c0 53 -46 97 -99 97h-163
v-199zM256 -134c0 44 33 70 77 70c50 0 90 -30 90 -99c0 -63 -26 -108 -53 -137c-4 -7 -12 -7 -20 -2l-26 20c-9 6 -8 14 -1 21c15 16 26 43 26 66v13c-2 -1 -16 -10 -33 -10c-37 0 -60 26 -60 58z" />
    <glyph glyph-name="Sacute" unicode="&#x15a;" horiz-adv-x="545" 
d="M276 -10c-126 0 -191 53 -220 78c-10 8 -14 14 -5 30l36 62c8 14 25 14 34 7c41 -31 86 -62 151 -62c52 0 91 34 91 77c0 51 -43 86 -127 120c-94 38 -188 98 -188 216c0 89 66 192 225 192c102 0 180 -52 200 -67c10 -6 13 -23 6 -33l-38 -57c-8 -12 -23 -20 -35 -12
c-43 27 -84 55 -139 55c-57 0 -88 -32 -88 -70c0 -47 37 -79 118 -112c97 -39 209 -97 209 -226c0 -103 -89 -198 -230 -198zM204 768c-14 -6 -21 -2 -25 7l-18 35c-4 8 1 16 6 19l164 98c11 7 21 6 26 -3l28 -52c7 -12 3 -23 -6 -27z" />
    <glyph glyph-name="Scircumflex" unicode="&#x15c;" horiz-adv-x="545" 
d="M276 -10c-126 0 -191 53 -220 78c-10 8 -14 14 -5 30l36 62c8 14 25 14 34 7c41 -31 86 -62 151 -62c52 0 91 34 91 77c0 51 -43 86 -127 120c-94 38 -188 98 -188 216c0 89 66 192 225 192c102 0 180 -52 200 -67c10 -6 13 -23 6 -33l-38 -57c-8 -12 -23 -20 -35 -12
c-43 27 -84 55 -139 55c-57 0 -88 -32 -88 -70c0 -47 37 -79 118 -112c97 -39 209 -97 209 -226c0 -103 -89 -198 -230 -198zM174 766c-12 -7 -17 -5 -23 3l-26 37c-5 7 0 15 6 19l130 101c6 5 14 5 21 0l130 -101c6 -4 11 -12 6 -19l-26 -37c-6 -8 -11 -10 -23 -3l-97 61z
" />
    <glyph glyph-name="Scaron" unicode="&#x160;" horiz-adv-x="545" 
d="M276 -10c-126 0 -191 53 -220 78c-10 8 -14 14 -5 30l36 62c8 14 25 14 34 7c41 -31 86 -62 151 -62c52 0 91 34 91 77c0 51 -43 86 -127 120c-94 38 -188 98 -188 216c0 89 66 192 225 192c102 0 180 -52 200 -67c10 -6 13 -23 6 -33l-38 -57c-8 -12 -23 -20 -35 -12
c-43 27 -84 55 -139 55c-57 0 -88 -32 -88 -70c0 -47 37 -79 118 -112c97 -39 209 -97 209 -226c0 -103 -89 -198 -230 -198zM262 764l-130 101c-6 4 -11 12 -6 19l26 37c6 8 11 10 23 3l97 -61l98 61c12 7 17 5 23 -3l26 -37c5 -7 0 -15 -6 -19l-130 -101
c-6 -5 -14 -5 -21 0z" />
    <glyph glyph-name="Scedilla" unicode="&#x15e;" horiz-adv-x="545" 
d="M56 68c-9 9 -14 14 -5 30l36 62c8 14 25 14 34 7c5 -3 86 -62 151 -62c52 0 91 34 91 77c0 51 -43 86 -127 120c-94 38 -188 98 -188 216c0 89 66 192 225 192c102 0 180 -52 200 -67c10 -6 13 -23 6 -33l-38 -57c-8 -12 -23 -20 -35 -12c-8 5 -84 55 -139 55
c-57 0 -88 -38 -88 -70c0 -47 37 -79 118 -112c97 -39 209 -97 209 -226c0 -99 -81 -189 -211 -197l-33 -53c7 2 14 3 21 3c45 0 85 -31 85 -87c0 -63 -52 -100 -120 -100c-39 0 -67 11 -84 25c-8 8 -6 17 0 28l9 20c6 14 15 17 27 9c7 -6 24 -16 43 -16c28 0 47 13 47 39
c0 25 -19 38 -46 38c-18 0 -29 -8 -38 -11c-10 -4 -22 9 -17 18l43 89c-99 11 -159 58 -176 75z" />
    <glyph glyph-name="Scommaaccent" unicode="&#x218;" horiz-adv-x="545" 
d="M276 -10c-126 0 -191 53 -220 78c-10 8 -14 14 -5 30l36 62c8 14 25 14 34 7c41 -31 86 -62 151 -62c52 0 91 34 91 77c0 51 -43 86 -127 120c-94 38 -188 98 -188 216c0 89 66 192 225 192c102 0 180 -52 200 -67c10 -6 13 -23 6 -33l-38 -57c-8 -12 -23 -20 -35 -12
c-43 27 -84 55 -139 55c-57 0 -88 -32 -88 -70c0 -47 37 -79 118 -112c97 -39 209 -97 209 -226c0 -103 -89 -198 -230 -198zM200 -134c0 44 33 70 77 70c50 0 90 -30 90 -99c0 -63 -26 -108 -53 -137c-4 -7 -12 -7 -20 -2l-26 20c-9 6 -8 14 -1 21c15 16 26 43 26 66v13
c-2 -1 -16 -10 -33 -10c-37 0 -60 26 -60 58z" />
    <glyph glyph-name="Tcaron" unicode="&#x164;" horiz-adv-x="527" 
d="M198 19v561h-153c-11 0 -19 9 -19 19v82c0 10 8 19 19 19h437c11 0 19 -9 19 -19v-82c0 -10 -8 -19 -19 -19h-153v-561c0 -10 -9 -19 -19 -19h-93c-10 0 -19 9 -19 19zM252 764l-130 101c-6 4 -11 12 -6 19l26 37c6 8 11 10 23 3l97 -61l98 61c12 7 17 5 23 -3l26 -37
c5 -7 0 -15 -6 -19l-130 -101c-6 -5 -14 -5 -21 0z" />
    <glyph glyph-name="Tcommaaccent" unicode="&#x162;" horiz-adv-x="527" 
d="M198 19v561h-153c-11 0 -19 9 -19 19v82c0 10 8 19 19 19h437c11 0 19 -9 19 -19v-82c0 -10 -8 -19 -19 -19h-153v-561c0 -10 -9 -19 -19 -19h-17l-39 -62c7 2 14 3 21 3c45 0 85 -31 85 -87c0 -63 -52 -100 -120 -100c-39 0 -67 11 -84 25c-8 8 -6 17 0 28l9 20
c6 14 15 17 27 9c7 -6 24 -16 43 -16c28 0 47 13 47 39c0 25 -19 38 -46 38c-18 0 -29 -8 -38 -11c-10 -4 -22 9 -17 18l47 96h-11c-10 0 -19 9 -19 19z" />
    <glyph glyph-name="uni021A" unicode="&#x21a;" horiz-adv-x="527" 
d="M198 19v561h-153c-11 0 -19 9 -19 19v82c0 10 8 19 19 19h437c11 0 19 -9 19 -19v-82c0 -10 -8 -19 -19 -19h-153v-561c0 -10 -9 -19 -19 -19h-93c-10 0 -19 9 -19 19zM183 -134c0 44 33 70 77 70c50 0 90 -30 90 -99c0 -63 -26 -108 -53 -137c-4 -7 -12 -7 -20 -2
l-26 20c-9 6 -8 14 -1 21c15 16 26 43 26 66v13c-2 -1 -16 -10 -33 -10c-37 0 -60 26 -60 58z" />
    <glyph glyph-name="Tbar" unicode="&#x166;" horiz-adv-x="527" 
d="M198 19v272h-94c-10 0 -18 9 -18 19v13c0 10 8 19 18 19h94v238h-153c-11 0 -19 9 -19 19v82c0 10 8 19 19 19h437c11 0 19 -9 19 -19v-82c0 -10 -8 -19 -19 -19h-153v-238h98c11 0 19 -9 19 -19v-14c0 -10 -8 -18 -19 -18h-98v-272c0 -10 -9 -19 -19 -19h-93
c-10 0 -19 9 -19 19z" />
    <glyph glyph-name="Thorn" unicode="&#xde;" horiz-adv-x="589" 
d="M85 19v662c0 10 8 19 19 19h92c10 0 19 -9 19 -19v-108h124c123 1 224 -100 224 -221c0 -124 -101 -225 -223 -225h-125v-108c0 -10 -9 -19 -19 -19h-92c-11 0 -19 9 -19 19zM215 249h116c56 0 103 45 103 104c0 55 -47 97 -103 97h-116v-201z" />
    <glyph glyph-name="Ugrave" unicode="&#xd9;" horiz-adv-x="713" 
d="M78 257v424c0 10 9 19 19 19h95c11 0 19 -9 19 -19v-417c0 -85 58 -144 145 -144s146 59 146 143v418c0 10 8 19 19 19h95c10 0 19 -9 19 -19v-424c0 -152 -121 -267 -279 -267c-157 0 -278 115 -278 267zM427 768l-175 77c-9 4 -13 15 -6 27l28 52c5 9 18 8 26 3
l164 -98c5 -3 10 -11 6 -19l-18 -35c-4 -9 -11 -13 -25 -7z" />
    <glyph glyph-name="Uacute" unicode="&#xda;" horiz-adv-x="713" 
d="M78 257v424c0 10 9 19 19 19h95c11 0 19 -9 19 -19v-417c0 -85 58 -144 145 -144s146 59 146 143v418c0 10 8 19 19 19h95c10 0 19 -9 19 -19v-424c0 -152 -121 -267 -279 -267c-157 0 -278 115 -278 267zM289 768c-14 -6 -21 -2 -25 7l-18 35c-4 8 1 16 6 19l164 98
c11 7 21 6 26 -3l28 -52c7 -12 3 -23 -6 -27z" />
    <glyph glyph-name="Ucircumflex" unicode="&#xdb;" horiz-adv-x="713" 
d="M78 257v424c0 10 9 19 19 19h95c11 0 19 -9 19 -19v-417c0 -85 58 -144 145 -144s146 59 146 143v418c0 10 8 19 19 19h95c10 0 19 -9 19 -19v-424c0 -152 -121 -267 -279 -267c-157 0 -278 115 -278 267zM260 766c-12 -7 -17 -5 -23 3l-26 37c-5 7 0 15 6 19l130 101
c6 5 14 5 21 0l130 -101c6 -4 11 -12 6 -19l-26 -37c-6 -8 -11 -10 -23 -3l-97 61z" />
    <glyph glyph-name="Utilde" unicode="&#x168;" horiz-adv-x="713" 
d="M78 257v424c0 10 9 19 19 19h95c11 0 19 -9 19 -19v-417c0 -85 58 -144 145 -144s146 59 146 143v418c0 10 8 19 19 19h95c10 0 19 -9 19 -19v-424c0 -152 -121 -267 -279 -267c-157 0 -278 115 -278 267zM238 789l-29 21c-7 5 -9 16 -6 23c10 18 43 84 104 84
c52 0 69 -55 107 -55c35 0 36 62 65 41l28 -20c9 -7 8 -19 1 -31c-11 -19 -40 -76 -97 -76c-52 0 -76 56 -109 56c-36 0 -34 -62 -64 -43z" />
    <glyph glyph-name="Udieresis" unicode="&#xdc;" horiz-adv-x="713" 
d="M78 257v424c0 10 9 19 19 19h95c11 0 19 -9 19 -19v-417c0 -85 58 -144 145 -144s146 59 146 143v418c0 10 8 19 19 19h95c10 0 19 -9 19 -19v-424c0 -152 -121 -267 -279 -267c-157 0 -278 115 -278 267zM480 766c-41 0 -72 32 -72 73s31 72 72 72s73 -31 73 -72
s-32 -73 -73 -73zM233 766c-41 0 -72 32 -72 73s31 72 72 72s73 -31 73 -72s-32 -73 -73 -73z" />
    <glyph glyph-name="Umacron" unicode="&#x16a;" horiz-adv-x="713" 
d="M78 257v424c0 10 9 19 19 19h95c11 0 19 -9 19 -19v-417c0 -85 58 -144 145 -144s146 59 146 143v418c0 10 8 19 19 19h95c10 0 19 -9 19 -19v-424c0 -152 -121 -267 -279 -267c-157 0 -278 115 -278 267zM230 808c-11 0 -19 8 -19 18v34c0 11 8 19 19 19h256
c11 0 19 -8 19 -19v-34c0 -10 -8 -18 -19 -18h-256z" />
    <glyph glyph-name="Ubreve" unicode="&#x16c;" horiz-adv-x="713" 
d="M78 257v424c0 10 9 19 19 19h95c11 0 19 -9 19 -19v-417c0 -85 58 -144 145 -144s146 59 146 143v418c0 10 8 19 19 19h95c10 0 19 -9 19 -19v-424c0 -152 -121 -267 -279 -267c-157 0 -278 115 -278 267zM359 766c-73 0 -130 51 -140 118c-2 11 5 21 18 21h37
c9 0 15 -7 17 -14c10 -30 35 -53 68 -53c30 0 56 26 66 53c2 9 10 14 17 14h39c12 0 19 -10 18 -21c-11 -67 -68 -118 -140 -118z" />
    <glyph glyph-name="Uring" unicode="&#x16e;" horiz-adv-x="713" 
d="M78 257v424c0 10 9 19 19 19h95c11 0 19 -9 19 -19v-417c0 -85 58 -144 145 -144s146 59 146 143v418c0 10 8 19 19 19h95c10 0 19 -9 19 -19v-424c0 -152 -121 -267 -279 -267c-157 0 -278 115 -278 267zM359 754c-63 0 -113 50 -113 113s50 113 113 113
c62 0 113 -50 113 -113s-51 -113 -113 -113zM359 817c26 0 48 24 48 50s-22 48 -48 48s-50 -22 -50 -48s24 -50 50 -50z" />
    <glyph glyph-name="Uhungarumlaut" unicode="&#x170;" horiz-adv-x="713" 
d="M78 257v424c0 10 9 19 19 19h95c11 0 19 -9 19 -19v-417c0 -85 58 -144 145 -144s146 59 146 143v418c0 10 8 19 19 19h95c10 0 19 -9 19 -19v-424c0 -152 -121 -267 -279 -267c-157 0 -278 115 -278 267zM429 768c-16 0 -22 9 -19 19l37 141c3 10 9 19 19 19h76
c19 0 25 -13 18 -25l-78 -139c-4 -8 -11 -15 -18 -15h-35zM263 768c-16 0 -22 9 -19 19l37 141c3 10 9 19 19 19h76c19 0 25 -12 18 -25l-78 -139c-4 -8 -11 -15 -18 -15h-35z" />
    <glyph glyph-name="Uogonek" unicode="&#x172;" horiz-adv-x="713" 
d="M78 265v416c0 10 9 19 19 19h95c11 0 19 -9 19 -19v-409c0 -85 58 -152 145 -152s146 67 146 151v410c0 10 8 19 19 19h95c10 0 19 -9 19 -19v-416c0 -135 -95 -247 -227 -270c-34 -24 -86 -71 -86 -117c0 -30 15 -43 39 -43c27 0 53 21 61 28c9 8 20 4 20 -7l1 -49
c0 -12 -3 -22 -15 -31c-16 -10 -50 -23 -89 -23c-70 0 -105 46 -105 104c0 64 46 108 82 136c-137 18 -238 133 -238 272z" />
    <glyph glyph-name="Wacute" unicode="&#x1e82;" horiz-adv-x="885" 
d="M211 4l-189 672c-4 14 4 24 18 24h92c8 0 16 -7 18 -14l104 -399h4l159 412c2 6 7 11 17 11h18c10 0 15 -5 17 -11l160 -412h4l102 399c2 7 10 14 18 14h92c14 0 22 -10 18 -24l-189 -672c-2 -8 -10 -14 -18 -14h-16c-9 0 -15 5 -17 11l-179 453h-5l-177 -453
c-3 -6 -7 -11 -17 -11h-16c-8 0 -16 6 -18 14zM372 768c-14 -6 -21 -2 -25 7l-18 35c-4 8 1 16 6 19l164 98c11 7 21 6 26 -3l28 -52c7 -12 3 -23 -6 -27z" />
    <glyph glyph-name="Wcircumflex" unicode="&#x174;" horiz-adv-x="885" 
d="M211 4l-189 672c-4 14 4 24 18 24h92c8 0 16 -7 18 -14l104 -399h4l159 412c2 6 7 11 17 11h18c10 0 15 -5 17 -11l160 -412h4l102 399c2 7 10 14 18 14h92c14 0 22 -10 18 -24l-189 -672c-2 -8 -10 -14 -18 -14h-16c-9 0 -15 5 -17 11l-179 453h-5l-177 -453
c-3 -6 -7 -11 -17 -11h-16c-8 0 -16 6 -18 14zM345 766c-12 -7 -17 -5 -23 3l-26 37c-5 7 0 15 6 19l130 101c6 5 14 5 21 0l130 -101c6 -4 11 -12 6 -19l-26 -37c-6 -8 -11 -10 -23 -3l-97 61z" />
    <glyph glyph-name="Wdieresis" unicode="&#x1e84;" horiz-adv-x="885" 
d="M211 4l-189 672c-4 14 4 24 18 24h92c8 0 16 -7 18 -14l104 -399h4l159 412c2 6 7 11 17 11h18c10 0 15 -5 17 -11l160 -412h4l102 399c2 7 10 14 18 14h92c14 0 22 -10 18 -24l-189 -672c-2 -8 -10 -14 -18 -14h-16c-9 0 -15 5 -17 11l-179 453h-5l-177 -453
c-3 -6 -7 -11 -17 -11h-16c-8 0 -16 6 -18 14zM565 766c-41 0 -72 32 -72 73s31 72 72 72s73 -31 73 -72s-32 -73 -73 -73zM318 766c-41 0 -72 32 -72 73s31 72 72 72s73 -31 73 -72s-32 -73 -73 -73z" />
    <glyph glyph-name="Wgrave" unicode="&#x1e80;" horiz-adv-x="885" 
d="M211 4l-189 672c-4 14 4 24 18 24h92c8 0 16 -7 18 -14l104 -399h4l159 412c2 6 7 11 17 11h18c10 0 15 -5 17 -11l160 -412h4l102 399c2 7 10 14 18 14h92c14 0 22 -10 18 -24l-189 -672c-2 -8 -10 -14 -18 -14h-16c-9 0 -15 5 -17 11l-179 453h-5l-177 -453
c-3 -6 -7 -11 -17 -11h-16c-8 0 -16 6 -18 14zM513 768l-175 77c-9 4 -13 15 -6 27l28 52c5 9 18 8 26 3l164 -98c5 -3 10 -11 6 -19l-18 -35c-4 -9 -11 -13 -25 -7z" />
    <glyph glyph-name="Yacute" unicode="&#xdd;" horiz-adv-x="593" 
d="M231 19v318l-228 334c-8 13 0 29 16 29h102c8 0 13 -5 16 -9l160 -230l160 230c3 4 8 9 16 9h103c16 0 24 -16 16 -29l-231 -333v-319c0 -10 -9 -19 -19 -19h-92c-11 0 -19 9 -19 19zM227 768c-14 -6 -21 -2 -25 7l-18 35c-4 8 1 16 6 19l164 98c11 7 21 6 26 -3l28 -52
c7 -12 3 -23 -6 -27z" />
    <glyph glyph-name="Ycircumflex" unicode="&#x176;" horiz-adv-x="593" 
d="M231 19v318l-228 334c-8 13 0 29 16 29h102c8 0 13 -5 16 -9l160 -230l160 230c3 4 8 9 16 9h103c16 0 24 -16 16 -29l-231 -333v-319c0 -10 -9 -19 -19 -19h-92c-11 0 -19 9 -19 19zM200 766c-12 -7 -17 -5 -23 3l-26 37c-5 7 0 15 6 19l130 101c6 5 14 5 21 0l130 -101
c6 -4 11 -12 6 -19l-26 -37c-6 -8 -11 -10 -23 -3l-97 61z" />
    <glyph glyph-name="Ydieresis" unicode="&#x178;" horiz-adv-x="593" 
d="M231 19v318l-228 334c-8 13 0 29 16 29h102c8 0 13 -5 16 -9l160 -230l160 230c3 4 8 9 16 9h103c16 0 24 -16 16 -29l-231 -333v-319c0 -10 -9 -19 -19 -19h-92c-11 0 -19 9 -19 19zM420 766c-41 0 -72 32 -72 73s31 72 72 72s73 -31 73 -72s-32 -73 -73 -73zM173 766
c-41 0 -72 32 -72 73s31 72 72 72s73 -31 73 -72s-32 -73 -73 -73z" />
    <glyph glyph-name="Ygrave" unicode="&#x1ef2;" horiz-adv-x="593" 
d="M231 19v318l-228 334c-8 13 0 29 16 29h102c8 0 13 -5 16 -9l160 -230l160 230c3 4 8 9 16 9h103c16 0 24 -16 16 -29l-231 -333v-319c0 -10 -9 -19 -19 -19h-92c-11 0 -19 9 -19 19zM368 768l-175 77c-9 4 -13 15 -6 27l28 52c5 9 18 8 26 3l164 -98c5 -3 10 -11 6 -19
l-18 -35c-4 -9 -11 -13 -25 -7z" />
    <glyph glyph-name="Zacute" unicode="&#x179;" horiz-adv-x="538" 
d="M216 123v-2h255c11 0 19 -9 19 -19v-83c0 -10 -8 -19 -19 -19h-427c-10 0 -19 9 -19 19c0 11 0 18 7 31l291 525v4h-250c-10 0 -19 9 -19 19v83c0 10 9 19 19 19h418c10 0 19 -9 19 -19c0 -6 0 -13 -9 -29zM214 768c-14 -6 -21 -2 -25 7l-18 35c-4 8 1 16 6 19l164 98
c11 7 21 6 26 -3l28 -52c7 -12 3 -23 -6 -27z" />
    <glyph glyph-name="Zcaron" unicode="&#x17d;" horiz-adv-x="538" 
d="M216 123v-2h255c11 0 19 -9 19 -19v-83c0 -10 -8 -19 -19 -19h-427c-10 0 -19 9 -19 19c0 11 0 18 7 31l291 525v4h-250c-10 0 -19 9 -19 19v83c0 10 9 19 19 19h418c10 0 19 -9 19 -19c0 -6 0 -13 -9 -29zM269 764l-130 101c-6 4 -11 12 -6 19l26 37c6 8 11 10 23 3
l97 -61l98 61c12 7 17 5 23 -3l26 -37c5 -7 0 -15 -6 -19l-130 -101c-6 -5 -14 -5 -21 0z" />
    <glyph glyph-name="Zdotaccent" unicode="&#x17b;" horiz-adv-x="538" 
d="M216 123v-2h255c11 0 19 -9 19 -19v-83c0 -10 -8 -19 -19 -19h-427c-10 0 -19 9 -19 19c0 11 0 18 7 31l291 525v4h-250c-10 0 -19 9 -19 19v83c0 10 9 19 19 19h418c10 0 19 -9 19 -19c0 -6 0 -13 -9 -29zM281 773c-45 0 -79 36 -79 80s34 79 79 79s80 -35 80 -79
s-35 -80 -80 -80z" />
    <glyph glyph-name="agrave" unicode="&#xe0;" horiz-adv-x="482" 
d="M32 147c0 82 67 145 184 145c47 0 89 -13 89 -13c2 59 -15 87 -64 87c-42 0 -103 -9 -130 -17c-15 -5 -24 6 -26 20l-10 52c-4 17 5 25 15 28c10 4 83 23 158 23c144 0 174 -75 174 -201v-249c0 -12 -10 -22 -22 -22h-34c-8 0 -14 3 -20 16l-13 31
c-27 -26 -73 -58 -145 -58c-92 0 -156 59 -156 158zM152 147c0 -39 24 -65 67 -65c41 0 77 32 83 49v68s-31 14 -68 14c-53 0 -82 -25 -82 -66zM333 528l-175 77c-8 4 -13 14 -6 27l28 51c5 9 17 9 26 3l164 -97c6 -3 10 -11 6 -19l-18 -36c-4 -9 -11 -12 -25 -6z" />
    <glyph glyph-name="aacute" unicode="&#xe1;" horiz-adv-x="482" 
d="M32 147c0 82 67 145 184 145c47 0 89 -13 89 -13c2 59 -15 87 -64 87c-42 0 -103 -9 -130 -17c-15 -5 -24 6 -26 20l-10 52c-4 17 5 25 15 28c10 4 83 23 158 23c144 0 174 -75 174 -201v-249c0 -12 -10 -22 -22 -22h-34c-8 0 -14 3 -20 16l-13 31
c-27 -26 -73 -58 -145 -58c-92 0 -156 59 -156 158zM152 147c0 -39 24 -65 67 -65c41 0 77 32 83 49v68s-31 14 -68 14c-53 0 -82 -25 -82 -66zM205 528c-15 -6 -21 -3 -26 6l-17 36c-4 8 0 15 6 19l163 97c9 6 21 6 26 -3l29 -51c6 -13 2 -23 -6 -27z" />
    <glyph glyph-name="acircumflex" unicode="&#xe2;" horiz-adv-x="482" 
d="M32 147c0 82 67 145 184 145c47 0 89 -13 89 -13c2 59 -15 87 -64 87c-42 0 -103 -9 -130 -17c-15 -5 -24 6 -26 20l-10 52c-4 17 5 25 15 28c10 4 83 23 158 23c144 0 174 -75 174 -201v-249c0 -12 -10 -22 -22 -22h-34c-8 0 -14 3 -20 16l-13 31
c-27 -26 -73 -58 -145 -58c-92 0 -156 59 -156 158zM152 147c0 -39 24 -65 67 -65c41 0 77 32 83 49v68s-31 14 -68 14c-53 0 -82 -25 -82 -66zM125 529l-26 37c-5 7 0 15 6 19l130 101c6 5 14 5 21 0l130 -101c6 -4 11 -12 6 -19l-26 -37c-6 -8 -11 -10 -23 -3l-97 61
l-98 -61c-12 -7 -17 -5 -23 3z" />
    <glyph glyph-name="atilde" unicode="&#xe3;" horiz-adv-x="482" 
d="M32 147c0 82 67 145 184 145c47 0 89 -13 89 -13c2 59 -15 87 -64 87c-42 0 -103 -9 -130 -17c-15 -5 -24 6 -26 20l-10 52c-4 17 5 25 15 28c10 4 83 23 158 23c144 0 174 -75 174 -201v-249c0 -12 -10 -22 -22 -22h-34c-8 0 -14 3 -20 16l-13 31
c-27 -26 -73 -58 -145 -58c-92 0 -156 59 -156 158zM152 147c0 -39 24 -65 67 -65c41 0 77 32 83 49v68s-31 14 -68 14c-53 0 -82 -25 -82 -66zM128 562l-29 21c-7 5 -9 16 -6 23c10 18 43 84 104 84c52 0 69 -55 107 -55c35 0 36 62 65 41l28 -20c9 -7 8 -19 1 -31
c-11 -19 -40 -76 -97 -76c-52 0 -76 56 -109 56c-36 0 -34 -62 -64 -43z" />
    <glyph glyph-name="adieresis" unicode="&#xe4;" horiz-adv-x="482" 
d="M32 147c0 82 67 145 184 145c47 0 89 -13 89 -13c2 59 -15 87 -64 87c-42 0 -103 -9 -130 -17c-15 -5 -24 6 -26 20l-10 52c-4 17 5 25 15 28c10 4 83 23 158 23c144 0 174 -75 174 -201v-249c0 -12 -10 -22 -22 -22h-34c-8 0 -14 3 -20 16l-13 31
c-27 -26 -73 -58 -145 -58c-92 0 -156 59 -156 158zM152 147c0 -39 24 -65 67 -65c41 0 77 32 83 49v68s-31 14 -68 14c-53 0 -82 -25 -82 -66zM348 542c-41 0 -72 32 -72 73s31 72 72 72s73 -31 73 -72s-32 -73 -73 -73zM147 542c-41 0 -72 32 -72 73s31 72 72 72
s73 -31 73 -72s-32 -73 -73 -73z" />
    <glyph glyph-name="amacron" unicode="&#x101;" horiz-adv-x="482" 
d="M119 563c-11 0 -19 8 -19 18v41c0 11 8 19 19 19h256c11 0 19 -8 19 -19v-41c0 -10 -8 -18 -19 -18h-256zM32 147c0 82 67 145 184 145c47 0 89 -13 89 -13c2 59 -15 87 -64 87c-42 0 -103 -9 -130 -17c-15 -5 -24 6 -26 20l-10 52c-4 17 5 25 15 28c10 4 83 23 158 23
c144 0 174 -75 174 -201v-249c0 -12 -10 -22 -22 -22h-34c-8 0 -14 3 -20 16l-13 31c-27 -26 -73 -58 -145 -58c-92 0 -156 59 -156 158zM152 147c0 -39 24 -65 67 -65c41 0 77 32 83 49v68s-31 14 -68 14c-53 0 -82 -25 -82 -66z" />
    <glyph glyph-name="abreve" unicode="&#x103;" horiz-adv-x="482" 
d="M32 147c0 82 67 145 184 145c47 0 89 -13 89 -13c2 59 -15 87 -64 87c-42 0 -103 -9 -130 -17c-15 -5 -24 6 -26 20l-10 52c-4 17 5 25 15 28c10 4 83 23 158 23c144 0 174 -75 174 -201v-249c0 -12 -10 -22 -22 -22h-34c-8 0 -14 3 -20 16l-13 31
c-27 -26 -73 -58 -145 -58c-92 0 -156 59 -156 158zM152 147c0 -39 24 -65 67 -65c41 0 77 32 83 49v68s-31 14 -68 14c-53 0 -82 -25 -82 -66zM252 528c-73 0 -130 51 -140 118c-2 12 5 22 18 22h37c9 0 15 -7 17 -14c10 -31 35 -53 68 -53c30 0 56 25 66 53
c2 8 10 14 17 14h39c12 0 19 -10 18 -22c-11 -67 -68 -118 -140 -118z" />
    <glyph glyph-name="aring" unicode="&#xe5;" horiz-adv-x="482" 
d="M32 147c0 82 67 145 184 145c47 0 89 -13 89 -13c2 59 -15 87 -64 87c-42 0 -103 -9 -130 -17c-15 -5 -24 6 -26 20l-10 52c-4 17 5 25 15 28c10 4 83 23 158 23c144 0 174 -75 174 -201v-249c0 -12 -10 -22 -22 -22h-34c-8 0 -14 3 -20 16l-13 31
c-27 -26 -73 -58 -145 -58c-92 0 -156 59 -156 158zM152 147c0 -39 24 -65 67 -65c41 0 77 32 83 49v68s-31 14 -68 14c-53 0 -82 -25 -82 -66zM250 508c-63 0 -113 50 -113 113s50 113 113 113c62 0 113 -50 113 -113s-51 -113 -113 -113zM250 571c26 0 48 24 48 50
s-22 48 -48 48s-50 -22 -50 -48s24 -50 50 -50z" />
    <glyph glyph-name="aringacute" unicode="&#x1fb;" horiz-adv-x="482" 
d="M249 499c-63 0 -113 40 -113 103s50 103 113 103c62 0 113 -40 113 -103s-51 -103 -113 -103zM249 562c26 0 48 14 48 40s-22 38 -48 38s-50 -12 -50 -38s24 -40 50 -40zM178 714c-15 -6 -21 -3 -26 6l-15 36c-4 8 -1 16 6 19l161 77c10 5 24 6 29 -3l26 -51
c6 -12 2 -23 -6 -27zM32 147c0 82 67 145 184 145c47 0 89 -13 89 -13c2 59 -15 87 -64 87c-42 0 -103 -9 -130 -17c-15 -5 -24 6 -26 20l-10 52c-4 17 5 25 15 28c10 4 83 23 158 23c144 0 174 -75 174 -201v-249c0 -12 -10 -22 -22 -22h-34c-8 0 -14 3 -20 16l-13 31
c-27 -26 -73 -58 -145 -58c-92 0 -156 59 -156 158zM152 147c0 -39 24 -65 67 -65c41 0 77 32 83 49v68s-31 14 -68 14c-53 0 -82 -25 -82 -66z" />
    <glyph glyph-name="aogonek" unicode="&#x105;" horiz-adv-x="482" 
d="M32 147c0 82 67 145 184 145c47 0 89 -13 89 -13c2 59 -15 87 -64 87c-42 0 -103 -9 -130 -17c-15 -5 -24 6 -26 20l-10 52c-4 17 5 25 15 28c10 4 83 23 158 23c144 0 174 -75 174 -201v-244c0 -15 -9 -23 -16 -27c-33 -21 -95 -72 -95 -122c0 -30 15 -43 39 -43
c27 0 53 21 61 28c9 8 20 4 20 -7l1 -49c0 -12 -3 -22 -15 -31c-16 -10 -50 -23 -89 -23c-70 0 -105 46 -105 104c0 74 83 140 120 166l-10 24c-27 -26 -73 -58 -145 -58c-92 0 -156 59 -156 158zM152 147c0 -39 24 -65 67 -65c41 0 77 32 83 49v68s-31 14 -68 14
c-53 0 -82 -25 -82 -66z" />
    <glyph glyph-name="ae" unicode="&#xe6;" horiz-adv-x="773" 
d="M33 147c0 81 66 145 179 145c47 0 90 -12 90 -12c-2 60 -13 86 -64 86c-45 0 -99 -9 -125 -17c-13 -4 -24 5 -26 16l-12 62c-2 12 8 20 18 23c0 0 85 22 156 22c72 0 114 -18 139 -50c37 31 86 50 139 50c118 0 217 -87 217 -214c0 -21 0 -51 -26 -51h-294
c0 -49 42 -107 116 -107c35 0 73 13 101 36c7 6 19 9 27 -2l39 -51c7 -10 10 -21 -2 -30c-37 -36 -102 -64 -177 -64c-70 0 -130 31 -172 81c-20 -28 -80 -81 -165 -81c-94 0 -158 60 -158 158zM153 147c0 -39 24 -65 67 -65c41 0 77 32 83 49v68s-31 14 -68 14
c-53 0 -82 -25 -82 -66zM431 289h187c-2 45 -38 80 -89 80c-56 0 -92 -34 -98 -80z" />
    <glyph glyph-name="aeacute" unicode="&#x1fd;" horiz-adv-x="773" 
d="M33 147c0 81 66 145 179 145c47 0 90 -12 90 -12c-2 60 -13 86 -64 86c-45 0 -99 -9 -125 -17c-13 -4 -24 5 -26 16l-12 62c-2 12 8 20 18 23c0 0 85 22 156 22c72 0 114 -18 139 -50c37 31 86 50 139 50c118 0 217 -87 217 -214c0 -21 0 -51 -26 -51h-294
c0 -49 42 -107 116 -107c35 0 73 13 101 36c7 6 19 9 27 -2l39 -51c7 -10 10 -21 -2 -30c-37 -36 -102 -64 -177 -64c-70 0 -130 31 -172 81c-20 -28 -80 -81 -165 -81c-94 0 -158 60 -158 158zM153 147c0 -39 24 -65 67 -65c41 0 77 32 83 49v68s-31 14 -68 14
c-53 0 -82 -25 -82 -66zM431 289h187c-2 45 -38 80 -89 80c-56 0 -92 -34 -98 -80zM365 528c-15 -6 -21 -3 -26 6l-17 36c-4 8 0 15 6 19l163 97c9 6 21 6 26 -3l29 -51c6 -13 2 -23 -6 -27z" />
    <glyph glyph-name="cacute" unicode="&#x107;" horiz-adv-x="492" 
d="M36 231c0 136 108 241 245 241c72 0 128 -31 172 -78c10 -10 5 -23 -5 -33l-42 -46c-10 -11 -21 -6 -30 3c-22 21 -49 40 -92 40c-72 0 -122 -56 -122 -127c0 -72 49 -128 121 -128c51 0 78 28 98 51c7 8 21 10 29 3l45 -38c11 -10 16 -21 8 -33
c-39 -61 -101 -97 -183 -97c-135 0 -244 103 -244 242zM209 528c-15 -6 -21 -3 -26 6l-17 36c-4 8 0 15 6 19l163 97c9 6 21 6 26 -3l29 -51c6 -13 2 -23 -6 -27z" />
    <glyph glyph-name="ccircumflex" unicode="&#x109;" horiz-adv-x="492" 
d="M36 231c0 136 108 241 245 241c72 0 128 -31 172 -78c10 -10 5 -23 -5 -33l-42 -46c-10 -11 -21 -6 -30 3c-22 21 -49 40 -92 40c-72 0 -122 -56 -122 -127c0 -72 49 -128 121 -128c51 0 78 28 98 51c7 8 21 10 29 3l45 -38c11 -10 16 -21 8 -33
c-39 -61 -101 -97 -183 -97c-135 0 -244 103 -244 242zM160 529l-26 37c-5 7 0 15 6 19l130 101c6 5 14 5 21 0l130 -101c6 -4 11 -12 6 -19l-26 -37c-6 -8 -11 -10 -23 -3l-97 61l-98 -61c-12 -7 -17 -5 -23 3z" />
    <glyph glyph-name="ccaron" unicode="&#x10d;" horiz-adv-x="492" 
d="M36 231c0 136 108 241 245 241c72 0 128 -31 172 -78c10 -10 5 -23 -5 -33l-42 -46c-10 -11 -21 -6 -30 3c-22 21 -49 40 -92 40c-72 0 -122 -56 -122 -127c0 -72 49 -128 121 -128c51 0 78 28 98 51c7 8 21 10 29 3l45 -38c11 -10 16 -21 8 -33
c-39 -61 -101 -97 -183 -97c-135 0 -244 103 -244 242zM270 524l-130 101c-6 4 -11 12 -6 19l26 37c6 8 11 10 23 3l97 -61l98 61c12 7 17 5 23 -3l26 -37c5 -7 0 -15 -6 -19l-130 -101c-6 -5 -14 -5 -21 0z" />
    <glyph glyph-name="cdotaccent" unicode="&#x10b;" horiz-adv-x="492" 
d="M36 231c0 136 108 241 245 241c72 0 128 -31 172 -78c10 -10 5 -23 -5 -33l-42 -46c-10 -11 -21 -6 -30 3c-22 21 -49 40 -92 40c-72 0 -122 -56 -122 -127c0 -72 49 -128 121 -128c51 0 78 28 98 51c7 8 21 10 29 3l45 -38c11 -10 16 -21 8 -33
c-39 -61 -101 -97 -183 -97c-135 0 -244 103 -244 242zM280 541c-45 0 -79 36 -79 80s34 79 79 79s80 -35 80 -79s-35 -80 -80 -80z" />
    <glyph glyph-name="ccedilla" unicode="&#xe7;" horiz-adv-x="492" 
d="M36 231c0 136 108 241 245 241c72 0 128 -31 172 -78c10 -10 5 -23 -5 -33l-42 -46c-10 -11 -21 -6 -30 3c-22 21 -49 40 -92 40c-72 0 -122 -56 -122 -127c0 -72 49 -128 121 -128c51 0 78 28 98 51c7 8 21 10 29 3l45 -38c11 -10 16 -21 8 -33
c-35 -55 -88 -89 -157 -96l-33 -52c7 2 14 3 21 3c45 0 85 -31 85 -87c0 -63 -52 -100 -120 -100c-39 0 -67 11 -84 25c-8 8 -6 17 0 28l9 20c6 14 15 17 27 9c7 -6 24 -16 43 -16c28 0 47 13 47 39c0 25 -19 38 -46 38c-18 0 -29 -8 -38 -11c-10 -4 -22 9 -17 18l43 88
c-117 16 -207 113 -207 239z" />
    <glyph glyph-name="dcaron" unicode="&#x10f;" horiz-adv-x="567" 
d="M36 231c0 135 91 241 229 241c46 0 90 -11 111 -19v225c0 11 11 22 22 22h81c12 0 22 -11 22 -22v-656c0 -12 -10 -22 -22 -22h-37c-11 0 -18 9 -22 22l-12 36s-53 -69 -151 -69c-126 0 -221 102 -221 242zM376 167v165s-38 26 -96 26c-76 0 -115 -62 -115 -127
s37 -128 109 -128c60 0 92 38 102 64zM537 640c0 44 33 70 77 70c50 0 90 -30 90 -99c0 -63 -26 -108 -53 -137c-4 -7 -12 -7 -20 -2l-26 20c-9 6 -8 14 -1 21c15 16 26 43 26 66v13c-2 -1 -16 -10 -33 -10c-37 0 -60 26 -60 58z" />
    <glyph glyph-name="dcroat" unicode="&#x111;" horiz-adv-x="565" 
d="M36 231c0 135 91 241 229 241c46 0 90 -11 111 -19v80h-108c-11 0 -19 8 -19 18v14c0 10 8 19 19 19h108v94c0 11 11 22 22 22h81c12 0 22 -11 22 -22v-94h38c10 0 18 -9 18 -19v-13c0 -10 -8 -19 -18 -19h-38v-511c0 -12 -10 -22 -22 -22h-37c-11 0 -18 9 -22 22l-12 36
s-53 -69 -151 -69c-126 0 -221 102 -221 242zM376 167v165s-38 26 -96 26c-76 0 -115 -62 -115 -127s37 -128 109 -128c60 0 92 38 102 64z" />
    <glyph glyph-name="eth" unicode="&#xf0;" horiz-adv-x="559" 
d="M37 226c0 147 107 223 210 223c48 0 100 -18 117 -29c-16 57 -60 102 -108 136l-83 -48c-9 -5 -21 -2 -26 6l-7 13c-5 9 -3 21 6 26l60 34c-28 16 -54 26 -68 31c-20 6 -24 18 -19 30l24 61c4 13 14 18 29 14c31 -12 84 -35 141 -73l71 41c10 5 22 1 27 -8l7 -11
c5 -10 3 -22 -6 -27l-54 -31c83 -70 157 -179 157 -340c0 -155 -84 -284 -245 -284c-127 0 -233 106 -233 236zM153 228c0 -65 53 -121 118 -121c83 0 120 81 120 152c-11 37 -51 89 -119 89c-66 0 -119 -54 -119 -120z" />
    <glyph glyph-name="egrave" unicode="&#xe8;" horiz-adv-x="511" 
d="M36 231c0 130 96 241 233 241c120 0 212 -89 212 -214c0 -7 -1 -23 -2 -30c-1 -12 -12 -21 -22 -21h-296c1 -57 48 -107 115 -107c46 0 78 17 99 34c11 9 23 10 30 0l39 -52c8 -9 9 -20 -2 -30c-40 -34 -97 -63 -172 -63c-138 0 -234 110 -234 242zM168 289h187
c-2 45 -38 80 -89 80c-56 0 -92 -34 -98 -80zM361 528l-175 77c-8 4 -13 14 -6 27l28 51c5 9 17 9 26 3l164 -97c6 -3 10 -11 6 -19l-18 -36c-4 -9 -11 -12 -25 -6z" />
    <glyph glyph-name="eacute" unicode="&#xe9;" horiz-adv-x="511" 
d="M36 231c0 130 96 241 233 241c120 0 212 -89 212 -214c0 -7 -1 -23 -2 -30c-1 -12 -12 -21 -22 -21h-296c1 -57 48 -107 115 -107c46 0 78 17 99 34c11 9 23 10 30 0l39 -52c8 -9 9 -20 -2 -30c-40 -34 -97 -63 -172 -63c-138 0 -234 110 -234 242zM168 289h187
c-2 45 -38 80 -89 80c-56 0 -92 -34 -98 -80zM210 528c-15 -6 -21 -3 -26 6l-17 36c-4 8 0 15 6 19l163 97c9 6 21 6 26 -3l29 -51c6 -13 2 -23 -6 -27z" />
    <glyph glyph-name="ecircumflex" unicode="&#xea;" horiz-adv-x="511" 
d="M36 231c0 130 96 241 233 241c120 0 212 -89 212 -214c0 -7 -1 -23 -2 -30c-1 -12 -12 -21 -22 -21h-296c1 -57 48 -107 115 -107c46 0 78 17 99 34c11 9 23 10 30 0l39 -52c8 -9 9 -20 -2 -30c-40 -34 -97 -63 -172 -63c-138 0 -234 110 -234 242zM168 289h187
c-2 45 -38 80 -89 80c-56 0 -92 -34 -98 -80zM149 529l-26 37c-5 7 0 15 6 19l130 101c6 5 14 5 21 0l130 -101c6 -4 11 -12 6 -19l-26 -37c-6 -8 -11 -10 -23 -3l-97 61l-98 -61c-12 -7 -17 -5 -23 3z" />
    <glyph glyph-name="ecaron" unicode="&#x11b;" horiz-adv-x="511" 
d="M36 231c0 130 96 241 233 241c120 0 212 -89 212 -214c0 -7 -1 -23 -2 -30c-1 -12 -12 -21 -22 -21h-296c1 -57 48 -107 115 -107c46 0 78 17 99 34c11 9 23 10 30 0l39 -52c8 -9 9 -20 -2 -30c-40 -34 -97 -63 -172 -63c-138 0 -234 110 -234 242zM168 289h187
c-2 45 -38 80 -89 80c-56 0 -92 -34 -98 -80zM258 524l-130 101c-6 4 -11 12 -6 19l26 37c6 8 11 10 23 3l97 -61l98 61c12 7 17 5 23 -3l26 -37c5 -7 0 -15 -6 -19l-130 -101c-6 -5 -14 -5 -21 0z" />
    <glyph glyph-name="edieresis" unicode="&#xeb;" horiz-adv-x="511" 
d="M36 231c0 130 96 241 233 241c120 0 212 -89 212 -214c0 -7 -1 -23 -2 -30c-1 -12 -12 -21 -22 -21h-296c1 -57 48 -107 115 -107c46 0 78 17 99 34c11 9 23 10 30 0l39 -52c8 -9 9 -20 -2 -30c-40 -34 -97 -63 -172 -63c-138 0 -234 110 -234 242zM168 289h187
c-2 45 -38 80 -89 80c-56 0 -92 -34 -98 -80zM372 542c-41 0 -72 32 -72 73s31 72 72 72s73 -31 73 -72s-32 -73 -73 -73zM171 542c-41 0 -72 32 -72 73s31 72 72 72s73 -31 73 -72s-32 -73 -73 -73z" />
    <glyph glyph-name="emacron" unicode="&#x113;" horiz-adv-x="511" 
d="M36 231c0 130 96 241 233 241c120 0 212 -89 212 -214c0 -7 -1 -23 -2 -30c-1 -12 -12 -21 -22 -21h-296c1 -57 48 -107 115 -107c46 0 78 17 99 34c11 9 23 10 30 0l39 -52c8 -9 9 -20 -2 -30c-40 -34 -97 -63 -172 -63c-138 0 -234 110 -234 242zM168 289h187
c-2 45 -38 80 -89 80c-56 0 -92 -34 -98 -80zM138 570c-11 0 -19 8 -19 18v34c0 11 8 19 19 19h256c11 0 19 -8 19 -19v-34c0 -10 -8 -18 -19 -18h-256z" />
    <glyph glyph-name="ebreve" unicode="&#x115;" horiz-adv-x="511" 
d="M36 231c0 130 96 241 233 241c120 0 212 -89 212 -214c0 -7 -1 -23 -2 -30c-1 -12 -12 -21 -22 -21h-296c1 -57 48 -107 115 -107c46 0 78 17 99 34c11 9 23 10 30 0l39 -52c8 -9 9 -20 -2 -30c-40 -34 -97 -63 -172 -63c-138 0 -234 110 -234 242zM168 289h187
c-2 45 -38 80 -89 80c-56 0 -92 -34 -98 -80zM271 528c-73 0 -130 51 -140 118c-2 12 5 22 18 22h37c9 0 15 -7 17 -14c10 -31 35 -53 68 -53c30 0 56 25 66 53c2 8 10 14 17 14h39c12 0 19 -10 18 -22c-11 -67 -68 -118 -140 -118z" />
    <glyph glyph-name="edotaccent" unicode="&#x117;" horiz-adv-x="511" 
d="M36 231c0 130 96 241 233 241c120 0 212 -89 212 -214c0 -7 -1 -23 -2 -30c-1 -12 -12 -21 -22 -21h-296c1 -57 48 -107 115 -107c46 0 78 17 99 34c11 9 23 10 30 0l39 -52c8 -9 9 -20 -2 -30c-40 -34 -97 -63 -172 -63c-138 0 -234 110 -234 242zM168 289h187
c-2 45 -38 80 -89 80c-56 0 -92 -34 -98 -80zM270 541c-45 0 -79 36 -79 80s34 79 79 79s80 -35 80 -79s-35 -80 -80 -80z" />
    <glyph glyph-name="eogonek" unicode="&#x119;" horiz-adv-x="511" 
d="M36 231c0 130 96 241 233 241c120 0 212 -89 212 -214c0 -7 -1 -23 -2 -30c-1 -12 -12 -21 -22 -21h-296c1 -57 48 -107 115 -107c46 0 78 17 99 34c11 9 23 10 30 0l39 -52c8 -9 9 -20 -2 -30c-26 -22 -60 -42 -100 -53c-33 -23 -92 -72 -92 -121c0 -30 15 -43 39 -43
c27 0 53 21 61 28c9 8 20 4 20 -7l1 -49c0 -12 -3 -22 -15 -31c-16 -10 -50 -23 -89 -23c-70 0 -105 46 -105 104c0 63 44 107 79 134c-122 14 -205 117 -205 240zM168 289h187c-2 45 -38 80 -89 80c-56 0 -92 -34 -98 -80z" />
    <glyph glyph-name="gcircumflex" unicode="&#x11d;" horiz-adv-x="565" 
d="M170 529l-26 37c-5 7 0 15 6 19l130 101c6 5 14 5 21 0l130 -101c6 -4 11 -12 6 -19l-26 -37c-6 -8 -11 -10 -23 -3l-97 61l-98 -61c-12 -7 -17 -5 -23 3zM376 294v-165s-38 -26 -96 -26c-76 0 -115 62 -115 127s37 128 109 128c60 0 92 -38 102 -64zM501 -5v445
c0 12 -10 22 -22 22h-37c-11 0 -18 -9 -22 -22l-12 -37s-53 69 -151 69c-126 0 -221 -102 -221 -242c0 -135 91 -241 229 -241c46 0 90 11 111 19v-13c0 -86 -38 -110 -109 -110c-48 0 -93 25 -110 35c-10 6 -23 3 -27 -6l-30 -65c-5 -8 -2 -20 5 -26c22 -17 90 -52 166 -52
c126 0 230 75 230 224z" />
    <glyph glyph-name="gbreve" unicode="&#x11f;" horiz-adv-x="565" 
d="M290 528c-73 0 -130 51 -140 118c-2 12 5 22 18 22h37c9 0 15 -7 17 -14c10 -31 35 -53 68 -53c30 0 56 25 66 53c2 8 10 14 17 14h39c12 0 19 -10 18 -22c-11 -67 -68 -118 -140 -118zM376 294v-165s-38 -26 -96 -26c-76 0 -115 62 -115 127s37 128 109 128
c60 0 92 -38 102 -64zM501 -5v445c0 12 -10 22 -22 22h-37c-11 0 -18 -9 -22 -22l-12 -37s-53 69 -151 69c-126 0 -221 -102 -221 -242c0 -135 91 -241 229 -241c46 0 90 11 111 19v-13c0 -86 -38 -110 -109 -110c-48 0 -93 25 -110 35c-10 6 -23 3 -27 -6l-30 -65
c-5 -8 -2 -20 5 -26c22 -17 90 -52 166 -52c126 0 230 75 230 224z" />
    <glyph glyph-name="gdotaccent" unicode="&#x121;" horiz-adv-x="565" 
d="M287 541c-45 0 -79 36 -79 80s34 79 79 79s80 -35 80 -79s-35 -80 -80 -80zM376 294v-165s-38 -26 -96 -26c-76 0 -115 62 -115 127s37 128 109 128c60 0 92 -38 102 -64zM501 -5v445c0 12 -10 22 -22 22h-37c-11 0 -18 -9 -22 -22l-12 -37s-53 69 -151 69
c-126 0 -221 -102 -221 -242c0 -135 91 -241 229 -241c46 0 90 11 111 19v-13c0 -86 -38 -110 -109 -110c-48 0 -93 25 -110 35c-10 6 -23 3 -27 -6l-30 -65c-5 -8 -2 -20 5 -26c22 -17 90 -52 166 -52c126 0 230 75 230 224z" />
    <glyph glyph-name="gcommaaccent" unicode="&#x123;" horiz-adv-x="565" 
d="M376 294v-165s-38 -26 -96 -26c-76 0 -115 62 -115 127s37 128 109 128c60 0 92 -38 102 -64zM501 -5v445c0 12 -10 22 -22 22h-37c-11 0 -18 -9 -22 -22l-12 -37s-53 69 -151 69c-126 0 -221 -102 -221 -242c0 -135 91 -241 229 -241c46 0 90 11 111 19v-13
c0 -86 -38 -110 -109 -110c-48 0 -93 25 -110 35c-10 6 -23 3 -27 -6l-30 -65c-5 -8 -2 -20 5 -26c22 -17 90 -52 166 -52c126 0 230 75 230 224zM387 590c0 -44 -33 -70 -77 -70c-50 0 -90 30 -90 99c0 63 26 108 53 137c4 7 12 7 20 2l26 -20c9 -6 8 -14 1 -21
c-15 -16 -26 -43 -26 -66v-13c2 1 16 10 33 10c37 0 60 -26 60 -58z" />
    <glyph glyph-name="hcircumflex" unicode="&#x125;" horiz-adv-x="552" 
d="M64 22v656c0 11 11 22 22 22h81c12 0 22 -11 22 -22v-245c23 20 63 39 118 39c147 0 187 -102 187 -218v-232c0 -12 -11 -22 -22 -22h-81c-12 0 -22 10 -22 22v233c0 64 -29 103 -84 103c-54 0 -84 -34 -96 -81v-255c0 -13 -6 -22 -24 -22h-79c-11 0 -22 10 -22 22z
M2 746l-26 37c-5 7 0 15 6 19l130 101c6 5 14 5 21 0l130 -101c6 -4 11 -12 6 -19l-26 -37c-6 -8 -11 -10 -23 -3l-97 61l-98 -61c-12 -7 -17 -5 -23 3z" />
    <glyph glyph-name="hbar" unicode="&#x127;" horiz-adv-x="572" 
d="M64 22v511h-35c-10 0 -18 9 -18 19v13c0 10 8 19 18 19h35v94c0 11 11 22 22 22h81c12 0 22 -11 22 -22v-94h110c11 0 19 -9 19 -19v-14c0 -10 -8 -18 -19 -18h-110v-100c23 20 73 39 128 39c147 0 197 -102 197 -218v-232c0 -12 -11 -22 -22 -22h-81
c-12 0 -22 10 -22 22v233c0 64 -39 103 -94 103c-54 0 -94 -34 -106 -81v-255c0 -13 -6 -22 -24 -22h-79c-11 0 -22 10 -22 22z" />
    <glyph glyph-name="dotlessi" unicode="&#x131;" horiz-adv-x="253" 
d="M64 22v418c0 13 11 22 22 22h81c11 0 22 -9 22 -22v-418c0 -12 -11 -22 -22 -22h-81c-11 0 -22 10 -22 22z" />
    <glyph glyph-name="igrave" unicode="&#xec;" horiz-adv-x="253" 
d="M64 22v418c0 13 11 22 22 22h81c11 0 22 -9 22 -22v-418c0 -12 -11 -22 -22 -22h-81c-11 0 -22 10 -22 22zM208 528l-175 77c-8 4 -13 14 -6 27l28 51c5 9 17 9 26 3l164 -97c6 -3 10 -11 6 -19l-18 -36c-4 -9 -11 -12 -25 -6z" />
    <glyph glyph-name="iacute" unicode="&#xed;" horiz-adv-x="253" 
d="M64 22v418c0 13 11 22 22 22h81c11 0 22 -9 22 -22v-418c0 -12 -11 -22 -22 -22h-81c-11 0 -22 10 -22 22zM66 528c-15 -6 -21 -3 -26 6l-17 36c-4 8 0 15 6 19l163 97c9 6 21 6 26 -3l29 -51c6 -13 2 -23 -6 -27z" />
    <glyph glyph-name="ibreve" unicode="&#x12d;" horiz-adv-x="253" 
d="M64 22v418c0 13 11 22 22 22h81c11 0 22 -9 22 -22v-418c0 -12 -11 -22 -22 -22h-81c-11 0 -22 10 -22 22zM135 528c-73 0 -130 51 -140 118c-2 12 5 22 18 22h37c9 0 15 -7 17 -14c10 -31 35 -53 68 -53c30 0 56 25 66 53c2 8 10 14 17 14h39c12 0 19 -10 18 -22
c-11 -67 -68 -118 -140 -118z" />
    <glyph glyph-name="icircumflex" unicode="&#xee;" horiz-adv-x="253" 
d="M64 22v418c0 13 11 22 22 22h81c11 0 22 -9 22 -22v-418c0 -12 -11 -22 -22 -22h-81c-11 0 -22 10 -22 22zM13 529l-26 37c-5 7 0 15 6 19l130 101c6 5 14 5 21 0l130 -101c6 -4 11 -12 6 -19l-26 -37c-6 -8 -11 -10 -23 -3l-97 61l-98 -61c-12 -7 -17 -5 -23 3z" />
    <glyph glyph-name="itilde" unicode="&#x129;" horiz-adv-x="253" 
d="M64 22v418c0 13 11 22 22 22h81c11 0 22 -9 22 -22v-418c0 -12 -11 -22 -22 -22h-81c-11 0 -22 10 -22 22zM14 562l-29 21c-7 5 -9 16 -6 23c10 18 43 84 104 84c52 0 69 -55 107 -55c35 0 36 62 65 41l28 -20c9 -7 8 -19 1 -31c-11 -19 -40 -76 -97 -76
c-52 0 -76 56 -109 56c-36 0 -34 -62 -64 -43z" />
    <glyph glyph-name="idieresis" unicode="&#xef;" horiz-adv-x="253" 
d="M64 22v418c0 13 11 22 22 22h81c11 0 22 -9 22 -22v-418c0 -12 -11 -22 -22 -22h-81c-11 0 -22 10 -22 22zM232 542c-41 0 -72 32 -72 73s31 72 72 72s73 -31 73 -72s-32 -73 -73 -73zM31 542c-41 0 -72 32 -72 73s31 72 72 72s73 -31 73 -72s-32 -73 -73 -73z" />
    <glyph glyph-name="imacron" unicode="&#x12b;" horiz-adv-x="253" 
d="M64 22v418c0 13 11 22 22 22h81c11 0 22 -9 22 -22v-418c0 -12 -11 -22 -22 -22h-81c-11 0 -22 10 -22 22zM7 570c-11 0 -19 8 -19 18v34c0 11 8 19 19 19h256c11 0 19 -8 19 -19v-34c0 -10 -8 -18 -19 -18h-256z" />
    <glyph glyph-name="iogonek" unicode="&#x12f;" horiz-adv-x="253" 
d="M64 22v418c0 13 11 22 22 22h81c11 0 22 -9 22 -22v-403c0 -21 -12 -30 -21 -37c-33 -22 -94 -72 -94 -122c0 -30 15 -43 39 -43c27 0 53 21 61 28c9 8 20 4 20 -7l1 -49c0 -12 -3 -22 -15 -31c-16 -10 -50 -23 -89 -23c-70 0 -105 46 -105 104c0 72 57 118 93 144
c-8 3 -15 11 -15 21zM125 541c-45 0 -79 36 -79 80s34 79 79 79s80 -35 80 -79s-35 -80 -80 -80z" />
    <glyph glyph-name="dotlessj" unicode="&#x237;" horiz-adv-x="253" 
d="M189 440v-459c0 -137 -64 -193 -140 -226c-16 -7 -37 -8 -44 10l-24 56c-7 18 -5 31 12 40c33 18 71 41 71 103v476c0 13 11 22 22 22h81c11 0 22 -9 22 -22z" />
    <glyph glyph-name="jcircumflex" unicode="&#x135;" horiz-adv-x="253" 
d="M189 440v-459c0 -137 -64 -193 -140 -226c-16 -7 -37 -8 -44 10l-24 56c-7 18 -5 31 12 40c33 18 71 41 71 103v476c0 13 11 22 22 22h81c11 0 22 -9 22 -22zM6 529l-26 37c-5 7 0 15 6 19l130 101c6 5 14 5 21 0l130 -101c6 -4 11 -12 6 -19l-26 -37
c-6 -8 -11 -10 -23 -3l-97 61l-98 -61c-12 -7 -17 -5 -23 3z" />
    <glyph glyph-name="kcommaaccent" unicode="&#x137;" horiz-adv-x="517" 
d="M64 22v656c0 11 11 22 22 22h81c12 0 22 -11 22 -22v-391l159 161c8 7 16 14 29 14h94c19 0 26 -21 15 -34l-183 -180l192 -215c12 -13 5 -33 -14 -33h-98c-8 0 -17 4 -20 9l-174 208v-195c0 -12 -10 -22 -22 -22h-81c-11 0 -22 10 -22 22zM191 -134c0 44 33 70 77 70
c50 0 90 -30 90 -99c0 -63 -26 -108 -53 -137c-4 -7 -12 -7 -20 -2l-26 20c-9 6 -8 14 -1 21c15 16 26 43 26 66v13c-2 -1 -16 -10 -33 -10c-37 0 -60 26 -60 58z" />
    <glyph glyph-name="kgreenlandic" unicode="&#x138;" horiz-adv-x="536" 
d="M64 22v418c0 11 11 22 22 22h81c12 0 22 -11 22 -22v-184l174 192c8 9 17 14 30 14h92c20 0 26 -21 14 -34l-191 -202l210 -193c12 -13 5 -33 -14 -33h-113c-8 0 -15 5 -20 9l-182 178v-165c0 -12 -10 -22 -22 -22h-81c-11 0 -22 10 -22 22z" />
    <glyph glyph-name="lacute" unicode="&#x13a;" horiz-adv-x="255" 
d="M65 22v656c0 11 11 22 22 22h81c11 0 22 -11 22 -22v-656c0 -12 -11 -22 -22 -22h-81c-11 0 -22 10 -22 22zM64 745c-15 -6 -21 -3 -26 6l-17 36c-4 8 0 15 6 19l163 97c9 6 21 6 26 -3l29 -51c6 -13 2 -23 -6 -27z" />
    <glyph glyph-name="lcaron" unicode="&#x13e;" horiz-adv-x="256" 
d="M65 22v656c0 11 11 22 22 22h81c11 0 22 -11 22 -22v-656c0 -12 -11 -22 -22 -22h-81c-11 0 -22 10 -22 22zM226 640c0 44 33 70 77 70c50 0 90 -30 90 -99c0 -63 -26 -108 -53 -137c-4 -7 -12 -7 -20 -2l-26 20c-9 6 -8 14 -1 21c15 16 26 43 26 66v13
c-2 -1 -16 -10 -33 -10c-37 0 -60 26 -60 58z" />
    <glyph glyph-name="lcommaaccent" unicode="&#x13c;" horiz-adv-x="255" 
d="M65 22v656c0 11 11 22 22 22h81c11 0 22 -11 22 -22v-656c0 -12 -11 -22 -22 -22h-81c-11 0 -22 10 -22 22zM45 -134c0 44 33 70 77 70c50 0 90 -30 90 -99c0 -63 -26 -108 -53 -137c-4 -7 -12 -7 -20 -2l-26 20c-9 6 -8 14 -1 21c15 16 26 43 26 66v13
c-2 -1 -16 -10 -33 -10c-37 0 -60 26 -60 58z" />
    <glyph glyph-name="lslash" unicode="&#x142;" horiz-adv-x="287" 
d="M78 22v287l-30 -17c-12 -7 -21 -2 -26 7l-6 12c-5 8 -3 20 6 25l56 32v310c0 11 11 22 22 22h81c11 0 22 -11 22 -22v-237l64 38c10 6 21 2 26 -7l7 -13c5 -8 2 -20 -7 -25l-90 -52v-360c0 -12 -11 -22 -22 -22h-81c-11 0 -22 10 -22 22z" />
    <glyph glyph-name="ldot" unicode="&#x140;" horiz-adv-x="408" 
d="M65 22v656c0 11 11 22 22 22h81c11 0 22 -11 22 -22v-656c0 -12 -11 -22 -22 -22h-81c-11 0 -22 10 -22 22zM331 264c-45 0 -79 36 -79 80s34 79 79 79s80 -35 80 -79s-35 -80 -80 -80z" />
    <glyph glyph-name="nacute" unicode="&#x144;" horiz-adv-x="553" 
d="M64 22v418c0 13 11 22 22 22h38c11 0 16 -5 19 -14l17 -43c17 19 60 67 149 67c147 0 185 -99 185 -211v-239c0 -12 -11 -22 -22 -22h-81c-12 0 -22 10 -22 22v239c0 60 -24 97 -80 97c-60 0 -89 -40 -100 -72v-264c0 -17 -7 -22 -29 -22h-74c-11 0 -22 10 -22 22z
M218 528c-15 -6 -21 -3 -26 6l-17 36c-4 8 0 15 6 19l163 97c9 6 21 6 26 -3l29 -51c6 -13 2 -23 -6 -27z" />
    <glyph glyph-name="ncaron" unicode="&#x148;" horiz-adv-x="553" 
d="M64 22v418c0 13 11 22 22 22h38c11 0 16 -5 19 -14l17 -43c17 19 60 67 149 67c147 0 185 -99 185 -211v-239c0 -12 -11 -22 -22 -22h-81c-12 0 -22 10 -22 22v239c0 60 -24 97 -80 97c-60 0 -89 -40 -100 -72v-264c0 -17 -7 -22 -29 -22h-74c-11 0 -22 10 -22 22z
M282 524l-130 101c-6 4 -11 12 -6 19l26 37c6 8 11 10 23 3l97 -61l98 61c12 7 17 5 23 -3l26 -37c5 -7 0 -15 -6 -19l-130 -101c-6 -5 -14 -5 -21 0z" />
    <glyph glyph-name="ntilde" unicode="&#xf1;" horiz-adv-x="553" 
d="M64 22v418c0 13 11 22 22 22h38c11 0 16 -5 19 -14l17 -43c17 19 60 67 149 67c147 0 185 -99 185 -211v-239c0 -12 -11 -22 -22 -22h-81c-12 0 -22 10 -22 22v239c0 60 -24 97 -80 97c-60 0 -89 -40 -100 -72v-264c0 -17 -7 -22 -29 -22h-74c-11 0 -22 10 -22 22z
M173 562l-29 21c-7 5 -9 16 -6 23c10 18 43 84 104 84c52 0 69 -55 107 -55c35 0 36 62 65 41l28 -20c9 -7 8 -19 1 -31c-11 -19 -40 -76 -97 -76c-52 0 -76 56 -109 56c-36 0 -34 -62 -64 -43z" />
    <glyph glyph-name="ncommaaccent" unicode="&#x146;" horiz-adv-x="553" 
d="M64 22v418c0 13 11 22 22 22h38c11 0 16 -5 19 -14l17 -43c17 19 60 67 149 67c147 0 185 -99 185 -211v-239c0 -12 -11 -22 -22 -22h-81c-12 0 -22 10 -22 22v239c0 60 -24 97 -80 97c-60 0 -89 -40 -100 -72v-264c0 -17 -7 -22 -29 -22h-74c-11 0 -22 10 -22 22z
M207 -134c0 44 33 70 77 70c50 0 90 -30 90 -99c0 -63 -26 -108 -53 -137c-4 -7 -12 -7 -20 -2l-26 20c-9 6 -8 14 -1 21c15 16 26 43 26 66v13c-2 -1 -16 -10 -33 -10c-37 0 -60 26 -60 58z" />
    <glyph glyph-name="napostrophe" unicode="&#x149;" horiz-adv-x="553" 
d="M-90 640c0 44 33 70 77 70c50 0 90 -30 90 -99c0 -63 -26 -108 -53 -137c-4 -7 -12 -7 -20 -2l-26 20c-9 6 -8 14 -1 21c15 16 26 43 26 66v13c-2 -1 -16 -10 -33 -10c-37 0 -60 26 -60 58zM64 22v418c0 13 11 22 22 22h38c11 0 16 -5 19 -14l17 -43c17 19 60 67 149 67
c147 0 185 -99 185 -211v-239c0 -12 -11 -22 -22 -22h-81c-12 0 -22 10 -22 22v239c0 60 -24 97 -80 97c-60 0 -89 -40 -100 -72v-264c0 -17 -7 -22 -29 -22h-74c-11 0 -22 10 -22 22z" />
    <glyph glyph-name="ograve" unicode="&#xf2;" horiz-adv-x="544" 
d="M36 232c0 130 106 240 236 240c131 0 237 -110 237 -240c0 -132 -106 -243 -237 -243c-130 0 -236 111 -236 243zM152 232c0 -71 53 -129 120 -129s121 58 121 129c0 70 -54 126 -121 126s-120 -56 -120 -126zM345 528l-175 77c-8 4 -13 14 -6 27l28 51c5 9 17 9 26 3
l164 -97c6 -3 10 -11 6 -19l-18 -36c-4 -9 -11 -12 -25 -6z" />
    <glyph glyph-name="oacute" unicode="&#xf3;" horiz-adv-x="544" 
d="M36 232c0 130 106 240 236 240c131 0 237 -110 237 -240c0 -132 -106 -243 -237 -243c-130 0 -236 111 -236 243zM152 232c0 -71 53 -129 120 -129s121 58 121 129c0 70 -54 126 -121 126s-120 -56 -120 -126zM204 528c-15 -6 -21 -3 -26 6l-17 36c-4 8 0 15 6 19l163 97
c9 6 21 6 26 -3l29 -51c6 -13 2 -23 -6 -27z" />
    <glyph glyph-name="ocircumflex" unicode="&#xf4;" horiz-adv-x="544" 
d="M36 232c0 130 106 240 236 240c131 0 237 -110 237 -240c0 -132 -106 -243 -237 -243c-130 0 -236 111 -236 243zM152 232c0 -71 53 -129 120 -129s121 58 121 129c0 70 -54 126 -121 126s-120 -56 -120 -126zM152 529l-26 37c-5 7 0 15 6 19l130 101c6 5 14 5 21 0
l130 -101c6 -4 11 -12 6 -19l-26 -37c-6 -8 -11 -10 -23 -3l-97 61l-98 -61c-12 -7 -17 -5 -23 3z" />
    <glyph glyph-name="otilde" unicode="&#xf5;" horiz-adv-x="544" 
d="M36 232c0 130 106 240 236 240c131 0 237 -110 237 -240c0 -132 -106 -243 -237 -243c-130 0 -236 111 -236 243zM152 232c0 -71 53 -129 120 -129s121 58 121 129c0 70 -54 126 -121 126s-120 -56 -120 -126zM153 562l-29 21c-7 5 -9 16 -6 23c10 18 43 84 104 84
c52 0 69 -55 107 -55c35 0 36 62 65 41l28 -20c9 -7 8 -19 1 -31c-11 -19 -40 -76 -97 -76c-52 0 -76 56 -109 56c-36 0 -34 -62 -64 -43z" />
    <glyph glyph-name="odieresis" unicode="&#xf6;" horiz-adv-x="544" 
d="M36 232c0 130 106 240 236 240c131 0 237 -110 237 -240c0 -132 -106 -243 -237 -243c-130 0 -236 111 -236 243zM152 232c0 -71 53 -129 120 -129s121 58 121 129c0 70 -54 126 -121 126s-120 -56 -120 -126zM373 542c-41 0 -72 32 -72 73s31 72 72 72s73 -31 73 -72
s-32 -73 -73 -73zM172 542c-41 0 -72 32 -72 73s31 72 72 72s73 -31 73 -72s-32 -73 -73 -73z" />
    <glyph glyph-name="omacron" unicode="&#x14d;" horiz-adv-x="544" 
d="M36 232c0 130 106 240 236 240c131 0 237 -110 237 -240c0 -132 -106 -243 -237 -243c-130 0 -236 111 -236 243zM152 232c0 -71 53 -129 120 -129s121 58 121 129c0 70 -54 126 -121 126s-120 -56 -120 -126zM146 570c-11 0 -19 8 -19 18v34c0 11 8 19 19 19h256
c11 0 19 -8 19 -19v-34c0 -10 -8 -18 -19 -18h-256z" />
    <glyph glyph-name="obreve" unicode="&#x14f;" horiz-adv-x="544" 
d="M36 232c0 130 106 240 236 240c131 0 237 -110 237 -240c0 -132 -106 -243 -237 -243c-130 0 -236 111 -236 243zM152 232c0 -71 53 -129 120 -129s121 58 121 129c0 70 -54 126 -121 126s-120 -56 -120 -126zM274 528c-73 0 -130 51 -140 118c-2 12 5 22 18 22h37
c9 0 15 -7 17 -14c10 -31 35 -53 68 -53c30 0 56 25 66 53c2 8 10 14 17 14h39c12 0 19 -10 18 -22c-11 -67 -68 -118 -140 -118z" />
    <glyph glyph-name="ohungarumlaut" unicode="&#x151;" horiz-adv-x="544" 
d="M36 232c0 130 106 240 236 240c131 0 237 -110 237 -240c0 -132 -106 -243 -237 -243c-130 0 -236 111 -236 243zM152 232c0 -71 53 -129 120 -129s121 58 121 129c0 70 -54 126 -121 126s-120 -56 -120 -126zM346 521c-16 0 -22 9 -19 19l37 141c3 10 9 19 19 19h76
c19 0 25 -13 18 -25l-78 -139c-4 -8 -11 -15 -18 -15h-35zM180 521c-16 0 -22 9 -19 19l37 141c3 10 9 19 19 19h76c19 0 25 -12 18 -25l-78 -139c-4 -8 -11 -15 -18 -15h-35z" />
    <glyph glyph-name="oslash" unicode="&#xf8;" horiz-adv-x="544" 
d="M36 232c0 130 106 240 236 240c58 0 112 -22 154 -58l15 15c7 9 21 8 28 0l11 -11c9 -8 9 -20 0 -29l-17 -17c29 -40 46 -88 46 -140c0 -132 -106 -243 -237 -243c-52 0 -100 18 -139 47l-22 -22c-8 -7 -22 -7 -30 1l-10 11c-8 8 -9 21 -1 29l21 21
c-34 43 -55 97 -55 156zM152 232c0 -27 8 -52 21 -73l172 173c-20 16 -46 26 -73 26c-67 0 -120 -56 -120 -126zM393 232c0 20 -5 39 -13 56l-166 -169c17 -10 37 -16 58 -16c67 0 121 58 121 129z" />
    <glyph glyph-name="oslashacute" unicode="&#x1ff;" horiz-adv-x="544" 
d="M36 232c0 130 106 240 236 240c58 0 112 -22 154 -58l15 15c7 9 21 8 28 0l11 -11c9 -8 9 -20 0 -29l-17 -17c29 -40 46 -88 46 -140c0 -132 -106 -243 -237 -243c-52 0 -100 18 -139 47l-22 -22c-8 -7 -22 -7 -30 1l-10 11c-8 8 -9 21 -1 29l21 21
c-34 43 -55 97 -55 156zM152 232c0 -27 8 -52 21 -73l172 173c-20 16 -46 26 -73 26c-67 0 -120 -56 -120 -126zM393 232c0 20 -5 39 -13 56l-166 -169c17 -10 37 -16 58 -16c67 0 121 58 121 129zM203 528c-15 -6 -21 -3 -26 6l-17 36c-4 8 0 15 6 19l163 97
c9 6 21 6 26 -3l29 -51c6 -13 2 -23 -6 -27z" />
    <glyph glyph-name="oe" unicode="&#x153;" horiz-adv-x="849" 
d="M507 289h187c-2 45 -38 80 -89 80c-56 0 -92 -34 -98 -80zM152 232c0 -71 53 -129 120 -129s121 58 121 129c0 70 -54 126 -121 126s-120 -56 -120 -126zM605 -11c-69 1 -126 27 -167 72c-42 -45 -101 -72 -166 -72c-130 0 -236 112 -236 244c0 130 106 239 236 239
c65 0 126 -28 168 -72c40 45 95 72 164 72c116 0 215 -88 215 -215c0 -7 -1 -23 -2 -30c-1 -12 -12 -20 -22 -20h-295c3 -60 50 -107 115 -107c36 0 78 14 99 34c9 8 21 11 30 0l39 -51c7 -10 10 -21 -1 -30c-37 -35 -101 -65 -177 -64z" />
    <glyph glyph-name="racute" unicode="&#x155;" horiz-adv-x="387" 
d="M64 22v418c0 13 11 22 22 22h37c11 0 16 -5 20 -15l17 -45c16 23 59 70 130 70c55 0 100 -15 87 -45l-30 -68c-5 -11 -16 -15 -27 -10s-22 9 -43 9c-50 0 -80 -32 -88 -48v-288c0 -17 -11 -22 -26 -22h-77c-11 0 -22 10 -22 22zM137 528c-15 -6 -21 -3 -26 6l-17 36
c-4 8 0 15 6 19l163 97c9 6 21 6 26 -3l29 -51c6 -13 2 -23 -6 -27z" />
    <glyph glyph-name="rcaron" unicode="&#x159;" horiz-adv-x="387" 
d="M64 22v418c0 13 11 22 22 22h37c11 0 16 -5 20 -15l17 -45c16 23 59 70 130 70c55 0 100 -15 87 -45l-30 -68c-5 -11 -16 -15 -27 -10s-22 9 -43 9c-50 0 -80 -32 -88 -48v-288c0 -17 -11 -22 -26 -22h-77c-11 0 -22 10 -22 22zM188 524l-130 101c-6 4 -11 12 -6 19
l26 37c6 8 11 10 23 3l97 -61l98 61c12 7 17 5 23 -3l26 -37c5 -7 0 -15 -6 -19l-130 -101c-6 -5 -14 -5 -21 0z" />
    <glyph glyph-name="rcommaaccent" unicode="&#x157;" horiz-adv-x="387" 
d="M64 22v418c0 13 11 22 22 22h37c11 0 16 -5 20 -15l17 -45c16 23 59 70 130 70c55 0 100 -15 87 -45l-30 -68c-5 -11 -16 -15 -27 -10s-22 9 -43 9c-50 0 -80 -32 -88 -48v-288c0 -17 -11 -22 -26 -22h-77c-11 0 -22 10 -22 22zM54 -134c0 44 33 70 77 70
c50 0 90 -30 90 -99c0 -63 -26 -108 -53 -137c-4 -7 -12 -7 -20 -2l-26 20c-9 6 -8 14 -1 21c15 16 26 43 26 66v13c-2 -1 -16 -10 -33 -10c-37 0 -60 26 -60 58z" />
    <glyph glyph-name="sacute" unicode="&#x15b;" horiz-adv-x="413" 
d="M201 -11c-77 0 -125 24 -151 42c-6 4 -11 15 -6 25l30 60c5 11 16 15 27 8c21 -13 54 -30 102 -30c35 0 51 13 51 33c0 21 -26 40 -87 64c-89 34 -129 76 -129 146s53 135 166 135c68 0 112 -18 137 -34c10 -8 16 -20 10 -32l-26 -53c-7 -11 -19 -13 -29 -9
c-22 10 -54 23 -92 23c-31 0 -44 -15 -44 -30c0 -21 23 -32 66 -50c89 -36 153 -68 153 -160c0 -73 -62 -138 -178 -138zM147 528c-15 -6 -21 -3 -26 6l-17 36c-4 8 0 15 6 19l163 97c9 6 21 6 26 -3l29 -51c6 -13 2 -23 -6 -27z" />
    <glyph glyph-name="scircumflex" unicode="&#x15d;" horiz-adv-x="413" 
d="M201 -11c-77 0 -125 24 -151 42c-6 4 -11 15 -6 25l30 60c5 11 16 15 27 8c21 -13 54 -30 102 -30c35 0 51 13 51 33c0 21 -26 40 -87 64c-89 34 -129 76 -129 146s53 135 166 135c68 0 112 -18 137 -34c10 -8 16 -20 10 -32l-26 -53c-7 -11 -19 -13 -29 -9
c-22 10 -54 23 -92 23c-31 0 -44 -15 -44 -30c0 -21 23 -32 66 -50c89 -36 153 -68 153 -160c0 -73 -62 -138 -178 -138zM90 529l-26 37c-5 7 0 15 6 19l130 101c6 5 14 5 21 0l130 -101c6 -4 11 -12 6 -19l-26 -37c-6 -8 -11 -10 -23 -3l-97 61l-98 -61
c-12 -7 -17 -5 -23 3z" />
    <glyph glyph-name="scaron" unicode="&#x161;" horiz-adv-x="413" 
d="M201 -11c-77 0 -125 24 -151 42c-6 4 -11 15 -6 25l30 60c5 11 16 15 27 8c21 -13 54 -30 102 -30c35 0 51 13 51 33c0 21 -26 40 -87 64c-89 34 -129 76 -129 146s53 135 166 135c68 0 112 -18 137 -34c10 -8 16 -20 10 -32l-26 -53c-7 -11 -19 -13 -29 -9
c-22 10 -54 23 -92 23c-31 0 -44 -15 -44 -30c0 -21 23 -32 66 -50c89 -36 153 -68 153 -160c0 -73 -62 -138 -178 -138zM204 524l-130 101c-6 4 -11 12 -6 19l26 37c6 8 11 10 23 3l97 -61l98 61c12 7 17 5 23 -3l26 -37c5 -7 0 -15 -6 -19l-130 -101c-6 -5 -14 -5 -21 0z
" />
    <glyph glyph-name="scedilla" unicode="&#x15f;" horiz-adv-x="413" 
d="M379 127c0 -66 -51 -126 -147 -136l-33 -53c7 2 14 3 21 3c45 0 85 -31 85 -87c0 -63 -52 -100 -120 -100c-39 0 -67 11 -84 25c-8 8 -6 17 0 28l9 20c6 14 15 17 27 9c7 -6 24 -16 43 -16c28 0 47 13 47 39c0 25 -19 38 -46 38c-18 0 -29 -8 -38 -11
c-10 -4 -22 9 -17 18l43 87c-59 5 -97 24 -119 40c-6 4 -11 15 -6 25l30 60c5 11 16 15 27 8c21 -13 54 -30 102 -30c30 0 51 13 51 33c0 21 -26 40 -87 64c-89 34 -129 76 -129 146s53 135 166 135c68 0 112 -18 137 -34c10 -8 16 -20 10 -32l-26 -53
c-7 -11 -19 -13 -29 -9c-22 10 -54 23 -92 23c-31 0 -44 -15 -44 -30c0 -21 23 -32 66 -50c89 -36 153 -68 153 -160z" />
    <glyph glyph-name="scommaaccent" unicode="&#x219;" horiz-adv-x="413" 
d="M201 -11c-77 0 -125 24 -151 42c-6 4 -11 15 -6 25l30 60c5 11 16 15 27 8c21 -13 54 -30 102 -30c35 0 51 13 51 33c0 21 -26 40 -87 64c-89 34 -129 76 -129 146s53 135 166 135c68 0 112 -18 137 -34c10 -8 16 -20 10 -32l-26 -53c-7 -11 -19 -13 -29 -9
c-22 10 -54 23 -92 23c-31 0 -44 -15 -44 -30c0 -21 23 -32 66 -50c89 -36 153 -68 153 -160c0 -73 -62 -138 -178 -138zM121 -134c0 44 33 70 77 70c50 0 90 -30 90 -99c0 -63 -26 -108 -53 -137c-4 -7 -12 -7 -20 -2l-26 20c-9 6 -8 14 -1 21c15 16 26 43 26 66v13
c-2 -1 -16 -10 -33 -10c-37 0 -60 26 -60 58z" />
    <glyph glyph-name="germandbls" unicode="&#xdf;" horiz-adv-x="567" 
d="M64 21v389c0 196 92 300 250 300c90 0 178 -70 178 -177c0 -84 -72 -131 -72 -181c0 -47 112 -76 112 -194c0 -121 -91 -169 -178 -169c-16 0 -45 0 -48 22l-10 71c-1 10 7 22 19 21c39 -3 84 15 84 56c0 70 -110 88 -110 173c0 76 75 112 75 199c0 35 -29 65 -64 65
c-51 0 -111 -26 -111 -188v-387c0 -11 -10 -21 -21 -21h-83c-11 0 -21 10 -21 21z" />
    <glyph glyph-name="tcaron" unicode="&#x165;" horiz-adv-x="390" 
d="M95 138v212h-45c-12 0 -21 11 -21 22v68c0 13 9 22 21 22h45v128c0 12 11 22 22 22h82c12 0 21 -10 21 -22v-128h108c12 0 22 -9 22 -22v-68c0 -11 -10 -22 -22 -22h-108v-208c0 -31 15 -38 38 -38c20 0 58 11 70 15c13 5 24 -1 26 -12l13 -61c3 -12 -2 -21 -13 -27
c-16 -9 -82 -30 -130 -30c-103 0 -129 69 -129 149zM320 640c0 44 33 70 77 70c50 0 90 -30 90 -99c0 -63 -26 -108 -53 -137c-4 -7 -12 -7 -20 -2l-26 20c-9 6 -8 14 -1 21c15 16 26 43 26 66v13c-2 -1 -16 -10 -33 -10c-37 0 -60 26 -60 58z" />
    <glyph glyph-name="tcommaaccent" unicode="&#x163;" horiz-adv-x="392" 
d="M97 138v212h-45c-12 0 -21 11 -21 22v68c0 13 9 22 21 22h45v128c0 12 11 22 22 22h82c12 0 21 -10 21 -22v-128h108c12 0 22 -9 22 -22v-68c0 -11 -10 -22 -22 -22h-108v-208c0 -31 15 -38 38 -38c20 0 58 11 70 15c13 5 24 -1 26 -12l13 -61c3 -12 -2 -21 -13 -27
c-14 -8 -64 -24 -108 -28l-33 -53c7 2 14 3 21 3c45 0 85 -31 85 -87c0 -63 -52 -100 -120 -100c-39 0 -67 11 -84 25c-8 8 -6 17 0 28l9 20c6 14 15 17 27 9c7 -6 24 -16 43 -16c28 0 47 13 47 39c0 25 -19 38 -46 38c-18 0 -29 -8 -38 -11c-10 -4 -22 9 -17 18l44 89
c-70 16 -89 76 -89 145z" />
    <glyph glyph-name="uni021B" unicode="&#x21b;" horiz-adv-x="390" 
d="M95 138v212h-45c-12 0 -21 11 -21 22v68c0 13 9 22 21 22h45v128c0 12 11 22 22 22h82c12 0 21 -10 21 -22v-128h108c12 0 22 -9 22 -22v-68c0 -11 -10 -22 -22 -22h-108v-208c0 -31 15 -38 38 -38c20 0 58 11 70 15c13 5 24 -1 26 -12l13 -61c3 -12 -2 -21 -13 -27
c-16 -9 -82 -30 -130 -30c-103 0 -129 69 -129 149zM130 -134c0 44 33 70 77 70c50 0 90 -30 90 -99c0 -63 -26 -108 -53 -137c-4 -7 -12 -7 -20 -2l-26 20c-9 6 -8 14 -1 21c15 16 26 43 26 66v13c-2 -1 -16 -10 -33 -10c-37 0 -60 26 -60 58z" />
    <glyph glyph-name="tbar" unicode="&#x167;" horiz-adv-x="390" 
d="M95 138v58h-42c-12 0 -21 11 -21 22v15c0 12 9 22 21 22h42v95h-45c-12 0 -21 11 -21 22v68c0 13 9 22 21 22h45v128c0 12 11 22 22 22h82c12 0 21 -10 21 -22v-128h108c12 0 22 -9 22 -22v-68c0 -11 -10 -22 -22 -22h-108v-95h99c13 0 22 -10 22 -22v-16
c0 -11 -9 -21 -22 -21h-99v-54c0 -31 15 -38 38 -38c20 0 58 11 70 15c13 5 24 -1 26 -12l13 -61c3 -12 -2 -21 -13 -27c-16 -9 -82 -30 -130 -30c-103 0 -129 69 -129 149z" />
    <glyph glyph-name="thorn" unicode="&#xfe;" horiz-adv-x="566" 
d="M189 15v-231c0 -12 -10 -22 -22 -22h-81c-11 0 -22 10 -22 22v894c0 11 11 22 22 22h81c12 0 22 -11 22 -22v-238c19 14 68 32 121 32c127 0 220 -110 220 -241c0 -138 -101 -242 -231 -242c-40 0 -91 14 -110 26zM189 300v-171s38 -26 96 -26c76 0 115 62 115 127
s-37 128 -109 128c-50 0 -90 -35 -102 -58z" />
    <glyph glyph-name="ugrave" unicode="&#xf9;" horiz-adv-x="533" 
d="M59 195v245c0 13 10 22 22 22h81c12 0 22 -9 22 -22v-245c0 -61 21 -92 78 -92c51 0 75 46 82 86v251c0 18 6 22 25 22h78c12 0 22 -9 22 -22v-418c0 -12 -10 -22 -22 -22h-36c-11 0 -19 8 -22 17l-13 39c-24 -25 -72 -67 -143 -67c-143 0 -174 89 -174 206zM334 528
l-175 77c-8 4 -13 14 -6 27l28 51c5 9 17 9 26 3l164 -97c6 -3 10 -11 6 -19l-18 -36c-4 -9 -11 -12 -25 -6z" />
    <glyph glyph-name="uacute" unicode="&#xfa;" horiz-adv-x="533" 
d="M59 195v245c0 13 10 22 22 22h81c12 0 22 -9 22 -22v-245c0 -61 21 -92 78 -92c51 0 75 46 82 86v251c0 18 6 22 25 22h78c12 0 22 -9 22 -22v-418c0 -12 -10 -22 -22 -22h-36c-11 0 -19 8 -22 17l-13 39c-24 -25 -72 -67 -143 -67c-143 0 -174 89 -174 206zM193 528
c-15 -6 -21 -3 -26 6l-17 36c-4 8 0 15 6 19l163 97c9 6 21 6 26 -3l29 -51c6 -13 2 -23 -6 -27z" />
    <glyph glyph-name="ucircumflex" unicode="&#xfb;" horiz-adv-x="533" 
d="M59 195v245c0 13 10 22 22 22h81c12 0 22 -9 22 -22v-245c0 -61 21 -92 78 -92c51 0 75 46 82 86v251c0 18 6 22 25 22h78c12 0 22 -9 22 -22v-418c0 -12 -10 -22 -22 -22h-36c-11 0 -19 8 -22 17l-13 39c-24 -25 -72 -67 -143 -67c-143 0 -174 89 -174 206zM145 529
l-26 37c-5 7 0 15 6 19l130 101c6 5 14 5 21 0l130 -101c6 -4 11 -12 6 -19l-26 -37c-6 -8 -11 -10 -23 -3l-97 61l-98 -61c-12 -7 -17 -5 -23 3z" />
    <glyph glyph-name="utilde" unicode="&#x169;" horiz-adv-x="533" 
d="M59 195v245c0 13 10 22 22 22h81c12 0 22 -9 22 -22v-245c0 -61 21 -92 78 -92c51 0 75 46 82 86v251c0 18 6 22 25 22h78c12 0 22 -9 22 -22v-418c0 -12 -10 -22 -22 -22h-36c-11 0 -19 8 -22 17l-13 39c-24 -25 -72 -67 -143 -67c-143 0 -174 89 -174 206zM145 562
l-29 21c-7 5 -9 16 -6 23c10 18 43 84 104 84c52 0 69 -55 107 -55c35 0 36 62 65 41l28 -20c9 -7 8 -19 1 -31c-11 -19 -40 -76 -97 -76c-52 0 -76 56 -109 56c-36 0 -34 -62 -64 -43z" />
    <glyph glyph-name="udieresis" unicode="&#xfc;" horiz-adv-x="533" 
d="M59 195v245c0 13 10 22 22 22h81c12 0 22 -9 22 -22v-245c0 -61 21 -92 78 -92c51 0 75 46 82 86v251c0 18 6 22 25 22h78c12 0 22 -9 22 -22v-418c0 -12 -10 -22 -22 -22h-36c-11 0 -19 8 -22 17l-13 39c-24 -25 -72 -67 -143 -67c-143 0 -174 89 -174 206zM364 542
c-41 0 -72 32 -72 73s31 72 72 72s73 -31 73 -72s-32 -73 -73 -73zM163 542c-41 0 -72 32 -72 73s31 72 72 72s73 -31 73 -72s-32 -73 -73 -73z" />
    <glyph glyph-name="umacron" unicode="&#x16b;" horiz-adv-x="533" 
d="M59 195v245c0 13 10 22 22 22h81c12 0 22 -9 22 -22v-245c0 -61 21 -92 78 -92c51 0 75 46 82 86v251c0 18 6 22 25 22h78c12 0 22 -9 22 -22v-418c0 -12 -10 -22 -22 -22h-36c-11 0 -19 8 -22 17l-13 39c-24 -25 -72 -67 -143 -67c-143 0 -174 89 -174 206zM137 570
c-11 0 -19 8 -19 18v34c0 11 8 19 19 19h256c11 0 19 -8 19 -19v-34c0 -10 -8 -18 -19 -18h-256z" />
    <glyph glyph-name="ubreve" unicode="&#x16d;" horiz-adv-x="533" 
d="M59 195v245c0 13 10 22 22 22h81c12 0 22 -9 22 -22v-245c0 -61 21 -92 78 -92c51 0 75 46 82 86v251c0 18 6 22 25 22h78c12 0 22 -9 22 -22v-418c0 -12 -10 -22 -22 -22h-36c-11 0 -19 8 -22 17l-13 39c-24 -25 -72 -67 -143 -67c-143 0 -174 89 -174 206zM266 528
c-73 0 -130 51 -140 118c-2 12 5 22 18 22h37c9 0 15 -7 17 -14c10 -31 35 -53 68 -53c30 0 56 25 66 53c2 8 10 14 17 14h39c12 0 19 -10 18 -22c-11 -67 -68 -118 -140 -118z" />
    <glyph glyph-name="uring" unicode="&#x16f;" horiz-adv-x="533" 
d="M59 195v245c0 13 10 22 22 22h81c12 0 22 -9 22 -22v-245c0 -61 21 -92 78 -92c51 0 75 46 82 86v251c0 18 6 22 25 22h78c12 0 22 -9 22 -22v-418c0 -12 -10 -22 -22 -22h-36c-11 0 -19 8 -22 17l-13 39c-24 -25 -72 -67 -143 -67c-143 0 -174 89 -174 206zM263 503
c-63 0 -113 50 -113 113s50 113 113 113c62 0 113 -50 113 -113s-51 -113 -113 -113zM263 566c26 0 48 24 48 50s-22 48 -48 48s-50 -22 -50 -48s24 -50 50 -50z" />
    <glyph glyph-name="uhungarumlaut" unicode="&#x171;" horiz-adv-x="533" 
d="M59 195v245c0 13 10 22 22 22h81c12 0 22 -9 22 -22v-245c0 -61 21 -92 78 -92c51 0 75 46 82 86v251c0 18 6 22 25 22h78c12 0 22 -9 22 -22v-418c0 -12 -10 -22 -22 -22h-36c-11 0 -19 8 -22 17l-13 39c-24 -25 -72 -67 -143 -67c-143 0 -174 89 -174 206zM338 521
c-16 0 -22 9 -19 19l37 141c3 10 9 19 19 19h76c19 0 25 -13 18 -25l-78 -139c-4 -8 -11 -15 -18 -15h-35zM172 521c-16 0 -22 9 -19 19l37 141c3 10 9 19 19 19h76c19 0 25 -12 18 -25l-78 -139c-4 -8 -11 -15 -18 -15h-35z" />
    <glyph glyph-name="uogonek" unicode="&#x173;" horiz-adv-x="533" 
d="M59 205v235c0 13 10 22 22 22h81c12 0 22 -9 22 -22v-235c0 -61 21 -102 78 -102c51 0 75 46 82 86v251c0 18 6 22 25 22h78c12 0 22 -9 22 -22v-411c0 -12 -8 -23 -16 -29c-32 -22 -95 -72 -95 -122c0 -30 15 -43 39 -43c27 0 53 21 61 28c9 8 20 4 20 -7l1 -49
c0 -12 -3 -22 -15 -31c-16 -10 -50 -23 -89 -23c-70 0 -105 46 -105 104c0 74 73 133 118 161l-12 38c-21 -19 -51 -67 -143 -67c-143 0 -174 99 -174 216z" />
    <glyph glyph-name="wacute" unicode="&#x1e83;" horiz-adv-x="713" 
d="M167 2l-141 434c-7 14 3 26 19 26h78c6 0 18 -5 20 -14l70 -220h1l121 234c2 5 7 10 18 10h9c11 0 16 -4 19 -10l120 -234h1l69 220c4 13 14 14 26 14h70c16 0 26 -12 21 -26l-142 -434c-2 -7 -10 -13 -21 -13h-4c-10 0 -15 5 -19 11l-145 278h-1l-145 -278
c-3 -6 -10 -11 -18 -11h-6c-11 0 -18 6 -20 13zM289 528c-15 -6 -21 -3 -26 6l-17 36c-4 8 0 15 6 19l163 97c9 6 21 6 26 -3l29 -51c6 -13 2 -23 -6 -27z" />
    <glyph glyph-name="wcircumflex" unicode="&#x175;" horiz-adv-x="713" 
d="M167 2l-141 434c-7 14 3 26 19 26h78c6 0 18 -5 20 -14l70 -220h1l121 234c2 5 7 10 18 10h9c11 0 16 -4 19 -10l120 -234h1l69 220c4 13 14 14 26 14h70c16 0 26 -12 21 -26l-142 -434c-2 -7 -10 -13 -21 -13h-4c-10 0 -15 5 -19 11l-145 278h-1l-145 -278
c-3 -6 -10 -11 -18 -11h-6c-11 0 -18 6 -20 13zM239 529l-26 37c-5 7 0 15 6 19l130 101c6 5 14 5 21 0l130 -101c6 -4 11 -12 6 -19l-26 -37c-6 -8 -11 -10 -23 -3l-97 61l-98 -61c-12 -7 -17 -5 -23 3z" />
    <glyph glyph-name="wdieresis" unicode="&#x1e85;" horiz-adv-x="713" 
d="M167 2l-141 434c-7 14 3 26 19 26h78c6 0 18 -5 20 -14l70 -220h1l121 234c2 5 7 10 18 10h9c11 0 16 -4 19 -10l120 -234h1l69 220c4 13 14 14 26 14h70c16 0 26 -12 21 -26l-142 -434c-2 -7 -10 -13 -21 -13h-4c-10 0 -15 5 -19 11l-145 278h-1l-145 -278
c-3 -6 -10 -11 -18 -11h-6c-11 0 -18 6 -20 13zM459 542c-41 0 -72 32 -72 73s31 72 72 72s73 -31 73 -72s-32 -73 -73 -73zM258 542c-41 0 -72 32 -72 73s31 72 72 72s73 -31 73 -72s-32 -73 -73 -73z" />
    <glyph glyph-name="wgrave" unicode="&#x1e81;" horiz-adv-x="713" 
d="M167 2l-141 434c-7 14 3 26 19 26h78c6 0 18 -5 20 -14l70 -220h1l121 234c2 5 7 10 18 10h9c11 0 16 -4 19 -10l120 -234h1l69 220c4 13 14 14 26 14h70c16 0 26 -12 21 -26l-142 -434c-2 -7 -10 -13 -21 -13h-4c-10 0 -15 5 -19 11l-145 278h-1l-145 -278
c-3 -6 -10 -11 -18 -11h-6c-11 0 -18 6 -20 13zM430 528l-175 77c-8 4 -13 14 -6 27l28 51c5 9 17 9 26 3l164 -97c6 -3 10 -11 6 -19l-18 -36c-4 -9 -11 -12 -25 -6z" />
    <glyph glyph-name="yacute" unicode="&#xfd;" horiz-adv-x="499" 
d="M165 27l-144 405c-6 16 2 30 20 30h96c10 0 17 -5 19 -13l83 -276h2l105 276c7 12 15 13 29 13h85c18 0 27 -15 20 -30l-272 -656c-3 -7 -11 -14 -20 -14h-96c-18 0 -27 15 -20 31zM202 528c-15 -6 -21 -3 -26 6l-17 36c-4 8 0 15 6 19l163 97c9 6 21 6 26 -3l29 -51
c6 -13 2 -23 -6 -27z" />
    <glyph glyph-name="ycircumflex" unicode="&#x177;" horiz-adv-x="499" 
d="M165 27l-144 405c-6 16 2 30 20 30h96c10 0 17 -5 19 -13l83 -276h2l105 276c7 12 15 13 29 13h85c18 0 27 -15 20 -30l-272 -656c-3 -7 -11 -14 -20 -14h-96c-18 0 -27 15 -20 31zM131 529l-26 37c-5 7 0 15 6 19l130 101c6 5 14 5 21 0l130 -101c6 -4 11 -12 6 -19
l-26 -37c-6 -8 -11 -10 -23 -3l-97 61l-98 -61c-12 -7 -17 -5 -23 3z" />
    <glyph glyph-name="ydieresis" unicode="&#xff;" horiz-adv-x="499" 
d="M165 27l-144 405c-6 16 2 30 20 30h96c10 0 17 -5 19 -13l83 -276h2l105 276c7 12 15 13 29 13h85c18 0 27 -15 20 -30l-272 -656c-3 -7 -11 -14 -20 -14h-96c-18 0 -27 15 -20 31zM358 542c-41 0 -72 32 -72 73s31 72 72 72s73 -31 73 -72s-32 -73 -73 -73zM157 542
c-41 0 -72 32 -72 73s31 72 72 72s73 -31 73 -72s-32 -73 -73 -73z" />
    <glyph glyph-name="ygrave" unicode="&#x1ef3;" horiz-adv-x="499" 
d="M165 27l-144 405c-6 16 2 30 20 30h96c10 0 17 -5 19 -13l83 -276h2l105 276c7 12 15 13 29 13h85c18 0 27 -15 20 -30l-272 -656c-3 -7 -11 -14 -20 -14h-96c-18 0 -27 15 -20 31zM301 528l-175 77c-8 4 -13 14 -6 27l28 51c5 9 17 9 26 3l164 -97c6 -3 10 -11 6 -19
l-18 -36c-4 -9 -11 -12 -25 -6z" />
    <glyph glyph-name="zacute" unicode="&#x17a;" horiz-adv-x="408" 
d="M207 113h132c12 0 22 -10 22 -22v-69c0 -12 -10 -22 -22 -22h-285c-12 0 -22 10 -22 22c0 8 0 12 5 21l165 303v2h-139c-11 0 -21 11 -21 22v70c0 13 10 22 21 22h298c14 0 23 -9 23 -21c0 -4 -1 -7 -3 -11l-174 -315v-2zM139 528c-15 -6 -21 -3 -26 6l-17 36
c-4 8 0 15 6 19l163 97c9 6 21 6 26 -3l29 -51c6 -13 2 -23 -6 -27z" />
    <glyph glyph-name="zcaron" unicode="&#x17e;" horiz-adv-x="408" 
d="M207 113h132c12 0 22 -10 22 -22v-69c0 -12 -10 -22 -22 -22h-285c-12 0 -22 10 -22 22c0 8 0 12 5 21l165 303v2h-139c-11 0 -21 11 -21 22v70c0 13 10 22 21 22h298c14 0 23 -9 23 -21c0 -4 -1 -7 -3 -11l-174 -315v-2zM205 524l-130 101c-6 4 -11 12 -6 19l26 37
c6 8 11 10 23 3l97 -61l98 61c12 7 17 5 23 -3l26 -37c5 -7 0 -15 -6 -19l-130 -101c-6 -5 -14 -5 -21 0z" />
    <glyph glyph-name="zdotaccent" unicode="&#x17c;" horiz-adv-x="408" 
d="M207 113h132c12 0 22 -10 22 -22v-69c0 -12 -10 -22 -22 -22h-285c-12 0 -22 10 -22 22c0 8 0 12 5 21l165 303v2h-139c-11 0 -21 11 -21 22v70c0 13 10 22 21 22h298c14 0 23 -9 23 -21c0 -4 -1 -7 -3 -11l-174 -315v-2zM224 541c-45 0 -79 36 -79 80s34 79 79 79
s80 -35 80 -79s-35 -80 -80 -80z" />
    <glyph glyph-name="IJ" unicode="&#x132;" horiz-adv-x="752" 
d="M85 19v662c0 10 9 19 19 19h93c10 0 19 -9 19 -19v-662c0 -10 -9 -19 -19 -19h-93c-10 0 -19 9 -19 19zM310 63c-5 8 -4 18 2 25l52 53c11 10 21 8 30 -1c13 -14 33 -32 66 -32c41 0 80 22 80 91v482c0 10 8 19 19 19h94c11 0 19 -9 19 -19v-482
c0 -139 -93 -209 -210 -209c-87 0 -135 52 -152 73z" />
    <glyph glyph-name="ij" unicode="&#x133;" horiz-adv-x="511" 
d="M64 22v418c0 13 11 22 22 22h81c11 0 22 -9 22 -22v-418c0 -12 -11 -22 -22 -22h-81c-11 0 -22 10 -22 22zM125 541c-45 0 -79 36 -79 80s34 79 79 79s80 -35 80 -79s-35 -80 -80 -80zM447 440v-459c0 -137 -64 -193 -140 -226c-16 -7 -37 -8 -44 10l-24 56
c-7 18 -5 31 12 40c33 18 71 41 71 103v476c0 13 11 22 22 22h81c11 0 22 -9 22 -22zM383 541c-45 0 -79 36 -79 80s34 79 79 79s80 -35 80 -79s-35 -80 -80 -80z" />
    <glyph glyph-name="grave.cap" horiz-adv-x="302" 
d="M224 768l-175 77c-9 4 -13 15 -6 27l28 52c5 9 18 8 26 3l164 -98c5 -3 10 -11 6 -19l-18 -35c-4 -9 -11 -13 -25 -7z" />
    <glyph glyph-name="acute" unicode="&#xb4;" horiz-adv-x="302" 
d="M89 528c-15 -6 -21 -3 -26 6l-17 36c-4 8 0 15 6 19l163 97c9 6 21 6 26 -3l29 -51c6 -13 2 -23 -6 -27z" />
    <glyph glyph-name="acute.cap" horiz-adv-x="302" 
d="M84 768c-14 -6 -21 -2 -25 7l-18 35c-4 8 1 16 6 19l164 98c11 7 21 6 26 -3l28 -52c7 -12 3 -23 -6 -27z" />
    <glyph glyph-name="circumflex" unicode="&#x2c6;" horiz-adv-x="373" 
d="M63 529l-26 37c-5 7 0 15 6 19l130 101c6 5 14 5 21 0l130 -101c6 -4 11 -12 6 -19l-26 -37c-6 -8 -11 -10 -23 -3l-97 61l-98 -61c-12 -7 -17 -5 -23 3z" />
    <glyph glyph-name="circumflex.cap" horiz-adv-x="373" 
d="M86 766c-12 -7 -17 -5 -23 3l-26 37c-5 7 0 15 6 19l130 101c6 5 14 5 21 0l130 -101c6 -4 11 -12 6 -19l-26 -37c-6 -8 -11 -10 -23 -3l-97 61z" />
    <glyph glyph-name="caron" unicode="&#x2c7;" horiz-adv-x="373" 
d="M174 524l-130 101c-6 4 -11 12 -6 19l26 37c6 8 11 10 23 3l97 -61l98 61c12 7 17 5 23 -3l26 -37c5 -7 0 -15 -6 -19l-130 -101c-6 -5 -14 -5 -21 0z" />
    <glyph glyph-name="caron.cap" horiz-adv-x="373" 
d="M174 764l-130 101c-6 4 -11 12 -6 19l26 37c6 8 11 10 23 3l97 -61l98 61c12 7 17 5 23 -3l26 -37c5 -7 0 -15 -6 -19l-130 -101c-6 -5 -14 -5 -21 0z" />
    <glyph glyph-name="caron.alt" horiz-adv-x="373" 
d="M99 640c0 44 33 70 77 70c50 0 90 -30 90 -99c0 -63 -26 -108 -53 -137c-4 -7 -12 -7 -20 -2l-26 20c-9 6 -8 14 -1 21c15 16 26 43 26 66v13c-2 -1 -16 -10 -33 -10c-37 0 -60 26 -60 58z" />
    <glyph glyph-name="tilde" unicode="&#x2dc;" horiz-adv-x="380" 
d="M70 562l-29 21c-7 5 -9 16 -6 23c10 18 43 84 104 84c52 0 69 -55 107 -55c35 0 36 62 65 41l28 -20c9 -7 8 -19 1 -31c-11 -19 -40 -76 -97 -76c-52 0 -76 56 -109 56c-36 0 -34 -62 -64 -43z" />
    <glyph glyph-name="tilde.cap" horiz-adv-x="380" 
d="M70 789l-29 21c-7 5 -9 16 -6 23c10 18 43 84 104 84c52 0 69 -55 107 -55c35 0 36 62 65 41l28 -20c9 -7 8 -19 1 -31c-11 -19 -40 -76 -97 -76c-52 0 -76 56 -109 56c-36 0 -34 -62 -64 -43z" />
    <glyph glyph-name="dieresis" unicode="&#xa8;" horiz-adv-x="414" 
d="M313 542c-41 0 -72 32 -72 73s31 72 72 72s73 -31 73 -72s-32 -73 -73 -73zM112 542c-41 0 -72 32 -72 73s31 72 72 72s73 -31 73 -72s-32 -73 -73 -73z" />
    <glyph glyph-name="dieresis.cap" horiz-adv-x="474" 
d="M360 766c-41 0 -72 32 -72 73s31 72 72 72s73 -31 73 -72s-32 -73 -73 -73zM113 766c-41 0 -72 32 -72 73s31 72 72 72s73 -31 73 -72s-32 -73 -73 -73z" />
    <glyph glyph-name="macron" unicode="&#xaf;" horiz-adv-x="414" 
d="M79 570c-11 0 -19 8 -19 18v34c0 11 8 19 19 19h256c11 0 19 -8 19 -19v-34c0 -10 -8 -18 -19 -18h-256z" />
    <glyph glyph-name="macron.cap" horiz-adv-x="414" 
d="M79 808c-11 0 -19 8 -19 18v34c0 11 8 19 19 19h256c11 0 19 -8 19 -19v-34c0 -10 -8 -18 -19 -18h-256z" />
    <glyph glyph-name="uni02C9" unicode="&#x2c9;" horiz-adv-x="414" 
d="M79 570c-11 0 -19 8 -19 18v34c0 11 8 19 19 19h256c11 0 19 -8 19 -19v-34c0 -10 -8 -18 -19 -18h-256z" />
    <glyph glyph-name="breve" unicode="&#x2d8;" horiz-adv-x="346" 
d="M173 528c-73 0 -130 51 -140 118c-2 12 5 22 18 22h37c9 0 15 -7 17 -14c10 -31 35 -53 68 -53c30 0 56 25 66 53c2 8 10 14 17 14h39c12 0 19 -10 18 -22c-11 -67 -68 -118 -140 -118z" />
    <glyph glyph-name="breve.cap" horiz-adv-x="346" 
d="M173 766c-73 0 -130 51 -140 118c-2 11 5 21 18 21h37c9 0 15 -7 17 -14c10 -30 35 -53 68 -53c30 0 56 26 66 53c2 9 10 14 17 14h39c12 0 19 -10 18 -21c-11 -67 -68 -118 -140 -118z" />
    <glyph glyph-name="ring" unicode="&#x2da;" horiz-adv-x="290" 
d="M145 484c-63 0 -113 50 -113 113s50 113 113 113c62 0 113 -50 113 -113s-51 -113 -113 -113zM145 547c26 0 48 24 48 50s-22 48 -48 48s-50 -22 -50 -48s24 -50 50 -50z" />
    <glyph glyph-name="ring.cap" horiz-adv-x="290" 
d="M145 754c-63 0 -113 50 -113 113s50 113 113 113c62 0 113 -50 113 -113s-51 -113 -113 -113zM145 817c26 0 48 24 48 50s-22 48 -48 48s-50 -22 -50 -48s24 -50 50 -50z" />
    <glyph glyph-name="hungarumlaut" unicode="&#x2dd;" horiz-adv-x="392" 
d="M224 521c-16 0 -22 9 -19 19l37 141c3 10 9 19 19 19h76c19 0 25 -13 18 -25l-78 -139c-4 -8 -11 -15 -18 -15h-35zM58 521c-16 0 -22 9 -19 19l37 141c3 10 9 19 19 19h76c19 0 25 -12 18 -25l-78 -139c-4 -8 -11 -15 -18 -15h-35z" />
    <glyph glyph-name="hungarumlaut.cap" horiz-adv-x="392" 
d="M220 768c-16 0 -22 9 -19 19l37 141c3 10 9 19 19 19h76c19 0 25 -13 18 -25l-78 -139c-4 -8 -11 -15 -18 -15h-35zM54 768c-16 0 -22 9 -19 19l37 141c3 10 9 19 19 19h76c19 0 25 -12 18 -25l-78 -139c-4 -8 -11 -15 -18 -15h-35z" />
    <glyph glyph-name="dotaccent" unicode="&#x2d9;" horiz-adv-x="219" 
d="M110 528c-45 0 -79 36 -79 80s34 79 79 79s80 -35 80 -79s-35 -80 -80 -80z" />
    <glyph glyph-name="dotaccent.cap" horiz-adv-x="219" 
d="M109 773c-45 0 -79 36 -79 80s34 79 79 79s80 -35 80 -79s-35 -80 -80 -80z" />
    <glyph glyph-name="cedilla" unicode="&#xb8;" horiz-adv-x="247" 
d="M110 3h65l-41 -65c7 2 14 3 21 3c45 0 85 -31 85 -87c0 -63 -52 -100 -120 -100c-39 0 -67 11 -84 25c-8 8 -6 17 0 28l9 20c6 14 15 17 27 9c7 -6 24 -16 43 -16c28 0 47 13 47 39c0 25 -19 38 -46 38c-18 0 -29 -8 -38 -11c-10 -4 -22 9 -17 18z" />
    <glyph glyph-name="cedilla.cap" horiz-adv-x="247" 
d="M110 3h65l-41 -65c7 2 14 3 21 3c45 0 85 -31 85 -87c0 -63 -52 -100 -120 -100c-39 0 -67 11 -84 25c-8 8 -6 17 0 28l9 20c6 14 15 17 27 9c7 -6 24 -16 43 -16c28 0 47 13 47 39c0 25 -19 38 -46 38c-18 0 -29 -8 -38 -11c-10 -4 -22 9 -17 18z" />
    <glyph glyph-name="ogonek" unicode="&#x2db;" horiz-adv-x="276" 
d="M210 3c-31 -20 -99 -73 -99 -125c0 -30 15 -43 39 -43c27 0 53 21 61 28c9 8 20 4 20 -7l1 -49c0 -12 -3 -22 -15 -31c-16 -10 -50 -23 -89 -23c-70 0 -105 46 -105 104c0 75 63 122 99 148z" />
    <glyph glyph-name="ogonek.cap" horiz-adv-x="276" 
d="M210 3c-31 -20 -99 -73 -99 -125c0 -30 15 -43 39 -43c27 0 53 21 61 28c9 8 20 4 20 -7l1 -49c0 -12 -3 -22 -15 -31c-16 -10 -50 -23 -89 -23c-70 0 -105 46 -105 104c0 75 63 122 99 148z" />
    <glyph glyph-name="commaaccent" unicode="&#xf6c3;" horiz-adv-x="292" 
d="M70 -134c0 44 33 70 77 70c50 0 90 -30 90 -99c0 -63 -26 -108 -53 -137c-4 -7 -12 -7 -20 -2l-26 20c-9 6 -8 14 -1 21c15 16 26 43 26 66v13c-2 -1 -16 -10 -33 -10c-37 0 -60 26 -60 58z" />
    <glyph glyph-name="commaaccent.alt" horiz-adv-x="292" 
d="M237 590c0 -44 -33 -70 -77 -70c-50 0 -90 30 -90 99c0 63 26 108 53 137c4 7 12 7 20 2l26 -20c9 -6 8 -14 1 -21c-15 -16 -26 -43 -26 -66v-13c2 1 16 10 33 10c37 0 60 -26 60 -58z" />
    <glyph glyph-name="commaaccent.cap" horiz-adv-x="292" 
d="M70 -134c0 44 33 70 77 70c50 0 90 -30 90 -99c0 -63 -26 -108 -53 -137c-4 -7 -12 -7 -20 -2l-26 20c-9 6 -8 14 -1 21c15 16 26 43 26 66v13c-2 -1 -16 -10 -33 -10c-37 0 -60 26 -60 58z" />
    <glyph glyph-name="ellipsis" unicode="&#x2026;" horiz-adv-x="656" 
d="M471 62c0 40 32 72 72 72s72 -32 72 -72c0 -39 -32 -72 -72 -72s-72 33 -72 72zM258 62c0 40 32 72 71 72c40 0 73 -32 73 -72c0 -39 -33 -72 -73 -72c-39 0 -71 33 -71 72zM41 62c0 40 32 72 71 72c40 0 73 -32 73 -72c0 -39 -33 -72 -73 -72c-39 0 -71 33 -71 72z" />
    <glyph glyph-name="uni00AD" unicode="&#xad;" horiz-adv-x="371" 
d="M74 192c-11 0 -19 8 -19 18v67c0 11 8 19 19 19h223c11 0 19 -8 19 -19v-67c0 -10 -8 -18 -19 -18h-223z" />
    <glyph glyph-name="exclamdown" unicode="&#xa1;" horiz-adv-x="248" 
d="M125 307c-46 0 -83 38 -83 83s37 82 83 82c44 0 81 -37 81 -82s-37 -83 -81 -83zM89 174c1 8 10 16 19 16h32c9 0 18 -8 19 -16l39 -279v-114c0 -10 -9 -19 -19 -19h-110c-10 0 -19 9 -19 19v112z" />
    <glyph glyph-name="questiondown" unicode="&#xbf;" horiz-adv-x="483" 
d="M261 307c-45 0 -83 38 -83 83s38 82 83 82s82 -37 82 -82s-37 -83 -82 -83zM48 -81c0 121 152 156 152 216v33c0 12 7 21 20 21h81c10 0 19 -8 19 -19v-42c0 -95 -139 -131 -139 -201c0 -36 30 -67 80 -67c61 0 88 39 108 52c8 5 15 5 22 -1l47 -46c8 -7 7 -19 0 -26
c0 0 -68 -88 -196 -88c-105 0 -194 70 -194 168z" />
    <glyph glyph-name="quoteleft" unicode="&#x2018;" horiz-adv-x="241" 
d="M208 460c0 -42 -33 -73 -78 -73c-49 0 -90 41 -90 119c0 86 36 149 72 197c5 7 14 7 21 1l28 -20c8 -6 5 -15 -1 -23c-27 -35 -50 -80 -50 -122c0 -8 1 -13 2 -19c9 6 21 10 34 10c40 0 62 -31 62 -70z" />
    <glyph glyph-name="quoteright" unicode="&#x2019;" horiz-adv-x="237" 
d="M31 637c0 42 33 73 78 73c49 0 90 -41 90 -119c0 -86 -36 -149 -72 -197c-6 -8 -13 -6 -21 -1l-28 20c-8 6 -5 15 1 23c27 35 50 80 50 122c0 8 -1 13 -2 19c-9 -6 -21 -10 -34 -10c-40 0 -62 31 -62 70z" />
    <glyph glyph-name="quotedblleft" unicode="&#x201c;" horiz-adv-x="454" 
d="M208 460c0 -42 -33 -73 -78 -73c-49 0 -90 41 -90 119c0 86 36 149 72 197c5 7 14 7 21 1l28 -20c8 -6 5 -15 -1 -23c-27 -35 -50 -80 -50 -122c0 -8 1 -13 2 -19c9 6 21 10 34 10c40 0 62 -31 62 -70zM421 460c0 -42 -33 -73 -78 -73c-49 0 -90 41 -90 119
c0 86 36 149 72 197c5 7 14 7 21 1l28 -20c8 -6 5 -15 -1 -23c-27 -35 -50 -80 -50 -122c0 -8 1 -13 2 -19c9 6 21 10 34 10c40 0 62 -31 62 -70z" />
    <glyph glyph-name="quotedblright" unicode="&#x201d;" horiz-adv-x="450" 
d="M31 637c0 42 33 73 78 73c49 0 90 -41 90 -119c0 -86 -36 -149 -72 -197c-6 -8 -13 -6 -21 -1l-28 20c-8 6 -5 15 1 23c27 35 50 80 50 122c0 8 -1 13 -2 19c-9 -6 -21 -10 -34 -10c-40 0 -62 31 -62 70zM244 637c0 42 33 73 78 73c49 0 90 -41 90 -119
c0 -86 -36 -149 -72 -197c-6 -8 -13 -6 -21 -1l-28 20c-8 6 -5 15 1 23c27 35 50 80 50 122c0 8 -1 13 -2 19c-9 -6 -21 -10 -34 -10c-40 0 -62 31 -62 70z" />
    <glyph glyph-name="quotesinglbase" unicode="&#x201a;" horiz-adv-x="250" 
d="M41 70c0 42 33 73 78 73c49 0 90 -41 90 -119c0 -86 -36 -149 -72 -197c-6 -8 -13 -6 -21 -1l-28 20c-8 6 -5 15 1 23c27 35 50 80 50 122c0 8 -1 13 -2 19c-9 -6 -21 -10 -34 -10c-40 0 -62 31 -62 70z" />
    <glyph glyph-name="quotedblbase" unicode="&#x201e;" horiz-adv-x="463" 
d="M41 70c0 42 33 73 78 73c49 0 90 -41 90 -119c0 -86 -36 -149 -72 -197c-6 -8 -13 -6 -21 -1l-28 20c-8 6 -5 15 1 23c27 35 50 80 50 122c0 8 -1 13 -2 19c-9 -6 -21 -10 -34 -10c-40 0 -62 31 -62 70zM254 70c0 42 33 73 78 73c49 0 90 -41 90 -119
c0 -86 -36 -149 -72 -197c-6 -8 -13 -6 -21 -1l-28 20c-8 6 -5 15 1 23c27 35 50 80 50 122c0 8 -1 13 -2 19c-9 -6 -21 -10 -34 -10c-40 0 -62 31 -62 70z" />
    <glyph glyph-name="guilsinglleft" unicode="&#x2039;" horiz-adv-x="287" 
d="M143 69l-104 155c-6 8 -4 18 0 24l109 148c3 5 10 12 18 12h57c17 0 23 -15 15 -31l-68 -139l65 -147c7 -16 2 -30 -15 -30h-62c-7 0 -12 4 -15 8z" />
    <glyph glyph-name="guilsinglright" unicode="&#x203a;" horiz-adv-x="287" 
d="M66 61c-17 0 -22 14 -15 30l65 147l-68 139c-8 16 -2 31 15 31h57c8 0 15 -7 18 -12l109 -148c4 -6 6 -16 0 -24l-104 -155c-3 -4 -8 -8 -15 -8h-62z" />
    <glyph glyph-name="guillemotleft" unicode="&#xab;" horiz-adv-x="487" 
d="M239 224c-6 8 -4 18 0 24l109 148c3 5 10 12 18 12h57c17 0 23 -15 15 -31l-68 -139l65 -147c7 -16 2 -30 -15 -30h-62c-7 0 -12 4 -15 8zM143 69l-104 155c-6 8 -4 18 0 24l109 148c3 5 10 12 18 12h57c17 0 23 -15 15 -31l-68 -139l65 -147c7 -16 2 -30 -15 -30h-62
c-7 0 -12 4 -15 8z" />
    <glyph glyph-name="guillemotright" unicode="&#xbb;" horiz-adv-x="487" 
d="M251 91l65 147l-68 139c-8 16 -2 31 15 31h57c8 0 15 -7 18 -12l109 -148c4 -6 6 -16 0 -24l-104 -155c-3 -4 -8 -8 -15 -8h-62c-17 0 -22 14 -15 30zM66 61c-17 0 -22 14 -15 30l65 147l-68 139c-8 16 -2 31 15 31h57c8 0 15 -7 18 -12l109 -148c4 -6 6 -16 0 -24
l-104 -155c-3 -4 -8 -8 -15 -8h-62z" />
    <glyph glyph-name="endash" unicode="&#x2013;" horiz-adv-x="547" 
d="M76 210c-11 0 -19 8 -19 18v37c0 11 8 19 19 19h395c11 0 19 -8 19 -19v-37c0 -10 -8 -18 -19 -18h-395z" />
    <glyph glyph-name="emdash" unicode="&#x2014;" horiz-adv-x="767" 
d="M76 210c-11 0 -19 8 -19 18v37c0 11 8 19 19 19h615c11 0 19 -8 19 -19v-37c0 -10 -8 -18 -19 -18h-615z" />
    <glyph glyph-name="bullet" unicode="&#x2022;" horiz-adv-x="390" 
d="M193 125c-69 0 -129 59 -129 129c0 73 60 133 129 133c73 0 133 -60 133 -133c0 -70 -60 -129 -133 -129z" />
    <glyph glyph-name="periodcentered" unicode="&#xb7;" horiz-adv-x="265" 
d="M131 167c-48 0 -89 41 -89 89c0 51 41 92 89 92c51 0 92 -41 92 -92c0 -48 -41 -89 -92 -89z" />
    <glyph glyph-name="uni2219" unicode="&#x2219;" horiz-adv-x="265" 
d="M131 167c-48 0 -89 41 -89 89c0 51 41 92 89 92c51 0 92 -41 92 -92c0 -48 -41 -89 -92 -89z" />
    <glyph glyph-name="dagger" unicode="&#x2020;" 
d="M60 286c-10 0 -19 9 -19 19v76c0 10 9 19 19 19h170v281c0 10 9 19 19 19h96c10 0 19 -9 19 -19v-281h177c10 0 18 -9 18 -19v-76c0 -10 -8 -19 -18 -19h-184l-32 -508c0 -8 -10 -16 -19 -16h-18c-9 0 -19 8 -19 16l-32 508h-177z" />
    <glyph glyph-name="daggerdbl" unicode="&#x2021;" horiz-adv-x="616" 
d="M79 20v75c0 10 9 19 19 19h155l-15 284v1h-170c-10 0 -19 9 -19 19v76c0 10 9 19 19 19h170v168c0 10 9 19 19 19h96c10 0 19 -9 19 -19v-168h177c10 0 18 -9 18 -19v-76c0 -10 -8 -19 -18 -19h-177l-15 -285h162c10 0 18 -9 18 -19v-75c0 -10 -8 -19 -18 -19h-170
l-16 -223c0 -8 -10 -16 -19 -16h-18c-9 0 -19 8 -19 16l-17 223h-162c-10 0 -19 9 -19 19z" />
    <glyph glyph-name="section" unicode="&#xa7;" horiz-adv-x="561" 
d="M99 -88c8 13 20 19 35 8c7 -3 80 -58 144 -58c41 0 85 21 85 68c0 58 -63 93 -120 117c-90 37 -180 98 -180 204c0 65 41 110 72 136c-26 24 -72 71 -72 142c0 86 62 181 215 181c98 0 173 -51 191 -64c9 -5 14 -20 7 -31l-41 -59c-8 -12 -18 -15 -33 -5
c-13 9 -77 50 -129 50c-57 0 -86 -33 -86 -64c0 -43 36 -74 113 -105c95 -38 202 -92 202 -210c0 -63 -45 -114 -73 -139c25 -23 73 -71 73 -146c0 -98 -85 -186 -220 -186c-122 0 -192 58 -209 74c-10 10 -16 18 -5 34zM183 260c0 -60 60 -82 147 -122c0 0 40 25 40 80
c0 54 -64 90 -151 117c-6 -6 -36 -29 -36 -75z" />
    <glyph glyph-name="paragraph" unicode="&#xb6;" horiz-adv-x="763" 
d="M249 281c-113 0 -208 92 -208 210c0 114 85 209 194 209l456 -1c10 0 19 -9 19 -19v-46c0 -11 -9 -19 -19 -19h-78v-834c0 -10 -8 -19 -19 -19h-54c-10 0 -19 9 -19 19v834h-136v-834c0 -10 -9 -19 -19 -19h-54c-10 0 -19 9 -19 19v500h-44z" />
    <glyph glyph-name="brokenbar.case" horiz-adv-x="186" 
d="M87 462c-10 0 -19 8 -19 18v331c0 11 9 19 19 19h13c10 0 18 -8 18 -19v-331c0 -10 -9 -18 -19 -18h-12zM68 181c0 11 9 19 19 19h13c10 0 18 -8 18 -19v-331c0 -10 -9 -18 -19 -18h-12c-10 0 -19 8 -19 18v331z" />
    <glyph glyph-name="copyright" unicode="&#xa9;" horiz-adv-x="829" 
d="M55 350c0 198 161 360 359 360s360 -162 360 -360s-162 -359 -360 -359s-359 161 -359 359zM133 350c0 -155 126 -281 281 -281c156 0 281 126 281 281c0 156 -125 281 -281 281c-155 0 -281 -125 -281 -281zM236 348c0 105 84 188 187 188c40 0 79 -12 112 -38
c9 -8 10 -20 2 -29l-34 -38c-6 -8 -17 -7 -25 -2c-17 12 -35 16 -54 16c-53 0 -92 -43 -92 -94c0 -53 39 -94 92 -94c19 0 36 5 53 16c8 6 19 5 25 -2l36 -40c7 -8 7 -20 -1 -28c-35 -30 -71 -42 -114 -42c-103 0 -187 84 -187 187z" />
    <glyph glyph-name="registered" unicode="&#xae;" horiz-adv-x="829" 
d="M55 350c0 198 161 360 359 360s360 -162 360 -360s-162 -359 -360 -359s-359 161 -359 359zM133 350c0 -155 126 -281 281 -281c156 0 281 126 281 281c0 156 -125 281 -281 281c-155 0 -281 -125 -281 -281zM280 187v328c0 10 8 19 19 19h155c62 0 123 -46 123 -124
c0 -66 -40 -96 -71 -111l46 -104c6 -14 -3 -27 -17 -27h-54c-8 0 -15 7 -18 14l-44 112h-52v-107c0 -10 -8 -19 -19 -19h-49c-11 0 -19 9 -19 19zM364 368h79c24 0 41 18 41 41c0 24 -17 41 -41 41h-79v-82z" />
    <glyph glyph-name="trademark" unicode="&#x2122;" horiz-adv-x="780" 
d="M367 385c-13 0 -21 11 -19 23l52 282c1 8 7 15 19 15h4c9 0 15 -6 17 -11l87 -185l89 185c3 7 9 11 17 11h4c10 0 18 -7 19 -15l53 -283c2 -12 -7 -22 -19 -22h-39c-9 0 -17 8 -19 17l-22 125l-64 -136c-2 -5 -8 -9 -16 -9h-6c-9 0 -14 4 -17 10l-61 135l-24 -126
c-1 -8 -11 -16 -19 -16h-36zM174 385c-11 0 -19 9 -19 19v222h-64c-10 0 -19 8 -19 19v36c0 10 9 19 19 19h205c11 0 19 -9 19 -19v-36c0 -11 -8 -19 -19 -19h-64v-222c0 -10 -9 -19 -19 -19h-39z" />
    <glyph glyph-name="currency" unicode="&#xa4;" horiz-adv-x="493" 
d="M115 161l-39 40c-7 7 -7 20 0 27l48 48c-8 18 -12 37 -12 56s4 38 13 56l-48 48c-7 7 -7 20 0 27l40 39c7 7 20 7 27 0l47 -47c17 8 37 13 56 13s38 -5 56 -13l47 47c7 7 19 7 27 0l39 -40c7 -7 8 -19 1 -26l-47 -47c8 -19 13 -39 13 -59c0 -19 -4 -38 -12 -55l47 -47
c7 -7 7 -19 0 -27l-40 -39c-7 -7 -19 -8 -26 -1l-48 48c-18 -9 -38 -13 -57 -13c-20 0 -39 4 -57 13l-48 -48c-7 -7 -20 -7 -27 0zM246 281c30 0 52 22 52 51c0 30 -22 52 -52 52c-29 0 -51 -22 -51 -52c0 -29 22 -51 51 -51z" />
    <glyph glyph-name="Euro" unicode="&#x20ac;" 
d="M369 -11c-148 0 -244 107 -272 261h-45c-10 0 -18 9 -18 19v13c0 10 8 19 18 19h38c-2 15 -2 31 -2 48v20h-36c-10 0 -18 9 -18 19v14c0 10 8 19 18 19h41c22 157 116 289 276 289c85 0 146 -34 192 -83c8 -9 9 -20 1 -28l-51 -71c-7 -8 -20 -9 -27 0
c-39 46 -77 57 -112 57c-69 0 -121 -65 -138 -164h198c11 0 19 -9 19 -19v-15c0 -10 -8 -18 -19 -18h-203v-17c0 -18 0 -35 2 -51h161c11 0 19 -9 19 -19v-14c0 -10 -8 -18 -19 -18h-152c19 -76 62 -129 133 -129c51 0 77 24 103 45c8 7 19 6 25 0l53 -67c8 -7 6 -20 -1 -27
c-61 -56 -117 -83 -184 -83z" />
    <glyph glyph-name="cent" unicode="&#xa2;" horiz-adv-x="543" 
d="M61 231c0 136 108 241 245 241c8 0 16 -1 24 -2l13 48c3 11 16 19 27 14l14 -3c12 -2 19 -13 15 -26l-12 -46c35 -13 65 -36 91 -63c10 -10 5 -23 -5 -33l-42 -46c-10 -11 -21 -6 -30 3c-13 12 -26 23 -44 30l-66 -244c6 -1 11 -1 17 -1c51 0 78 28 98 51c7 8 21 10 29 3
l45 -38c11 -10 16 -21 8 -33c-39 -61 -101 -97 -183 -97c-15 0 -30 1 -44 4l-30 -113c-3 -11 -16 -18 -28 -15l-12 4c-12 2 -18 13 -16 25l31 115c-86 36 -145 119 -145 222zM187 231c0 -45 18 -83 50 -106l62 232c-67 -4 -112 -58 -112 -126z" />
    <glyph glyph-name="sterling" unicode="&#xa3;" 
d="M122 19v18c50 94 51 179 37 254h-43c-10 0 -18 9 -18 19v13c0 10 8 19 18 19h31c-11 45 -30 99 -30 156c0 133 95 212 212 212c93 0 146 -49 171 -71c8 -6 9 -18 2 -26l-49 -59c-7 -10 -19 -9 -27 -3c0 0 -52 46 -96 46c-46 0 -88 -36 -88 -94c0 -50 27 -107 38 -161h116
c11 0 19 -9 19 -19v-14c0 -10 -8 -18 -19 -18h-106c6 -48 5 -119 -14 -180h196c10 0 18 -8 18 -19v-73c0 -10 -8 -19 -18 -19h-331c-10 0 -19 9 -19 19z" />
    <glyph glyph-name="florin" unicode="&#x192;" horiz-adv-x="385" 
d="M118 -47v343h-75c-11 0 -19 9 -19 19v66c0 11 8 19 19 19h75v109c0 130 81 201 193 201c57 0 94 -25 111 -39c6 -6 9 -17 4 -24l-37 -62c-6 -8 -16 -10 -24 -5c-5 4 -33 17 -53 17c-36 0 -69 -27 -69 -89v-108h100c11 0 19 -8 19 -19v-66c0 -10 -8 -19 -19 -19h-100v-344
c0 -130 -83 -201 -194 -201c-57 0 -94 25 -111 39c-6 6 -8 17 -4 24l38 62c5 8 15 10 24 5c4 -4 32 -17 52 -17c36 0 70 27 70 89z" />
    <glyph glyph-name="yen" unicode="&#xa5;" 
d="M123 120c-10 0 -18 9 -18 19v13c0 10 8 19 18 19h111v69h-111c-10 0 -18 9 -18 19v13c0 10 8 19 18 19h111v46l-208 334c-8 13 0 29 16 29h103c7 0 13 -5 16 -9l140 -230l140 230c3 4 7 9 16 9h102c16 0 24 -16 16 -29l-211 -333v-47h109c11 0 19 -9 19 -19v-14
c0 -10 -8 -18 -19 -18h-109v-69h109c11 0 19 -9 19 -19v-14c0 -10 -8 -18 -19 -18h-109v-101c0 -10 -9 -19 -19 -19h-92c-11 0 -19 9 -19 19v101h-111z" />
    <glyph glyph-name="ordfeminine" unicode="&#xaa;" horiz-adv-x="341" 
d="M136 398c-58 0 -100 40 -100 102c0 53 43 94 118 94c31 0 54 -8 54 -8c0 37 -7 54 -42 54c-27 0 -61 -8 -78 -12c-9 -2 -15 3 -17 15l-6 33c-2 10 2 16 9 19c6 3 54 15 101 15c89 0 114 -44 114 -129v-161c0 -8 -7 -14 -14 -14h-27c-6 0 -10 2 -14 10c-2 7 -6 14 -8 21
c-18 -17 -43 -39 -90 -39zM156 462c23 0 45 18 51 35v33c-7 6 -29 11 -45 11c-25 0 -44 -17 -44 -40c0 -22 15 -39 38 -39z" />
    <glyph glyph-name="ordmasculine" unicode="&#xba;" horiz-adv-x="330" 
d="M166 394c-83 0 -127 60 -127 158c0 99 44 158 127 158c82 0 125 -59 125 -158c0 -98 -43 -158 -125 -158zM166 464c27 0 44 31 44 88s-17 88 -44 88c-28 0 -44 -31 -44 -88s16 -88 44 -88z" />
    <glyph glyph-name="onesuperior" unicode="&#xb9;" horiz-adv-x="207" 
d="M92 504c-6 0 -10 4 -10 9v193l-49 -4c-5 0 -9 3 -9 9l-2 31c0 5 2 7 7 11l74 47h51c5 0 9 -4 9 -9v-278c0 -5 -4 -9 -9 -9h-62z" />
    <glyph glyph-name="twosuperior" unicode="&#xb2;" horiz-adv-x="280" 
d="M37 504c-6 0 -10 3 -10 9v17l110 126c17 19 25 36 25 50c0 20 -16 35 -40 35c-18 0 -36 -11 -44 -20c-6 -4 -11 -4 -16 3l-22 31c-6 8 -8 13 3 21c6 5 42 34 94 34c63 0 106 -37 106 -92c0 -30 -14 -58 -37 -86l-54 -64h80c5 0 9 -4 9 -9v-46c0 -5 -3 -9 -9 -9h-195z" />
    <glyph glyph-name="threesuperior" unicode="&#xb3;" horiz-adv-x="278" 
d="M127 494c-57 0 -86 25 -95 33c-6 6 -6 11 -1 18l22 29c5 7 11 6 17 2c1 0 21 -16 47 -16s42 12 42 31s-16 33 -47 33h-29c-10 0 -15 3 -15 14v31c0 10 6 14 15 14h29c25 0 41 13 41 31s-16 30 -38 30c-15 0 -30 -8 -39 -16c-6 -3 -9 -5 -15 3l-24 29c-5 5 -6 14 1 18
c0 0 33 32 89 32c64 0 108 -32 108 -83c0 -36 -28 -60 -51 -70v-1c23 -9 60 -32 60 -76c0 -55 -53 -86 -117 -86z" />
    <glyph glyph-name="fraction" unicode="&#x2044;" horiz-adv-x="120" 
d="M-71 10c-2 -4 -9 -10 -17 -10h-48c-15 0 -24 14 -17 27l343 663c3 6 9 10 17 10h50c15 0 24 -14 17 -27z" />
    <glyph glyph-name="uni2215" unicode="&#x2215;" horiz-adv-x="120" 
d="M-71 10c-2 -4 -9 -10 -17 -10h-48c-15 0 -24 14 -17 27l343 663c3 6 9 10 17 10h50c15 0 24 -14 17 -27z" />
    <glyph glyph-name="onehalf" unicode="&#xbd;" horiz-adv-x="686" 
d="M114 27l343 663c3 6 9 10 17 10h50c15 0 24 -14 17 -27l-345 -663c-2 -4 -9 -10 -17 -10h-48c-15 0 -24 14 -17 27zM116 404c-6 0 -10 4 -10 9v193l-49 -4c-5 0 -9 3 -9 9l-2 31c0 5 2 7 7 11l74 47h51c5 0 9 -4 9 -9v-278c0 -5 -4 -9 -9 -9h-62zM416 9v17l110 126
c17 19 25 36 25 50c0 20 -16 35 -40 35c-18 0 -36 -11 -44 -20c-6 -4 -11 -4 -16 3l-22 31c-6 8 -8 13 3 21c6 5 42 34 94 34c63 0 106 -37 106 -92c0 -30 -14 -58 -37 -86l-54 -64h80c5 0 9 -4 9 -9v-46c0 -5 -3 -9 -9 -9h-195c-6 0 -10 3 -10 9z" />
    <glyph glyph-name="onethird" unicode="&#x2153;" horiz-adv-x="692" 
d="M114 27l343 663c3 6 9 10 17 10h50c15 0 24 -14 17 -27l-345 -663c-2 -4 -9 -10 -17 -10h-48c-15 0 -24 14 -17 27zM116 404c-6 0 -10 4 -10 9v193l-49 -4c-5 0 -9 3 -9 9l-2 31c0 5 2 7 7 11l74 47h51c5 0 9 -4 9 -9v-278c0 -5 -4 -9 -9 -9h-62zM428 23
c-6 6 -6 11 -1 18l22 29c5 7 11 6 17 2c1 0 21 -16 47 -16s42 12 42 31s-16 33 -47 33h-29c-10 0 -15 3 -15 14v31c0 10 6 14 15 14h29c25 0 41 13 41 31s-16 30 -38 30c-15 0 -30 -8 -39 -16c-6 -3 -9 -5 -15 3l-24 29c-5 5 -6 14 1 18c0 0 33 32 89 32
c64 0 108 -32 108 -83c0 -36 -28 -60 -51 -70v-1c23 -9 60 -32 60 -76c0 -55 -53 -86 -117 -86c-57 0 -86 25 -95 33z" />
    <glyph glyph-name="onequarter" unicode="&#xbc;" horiz-adv-x="694" 
d="M114 27l343 663c3 6 9 10 17 10h50c15 0 24 -14 17 -27l-345 -663c-2 -4 -9 -10 -17 -10h-48c-15 0 -24 14 -17 27zM116 404c-6 0 -10 4 -10 9v193l-49 -4c-5 0 -9 3 -9 9l-2 31c0 5 2 7 7 11l74 47h51c5 0 9 -4 9 -9v-278c0 -5 -4 -9 -9 -9h-62zM376 65v51l163 177
c2 2 6 3 8 3h41c5 0 9 -4 9 -9v-170h40c5 0 9 -4 9 -8v-43c0 -5 -4 -9 -9 -9h-40v-48c0 -5 -4 -9 -9 -9h-56c-5 0 -10 4 -10 9v48h-137c-5 0 -9 4 -9 8zM449 116h74v83z" />
    <glyph glyph-name="oneeighth" unicode="&#x215b;" horiz-adv-x="718" 
d="M114 27l343 663c3 6 9 10 17 10h50c15 0 24 -14 17 -27l-345 -663c-2 -4 -9 -10 -17 -10h-48c-15 0 -24 14 -17 27zM116 404c-6 0 -10 4 -10 9v193l-49 -4c-5 0 -9 3 -9 9l-2 31c0 5 2 7 7 11l74 47h51c5 0 9 -4 9 -9v-278c0 -5 -4 -9 -9 -9h-62zM426 76
c0 47 52 73 60 76v1c-20 8 -51 31 -51 70c0 51 50 83 111 83c63 0 113 -32 113 -83c0 -38 -32 -62 -52 -70v-1c24 -7 61 -31 61 -76c0 -49 -48 -86 -122 -86c-72 0 -120 37 -120 86zM514 213c0 -17 12 -29 33 -31c20 2 32 16 32 31c0 16 -14 31 -33 31
c-18 0 -32 -15 -32 -31zM508 84c0 -19 19 -32 39 -32s38 12 38 32c0 17 -14 34 -38 36c-23 -2 -39 -19 -39 -36z" />
    <glyph glyph-name="twothirds" unicode="&#x2154;" horiz-adv-x="736" 
d="M60 404c-6 0 -10 3 -10 9v17l110 126c17 19 25 36 25 50c0 20 -16 35 -40 35c-18 0 -36 -11 -44 -20c-6 -4 -11 -4 -16 3l-22 31c-6 8 -8 13 3 21c6 5 42 34 94 34c63 0 106 -37 106 -92c0 -30 -14 -58 -37 -86l-54 -64h80c5 0 9 -4 9 -9v-46c0 -5 -3 -9 -9 -9h-195z
M161 27l343 663c3 6 9 10 17 10h50c15 0 24 -14 17 -27l-345 -663c-2 -4 -9 -10 -17 -10h-48c-15 0 -24 14 -17 27zM475 23c-6 6 -6 11 -1 18l22 29c5 7 11 6 17 2c1 0 21 -16 47 -16s42 12 42 31s-16 33 -47 33h-29c-10 0 -15 3 -15 14v31c0 10 6 14 15 14h29
c25 0 41 13 41 31s-16 30 -38 30c-15 0 -30 -8 -39 -16c-6 -3 -9 -5 -15 3l-24 29c-5 5 -6 14 1 18c0 0 33 32 89 32c64 0 108 -32 108 -83c0 -36 -28 -60 -51 -70v-1c23 -9 60 -32 60 -76c0 -55 -53 -86 -117 -86c-57 0 -86 25 -95 33z" />
    <glyph glyph-name="threequarters" unicode="&#xbe;" horiz-adv-x="727" 
d="M150 394c-57 0 -86 25 -95 33c-6 6 -6 11 -1 18l22 29c5 7 11 6 17 2c1 0 21 -16 47 -16s42 12 42 31s-16 33 -47 33h-29c-10 0 -15 3 -15 14v31c0 10 6 14 15 14h29c25 0 41 13 41 31s-16 30 -38 30c-15 0 -30 -8 -39 -16c-6 -3 -9 -5 -15 3l-24 29c-5 5 -6 14 1 18
c0 0 33 32 89 32c64 0 108 -32 108 -83c0 -36 -28 -60 -51 -70v-1c23 -9 60 -32 60 -76c0 -55 -53 -86 -117 -86zM148 27l343 663c3 6 9 10 17 10h50c15 0 24 -14 17 -27l-345 -663c-2 -4 -9 -10 -17 -10h-48c-15 0 -24 14 -17 27zM410 65v51l163 177c2 2 6 3 8 3h41
c5 0 9 -4 9 -9v-170h40c5 0 9 -4 9 -8v-43c0 -5 -4 -9 -9 -9h-40v-48c0 -5 -4 -9 -9 -9h-56c-5 0 -10 4 -10 9v48h-137c-5 0 -9 4 -9 8zM483 116h74v83z" />
    <glyph glyph-name="threeeighths" unicode="&#x215c;" horiz-adv-x="749" 
d="M149 394c-57 0 -86 25 -95 33c-6 6 -6 11 -1 18l22 29c5 7 11 6 17 2c1 0 21 -16 47 -16s42 12 42 31s-16 33 -47 33h-29c-10 0 -15 3 -15 14v31c0 10 6 14 15 14h29c25 0 41 13 41 31s-16 30 -38 30c-15 0 -30 -8 -39 -16c-6 -3 -9 -5 -15 3l-24 29c-5 5 -6 14 1 18
c0 0 33 32 89 32c64 0 108 -32 108 -83c0 -36 -28 -60 -51 -70v-1c23 -9 60 -32 60 -76c0 -55 -53 -86 -117 -86zM147 27l343 663c3 6 9 10 17 10h50c15 0 24 -14 17 -27l-345 -663c-2 -4 -9 -10 -17 -10h-48c-15 0 -24 14 -17 27zM459 76c0 47 52 73 60 76v1
c-20 8 -51 31 -51 70c0 51 50 83 111 83c63 0 113 -32 113 -83c0 -38 -32 -62 -52 -70v-1c24 -7 61 -31 61 -76c0 -49 -48 -86 -122 -86c-72 0 -120 37 -120 86zM547 213c0 -17 12 -29 33 -31c20 2 32 16 32 31c0 16 -14 31 -33 31c-18 0 -32 -15 -32 -31zM541 84
c0 -19 19 -32 39 -32s38 12 38 32c0 17 -14 34 -38 36c-23 -2 -39 -19 -39 -36z" />
    <glyph glyph-name="fiveeighths" unicode="&#x215d;" horiz-adv-x="752" 
d="M151 27l343 663c3 6 9 10 17 10h50c15 0 24 -14 17 -27l-345 -663c-2 -4 -9 -10 -17 -10h-48c-15 0 -24 14 -17 27zM153 394c-51 0 -84 24 -96 38c-5 5 -6 9 -1 15l27 33c5 7 10 7 15 2c1 -1 23 -21 57 -21c23 0 45 16 45 38s-18 37 -48 37h-74c-10 0 -15 8 -15 16v139
c0 5 4 9 9 9h160c5 0 9 -4 9 -9v-44c0 -5 -4 -9 -9 -9h-103v-39h35c72 0 114 -37 114 -99c0 -61 -50 -106 -125 -106zM463 76c0 47 52 73 60 76v1c-20 8 -51 31 -51 70c0 51 50 83 111 83c63 0 113 -32 113 -83c0 -38 -32 -62 -52 -70v-1c24 -7 61 -31 61 -76
c0 -49 -48 -86 -122 -86c-72 0 -120 37 -120 86zM551 213c0 -17 12 -29 33 -31c20 2 32 16 32 31c0 16 -14 31 -33 31c-18 0 -32 -15 -32 -31zM545 84c0 -19 19 -32 39 -32s38 12 38 32c0 17 -14 34 -38 36c-23 -2 -39 -19 -39 -36z" />
    <glyph glyph-name="seveneighths" unicode="&#x215e;" horiz-adv-x="715" 
d="M113 27l343 663c3 6 9 10 17 10h50c15 0 24 -14 17 -27l-345 -663c-2 -4 -9 -10 -17 -10h-48c-15 0 -24 14 -17 27zM70 404c-7 0 -11 2 -11 8v6l116 218h-109c-5 0 -10 4 -10 8v47c0 5 5 9 10 9h199c5 0 9 -4 9 -9v-14l-132 -264c-4 -7 -8 -9 -15 -9h-57zM425 76
c0 47 52 73 60 76v1c-20 8 -51 31 -51 70c0 51 50 83 111 83c63 0 113 -32 113 -83c0 -38 -32 -62 -52 -70v-1c24 -7 61 -31 61 -76c0 -49 -48 -86 -122 -86c-72 0 -120 37 -120 86zM513 213c0 -17 12 -29 33 -31c20 2 32 16 32 31c0 16 -14 31 -33 31
c-18 0 -32 -15 -32 -31zM507 84c0 -19 19 -32 39 -32s38 12 38 32c0 17 -14 34 -38 36c-23 -2 -39 -19 -39 -36z" />
    <glyph glyph-name="perthousand" unicode="&#x2030;" horiz-adv-x="995" 
d="M184 440c-75 0 -135 60 -135 135s60 135 135 135c74 0 135 -60 135 -135s-61 -135 -135 -135zM131 27l343 663c3 6 9 10 17 10h50c15 0 24 -14 17 -27l-345 -663c-2 -4 -9 -10 -17 -10h-48c-15 0 -24 14 -17 27zM184 526c26 0 48 22 48 49c0 26 -22 48 -48 48
c-27 0 -49 -22 -49 -48c0 -27 22 -49 49 -49zM681 125c0 75 61 135 135 135c75 0 136 -60 136 -135s-61 -135 -136 -135c-74 0 -135 60 -135 135zM378 125c0 75 61 135 135 135c75 0 136 -60 136 -135s-61 -135 -136 -135c-74 0 -135 60 -135 135zM768 125
c0 -27 22 -49 48 -49c27 0 49 22 49 49c0 26 -22 48 -49 48c-26 0 -48 -22 -48 -48zM464 125c0 -27 22 -49 49 -49c26 0 49 22 49 49c0 26 -23 48 -49 48c-27 0 -49 -22 -49 -48z" />
    <glyph glyph-name="minus" unicode="&#x2212;" 
d="M103 300c-10 0 -19 9 -19 19v56c0 10 9 19 19 19h394c10 0 18 -9 18 -19v-56c0 -10 -8 -19 -18 -19h-394z" />
    <glyph glyph-name="plusminus" unicode="&#xb1;" 
d="M253 260v103h-150c-10 0 -19 9 -19 19v56c0 10 9 19 19 19h150v148c0 10 9 18 19 18h56c10 0 19 -8 19 -18v-148h150c10 0 18 -9 18 -19v-56c0 -10 -8 -19 -18 -19h-150v-103c0 -10 -9 -18 -19 -18h-56c-10 0 -19 8 -19 18zM84 66v56c0 10 9 19 19 19h394
c10 0 18 -9 18 -19v-56c0 -10 -8 -19 -18 -19h-394c-10 0 -19 9 -19 19z" />
    <glyph glyph-name="multiply" unicode="&#xd7;" 
d="M168 175l-40 40c-7 7 -7 19 0 26l106 106l-106 106c-7 7 -7 20 0 27l39 40c7 7 20 7 27 0l106 -106l106 107c7 7 19 6 26 -1l40 -40c7 -7 8 -19 1 -26l-106 -107l106 -106c7 -8 6 -20 -1 -27l-40 -39c-7 -7 -19 -8 -26 -1l-106 107l-106 -106c-7 -7 -19 -7 -26 0z" />
    <glyph glyph-name="divide" unicode="&#xf7;" 
d="M297 471c-38 0 -69 32 -69 69c0 38 31 69 69 69s69 -31 69 -69c0 -37 -31 -69 -69 -69zM103 299c-10 0 -19 9 -19 19v56c0 10 9 19 19 19h394c10 0 18 -9 18 -19v-56c0 -10 -8 -19 -18 -19h-394zM228 160c0 38 30 68 68 68s69 -30 69 -68s-31 -69 -69 -69s-68 31 -68 69z
" />
    <glyph glyph-name="notequal" unicode="&#x2260;" 
d="M190 51c-9 4 -14 15 -10 24l24 52h-68c-11 0 -19 9 -19 19v57c0 10 8 19 19 19h113l53 116h-166c-11 0 -19 9 -19 19v56c0 10 8 19 19 19h210l35 75c4 10 16 13 25 9l12 -6c10 -4 15 -15 9 -24l-25 -54h60c11 0 19 -9 19 -19v-56c0 -10 -8 -19 -19 -19h-104l-53 -116h157
c11 0 19 -9 19 -19v-57c0 -10 -8 -19 -19 -19h-201l-34 -74c-4 -9 -16 -12 -25 -8z" />
    <glyph glyph-name="approxequal" unicode="&#x2248;" 
d="M154 314l-39 33c-6 5 -7 15 -2 20c0 0 56 83 122 83c36 0 59 -22 79 -36c15 -10 34 -25 57 -25c27 0 47 30 57 47c6 8 15 8 23 2l37 -32c5 -5 6 -15 1 -21c0 0 -54 -82 -120 -82c-38 0 -62 24 -83 39c-15 10 -30 21 -51 21c-27 0 -49 -30 -59 -46c-5 -9 -16 -9 -22 -3z
M154 116l-39 33c-5 5 -7 14 -2 20c0 0 56 82 122 82c36 0 59 -21 79 -36c15 -10 34 -25 57 -25c27 0 47 31 57 47c6 8 15 8 23 2l37 -32c5 -5 6 -15 1 -21c0 0 -54 -82 -120 -82c-38 0 -62 24 -83 39c-15 10 -30 21 -51 21c-27 0 -49 -29 -59 -46c-5 -9 -16 -9 -22 -2z" />
    <glyph glyph-name="lessequal" unicode="&#x2264;" 
d="M88 381c-6 3 -10 7 -10 17v12c0 8 4 13 10 16l395 188c13 6 25 0 25 -15v-72c0 -7 -3 -12 -8 -14l-250 -106l250 -102c5 -3 8 -8 8 -14v-73c0 -15 -13 -22 -25 -15zM95 47c-10 0 -19 9 -19 19v56c0 10 9 19 19 19h394c10 0 18 -9 18 -19v-56c0 -10 -8 -19 -18 -19h-394z
" />
    <glyph glyph-name="greaterequal" unicode="&#x2265;" 
d="M117 203c-12 -7 -25 0 -25 15v73c0 6 3 11 8 14l250 102l-250 106c-5 2 -8 7 -8 14v72c0 15 12 21 25 15l395 -188c6 -3 10 -8 10 -16v-12c0 -10 -4 -14 -10 -17zM111 47c-10 0 -18 9 -18 19v56c0 10 8 19 18 19h394c10 0 19 -9 19 -19v-56c0 -10 -9 -19 -19 -19h-394z
" />
    <glyph glyph-name="logicalnot" unicode="&#xac;" horiz-adv-x="577" 
d="M85 300c-10 0 -19 9 -19 19v56c0 10 9 19 19 19h393c11 0 19 -10 19 -19v-226c0 -10 -9 -18 -19 -18h-56c-10 0 -19 8 -19 18v151h-318z" />
    <glyph glyph-name="Delta" unicode="&#x2206;" horiz-adv-x="731" 
d="M43 43l303 657c3 6 10 10 16 10h9c6 0 13 -4 16 -10l302 -659c9 -20 5 -41 -20 -41h-600c-26 0 -39 14 -26 43zM214 119h304l-153 340h-1z" />
    <glyph glyph-name="uni0394" unicode="&#x394;" horiz-adv-x="731" 
d="M43 43l303 657c3 6 10 10 16 10h9c6 0 13 -4 16 -10l302 -659c9 -20 5 -41 -20 -41h-600c-26 0 -39 14 -26 43zM214 119h304l-153 340h-1z" />
    <glyph glyph-name="Omega" unicode="&#x2126;" horiz-adv-x="834" 
d="M60 18v88c0 9 8 18 18 18h86c-64 43 -107 143 -107 232c0 200 160 354 360 354s360 -154 360 -354c0 -89 -44 -189 -109 -232h88c10 0 18 -9 18 -18v-88c0 -10 -8 -18 -18 -18h-270c-10 0 -17 8 -17 18v54c0 26 8 29 24 38c96 47 152 145 152 239
c0 124 -104 230 -228 230c-125 0 -229 -106 -229 -230c0 -94 57 -192 152 -239c17 -9 25 -12 25 -38v-54c0 -10 -7 -18 -18 -18h-269c-10 0 -18 8 -18 18z" />
    <glyph glyph-name="uni03A9" unicode="&#x3a9;" horiz-adv-x="834" 
d="M60 18v88c0 9 8 18 18 18h86c-64 43 -107 143 -107 232c0 200 160 354 360 354s360 -154 360 -354c0 -89 -44 -189 -109 -232h88c10 0 18 -9 18 -18v-88c0 -10 -8 -18 -18 -18h-270c-10 0 -17 8 -17 18v54c0 26 8 29 24 38c96 47 152 145 152 239
c0 124 -104 230 -228 230c-125 0 -229 -106 -229 -230c0 -94 57 -192 152 -239c17 -9 25 -12 25 -38v-54c0 -10 -7 -18 -18 -18h-269c-10 0 -18 8 -18 18z" />
    <glyph glyph-name="mu" unicode="&#xb5;" horiz-adv-x="548" 
d="M79 205v235c0 13 10 22 22 22h81c12 0 22 -9 22 -22v-235c0 -61 21 -102 78 -102c51 0 75 46 82 86v251c0 18 6 22 25 22h78c12 0 22 -9 22 -22v-418c0 -12 -10 -22 -22 -22h-36c-11 0 -19 8 -22 17l-13 39c-21 -19 -51 -67 -143 -67c-18 0 -35 2 -49 5v-210
c0 -12 -11 -22 -22 -22h-81c-11 0 -22 10 -22 22v421z" />
    <glyph glyph-name="uni03BC" unicode="&#x3bc;" horiz-adv-x="548" 
d="M79 205v235c0 13 10 22 22 22h81c12 0 22 -9 22 -22v-235c0 -61 21 -102 78 -102c51 0 75 46 82 86v251c0 18 6 22 25 22h78c12 0 22 -9 22 -22v-418c0 -12 -10 -22 -22 -22h-36c-11 0 -19 8 -22 17l-13 39c-21 -19 -51 -67 -143 -67c-18 0 -35 2 -49 5v-210
c0 -12 -11 -22 -22 -22h-81c-11 0 -22 10 -22 22v421z" />
    <glyph glyph-name="pi" unicode="&#x3c0;" horiz-adv-x="678" 
d="M130 20v330h-91c-11 0 -19 10 -19 20v72c0 11 8 20 19 20h601c11 0 18 -8 18 -19v-73c0 -11 -7 -20 -18 -20h-98v-330c0 -11 -8 -20 -19 -20h-86c-10 0 -20 9 -20 20v330h-162v-330c0 -11 -10 -20 -20 -20h-85c-11 0 -20 9 -20 20z" />
    <glyph glyph-name="degree" unicode="&#xb0;" horiz-adv-x="338" 
d="M169 440c-75 0 -135 60 -135 135s60 135 135 135c74 0 135 -60 135 -135s-61 -135 -135 -135zM169 524c26 0 49 24 49 51c0 26 -23 49 -49 49c-27 0 -51 -23 -51 -49c0 -27 24 -51 51 -51z" />
    <glyph glyph-name="afii61289" unicode="&#x2113;" horiz-adv-x="476" 
d="M98 154c0 19 2 37 4 56c-14 -4 -33 -9 -44 -11c-9 -1 -14 2 -15 11l-5 38c-1 8 -2 17 15 20c22 4 44 8 64 15c5 29 10 56 16 85c43 218 103 342 207 342c73 0 115 -55 115 -139c0 -174 -136 -282 -281 -337c-5 -25 -9 -51 -9 -78c0 -50 20 -98 75 -98c59 0 108 20 147 44
c15 9 19 6 26 -5l14 -21c9 -13 10 -16 -2 -27c-11 -9 -88 -59 -185 -59c-102 0 -142 79 -142 164zM187 304c112 49 201 137 201 267c0 43 -18 70 -48 70c-64 0 -110 -107 -143 -284z" />
    <glyph glyph-name="estimated" unicode="&#x212e;" horiz-adv-x="836" 
d="M187 168c50 -71 144 -113 237 -113c70 0 143 30 202 81c9 9 17 13 28 2l21 -22c8 -9 5 -18 -6 -29c-70 -65 -155 -97 -245 -97c-203 0 -363 157 -363 359c0 203 160 361 363 361c202 0 362 -161 364 -364c0 -22 -7 -29 -24 -29h-577v-149zM187 380h476v150
c-54 70 -141 114 -239 114c-99 0 -183 -41 -237 -112v-152z" />
    <glyph glyph-name="eng" unicode="&#x14b;" horiz-adv-x="553" 
d="M494 261v-280c0 -137 -64 -193 -140 -226c-16 -7 -37 -8 -44 10l-24 56c-7 18 -5 31 12 40c33 18 71 41 71 103v297c0 60 -24 97 -80 97c-60 0 -89 -40 -100 -72v-264c0 -17 -7 -22 -29 -22h-74c-11 0 -22 10 -22 22v418c0 13 11 22 22 22h38c11 0 16 -5 19 -14l17 -43
c17 19 60 67 149 67c147 0 185 -99 185 -211z" />
    <glyph glyph-name="Eng" unicode="&#x14a;" horiz-adv-x="761" 
d="M676 681v-700c0 -137 -64 -192 -140 -225c-16 -7 -37 -8 -44 10l-24 56c-7 18 -5 31 12 40c33 18 71 40 71 102v115l-336 370h-1v-430c0 -10 -8 -19 -19 -19h-91c-10 0 -19 9 -19 19v673c0 10 9 18 19 18h15c7 0 12 -2 17 -7l409 -435h1v413c0 10 8 19 19 19h92
c10 0 19 -9 19 -19z" />
    <glyph glyph-name="infinity" unicode="&#x221e;" horiz-adv-x="615" 
d="M201 156c-77 0 -140 63 -140 140c0 78 63 140 140 140c42 0 81 -25 105 -55c26 30 65 55 107 55c78 0 141 -62 141 -140c0 -77 -63 -140 -141 -140c-42 0 -81 24 -107 55c-24 -31 -63 -55 -105 -55zM357 296c0 -29 23 -52 52 -52s53 23 53 52s-24 52 -53 52
s-52 -23 -52 -52zM204 244c29 0 53 23 53 52s-24 52 -53 52c-28 0 -51 -23 -51 -52s23 -52 51 -52z" />
    <glyph glyph-name="partialdiff" unicode="&#x2202;" horiz-adv-x="587" 
d="M52 226c0 147 107 223 210 223c48 0 100 -18 117 -29c-32 114 -178 183 -226 198c-20 6 -24 18 -19 30l24 61c4 13 14 18 29 14c88 -29 343 -148 343 -449c0 -155 -84 -284 -246 -284c-126 0 -232 106 -232 236zM168 225c0 -65 53 -121 117 -121c84 0 123 84 123 155
c-11 37 -54 89 -122 89c-65 0 -118 -57 -118 -123z" />
    <glyph glyph-name="integral" unicode="&#x222b;" horiz-adv-x="497" 
d="M186 -47v556c0 130 81 201 193 201c57 0 94 -25 111 -39c6 -6 9 -17 4 -24l-37 -62c-6 -8 -16 -10 -24 -5c-5 4 -33 17 -53 17c-36 0 -69 -27 -69 -89v-556c0 -130 -83 -201 -194 -201c-57 0 -94 25 -111 39c-6 6 -8 17 -4 24l38 62c5 8 15 10 24 5c4 -4 32 -17 52 -17
c36 0 70 27 70 89z" />
    <glyph glyph-name="radical" unicode="&#x221a;" horiz-adv-x="660" 
d="M196 1l-172 376c-6 12 1 23 15 23h94c7 0 14 -6 15 -10l67 -153h5l204 452c2 5 9 11 17 11h188c10 0 17 -8 17 -18v-72c0 -10 -7 -18 -17 -18h-119l-273 -591c-3 -6 -11 -11 -16 -11h-9c-5 0 -13 5 -16 11z" />
    <glyph glyph-name="summation" unicode="&#x2211;" horiz-adv-x="562" 
d="M51 18v40l278 296l-278 294v34c0 10 7 18 17 18h411c10 0 18 -8 18 -18v-88c0 -10 -8 -18 -18 -18h-216l167 -157c7 -6 18 -17 18 -36v-56c0 -17 -11 -27 -18 -34l-167 -169h216c10 0 18 -8 18 -18v-88c0 -10 -8 -18 -18 -18h-411c-10 0 -17 8 -17 18z" />
    <glyph glyph-name="product" unicode="&#x220f;" horiz-adv-x="777" 
d="M95 18v664c0 10 8 18 18 18h552c9 0 17 -8 17 -18v-664c0 -10 -8 -18 -17 -18h-98c-10 0 -17 8 -17 18v558h-322v-558c0 -10 -8 -18 -18 -18h-97c-10 0 -18 8 -18 18z" />
    <glyph glyph-name="lozenge" unicode="&#x25ca;" horiz-adv-x="650" 
d="M65 312c-14 18 -17 35 -13 55c3 12 7 21 18 35l234 298c4 5 11 10 17 10h9c6 0 12 -5 16 -10l235 -297c16 -21 22 -37 18 -58c-2 -13 -8 -23 -19 -38l-234 -307c-3 -6 -10 -10 -16 -10h-9c-6 0 -13 5 -16 10zM324 157h2l143 198l-143 190h-2l-143 -190z" />
    <glyph glyph-name="uniF8FF" unicode="&#xf8ff;" horiz-adv-x="599" 
d="M50 30v640c0 21 9 30 30 30h439c21 0 30 -9 30 -30v-640c0 -21 -9 -30 -30 -30h-439c-21 0 -30 9 -30 30zM262 314c0 -7 7 -12 14 -12h36c9 0 15 4 15 13v26c0 48 105 63 105 150c0 65 -54 111 -125 111c-87 0 -130 -61 -130 -61c-4 -6 -6 -13 0 -18l22 -22
c6 -4 11 -4 17 0c13 12 36 41 84 41c40 0 61 -25 61 -52c0 -63 -99 -72 -99 -147v-29zM245 156c0 -26 22 -48 48 -48c27 0 49 22 49 48s-22 48 -49 48c-26 0 -48 -22 -48 -48z" />
    <glyph glyph-name="zero.tf" 
d="M300 -10c-165 0 -255 135 -255 360c0 226 90 360 255 360s255 -134 255 -360c0 -225 -90 -360 -255 -360zM300 108c79 0 125 89 125 242s-46 241 -125 241s-125 -88 -125 -241s46 -242 125 -242z" />
    <glyph glyph-name="one.tf" 
d="M113 0c-11 0 -20 8 -20 19v73c0 11 9 19 20 19h152v432l-141 -60c-12 -3 -19 4 -21 14l-10 55c-2 12 0 19 13 27l178 111c12 7 23 10 37 10h52c10 0 18 -9 18 -19v-570h132c11 0 19 -8 19 -19v-73c0 -11 -8 -19 -19 -19h-410z" />
    <glyph glyph-name="two.tf" 
d="M270 112v-2h221c10 0 19 -9 19 -19v-71c0 -11 -9 -20 -19 -20h-406c-12 0 -20 9 -20 20v10c0 11 6 20 9 24c70 86 192 244 258 331c32 39 52 80 52 115c0 46 -35 93 -109 93c-49 0 -91 -35 -115 -60c-8 -9 -20 -9 -28 0l-49 49c-7 6 -9 19 -1 27c0 0 80 101 203 101
c147 0 229 -94 229 -205c0 -67 -29 -109 -69 -167c-43 -62 -120 -157 -175 -226z" />
    <glyph glyph-name="three.tf" 
d="M69 81c-6 8 -5 19 1 26l53 51c9 8 18 8 27 0c27 -23 63 -56 126 -56c67 0 109 40 109 97c0 53 -49 102 -142 102h-57c-12 0 -20 8 -20 20v65c0 14 7 21 20 21h57c85 0 128 41 128 94c0 56 -47 94 -100 94s-86 -28 -104 -49c-7 -8 -18 -9 -28 -1l-50 47c-8 7 -6 19 0 27
c31 36 95 91 193 91c120 0 220 -73 220 -189c0 -79 -54 -133 -106 -159v-4c53 -21 124 -76 124 -167c0 -117 -94 -201 -237 -201c-128 0 -191 65 -214 91z" />
    <glyph glyph-name="four.tf" 
d="M44 149c-11 0 -19 10 -19 20v65c0 14 4 25 12 36l327 428c7 9 12 12 26 12h49c10 0 19 -9 19 -20v-434h83c11 0 19 -8 19 -18v-69c0 -10 -8 -20 -19 -20h-83l1 -129c0 -11 -9 -20 -19 -20h-86c-10 0 -19 9 -19 20v129h-291zM155 256v-3h184v247h-2z" />
    <glyph glyph-name="five.tf" 
d="M87 75c-14 16 -15 23 -2 35l51 51c7 6 17 8 25 1c22 -20 64 -58 133 -58c70 0 119 52 119 122c0 63 -43 115 -124 115h-159c-20 0 -32 19 -32 36v304c0 10 8 19 20 19h325c12 0 20 -9 20 -19v-70c0 -11 -8 -20 -20 -20h-228v-137h88c146 0 236 -94 236 -228
c0 -129 -107 -236 -249 -236c-110 0 -177 54 -203 85z" />
    <glyph glyph-name="six.tf" 
d="M64 274c0 301 255 415 343 444c15 4 25 -1 29 -14l24 -61c5 -12 1 -24 -19 -30c-48 -15 -194 -79 -226 -193c17 11 69 29 117 29c103 0 210 -76 210 -223c0 -130 -106 -236 -233 -236c-161 0 -245 129 -245 284zM188 259c0 -77 37 -154 120 -154c65 0 118 50 118 123
c0 66 -53 121 -119 121c-68 0 -108 -53 -119 -90z" />
    <glyph glyph-name="seven.tf" 
d="M380 587v2h-285c-10 0 -19 9 -19 20v72c0 10 9 19 19 19h436c10 0 19 -9 19 -19c0 -5 0 -7 -5 -18l-286 -635c-7 -17 -17 -28 -35 -28h-76c-12 0 -26 3 -26 20c0 8 0 11 5 21z" />
    <glyph glyph-name="eight.tf" 
d="M56 187c0 90 67 146 125 172v4c-49 21 -106 78 -106 158c0 115 99 189 223 189c129 0 228 -74 228 -189c0 -78 -59 -135 -106 -157v-5c62 -26 125 -83 125 -172c0 -112 -95 -197 -247 -197c-147 0 -242 85 -242 197zM301 419c63 15 93 53 93 97c0 49 -38 88 -96 88
c-54 0 -91 -39 -91 -88c0 -46 29 -81 94 -97zM193 190c0 -57 43 -95 108 -95c64 0 107 38 107 95c0 46 -38 93 -107 109c-69 -16 -108 -63 -108 -109z" />
    <glyph glyph-name="nine.tf" 
d="M139 57c-5 12 -1 23 19 30c48 15 195 79 226 192c-17 -10 -69 -29 -117 -29c-103 0 -210 77 -210 224c0 130 106 236 233 236c161 0 245 -130 245 -284c0 -301 -255 -415 -343 -444c-15 -5 -25 1 -29 14zM292 350c68 0 108 54 119 91c0 70 -37 153 -120 153
c-65 0 -118 -57 -118 -122c0 -66 53 -122 119 -122z" />
    <glyph glyph-name="zerosuperior" unicode="&#x2070;" horiz-adv-x="320" 
d="M161 494c-83 0 -127 60 -127 158c0 99 44 158 127 158c82 0 125 -59 125 -158c0 -98 -43 -158 -125 -158zM161 564c27 0 44 31 44 88s-17 88 -44 88c-28 0 -44 -31 -44 -88s16 -88 44 -88z" />
    <glyph glyph-name="foursuperior" unicode="&#x2074;" horiz-adv-x="322" 
d="M179 504c-5 0 -10 4 -10 9v48h-137c-5 0 -9 4 -9 8v51l163 177c2 2 6 3 8 3h41c5 0 9 -4 9 -9v-170h40c5 0 9 -4 9 -8v-43c0 -5 -4 -9 -9 -9h-40v-48c0 -5 -4 -9 -9 -9h-56zM96 620h74v83z" />
    <glyph glyph-name="fivesuperior" unicode="&#x2075;" horiz-adv-x="288" 
d="M134 494c-51 0 -84 24 -96 38c-5 5 -6 9 -1 15l27 33c5 7 10 7 15 2c1 -1 23 -21 57 -21c23 0 45 16 45 38s-18 37 -48 37h-74c-10 0 -15 8 -15 16v139c0 5 4 9 9 9h160c5 0 9 -4 9 -9v-44c0 -5 -4 -9 -9 -9h-103v-39h35c72 0 114 -37 114 -99c0 -61 -50 -106 -125 -106z
" />
    <glyph glyph-name="sixsuperior" unicode="&#x2076;" horiz-adv-x="296" 
d="M152 494c-76 0 -120 54 -120 124c0 131 130 185 166 196c9 3 15 -1 18 -8l13 -34c2 -6 1 -13 -9 -16c-24 -7 -88 -34 -104 -74c2 1 23 13 55 13c47 0 95 -32 95 -97c0 -57 -52 -104 -114 -104zM152 563c22 0 40 17 40 38c0 22 -18 39 -40 39s-40 -18 -45 -30
c1 -23 19 -47 45 -47z" />
    <glyph glyph-name="sevensuperior" unicode="&#x2077;" horiz-adv-x="266" 
d="M46 504c-7 0 -11 2 -11 8v6l116 218h-109c-5 0 -10 4 -10 8v47c0 5 5 9 10 9h199c5 0 9 -4 9 -9v-14l-132 -264c-4 -7 -8 -9 -15 -9h-57z" />
    <glyph glyph-name="eightsuperior" unicode="&#x2078;" horiz-adv-x="310" 
d="M154 494c-72 0 -120 37 -120 86c0 47 52 73 60 76v1c-20 8 -51 31 -51 70c0 51 50 83 111 83c63 0 113 -32 113 -83c0 -38 -32 -62 -52 -70v-1c24 -7 61 -31 61 -76c0 -49 -48 -86 -122 -86zM155 686c20 2 32 16 32 31c0 16 -14 31 -33 31c-18 0 -32 -15 -32 -31
c0 -17 12 -29 33 -31zM155 556c20 0 38 12 38 32c0 17 -14 34 -38 36c-23 -2 -39 -19 -39 -36c0 -19 19 -32 39 -32z" />
    <glyph glyph-name="ninesuperior" unicode="&#x2079;" horiz-adv-x="296" 
d="M98 488c-9 -3 -15 1 -18 8l-13 34c-2 6 -1 13 9 16c24 7 88 34 104 74c-2 -1 -23 -13 -55 -13c-47 0 -95 32 -95 97c0 57 52 104 114 104c76 0 120 -54 120 -124c0 -131 -130 -185 -166 -196zM144 662c22 0 40 18 45 30c-1 23 -19 47 -45 47c-22 0 -40 -17 -40 -38
c0 -22 18 -39 40 -39z" />
    <glyph glyph-name="zeroinferior" unicode="&#x2080;" horiz-adv-x="322" 
d="M35 -2c0 99 44 158 127 158c82 0 125 -59 125 -158c0 -98 -43 -158 -125 -158c-83 0 -127 60 -127 158zM118 -2c0 -57 16 -88 44 -88c27 0 44 31 44 88s-17 88 -44 88c-28 0 -44 -31 -44 -88z" />
    <glyph glyph-name="oneinferior" unicode="&#x2081;" horiz-adv-x="208" 
d="M24 57l-2 31c0 5 2 7 7 11l74 47h51c5 0 9 -4 9 -9v-278c0 -5 -4 -9 -9 -9h-62c-6 0 -10 4 -10 9v193l-49 -4c-5 0 -9 3 -9 9z" />
    <glyph glyph-name="twoinferior" unicode="&#x2082;" horiz-adv-x="281" 
d="M62 70l-22 31c-6 8 -8 13 3 21c6 5 42 34 94 34c63 0 106 -37 106 -92c0 -30 -14 -58 -37 -86l-54 -64h80c5 0 9 -4 9 -9v-46c0 -5 -3 -9 -9 -9h-195c-6 0 -10 3 -10 9v17l110 126c17 19 25 36 25 50c0 20 -16 35 -40 35c-18 0 -36 -11 -44 -20c-6 -4 -11 -4 -16 3z" />
    <glyph glyph-name="threeinferior" unicode="&#x2083;" horiz-adv-x="279" 
d="M69 15c0 10 6 14 15 14h29c25 0 41 13 41 31s-16 30 -38 30c-15 0 -30 -8 -39 -16c-6 -3 -9 -5 -15 3l-24 29c-5 5 -6 14 1 18c0 0 33 32 89 32c64 0 108 -32 108 -83c0 -36 -28 -60 -51 -70v-1c23 -9 60 -32 60 -76c0 -55 -53 -86 -117 -86c-57 0 -86 25 -95 33
c-6 6 -6 11 -1 18l22 29c5 7 11 6 17 2c1 0 21 -16 47 -16s42 12 42 31s-16 33 -47 33h-29c-10 0 -15 3 -15 14v31z" />
    <glyph glyph-name="fourinferior" unicode="&#x2084;" horiz-adv-x="323" 
d="M23 -34l163 177c2 2 6 3 8 3h41c5 0 9 -4 9 -9v-170h40c5 0 9 -4 9 -8v-43c0 -5 -4 -9 -9 -9h-40v-48c0 -5 -4 -9 -9 -9h-56c-5 0 -10 4 -10 9v48h-137c-5 0 -9 4 -9 8v51zM96 -34h74v83z" />
    <glyph glyph-name="fiveinferior" unicode="&#x2085;" horiz-adv-x="290" 
d="M45 -2v139c0 5 4 9 9 9h160c5 0 9 -4 9 -9v-44c0 -5 -4 -9 -9 -9h-103v-39h35c72 0 114 -37 114 -99c0 -61 -50 -106 -125 -106c-51 0 -84 24 -96 38c-5 5 -6 9 -1 15l27 33c5 7 10 7 15 2c1 -1 23 -21 57 -21c23 0 45 16 45 38s-18 37 -48 37h-74c-10 0 -15 8 -15 16z
" />
    <glyph glyph-name="sixinferior" unicode="&#x2086;" horiz-adv-x="297" 
d="M32 -36c0 131 130 185 166 196c9 3 15 -1 18 -8l13 -34c2 -6 1 -13 -9 -16c-24 -7 -88 -34 -104 -74c2 1 23 13 55 13c47 0 95 -32 95 -97c0 -57 -52 -104 -114 -104c-76 0 -120 54 -120 124zM107 -44c1 -23 19 -47 45 -47c22 0 40 17 40 38c0 22 -18 39 -40 39
s-40 -18 -45 -30z" />
    <glyph glyph-name="seveninferior" unicode="&#x2087;" horiz-adv-x="267" 
d="M43 82c-5 0 -10 4 -10 8v47c0 5 5 9 10 9h199c5 0 9 -4 9 -9v-14l-132 -264c-4 -7 -8 -9 -15 -9h-57c-7 0 -11 2 -11 8v6l116 218h-109z" />
    <glyph glyph-name="eightinferior" unicode="&#x2088;" horiz-adv-x="310" 
d="M34 -74c0 47 52 73 60 76v1c-20 8 -51 31 -51 70c0 51 50 83 111 83c63 0 113 -32 113 -83c0 -38 -32 -62 -52 -70v-1c24 -7 61 -31 61 -76c0 -49 -48 -86 -122 -86c-72 0 -120 37 -120 86zM122 63c0 -17 12 -29 33 -31c20 2 32 16 32 31c0 16 -14 31 -33 31
c-18 0 -32 -15 -32 -31zM116 -66c0 -19 19 -32 39 -32s38 12 38 32c0 17 -14 34 -38 36c-23 -2 -39 -19 -39 -36z" />
    <glyph glyph-name="nineinferior" unicode="&#x2089;" horiz-adv-x="296" 
d="M30 50c0 57 52 104 114 104c76 0 120 -54 120 -124c0 -131 -130 -185 -166 -196c-9 -3 -15 1 -18 8l-13 34c-2 6 -1 13 9 16c24 7 88 34 104 74c-2 -1 -23 -13 -55 -13c-47 0 -95 32 -95 97zM104 47c0 -22 18 -39 40 -39s40 18 45 30c-1 23 -19 47 -45 47
c-22 0 -40 -17 -40 -38z" />
    <glyph glyph-name="zero.denom" horiz-adv-x="332" 
d="M40 148c0 99 44 158 127 158c82 0 125 -59 125 -158c0 -98 -43 -158 -125 -158c-83 0 -127 60 -127 158zM167 60c27 0 44 31 44 88s-17 88 -44 88c-28 0 -44 -31 -44 -88s16 -88 44 -88z" />
    <glyph glyph-name="one.denom" horiz-adv-x="227" 
d="M90 9v193l-49 -4c-5 0 -9 3 -9 9l-2 31c0 5 2 7 7 11l74 47h51c5 0 9 -4 9 -9v-278c0 -5 -4 -9 -9 -9h-62c-6 0 -10 4 -10 9z" />
    <glyph glyph-name="two.denom" horiz-adv-x="300" 
d="M38 9v17l110 126c17 19 25 36 25 50c0 20 -16 35 -40 35c-18 0 -36 -11 -44 -20c-6 -4 -11 -4 -16 3l-22 31c-6 8 -8 13 3 21c6 5 42 34 94 34c63 0 106 -37 106 -92c0 -30 -14 -58 -37 -86l-54 -64h80c5 0 9 -4 9 -9v-46c0 -5 -3 -9 -9 -9h-195c-6 0 -10 3 -10 9z" />
    <glyph glyph-name="three.denom" horiz-adv-x="299" 
d="M45 23c-6 6 -6 11 -1 18l22 29c5 7 11 6 17 2c1 0 21 -16 47 -16s42 12 42 31s-16 33 -47 33h-29c-10 0 -15 3 -15 14v31c0 10 6 14 15 14h29c25 0 41 13 41 31s-16 30 -38 30c-15 0 -30 -8 -39 -16c-6 -3 -9 -5 -15 3l-24 29c-5 5 -6 14 1 18c0 0 33 32 89 32
c64 0 108 -32 108 -83c0 -36 -28 -60 -51 -70v-1c23 -9 60 -32 60 -76c0 -55 -53 -86 -117 -86c-57 0 -86 25 -95 33z" />
    <glyph glyph-name="four.denom" horiz-adv-x="330" 
d="M26 65v51l163 177c2 2 6 3 8 3h41c5 0 9 -4 9 -9v-170h40c5 0 9 -4 9 -8v-43c0 -5 -4 -9 -9 -9h-40v-48c0 -5 -4 -9 -9 -9h-56c-5 0 -10 4 -10 9v48h-137c-5 0 -9 4 -9 8zM99 116h74v83z" />
    <glyph glyph-name="five.denom" horiz-adv-x="310" 
d="M52 28c-5 5 -6 9 -1 15l27 33c5 7 10 7 15 2c1 -1 23 -21 57 -21c23 0 45 16 45 38s-18 37 -48 37h-74c-10 0 -15 8 -15 16v139c0 5 4 9 9 9h160c5 0 9 -4 9 -9v-44c0 -5 -4 -9 -9 -9h-103v-39h35c72 0 114 -37 114 -99c0 -61 -50 -106 -125 -106c-51 0 -84 24 -96 38z
" />
    <glyph glyph-name="six.denom" horiz-adv-x="324" 
d="M46 114c0 131 130 185 166 196c9 3 15 -1 18 -8l13 -34c2 -6 1 -13 -9 -16c-24 -7 -88 -34 -104 -74c2 1 23 13 55 13c47 0 95 -32 95 -97c0 -57 -52 -104 -114 -104c-76 0 -120 54 -120 124zM121 106c1 -23 19 -47 45 -47c22 0 40 17 40 38c0 22 -18 39 -40 39
s-40 -18 -45 -30z" />
    <glyph glyph-name="seven.denom" horiz-adv-x="294" 
d="M50 8v6l116 218h-109c-5 0 -10 4 -10 8v47c0 5 5 9 10 9h199c5 0 9 -4 9 -9v-14l-132 -264c-4 -7 -8 -9 -15 -9h-57c-7 0 -11 2 -11 8z" />
    <glyph glyph-name="eight.denom" horiz-adv-x="324" 
d="M41 76c0 47 52 73 60 76v1c-20 8 -51 31 -51 70c0 51 50 83 111 83c63 0 113 -32 113 -83c0 -38 -32 -62 -52 -70v-1c24 -7 61 -31 61 -76c0 -49 -48 -86 -122 -86c-72 0 -120 37 -120 86zM162 182c20 2 32 16 32 31c0 16 -14 31 -33 31c-18 0 -32 -15 -32 -31
c0 -17 12 -29 33 -31zM123 84c0 -19 19 -32 39 -32s38 12 38 32c0 17 -14 34 -38 36c-23 -2 -39 -19 -39 -36z" />
    <glyph glyph-name="nine.denom" horiz-adv-x="305" 
d="M72 26c-2 6 -1 13 9 16c24 7 88 34 104 74c-2 -1 -23 -13 -55 -13c-47 0 -95 32 -95 97c0 57 52 104 114 104c76 0 120 -54 120 -124c0 -131 -130 -185 -166 -196c-9 -3 -15 1 -18 8zM149 158c22 0 40 18 45 30c-1 23 -19 47 -45 47c-22 0 -40 -17 -40 -38
c0 -22 18 -39 40 -39z" />
    <glyph glyph-name="zero.num" horiz-adv-x="320" 
d="M161 394c-83 0 -127 60 -127 158c0 99 44 158 127 158c82 0 125 -59 125 -158c0 -98 -43 -158 -125 -158zM161 464c27 0 44 31 44 88s-17 88 -44 88c-28 0 -44 -31 -44 -88s16 -88 44 -88z" />
    <glyph glyph-name="one.num" horiz-adv-x="207" 
d="M92 404c-6 0 -10 4 -10 9v193l-49 -4c-5 0 -9 3 -9 9l-2 31c0 5 2 7 7 11l74 47h51c5 0 9 -4 9 -9v-278c0 -5 -4 -9 -9 -9h-62z" />
    <glyph glyph-name="two.num" horiz-adv-x="280" 
d="M37 404c-6 0 -10 3 -10 9v17l110 126c17 19 25 36 25 50c0 20 -16 35 -40 35c-18 0 -36 -11 -44 -20c-6 -4 -11 -4 -16 3l-22 31c-6 8 -8 13 3 21c6 5 42 34 94 34c63 0 106 -37 106 -92c0 -30 -14 -58 -37 -86l-54 -64h80c5 0 9 -4 9 -9v-46c0 -5 -3 -9 -9 -9h-195z" />
    <glyph glyph-name="three.num" horiz-adv-x="278" 
d="M127 394c-57 0 -86 25 -95 33c-6 6 -6 11 -1 18l22 29c5 7 11 6 17 2c1 0 21 -16 47 -16s42 12 42 31s-16 33 -47 33h-29c-10 0 -15 3 -15 14v31c0 10 6 14 15 14h29c25 0 41 13 41 31s-16 30 -38 30c-15 0 -30 -8 -39 -16c-6 -3 -9 -5 -15 3l-24 29c-5 5 -6 14 1 18
c0 0 33 32 89 32c64 0 108 -32 108 -83c0 -36 -28 -60 -51 -70v-1c23 -9 60 -32 60 -76c0 -55 -53 -86 -117 -86z" />
    <glyph glyph-name="four.num" horiz-adv-x="322" 
d="M179 404c-5 0 -10 4 -10 9v48h-137c-5 0 -9 4 -9 8v51l163 177c2 2 6 3 8 3h41c5 0 9 -4 9 -9v-170h40c5 0 9 -4 9 -8v-43c0 -5 -4 -9 -9 -9h-40v-48c0 -5 -4 -9 -9 -9h-56zM96 520h74v83z" />
    <glyph glyph-name="five.num" horiz-adv-x="288" 
d="M134 394c-51 0 -84 24 -96 38c-5 5 -6 9 -1 15l27 33c5 7 10 7 15 2c1 -1 23 -21 57 -21c23 0 45 16 45 38s-18 37 -48 37h-74c-10 0 -15 8 -15 16v139c0 5 4 9 9 9h160c5 0 9 -4 9 -9v-44c0 -5 -4 -9 -9 -9h-103v-39h35c72 0 114 -37 114 -99c0 -61 -50 -106 -125 -106z
" />
    <glyph glyph-name="six.num" horiz-adv-x="296" 
d="M152 394c-76 0 -120 54 -120 124c0 131 130 185 166 196c9 3 15 -1 18 -8l13 -34c2 -6 1 -13 -9 -16c-24 -7 -88 -34 -104 -74c2 1 23 13 55 13c47 0 95 -32 95 -97c0 -57 -52 -104 -114 -104zM152 463c22 0 40 17 40 38c0 22 -18 39 -40 39s-40 -18 -45 -30
c1 -23 19 -47 45 -47z" />
    <glyph glyph-name="seven.num" horiz-adv-x="266" 
d="M46 404c-7 0 -11 2 -11 8v6l116 218h-109c-5 0 -10 4 -10 8v47c0 5 5 9 10 9h199c5 0 9 -4 9 -9v-14l-132 -264c-4 -7 -8 -9 -15 -9h-57z" />
    <glyph glyph-name="eight.num" horiz-adv-x="310" 
d="M154 394c-72 0 -120 37 -120 86c0 47 52 73 60 76v1c-20 8 -51 31 -51 70c0 51 50 83 111 83c63 0 113 -32 113 -83c0 -38 -32 -62 -52 -70v-1c24 -7 61 -31 61 -76c0 -49 -48 -86 -122 -86zM155 586c20 2 32 16 32 31c0 16 -14 31 -33 31c-18 0 -32 -15 -32 -31
c0 -17 12 -29 33 -31zM155 456c20 0 38 12 38 32c0 17 -14 34 -38 36c-23 -2 -39 -19 -39 -36c0 -19 19 -32 39 -32z" />
    <glyph glyph-name="nine.num" horiz-adv-x="296" 
d="M98 388c-9 -3 -15 1 -18 8l-13 34c-2 6 -1 13 9 16c24 7 88 34 104 74c-2 -1 -23 -13 -55 -13c-47 0 -95 32 -95 97c0 57 52 104 114 104c76 0 120 -54 120 -124c0 -131 -130 -185 -166 -196zM144 562c22 0 40 18 45 30c-1 23 -19 47 -45 47c-22 0 -40 -17 -40 -38
c0 -22 18 -39 40 -39z" />
    <glyph glyph-name="parenright.case" horiz-adv-x="330" 
d="M45 -119c-11 0 -18 6 -19 16l-3 65c-1 8 3 17 12 19c98 26 135 197 135 364c0 166 -37 349 -135 375c-7 1 -13 10 -12 18l3 66c0 9 8 16 19 15c114 -6 248 -160 248 -474s-134 -456 -248 -464z" />
    <glyph glyph-name="hyphen.case" horiz-adv-x="371" 
d="M74 282c-11 0 -19 8 -19 18v67c0 11 8 19 19 19h223c11 0 19 -8 19 -19v-67c0 -10 -8 -18 -19 -18h-223z" />
    <glyph glyph-name="bracketleft.case" horiz-adv-x="353" 
d="M180 -18h130c10 0 19 -8 19 -18v-63c0 -10 -9 -19 -19 -19h-226c-10 0 -19 9 -19 19v900c0 10 9 19 19 19h226c10 0 19 -9 19 -19v-62c0 -11 -9 -19 -19 -19h-130v-738z" />
    <glyph glyph-name="bracketright.case" horiz-adv-x="353" 
d="M43 -18h130v738h-130c-10 0 -19 8 -19 19v62c0 10 9 19 19 19h226c10 0 19 -9 19 -19v-900c0 -10 -9 -19 -19 -19h-226c-10 0 -19 9 -19 19v63c0 10 9 18 19 18z" />
    <glyph glyph-name="braceleft.case" horiz-adv-x="396" 
d="M103 124v113c0 45 -45 64 -69 68c-8 1 -15 8 -15 18v49c0 10 7 15 14 17c9 2 70 26 70 69v117c0 220 145 251 248 255c11 1 19 -5 20 -17l4 -63c1 -11 -7 -17 -14 -18c-78 -17 -134 -55 -134 -157v-95c0 -86 -74 -126 -83 -130v-4c27 -11 83 -44 83 -125v-97
c0 -102 56 -137 134 -153c7 -2 15 -8 14 -19l-4 -63c-1 -10 -10 -18 -20 -17c-103 4 -248 32 -248 252z" />
    <glyph glyph-name="bar.case" horiz-adv-x="178" 
d="M64 -150v961c0 11 9 19 19 19h13c10 0 18 -8 18 -19v-961c0 -10 -9 -18 -19 -18h-12c-10 0 -19 8 -19 18z" />
    <glyph glyph-name="braceright.case" horiz-adv-x="396" 
d="M169 124v97c0 81 56 114 83 125v4c-9 4 -83 44 -83 130v95c0 102 -56 140 -134 157c-7 1 -15 7 -14 18l4 63c1 12 9 18 20 17c103 -4 248 -35 248 -255v-117c0 -43 61 -67 70 -69c7 -2 14 -7 14 -17v-49c0 -10 -7 -17 -15 -18c-24 -4 -69 -23 -69 -68v-113
c0 -220 -145 -249 -248 -253c-12 0 -19 7 -20 17l-4 63c-1 11 7 17 14 19c78 16 134 52 134 154z" />
    <glyph glyph-name="guilsinglleft.case" horiz-adv-x="287" 
d="M143 159l-104 155c-6 8 -4 18 0 24l109 148c3 5 10 12 18 12h57c17 0 23 -15 15 -31l-68 -139l65 -147c7 -16 2 -30 -15 -30h-62c-7 0 -12 4 -15 8z" />
    <glyph glyph-name="guilsinglright.case" horiz-adv-x="287" 
d="M66 151c-17 0 -22 14 -15 30l65 147l-68 139c-8 16 -2 31 15 31h57c8 0 15 -7 18 -12l109 -148c4 -6 6 -16 0 -24l-104 -155c-3 -4 -8 -8 -15 -8h-62z" />
    <glyph glyph-name="guillemotleft.case" horiz-adv-x="487" 
d="M239 314c-6 8 -4 18 0 24l109 148c3 5 10 12 18 12h57c17 0 23 -15 15 -31l-68 -139l65 -147c7 -16 2 -30 -15 -30h-62c-7 0 -12 4 -15 8zM143 159l-104 155c-6 8 -4 18 0 24l109 148c3 5 10 12 18 12h57c17 0 23 -15 15 -31l-68 -139l65 -147c7 -16 2 -30 -15 -30h-62
c-7 0 -12 4 -15 8z" />
    <glyph glyph-name="guillemotright.case" horiz-adv-x="487" 
d="M251 181l65 147l-68 139c-8 16 -2 31 15 31h57c8 0 15 -7 18 -12l109 -148c4 -6 6 -16 0 -24l-104 -155c-3 -4 -8 -8 -15 -8h-62c-17 0 -22 14 -15 30zM66 151c-17 0 -22 14 -15 30l65 147l-68 139c-8 16 -2 31 15 31h57c8 0 15 -7 18 -12l109 -148c4 -6 6 -16 0 -24
l-104 -155c-3 -4 -8 -8 -15 -8h-62z" />
    <glyph glyph-name="endash.case" horiz-adv-x="545" 
d="M75 300c-11 0 -19 8 -19 18v37c0 11 8 19 19 19h395c11 0 19 -8 19 -19v-37c0 -10 -8 -18 -19 -18h-395z" />
    <glyph glyph-name="emdash.case" horiz-adv-x="765" 
d="M75 300c-11 0 -19 8 -19 18v37c0 11 8 19 19 19h615c11 0 19 -8 19 -19v-37c0 -10 -8 -18 -19 -18h-615z" />
    <glyph glyph-name="bullet.case" horiz-adv-x="388" 
d="M192 185c-69 0 -129 59 -129 129c0 73 60 133 129 133c73 0 133 -60 133 -133c0 -70 -60 -129 -133 -129z" />
    <glyph glyph-name="periodcentered.case" horiz-adv-x="261" 
d="M129 257c-48 0 -89 41 -89 89c0 51 41 92 89 92c51 0 92 -41 92 -92c0 -48 -41 -89 -92 -89z" />
    <glyph glyph-name="parenleft.case" horiz-adv-x="330" 
d="M285 -119c-114 8 -248 150 -248 464s134 468 248 474c11 1 19 -6 19 -15l3 -66c1 -8 -5 -17 -12 -18c-98 -26 -135 -209 -135 -375c0 -167 37 -338 135 -364c9 -2 13 -11 12 -19l-3 -65c-1 -10 -8 -16 -19 -16z" />
    <glyph glyph-name="brokenbar" unicode="&#xa6;" horiz-adv-x="186" 
d="M87 392c-10 0 -19 8 -19 18v331c0 11 9 19 19 19h13c10 0 18 -8 18 -19v-331c0 -10 -9 -18 -19 -18h-12zM68 111c0 11 9 19 19 19h13c10 0 18 -8 18 -19v-331c0 -10 -9 -18 -19 -18h-12c-10 0 -19 8 -19 18v331z" />
    <glyph glyph-name="a.alt" horiz-adv-x="567" 
d="M503 440v-418c0 -12 -10 -22 -22 -22h-45c-11 0 -18 9 -22 22l-12 36s-49 -69 -147 -69c-126 0 -219 110 -219 242s93 241 220 241c76 0 127 -39 145 -61l16 37c3 10 12 14 19 14h45c12 0 22 -9 22 -22zM376 167v128c-10 24 -40 63 -100 63c-75 0 -114 -58 -114 -128
s39 -127 111 -127c64 0 93 37 103 64z" />
    <glyph glyph-name="agrave.alt" horiz-adv-x="567" 
d="M390 528l-175 77c-8 4 -13 14 -6 27l28 51c5 9 17 9 26 3l164 -97c6 -3 10 -11 6 -19l-18 -36c-4 -9 -11 -12 -25 -6zM503 440v-418c0 -12 -10 -22 -22 -22h-45c-11 0 -18 9 -22 22l-12 36s-49 -69 -147 -69c-126 0 -219 110 -219 242s93 241 220 241
c76 0 127 -39 145 -61l16 37c3 10 12 14 19 14h45c12 0 22 -9 22 -22zM376 167v128c-10 24 -40 63 -100 63c-75 0 -114 -58 -114 -128s39 -127 111 -127c64 0 93 37 103 64z" />
    <glyph glyph-name="aacute.alt" horiz-adv-x="567" 
d="M216 528c-15 -6 -21 -3 -26 6l-17 36c-4 8 0 15 6 19l163 97c9 6 21 6 26 -3l29 -51c6 -13 2 -23 -6 -27zM503 440v-418c0 -12 -10 -22 -22 -22h-45c-11 0 -18 9 -22 22l-12 36s-49 -69 -147 -69c-126 0 -219 110 -219 242s93 241 220 241c76 0 127 -39 145 -61l16 37
c3 10 12 14 19 14h45c12 0 22 -9 22 -22zM376 167v128c-10 24 -40 63 -100 63c-75 0 -114 -58 -114 -128s39 -127 111 -127c64 0 93 37 103 64z" />
    <glyph glyph-name="acircumflex.alt" horiz-adv-x="567" 
d="M169 529l-26 37c-5 7 0 15 6 19l130 101c6 5 14 5 21 0l130 -101c6 -4 11 -12 6 -19l-26 -37c-6 -8 -11 -10 -23 -3l-97 61l-98 -61c-12 -7 -17 -5 -23 3zM503 440v-418c0 -12 -10 -22 -22 -22h-45c-11 0 -18 9 -22 22l-12 36s-49 -69 -147 -69c-126 0 -219 110 -219 242
s93 241 220 241c76 0 127 -39 145 -61l16 37c3 10 12 14 19 14h45c12 0 22 -9 22 -22zM376 167v128c-10 24 -40 63 -100 63c-75 0 -114 -58 -114 -128s39 -127 111 -127c64 0 93 37 103 64z" />
    <glyph glyph-name="atilde.alt" horiz-adv-x="567" 
d="M174 562l-29 21c-7 5 -9 16 -6 23c10 18 43 84 104 84c52 0 69 -55 107 -55c35 0 36 62 65 41l28 -20c9 -7 8 -19 1 -31c-11 -19 -40 -76 -97 -76c-52 0 -76 56 -109 56c-36 0 -34 -62 -64 -43zM503 440v-418c0 -12 -10 -22 -22 -22h-45c-11 0 -18 9 -22 22l-12 36
s-49 -69 -147 -69c-126 0 -219 110 -219 242s93 241 220 241c76 0 127 -39 145 -61l16 37c3 10 12 14 19 14h45c12 0 22 -9 22 -22zM376 167v128c-10 24 -40 63 -100 63c-75 0 -114 -58 -114 -128s39 -127 111 -127c64 0 93 37 103 64z" />
    <glyph glyph-name="adieresis.alt" horiz-adv-x="567" 
d="M386 551c-35 0 -63 29 -63 64s28 63 63 63s64 -28 64 -63s-29 -64 -64 -64zM185 551c-35 0 -63 29 -63 64s28 63 63 63s64 -28 64 -63s-29 -64 -64 -64zM503 440v-418c0 -12 -10 -22 -22 -22h-45c-11 0 -18 9 -22 22l-12 36s-49 -69 -147 -69c-126 0 -219 110 -219 242
s93 241 220 241c76 0 127 -39 145 -61l16 37c3 10 12 14 19 14h45c12 0 22 -9 22 -22zM376 167v128c-10 24 -40 63 -100 63c-75 0 -114 -58 -114 -128s39 -127 111 -127c64 0 93 37 103 64z" />
    <glyph glyph-name="amacron.alt" horiz-adv-x="567" 
d="M162 570c-11 0 -19 8 -19 18v34c0 11 8 19 19 19h256c11 0 19 -8 19 -19v-34c0 -10 -8 -18 -19 -18h-256zM503 440v-418c0 -12 -10 -22 -22 -22h-45c-11 0 -18 9 -22 22l-12 36s-49 -69 -147 -69c-126 0 -219 110 -219 242s93 241 220 241c76 0 127 -39 145 -61l16 37
c3 10 12 14 19 14h45c12 0 22 -9 22 -22zM376 167v128c-10 24 -40 63 -100 63c-75 0 -114 -58 -114 -128s39 -127 111 -127c64 0 93 37 103 64z" />
    <glyph glyph-name="abreve.alt" horiz-adv-x="567" 
d="M290 528c-73 0 -130 51 -140 118c-2 12 5 22 18 22h37c9 0 15 -7 17 -14c10 -31 35 -53 68 -53c30 0 56 25 66 53c2 8 10 14 17 14h39c12 0 19 -10 18 -22c-11 -67 -68 -118 -140 -118zM503 440v-418c0 -12 -10 -22 -22 -22h-45c-11 0 -18 9 -22 22l-12 36
s-49 -69 -147 -69c-126 0 -219 110 -219 242s93 241 220 241c76 0 127 -39 145 -61l16 37c3 10 12 14 19 14h45c12 0 22 -9 22 -22zM376 167v128c-10 24 -40 63 -100 63c-75 0 -114 -58 -114 -128s39 -127 111 -127c64 0 93 37 103 64z" />
    <glyph glyph-name="aring.alt" horiz-adv-x="567" 
d="M286 503c-63 0 -113 50 -113 113s50 113 113 113c62 0 113 -50 113 -113s-51 -113 -113 -113zM286 566c26 0 48 24 48 50s-22 48 -48 48s-50 -22 -50 -48s24 -50 50 -50zM503 440v-418c0 -12 -10 -22 -22 -22h-45c-11 0 -18 9 -22 22l-12 36s-49 -69 -147 -69
c-126 0 -219 110 -219 242s93 241 220 241c76 0 127 -39 145 -61l16 37c3 10 12 14 19 14h45c12 0 22 -9 22 -22zM376 167v128c-10 24 -40 63 -100 63c-75 0 -114 -58 -114 -128s39 -127 111 -127c64 0 93 37 103 64z" />
    <glyph glyph-name="aringacute.alt" horiz-adv-x="567" 
d="M285 499c-63 0 -113 40 -113 103s50 103 113 103c62 0 113 -40 113 -103s-51 -103 -113 -103zM285 562c26 0 48 14 48 40s-22 38 -48 38s-50 -12 -50 -38s24 -40 50 -40zM214 714c-15 -6 -21 -3 -26 6l-15 36c-4 8 -1 16 6 19l161 77c10 5 24 6 29 -3l26 -51
c6 -12 2 -23 -6 -27zM503 440v-418c0 -12 -10 -22 -22 -22h-45c-11 0 -18 9 -22 22l-12 36s-49 -69 -147 -69c-126 0 -219 110 -219 242s93 241 220 241c76 0 127 -39 145 -61l16 37c3 10 12 14 19 14h45c12 0 22 -9 22 -22zM376 167v128c-10 24 -40 63 -100 63
c-75 0 -114 -58 -114 -128s39 -127 111 -127c64 0 93 37 103 64z" />
    <glyph glyph-name="aogonek.alt" horiz-adv-x="567" 
d="M503 440v-405c0 -20 -9 -27 -19 -35c-32 -23 -94 -72 -94 -122c0 -30 15 -43 39 -43c27 0 53 21 61 28c9 8 20 4 20 -7l1 -49c0 -12 -3 -22 -15 -31c-16 -10 -50 -23 -89 -23c-70 0 -105 46 -105 104c0 72 69 131 114 159l-14 42s-49 -69 -147 -69
c-126 0 -219 110 -219 242s93 241 220 241c76 0 127 -39 145 -61l16 37c3 10 12 14 19 14h45c12 0 22 -9 22 -22zM376 167v128c-10 24 -40 63 -100 63c-75 0 -114 -58 -114 -128s39 -127 111 -127c64 0 93 37 103 64z" />
    <glyph glyph-name="q" unicode="q" horiz-adv-x="565" 
d="M36 230c0 140 95 242 221 242c98 0 151 -69 151 -69l12 37c4 13 11 22 22 22h37c12 0 22 -10 22 -22v-656c0 -11 -10 -22 -22 -22h-81c-11 0 -22 11 -22 22v224c-21 -8 -65 -19 -111 -19c-138 0 -229 106 -229 241zM376 129v165c-10 26 -42 64 -102 64
c-72 0 -109 -63 -109 -128s39 -127 115 -127c58 0 96 26 96 26z" />
    <glyph glyph-name="gcircumflex.alt" horiz-adv-x="537" 
d="M23 78c0 90 86 119 86 119s-35 23 -35 92c0 108 88 183 202 183h210c13 0 22 -9 22 -22v-37c0 -9 -5 -18 -13 -20l-67 -21s49 -27 49 -100c0 -92 -76 -161 -198 -161c-44 0 -73 10 -92 10c-16 0 -46 -10 -46 -39c0 -24 21 -32 46 -32h151c116 0 186 -39 186 -141
c0 -106 -81 -158 -248 -158c-171 0 -236 45 -236 120c0 69 56 89 69 94v3c-19 5 -86 26 -86 110zM194 283c0 -50 37 -75 85 -75c49 0 84 25 84 75s-35 75 -84 75c-48 0 -85 -25 -85 -75zM165 -97c-2 -39 45 -51 110 -51c66 0 123 11 123 50c0 18 -10 37 -56 37h-120
c-46 0 -56 -19 -57 -36zM164 529l-26 37c-5 7 0 15 6 19l130 101c6 5 14 5 21 0l130 -101c6 -4 11 -12 6 -19l-26 -37c-6 -8 -11 -10 -23 -3l-97 61l-98 -61c-12 -7 -17 -5 -23 3z" />
    <glyph glyph-name="gbreve.alt" horiz-adv-x="537" 
d="M23 78c0 90 86 119 86 119s-35 23 -35 92c0 108 88 183 202 183h210c13 0 22 -9 22 -22v-37c0 -9 -5 -18 -13 -20l-67 -21s49 -27 49 -100c0 -92 -76 -161 -198 -161c-44 0 -73 10 -92 10c-16 0 -46 -10 -46 -39c0 -24 21 -32 46 -32h151c116 0 186 -39 186 -141
c0 -106 -81 -158 -248 -158c-171 0 -236 45 -236 120c0 69 56 89 69 94v3c-19 5 -86 26 -86 110zM194 283c0 -50 37 -75 85 -75c49 0 84 25 84 75s-35 75 -84 75c-48 0 -85 -25 -85 -75zM165 -97c-2 -39 45 -51 110 -51c66 0 123 11 123 50c0 18 -10 37 -56 37h-120
c-46 0 -56 -19 -57 -36zM291 528c-73 0 -130 51 -140 118c-2 12 5 22 18 22h37c9 0 15 -7 17 -14c10 -31 35 -53 68 -53c30 0 56 25 66 53c2 8 10 14 17 14h39c12 0 19 -10 18 -22c-11 -67 -68 -118 -140 -118z" />
    <glyph glyph-name="gdotaccent.alt" horiz-adv-x="537" 
d="M23 78c0 90 86 119 86 119s-35 23 -35 92c0 108 88 183 202 183h210c13 0 22 -9 22 -22v-37c0 -9 -5 -18 -13 -20l-67 -21s49 -27 49 -100c0 -92 -76 -161 -198 -161c-44 0 -73 10 -92 10c-16 0 -46 -10 -46 -39c0 -24 21 -32 46 -32h151c116 0 186 -39 186 -141
c0 -106 -81 -158 -248 -158c-171 0 -236 45 -236 120c0 69 56 89 69 94v3c-19 5 -86 26 -86 110zM194 283c0 -50 37 -75 85 -75c49 0 84 25 84 75s-35 75 -84 75c-48 0 -85 -25 -85 -75zM165 -97c-2 -39 45 -51 110 -51c66 0 123 11 123 50c0 18 -10 37 -56 37h-120
c-46 0 -56 -19 -57 -36zM292 528c-45 0 -79 36 -79 80s34 79 79 79s80 -35 80 -79s-35 -80 -80 -80z" />
    <glyph glyph-name="gcommaaccent.alt" horiz-adv-x="537" 
d="M23 78c0 90 86 119 86 119s-35 23 -35 92c0 108 88 183 202 183h210c13 0 22 -9 22 -22v-37c0 -9 -5 -18 -13 -20l-67 -21s49 -27 49 -100c0 -92 -76 -161 -198 -161c-44 0 -73 10 -92 10c-16 0 -46 -10 -46 -39c0 -24 21 -32 46 -32h151c116 0 186 -39 186 -141
c0 -106 -81 -158 -248 -158c-171 0 -236 45 -236 120c0 69 56 89 69 94v3c-19 5 -86 26 -86 110zM194 283c0 -50 37 -75 85 -75c49 0 84 25 84 75s-35 75 -84 75c-48 0 -85 -25 -85 -75zM165 -97c-2 -39 45 -51 110 -51c66 0 123 11 123 50c0 18 -10 37 -56 37h-120
c-46 0 -56 -19 -57 -36zM367 590c0 -44 -33 -70 -77 -70c-50 0 -90 30 -90 99c0 63 26 108 53 137c4 7 12 7 20 2l26 -20c9 -6 8 -14 1 -21c-15 -16 -26 -43 -26 -66v-13c2 1 16 10 33 10c37 0 60 -26 60 -58z" />
    <glyph glyph-name="uni2117" unicode="&#x2117;" horiz-adv-x="829" 
d="M55 350c0 198 161 360 359 360s360 -162 360 -360s-162 -359 -360 -359s-359 161 -359 359zM133 350c0 -155 126 -281 281 -281c156 0 281 126 281 281c0 156 -125 281 -281 281c-155 0 -281 -125 -281 -281zM293 187v328c0 10 8 19 19 19h155c62 0 123 -46 123 -124
c0 -66 -49 -120 -134 -120h-76v-103c0 -10 -8 -19 -19 -19h-49c-11 0 -19 9 -19 19zM377 368h79c24 0 41 18 41 41c0 24 -17 41 -41 41h-79v-82z" />
    </font>
</defs>
</svg>
