<?xml version="1.0" standalone="no"?>
<!DOCTYPE svg PUBLIC "-//W3C//DTD SVG 1.1//EN" "http://www.w3.org/Graphics/SVG/1.1/DTD/svg11.dtd" >
<svg>
<metadata>
Created by FontForge 20110222 at Mon May  4 23:19:38 2015
 By www-data
Copyright (c) 2012 by Hannes von Dhren. All rights reserved.
</metadata>
<defs>
<font id="BrandonText-Black" horiz-adv-x="600" >
  <font-face 
    font-family="Brandon Text Black"
    font-weight="500"
    font-stretch="normal"
    units-per-em="1000"
    panose-1="2 11 10 3 2 2 3 6 2 3"
    ascent="700"
    descent="-300"
    x-height="462"
    cap-height="700"
    bbox="-159.414 -322.382 1233 1052.38"
    underline-thickness="50"
    underline-position="-50"
    stemh="147"
    stemv="152"
    unicode-range="U+000D-FB02"
  />
<missing-glyph horiz-adv-x="599" 
d="M50 30v640c0 21 9 30 30 30h439c21 0 30 -9 30 -30v-640c0 -21 -9 -30 -30 -30h-439c-21 0 -30 9 -30 30zM262 314c0 -7 7 -12 14 -12h36c9 0 15 4 15 13v26c0 48 105 63 105 150c0 65 -54 111 -125 111c-87 0 -130 -61 -130 -61c-4 -6 -6 -13 0 -18l22 -22
c6 -4 11 -4 17 0c13 12 36 41 84 41c40 0 61 -25 61 -52c0 -63 -99 -72 -99 -147v-29zM245 156c0 -26 22 -48 48 -48c27 0 49 22 49 48s-22 48 -49 48c-26 0 -48 -22 -48 -48z" />
    <glyph glyph-name="fi" unicode="fi" horiz-adv-x="608" 
d="M423 537c-25 13 -59 29 -106 29s-72 -31 -72 -76v-28h286c13 0 22 -9 22 -22v-418c0 -12 -9 -22 -22 -22h-107c-12 0 -22 10 -22 22v303h-157v-303c0 -14 -11 -22 -29 -22h-101c-11 0 -22 10 -22 22v303h-39c-13 0 -22 10 -22 22v93c0 13 9 22 22 22h39v30
c0 124 72 218 222 218c73 0 137 -30 168 -47c12 -6 15 -20 10 -31l-38 -81c-9 -19 -17 -22 -32 -14z" />
    <glyph glyph-name="fl" unicode="fl" horiz-adv-x="640" 
d="M94 22v303h-41c-13 0 -22 10 -22 22v93c0 13 9 22 22 22h41v26c0 148 94 222 212 222c89 0 131 -29 165 -64l14 32c7 15 16 22 30 22h46c11 0 22 -11 22 -22v-656c0 -12 -11 -22 -22 -22h-108c-11 0 -22 10 -22 22v476c-13 25 -42 68 -100 68c-40 0 -85 -15 -85 -80v-24
h76c12 0 22 -9 22 -22v-93c0 -12 -10 -22 -22 -22h-76v-303c0 -12 -11 -22 -23 -22h-109c-11 0 -20 10 -20 22z" />
    <glyph glyph-name="f_f" unicode="ff" horiz-adv-x="715" 
d="M99 22v303h-50c-13 0 -22 10 -22 22v93c0 13 9 22 22 22h50v19c0 121 78 219 217 219c75 0 113 -27 142 -57c38 49 80 67 149 67c60 0 121 -24 141 -43c7 -5 10 -17 5 -26l-49 -85c-7 -13 -19 -13 -28 -8c-15 9 -35 18 -58 18c-53 0 -58 -37 -58 -84v-20h116
c12 0 22 -9 22 -22v-93c0 -12 -10 -22 -22 -22h-116v-303c0 -12 -11 -22 -22 -22h-108c-11 0 -22 10 -22 22v303h-157v-303c0 -12 -11 -22 -23 -22h-107c-11 0 -22 10 -22 22zM251 462h157v20c0 8 1 24 2 34c-16 22 -44 43 -90 43c-53 0 -69 -46 -69 -78v-19z" />
    <glyph glyph-name="f_f_i" unicode="ffi" horiz-adv-x="924" 
d="M561 462h286c13 0 22 -9 22 -22v-418c0 -12 -9 -22 -22 -22h-107c-12 0 -22 10 -22 22v303h-157l-1 -303c0 -12 -11 -22 -22 -22h-108c-11 0 -22 10 -22 22v303h-157v-303c0 -12 -11 -22 -23 -22h-107c-11 0 -22 10 -22 22v303h-50c-13 0 -22 10 -22 22v93
c0 13 9 22 22 22h50v19c0 121 78 219 217 219c75 0 115 -27 144 -57c42 49 87 67 156 67c94 0 152 -30 183 -47c12 -6 15 -20 10 -31l-38 -81c-9 -19 -17 -22 -32 -14c-25 13 -59 29 -106 29s-72 -31 -72 -76v-28zM251 462h157v20c0 8 1 24 2 34c-16 22 -44 43 -90 43
c-53 0 -69 -46 -69 -78v-19z" />
    <glyph glyph-name="f_f_l" unicode="ffl" horiz-adv-x="954" 
d="M620 710c89 0 131 -29 165 -64l14 32c7 15 16 22 30 22h46c11 0 22 -11 22 -22v-656c0 -12 -11 -22 -22 -22h-108c-11 0 -22 10 -22 22v476c-13 25 -42 68 -100 68c-40 0 -85 -15 -85 -80v-24h76c12 0 22 -9 22 -22v-93c0 -12 -10 -22 -22 -22h-76v-303
c0 -12 -11 -22 -22 -22h-108c-11 0 -22 10 -22 22v303h-157v-303c0 -12 -11 -22 -23 -22h-107c-11 0 -22 10 -22 22v303h-50c-13 0 -22 10 -22 22v93c0 13 9 22 22 22h50v19c0 121 78 219 217 219c75 0 113 -27 142 -57c40 47 93 67 162 67zM251 462h157v20c0 8 1 24 2 34
c-16 22 -44 43 -90 43c-53 0 -69 -46 -69 -78v-19z" />
    <glyph glyph-name="f_f_h" unicode="ffh" horiz-adv-x="1237" 
d="M829 700h46c12 0 22 -11 22 -22v-239c32 22 64 33 98 33c145 0 191 -106 191 -234v-216c0 -12 -11 -22 -22 -22h-108c-13 0 -22 10 -22 22v218c0 52 -19 90 -69 90c-37 0 -68 -20 -68 -90v-218c0 -13 -7 -22 -25 -22h-105c-11 0 -22 10 -22 22v476c-13 25 -42 68 -100 68
c-40 0 -85 -15 -85 -80v-24h76c12 0 22 -9 22 -22v-93c0 -12 -10 -22 -22 -22h-76v-303c0 -12 -11 -22 -22 -22h-108c-11 0 -22 10 -22 22v303h-157v-303c0 -12 -11 -22 -23 -22h-107c-11 0 -22 10 -22 22v303h-50c-13 0 -22 10 -22 22v93c0 13 9 22 22 22h50v19
c0 121 78 219 217 219c75 0 113 -27 142 -57c40 47 93 67 162 67c89 0 131 -29 165 -64l14 32c7 15 16 22 30 22zM251 462h157v20c0 8 1 24 2 34c-16 22 -44 43 -90 43c-53 0 -69 -46 -69 -78v-19z" />
    <glyph glyph-name="f_k" unicode="fk" horiz-adv-x="911" 
d="M561 0h-108c-11 0 -22 10 -22 22v476c-13 25 -42 68 -100 68c-40 0 -85 -15 -85 -80v-24h76c12 0 22 -9 22 -22v-93c0 -12 -10 -22 -22 -22h-76v-303c0 -12 -11 -22 -23 -22h-109c-11 0 -20 10 -20 22v303h-41c-13 0 -22 10 -22 22v93c0 13 9 22 22 22h41v26
c0 148 94 222 212 222c89 0 131 -29 165 -64l14 32c7 15 16 22 30 22h46c12 0 22 -11 22 -22v-391l130 161c7 7 16 14 29 14h123c20 0 31 -21 18 -36l-154 -178l163 -213c12 -15 3 -35 -17 -35h-138c-4 0 -12 4 -16 9l-138 201v-188c0 -12 -10 -22 -22 -22z" />
    <glyph glyph-name="f_j" unicode="fj" horiz-adv-x="608" 
d="M401 -16l1 341h-157v-303c0 -14 -11 -22 -29 -22h-101c-11 0 -22 10 -22 22v303h-39c-13 0 -22 10 -22 22v93c0 13 9 22 22 22h39v30c0 124 72 218 222 218c73 0 137 -30 168 -47c12 -6 15 -20 10 -31l-38 -81c-9 -19 -17 -22 -32 -14c-25 13 -59 29 -106 29
s-72 -31 -72 -76v-28h286c13 0 22 -9 22 -22v-444c0 -142 -81 -218 -170 -241c-28 -7 -41 -2 -49 17l-29 73c-8 21 6 30 16 34c41 16 80 44 80 105z" />
    <glyph glyph-name="f_f_j" unicode="ffj" horiz-adv-x="924" 
d="M251 462h157v20c0 8 1 24 2 34c-16 22 -44 43 -90 43c-53 0 -69 -46 -69 -78v-19zM718 -16v341h-157l-1 -303c0 -12 -11 -22 -22 -22h-108c-11 0 -22 10 -22 22v303h-157v-303c0 -12 -11 -22 -23 -22h-107c-11 0 -22 10 -22 22v303h-50c-13 0 -22 10 -22 22v93
c0 13 9 22 22 22h50v19c0 121 78 219 217 219c75 0 115 -27 144 -57c42 49 87 67 156 67c94 0 152 -30 183 -47c12 -6 15 -20 10 -31l-38 -81c-9 -19 -17 -22 -32 -14c-25 13 -59 29 -106 29s-72 -31 -72 -76v-28h286c13 0 22 -9 22 -22v-444c0 -142 -81 -218 -170 -241
c-28 -7 -41 -2 -49 17l-29 73c-8 21 6 30 16 34c41 16 81 44 81 105z" />
    <glyph glyph-name="f_b" unicode="fb" horiz-adv-x="950" 
d="M515 700h46c12 0 22 -11 22 -22v-236c15 12 60 30 107 30c123 0 229 -78 229 -241c0 -132 -98 -242 -228 -242c-102 0 -156 72 -156 72l-13 -38c-4 -13 -13 -23 -24 -23h-45c-11 0 -22 10 -22 22v476c-13 25 -42 68 -100 68c-40 0 -85 -15 -85 -80v-24h76
c12 0 22 -9 22 -22v-93c0 -12 -10 -22 -22 -22h-76v-303c0 -12 -11 -22 -23 -22h-109c-11 0 -20 10 -20 22v303h-41c-13 0 -22 10 -22 22v93c0 13 9 22 22 22h41v26c0 148 94 222 212 222c89 0 131 -29 165 -64l14 32c7 15 16 22 30 22zM572 232c0 -57 41 -98 98 -98
c55 0 97 41 97 98c0 56 -42 96 -97 96c-57 0 -98 -40 -98 -96z" />
    <glyph glyph-name="f_f_k" unicode="ffk" horiz-adv-x="1225" 
d="M251 462h157v20c0 8 1 24 2 34c-16 22 -44 43 -90 43c-53 0 -69 -46 -69 -78v-19zM875 0h-108c-11 0 -22 10 -22 22v476c-13 25 -42 68 -100 68c-40 0 -85 -15 -85 -80v-24h76c12 0 22 -9 22 -22v-93c0 -12 -10 -22 -22 -22h-76v-303c0 -12 -11 -22 -22 -22h-108
c-11 0 -22 10 -22 22v303h-157v-303c0 -12 -11 -22 -23 -22h-107c-11 0 -22 10 -22 22v303h-50c-13 0 -22 10 -22 22v93c0 13 9 22 22 22h50v19c0 121 78 219 217 219c75 0 113 -27 142 -57c40 47 93 67 162 67c89 0 131 -29 165 -64l14 32c7 15 16 22 30 22h46
c12 0 22 -11 22 -22v-391l130 161c7 7 16 14 29 14h123c20 0 31 -21 18 -36l-154 -178l163 -213c12 -15 3 -35 -17 -35h-138c-4 0 -12 4 -16 9l-138 201v-188c0 -12 -10 -22 -22 -22z" />
    <glyph glyph-name="f_h" unicode="fh" horiz-adv-x="923" 
d="M515 700h46c12 0 22 -11 22 -22v-239c32 22 64 33 98 33c145 0 191 -106 191 -234v-216c0 -12 -11 -22 -22 -22h-108c-13 0 -22 10 -22 22v218c0 52 -19 90 -69 90c-37 0 -68 -20 -68 -90v-218c0 -15 -5 -22 -25 -22h-105c-11 0 -22 10 -22 22v476c-13 25 -42 68 -100 68
c-40 0 -85 -15 -85 -80v-24h76c12 0 22 -9 22 -22v-93c0 -12 -10 -22 -22 -22h-76v-303c0 -12 -11 -22 -23 -22h-109c-11 0 -20 10 -20 22v303h-41c-13 0 -22 10 -22 22v93c0 13 9 22 22 22h41v26c0 148 94 222 212 222c89 0 131 -29 165 -64l14 32c7 15 16 22 30 22z" />
    <glyph glyph-name="f_f_b" unicode="ffb" horiz-adv-x="1264" 
d="M829 700h46c12 0 22 -11 22 -22v-236c15 12 60 30 107 30c123 0 229 -78 229 -241c0 -132 -98 -242 -228 -242c-102 0 -156 72 -156 72l-13 -38c-4 -13 -13 -23 -24 -23h-45c-11 0 -22 10 -22 22v476c-13 25 -42 68 -100 68c-40 0 -85 -15 -85 -80v-24h76
c12 0 22 -9 22 -22v-93c0 -12 -10 -22 -22 -22h-76v-303c0 -12 -11 -22 -22 -22h-108c-11 0 -22 10 -22 22v303h-157v-303c0 -12 -11 -22 -23 -22h-107c-11 0 -22 10 -22 22v303h-50c-13 0 -22 10 -22 22v93c0 13 9 22 22 22h50v19c0 121 78 219 217 219
c75 0 113 -27 142 -57c40 47 93 67 162 67c89 0 131 -29 165 -64l14 32c7 15 16 22 30 22zM251 462h157v20c0 8 1 24 2 34c-16 22 -44 43 -90 43c-53 0 -69 -46 -69 -78v-19zM886 232c0 -57 41 -98 98 -98c55 0 97 41 97 98c0 56 -42 96 -97 96c-57 0 -98 -40 -98 -96z" />
    <glyph glyph-name=".notdef" horiz-adv-x="599" 
d="M50 30v640c0 21 9 30 30 30h439c21 0 30 -9 30 -30v-640c0 -21 -9 -30 -30 -30h-439c-21 0 -30 9 -30 30zM262 314c0 -7 7 -12 14 -12h36c9 0 15 4 15 13v26c0 48 105 63 105 150c0 65 -54 111 -125 111c-87 0 -130 -61 -130 -61c-4 -6 -6 -13 0 -18l22 -22
c6 -4 11 -4 17 0c13 12 36 41 84 41c40 0 61 -25 61 -52c0 -63 -99 -72 -99 -147v-29zM245 156c0 -26 22 -48 48 -48c27 0 49 22 49 48s-22 48 -49 48c-26 0 -48 -22 -48 -48z" />
    <glyph glyph-name=".null" horiz-adv-x="0" 
 />
    <glyph glyph-name=".null" horiz-adv-x="0" 
 />
    <glyph glyph-name="CR" unicode="&#xd;" horiz-adv-x="0" 
 />
    <glyph glyph-name="space" unicode=" " horiz-adv-x="240" 
 />
    <glyph glyph-name="exclam" unicode="!" horiz-adv-x="276" 
d="M117 272c-9 0 -18 8 -19 16l-49 279v114c0 10 9 19 19 19h140c10 0 19 -9 19 -19v-112l-49 -281c-1 -8 -10 -16 -19 -16h-42zM43 84c0 52 43 96 94 96c52 0 96 -44 96 -96c0 -51 -44 -94 -96 -94c-51 0 -94 43 -94 94z" />
    <glyph glyph-name="quotedbl" unicode="&#x22;" horiz-adv-x="390" 
d="M244 501c-10 0 -19 9 -19 19v161c0 10 9 19 19 19h104c13 0 22 -11 18 -25l-48 -159c-2 -8 -11 -15 -18 -15h-56zM63 501c-10 0 -19 9 -19 19v161c0 10 9 19 19 19h104c13 0 22 -11 18 -25l-48 -159c-2 -8 -11 -15 -18 -15h-56z" />
    <glyph glyph-name="numbersign" unicode="#" horiz-adv-x="581" 
d="M118 22l22 163h-71c-11 0 -19 9 -19 19v17c0 11 8 19 19 19h78l24 161h-73c-10 0 -19 9 -19 19v17c0 10 9 19 19 19h80l32 228c1 8 9 16 18 16h17c11 0 20 -10 18 -22l-30 -222h161l31 228c1 8 10 16 19 16h16c12 0 21 -10 19 -22l-30 -222h60c11 0 19 -9 19 -19v-17
c0 -10 -8 -19 -19 -19h-68l-23 -161h62c10 0 19 -8 19 -19v-17c0 -10 -9 -19 -19 -19h-70l-23 -169c-1 -9 -9 -16 -19 -16h-16c-12 0 -20 10 -19 22l23 163h-162l-22 -169c-1 -9 -10 -16 -19 -16h-16c-13 0 -21 10 -19 22zM202 240h162l22 161h-160z" />
    <glyph glyph-name="dollar" unicode="$" 
d="M268 -9c-99 8 -166 55 -188 73c-15 12 -13 24 -4 41l35 66c9 16 18 18 32 8c34 -26 71 -50 125 -61v168c-92 49 -202 106 -202 225c0 100 69 185 202 198v32c0 11 9 19 19 19h19c10 0 19 -8 19 -19v-33c90 -8 159 -53 186 -73c12 -7 10 -25 6 -32l-56 -79
c-8 -11 -19 -12 -27 -6c-29 21 -55 41 -109 60v-147c87 -49 212 -98 212 -234c0 -103 -80 -194 -212 -206v-104c0 -10 -9 -18 -19 -18h-19c-10 0 -19 8 -19 18v104zM268 455v130c-32 -4 -57 -27 -57 -52c0 -36 17 -54 57 -78zM325 115c31 8 54 31 54 62s-19 60 -54 84v-146z
" />
    <glyph glyph-name="percent" unicode="%" horiz-adv-x="700" 
d="M182 441c-75 0 -135 60 -135 135s60 134 135 134c74 0 135 -59 135 -134s-61 -135 -135 -135zM121 27l343 663c4 7 12 10 17 10h76c15 0 24 -14 17 -27l-345 -663c-3 -4 -12 -10 -17 -10h-74c-15 0 -24 14 -17 27zM182 541c18 0 34 16 34 35c0 18 -16 34 -34 34
c-19 0 -35 -16 -35 -34c0 -19 16 -35 35 -35zM382 125c0 75 61 135 135 135c75 0 136 -60 136 -135c0 -74 -61 -135 -136 -135c-74 0 -135 61 -135 135zM483 125c0 -18 16 -34 34 -34c19 0 35 16 35 34c0 19 -16 35 -35 35c-18 0 -34 -16 -34 -35z" />
    <glyph glyph-name="ampersand" unicode="&#x26;" horiz-adv-x="691" 
d="M49 180c0 144 137 201 137 201v3l-20 21c-40 42 -66 85 -66 143c0 76 71 162 199 162c114 0 195 -74 195 -167c0 -110 -109 -169 -109 -177l90 -92c13 21 26 53 33 77c6 21 12 37 39 27l73 -26c22 -8 17 -34 13 -46c-24 -70 -63 -123 -63 -125l85 -79
c13 -12 23 -21 -2 -46l-56 -57c-12 -11 -29 -13 -45 3l-65 65c-37 -34 -97 -77 -218 -77c-128 0 -220 86 -220 190zM301 449c0 0 65 29 65 85c0 34 -26 64 -69 64c-37 0 -64 -23 -64 -54c0 -25 12 -39 27 -54zM192 200c0 -48 41 -85 94 -85c78 0 108 51 108 51l-131 139
s-71 -24 -71 -105z" />
    <glyph glyph-name="quotesingle" unicode="'" horiz-adv-x="208" 
d="M63 501c-10 0 -19 9 -19 19v161c0 10 9 19 19 19h103c13 0 22 -11 18 -25l-48 -159c-2 -8 -11 -15 -18 -15h-55z" />
    <glyph glyph-name="parenleft" unicode="(" horiz-adv-x="338" 
d="M289 -79c-114 8 -254 70 -254 394s140 387 254 393c11 1 20 -8 20 -18l4 -85c0 -7 -6 -17 -13 -19c-84 -26 -115 -120 -115 -271c0 -152 31 -245 115 -272c7 -3 13 -12 13 -19l-4 -84c-1 -11 -8 -19 -20 -19z" />
    <glyph glyph-name="parenright" unicode=")" horiz-adv-x="338" 
d="M25 25c0 7 7 16 13 18c84 27 115 120 115 272c0 151 -31 245 -115 271c-7 2 -13 12 -13 19l4 85c0 10 9 19 20 18c114 -6 254 -69 254 -393s-140 -386 -254 -394c-11 0 -20 8 -20 18z" />
    <glyph glyph-name="asterisk" unicode="*" horiz-adv-x="444" 
d="M201 347c-10 0 -19 9 -19 19l2 90l-74 -51c-8 -6 -21 -3 -26 5l-22 35c-6 9 -5 21 5 27l86 51l-86 52c-9 6 -11 18 -6 27c10 15 16 24 24 35c6 7 17 10 25 4l74 -51l-2 91c0 10 9 19 19 19h41c10 0 19 -9 19 -19l-2 -91l75 51c8 5 21 3 26 -5l22 -34c6 -9 5 -22 -5 -28
l-86 -51l86 -52c10 -6 11 -18 6 -26l-25 -35c-5 -8 -17 -10 -25 -5l-74 50l2 -89c0 -10 -9 -19 -19 -19h-41z" />
    <glyph glyph-name="plus" unicode="+" 
d="M246 146v146h-146c-10 0 -19 9 -19 19v70c0 10 9 19 19 19h146v147c0 10 9 18 19 18h70c10 0 19 -8 19 -18v-147h147c10 0 18 -9 18 -19v-70c0 -10 -8 -19 -18 -19h-147v-146c0 -10 -9 -18 -19 -18h-70c-10 0 -19 8 -19 18z" />
    <glyph glyph-name="comma" unicode="," horiz-adv-x="290" 
d="M32 98c0 56 45 99 106 99c63 0 118 -45 118 -146c0 -110 -45 -192 -89 -254c-7 -9 -17 -10 -27 -2l-40 28c-9 8 -7 19 0 29c32 46 60 101 60 151c0 3 0 6 -1 10c-11 -8 -27 -12 -43 -12c-55 0 -84 44 -84 97z" />
    <glyph glyph-name="hyphen" unicode="-" horiz-adv-x="365" 
d="M68 178c-11 0 -19 8 -19 18v91c0 11 8 19 19 19h229c11 0 19 -8 19 -19v-91c0 -10 -8 -18 -19 -18h-229z" />
    <glyph glyph-name="period" unicode="." horiz-adv-x="282" 
d="M31 98c0 61 50 111 109 111s111 -50 111 -111c0 -59 -52 -109 -111 -109s-109 50 -109 109z" />
    <glyph glyph-name="slash" unicode="/" horiz-adv-x="430" 
d="M50 25l196 662c2 7 10 13 18 13h98c14 0 22 -11 18 -25l-195 -662c-2 -7 -11 -13 -18 -13h-99c-13 0 -22 11 -18 25z" />
    <glyph glyph-name="zero" unicode="0" horiz-adv-x="639" 
d="M319 -10c-168 0 -263 135 -263 360c0 226 95 360 263 360s264 -134 264 -360c0 -225 -96 -360 -264 -360zM319 135c63 0 107 79 107 215c0 135 -44 214 -107 214c-62 0 -106 -79 -106 -214c0 -136 44 -215 106 -215z" />
    <glyph glyph-name="one" unicode="1" horiz-adv-x="391" 
d="M149 20v463h-99c-10 0 -18 9 -18 20v65c0 8 3 12 6 15l134 105c11 8 22 12 36 12h75c10 0 19 -9 19 -19v-661c0 -11 -9 -20 -19 -20h-114c-12 0 -20 9 -20 20z" />
    <glyph glyph-name="two" unicode="2" horiz-adv-x="553" 
d="M289 134v-2h179c11 0 20 -9 20 -20v-92c0 -11 -9 -20 -20 -20h-412c-11 0 -19 9 -19 20v8c0 10 0 12 13 29c66 88 203 274 260 361c13 21 26 49 26 77c0 40 -33 75 -90 75c-42 0 -73 -26 -100 -52c-8 -8 -21 -8 -29 0l-63 64c-7 6 -8 19 -1 27c39 42 104 101 206 101
c147 0 234 -94 234 -208c0 -55 -15 -85 -40 -133c-32 -58 -116 -167 -164 -235z" />
    <glyph glyph-name="three" unicode="3" horiz-adv-x="551" 
d="M45 79c-6 8 -5 19 1 26l60 67c7 7 18 9 26 2c25 -21 60 -47 113 -47c51 0 89 31 89 82s-46 84 -122 84h-58c-10 0 -19 9 -19 19v86c0 11 9 19 19 19h58c72 0 110 34 110 78c0 45 -30 78 -82 78c-46 0 -74 -24 -90 -41c-7 -9 -19 -9 -28 -2l-63 62c-8 7 -7 20 0 27
c36 37 98 91 197 91c120 0 223 -73 223 -189c0 -79 -60 -137 -106 -158v-4c56 -19 124 -71 124 -166c0 -112 -98 -203 -240 -203c-130 0 -190 62 -212 89z" />
    <glyph glyph-name="four" unicode="4" horiz-adv-x="642" 
d="M48 145c-11 0 -20 9 -20 20v89c0 12 0 20 14 37l346 413c3 3 6 6 15 6h74c11 0 20 -9 20 -20v-417h82c12 0 20 -8 20 -19v-89c0 -10 -8 -20 -20 -20h-82v-125c0 -11 -9 -20 -19 -20h-109c-10 0 -19 9 -19 20v125h-302zM189 271v-2h162v195h-2z" />
    <glyph glyph-name="five" unicode="5" horiz-adv-x="567" 
d="M65 75c-14 16 -15 23 -3 35l63 66c7 7 20 7 27 1c39 -32 73 -49 123 -49c55 0 98 41 98 98c0 63 -40 99 -107 99h-158c-21 0 -32 20 -32 37v319c0 10 8 19 19 19h332c11 0 20 -9 20 -19v-91c0 -10 -9 -19 -20 -19h-212v-111h73c142 0 235 -90 235 -228
c0 -135 -110 -242 -255 -242c-107 0 -178 54 -203 85z" />
    <glyph glyph-name="six" unicode="6" horiz-adv-x="581" 
d="M50 269c0 303 251 422 346 450c16 5 27 -2 32 -16l30 -80c4 -12 1 -23 -20 -30c-48 -15 -182 -67 -207 -166c27 12 70 21 98 21c97 0 205 -71 205 -223c0 -130 -107 -236 -236 -236c-159 0 -248 119 -248 280zM197 230c0 -54 45 -99 99 -99c55 0 99 45 99 99
s-44 100 -99 100c-54 0 -99 -46 -99 -100z" />
    <glyph glyph-name="seven" unicode="7" horiz-adv-x="525" 
d="M305 567v2h-237c-11 0 -20 9 -20 19v93c0 10 9 19 20 19h437c10 0 17 -6 17 -15v-4c0 -5 0 -7 -4 -16l-304 -635c-12 -26 -27 -30 -42 -30h-102c-12 0 -21 8 -21 20c0 10 2 16 6 24z" />
    <glyph glyph-name="eight" unicode="8" horiz-adv-x="610" 
d="M54 186c0 91 75 153 126 173v4c-55 31 -106 77 -106 158c0 116 103 189 228 189c131 0 234 -73 234 -189c0 -78 -55 -130 -106 -157v-5c59 -25 126 -84 126 -173c0 -122 -99 -196 -254 -196c-149 0 -248 74 -248 196zM304 431c49 17 74 49 74 84s-28 67 -74 67
c-43 0 -72 -32 -72 -67c0 -37 24 -66 72 -84zM221 194c0 -46 32 -78 85 -78c51 0 83 33 83 78c0 38 -29 76 -85 94c-53 -18 -83 -56 -83 -94z" />
    <glyph glyph-name="nine" unicode="9" horiz-adv-x="582" 
d="M123 77c-4 13 -1 24 20 30c48 16 182 61 207 164c-27 -11 -70 -21 -98 -21c-97 0 -205 72 -205 224c0 130 107 236 236 236c159 0 248 -120 248 -280c0 -303 -238 -418 -346 -448c-16 -5 -27 2 -32 16zM285 369c54 0 99 45 99 100c0 53 -45 99 -99 99
c-55 0 -99 -46 -99 -99c0 -55 44 -100 99 -100z" />
    <glyph glyph-name="colon" unicode=":" horiz-adv-x="279" 
d="M139 289c-50 0 -91 41 -91 91s41 92 91 92c51 0 93 -42 93 -92s-42 -91 -93 -91zM48 81c0 50 41 92 91 92c51 0 93 -42 93 -92c0 -51 -42 -92 -93 -92c-50 0 -91 41 -91 92z" />
    <glyph glyph-name="semicolon" unicode=";" horiz-adv-x="284" 
d="M140 289c-52 0 -91 41 -91 91s39 92 91 92c50 0 92 -42 92 -92s-42 -91 -92 -91zM51 78c0 46 37 81 86 81c51 0 96 -36 96 -118c0 -89 -37 -156 -72 -206c-6 -8 -15 -9 -23 -1l-32 22c-7 6 -5 15 0 24c26 36 49 81 49 122c0 3 0 4 -1 8c-8 -6 -22 -10 -35 -10
c-45 0 -68 36 -68 78z" />
    <glyph glyph-name="less" unicode="&#x3c;" 
d="M101 210c-5 3 -10 11 -10 17v5c0 6 5 14 10 17l350 212c13 8 28 0 28 -16v-87c0 -4 -4 -12 -8 -14l-191 -113l191 -109c4 -2 8 -10 8 -14v-87c0 -16 -15 -24 -28 -16z" />
    <glyph glyph-name="equal" unicode="=" 
d="M130 331c-11 0 -19 9 -19 19v70c0 10 8 19 19 19h339c11 0 19 -9 19 -19v-70c0 -10 -8 -19 -19 -19h-339zM130 120c-11 0 -19 9 -19 19v71c0 10 8 19 19 19h339c11 0 19 -9 19 -19v-71c0 -10 -8 -19 -19 -19h-339z" />
    <glyph glyph-name="greater" unicode="&#x3e;" 
d="M120 21v87c0 4 4 12 8 14l191 109l-191 113c-4 2 -8 10 -8 14v87c0 16 15 24 28 16l350 -212c5 -3 10 -11 10 -17v-5c0 -6 -5 -14 -10 -17l-350 -205c-13 -8 -28 0 -28 16z" />
    <glyph glyph-name="question" unicode="?" horiz-adv-x="512" 
d="M181 272c-10 0 -19 8 -19 19v42c0 84 138 121 138 185c0 31 -32 59 -75 59c-70 0 -89 -63 -114 -41l-61 60c-8 7 -7 19 0 26c0 0 74 88 203 88c106 0 204 -74 204 -175c0 -132 -150 -136 -150 -244c0 -11 -9 -19 -19 -19h-107zM140 84c0 52 43 96 94 96
c52 0 96 -44 96 -96c0 -51 -44 -94 -96 -94c-51 0 -94 43 -94 94z" />
    <glyph glyph-name="at" unicode="@" horiz-adv-x="1031" 
d="M57 223c0 284 199 487 484 487c282 0 444 -181 444 -422c0 -132 -89 -268 -237 -268c-69 0 -102 36 -120 78h-8c-22 -42 -69 -78 -133 -78c-116 0 -184 101 -184 209c0 113 79 211 188 211c56 0 99 -36 123 -62c9 20 15 52 34 52h41c10 0 19 -8 19 -19v-168
c0 -87 30 -98 56 -98c54 0 84 62 84 135c0 173 -103 304 -312 304c-211 0 -347 -139 -347 -361c0 -150 95 -278 230 -333c9 -4 15 -14 12 -23l-30 -82c-4 -10 -13 -16 -23 -12c-183 61 -321 243 -321 450zM427 233c0 -55 34 -85 73 -85c41 0 71 39 71 86c0 50 -30 86 -74 86
c-43 0 -70 -39 -70 -87z" />
    <glyph glyph-name="A" unicode="A" horiz-adv-x="670" 
d="M17 0c-15 0 -23 13 -17 26l313 673c3 6 10 11 17 11h10c7 0 14 -5 17 -11l313 -673c6 -13 -2 -26 -17 -26h-111c-18 0 -26 6 -35 25l-36 79h-272l-36 -80c-5 -12 -16 -24 -36 -24h-110zM259 240h152l-76 165h-1z" />
    <glyph glyph-name="B" unicode="B" horiz-adv-x="610" 
d="M432 357v-1c61 -20 132 -66 132 -163c0 -118 -99 -193 -218 -193h-248c-11 0 -19 9 -19 19v662c0 10 8 19 19 19h233c118 0 215 -81 215 -186c0 -80 -57 -134 -114 -157zM235 416h83c38 0 65 32 65 72s-27 68 -65 68h-83v-140zM235 143h85c50 0 78 25 78 72
c0 40 -27 71 -76 71h-87v-143z" />
    <glyph glyph-name="C" unicode="C" horiz-adv-x="679" 
d="M39 349c0 200 161 361 361 361c100 0 174 -31 242 -93c9 -8 9 -20 1 -28l-78 -81c-7 -7 -18 -7 -25 0c-41 36 -86 51 -135 51c-113 0 -196 -94 -196 -206c0 -111 84 -203 197 -203c55 0 98 17 134 48c7 6 20 6 26 -1l78 -83c7 -7 6 -20 -1 -27c-68 -66 -154 -97 -243 -97
c-200 0 -361 159 -361 359z" />
    <glyph glyph-name="D" unicode="D" horiz-adv-x="732" 
d="M79 19v662c0 10 8 19 18 19h244c193 0 351 -157 351 -349c0 -194 -158 -351 -351 -351h-244c-10 0 -18 9 -18 19zM235 148h105c113 0 186 89 186 203c0 113 -73 202 -186 202h-105v-405z" />
    <glyph glyph-name="E" unicode="E" horiz-adv-x="578" 
d="M79 19v662c0 10 8 19 19 19h414c11 0 19 -9 19 -19v-109c0 -10 -8 -19 -19 -19h-277v-124h228c10 0 19 -9 19 -19v-109c0 -11 -9 -19 -19 -19h-228v-135h277c11 0 19 -9 19 -19v-109c0 -10 -8 -19 -19 -19h-414c-11 0 -19 9 -19 19z" />
    <glyph glyph-name="F" unicode="F" horiz-adv-x="556" 
d="M79 19v662c0 10 8 19 19 19h414c11 0 19 -9 19 -19v-109c0 -10 -8 -19 -19 -19h-277v-144h228c10 0 19 -9 19 -19v-109c0 -10 -9 -19 -19 -19h-228v-243c0 -10 -9 -19 -19 -19h-118c-11 0 -19 9 -19 19z" />
    <glyph glyph-name="G" unicode="G" horiz-adv-x="709" 
d="M39 349c0 200 160 360 359 360c84 0 176 -35 244 -94c9 -7 10 -19 2 -27l-79 -84c-8 -7 -19 -7 -27 -1c-38 35 -82 48 -131 48c-109 0 -197 -92 -197 -202c0 -109 89 -199 198 -199c29 0 59 4 89 16v58h-63c-11 0 -19 8 -19 18v99c0 11 8 19 19 19h201c10 0 18 -9 18 -19
l1 -269c0 -9 -4 -13 -8 -16c0 0 -103 -65 -248 -65c-199 0 -359 158 -359 358z" />
    <glyph glyph-name="H" unicode="H" horiz-adv-x="758" 
d="M79 19v662c0 10 9 19 19 19h119c11 0 19 -9 19 -19v-252h286v252c0 10 8 19 19 19h119c10 0 19 -9 19 -19v-662c0 -10 -9 -19 -19 -19h-119c-11 0 -19 9 -19 19v263h-286v-263c0 -10 -8 -19 -19 -19h-119c-10 0 -19 9 -19 19z" />
    <glyph glyph-name="I" unicode="I" horiz-adv-x="316" 
d="M79 19v662c0 10 9 19 19 19h120c10 0 19 -9 19 -19v-662c0 -10 -9 -19 -19 -19h-120c-10 0 -19 9 -19 19z" />
    <glyph glyph-name="J" unicode="J" horiz-adv-x="450" 
d="M9 63c-5 8 -4 18 2 25l68 67c8 7 19 8 27 0c12 -12 28 -21 51 -21c28 0 59 11 59 66v481c0 10 8 19 19 19h122c11 0 19 -9 19 -19v-482c0 -139 -98 -209 -206 -209c-96 0 -144 52 -161 73z" />
    <glyph glyph-name="K" unicode="K" horiz-adv-x="663" 
d="M79 24v652c0 13 10 24 24 24h117c13 0 24 -11 24 -24v-267l222 281c4 5 13 10 19 10h126c19 0 29 -22 18 -37l-234 -297l255 -328c11 -15 0 -37 -19 -37h-138c-7 0 -16 4 -18 7l-231 310v-294c0 -13 -11 -24 -24 -24h-117c-14 0 -24 11 -24 24z" />
    <glyph glyph-name="L" unicode="L" horiz-adv-x="510" 
d="M79 19v662c0 10 8 19 19 19h119c10 0 19 -9 19 -19v-534h238c11 0 19 -9 19 -19v-109c0 -10 -8 -19 -19 -19h-376c-11 0 -19 9 -19 19z" />
    <glyph glyph-name="M" unicode="M" horiz-adv-x="878" 
d="M42 22l113 672c1 9 10 16 18 16h16c5 0 14 -4 17 -10l232 -432h2l232 432c3 6 12 10 17 10h16c8 0 17 -7 18 -16l113 -672c2 -13 -7 -22 -19 -22h-118c-9 0 -18 8 -19 16l-45 309h-2l-168 -324c-3 -6 -12 -11 -17 -11h-18c-6 0 -14 5 -17 11l-169 324h-2l-44 -309
c-1 -8 -9 -16 -19 -16h-118c-12 0 -21 9 -19 22z" />
    <glyph glyph-name="N" unicode="N" horiz-adv-x="759" 
d="M79 19l-1 673c0 10 9 18 19 18h15c10 0 17 -7 25 -15l384 -369h1v355c0 10 8 19 19 19h120c10 0 19 -9 19 -19v-673c0 -12 -9 -18 -19 -18h-10c-10 0 -17 3 -25 11l-389 391h-1v-373c0 -10 -8 -19 -19 -19h-119c-10 0 -19 9 -19 19z" />
    <glyph glyph-name="O" unicode="O" horiz-adv-x="797" 
d="M39 349c0 200 159 361 359 361s360 -161 360 -361s-160 -359 -360 -359s-359 159 -359 359zM199 349c0 -109 90 -199 199 -199c110 0 200 90 200 199c0 110 -90 201 -200 201c-109 0 -199 -91 -199 -201z" />
    <glyph glyph-name="P" unicode="P" horiz-adv-x="585" 
d="M79 19v662c0 10 8 19 19 19h241c132 0 224 -100 224 -221c0 -124 -92 -225 -223 -225h-105v-235c0 -10 -9 -19 -19 -19h-118c-11 0 -19 9 -19 19zM235 400h101c43 0 73 34 73 79c0 42 -30 74 -73 74h-101v-153z" />
    <glyph glyph-name="Q" unicode="Q" horiz-adv-x="797" 
d="M39 349c0 200 159 361 359 361s360 -161 360 -361c0 -130 -75 -248 -185 -315l129 -202c8 -14 0 -30 -16 -30h-135c-8 0 -13 5 -16 10l-106 179c-12 -1 -24 -1 -31 -1c-200 0 -359 159 -359 359zM199 349c0 -109 90 -199 199 -199c110 0 200 90 200 199
c0 110 -90 201 -200 201c-109 0 -199 -91 -199 -201z" />
    <glyph glyph-name="R" unicode="R" horiz-adv-x="662" 
d="M79 19v662c0 10 8 19 19 19h299c127 0 218 -97 218 -216c0 -92 -55 -166 -148 -201l137 -254c7 -13 0 -29 -17 -29h-133c-8 0 -14 5 -16 9l-133 265h-69v-255c0 -10 -9 -19 -19 -19h-119c-11 0 -19 9 -19 19zM236 401h148c41 0 76 33 76 80s-35 76 -76 76h-148v-156z" />
    <glyph glyph-name="S" unicode="S" horiz-adv-x="553" 
d="M278 -10c-130 0 -202 54 -225 77c-8 8 -11 17 -4 30l46 81c8 13 24 13 34 6c28 -19 79 -55 142 -55c40 0 69 25 69 60c0 42 -37 69 -103 101c-97 47 -194 101 -194 221c0 99 77 199 231 199c104 0 184 -53 214 -75c12 -7 10 -25 6 -32l-51 -77c-7 -11 -24 -19 -44 -7
c-23 16 -82 54 -135 54c-42 0 -61 -26 -61 -55c0 -33 39 -59 109 -93c88 -43 202 -92 202 -228c0 -103 -89 -207 -236 -207z" />
    <glyph glyph-name="T" unicode="T" horiz-adv-x="534" 
d="M188 19v534h-143c-11 0 -19 9 -19 19v109c0 10 8 19 19 19h444c11 0 19 -9 19 -19v-109c0 -10 -8 -19 -19 -19h-143v-534c0 -10 -9 -19 -19 -19h-120c-10 0 -19 9 -19 19z" />
    <glyph glyph-name="U" unicode="U" horiz-adv-x="714" 
d="M72 256v425c0 10 9 19 19 19h123c11 0 19 -9 19 -19v-417c0 -73 52 -114 123 -114c72 0 125 41 125 114v417c0 10 8 19 19 19h123c10 0 19 -9 19 -19v-425c0 -152 -128 -266 -286 -266c-157 0 -284 114 -284 266z" />
    <glyph glyph-name="V" unicode="V" horiz-adv-x="669" 
d="M338 324l165 365c2 5 9 11 17 11h133c15 0 23 -13 17 -26l-314 -673c-3 -6 -9 -11 -17 -11h-10c-8 0 -14 5 -17 11l-312 673c-6 13 2 26 17 26h133c8 0 15 -6 17 -11l165 -365h6z" />
    <glyph glyph-name="W" unicode="W" horiz-adv-x="884" 
d="M207 4l-189 672c-4 14 4 24 18 24h117c8 0 16 -7 18 -14l86 -339h4l155 352c3 6 9 11 17 11h18c9 0 15 -5 17 -11l155 -352h4l86 339c2 7 10 14 18 14h117c14 0 22 -10 18 -24l-189 -672c-2 -8 -10 -14 -18 -14h-16c-7 0 -14 5 -17 11l-183 409h-3l-182 -409
c-3 -6 -10 -11 -17 -11h-16c-8 0 -16 6 -18 14z" />
    <glyph glyph-name="X" unicode="X" horiz-adv-x="645" 
d="M19 28l210 331l-202 313c-8 13 0 28 17 28h146c7 0 13 -5 16 -9l115 -186h1l117 186c2 4 9 9 16 9h146c17 0 26 -15 17 -28l-203 -313l210 -331c9 -14 0 -28 -16 -28h-139c-6 0 -14 4 -17 9l-131 202h-2l-128 -202c-3 -4 -9 -9 -17 -9h-139c-17 0 -26 15 -17 28z" />
    <glyph glyph-name="Y" unicode="Y" horiz-adv-x="602" 
d="M222 19v318l-221 334c-8 13 0 29 16 29h130c8 0 13 -5 16 -9l139 -205l139 205c3 4 7 9 16 9h130c16 0 24 -16 16 -29l-224 -333v-319c0 -10 -9 -19 -19 -19h-119c-11 0 -19 9 -19 19z" />
    <glyph glyph-name="Z" unicode="Z" horiz-adv-x="542" 
d="M23 19v7c0 9 1 15 6 24l260 501v2h-218c-10 0 -19 9 -19 19v109c0 10 9 19 19 19h425c10 0 19 -7 19 -17v-8c0 -6 -1 -9 -6 -19l-251 -507v-2h218c11 0 19 -9 19 -19v-109c0 -10 -8 -19 -19 -19h-434c-10 0 -19 9 -19 19z" />
    <glyph glyph-name="bracketleft" unicode="[" horiz-adv-x="362" 
d="M196 -121h127c10 0 19 -8 19 -18v-81c0 -10 -9 -19 -19 -19h-246c-10 0 -19 9 -19 19v901c0 10 9 19 19 19h246c10 0 19 -9 19 -19v-80c0 -11 -9 -19 -19 -19h-127v-703z" />
    <glyph glyph-name="backslash" unicode="\" horiz-adv-x="430" 
d="M245 13l-195 662c-4 14 4 25 18 25h98c8 0 16 -6 18 -13l196 -662c4 -14 -5 -25 -18 -25h-99c-7 0 -16 6 -18 13z" />
    <glyph glyph-name="bracketright" unicode="]" horiz-adv-x="362" 
d="M39 -121h127v703h-127c-10 0 -19 8 -19 19v80c0 10 9 19 19 19h246c10 0 19 -9 19 -19v-901c0 -10 -9 -19 -19 -19h-246c-10 0 -19 9 -19 19v81c0 10 9 18 19 18z" />
    <glyph glyph-name="asciicircum" unicode="^" horiz-adv-x="524" 
d="M50 378c-16 0 -24 15 -16 28l211 298c3 5 11 10 17 10h5c6 0 14 -5 17 -10l206 -298c8 -13 0 -28 -16 -28h-87c-4 0 -12 4 -14 8l-110 149l-112 -149c-2 -4 -10 -8 -14 -8h-87z" />
    <glyph glyph-name="underscore" unicode="_" horiz-adv-x="585" 
d="M94 -29c0 11 8 19 19 19h359c11 0 19 -8 19 -19v-51c0 -10 -8 -18 -19 -18h-359c-11 0 -19 8 -19 18v51z" />
    <glyph glyph-name="grave" unicode="`" horiz-adv-x="302" 
d="M232 512l-182 82c-8 5 -14 15 -6 30l34 59c5 9 20 7 26 3l170 -104c5 -4 10 -11 6 -19l-21 -42c-5 -10 -14 -17 -27 -9z" />
    <glyph glyph-name="a" unicode="a" horiz-adv-x="489" 
d="M29 141c0 89 65 154 170 154c52 0 91 -20 91 -20c0 45 -10 71 -64 71c-32 0 -86 -7 -116 -16c-18 -6 -26 7 -28 24l-11 71c-3 20 8 29 18 32c11 4 92 15 154 15c143 0 193 -58 193 -195v-255c0 -12 -11 -22 -22 -22h-49c-7 0 -15 2 -21 15l-15 31
c-28 -24 -67 -57 -140 -57c-91 0 -160 60 -160 152zM178 152c0 -28 23 -51 51 -51s52 23 52 51c0 27 -24 51 -52 51s-51 -24 -51 -51z" />
    <glyph glyph-name="b" unicode="b" horiz-adv-x="576" 
d="M57 22v656c0 11 10 22 22 22h108c12 0 22 -11 22 -22v-236c15 12 60 30 107 30c123 0 229 -78 229 -241c0 -132 -98 -242 -228 -242c-102 0 -156 72 -156 72l-13 -38c-4 -13 -13 -23 -24 -23h-45c-12 0 -22 10 -22 22zM198 232c0 -57 41 -98 98 -98c55 0 97 41 97 98
c0 56 -42 96 -97 96c-57 0 -98 -40 -98 -96z" />
    <glyph glyph-name="c" unicode="c" horiz-adv-x="481" 
d="M29 231c0 136 113 241 245 241c73 0 129 -29 173 -81c9 -11 5 -24 -6 -33l-65 -63c-5 -5 -17 -6 -26 2c-19 17 -42 33 -71 33c-53 0 -98 -47 -98 -99c0 -56 43 -99 96 -99c43 0 63 18 83 38c8 10 20 12 26 4l65 -56c10 -10 16 -21 8 -33c-43 -64 -103 -96 -186 -96
c-132 0 -244 103 -244 242z" />
    <glyph glyph-name="d" unicode="d" horiz-adv-x="576" 
d="M31 231c0 163 106 241 229 241c45 0 92 -14 107 -26v232c0 11 10 22 22 22h108c12 0 22 -11 22 -22v-656c0 -12 -10 -22 -22 -22h-45c-11 0 -20 10 -24 23l-13 38s-54 -72 -156 -72c-130 0 -228 110 -228 242zM184 232c0 -57 43 -100 98 -100c57 0 98 43 98 100
c0 56 -41 98 -98 98c-55 0 -98 -42 -98 -98z" />
    <glyph glyph-name="e" unicode="e" horiz-adv-x="513" 
d="M30 231c0 130 103 241 240 241c117 0 219 -89 219 -216c0 -7 -1 -23 -2 -30c-1 -12 -12 -20 -22 -20h-285c0 -36 33 -80 96 -80c30 0 68 15 88 29c10 9 22 9 29 0l51 -67c7 -9 9 -23 -1 -33c-40 -41 -98 -66 -171 -66c-138 0 -242 99 -242 242zM197 294h136
c-2 31 -28 57 -67 57c-38 0 -63 -26 -69 -57z" />
    <glyph glyph-name="f" unicode="f" horiz-adv-x="400" 
d="M93 22v303h-40c-13 0 -22 10 -22 22v93c0 13 9 22 22 22h40v38c0 124 65 210 199 210c60 0 121 -25 141 -44c7 -5 9 -17 4 -26l-49 -86c-5 -8 -16 -11 -25 -6c-15 9 -37 18 -60 18c-52 0 -58 -29 -58 -66v-38h116c12 0 22 -9 22 -22v-93c0 -12 -10 -22 -22 -22h-116v-303
c0 -12 -11 -22 -23 -22h-107c-11 0 -22 10 -22 22z" />
    <glyph glyph-name="g" unicode="g" horiz-adv-x="575" 
d="M519 440v-425c0 -167 -108 -246 -247 -246c-69 0 -149 31 -172 50c-7 6 -9 16 -5 26l35 84c4 9 17 15 27 9c22 -13 60 -37 112 -37c57 0 98 22 98 92v24c-15 -12 -64 -28 -107 -28c-123 0 -229 80 -229 243c0 132 98 240 228 240c102 0 156 -71 156 -71l13 38
c4 12 13 23 24 23h45c12 0 22 -11 22 -22zM184 231c0 -56 43 -99 98 -99c57 0 98 43 98 99c0 55 -41 99 -98 99c-55 0 -98 -44 -98 -99z" />
    <glyph glyph-name="h" unicode="h" horiz-adv-x="549" 
d="M57 22v656c0 11 10 22 22 22h108c12 0 22 -11 22 -22v-239c32 22 64 33 98 33c145 0 191 -106 191 -234v-216c0 -12 -11 -22 -22 -22h-108c-13 0 -22 10 -22 22v218c0 52 -19 90 -69 90c-37 0 -68 -20 -68 -90v-218c0 -15 -5 -22 -25 -22h-105c-12 0 -22 10 -22 22z" />
    <glyph glyph-name="i" unicode="i" horiz-adv-x="264" 
d="M56 22v418c0 13 10 22 22 22h108c12 0 22 -9 22 -22v-418c0 -12 -10 -22 -22 -22h-108c-12 0 -22 10 -22 22zM131 526c-48 0 -86 39 -86 86c0 48 38 88 86 88s87 -40 87 -88c0 -47 -39 -86 -87 -86z" />
    <glyph glyph-name="j" unicode="j" horiz-adv-x="266" 
d="M133 526c-48 0 -86 39 -86 86c0 48 38 88 86 88s87 -40 87 -88c0 -47 -39 -86 -87 -86zM209 440v-444c0 -142 -81 -218 -170 -241c-28 -7 -41 -2 -49 17l-29 73c-8 21 6 30 16 34c41 16 80 44 80 105v456c0 13 10 22 22 22h108c12 0 22 -9 22 -22z" />
    <glyph glyph-name="k" unicode="k" horiz-adv-x="537" 
d="M57 22v656c0 11 10 22 22 22h108c12 0 22 -11 22 -22v-391l130 161c7 7 16 14 29 14h123c20 0 31 -21 18 -36l-154 -178l163 -213c12 -15 3 -35 -17 -35h-138c-4 0 -12 4 -16 9l-138 201v-188c0 -12 -10 -22 -22 -22h-108c-12 0 -22 10 -22 22z" />
    <glyph glyph-name="l" unicode="l" horiz-adv-x="266" 
d="M57 22v656c0 11 10 22 22 22h108c12 0 22 -11 22 -22v-656c0 -12 -10 -22 -22 -22h-108c-12 0 -22 10 -22 22z" />
    <glyph glyph-name="m" unicode="m" horiz-adv-x="826" 
d="M56 22v418c0 13 9 22 22 22h44c8 0 16 -5 19 -13l19 -47c30 30 68 70 143 70c64 0 95 -24 137 -70c24 26 67 70 146 70c142 0 189 -103 189 -234v-216c0 -12 -10 -22 -22 -22h-108c-13 0 -22 10 -22 22v223c0 47 -14 85 -68 85c-40 0 -65 -32 -65 -77v-231
c0 -12 -8 -22 -21 -22h-109c-12 0 -22 10 -22 22v223c0 47 -8 85 -59 85c-47 0 -71 -32 -71 -79v-229c0 -12 -11 -22 -22 -22h-108c-13 0 -22 10 -22 22z" />
    <glyph glyph-name="n" unicode="n" horiz-adv-x="549" 
d="M56 22v418c0 13 10 22 22 22h45c7 0 16 -5 21 -14l17 -46c25 28 60 70 144 70c144 0 193 -102 193 -229v-221c0 -12 -10 -22 -21 -22h-109c-13 0 -22 10 -22 22v223c0 44 -15 85 -67 85c-46 0 -70 -32 -70 -79v-229c0 -10 -5 -22 -21 -22h-110c-12 0 -22 10 -22 22z" />
    <glyph glyph-name="o" unicode="o" horiz-adv-x="539" 
d="M29 232c0 130 109 240 241 240s240 -110 240 -240c0 -132 -108 -243 -240 -243s-241 111 -241 243zM173 232c0 -54 43 -100 97 -100c53 0 96 46 96 100c0 53 -43 98 -96 98c-54 0 -97 -45 -97 -98z" />
    <glyph glyph-name="p" unicode="p" horiz-adv-x="575" 
d="M209 16v-232c0 -12 -10 -22 -22 -22h-108c-12 0 -22 10 -22 22v656c0 11 10 22 22 22h45c11 0 20 -11 24 -23l13 -38s54 71 156 71c130 0 227 -108 227 -240c0 -163 -105 -243 -228 -243c-45 0 -92 16 -107 27zM196 231c0 -56 41 -99 98 -99c55 0 98 43 98 99
c0 55 -43 99 -98 99c-57 0 -98 -44 -98 -99z" />
    <glyph glyph-name="g.alt" horiz-adv-x="541" 
d="M15 83c0 92 92 111 92 111s-34 38 -34 96c0 107 92 182 204 182h218c13 0 23 -9 23 -22v-47c0 -8 -7 -16 -13 -20l-67 -24s44 -19 44 -95c0 -85 -78 -156 -201 -156h-87c-24 0 -37 -9 -37 -23c0 -18 18 -23 36 -23h143c116 0 198 -46 198 -155c0 -104 -87 -156 -259 -156
s-242 45 -242 119c0 69 58 88 71 95v3c-16 5 -89 24 -89 115zM217 279c0 -37 28 -51 64 -51c38 0 64 14 64 51s-26 51 -64 51c-36 0 -64 -14 -64 -51zM171 -93c0 -28 39 -34 104 -34c67 0 102 7 102 34c0 16 -15 28 -57 28h-92c-33 0 -57 -8 -57 -28z" />
    <glyph glyph-name="r" unicode="r" horiz-adv-x="382" 
d="M56 22v418c0 13 10 22 22 22h48c12 0 18 -6 21 -14l21 -51c20 37 55 75 115 75c42 0 73 -11 90 -24c8 -6 8 -16 3 -25l-46 -91c-5 -9 -13 -16 -26 -11c-8 3 -25 7 -35 7c-35 0 -61 -25 -61 -64v-242c0 -14 -8 -22 -25 -22h-105c-12 0 -22 10 -22 22z" />
    <glyph glyph-name="s" unicode="s" horiz-adv-x="431" 
d="M212 -11c-75 0 -135 20 -165 38c-10 6 -13 14 -8 24l37 76c3 8 14 15 24 10c37 -18 72 -29 114 -29c30 0 35 11 35 22c0 15 -25 27 -79 48c-89 35 -135 76 -135 150c0 83 55 144 175 144c60 0 123 -17 158 -35c12 -6 18 -18 12 -30l-36 -74c-3 -8 -15 -12 -24 -8
c-31 15 -71 28 -108 28c-26 0 -33 -7 -33 -19s19 -22 52 -34c93 -34 169 -71 169 -164c0 -80 -65 -147 -188 -147z" />
    <glyph glyph-name="t" unicode="t" horiz-adv-x="392" 
d="M85 150v175h-38c-11 0 -20 10 -20 22v93c0 13 9 22 20 22h38v128c0 12 10 22 22 22h110c11 0 20 -10 20 -22v-128h93c12 0 22 -9 22 -22v-93c0 -12 -10 -22 -22 -22h-93v-161c0 -22 11 -32 31 -32c16 0 46 7 57 10c12 3 23 -2 26 -14l20 -87c3 -14 -2 -20 -15 -26
c-31 -13 -83 -26 -132 -26c-88 0 -139 56 -139 161z" />
    <glyph glyph-name="u" unicode="u" horiz-adv-x="537" 
d="M52 209v231c0 13 10 22 21 22h109c12 0 22 -9 22 -22v-228c0 -52 15 -80 62 -80c45 0 63 31 63 72v236c0 19 14 22 25 22h105c12 0 22 -9 22 -22v-418c0 -12 -10 -22 -22 -22h-46c-10 0 -18 8 -22 16l-16 43c-28 -29 -77 -70 -146 -70c-135 0 -177 89 -177 220z" />
    <glyph glyph-name="v" unicode="v" horiz-adv-x="485" 
d="M219 1l-208 429c-7 16 3 32 20 32h109c9 0 18 -5 21 -13l79 -187h3l83 187c6 14 15 13 31 13h96c18 0 29 -16 20 -32l-209 -429c-3 -6 -13 -12 -20 -12h-6c-7 0 -15 6 -19 12z" />
    <glyph glyph-name="w" unicode="w" horiz-adv-x="721" 
d="M168 3l-153 431c-5 15 4 28 21 28h99c7 0 18 -5 21 -14l67 -192h1l113 207c2 4 8 9 18 9h11c9 0 16 -4 18 -9l114 -207h1l66 192c4 11 11 14 23 14h97c16 0 26 -14 21 -28l-153 -431c-3 -8 -12 -14 -21 -14h-5c-5 0 -16 5 -18 10l-149 249h-1l-147 -249
c-3 -5 -13 -10 -18 -10h-6c-8 0 -17 6 -20 14z" />
    <glyph glyph-name="x" unicode="x" horiz-adv-x="531" 
d="M39 0c-19 0 -27 20 -17 35l145 200l-141 192c-11 15 -2 35 18 35h127c9 0 17 -4 19 -9l74 -118h4l75 118c2 5 7 9 19 9h127c20 0 29 -20 18 -35l-141 -190l142 -202c10 -15 1 -35 -18 -35h-125c-8 0 -14 5 -17 10l-80 121h-4c-23 -32 -64 -94 -84 -122
c-3 -5 -10 -9 -19 -9h-122z" />
    <glyph glyph-name="y" unicode="y" horiz-adv-x="495" 
d="M155 35l-137 397c-5 15 2 30 19 30h119c8 0 16 -5 18 -13l63 -245h2l89 245c3 8 11 13 20 13h114c18 0 27 -14 20 -30l-273 -656c-3 -7 -11 -14 -19 -14h-112c-17 0 -26 15 -19 31z" />
    <glyph glyph-name="z" unicode="z" horiz-adv-x="420" 
d="M52 0c-12 0 -22 10 -22 22c0 9 0 12 7 26l144 273v2h-119c-11 0 -21 10 -21 22v95c0 13 10 22 21 22h313c17 0 28 -15 19 -32l-155 -290v-2h113c12 0 22 -9 22 -22v-94c0 -12 -10 -22 -22 -22h-300z" />
    <glyph glyph-name="braceleft" unicode="{" horiz-adv-x="392" 
d="M98 23v94c0 45 -45 59 -69 64c-8 1 -15 10 -15 18v58c0 8 7 16 13 18c0 0 71 23 71 64v99c0 239 147 265 250 271c11 1 19 -6 20 -17l5 -85c0 -8 -7 -17 -14 -19c-70 -18 -110 -52 -110 -150v-79c0 -79 -85 -128 -85 -128v-4c26 -11 85 -48 85 -120v-84
c0 -98 40 -132 110 -150c7 -2 14 -11 14 -19l-5 -85c-1 -10 -10 -18 -20 -17c-103 6 -250 32 -250 271z" />
    <glyph glyph-name="bar" unicode="|" horiz-adv-x="170" 
d="M58 -220v961c0 11 9 19 19 19h17c10 0 18 -8 18 -19v-961c0 -10 -9 -18 -19 -18h-16c-10 0 -19 8 -19 18z" />
    <glyph glyph-name="braceright" unicode="}" horiz-adv-x="392" 
d="M294 117v-94c0 -239 -147 -265 -250 -271c-10 -1 -19 7 -20 17l-5 85c0 8 7 17 14 19c70 18 110 52 110 150v84c0 72 59 109 85 120v4s-85 49 -85 128v79c0 98 -40 132 -110 150c-7 2 -14 11 -14 19l5 85c1 11 9 18 20 17c103 -6 250 -32 250 -271v-99
c0 -41 71 -64 71 -64c6 -2 13 -10 13 -18v-58c0 -8 -7 -17 -15 -18c-24 -5 -69 -19 -69 -64z" />
    <glyph glyph-name="asciitilde" unicode="~" horiz-adv-x="538" 
d="M91 172l-61 63c-6 7 -8 17 -2 24c0 0 70 102 158 102c41 0 69 -20 98 -39c22 -14 44 -31 73 -31c27 0 50 29 64 49c8 10 20 10 29 1l58 -61c6 -7 8 -18 2 -25c0 0 -68 -101 -154 -101c-50 0 -79 22 -112 44c-19 12 -37 24 -60 24c-28 0 -51 -28 -64 -48
c-8 -10 -21 -11 -29 -2z" />
    <glyph glyph-name="uni00A0" unicode="&#xa0;" horiz-adv-x="240" 
 />
    <glyph glyph-name="Agrave" unicode="&#xc0;" horiz-adv-x="670" 
d="M17 0c-15 0 -23 13 -17 26l313 673c3 6 10 11 17 11h10c7 0 14 -5 17 -11l313 -673c6 -13 -2 -26 -17 -26h-111c-18 0 -26 6 -35 25l-36 79h-272l-36 -80c-5 -12 -16 -24 -36 -24h-110zM259 240h152l-76 165h-1zM406 762l-182 82c-8 5 -14 15 -6 30l34 59c5 9 20 7 26 3
l170 -104c5 -4 10 -11 6 -19l-21 -42c-5 -10 -14 -17 -27 -9z" />
    <glyph glyph-name="Aacute" unicode="&#xc1;" horiz-adv-x="670" 
d="M17 0c-15 0 -23 13 -17 26l313 673c3 6 10 11 17 11h10c7 0 14 -5 17 -11l313 -673c6 -13 -2 -26 -17 -26h-111c-18 0 -26 6 -35 25l-36 79h-272l-36 -80c-5 -12 -16 -24 -36 -24h-110zM259 240h152l-76 165h-1zM264 762c-13 -8 -22 -1 -27 9l-21 42c-4 8 1 15 6 19
l170 104c6 4 21 6 26 -3l34 -59c8 -15 2 -25 -6 -30z" />
    <glyph glyph-name="Acircumflex" unicode="&#xc2;" horiz-adv-x="670" 
d="M17 0c-15 0 -23 13 -17 26l313 673c3 6 10 11 17 11h10c7 0 14 -5 17 -11l313 -673c6 -13 -2 -26 -17 -26h-111c-18 0 -26 6 -35 25l-36 79h-272l-36 -80c-5 -12 -16 -24 -36 -24h-110zM259 240h152l-76 165h-1zM236 762c-11 -6 -16 -4 -22 4l-33 47c-5 7 1 15 6 19
l135 104c8 6 18 4 24 0l138 -104c5 -4 10 -11 6 -19l-34 -46c-5 -7 -14 -9 -21 -5l-99 58z" />
    <glyph glyph-name="Atilde" unicode="&#xc3;" horiz-adv-x="670" 
d="M17 0c-15 0 -23 13 -17 26l313 673c3 6 10 11 17 11h10c7 0 14 -5 17 -11l313 -673c6 -13 -2 -26 -17 -26h-111c-18 0 -26 6 -35 25l-36 79h-272l-36 -80c-5 -12 -16 -24 -36 -24h-110zM259 240h152l-76 165h-1zM218 785l-35 28c-7 5 -9 16 -6 23c10 18 53 84 107 84
c48 0 69 -47 108 -47c16 0 31 20 38 31c5 8 15 11 25 2l34 -26c8 -6 9 -17 1 -29c-10 -17 -47 -78 -100 -78c-52 0 -76 48 -110 48c-18 0 -31 -25 -40 -35c-6 -6 -13 -7 -22 -1z" />
    <glyph glyph-name="Adieresis" unicode="&#xc4;" horiz-adv-x="670" 
d="M17 0c-15 0 -23 13 -17 26l313 673c3 6 10 11 17 11h10c7 0 14 -5 17 -11l313 -673c6 -13 -2 -26 -17 -26h-111c-18 0 -26 6 -35 25l-36 79h-272l-36 -80c-5 -12 -16 -24 -36 -24h-110zM259 240h152l-76 165h-1zM467 763c-42 0 -75 34 -75 76s33 75 75 75s76 -33 76 -75
s-34 -76 -76 -76zM202 763c-42 0 -75 34 -75 76s33 75 75 75s76 -33 76 -75s-34 -76 -76 -76z" />
    <glyph glyph-name="Amacron" unicode="&#x100;" horiz-adv-x="670" 
d="M17 0c-15 0 -23 13 -17 26l313 673c3 6 10 11 17 11h10c7 0 14 -5 17 -11l313 -673c6 -13 -2 -26 -17 -26h-111c-18 0 -26 6 -35 25l-36 79h-272l-36 -80c-5 -12 -16 -24 -36 -24h-110zM259 240h152l-76 165h-1zM207 801c-11 0 -19 8 -19 18v41c0 11 8 19 19 19h256
c11 0 19 -8 19 -19v-41c0 -10 -8 -18 -19 -18h-256z" />
    <glyph glyph-name="Abreve" unicode="&#x102;" horiz-adv-x="670" 
d="M17 0c-15 0 -23 13 -17 26l313 673c3 6 10 11 17 11h10c7 0 14 -5 17 -11l313 -673c6 -13 -2 -26 -17 -26h-111c-18 0 -26 6 -35 25l-36 79h-272l-36 -80c-5 -12 -16 -24 -36 -24h-110zM259 240h152l-76 165h-1zM335 763c-74 0 -132 52 -142 120c-2 12 6 22 19 22h45
c8 0 15 -6 17 -12c9 -27 32 -48 61 -48c26 0 50 24 59 48c2 7 10 12 17 12h47c12 0 20 -10 19 -22c-11 -68 -69 -120 -142 -120z" />
    <glyph glyph-name="Aring" unicode="&#xc5;" horiz-adv-x="670" 
d="M17 0c-15 0 -23 13 -17 26l313 673c3 6 10 11 17 11h10c7 0 14 -5 17 -11l313 -673c6 -13 -2 -26 -17 -26h-111c-18 0 -26 6 -35 25l-36 79h-272l-36 -80c-5 -12 -16 -24 -36 -24h-110zM259 240h152l-76 165h-1zM335 752c-64 0 -115 51 -115 115s51 115 115 115
c63 0 115 -51 115 -115s-52 -115 -115 -115zM335 823c23 0 43 21 43 44s-20 43 -43 43s-44 -20 -44 -43s21 -44 44 -44z" />
    <glyph glyph-name="Aringacute" unicode="&#x1fa;" horiz-adv-x="672" 
d="M265 875c-13 -8 -22 -1 -27 9l-21 42c-4 8 1 15 6 19l170 104c6 4 21 6 26 -3l34 -59c8 -15 2 -25 -6 -30zM18 0c-15 0 -23 13 -17 26l291 626c-42 17 -71 58 -71 107c0 64 51 115 115 115c63 0 115 -51 115 -115c0 -49 -30 -90 -72 -107l292 -626c6 -13 -2 -26 -17 -26
h-111c-18 0 -26 6 -35 25l-36 79h-272l-36 -80c-5 -12 -16 -24 -36 -24h-110zM336 715c23 0 43 21 43 44s-20 43 -43 43s-44 -20 -44 -43s21 -44 44 -44zM260 240h152l-76 165h-1z" />
    <glyph glyph-name="Aogonek" unicode="&#x104;" horiz-adv-x="670" 
d="M17 0c-15 0 -23 13 -17 26l313 673c3 6 10 11 17 11h10c7 0 14 -5 17 -11l313 -673c6 -13 -2 -26 -17 -26h-40c-29 -21 -89 -73 -89 -118c0 -28 14 -37 34 -37c26 0 52 21 60 29c9 9 22 4 22 -8v-57c0 -13 -3 -25 -16 -34c-17 -11 -52 -24 -92 -24
c-72 0 -108 48 -108 107c0 72 59 119 93 145l-46 101h-272l-36 -80c-5 -12 -16 -24 -36 -24h-110zM259 240h152l-76 165h-1z" />
    <glyph glyph-name="AE" unicode="&#xc6;" horiz-adv-x="899" 
d="M-1 0c-15 0 -20 13 -12 26l401 643c13 20 18 31 44 31h401c11 0 19 -9 19 -19v-109c0 -10 -8 -19 -19 -19h-277v-124h228c10 0 19 -9 19 -19v-109c0 -11 -9 -19 -19 -19h-228v-135h277c11 0 19 -9 19 -19v-109c0 -10 -8 -19 -19 -19h-414c-11 0 -19 9 -19 19v85h-184
l-53 -87c-7 -12 -14 -17 -29 -17h-135zM290 240h110v177z" />
    <glyph glyph-name="AEacute" unicode="&#x1fc;" horiz-adv-x="899" 
d="M-1 0c-15 0 -20 13 -12 26l401 643c13 20 18 31 44 31h401c11 0 19 -9 19 -19v-109c0 -10 -8 -19 -19 -19h-277v-124h228c10 0 19 -9 19 -19v-109c0 -11 -9 -19 -19 -19h-228v-135h277c11 0 19 -9 19 -19v-109c0 -10 -8 -19 -19 -19h-414c-11 0 -19 9 -19 19v85h-184
l-53 -87c-7 -12 -14 -17 -29 -17h-135zM290 240h110v177zM538 763c-13 -8 -22 -1 -27 9l-21 42c-4 8 1 15 6 19l170 104c6 4 21 6 26 -3l34 -59c8 -15 2 -25 -6 -30z" />
    <glyph glyph-name="Cacute" unicode="&#x106;" horiz-adv-x="679" 
d="M39 349c0 200 161 361 361 361c100 0 174 -31 242 -93c9 -8 9 -20 1 -28l-78 -81c-7 -7 -18 -7 -25 0c-41 36 -86 51 -135 51c-113 0 -196 -94 -196 -206c0 -111 84 -203 197 -203c55 0 98 17 134 48c7 6 20 6 26 -1l78 -83c7 -7 6 -20 -1 -27c-68 -66 -154 -97 -243 -97
c-200 0 -361 159 -361 359zM330 762c-13 -8 -22 -1 -27 9l-21 42c-4 8 1 15 6 19l170 104c6 4 21 6 26 -3l34 -59c8 -15 2 -25 -6 -30z" />
    <glyph glyph-name="Ccircumflex" unicode="&#x108;" horiz-adv-x="679" 
d="M39 349c0 200 161 361 361 361c100 0 174 -31 242 -93c9 -8 9 -20 1 -28l-78 -81c-7 -7 -18 -7 -25 0c-41 36 -86 51 -135 51c-113 0 -196 -94 -196 -206c0 -111 84 -203 197 -203c55 0 98 17 134 48c7 6 20 6 26 -1l78 -83c7 -7 6 -20 -1 -27c-68 -66 -154 -97 -243 -97
c-200 0 -361 159 -361 359zM302 762c-11 -6 -16 -4 -22 4l-33 47c-5 7 1 15 6 19l135 104c8 6 18 4 24 0l138 -104c5 -4 10 -11 6 -19l-34 -46c-5 -7 -14 -9 -21 -5l-99 58z" />
    <glyph glyph-name="Ccaron" unicode="&#x10c;" horiz-adv-x="679" 
d="M39 349c0 200 161 361 361 361c100 0 174 -31 242 -93c9 -8 9 -20 1 -28l-78 -81c-7 -7 -18 -7 -25 0c-41 36 -86 51 -135 51c-113 0 -196 -94 -196 -206c0 -111 84 -203 197 -203c55 0 98 17 134 48c7 6 20 6 26 -1l78 -83c7 -7 6 -20 -1 -27c-68 -66 -154 -97 -243 -97
c-200 0 -361 159 -361 359zM390 762l-138 104c-5 4 -10 11 -6 19l34 46c5 7 14 9 21 5l99 -58l100 58c11 6 16 4 22 -4l33 -47c5 -7 -1 -15 -6 -19l-135 -104c-8 -6 -18 -4 -24 0z" />
    <glyph glyph-name="Cdotaccent" unicode="&#x10a;" horiz-adv-x="679" 
d="M39 349c0 200 161 361 361 361c100 0 174 -31 242 -93c9 -8 9 -20 1 -28l-78 -81c-7 -7 -18 -7 -25 0c-41 36 -86 51 -135 51c-113 0 -196 -94 -196 -206c0 -111 84 -203 197 -203c55 0 98 17 134 48c7 6 20 6 26 -1l78 -83c7 -7 6 -20 -1 -27c-68 -66 -154 -97 -243 -97
c-200 0 -361 159 -361 359zM401 766c-48 0 -86 39 -86 86c0 48 38 88 86 88s87 -40 87 -88c0 -47 -39 -86 -87 -86z" />
    <glyph glyph-name="Ccedilla" unicode="&#xc7;" horiz-adv-x="679" 
d="M39 349c0 200 161 361 361 361c100 0 174 -31 242 -93c9 -8 9 -20 1 -28l-78 -81c-7 -7 -18 -7 -25 0c-37 33 -86 51 -135 51c-113 0 -196 -94 -196 -206c0 -111 84 -203 197 -203c47 0 98 17 134 48c7 6 20 6 26 -1l78 -83c7 -7 6 -20 -1 -27c-63 -61 -141 -92 -223 -96
l-30 -48c6 1 11 1 15 1c45 0 90 -24 90 -88c0 -68 -57 -105 -125 -105c-39 0 -67 10 -84 24c-9 8 -7 18 -1 31l10 23c7 16 17 19 30 10c5 -4 22 -13 40 -13c25 0 42 10 42 33s-17 33 -42 33c-17 0 -28 -6 -36 -9c-11 -4 -25 9 -20 19l42 91c-177 23 -312 172 -312 356z" />
    <glyph glyph-name="Dcaron" unicode="&#x10e;" horiz-adv-x="732" 
d="M79 19v662c0 10 8 19 18 19h244c193 0 351 -157 351 -349c0 -194 -158 -351 -351 -351h-244c-10 0 -18 9 -18 19zM235 148h105c113 0 186 89 186 203c0 113 -73 202 -186 202h-105v-405zM308 762l-138 104c-5 4 -10 11 -6 19l34 46c5 7 14 9 21 5l99 -58l100 58
c11 6 16 4 22 -4l33 -47c5 -7 -1 -15 -6 -19l-135 -104c-8 -6 -18 -4 -24 0z" />
    <glyph glyph-name="Dcroat" unicode="&#x110;" horiz-adv-x="732" 
d="M79 19v300h-29c-10 0 -18 9 -18 19v17c0 10 8 19 18 19h29v307c0 10 8 19 18 19h244c193 0 351 -157 351 -349c0 -194 -158 -351 -351 -351h-244c-10 0 -18 9 -18 19zM235 148h96c113 0 195 89 195 203c0 113 -82 202 -195 202h-96v-179h142c11 0 19 -9 19 -19v-18
c0 -10 -8 -18 -19 -18h-142v-171z" />
    <glyph glyph-name="Eth" unicode="&#xd0;" horiz-adv-x="732" 
d="M79 19v300h-29c-10 0 -18 9 -18 19v17c0 10 8 19 18 19h29v307c0 10 8 19 18 19h244c193 0 351 -157 351 -349c0 -194 -158 -351 -351 -351h-244c-10 0 -18 9 -18 19zM235 148h96c113 0 195 89 195 203c0 113 -82 202 -195 202h-96v-179h142c11 0 19 -9 19 -19v-18
c0 -10 -8 -18 -19 -18h-142v-171z" />
    <glyph glyph-name="Egrave" unicode="&#xc8;" horiz-adv-x="578" 
d="M79 19v662c0 10 8 19 19 19h414c11 0 19 -9 19 -19v-109c0 -10 -8 -19 -19 -19h-277v-124h228c10 0 19 -9 19 -19v-109c0 -11 -9 -19 -19 -19h-228v-135h277c11 0 19 -9 19 -19v-109c0 -10 -8 -19 -19 -19h-414c-11 0 -19 9 -19 19zM381 762l-182 82c-8 5 -14 15 -6 30
l34 59c5 9 20 7 26 3l170 -104c5 -4 10 -11 6 -19l-21 -42c-5 -10 -14 -17 -27 -9z" />
    <glyph glyph-name="Eacute" unicode="&#xc9;" horiz-adv-x="578" 
d="M79 19v662c0 10 8 19 19 19h414c11 0 19 -9 19 -19v-109c0 -10 -8 -19 -19 -19h-277v-124h228c10 0 19 -9 19 -19v-109c0 -11 -9 -19 -19 -19h-228v-135h277c11 0 19 -9 19 -19v-109c0 -10 -8 -19 -19 -19h-414c-11 0 -19 9 -19 19zM239 762c-13 -8 -22 -1 -27 9l-21 42
c-4 8 1 15 6 19l170 104c6 4 21 6 26 -3l34 -59c8 -15 2 -25 -6 -30z" />
    <glyph glyph-name="Ecircumflex" unicode="&#xca;" horiz-adv-x="578" 
d="M79 19v662c0 10 8 19 19 19h414c11 0 19 -9 19 -19v-109c0 -10 -8 -19 -19 -19h-277v-124h228c10 0 19 -9 19 -19v-109c0 -11 -9 -19 -19 -19h-228v-135h277c11 0 19 -9 19 -19v-109c0 -10 -8 -19 -19 -19h-414c-11 0 -19 9 -19 19zM211 762c-11 -6 -16 -4 -22 4l-33 47
c-5 7 1 15 6 19l135 104c8 6 18 4 24 0l138 -104c5 -4 10 -11 6 -19l-34 -46c-5 -7 -14 -9 -21 -5l-99 58z" />
    <glyph glyph-name="Ecaron" unicode="&#x11a;" horiz-adv-x="578" 
d="M79 19v662c0 10 8 19 19 19h414c11 0 19 -9 19 -19v-109c0 -10 -8 -19 -19 -19h-277v-124h228c10 0 19 -9 19 -19v-109c0 -11 -9 -19 -19 -19h-228v-135h277c11 0 19 -9 19 -19v-109c0 -10 -8 -19 -19 -19h-414c-11 0 -19 9 -19 19zM299 762l-138 104c-5 4 -10 11 -6 19
l34 46c5 7 14 9 21 5l99 -58l100 58c11 6 16 4 22 -4l33 -47c5 -7 -1 -15 -6 -19l-135 -104c-8 -6 -18 -4 -24 0z" />
    <glyph glyph-name="Edieresis" unicode="&#xcb;" horiz-adv-x="578" 
d="M79 19v662c0 10 8 19 19 19h414c11 0 19 -9 19 -19v-109c0 -10 -8 -19 -19 -19h-277v-124h228c10 0 19 -9 19 -19v-109c0 -11 -9 -19 -19 -19h-228v-135h277c11 0 19 -9 19 -19v-109c0 -10 -8 -19 -19 -19h-414c-11 0 -19 9 -19 19zM439 763c-42 0 -75 34 -75 76
s33 75 75 75s76 -33 76 -75s-34 -76 -76 -76zM174 763c-42 0 -75 34 -75 76s33 75 75 75s76 -33 76 -75s-34 -76 -76 -76z" />
    <glyph glyph-name="Emacron" unicode="&#x112;" horiz-adv-x="578" 
d="M79 19v662c0 10 8 19 19 19h414c11 0 19 -9 19 -19v-109c0 -10 -8 -19 -19 -19h-277v-124h228c10 0 19 -9 19 -19v-109c0 -11 -9 -19 -19 -19h-228v-135h277c11 0 19 -9 19 -19v-109c0 -10 -8 -19 -19 -19h-414c-11 0 -19 9 -19 19zM182 801c-11 0 -19 8 -19 18v41
c0 11 8 19 19 19h256c11 0 19 -8 19 -19v-41c0 -10 -8 -18 -19 -18h-256z" />
    <glyph glyph-name="Ebreve" unicode="&#x114;" horiz-adv-x="578" 
d="M79 19v662c0 10 8 19 19 19h414c11 0 19 -9 19 -19v-109c0 -10 -8 -19 -19 -19h-277v-124h228c10 0 19 -9 19 -19v-109c0 -11 -9 -19 -19 -19h-228v-135h277c11 0 19 -9 19 -19v-109c0 -10 -8 -19 -19 -19h-414c-11 0 -19 9 -19 19zM310 763c-74 0 -132 52 -142 120
c-2 12 6 22 19 22h45c8 0 15 -6 17 -12c9 -27 32 -48 61 -48c26 0 50 24 59 48c2 7 10 12 17 12h47c12 0 20 -10 19 -22c-11 -68 -69 -120 -142 -120z" />
    <glyph glyph-name="Edotaccent" unicode="&#x116;" horiz-adv-x="578" 
d="M79 19v662c0 10 8 19 19 19h414c11 0 19 -9 19 -19v-109c0 -10 -8 -19 -19 -19h-277v-124h228c10 0 19 -9 19 -19v-109c0 -11 -9 -19 -19 -19h-228v-135h277c11 0 19 -9 19 -19v-109c0 -10 -8 -19 -19 -19h-414c-11 0 -19 9 -19 19zM310 766c-48 0 -86 39 -86 86
c0 48 38 88 86 88s87 -40 87 -88c0 -47 -39 -86 -87 -86z" />
    <glyph glyph-name="Eogonek" unicode="&#x118;" horiz-adv-x="578" 
d="M79 19v662c0 10 8 19 19 19h414c11 0 19 -9 19 -19v-109c0 -10 -8 -19 -19 -19h-277v-124h228c10 0 19 -9 19 -19v-109c0 -11 -9 -19 -19 -19h-228v-135h277c11 0 19 -9 19 -19v-107c0 -7 -4 -15 -9 -18c-28 -20 -99 -74 -99 -121c0 -28 14 -37 34 -37c26 0 52 21 60 29
c9 9 22 4 22 -8v-57c0 -13 -3 -25 -16 -34c-17 -11 -52 -24 -92 -24c-72 0 -108 48 -108 107c0 70 59 116 94 142h-319c-11 0 -19 9 -19 19z" />
    <glyph glyph-name="Gcircumflex" unicode="&#x11c;" horiz-adv-x="709" 
d="M39 349c0 200 160 360 359 360c84 0 176 -35 244 -94c9 -7 10 -19 2 -27l-79 -84c-8 -7 -19 -7 -27 -1c-38 35 -82 48 -131 48c-109 0 -197 -92 -197 -202c0 -109 89 -199 198 -199c29 0 59 4 89 16v58h-63c-11 0 -19 8 -19 18v99c0 11 8 19 19 19h201c10 0 18 -9 18 -19
l1 -269c0 -9 -4 -13 -8 -16c0 0 -103 -65 -248 -65c-199 0 -359 158 -359 358zM300 762c-11 -6 -16 -4 -22 4l-33 47c-5 7 1 15 6 19l135 104c8 6 18 4 24 0l138 -104c5 -4 10 -11 6 -19l-34 -46c-5 -7 -14 -9 -21 -5l-99 58z" />
    <glyph glyph-name="Gbreve" unicode="&#x11e;" horiz-adv-x="709" 
d="M39 349c0 200 160 360 359 360c84 0 176 -35 244 -94c9 -7 10 -19 2 -27l-79 -84c-8 -7 -19 -7 -27 -1c-38 35 -82 48 -131 48c-109 0 -197 -92 -197 -202c0 -109 89 -199 198 -199c29 0 59 4 89 16v58h-63c-11 0 -19 8 -19 18v99c0 11 8 19 19 19h201c10 0 18 -9 18 -19
l1 -269c0 -9 -4 -13 -8 -16c0 0 -103 -65 -248 -65c-199 0 -359 158 -359 358zM399 763c-74 0 -132 52 -142 120c-2 12 6 22 19 22h45c8 0 15 -6 17 -12c9 -27 32 -48 61 -48c26 0 50 24 59 48c2 7 10 12 17 12h47c12 0 20 -10 19 -22c-11 -68 -69 -120 -142 -120z" />
    <glyph glyph-name="Gdotaccent" unicode="&#x120;" horiz-adv-x="709" 
d="M39 349c0 200 160 360 359 360c84 0 176 -35 244 -94c9 -7 10 -19 2 -27l-79 -84c-8 -7 -19 -7 -27 -1c-38 35 -82 48 -131 48c-109 0 -197 -92 -197 -202c0 -109 89 -199 198 -199c29 0 59 4 89 16v58h-63c-11 0 -19 8 -19 18v99c0 11 8 19 19 19h201c10 0 18 -9 18 -19
l1 -269c0 -9 -4 -13 -8 -16c0 0 -103 -65 -248 -65c-199 0 -359 158 -359 358zM399 766c-48 0 -86 39 -86 86c0 48 38 88 86 88s87 -40 87 -88c0 -47 -39 -86 -87 -86z" />
    <glyph glyph-name="Gcommaaccent" unicode="&#x122;" horiz-adv-x="709" 
d="M39 349c0 200 160 360 359 360c84 0 176 -35 244 -94c9 -7 10 -19 2 -27l-79 -84c-8 -7 -19 -7 -27 -1c-38 35 -82 48 -131 48c-109 0 -197 -92 -197 -202c0 -109 89 -199 198 -199c29 0 59 4 89 16v58h-63c-11 0 -19 8 -19 18v99c0 11 8 19 19 19h201c10 0 18 -9 18 -19
l1 -269c0 -9 -4 -13 -8 -16c0 0 -103 -65 -248 -65c-199 0 -359 158 -359 358zM295 -144c0 51 36 80 86 80c51 0 96 -28 96 -104c0 -70 -27 -115 -52 -149c-7 -7 -15 -7 -23 -1l-30 22c-9 6 -9 16 -2 23c14 17 24 44 24 65v7c0 0 -14 -9 -33 -9c-41 0 -66 28 -66 66z" />
    <glyph glyph-name="Hcircumflex" unicode="&#x124;" horiz-adv-x="758" 
d="M79 19v662c0 10 9 19 19 19h119c11 0 19 -9 19 -19v-252h286v252c0 10 8 19 19 19h119c10 0 19 -9 19 -19v-662c0 -10 -9 -19 -19 -19h-119c-11 0 -19 9 -19 19v263h-286v-263c0 -10 -8 -19 -19 -19h-119c-10 0 -19 9 -19 19zM280 762c-11 -6 -16 -4 -22 4l-33 47
c-5 7 1 15 6 19l135 104c8 6 18 4 24 0l138 -104c5 -4 10 -11 6 -19l-34 -46c-5 -7 -14 -9 -21 -5l-99 58z" />
    <glyph glyph-name="Hbar" unicode="&#x126;" horiz-adv-x="758" 
d="M79 19v512h-28c-10 0 -18 9 -18 19v17c0 10 8 19 18 19h28v95c0 10 9 19 19 19h119c11 0 19 -9 19 -19v-95h286v95c0 10 8 19 19 19h119c10 0 19 -9 19 -19v-95h28c11 0 19 -9 19 -19v-18c0 -10 -8 -18 -19 -18h-28v-512c0 -10 -9 -19 -19 -19h-119c-11 0 -19 9 -19 19
v263h-286v-263c0 -10 -8 -19 -19 -19h-119c-10 0 -19 9 -19 19zM236 429h286v102h-286v-102z" />
    <glyph glyph-name="Igrave" unicode="&#xcc;" horiz-adv-x="316" 
d="M79 19v662c0 10 9 19 19 19h120c10 0 19 -9 19 -19v-662c0 -10 -9 -19 -19 -19h-120c-10 0 -19 9 -19 19zM229 762l-182 82c-8 5 -14 15 -6 30l34 59c5 9 20 7 26 3l170 -104c5 -4 10 -11 6 -19l-21 -42c-5 -10 -14 -17 -27 -9z" />
    <glyph glyph-name="Iacute" unicode="&#xcd;" horiz-adv-x="316" 
d="M79 19v662c0 10 9 19 19 19h120c10 0 19 -9 19 -19v-662c0 -10 -9 -19 -19 -19h-120c-10 0 -19 9 -19 19zM87 762c-13 -8 -22 -1 -27 9l-21 42c-4 8 1 15 6 19l170 104c6 4 21 6 26 -3l34 -59c8 -15 2 -25 -6 -30z" />
    <glyph glyph-name="Ibreve" unicode="&#x12c;" horiz-adv-x="316" 
d="M79 19v662c0 10 9 19 19 19h120c10 0 19 -9 19 -19v-662c0 -10 -9 -19 -19 -19h-120c-10 0 -19 9 -19 19zM158 763c-74 0 -132 52 -142 120c-2 12 6 22 19 22h45c8 0 15 -6 17 -12c9 -27 32 -48 61 -48c26 0 50 24 59 48c2 7 10 12 17 12h47c12 0 20 -10 19 -22
c-11 -68 -69 -120 -142 -120z" />
    <glyph glyph-name="Icircumflex" unicode="&#xce;" horiz-adv-x="316" 
d="M79 19v662c0 10 9 19 19 19h120c10 0 19 -9 19 -19v-662c0 -10 -9 -19 -19 -19h-120c-10 0 -19 9 -19 19zM59 762c-11 -6 -16 -4 -22 4l-33 47c-5 7 1 15 6 19l135 104c8 6 18 4 24 0l138 -104c5 -4 10 -11 6 -19l-34 -46c-5 -7 -14 -9 -21 -5l-99 58z" />
    <glyph glyph-name="Itilde" unicode="&#x128;" horiz-adv-x="316" 
d="M79 19v662c0 10 9 19 19 19h120c10 0 19 -9 19 -19v-662c0 -10 -9 -19 -19 -19h-120c-10 0 -19 9 -19 19zM41 785l-35 28c-7 5 -9 16 -6 23c10 18 53 84 107 84c48 0 69 -47 108 -47c16 0 31 20 38 31c5 8 15 11 25 2l34 -26c8 -6 9 -17 1 -29c-10 -17 -47 -78 -100 -78
c-52 0 -76 48 -110 48c-18 0 -31 -25 -40 -35c-6 -6 -13 -7 -22 -1z" />
    <glyph glyph-name="Idieresis" unicode="&#xcf;" horiz-adv-x="316" 
d="M79 19v662c0 10 9 19 19 19h120c10 0 19 -9 19 -19v-662c0 -10 -9 -19 -19 -19h-120c-10 0 -19 9 -19 19zM290 763c-42 0 -75 34 -75 76s33 75 75 75s76 -33 76 -75s-34 -76 -76 -76zM25 763c-42 0 -75 34 -75 76s33 75 75 75s76 -33 76 -75s-34 -76 -76 -76z" />
    <glyph glyph-name="Imacron" unicode="&#x12a;" horiz-adv-x="316" 
d="M79 19v662c0 10 9 19 19 19h120c10 0 19 -9 19 -19v-662c0 -10 -9 -19 -19 -19h-120c-10 0 -19 9 -19 19zM30 801c-11 0 -19 8 -19 18v41c0 11 8 19 19 19h256c11 0 19 -8 19 -19v-41c0 -10 -8 -18 -19 -18h-256z" />
    <glyph glyph-name="Idotaccent" unicode="&#x130;" horiz-adv-x="316" 
d="M79 19v662c0 10 9 19 19 19h120c10 0 19 -9 19 -19v-662c0 -10 -9 -19 -19 -19h-120c-10 0 -19 9 -19 19zM158 766c-48 0 -86 39 -86 86c0 48 38 88 86 88s87 -40 87 -88c0 -47 -39 -86 -87 -86z" />
    <glyph glyph-name="Iogonek" unicode="&#x12e;" horiz-adv-x="316" 
d="M79 19v662c0 10 9 19 19 19h120c10 0 19 -9 19 -19v-662c0 -10 -9 -19 -19 -19h-11c-29 -21 -89 -73 -89 -118c0 -28 14 -37 34 -37c26 0 52 21 60 29c9 9 22 4 22 -8v-57c0 -13 -3 -25 -16 -34c-17 -11 -52 -24 -92 -24c-72 0 -108 48 -108 107c0 70 54 116 89 142h-9
c-10 0 -19 9 -19 19z" />
    <glyph glyph-name="Jcircumflex" unicode="&#x134;" horiz-adv-x="450" 
d="M9 63c-5 8 -4 18 2 25l68 67c8 7 19 8 27 0c12 -12 28 -21 51 -21c28 0 59 11 59 66v481c0 10 8 19 19 19h122c11 0 19 -9 19 -19v-482c0 -139 -98 -209 -206 -209c-96 0 -144 52 -161 73zM191 762c-11 -6 -16 -4 -22 4l-33 47c-5 7 1 15 6 19l135 104c8 6 18 4 24 0
l138 -104c5 -4 10 -11 6 -19l-34 -46c-5 -7 -14 -9 -21 -5l-99 58z" />
    <glyph glyph-name="Kcommaaccent" unicode="&#x136;" horiz-adv-x="663" 
d="M79 24v652c0 13 10 24 24 24h117c13 0 24 -11 24 -24v-267l222 281c4 5 13 10 19 10h126c19 0 29 -22 18 -37l-234 -297l255 -328c11 -15 0 -37 -19 -37h-138c-7 0 -16 4 -18 7l-231 310v-294c0 -13 -11 -24 -24 -24h-117c-14 0 -24 11 -24 24zM272 -144
c0 51 36 80 86 80c51 0 96 -28 96 -104c0 -70 -27 -115 -52 -149c-7 -7 -15 -7 -23 -1l-30 22c-9 6 -9 16 -2 23c14 17 24 44 24 65v7c0 0 -14 -9 -33 -9c-41 0 -66 28 -66 66z" />
    <glyph glyph-name="Lacute" unicode="&#x139;" horiz-adv-x="510" 
d="M79 19v662c0 10 8 19 19 19h119c10 0 19 -9 19 -19v-534h238c11 0 19 -9 19 -19v-109c0 -10 -8 -19 -19 -19h-376c-11 0 -19 9 -19 19zM85 762c-13 -8 -22 -1 -27 9l-21 42c-4 8 1 15 6 19l170 104c6 4 21 6 26 -3l34 -59c8 -15 2 -25 -6 -30z" />
    <glyph glyph-name="Lcaron" unicode="&#x13d;" horiz-adv-x="517" 
d="M79 19v662c0 10 8 19 19 19h119c10 0 19 -9 19 -19v-534h238c11 0 19 -9 19 -19v-109c0 -10 -8 -19 -19 -19h-376c-11 0 -19 9 -19 19zM301 630c0 51 36 80 86 80c51 0 96 -28 96 -104c0 -70 -27 -115 -52 -149c-7 -7 -15 -7 -23 -1l-30 22c-9 6 -9 16 -2 23
c14 17 24 44 24 65v7c0 0 -14 -9 -33 -9c-41 0 -66 28 -66 66z" />
    <glyph glyph-name="Lcommaaccent" unicode="&#x13b;" horiz-adv-x="510" 
d="M79 19v662c0 10 8 19 19 19h119c10 0 19 -9 19 -19v-534h238c11 0 19 -9 19 -19v-109c0 -10 -8 -19 -19 -19h-376c-11 0 -19 9 -19 19zM195 -144c0 51 36 80 86 80c51 0 96 -28 96 -104c0 -70 -27 -115 -52 -149c-7 -7 -15 -7 -23 -1l-30 22c-9 6 -9 16 -2 23
c14 17 24 44 24 65v7c0 0 -14 -9 -33 -9c-41 0 -66 28 -66 66z" />
    <glyph glyph-name="Lslash" unicode="&#x141;" horiz-adv-x="510" 
d="M79 19v285l-23 -13c-9 -5 -21 -2 -26 7l-8 15c-5 8 -3 20 6 25l51 29v314c0 10 8 19 19 19h119c10 0 19 -9 19 -19v-223l75 44c10 5 21 2 26 -7l9 -16c5 -8 2 -19 -7 -25l-103 -60v-247h238c11 0 19 -9 19 -19v-109c0 -10 -8 -19 -19 -19h-376c-11 0 -19 9 -19 19z" />
    <glyph glyph-name="Ldot" unicode="&#x13f;" horiz-adv-x="546" 
d="M79 19v662c0 10 8 19 19 19h119c10 0 19 -9 19 -19v-534h238c11 0 19 -9 19 -19v-109c0 -10 -8 -19 -19 -19h-376c-11 0 -19 9 -19 19zM453 300c-48 0 -86 39 -86 86c0 48 38 88 86 88s87 -40 87 -88c0 -47 -39 -86 -87 -86z" />
    <glyph glyph-name="Nacute" unicode="&#x143;" horiz-adv-x="759" 
d="M79 19l-1 673c0 10 9 18 19 18h15c10 0 17 -7 25 -15l384 -369h1v355c0 10 8 19 19 19h120c10 0 19 -9 19 -19v-673c0 -12 -9 -18 -19 -18h-10c-10 0 -17 3 -25 11l-389 391h-1v-373c0 -10 -8 -19 -19 -19h-119c-10 0 -19 9 -19 19zM310 762c-13 -8 -22 -1 -27 9l-21 42
c-4 8 1 15 6 19l170 104c6 4 21 6 26 -3l34 -59c8 -15 2 -25 -6 -30z" />
    <glyph glyph-name="Ncaron" unicode="&#x147;" horiz-adv-x="759" 
d="M79 19l-1 673c0 10 9 18 19 18h15c10 0 17 -7 25 -15l384 -369h1v355c0 10 8 19 19 19h120c10 0 19 -9 19 -19v-673c0 -12 -9 -18 -19 -18h-10c-10 0 -17 3 -25 11l-389 391h-1v-373c0 -10 -8 -19 -19 -19h-119c-10 0 -19 9 -19 19zM370 762l-138 104c-5 4 -10 11 -6 19
l34 46c5 7 14 9 21 5l99 -58l100 58c11 6 16 4 22 -4l33 -47c5 -7 -1 -15 -6 -19l-135 -104c-8 -6 -18 -4 -24 0z" />
    <glyph glyph-name="Ntilde" unicode="&#xd1;" horiz-adv-x="759" 
d="M79 19l-1 673c0 10 9 18 19 18h15c10 0 17 -7 25 -15l384 -369h1v355c0 10 8 19 19 19h120c10 0 19 -9 19 -19v-673c0 -12 -9 -18 -19 -18h-10c-10 0 -17 3 -25 11l-389 391h-1v-373c0 -10 -8 -19 -19 -19h-119c-10 0 -19 9 -19 19zM264 785l-35 28c-7 5 -9 16 -6 23
c10 18 53 84 107 84c48 0 69 -47 108 -47c16 0 31 20 38 31c5 8 15 11 25 2l34 -26c8 -6 9 -17 1 -29c-10 -17 -47 -78 -100 -78c-52 0 -76 48 -110 48c-18 0 -31 -25 -40 -35c-6 -6 -13 -7 -22 -1z" />
    <glyph glyph-name="Ncommaaccent" unicode="&#x145;" horiz-adv-x="759" 
d="M79 19l-1 673c0 10 9 18 19 18h15c10 0 17 -7 25 -15l384 -369h1v355c0 10 8 19 19 19h120c10 0 19 -9 19 -19v-673c0 -12 -9 -18 -19 -18h-10c-10 0 -17 3 -25 11l-389 391h-1v-373c0 -10 -8 -19 -19 -19h-119c-10 0 -19 9 -19 19zM314 -144c0 51 36 80 86 80
c51 0 96 -28 96 -104c0 -70 -27 -115 -52 -149c-7 -7 -15 -7 -23 -1l-30 22c-9 6 -9 16 -2 23c14 17 24 44 24 65v7c0 0 -14 -9 -33 -9c-41 0 -66 28 -66 66z" />
    <glyph glyph-name="Ograve" unicode="&#xd2;" horiz-adv-x="797" 
d="M39 349c0 200 159 361 359 361s360 -161 360 -361s-160 -359 -360 -359s-359 159 -359 359zM199 349c0 -109 90 -199 199 -199c110 0 200 90 200 199c0 110 -90 201 -200 201c-109 0 -199 -91 -199 -201zM469 762l-182 82c-8 5 -14 15 -6 30l34 59c5 9 20 7 26 3
l170 -104c5 -4 10 -11 6 -19l-21 -42c-5 -10 -14 -17 -27 -9z" />
    <glyph glyph-name="Oacute" unicode="&#xd3;" horiz-adv-x="797" 
d="M39 349c0 200 159 361 359 361s360 -161 360 -361s-160 -359 -360 -359s-359 159 -359 359zM199 349c0 -109 90 -199 199 -199c110 0 200 90 200 199c0 110 -90 201 -200 201c-109 0 -199 -91 -199 -201zM327 762c-13 -8 -22 -1 -27 9l-21 42c-4 8 1 15 6 19l170 104
c6 4 21 6 26 -3l34 -59c8 -15 2 -25 -6 -30z" />
    <glyph glyph-name="Ocircumflex" unicode="&#xd4;" horiz-adv-x="797" 
d="M39 349c0 200 159 361 359 361s360 -161 360 -361s-160 -359 -360 -359s-359 159 -359 359zM199 349c0 -109 90 -199 199 -199c110 0 200 90 200 199c0 110 -90 201 -200 201c-109 0 -199 -91 -199 -201zM299 762c-11 -6 -16 -4 -22 4l-33 47c-5 7 1 15 6 19l135 104
c8 6 18 4 24 0l138 -104c5 -4 10 -11 6 -19l-34 -46c-5 -7 -14 -9 -21 -5l-99 58z" />
    <glyph glyph-name="Otilde" unicode="&#xd5;" horiz-adv-x="797" 
d="M39 349c0 200 159 361 359 361s360 -161 360 -361s-160 -359 -360 -359s-359 159 -359 359zM199 349c0 -109 90 -199 199 -199c110 0 200 90 200 199c0 110 -90 201 -200 201c-109 0 -199 -91 -199 -201zM281 785l-35 28c-7 5 -9 16 -6 23c10 18 53 84 107 84
c48 0 69 -47 108 -47c16 0 31 20 38 31c5 8 15 11 25 2l34 -26c8 -6 9 -17 1 -29c-10 -17 -47 -78 -100 -78c-52 0 -76 48 -110 48c-18 0 -31 -25 -40 -35c-6 -6 -13 -7 -22 -1z" />
    <glyph glyph-name="Odieresis" unicode="&#xd6;" horiz-adv-x="797" 
d="M39 349c0 200 159 361 359 361s360 -161 360 -361s-160 -359 -360 -359s-359 159 -359 359zM199 349c0 -109 90 -199 199 -199c110 0 200 90 200 199c0 110 -90 201 -200 201c-109 0 -199 -91 -199 -201zM530 763c-42 0 -75 34 -75 76s33 75 75 75s76 -33 76 -75
s-34 -76 -76 -76zM265 763c-42 0 -75 34 -75 76s33 75 75 75s76 -33 76 -75s-34 -76 -76 -76z" />
    <glyph glyph-name="Omacron" unicode="&#x14c;" horiz-adv-x="797" 
d="M39 349c0 200 159 361 359 361s360 -161 360 -361s-160 -359 -360 -359s-359 159 -359 359zM199 349c0 -109 90 -199 199 -199c110 0 200 90 200 199c0 110 -90 201 -200 201c-109 0 -199 -91 -199 -201zM270 801c-11 0 -19 8 -19 18v41c0 11 8 19 19 19h256
c11 0 19 -8 19 -19v-41c0 -10 -8 -18 -19 -18h-256z" />
    <glyph glyph-name="Obreve" unicode="&#x14e;" horiz-adv-x="797" 
d="M39 349c0 200 159 361 359 361s360 -161 360 -361s-160 -359 -360 -359s-359 159 -359 359zM199 349c0 -109 90 -199 199 -199c110 0 200 90 200 199c0 110 -90 201 -200 201c-109 0 -199 -91 -199 -201zM398 763c-74 0 -132 52 -142 120c-2 12 6 22 19 22h45
c8 0 15 -6 17 -12c9 -27 32 -48 61 -48c26 0 50 24 59 48c2 7 10 12 17 12h47c12 0 20 -10 19 -22c-11 -68 -69 -120 -142 -120z" />
    <glyph glyph-name="Ohungarumlaut" unicode="&#x150;" horiz-adv-x="797" 
d="M39 349c0 200 159 361 359 361s360 -161 360 -361s-160 -359 -360 -359s-359 159 -359 359zM199 349c0 -109 90 -199 199 -199c110 0 200 90 200 199c0 110 -90 201 -200 201c-109 0 -199 -91 -199 -201zM469 768c-10 0 -22 9 -19 19l30 141c3 10 9 19 19 19h94
c19 0 26 -13 18 -25l-78 -139c-5 -7 -11 -15 -18 -15h-46zM303 768c-10 0 -22 9 -19 19l30 141c3 10 9 19 19 19h94c19 0 25 -12 18 -25l-78 -139c-4 -8 -11 -15 -18 -15h-46z" />
    <glyph glyph-name="Oslash" unicode="&#xd8;" horiz-adv-x="798" 
d="M59 23c-7 7 -8 19 -1 26l67 66c-53 63 -85 144 -85 234c0 200 159 361 359 361c90 0 172 -33 235 -87l70 69c7 8 19 7 26 0l12 -12c8 -7 8 -18 0 -26l-70 -70c54 -63 87 -145 87 -235c0 -200 -160 -359 -360 -359c-91 0 -173 32 -235 86l-67 -66c-7 -7 -19 -6 -26 1z
M240 230l280 279c-34 25 -76 41 -121 41c-109 0 -199 -91 -199 -201c0 -45 15 -86 40 -119zM279 191c33 -26 75 -41 120 -41c110 0 200 90 200 199c0 45 -15 88 -41 121z" />
    <glyph glyph-name="Oslashacute" unicode="&#x1fe;" horiz-adv-x="798" 
d="M59 23c-7 7 -8 19 -1 26l67 66c-53 63 -85 144 -85 234c0 200 159 361 359 361c90 0 172 -33 235 -87l70 69c7 8 19 7 26 0l12 -12c8 -7 8 -18 0 -26l-70 -70c54 -63 87 -145 87 -235c0 -200 -160 -359 -360 -359c-91 0 -173 32 -235 86l-67 -66c-7 -7 -19 -6 -26 1z
M240 230l280 279c-34 25 -76 41 -121 41c-109 0 -199 -91 -199 -201c0 -45 15 -86 40 -119zM279 191c33 -26 75 -41 120 -41c110 0 200 90 200 199c0 45 -15 88 -41 121zM328 762c-13 -8 -22 -1 -27 9l-21 42c-4 8 1 15 6 19l170 104c6 4 21 6 26 -3l34 -59
c8 -15 2 -25 -6 -30z" />
    <glyph glyph-name="OE" unicode="&#x152;" horiz-adv-x="981" 
d="M39 349c0 200 159 361 359 361c52 0 103 -10 103 -10h414c11 0 19 -9 19 -19v-109c0 -10 -8 -19 -19 -19h-277v-124h228c10 0 19 -9 19 -19v-109c0 -11 -9 -19 -19 -19h-228v-135h277c11 0 19 -9 19 -19v-109c0 -10 -8 -19 -19 -19h-414s-53 -10 -103 -10
c-200 0 -359 159 -359 359zM199 349c0 -109 90 -202 199 -202c30 0 58 4 84 16v373c-26 12 -54 16 -84 16c-109 0 -199 -93 -199 -203z" />
    <glyph glyph-name="Racute" unicode="&#x154;" horiz-adv-x="662" 
d="M79 19v662c0 10 8 19 19 19h299c127 0 218 -97 218 -216c0 -92 -55 -166 -148 -201l137 -254c7 -13 0 -29 -17 -29h-133c-8 0 -14 5 -16 9l-133 265h-69v-255c0 -10 -9 -19 -19 -19h-119c-11 0 -19 9 -19 19zM236 401h148c41 0 76 33 76 80s-35 76 -76 76h-148v-156z
M246 762c-13 -8 -22 -1 -27 9l-21 42c-4 8 1 15 6 19l170 104c6 4 21 6 26 -3l34 -59c8 -15 2 -25 -6 -30z" />
    <glyph glyph-name="Rcaron" unicode="&#x158;" horiz-adv-x="662" 
d="M79 19v662c0 10 8 19 19 19h299c127 0 218 -97 218 -216c0 -92 -55 -166 -148 -201l137 -254c7 -13 0 -29 -17 -29h-133c-8 0 -14 5 -16 9l-133 265h-69v-255c0 -10 -9 -19 -19 -19h-119c-11 0 -19 9 -19 19zM236 401h148c41 0 76 33 76 80s-35 76 -76 76h-148v-156z
M306 762l-138 104c-5 4 -10 11 -6 19l34 46c5 7 14 9 21 5l99 -58l100 58c11 6 16 4 22 -4l33 -47c5 -7 -1 -15 -6 -19l-135 -104c-8 -6 -18 -4 -24 0z" />
    <glyph glyph-name="Rcommaaccent" unicode="&#x156;" horiz-adv-x="662" 
d="M79 19v662c0 10 8 19 19 19h299c127 0 218 -97 218 -216c0 -92 -55 -166 -148 -201l137 -254c7 -13 0 -29 -17 -29h-133c-8 0 -14 5 -16 9l-133 265h-69v-255c0 -10 -9 -19 -19 -19h-119c-11 0 -19 9 -19 19zM236 401h148c41 0 76 33 76 80s-35 76 -76 76h-148v-156z
M249 -144c0 51 36 80 86 80c51 0 96 -28 96 -104c0 -70 -27 -115 -52 -149c-7 -7 -15 -7 -23 -1l-30 22c-9 6 -9 16 -2 23c14 17 24 44 24 65v7c0 0 -14 -9 -33 -9c-41 0 -66 28 -66 66z" />
    <glyph glyph-name="Sacute" unicode="&#x15a;" horiz-adv-x="553" 
d="M278 -10c-130 0 -202 54 -225 77c-8 8 -11 17 -4 30l46 81c8 13 24 13 34 6c28 -19 79 -55 142 -55c40 0 69 25 69 60c0 42 -37 69 -103 101c-97 47 -194 101 -194 221c0 99 77 199 231 199c104 0 184 -53 214 -75c12 -7 10 -25 6 -32l-51 -77c-7 -11 -24 -19 -44 -7
c-23 16 -82 54 -135 54c-42 0 -61 -26 -61 -55c0 -33 39 -59 109 -93c88 -43 202 -92 202 -228c0 -103 -89 -207 -236 -207zM204 762c-13 -8 -22 -1 -27 9l-21 42c-4 8 1 15 6 19l170 104c6 4 21 6 26 -3l34 -59c8 -15 2 -25 -6 -30z" />
    <glyph glyph-name="Scircumflex" unicode="&#x15c;" horiz-adv-x="553" 
d="M278 -10c-130 0 -202 54 -225 77c-8 8 -11 17 -4 30l46 81c8 13 24 13 34 6c28 -19 79 -55 142 -55c40 0 69 25 69 60c0 42 -37 69 -103 101c-97 47 -194 101 -194 221c0 99 77 199 231 199c104 0 184 -53 214 -75c12 -7 10 -25 6 -32l-51 -77c-7 -11 -24 -19 -44 -7
c-23 16 -82 54 -135 54c-42 0 -61 -26 -61 -55c0 -33 39 -59 109 -93c88 -43 202 -92 202 -228c0 -103 -89 -207 -236 -207zM176 762c-11 -6 -16 -4 -22 4l-33 47c-5 7 1 15 6 19l135 104c8 6 18 4 24 0l138 -104c5 -4 10 -11 6 -19l-34 -46c-5 -7 -14 -9 -21 -5l-99 58z
" />
    <glyph glyph-name="Scaron" unicode="&#x160;" horiz-adv-x="553" 
d="M278 -10c-130 0 -202 54 -225 77c-8 8 -11 17 -4 30l46 81c8 13 24 13 34 6c28 -19 79 -55 142 -55c40 0 69 25 69 60c0 42 -37 69 -103 101c-97 47 -194 101 -194 221c0 99 77 199 231 199c104 0 184 -53 214 -75c12 -7 10 -25 6 -32l-51 -77c-7 -11 -24 -19 -44 -7
c-23 16 -82 54 -135 54c-42 0 -61 -26 -61 -55c0 -33 39 -59 109 -93c88 -43 202 -92 202 -228c0 -103 -89 -207 -236 -207zM264 762l-138 104c-5 4 -10 11 -6 19l34 46c5 7 14 9 21 5l99 -58l100 58c11 6 16 4 22 -4l33 -47c5 -7 -1 -15 -6 -19l-135 -104
c-8 -6 -18 -4 -24 0z" />
    <glyph glyph-name="Scedilla" unicode="&#x15e;" horiz-adv-x="553" 
d="M229 -7c-100 11 -156 54 -176 74c-8 8 -11 17 -4 30l46 81c8 13 24 13 34 6c28 -19 79 -55 142 -55c40 0 69 25 69 60c0 42 -37 69 -103 101c-97 47 -194 101 -194 221c0 99 77 199 231 199c104 0 184 -53 214 -75c12 -7 10 -25 6 -32l-51 -77c-7 -11 -24 -19 -44 -7
c-23 16 -82 54 -135 54c-42 0 -61 -26 -61 -55c0 -33 39 -59 109 -93c88 -43 202 -92 202 -228c0 -98 -81 -197 -216 -206l-30 -48c6 1 11 1 15 1c45 0 90 -24 90 -88c0 -68 -57 -105 -125 -105c-39 0 -67 10 -84 24c-9 8 -7 18 -1 31l10 23c7 16 17 19 30 10
c5 -4 22 -13 40 -13c25 0 42 10 42 33s-17 33 -42 33c-17 0 -28 -6 -36 -9c-11 -4 -25 9 -20 19z" />
    <glyph glyph-name="Scommaaccent" unicode="&#x218;" horiz-adv-x="553" 
d="M278 -10c-130 0 -202 54 -225 77c-8 8 -11 17 -4 30l46 81c8 13 24 13 34 6c28 -19 79 -55 142 -55c40 0 69 25 69 60c0 42 -37 69 -103 101c-97 47 -194 101 -194 221c0 99 77 199 231 199c104 0 184 -53 214 -75c12 -7 10 -25 6 -32l-51 -77c-7 -11 -24 -19 -44 -7
c-23 16 -82 54 -135 54c-42 0 -61 -26 -61 -55c0 -33 39 -59 109 -93c88 -43 202 -92 202 -228c0 -103 -89 -207 -236 -207zM186 -144c0 51 36 80 86 80c51 0 96 -28 96 -104c0 -70 -27 -115 -52 -149c-7 -7 -15 -7 -23 -1l-30 22c-9 6 -9 16 -2 23c14 17 24 44 24 65v7
c0 0 -14 -9 -33 -9c-41 0 -66 28 -66 66z" />
    <glyph glyph-name="Tcaron" unicode="&#x164;" horiz-adv-x="534" 
d="M188 19v534h-143c-11 0 -19 9 -19 19v109c0 10 8 19 19 19h444c11 0 19 -9 19 -19v-109c0 -10 -8 -19 -19 -19h-143v-534c0 -10 -9 -19 -19 -19h-120c-10 0 -19 9 -19 19zM256 762l-138 104c-5 4 -10 11 -6 19l34 46c5 7 14 9 21 5l99 -58l100 58c11 6 16 4 22 -4l33 -47
c5 -7 -1 -15 -6 -19l-135 -104c-8 -6 -18 -4 -24 0z" />
    <glyph glyph-name="Tcommaaccent" unicode="&#x162;" horiz-adv-x="534" 
d="M188 19v534h-143c-11 0 -19 9 -19 19v109c0 10 8 19 19 19h444c11 0 19 -9 19 -19v-109c0 -10 -8 -19 -19 -19h-143v-534c0 -10 -9 -19 -19 -19h-29l-36 -57c6 1 11 1 15 1c45 0 90 -24 90 -88c0 -68 -57 -105 -125 -105c-39 0 -67 10 -84 24c-9 8 -7 18 -1 31l10 23
c7 16 17 19 30 10c5 -4 22 -13 40 -13c25 0 42 10 42 33s-17 33 -42 33c-17 0 -28 -6 -36 -9c-11 -4 -25 9 -20 19l45 98h-19c-10 0 -19 9 -19 19z" />
    <glyph glyph-name="uni021A" unicode="&#x21a;" horiz-adv-x="534" 
d="M188 19v534h-143c-11 0 -19 9 -19 19v109c0 10 8 19 19 19h444c11 0 19 -9 19 -19v-109c0 -10 -8 -19 -19 -19h-143v-534c0 -10 -9 -19 -19 -19h-120c-10 0 -19 9 -19 19zM172 -144c0 51 36 80 86 80c51 0 96 -28 96 -104c0 -70 -27 -115 -52 -149c-7 -7 -15 -7 -23 -1
l-30 22c-9 6 -9 16 -2 23c14 17 24 44 24 65v7c0 0 -14 -9 -33 -9c-41 0 -66 28 -66 66z" />
    <glyph glyph-name="Tbar" unicode="&#x166;" horiz-adv-x="534" 
d="M188 19v270h-82c-10 0 -18 9 -18 19v17c0 10 8 19 18 19h82v209h-143c-11 0 -19 9 -19 19v109c0 10 8 19 19 19h444c11 0 19 -9 19 -19v-109c0 -10 -8 -19 -19 -19h-143v-209h87c11 0 19 -9 19 -19v-18c0 -10 -8 -18 -19 -18h-87v-270c0 -10 -9 -19 -19 -19h-120
c-10 0 -19 9 -19 19z" />
    <glyph glyph-name="Thorn" unicode="&#xde;" horiz-adv-x="584" 
d="M79 19v662c0 10 8 19 19 19h118c10 0 19 -9 19 -19v-108h104c123 0 224 -100 224 -221c0 -124 -101 -225 -223 -225h-105v-108c0 -10 -9 -19 -19 -19h-118c-11 0 -19 9 -19 19zM235 273h95c43 0 79 34 79 79c0 42 -36 74 -79 74h-95v-153z" />
    <glyph glyph-name="Ugrave" unicode="&#xd9;" horiz-adv-x="714" 
d="M72 256v425c0 10 9 19 19 19h123c11 0 19 -9 19 -19v-417c0 -73 52 -114 123 -114c72 0 125 41 125 114v417c0 10 8 19 19 19h123c10 0 19 -9 19 -19v-425c0 -152 -128 -266 -286 -266c-157 0 -284 114 -284 266zM428 762l-182 82c-8 5 -14 15 -6 30l34 59c5 9 20 7 26 3
l170 -104c5 -4 10 -11 6 -19l-21 -42c-5 -10 -14 -17 -27 -9z" />
    <glyph glyph-name="Uacute" unicode="&#xda;" horiz-adv-x="714" 
d="M72 256v425c0 10 9 19 19 19h123c11 0 19 -9 19 -19v-417c0 -73 52 -114 123 -114c72 0 125 41 125 114v417c0 10 8 19 19 19h123c10 0 19 -9 19 -19v-425c0 -152 -128 -266 -286 -266c-157 0 -284 114 -284 266zM286 762c-13 -8 -22 -1 -27 9l-21 42c-4 8 1 15 6 19
l170 104c6 4 21 6 26 -3l34 -59c8 -15 2 -25 -6 -30z" />
    <glyph glyph-name="Ucircumflex" unicode="&#xdb;" horiz-adv-x="714" 
d="M72 256v425c0 10 9 19 19 19h123c11 0 19 -9 19 -19v-417c0 -73 52 -114 123 -114c72 0 125 41 125 114v417c0 10 8 19 19 19h123c10 0 19 -9 19 -19v-425c0 -152 -128 -266 -286 -266c-157 0 -284 114 -284 266zM257 762c-11 -6 -16 -4 -22 4l-33 47c-5 7 1 15 6 19
l135 104c8 6 18 4 24 0l138 -104c5 -4 10 -11 6 -19l-34 -46c-5 -7 -14 -9 -21 -5l-99 58z" />
    <glyph glyph-name="Utilde" unicode="&#x168;" horiz-adv-x="714" 
d="M72 256v425c0 10 9 19 19 19h123c11 0 19 -9 19 -19v-417c0 -73 52 -114 123 -114c72 0 125 41 125 114v417c0 10 8 19 19 19h123c10 0 19 -9 19 -19v-425c0 -152 -128 -266 -286 -266c-157 0 -284 114 -284 266zM240 785l-35 28c-7 5 -9 16 -6 23c10 18 53 84 107 84
c48 0 69 -47 108 -47c16 0 31 20 38 31c5 8 15 11 25 2l34 -26c8 -6 9 -17 1 -29c-10 -17 -47 -78 -100 -78c-52 0 -76 48 -110 48c-18 0 -31 -25 -40 -35c-6 -6 -13 -7 -22 -1z" />
    <glyph glyph-name="Udieresis" unicode="&#xdc;" horiz-adv-x="714" 
d="M72 256v425c0 10 9 19 19 19h123c11 0 19 -9 19 -19v-417c0 -73 52 -114 123 -114c72 0 125 41 125 114v417c0 10 8 19 19 19h123c10 0 19 -9 19 -19v-425c0 -152 -128 -266 -286 -266c-157 0 -284 114 -284 266zM488 763c-42 0 -75 34 -75 76s33 75 75 75s76 -33 76 -75
s-34 -76 -76 -76zM223 763c-42 0 -75 34 -75 76s33 75 75 75s76 -33 76 -75s-34 -76 -76 -76z" />
    <glyph glyph-name="Umacron" unicode="&#x16a;" horiz-adv-x="714" 
d="M72 256v425c0 10 9 19 19 19h123c11 0 19 -9 19 -19v-417c0 -73 52 -114 123 -114c72 0 125 41 125 114v417c0 10 8 19 19 19h123c10 0 19 -9 19 -19v-425c0 -152 -128 -266 -286 -266c-157 0 -284 114 -284 266zM229 801c-11 0 -19 8 -19 18v41c0 11 8 19 19 19h256
c11 0 19 -8 19 -19v-41c0 -10 -8 -18 -19 -18h-256z" />
    <glyph glyph-name="Ubreve" unicode="&#x16c;" horiz-adv-x="714" 
d="M72 256v425c0 10 9 19 19 19h123c11 0 19 -9 19 -19v-417c0 -73 52 -114 123 -114c72 0 125 41 125 114v417c0 10 8 19 19 19h123c10 0 19 -9 19 -19v-425c0 -152 -128 -266 -286 -266c-157 0 -284 114 -284 266zM357 763c-74 0 -132 52 -142 120c-2 12 6 22 19 22h45
c8 0 15 -6 17 -12c9 -27 32 -48 61 -48c26 0 50 24 59 48c2 7 10 12 17 12h47c12 0 20 -10 19 -22c-11 -68 -69 -120 -142 -120z" />
    <glyph glyph-name="Uring" unicode="&#x16e;" horiz-adv-x="714" 
d="M72 256v425c0 10 9 19 19 19h123c11 0 19 -9 19 -19v-417c0 -73 52 -114 123 -114c72 0 125 41 125 114v417c0 10 8 19 19 19h123c10 0 19 -9 19 -19v-425c0 -152 -128 -266 -286 -266c-157 0 -284 114 -284 266zM357 752c-64 0 -115 51 -115 115s51 115 115 115
c63 0 115 -51 115 -115s-52 -115 -115 -115zM357 823c23 0 43 21 43 44s-20 43 -43 43s-44 -20 -44 -43s21 -44 44 -44z" />
    <glyph glyph-name="Uhungarumlaut" unicode="&#x170;" horiz-adv-x="714" 
d="M72 256v425c0 10 9 19 19 19h123c11 0 19 -9 19 -19v-417c0 -73 52 -114 123 -114c72 0 125 41 125 114v417c0 10 8 19 19 19h123c10 0 19 -9 19 -19v-425c0 -152 -128 -266 -286 -266c-157 0 -284 114 -284 266zM418 768c-10 0 -22 9 -19 19l30 141c3 10 9 19 19 19h94
c19 0 26 -13 18 -25l-78 -139c-5 -7 -11 -15 -18 -15h-46zM252 768c-10 0 -22 9 -19 19l30 141c3 10 9 19 19 19h94c19 0 25 -12 18 -25l-78 -139c-4 -8 -11 -15 -18 -15h-46z" />
    <glyph glyph-name="Uogonek" unicode="&#x172;" horiz-adv-x="714" 
d="M72 268v413c0 10 9 19 19 19h123c11 0 19 -9 19 -19v-405c0 -70 52 -126 123 -126c72 0 125 56 125 126v405c0 10 8 19 19 19h123c10 0 19 -9 19 -19v-413c0 -128 -91 -238 -214 -269c-30 -22 -88 -73 -88 -117c0 -28 14 -37 34 -37c26 0 52 21 60 29c9 9 22 4 22 -8v-57
c0 -13 -3 -25 -16 -34c-17 -11 -52 -24 -92 -24c-72 0 -108 48 -108 107c0 63 45 107 79 135c-140 17 -247 135 -247 275z" />
    <glyph glyph-name="Wacute" unicode="&#x1e82;" horiz-adv-x="884" 
d="M207 4l-189 672c-4 14 4 24 18 24h117c8 0 16 -7 18 -14l86 -339h4l155 352c3 6 9 11 17 11h18c9 0 15 -5 17 -11l155 -352h4l86 339c2 7 10 14 18 14h117c14 0 22 -10 18 -24l-189 -672c-2 -8 -10 -14 -18 -14h-16c-7 0 -14 5 -17 11l-183 409h-3l-182 -409
c-3 -6 -10 -11 -17 -11h-16c-8 0 -16 6 -18 14zM369 762c-13 -8 -22 -1 -27 9l-21 42c-4 8 1 15 6 19l170 104c6 4 21 6 26 -3l34 -59c8 -15 2 -25 -6 -30z" />
    <glyph glyph-name="Wcircumflex" unicode="&#x174;" horiz-adv-x="884" 
d="M207 4l-189 672c-4 14 4 24 18 24h117c8 0 16 -7 18 -14l86 -339h4l155 352c3 6 9 11 17 11h18c9 0 15 -5 17 -11l155 -352h4l86 339c2 7 10 14 18 14h117c14 0 22 -10 18 -24l-189 -672c-2 -8 -10 -14 -18 -14h-16c-7 0 -14 5 -17 11l-183 409h-3l-182 -409
c-3 -6 -10 -11 -17 -11h-16c-8 0 -16 6 -18 14zM341 762c-11 -6 -16 -4 -22 4l-33 47c-5 7 1 15 6 19l135 104c8 6 18 4 24 0l138 -104c5 -4 10 -11 6 -19l-34 -46c-5 -7 -14 -9 -21 -5l-99 58z" />
    <glyph glyph-name="Wdieresis" unicode="&#x1e84;" horiz-adv-x="884" 
d="M207 4l-189 672c-4 14 4 24 18 24h117c8 0 16 -7 18 -14l86 -339h4l155 352c3 6 9 11 17 11h18c9 0 15 -5 17 -11l155 -352h4l86 339c2 7 10 14 18 14h117c14 0 22 -10 18 -24l-189 -672c-2 -8 -10 -14 -18 -14h-16c-7 0 -14 5 -17 11l-183 409h-3l-182 -409
c-3 -6 -10 -11 -17 -11h-16c-8 0 -16 6 -18 14zM572 763c-42 0 -75 34 -75 76s33 75 75 75s76 -33 76 -75s-34 -76 -76 -76zM307 763c-42 0 -75 34 -75 76s33 75 75 75s76 -33 76 -75s-34 -76 -76 -76z" />
    <glyph glyph-name="Wgrave" unicode="&#x1e80;" horiz-adv-x="884" 
d="M207 4l-189 672c-4 14 4 24 18 24h117c8 0 16 -7 18 -14l86 -339h4l155 352c3 6 9 11 17 11h18c9 0 15 -5 17 -11l155 -352h4l86 339c2 7 10 14 18 14h117c14 0 22 -10 18 -24l-189 -672c-2 -8 -10 -14 -18 -14h-16c-7 0 -14 5 -17 11l-183 409h-3l-182 -409
c-3 -6 -10 -11 -17 -11h-16c-8 0 -16 6 -18 14zM512 762l-182 82c-8 5 -14 15 -6 30l34 59c5 9 20 7 26 3l170 -104c5 -4 10 -11 6 -19l-21 -42c-5 -10 -14 -17 -27 -9z" />
    <glyph glyph-name="Yacute" unicode="&#xdd;" horiz-adv-x="602" 
d="M222 19v318l-221 334c-8 13 0 29 16 29h130c8 0 13 -5 16 -9l139 -205l139 205c3 4 7 9 16 9h130c16 0 24 -16 16 -29l-224 -333v-319c0 -10 -9 -19 -19 -19h-119c-11 0 -19 9 -19 19zM231 762c-13 -8 -22 -1 -27 9l-21 42c-4 8 1 15 6 19l170 104c6 4 21 6 26 -3l34 -59
c8 -15 2 -25 -6 -30z" />
    <glyph glyph-name="Ycircumflex" unicode="&#x176;" horiz-adv-x="602" 
d="M222 19v318l-221 334c-8 13 0 29 16 29h130c8 0 13 -5 16 -9l139 -205l139 205c3 4 7 9 16 9h130c16 0 24 -16 16 -29l-224 -333v-319c0 -10 -9 -19 -19 -19h-119c-11 0 -19 9 -19 19zM203 762c-11 -6 -16 -4 -22 4l-33 47c-5 7 1 15 6 19l135 104c8 6 18 4 24 0
l138 -104c5 -4 10 -11 6 -19l-34 -46c-5 -7 -14 -9 -21 -5l-99 58z" />
    <glyph glyph-name="Ydieresis" unicode="&#x178;" horiz-adv-x="602" 
d="M222 19v318l-221 334c-8 13 0 29 16 29h130c8 0 13 -5 16 -9l139 -205l139 205c3 4 7 9 16 9h130c16 0 24 -16 16 -29l-224 -333v-319c0 -10 -9 -19 -19 -19h-119c-11 0 -19 9 -19 19zM434 763c-42 0 -75 34 -75 76s33 75 75 75s76 -33 76 -75s-34 -76 -76 -76zM169 763
c-42 0 -75 34 -75 76s33 75 75 75s76 -33 76 -75s-34 -76 -76 -76z" />
    <glyph glyph-name="Ygrave" unicode="&#x1ef2;" horiz-adv-x="602" 
d="M222 19v318l-221 334c-8 13 0 29 16 29h130c8 0 13 -5 16 -9l139 -205l139 205c3 4 7 9 16 9h130c16 0 24 -16 16 -29l-224 -333v-319c0 -10 -9 -19 -19 -19h-119c-11 0 -19 9 -19 19zM373 762l-182 82c-8 5 -14 15 -6 30l34 59c5 9 20 7 26 3l170 -104
c5 -4 10 -11 6 -19l-21 -42c-5 -10 -14 -17 -27 -9z" />
    <glyph glyph-name="Zacute" unicode="&#x179;" horiz-adv-x="542" 
d="M23 19v7c0 9 1 15 6 24l260 501v2h-218c-10 0 -19 9 -19 19v109c0 10 9 19 19 19h425c10 0 19 -7 19 -17v-8c0 -6 -1 -9 -6 -19l-251 -507v-2h218c11 0 19 -9 19 -19v-109c0 -10 -8 -19 -19 -19h-434c-10 0 -19 9 -19 19zM208 762c-13 -8 -22 -1 -27 9l-21 42
c-4 8 1 15 6 19l170 104c6 4 21 6 26 -3l34 -59c8 -15 2 -25 -6 -30z" />
    <glyph glyph-name="Zcaron" unicode="&#x17d;" horiz-adv-x="542" 
d="M23 19v7c0 9 1 15 6 24l260 501v2h-218c-10 0 -19 9 -19 19v109c0 10 9 19 19 19h425c10 0 19 -7 19 -17v-8c0 -6 -1 -9 -6 -19l-251 -507v-2h218c11 0 19 -9 19 -19v-109c0 -10 -8 -19 -19 -19h-434c-10 0 -19 9 -19 19zM268 762l-138 104c-5 4 -10 11 -6 19l34 46
c5 7 14 9 21 5l99 -58l100 58c11 6 16 4 22 -4l33 -47c5 -7 -1 -15 -6 -19l-135 -104c-8 -6 -18 -4 -24 0z" />
    <glyph glyph-name="Zdotaccent" unicode="&#x17b;" horiz-adv-x="542" 
d="M23 19v7c0 9 1 15 6 24l260 501v2h-218c-10 0 -19 9 -19 19v109c0 10 9 19 19 19h425c10 0 19 -7 19 -17v-8c0 -6 -1 -9 -6 -19l-251 -507v-2h218c11 0 19 -9 19 -19v-109c0 -10 -8 -19 -19 -19h-434c-10 0 -19 9 -19 19zM279 766c-48 0 -86 39 -86 86c0 48 38 88 86 88
s87 -40 87 -88c0 -47 -39 -86 -87 -86z" />
    <glyph glyph-name="agrave" unicode="&#xe0;" horiz-adv-x="489" 
d="M29 141c0 89 65 154 170 154c52 0 91 -20 91 -20c0 45 -10 71 -64 71c-32 0 -86 -7 -116 -16c-18 -6 -26 7 -28 24l-11 71c-3 20 8 29 18 32c11 4 92 15 154 15c143 0 193 -58 193 -195v-255c0 -12 -11 -22 -22 -22h-49c-7 0 -15 2 -21 15l-15 31
c-28 -24 -67 -57 -140 -57c-91 0 -160 60 -160 152zM178 152c0 -28 23 -51 51 -51s52 23 52 51c0 27 -24 51 -52 51s-51 -24 -51 -51zM332 512l-182 82c-8 5 -14 15 -6 30l34 59c5 9 20 7 26 3l170 -104c5 -4 10 -11 6 -19l-21 -42c-5 -10 -14 -17 -27 -9z" />
    <glyph glyph-name="aacute" unicode="&#xe1;" horiz-adv-x="489" 
d="M29 141c0 89 65 154 170 154c52 0 91 -20 91 -20c0 45 -10 71 -64 71c-32 0 -86 -7 -116 -16c-18 -6 -26 7 -28 24l-11 71c-3 20 8 29 18 32c11 4 92 15 154 15c143 0 193 -58 193 -195v-255c0 -12 -11 -22 -22 -22h-49c-7 0 -15 2 -21 15l-15 31
c-28 -24 -67 -57 -140 -57c-91 0 -160 60 -160 152zM178 152c0 -28 23 -51 51 -51s52 23 52 51c0 27 -24 51 -52 51s-51 -24 -51 -51zM170 512c-13 -8 -22 -1 -27 9l-21 42c-4 8 1 15 6 19l170 104c6 4 21 6 26 -3l34 -59c8 -15 2 -25 -6 -30z" />
    <glyph glyph-name="acircumflex" unicode="&#xe2;" horiz-adv-x="489" 
d="M29 141c0 89 65 154 170 154c52 0 91 -20 91 -20c0 45 -10 71 -64 71c-32 0 -86 -7 -116 -16c-18 -6 -26 7 -28 24l-11 71c-3 20 8 29 18 32c11 4 92 15 154 15c143 0 193 -58 193 -195v-255c0 -12 -11 -22 -22 -22h-49c-7 0 -15 2 -21 15l-15 31
c-28 -24 -67 -57 -140 -57c-91 0 -160 60 -160 152zM178 152c0 -28 23 -51 51 -51s52 23 52 51c0 27 -24 51 -52 51s-51 -24 -51 -51zM153 512c-11 -6 -16 -4 -22 4l-33 47c-5 7 1 15 6 19l135 104c8 6 18 4 24 0l138 -104c5 -4 10 -11 6 -19l-34 -46c-5 -7 -14 -9 -21 -5
l-99 58z" />
    <glyph glyph-name="atilde" unicode="&#xe3;" horiz-adv-x="489" 
d="M29 141c0 89 65 154 170 154c52 0 91 -20 91 -20c0 45 -10 71 -64 71c-32 0 -86 -7 -116 -16c-18 -6 -26 7 -28 24l-11 71c-3 20 8 29 18 32c11 4 92 15 154 15c143 0 193 -58 193 -195v-255c0 -12 -11 -22 -22 -22h-49c-7 0 -15 2 -21 15l-15 31
c-28 -24 -67 -57 -140 -57c-91 0 -160 60 -160 152zM178 152c0 -28 23 -51 51 -51s52 23 52 51c0 27 -24 51 -52 51s-51 -24 -51 -51zM121 555l-35 28c-7 5 -9 16 -6 23c10 18 53 84 107 84c48 0 69 -47 108 -47c16 0 31 20 38 31c5 8 15 11 25 2l34 -26c8 -6 9 -17 1 -29
c-10 -17 -47 -78 -100 -78c-52 0 -76 48 -110 48c-18 0 -31 -25 -40 -35c-6 -6 -13 -7 -22 -1z" />
    <glyph glyph-name="adieresis" unicode="&#xe4;" horiz-adv-x="489" 
d="M29 141c0 89 65 154 170 154c52 0 91 -20 91 -20c0 45 -10 71 -64 71c-32 0 -86 -7 -116 -16c-18 -6 -26 7 -28 24l-11 71c-3 20 8 29 18 32c11 4 92 15 154 15c143 0 193 -58 193 -195v-255c0 -12 -11 -22 -22 -22h-49c-7 0 -15 2 -21 15l-15 31
c-28 -24 -67 -57 -140 -57c-91 0 -160 60 -160 152zM178 152c0 -28 23 -51 51 -51s52 23 52 51c0 27 -24 51 -52 51s-51 -24 -51 -51zM353 530c-42 0 -75 34 -75 76s33 75 75 75s76 -33 76 -75s-34 -76 -76 -76zM148 530c-42 0 -75 34 -75 76s33 75 75 75s76 -33 76 -75
s-34 -76 -76 -76z" />
    <glyph glyph-name="amacron" unicode="&#x101;" horiz-adv-x="489" 
d="M29 141c0 89 65 154 170 154c52 0 91 -20 91 -20c0 45 -10 71 -64 71c-32 0 -86 -7 -116 -16c-18 -6 -26 7 -28 24l-11 71c-3 20 8 29 18 32c11 4 92 15 154 15c143 0 193 -58 193 -195v-255c0 -12 -11 -22 -22 -22h-49c-7 0 -15 2 -21 15l-15 31
c-28 -24 -67 -57 -140 -57c-91 0 -160 60 -160 152zM178 152c0 -28 23 -51 51 -51s52 23 52 51c0 27 -24 51 -52 51s-51 -24 -51 -51zM121 563c-11 0 -19 8 -19 18v41c0 11 8 19 19 19h256c11 0 19 -8 19 -19v-41c0 -10 -8 -18 -19 -18h-256z" />
    <glyph glyph-name="abreve" unicode="&#x103;" horiz-adv-x="489" 
d="M29 141c0 89 65 154 170 154c52 0 91 -20 91 -20c0 45 -10 71 -64 71c-32 0 -86 -7 -116 -16c-18 -6 -26 7 -28 24l-11 71c-3 20 8 29 18 32c11 4 92 15 154 15c143 0 193 -58 193 -195v-255c0 -12 -11 -22 -22 -22h-49c-7 0 -15 2 -21 15l-15 31
c-28 -24 -67 -57 -140 -57c-91 0 -160 60 -160 152zM178 152c0 -28 23 -51 51 -51s52 23 52 51c0 27 -24 51 -52 51s-51 -24 -51 -51zM252 527c-74 0 -132 52 -142 120c-2 12 6 22 19 22h45c8 0 15 -6 17 -12c9 -27 32 -48 61 -48c26 0 50 24 59 48c2 7 10 12 17 12h47
c12 0 20 -10 19 -22c-11 -68 -69 -120 -142 -120z" />
    <glyph glyph-name="aring" unicode="&#xe5;" horiz-adv-x="489" 
d="M29 141c0 89 65 154 170 154c52 0 91 -20 91 -20c0 45 -10 71 -64 71c-32 0 -86 -7 -116 -16c-18 -6 -26 7 -28 24l-11 71c-3 20 8 29 18 32c11 4 92 15 154 15c143 0 193 -58 193 -195v-255c0 -12 -11 -22 -22 -22h-49c-7 0 -15 2 -21 15l-15 31
c-28 -24 -67 -57 -140 -57c-91 0 -160 60 -160 152zM178 152c0 -28 23 -51 51 -51s52 23 52 51c0 27 -24 51 -52 51s-51 -24 -51 -51zM251 510c-64 0 -115 51 -115 115s51 115 115 115c63 0 115 -51 115 -115s-52 -115 -115 -115zM251 581c23 0 43 21 43 44s-20 43 -43 43
s-44 -20 -44 -43s21 -44 44 -44z" />
    <glyph glyph-name="aringacute" unicode="&#x1fb;" horiz-adv-x="489" 
d="M250 509c-64 0 -115 41 -115 105s51 105 115 105c63 0 115 -41 115 -105s-52 -105 -115 -105zM250 580c23 0 43 11 43 34s-20 33 -43 33s-44 -10 -44 -33s21 -34 44 -34zM179 721c-13 -8 -22 -1 -27 9l-21 42c-4 8 1 15 6 19l170 84c6 4 22 6 27 -3l33 -59
c8 -15 2 -25 -6 -30zM29 141c0 89 65 154 170 154c52 0 91 -20 91 -20c0 45 -10 71 -64 71c-32 0 -86 -7 -116 -16c-18 -6 -26 7 -28 24l-11 71c-3 20 8 29 18 32c11 4 92 15 154 15c143 0 193 -58 193 -195v-255c0 -12 -11 -22 -22 -22h-49c-7 0 -15 2 -21 15l-15 31
c-28 -24 -67 -57 -140 -57c-91 0 -160 60 -160 152zM178 152c0 -28 23 -51 51 -51s52 23 52 51c0 27 -24 51 -52 51s-51 -24 -51 -51z" />
    <glyph glyph-name="aogonek" unicode="&#x105;" horiz-adv-x="489" 
d="M29 141c0 89 65 154 170 154c52 0 91 -20 91 -20c0 45 -10 71 -64 71c-32 0 -86 -7 -116 -16c-18 -6 -26 7 -28 24l-11 71c-3 20 8 29 18 32c11 4 92 15 154 15c143 0 193 -58 193 -195v-250c0 -15 -10 -22 -17 -27c-34 -23 -90 -73 -90 -118c0 -28 14 -37 34 -37
c26 0 52 21 60 29c9 9 22 4 22 -8v-57c0 -13 -3 -25 -16 -34c-17 -11 -52 -24 -92 -24c-72 0 -108 48 -108 107c0 69 75 129 116 154l-16 34c-28 -24 -67 -57 -140 -57c-91 0 -160 60 -160 152zM178 152c0 -28 23 -51 51 -51s52 23 52 51c0 27 -24 51 -52 51
s-51 -24 -51 -51z" />
    <glyph glyph-name="ae" unicode="&#xe6;" horiz-adv-x="764" 
d="M29 143c0 86 62 152 173 152c46 0 88 -20 88 -20c1 52 -15 71 -62 71c-32 0 -88 -7 -117 -15c-14 -4 -24 0 -27 19l-13 83c-1 11 9 21 19 23c0 0 92 16 154 16c70 0 116 -13 146 -39c37 25 83 39 132 39c117 0 218 -89 218 -216c0 -21 1 -50 -23 -50h-286
c1 -35 35 -79 95 -79c44 0 71 16 90 29c7 7 22 9 28 0l50 -68c9 -8 10 -23 1 -31c-42 -43 -98 -68 -170 -68c-68 0 -132 28 -174 76c-14 -18 -71 -76 -161 -76c-98 0 -161 62 -161 154zM448 294h136c-2 31 -28 57 -67 57c-38 0 -63 -26 -69 -57zM178 152
c0 -28 23 -51 51 -51s52 23 52 51c0 27 -24 51 -52 51s-51 -24 -51 -51z" />
    <glyph glyph-name="aeacute" unicode="&#x1fd;" horiz-adv-x="764" 
d="M29 143c0 86 62 152 173 152c46 0 88 -20 88 -20c1 52 -15 71 -62 71c-32 0 -88 -7 -117 -15c-14 -4 -24 0 -27 19l-13 83c-1 11 9 21 19 23c0 0 92 16 154 16c70 0 116 -13 146 -39c37 25 83 39 132 39c117 0 218 -89 218 -216c0 -21 1 -50 -23 -50h-286
c1 -35 35 -79 95 -79c44 0 71 16 90 29c7 7 22 9 28 0l50 -68c9 -8 10 -23 1 -31c-42 -43 -98 -68 -170 -68c-68 0 -132 28 -174 76c-14 -18 -71 -76 -161 -76c-98 0 -161 62 -161 154zM448 294h136c-2 31 -28 57 -67 57c-38 0 -63 -26 -69 -57zM178 152
c0 -28 23 -51 51 -51s52 23 52 51c0 27 -24 51 -52 51s-51 -24 -51 -51zM348 512c-13 -8 -22 -1 -27 9l-21 42c-4 8 1 15 6 19l170 104c6 4 21 6 26 -3l34 -59c8 -15 2 -25 -6 -30z" />
    <glyph glyph-name="cacute" unicode="&#x107;" horiz-adv-x="481" 
d="M29 231c0 136 113 241 245 241c73 0 129 -29 173 -81c9 -11 5 -24 -6 -33l-65 -63c-5 -5 -17 -6 -26 2c-19 17 -42 33 -71 33c-53 0 -98 -47 -98 -99c0 -56 43 -99 96 -99c43 0 63 18 83 38c8 10 20 12 26 4l65 -56c10 -10 16 -21 8 -33c-43 -64 -103 -96 -186 -96
c-132 0 -244 103 -244 242zM210 512c-13 -8 -22 -1 -27 9l-21 42c-4 8 1 15 6 19l170 104c6 4 21 6 26 -3l34 -59c8 -15 2 -25 -6 -30z" />
    <glyph glyph-name="ccircumflex" unicode="&#x109;" horiz-adv-x="481" 
d="M29 231c0 136 113 241 245 241c73 0 129 -29 173 -81c9 -11 5 -24 -6 -33l-65 -63c-5 -5 -17 -6 -26 2c-19 17 -42 33 -71 33c-53 0 -98 -47 -98 -99c0 -56 43 -99 96 -99c43 0 63 18 83 38c8 10 20 12 26 4l65 -56c10 -10 16 -21 8 -33c-43 -64 -103 -96 -186 -96
c-132 0 -244 103 -244 242zM181 512c-11 -6 -16 -4 -22 4l-33 47c-5 7 1 15 6 19l135 104c8 6 18 4 24 0l138 -104c5 -4 10 -11 6 -19l-34 -46c-5 -7 -14 -9 -21 -5l-99 58z" />
    <glyph glyph-name="ccaron" unicode="&#x10d;" horiz-adv-x="481" 
d="M29 231c0 136 113 241 245 241c73 0 129 -29 173 -81c9 -11 5 -24 -6 -33l-65 -63c-5 -5 -17 -6 -26 2c-19 17 -42 33 -71 33c-53 0 -98 -47 -98 -99c0 -56 43 -99 96 -99c43 0 63 18 83 38c8 10 20 12 26 4l65 -56c10 -10 16 -21 8 -33c-43 -64 -103 -96 -186 -96
c-132 0 -244 103 -244 242zM265 512l-138 104c-5 4 -10 11 -6 19l34 46c5 7 14 9 21 5l99 -58l100 58c11 6 16 4 22 -4l33 -47c5 -7 -1 -15 -6 -19l-135 -104c-8 -6 -18 -4 -24 0z" />
    <glyph glyph-name="cdotaccent" unicode="&#x10b;" horiz-adv-x="481" 
d="M29 231c0 136 113 241 245 241c73 0 129 -29 173 -81c9 -11 5 -24 -6 -33l-65 -63c-5 -5 -17 -6 -26 2c-19 17 -42 33 -71 33c-53 0 -98 -47 -98 -99c0 -56 43 -99 96 -99c43 0 63 18 83 38c8 10 20 12 26 4l65 -56c10 -10 16 -21 8 -33c-43 -64 -103 -96 -186 -96
c-132 0 -244 103 -244 242zM278 526c-48 0 -86 39 -86 86c0 48 38 88 86 88s87 -40 87 -88c0 -47 -39 -86 -87 -86z" />
    <glyph glyph-name="ccedilla" unicode="&#xe7;" horiz-adv-x="481" 
d="M29 231c0 136 113 241 245 241c73 0 129 -29 173 -81c9 -11 5 -24 -6 -33l-65 -63c-5 -5 -17 -6 -26 2c-19 17 -42 33 -71 33c-53 0 -98 -47 -98 -99c0 -56 43 -99 96 -99c43 0 63 18 83 38c8 10 20 12 26 4l65 -56c10 -10 16 -21 8 -33c-40 -60 -95 -91 -169 -95
l-29 -47c6 1 11 1 15 1c45 0 90 -24 90 -88c0 -68 -57 -105 -125 -105c-39 0 -67 10 -84 24c-9 8 -7 18 -1 31l10 23c7 16 17 19 30 10c5 -4 22 -13 40 -13c25 0 42 10 42 33s-17 33 -42 33c-17 0 -28 -6 -36 -9c-11 -4 -25 9 -20 19l43 92c-109 22 -194 116 -194 237z" />
    <glyph glyph-name="dcaron" unicode="&#x10f;" horiz-adv-x="583" 
d="M31 231c0 163 106 241 229 241c45 0 92 -14 107 -26v232c0 11 10 22 22 22h108c12 0 22 -11 22 -22v-656c0 -12 -10 -22 -22 -22h-45c-11 0 -20 10 -24 23l-13 38s-54 -72 -156 -72c-130 0 -228 110 -228 242zM184 232c0 -57 43 -100 98 -100c57 0 98 43 98 100
c0 56 -41 98 -98 98c-55 0 -98 -42 -98 -98zM531 630c0 51 36 80 86 80c51 0 96 -28 96 -104c0 -70 -27 -115 -52 -149c-7 -7 -15 -7 -23 -1l-30 22c-9 6 -9 16 -2 23c14 17 24 44 24 65v7c0 0 -14 -9 -33 -9c-41 0 -66 28 -66 66z" />
    <glyph glyph-name="dcroat" unicode="&#x111;" horiz-adv-x="576" 
d="M31 231c0 163 106 241 229 241c45 0 92 -14 107 -26v85h-100c-11 0 -19 8 -19 18v18c0 10 8 19 19 19h100v92c0 11 10 22 22 22h108c12 0 22 -11 22 -22v-92h25c10 0 18 -9 18 -19v-17c0 -10 -8 -19 -18 -19h-25v-509c0 -12 -10 -22 -22 -22h-45c-11 0 -20 10 -24 23
l-13 38s-54 -72 -156 -72c-130 0 -228 110 -228 242zM184 232c0 -57 43 -100 98 -100c57 0 98 43 98 100c0 56 -41 98 -98 98c-55 0 -98 -42 -98 -98z" />
    <glyph glyph-name="eth" unicode="&#xf0;" horiz-adv-x="551" 
d="M31 226c0 150 108 223 205 223c29 0 71 -9 98 -21c-12 53 -50 91 -92 118l-79 -45c-11 -7 -21 -4 -26 6l-9 15c-6 9 -4 22 6 27l48 28c-15 9 -50 21 -63 25c-14 4 -17 12 -12 25l30 80c5 13 17 20 39 13c18 -6 74 -31 132 -71l73 43c9 5 21 1 26 -8l9 -15
c5 -9 3 -21 -6 -26l-54 -31c84 -72 159 -182 159 -342c0 -161 -89 -280 -248 -280c-129 0 -236 106 -236 236zM170 231c0 -54 44 -99 99 -99c54 0 99 45 99 99s-45 100 -99 100c-55 0 -99 -46 -99 -100z" />
    <glyph glyph-name="egrave" unicode="&#xe8;" horiz-adv-x="513" 
d="M30 231c0 130 103 241 240 241c117 0 219 -89 219 -216c0 -7 -1 -23 -2 -30c-1 -12 -12 -20 -22 -20h-285c0 -36 33 -80 96 -80c30 0 68 15 88 29c10 9 22 9 29 0l51 -67c7 -9 9 -23 -1 -33c-40 -41 -98 -66 -171 -66c-138 0 -242 99 -242 242zM197 294h136
c-2 31 -28 57 -67 57c-38 0 -63 -26 -69 -57zM347 512l-182 82c-8 5 -14 15 -6 30l34 59c5 9 20 7 26 3l170 -104c5 -4 10 -11 6 -19l-21 -42c-5 -10 -14 -17 -27 -9z" />
    <glyph glyph-name="eacute" unicode="&#xe9;" horiz-adv-x="513" 
d="M30 231c0 130 103 241 240 241c117 0 219 -89 219 -216c0 -7 -1 -23 -2 -30c-1 -12 -12 -20 -22 -20h-285c0 -36 33 -80 96 -80c30 0 68 15 88 29c10 9 22 9 29 0l51 -67c7 -9 9 -23 -1 -33c-40 -41 -98 -66 -171 -66c-138 0 -242 99 -242 242zM197 294h136
c-2 31 -28 57 -67 57c-38 0 -63 -26 -69 -57zM199 512c-13 -8 -22 -1 -27 9l-21 42c-4 8 1 15 6 19l170 104c6 4 21 6 26 -3l34 -59c8 -15 2 -25 -6 -30z" />
    <glyph glyph-name="ecircumflex" unicode="&#xea;" horiz-adv-x="513" 
d="M30 231c0 130 103 241 240 241c117 0 219 -89 219 -216c0 -7 -1 -23 -2 -30c-1 -12 -12 -20 -22 -20h-285c0 -36 33 -80 96 -80c30 0 68 15 88 29c10 9 22 9 29 0l51 -67c7 -9 9 -23 -1 -33c-40 -41 -98 -66 -171 -66c-138 0 -242 99 -242 242zM197 294h136
c-2 31 -28 57 -67 57c-38 0 -63 -26 -69 -57zM174 512c-11 -6 -16 -4 -22 4l-33 47c-5 7 1 15 6 19l135 104c8 6 18 4 24 0l138 -104c5 -4 10 -11 6 -19l-34 -46c-5 -7 -14 -9 -21 -5l-99 58z" />
    <glyph glyph-name="ecaron" unicode="&#x11b;" horiz-adv-x="513" 
d="M30 231c0 130 103 241 240 241c117 0 219 -89 219 -216c0 -7 -1 -23 -2 -30c-1 -12 -12 -20 -22 -20h-285c0 -36 33 -80 96 -80c30 0 68 15 88 29c10 9 22 9 29 0l51 -67c7 -9 9 -23 -1 -33c-40 -41 -98 -66 -171 -66c-138 0 -242 99 -242 242zM197 294h136
c-2 31 -28 57 -67 57c-38 0 -63 -26 -69 -57zM262 512l-138 104c-5 4 -10 11 -6 19l34 46c5 7 14 9 21 5l99 -58l100 58c11 6 16 4 22 -4l33 -47c5 -7 -1 -15 -6 -19l-135 -104c-8 -6 -18 -4 -24 0z" />
    <glyph glyph-name="edieresis" unicode="&#xeb;" horiz-adv-x="513" 
d="M30 231c0 130 103 241 240 241c117 0 219 -89 219 -216c0 -7 -1 -23 -2 -30c-1 -12 -12 -20 -22 -20h-285c0 -36 33 -80 96 -80c30 0 68 15 88 29c10 9 22 9 29 0l51 -67c7 -9 9 -23 -1 -33c-40 -41 -98 -66 -171 -66c-138 0 -242 99 -242 242zM197 294h136
c-2 31 -28 57 -67 57c-38 0 -63 -26 -69 -57zM375 530c-42 0 -75 34 -75 76s33 75 75 75s76 -33 76 -75s-34 -76 -76 -76zM170 530c-42 0 -75 34 -75 76s33 75 75 75s76 -33 76 -75s-34 -76 -76 -76z" />
    <glyph glyph-name="emacron" unicode="&#x113;" horiz-adv-x="513" 
d="M30 231c0 130 103 241 240 241c117 0 219 -89 219 -216c0 -7 -1 -23 -2 -30c-1 -12 -12 -20 -22 -20h-285c0 -36 33 -80 96 -80c30 0 68 15 88 29c10 9 22 9 29 0l51 -67c7 -9 9 -23 -1 -33c-40 -41 -98 -66 -171 -66c-138 0 -242 99 -242 242zM197 294h136
c-2 31 -28 57 -67 57c-38 0 -63 -26 -69 -57zM142 563c-11 0 -19 8 -19 18v41c0 11 8 19 19 19h256c11 0 19 -8 19 -19v-41c0 -10 -8 -18 -19 -18h-256z" />
    <glyph glyph-name="ebreve" unicode="&#x115;" horiz-adv-x="513" 
d="M30 231c0 130 103 241 240 241c117 0 219 -89 219 -216c0 -7 -1 -23 -2 -30c-1 -12 -12 -20 -22 -20h-285c0 -36 33 -80 96 -80c30 0 68 15 88 29c10 9 22 9 29 0l51 -67c7 -9 9 -23 -1 -33c-40 -41 -98 -66 -171 -66c-138 0 -242 99 -242 242zM197 294h136
c-2 31 -28 57 -67 57c-38 0 -63 -26 -69 -57zM273 527c-74 0 -132 52 -142 120c-2 12 6 22 19 22h45c8 0 15 -6 17 -12c9 -27 32 -48 61 -48c26 0 50 24 59 48c2 7 10 12 17 12h47c12 0 20 -10 19 -22c-11 -68 -69 -120 -142 -120z" />
    <glyph glyph-name="edotaccent" unicode="&#x117;" horiz-adv-x="513" 
d="M30 231c0 130 103 241 240 241c117 0 219 -89 219 -216c0 -7 -1 -23 -2 -30c-1 -12 -12 -20 -22 -20h-285c0 -36 33 -80 96 -80c30 0 68 15 88 29c10 9 22 9 29 0l51 -67c7 -9 9 -23 -1 -33c-40 -41 -98 -66 -171 -66c-138 0 -242 99 -242 242zM197 294h136
c-2 31 -28 57 -67 57c-38 0 -63 -26 -69 -57zM270 526c-48 0 -86 39 -86 86c0 48 38 88 86 88s87 -40 87 -88c0 -47 -39 -86 -87 -86z" />
    <glyph glyph-name="eogonek" unicode="&#x119;" horiz-adv-x="513" 
d="M30 231c0 130 103 241 240 241c117 0 219 -89 219 -216c0 -7 -1 -23 -2 -30c-1 -12 -12 -20 -22 -20h-285c0 -36 33 -80 96 -80c30 0 68 15 88 29c10 9 22 9 29 0l51 -67c7 -9 9 -23 -1 -33c-25 -26 -57 -45 -95 -55c-29 -22 -88 -74 -88 -118c0 -28 14 -37 34 -37
c26 0 52 21 60 29c9 9 22 4 22 -8v-57c0 -13 -3 -25 -16 -34c-17 -11 -52 -24 -92 -24c-72 0 -108 48 -108 107c0 62 43 106 77 133c-120 15 -207 109 -207 240zM197 294h136c-2 31 -28 57 -67 57c-38 0 -63 -26 -69 -57z" />
    <glyph glyph-name="gcircumflex" unicode="&#x11d;" horiz-adv-x="575" 
d="M190 512c-11 -6 -16 -4 -22 4l-33 47c-5 7 1 15 6 19l135 104c8 6 18 4 24 0l138 -104c5 -4 10 -11 6 -19l-34 -46c-5 -7 -14 -9 -21 -5l-99 58zM519 440v-425c0 -167 -108 -246 -247 -246c-69 0 -149 31 -172 50c-7 6 -9 16 -5 26l35 84c4 9 17 15 27 9
c22 -13 60 -37 112 -37c57 0 98 22 98 92v24c-15 -12 -64 -28 -107 -28c-123 0 -229 80 -229 243c0 132 98 240 228 240c102 0 156 -71 156 -71l13 38c4 12 13 23 24 23h45c12 0 22 -11 22 -22zM184 231c0 -56 43 -99 98 -99c57 0 98 43 98 99c0 55 -41 99 -98 99
c-55 0 -98 -44 -98 -99z" />
    <glyph glyph-name="gbreve" unicode="&#x11f;" horiz-adv-x="575" 
d="M288 527c-74 0 -132 52 -142 120c-2 12 6 22 19 22h45c8 0 15 -6 17 -12c9 -27 32 -48 61 -48c26 0 50 24 59 48c2 7 10 12 17 12h47c12 0 20 -10 19 -22c-11 -68 -69 -120 -142 -120zM519 440v-425c0 -167 -108 -246 -247 -246c-69 0 -149 31 -172 50c-7 6 -9 16 -5 26
l35 84c4 9 17 15 27 9c22 -13 60 -37 112 -37c57 0 98 22 98 92v24c-15 -12 -64 -28 -107 -28c-123 0 -229 80 -229 243c0 132 98 240 228 240c102 0 156 -71 156 -71l13 38c4 12 13 23 24 23h45c12 0 22 -11 22 -22zM184 231c0 -56 43 -99 98 -99c57 0 98 43 98 99
c0 55 -41 99 -98 99c-55 0 -98 -44 -98 -99z" />
    <glyph glyph-name="gdotaccent" unicode="&#x121;" horiz-adv-x="575" 
d="M519 440v-425c0 -167 -108 -246 -247 -246c-69 0 -149 31 -172 50c-7 6 -9 16 -5 26l35 84c4 9 17 15 27 9c22 -13 60 -37 112 -37c57 0 98 22 98 92v24c-15 -12 -64 -28 -107 -28c-123 0 -229 80 -229 243c0 132 98 240 228 240c102 0 156 -71 156 -71l13 38
c4 12 13 23 24 23h45c12 0 22 -11 22 -22zM184 231c0 -56 43 -99 98 -99c57 0 98 43 98 99c0 55 -41 99 -98 99c-55 0 -98 -44 -98 -99zM269 526c-48 0 -86 39 -86 86c0 48 38 88 86 88s87 -40 87 -88c0 -47 -39 -86 -87 -86z" />
    <glyph glyph-name="gcommaaccent" unicode="&#x123;" horiz-adv-x="575" 
d="M519 440v-425c0 -167 -108 -246 -247 -246c-69 0 -149 31 -172 50c-7 6 -9 16 -5 26l35 84c4 9 17 15 27 9c22 -13 60 -37 112 -37c57 0 98 22 98 92v24c-15 -12 -64 -28 -107 -28c-123 0 -229 80 -229 243c0 132 98 240 228 240c102 0 156 -71 156 -71l13 38
c4 12 13 23 24 23h45c12 0 22 -11 22 -22zM184 231c0 -56 43 -99 98 -99c57 0 98 43 98 99c0 55 -41 99 -98 99c-55 0 -98 -44 -98 -99zM381 592c0 -51 -36 -80 -86 -80c-51 0 -96 28 -96 104c0 70 27 115 52 149c7 7 14 7 23 1l30 -22c9 -6 9 -17 2 -23
c-14 -17 -25 -44 -25 -65v-7c0 0 15 9 33 9c42 0 67 -28 67 -66z" />
    <glyph glyph-name="hcircumflex" unicode="&#x125;" horiz-adv-x="549" 
d="M57 22v656c0 11 10 22 22 22h108c12 0 22 -11 22 -22v-239c32 22 64 33 98 33c145 0 191 -106 191 -234v-216c0 -12 -11 -22 -22 -22h-108c-13 0 -22 10 -22 22v218c0 52 -19 90 -69 90c-37 0 -68 -20 -68 -90v-218c0 -15 -5 -22 -25 -22h-105c-12 0 -22 10 -22 22z
M25 729c-11 -6 -16 -4 -22 4l-33 47c-5 7 1 15 6 19l135 104c8 6 18 4 24 0l138 -104c5 -4 10 -11 6 -19l-34 -46c-5 -7 -14 -9 -21 -5l-99 58z" />
    <glyph glyph-name="hbar" unicode="&#x127;" horiz-adv-x="568" 
d="M57 22v509h-24c-10 0 -18 9 -18 19v17c0 10 8 19 18 19h24v92c0 11 10 22 22 22h108c12 0 22 -11 22 -22v-92h101c11 0 19 -9 19 -19v-18c0 -10 -8 -18 -19 -18h-101v-92c32 22 74 33 108 33c145 0 201 -106 201 -234v-216c0 -12 -11 -22 -22 -22h-108
c-13 0 -22 10 -22 22v218c0 52 -29 90 -79 90c-37 0 -78 -20 -78 -90v-218c0 -15 -5 -22 -25 -22h-105c-12 0 -22 10 -22 22z" />
    <glyph glyph-name="dotlessi" unicode="&#x131;" horiz-adv-x="283" 
d="M56 22v418c0 13 10 22 22 22h127c12 0 22 -9 22 -22v-418c0 -12 -10 -22 -22 -22h-127c-12 0 -22 10 -22 22z" />
    <glyph glyph-name="igrave" unicode="&#xec;" horiz-adv-x="283" 
d="M56 22v418c0 13 10 22 22 22h127c12 0 22 -9 22 -22v-418c0 -12 -10 -22 -22 -22h-127c-12 0 -22 10 -22 22zM217 512l-182 82c-8 5 -14 15 -6 30l34 59c5 9 20 7 26 3l170 -104c5 -4 10 -11 6 -19l-21 -42c-5 -10 -14 -17 -27 -9z" />
    <glyph glyph-name="iacute" unicode="&#xed;" horiz-adv-x="283" 
d="M56 22v418c0 13 10 22 22 22h127c12 0 22 -9 22 -22v-418c0 -12 -10 -22 -22 -22h-127c-12 0 -22 10 -22 22zM57 512c-13 -8 -22 -1 -27 9l-21 42c-4 8 1 15 6 19l170 104c6 4 21 6 26 -3l34 -59c8 -15 2 -25 -6 -30z" />
    <glyph glyph-name="ibreve" unicode="&#x12d;" horiz-adv-x="283" 
d="M56 22v418c0 13 10 22 22 22h127c12 0 22 -9 22 -22v-418c0 -12 -10 -22 -22 -22h-127c-12 0 -22 10 -22 22zM138 527c-74 0 -132 52 -142 120c-2 12 6 22 19 22h45c8 0 15 -6 17 -12c9 -27 32 -48 61 -48c26 0 50 24 59 48c2 7 10 12 17 12h47c12 0 20 -10 19 -22
c-11 -68 -69 -120 -142 -120z" />
    <glyph glyph-name="icircumflex" unicode="&#xee;" horiz-adv-x="283" 
d="M56 22v418c0 13 10 22 22 22h127c12 0 22 -9 22 -22v-418c0 -12 -10 -22 -22 -22h-127c-12 0 -22 10 -22 22zM41 512c-11 -6 -16 -4 -22 4l-33 47c-5 7 1 15 6 19l135 104c8 6 18 4 24 0l138 -104c5 -4 10 -11 6 -19l-34 -46c-5 -7 -14 -9 -21 -5l-99 58z" />
    <glyph glyph-name="itilde" unicode="&#x129;" horiz-adv-x="283" 
d="M56 22v418c0 13 10 22 22 22h127c12 0 22 -9 22 -22v-418c0 -12 -10 -22 -22 -22h-127c-12 0 -22 10 -22 22zM23 555l-35 28c-7 5 -9 16 -6 23c10 18 53 84 107 84c48 0 69 -47 108 -47c16 0 31 20 38 31c5 8 15 11 25 2l34 -26c8 -6 9 -17 1 -29
c-10 -17 -47 -78 -100 -78c-52 0 -76 48 -110 48c-18 0 -31 -25 -40 -35c-6 -6 -13 -7 -22 -1z" />
    <glyph glyph-name="idieresis" unicode="&#xef;" horiz-adv-x="283" 
d="M56 22v418c0 13 10 22 22 22h127c12 0 22 -9 22 -22v-418c0 -12 -10 -22 -22 -22h-127c-12 0 -22 10 -22 22zM247 530c-42 0 -75 34 -75 76s33 75 75 75s76 -33 76 -75s-34 -76 -76 -76zM42 530c-42 0 -75 34 -75 76s33 75 75 75s76 -33 76 -75s-34 -76 -76 -76z" />
    <glyph glyph-name="imacron" unicode="&#x12b;" horiz-adv-x="283" 
d="M56 22v418c0 13 10 22 22 22h127c12 0 22 -9 22 -22v-418c0 -12 -10 -22 -22 -22h-127c-12 0 -22 10 -22 22zM12 563c-11 0 -19 8 -19 18v41c0 11 8 19 19 19h256c11 0 19 -8 19 -19v-41c0 -10 -8 -18 -19 -18h-256z" />
    <glyph glyph-name="iogonek" unicode="&#x12f;" horiz-adv-x="264" 
d="M56 22v418c0 13 10 22 22 22h108c12 0 22 -9 22 -22v-406c0 -15 -12 -28 -21 -34c-29 -21 -89 -73 -89 -118c0 -28 14 -37 34 -37c26 0 52 21 60 29c9 9 22 4 22 -8v-57c0 -13 -3 -25 -16 -34c-17 -11 -52 -24 -92 -24c-72 0 -108 48 -108 107c0 70 54 116 89 142h-9
c-12 0 -22 10 -22 22zM131 526c-48 0 -86 39 -86 86c0 48 38 88 86 88s87 -40 87 -88c0 -47 -39 -86 -87 -86z" />
    <glyph glyph-name="dotlessj" unicode="&#x237;" horiz-adv-x="266" 
d="M209 440v-444c0 -142 -81 -218 -170 -241c-28 -7 -41 -2 -49 17l-29 73c-8 21 6 30 16 34c41 16 80 44 80 105v456c0 13 10 22 22 22h108c12 0 22 -9 22 -22z" />
    <glyph glyph-name="jcircumflex" unicode="&#x135;" horiz-adv-x="266" 
d="M209 440v-444c0 -142 -81 -218 -170 -241c-28 -7 -41 -2 -49 17l-29 73c-8 21 6 30 16 34c41 16 80 44 80 105v456c0 13 10 22 22 22h108c12 0 22 -9 22 -22zM30 512c-11 -6 -16 -4 -22 4l-33 47c-5 7 1 15 6 19l135 104c8 6 18 4 24 0l138 -104c5 -4 10 -11 6 -19
l-34 -46c-5 -7 -14 -9 -21 -5l-99 58z" />
    <glyph glyph-name="kcommaaccent" unicode="&#x137;" horiz-adv-x="537" 
d="M57 22v656c0 11 10 22 22 22h108c12 0 22 -11 22 -22v-391l130 161c7 7 16 14 29 14h123c20 0 31 -21 18 -36l-154 -178l163 -213c12 -15 3 -35 -17 -35h-138c-4 0 -12 4 -16 9l-138 201v-188c0 -12 -10 -22 -22 -22h-108c-12 0 -22 10 -22 22zM186 -144
c0 51 36 80 86 80c51 0 96 -28 96 -104c0 -70 -27 -115 -52 -149c-7 -7 -15 -7 -23 -1l-30 22c-9 6 -9 16 -2 23c14 17 24 44 24 65v7c0 0 -14 -9 -33 -9c-41 0 -66 28 -66 66z" />
    <glyph glyph-name="kgreenlandic" unicode="&#x138;" horiz-adv-x="550" 
d="M56 22v417c0 11 10 22 22 22h108c12 0 22 -11 22 -22v-175l140 184c7 7 16 14 29 14h123c20 0 32 -21 18 -36l-164 -199l183 -192c12 -15 3 -35 -17 -35h-138c-4 0 -12 4 -16 9l-158 178v-165c0 -12 -10 -22 -22 -22h-108c-12 0 -22 10 -22 22z" />
    <glyph glyph-name="lacute" unicode="&#x13a;" horiz-adv-x="266" 
d="M57 22v656c0 11 10 22 22 22h108c12 0 22 -11 22 -22v-656c0 -12 -10 -22 -22 -22h-108c-12 0 -22 10 -22 22zM62 729c-13 -8 -22 -1 -27 9l-21 42c-4 8 1 15 6 19l170 104c6 4 21 6 26 -3l34 -59c8 -15 2 -25 -6 -30z" />
    <glyph glyph-name="lcaron" unicode="&#x13e;" horiz-adv-x="273" 
d="M57 22v656c0 11 10 22 22 22h108c12 0 22 -11 22 -22v-656c0 -12 -10 -22 -22 -22h-108c-12 0 -22 10 -22 22zM233 630c0 51 36 80 86 80c51 0 96 -28 96 -104c0 -70 -27 -115 -52 -149c-7 -7 -15 -7 -23 -1l-30 22c-9 6 -9 16 -2 23c14 17 24 44 24 65v7
c0 0 -14 -9 -33 -9c-41 0 -66 28 -66 66z" />
    <glyph glyph-name="lcommaaccent" unicode="&#x13c;" horiz-adv-x="266" 
d="M57 22v656c0 11 10 22 22 22h108c12 0 22 -11 22 -22v-656c0 -12 -10 -22 -22 -22h-108c-12 0 -22 10 -22 22zM42 -144c0 51 36 80 86 80c51 0 96 -28 96 -104c0 -70 -27 -115 -52 -149c-7 -7 -15 -7 -23 -1l-30 22c-9 6 -9 16 -2 23c14 17 24 44 24 65v7
c0 0 -14 -9 -33 -9c-41 0 -66 28 -66 66z" />
    <glyph glyph-name="lslash" unicode="&#x142;" horiz-adv-x="295" 
d="M69 22v282l-6 -3l-18 -10c-9 -5 -21 -2 -26 7l-8 15c-5 8 -3 20 6 25l46 27l6 3v310c0 11 10 22 22 22h108c12 0 22 -11 22 -22v-221l5 3l43 26c10 5 21 2 26 -7l9 -16c5 -8 2 -19 -7 -25l-71 -42l-5 -3v-371c0 -12 -10 -22 -22 -22h-108c-12 0 -22 10 -22 22z" />
    <glyph glyph-name="ldot" unicode="&#x140;" horiz-adv-x="455" 
d="M57 22v656c0 11 10 22 22 22h108c12 0 22 -11 22 -22v-656c0 -12 -10 -22 -22 -22h-108c-12 0 -22 10 -22 22zM356 253c-48 0 -86 39 -86 86c0 48 38 88 86 88s87 -40 87 -88c0 -47 -39 -86 -87 -86z" />
    <glyph glyph-name="nacute" unicode="&#x144;" horiz-adv-x="549" 
d="M56 22v418c0 13 10 22 22 22h45c7 0 16 -5 21 -14l17 -46c25 28 60 70 144 70c144 0 193 -102 193 -229v-221c0 -12 -10 -22 -21 -22h-109c-13 0 -22 10 -22 22v223c0 44 -15 85 -67 85c-46 0 -70 -32 -70 -79v-229c0 -10 -5 -22 -21 -22h-110c-12 0 -22 10 -22 22z
M221 512c-13 -8 -22 -1 -27 9l-21 42c-4 8 1 15 6 19l170 104c6 4 21 6 26 -3l34 -59c8 -15 2 -25 -6 -30z" />
    <glyph glyph-name="ncaron" unicode="&#x148;" horiz-adv-x="549" 
d="M56 22v418c0 13 10 22 22 22h45c7 0 16 -5 21 -14l17 -46c25 28 60 70 144 70c144 0 193 -102 193 -229v-221c0 -12 -10 -22 -21 -22h-109c-13 0 -22 10 -22 22v223c0 44 -15 85 -67 85c-46 0 -70 -32 -70 -79v-229c0 -10 -5 -22 -21 -22h-110c-12 0 -22 10 -22 22z
M280 512l-138 104c-5 4 -10 11 -6 19l34 46c5 7 14 9 21 5l99 -58l100 58c11 6 16 4 22 -4l33 -47c5 -7 -1 -15 -6 -19l-135 -104c-8 -6 -18 -4 -24 0z" />
    <glyph glyph-name="ntilde" unicode="&#xf1;" horiz-adv-x="549" 
d="M56 22v418c0 13 10 22 22 22h45c7 0 16 -5 21 -14l17 -46c25 28 60 70 144 70c144 0 193 -102 193 -229v-221c0 -12 -10 -22 -21 -22h-109c-13 0 -22 10 -22 22v223c0 44 -15 85 -67 85c-46 0 -70 -32 -70 -79v-229c0 -10 -5 -22 -21 -22h-110c-12 0 -22 10 -22 22z
M168 555l-35 28c-7 5 -9 16 -6 23c10 18 53 84 107 84c48 0 69 -47 108 -47c16 0 31 20 38 31c5 8 15 11 25 2l34 -26c8 -6 9 -17 1 -29c-10 -17 -47 -78 -100 -78c-52 0 -76 48 -110 48c-18 0 -31 -25 -40 -35c-6 -6 -13 -7 -22 -1z" />
    <glyph glyph-name="ncommaaccent" unicode="&#x146;" horiz-adv-x="549" 
d="M56 22v418c0 13 10 22 22 22h45c7 0 16 -5 21 -14l17 -46c25 28 60 70 144 70c144 0 193 -102 193 -229v-221c0 -12 -10 -22 -21 -22h-109c-13 0 -22 10 -22 22v223c0 44 -15 85 -67 85c-46 0 -70 -32 -70 -79v-229c0 -10 -5 -22 -21 -22h-110c-12 0 -22 10 -22 22z
M190 -144c0 51 36 80 86 80c51 0 96 -28 96 -104c0 -70 -27 -115 -52 -149c-7 -7 -15 -7 -23 -1l-30 22c-9 6 -9 16 -2 23c14 17 24 44 24 65v7c0 0 -14 -9 -33 -9c-41 0 -66 28 -66 66z" />
    <glyph glyph-name="napostrophe" unicode="&#x149;" horiz-adv-x="574" 
d="M-95 630c0 51 36 80 86 80c51 0 96 -28 96 -104c0 -70 -27 -115 -52 -149c-7 -7 -15 -7 -23 -1l-30 22c-9 6 -9 16 -2 23c14 17 24 44 24 65v7c0 0 -14 -9 -33 -9c-41 0 -66 28 -66 66zM81 22v418c0 13 10 22 22 22h45c7 0 16 -5 21 -14l17 -46c25 28 60 70 144 70
c144 0 193 -102 193 -229v-221c0 -12 -10 -22 -21 -22h-109c-13 0 -22 10 -22 22v223c0 44 -15 85 -67 85c-46 0 -70 -32 -70 -79v-229c0 -10 -5 -22 -21 -22h-110c-12 0 -22 10 -22 22z" />
    <glyph glyph-name="ograve" unicode="&#xf2;" horiz-adv-x="539" 
d="M29 232c0 130 109 240 241 240s240 -110 240 -240c0 -132 -108 -243 -240 -243s-241 111 -241 243zM173 232c0 -54 43 -100 97 -100c53 0 96 46 96 100c0 53 -43 98 -96 98c-54 0 -97 -45 -97 -98zM345 512l-182 82c-8 5 -14 15 -6 30l34 59c5 9 20 7 26 3l170 -104
c5 -4 10 -11 6 -19l-21 -42c-5 -10 -14 -17 -27 -9z" />
    <glyph glyph-name="oacute" unicode="&#xf3;" horiz-adv-x="539" 
d="M29 232c0 130 109 240 241 240s240 -110 240 -240c0 -132 -108 -243 -240 -243s-241 111 -241 243zM173 232c0 -54 43 -100 97 -100c53 0 96 46 96 100c0 53 -43 98 -96 98c-54 0 -97 -45 -97 -98zM201 512c-13 -8 -22 -1 -27 9l-21 42c-4 8 1 15 6 19l170 104
c6 4 21 6 26 -3l34 -59c8 -15 2 -25 -6 -30z" />
    <glyph glyph-name="ocircumflex" unicode="&#xf4;" horiz-adv-x="539" 
d="M29 232c0 130 109 240 241 240s240 -110 240 -240c0 -132 -108 -243 -240 -243s-241 111 -241 243zM173 232c0 -54 43 -100 97 -100c53 0 96 46 96 100c0 53 -43 98 -96 98c-54 0 -97 -45 -97 -98zM172 512c-11 -6 -16 -4 -22 4l-33 47c-5 7 1 15 6 19l135 104
c8 6 18 4 24 0l138 -104c5 -4 10 -11 6 -19l-34 -46c-5 -7 -14 -9 -21 -5l-99 58z" />
    <glyph glyph-name="otilde" unicode="&#xf5;" horiz-adv-x="539" 
d="M29 232c0 130 109 240 241 240s240 -110 240 -240c0 -132 -108 -243 -240 -243s-241 111 -241 243zM173 232c0 -54 43 -100 97 -100c53 0 96 46 96 100c0 53 -43 98 -96 98c-54 0 -97 -45 -97 -98zM154 555l-35 28c-7 5 -9 16 -6 23c10 18 53 84 107 84
c48 0 69 -47 108 -47c16 0 31 20 38 31c5 8 15 11 25 2l34 -26c8 -6 9 -17 1 -29c-10 -17 -47 -78 -100 -78c-52 0 -76 48 -110 48c-18 0 -31 -25 -40 -35c-6 -6 -13 -7 -22 -1z" />
    <glyph glyph-name="odieresis" unicode="&#xf6;" horiz-adv-x="539" 
d="M29 232c0 130 109 240 241 240s240 -110 240 -240c0 -132 -108 -243 -240 -243s-241 111 -241 243zM173 232c0 -54 43 -100 97 -100c53 0 96 46 96 100c0 53 -43 98 -96 98c-54 0 -97 -45 -97 -98zM372 530c-42 0 -75 34 -75 76s33 75 75 75s76 -33 76 -75
s-34 -76 -76 -76zM167 530c-42 0 -75 34 -75 76s33 75 75 75s76 -33 76 -75s-34 -76 -76 -76z" />
    <glyph glyph-name="omacron" unicode="&#x14d;" horiz-adv-x="539" 
d="M29 232c0 130 109 240 241 240s240 -110 240 -240c0 -132 -108 -243 -240 -243s-241 111 -241 243zM173 232c0 -54 43 -100 97 -100c53 0 96 46 96 100c0 53 -43 98 -96 98c-54 0 -97 -45 -97 -98zM142 563c-11 0 -19 8 -19 18v41c0 11 8 19 19 19h256c11 0 19 -8 19 -19
v-41c0 -10 -8 -18 -19 -18h-256z" />
    <glyph glyph-name="obreve" unicode="&#x14f;" horiz-adv-x="539" 
d="M29 232c0 130 109 240 241 240s240 -110 240 -240c0 -132 -108 -243 -240 -243s-241 111 -241 243zM173 232c0 -54 43 -100 97 -100c53 0 96 46 96 100c0 53 -43 98 -96 98c-54 0 -97 -45 -97 -98zM272 527c-74 0 -132 52 -142 120c-2 12 6 22 19 22h45c8 0 15 -6 17 -12
c9 -27 32 -48 61 -48c26 0 50 24 59 48c2 7 10 12 17 12h47c12 0 20 -10 19 -22c-11 -68 -69 -120 -142 -120z" />
    <glyph glyph-name="ohungarumlaut" unicode="&#x151;" horiz-adv-x="539" 
d="M29 232c0 130 109 240 241 240s240 -110 240 -240c0 -132 -108 -243 -240 -243s-241 111 -241 243zM173 232c0 -54 43 -100 97 -100c53 0 96 46 96 100c0 53 -43 98 -96 98c-54 0 -97 -45 -97 -98zM320 521c-10 0 -22 9 -19 19l30 141c3 10 9 19 19 19h94
c19 0 26 -13 18 -25l-78 -139c-5 -7 -11 -15 -18 -15h-46zM154 521c-10 0 -22 9 -19 19l30 141c3 10 9 19 19 19h94c19 0 25 -12 18 -25l-78 -139c-4 -8 -11 -15 -18 -15h-46z" />
    <glyph glyph-name="oslash" unicode="&#xf8;" horiz-adv-x="540" 
d="M30 232c0 130 109 240 241 240c55 0 106 -19 146 -51l34 34c8 9 22 8 30 0l14 -14c9 -7 9 -21 0 -29l-34 -35c31 -40 50 -91 50 -145c0 -132 -108 -243 -240 -243c-54 0 -104 18 -144 49l-29 -29c-8 -8 -22 -7 -29 1l-15 14c-7 9 -8 22 -1 31l28 28
c-32 42 -51 93 -51 149zM174 232c0 -16 4 -32 10 -45l131 131c-13 8 -28 12 -44 12c-54 0 -97 -45 -97 -98zM367 232c0 14 -3 28 -9 41l-129 -132c12 -6 27 -9 42 -9c53 0 96 46 96 100z" />
    <glyph glyph-name="oslashacute" unicode="&#x1ff;" horiz-adv-x="540" 
d="M30 232c0 130 109 240 241 240c55 0 106 -19 146 -51l34 34c8 9 22 8 30 0l14 -14c9 -7 9 -21 0 -29l-34 -35c31 -40 50 -91 50 -145c0 -132 -108 -243 -240 -243c-54 0 -104 18 -144 49l-29 -29c-8 -8 -22 -7 -29 1l-15 14c-7 9 -8 22 -1 31l28 28
c-32 42 -51 93 -51 149zM174 232c0 -16 4 -32 10 -45l131 131c-13 8 -28 12 -44 12c-54 0 -97 -45 -97 -98zM367 232c0 14 -3 28 -9 41l-129 -132c12 -6 27 -9 42 -9c53 0 96 46 96 100zM199 512c-13 -8 -22 -1 -27 9l-21 42c-4 8 1 15 6 19l170 104c6 4 21 6 26 -3l34 -59
c8 -15 2 -25 -6 -30z" />
    <glyph glyph-name="oe" unicode="&#x153;" horiz-adv-x="825" 
d="M29 233c0 130 109 239 241 239c59 0 113 -24 155 -59c41 36 95 59 157 59c117 0 219 -89 219 -216c0 -7 -1 -23 -2 -30c-1 -12 -12 -20 -22 -20h-285c-1 -32 32 -80 92 -80c40 0 74 17 92 29c8 6 21 10 28 1l52 -68c8 -8 9 -23 1 -31c-42 -43 -100 -68 -173 -68
c-62 0 -117 23 -159 59c-42 -36 -96 -59 -155 -59c-132 0 -241 112 -241 244zM174 232c0 -54 43 -100 97 -100c53 0 96 46 96 100c0 53 -43 98 -96 98c-54 0 -97 -45 -97 -98zM509 294h136c-2 31 -28 57 -67 57c-38 0 -63 -26 -69 -57z" />
    <glyph glyph-name="racute" unicode="&#x155;" horiz-adv-x="382" 
d="M56 22v418c0 13 10 22 22 22h48c12 0 18 -6 21 -14l21 -51c20 37 55 75 115 75c42 0 73 -11 90 -24c8 -6 8 -16 3 -25l-46 -91c-5 -9 -13 -16 -26 -11c-8 3 -25 7 -35 7c-35 0 -61 -25 -61 -64v-242c0 -14 -8 -22 -25 -22h-105c-12 0 -22 10 -22 22zM125 512
c-13 -8 -22 -1 -27 9l-21 42c-4 8 1 15 6 19l170 104c6 4 21 6 26 -3l34 -59c8 -15 2 -25 -6 -30z" />
    <glyph glyph-name="rcaron" unicode="&#x159;" horiz-adv-x="382" 
d="M56 22v418c0 13 10 22 22 22h48c12 0 18 -6 21 -14l21 -51c20 37 55 75 115 75c42 0 73 -11 90 -24c8 -6 8 -16 3 -25l-46 -91c-5 -9 -13 -16 -26 -11c-8 3 -25 7 -35 7c-35 0 -61 -25 -61 -64v-242c0 -14 -8 -22 -25 -22h-105c-12 0 -22 10 -22 22zM187 512l-138 104
c-5 4 -10 11 -6 19l34 46c5 7 14 9 21 5l99 -58l100 58c11 6 16 4 22 -4l33 -47c5 -7 -1 -15 -6 -19l-135 -104c-8 -6 -18 -4 -24 0z" />
    <glyph glyph-name="rcommaaccent" unicode="&#x157;" horiz-adv-x="382" 
d="M56 22v418c0 13 10 22 22 22h48c12 0 18 -6 21 -14l21 -51c20 37 55 75 115 75c42 0 73 -11 90 -24c8 -6 8 -16 3 -25l-46 -91c-5 -9 -13 -16 -26 -11c-8 3 -25 7 -35 7c-35 0 -61 -25 -61 -64v-242c0 -14 -8 -22 -25 -22h-105c-12 0 -22 10 -22 22zM46 -144
c0 51 36 80 86 80c51 0 96 -28 96 -104c0 -70 -27 -115 -52 -149c-7 -7 -15 -7 -23 -1l-30 22c-9 6 -9 16 -2 23c14 17 24 44 24 65v7c0 0 -14 -9 -33 -9c-41 0 -66 28 -66 66z" />
    <glyph glyph-name="sacute" unicode="&#x15b;" horiz-adv-x="431" 
d="M212 -11c-75 0 -135 20 -165 38c-10 6 -13 14 -8 24l37 76c3 8 14 15 24 10c37 -18 72 -29 114 -29c30 0 35 11 35 22c0 15 -25 27 -79 48c-89 35 -135 76 -135 150c0 83 55 144 175 144c60 0 123 -17 158 -35c12 -6 18 -18 12 -30l-36 -74c-3 -8 -15 -12 -24 -8
c-31 15 -71 28 -108 28c-26 0 -33 -7 -33 -19s19 -22 52 -34c93 -34 169 -71 169 -164c0 -80 -65 -147 -188 -147zM152 512c-13 -8 -22 -1 -27 9l-21 42c-4 8 1 15 6 19l170 104c6 4 21 6 26 -3l34 -59c8 -15 2 -25 -6 -30z" />
    <glyph glyph-name="scircumflex" unicode="&#x15d;" horiz-adv-x="431" 
d="M212 -11c-75 0 -135 20 -165 38c-10 6 -13 14 -8 24l37 76c3 8 14 15 24 10c37 -18 72 -29 114 -29c30 0 35 11 35 22c0 15 -25 27 -79 48c-89 35 -135 76 -135 150c0 83 55 144 175 144c60 0 123 -17 158 -35c12 -6 18 -18 12 -30l-36 -74c-3 -8 -15 -12 -24 -8
c-31 15 -71 28 -108 28c-26 0 -33 -7 -33 -19s19 -22 52 -34c93 -34 169 -71 169 -164c0 -80 -65 -147 -188 -147zM118 512c-11 -6 -16 -4 -22 4l-33 47c-5 7 1 15 6 19l135 104c8 6 18 4 24 0l138 -104c5 -4 10 -11 6 -19l-34 -46c-5 -7 -14 -9 -21 -5l-99 58z" />
    <glyph glyph-name="scaron" unicode="&#x161;" horiz-adv-x="431" 
d="M212 -11c-75 0 -135 20 -165 38c-10 6 -13 14 -8 24l37 76c3 8 14 15 24 10c37 -18 72 -29 114 -29c30 0 35 11 35 22c0 15 -25 27 -79 48c-89 35 -135 76 -135 150c0 83 55 144 175 144c60 0 123 -17 158 -35c12 -6 18 -18 12 -30l-36 -74c-3 -8 -15 -12 -24 -8
c-31 15 -71 28 -108 28c-26 0 -33 -7 -33 -19s19 -22 52 -34c93 -34 169 -71 169 -164c0 -80 -65 -147 -188 -147zM206 512l-138 104c-5 4 -10 11 -6 19l34 46c5 7 14 9 21 5l99 -58l100 58c11 6 16 4 22 -4l33 -47c5 -7 -1 -15 -6 -19l-135 -104c-8 -6 -18 -4 -24 0z" />
    <glyph glyph-name="scedilla" unicode="&#x15f;" horiz-adv-x="431" 
d="M47 27c-8 8 -13 14 -8 24l41 80c3 8 14 15 24 10c31 -16 67 -33 109 -33c23 0 36 7 36 18c0 15 -16 28 -79 52c-89 34 -135 76 -135 150c0 83 55 144 180 144c73 0 128 -19 153 -35c11 -8 18 -18 12 -30l-43 -77c-3 -8 -15 -12 -24 -8c-20 10 -61 31 -100 31
c-21 0 -34 -6 -34 -18s13 -21 52 -35c94 -32 169 -71 169 -164c0 -73 -55 -136 -163 -145l-30 -48c6 1 11 1 15 1c45 0 90 -24 90 -88c0 -68 -57 -105 -125 -105c-39 0 -67 10 -84 24c-9 8 -7 18 -1 31l10 23c7 16 17 19 30 10c5 -4 22 -13 40 -13c25 0 42 10 42 33
s-17 33 -42 33c-17 0 -28 -6 -36 -9c-11 -4 -25 9 -20 19l41 89c-58 5 -101 21 -120 36z" />
    <glyph glyph-name="scommaaccent" unicode="&#x219;" horiz-adv-x="431" 
d="M212 -11c-75 0 -135 20 -165 38c-10 6 -13 14 -8 24l37 76c3 8 14 15 24 10c37 -18 72 -29 114 -29c30 0 35 11 35 22c0 15 -25 27 -79 48c-89 35 -135 76 -135 150c0 83 55 144 175 144c60 0 123 -17 158 -35c12 -6 18 -18 12 -30l-36 -74c-3 -8 -15 -12 -24 -8
c-31 15 -71 28 -108 28c-26 0 -33 -7 -33 -19s19 -22 52 -34c93 -34 169 -71 169 -164c0 -80 -65 -147 -188 -147zM133 -144c0 51 36 80 86 80c51 0 96 -28 96 -104c0 -70 -27 -115 -52 -149c-7 -7 -15 -7 -23 -1l-30 22c-9 6 -9 16 -2 23c14 17 24 44 24 65v7
c0 0 -14 -9 -33 -9c-41 0 -66 28 -66 66z" />
    <glyph glyph-name="germandbls" unicode="&#xdf;" horiz-adv-x="580" 
d="M57 21v403c0 191 98 286 239 286c107 0 203 -77 203 -179c0 -96 -79 -127 -79 -166c0 -19 19 -35 44 -55c39 -32 88 -75 88 -148c0 -128 -109 -171 -209 -173c-10 0 -20 7 -23 16l-20 93c-3 11 5 24 17 25c39 3 60 19 60 51c0 34 -24 48 -48 68c-35 29 -72 60 -72 112
c0 80 84 106 84 162c0 28 -22 50 -53 50c-48 0 -79 -32 -79 -145v-400c0 -11 -9 -21 -20 -21h-111c-11 0 -21 10 -21 21z" />
    <glyph glyph-name="tcaron" unicode="&#x165;" horiz-adv-x="420" 
d="M85 150v175h-38c-11 0 -20 10 -20 22v93c0 13 9 22 20 22h38v128c0 12 10 22 22 22h110c11 0 20 -10 20 -22v-128h93c12 0 22 -9 22 -22v-93c0 -12 -10 -22 -22 -22h-93v-161c0 -22 11 -32 31 -32c16 0 46 7 57 10c12 3 23 -2 26 -14l20 -87c3 -14 -2 -20 -15 -26
c-31 -13 -83 -26 -132 -26c-88 0 -139 56 -139 161zM313 630c0 51 36 80 86 80c51 0 96 -28 96 -104c0 -70 -27 -115 -52 -149c-7 -7 -15 -7 -23 -1l-30 22c-9 6 -9 16 -2 23c14 17 24 44 24 65v7c0 0 -14 -9 -33 -9c-41 0 -66 28 -66 66z" />
    <glyph glyph-name="tcommaaccent" unicode="&#x163;" horiz-adv-x="396" 
d="M89 150v175h-38c-11 0 -20 10 -20 22v93c0 13 9 22 20 22h38v128c0 12 10 22 22 22h110c11 0 20 -10 20 -22v-128h93c12 0 22 -9 22 -22v-93c0 -12 -10 -22 -22 -22h-93v-161c0 -22 11 -32 31 -32c16 0 46 7 57 10c12 3 23 -2 26 -14l20 -87c3 -14 -2 -20 -15 -26
c-25 -11 -62 -20 -101 -24l-30 -48c6 1 11 1 15 1c45 0 90 -24 90 -88c0 -68 -57 -105 -125 -105c-39 0 -67 10 -84 24c-9 8 -7 18 -1 31l10 23c7 16 17 19 30 10c5 -4 22 -13 40 -13c25 0 42 10 42 33s-17 33 -42 33c-17 0 -28 -6 -36 -9c-11 -4 -25 9 -20 19l42 91
c-64 14 -101 68 -101 157z" />
    <glyph glyph-name="uni021B" unicode="&#x21b;" horiz-adv-x="392" 
d="M85 150v175h-38c-11 0 -20 10 -20 22v93c0 13 9 22 20 22h38v128c0 12 10 22 22 22h110c11 0 20 -10 20 -22v-128h93c12 0 22 -9 22 -22v-93c0 -12 -10 -22 -22 -22h-93v-161c0 -22 11 -32 31 -32c16 0 46 7 57 10c12 3 23 -2 26 -14l20 -87c3 -14 -2 -20 -15 -26
c-31 -13 -83 -26 -132 -26c-88 0 -139 56 -139 161zM133 -144c0 51 36 80 86 80c51 0 96 -28 96 -104c0 -70 -27 -115 -52 -149c-7 -7 -15 -7 -23 -1l-30 22c-9 6 -9 16 -2 23c14 17 24 44 24 65v7c0 0 -14 -9 -33 -9c-41 0 -66 28 -66 66z" />
    <glyph glyph-name="tbar" unicode="&#x167;" horiz-adv-x="395" 
d="M86 150v44h-31c-11 0 -20 11 -20 22v19c0 12 9 22 20 22h31v58h-31c-23 0 -27 12 -27 22v103c0 13 9 22 20 22h7h31v128c0 12 10 22 22 22h110c11 0 20 -10 20 -22v-128h93h7c12 0 22 -9 22 -22v-103c0 -12 -10 -22 -22 -22h-100v-58h100c12 0 22 -10 22 -22v-20
c0 -11 -10 -21 -22 -21h-100v-30c0 -22 11 -32 31 -32c16 0 46 7 57 10c12 3 23 -2 26 -14l20 -87c3 -14 -2 -20 -15 -26c-31 -13 -83 -26 -132 -26c-88 0 -139 56 -139 161z" />
    <glyph glyph-name="thorn" unicode="&#xfe;" horiz-adv-x="575" 
d="M209 7v-224c0 -11 -10 -21 -21 -21h-110c-11 0 -21 10 -21 21v896c0 11 10 21 21 21h109c11 0 21 -10 21 -21v-233c20 14 60 26 106 26c125 0 229 -76 229 -241c0 -159 -106 -241 -239 -241c-30 0 -68 4 -95 17zM198 232c0 -57 41 -98 98 -98c55 0 97 41 97 98
c0 56 -42 96 -97 96c-57 0 -98 -40 -98 -96z" />
    <glyph glyph-name="ugrave" unicode="&#xf9;" horiz-adv-x="537" 
d="M52 209v231c0 13 10 22 21 22h109c12 0 22 -9 22 -22v-228c0 -52 15 -80 62 -80c45 0 63 31 63 72v236c0 19 14 22 25 22h105c12 0 22 -9 22 -22v-418c0 -12 -10 -22 -22 -22h-46c-10 0 -18 8 -22 16l-16 43c-28 -29 -77 -70 -146 -70c-135 0 -177 89 -177 220zM345 512
l-182 82c-8 5 -14 15 -6 30l34 59c5 9 20 7 26 3l170 -104c5 -4 10 -11 6 -19l-21 -42c-5 -10 -14 -17 -27 -9z" />
    <glyph glyph-name="uacute" unicode="&#xfa;" horiz-adv-x="537" 
d="M52 209v231c0 13 10 22 21 22h109c12 0 22 -9 22 -22v-228c0 -52 15 -80 62 -80c45 0 63 31 63 72v236c0 19 14 22 25 22h105c12 0 22 -9 22 -22v-418c0 -12 -10 -22 -22 -22h-46c-10 0 -18 8 -22 16l-16 43c-28 -29 -77 -70 -146 -70c-135 0 -177 89 -177 220zM201 512
c-13 -8 -22 -1 -27 9l-21 42c-4 8 1 15 6 19l170 104c6 4 21 6 26 -3l34 -59c8 -15 2 -25 -6 -30z" />
    <glyph glyph-name="ucircumflex" unicode="&#xfb;" horiz-adv-x="537" 
d="M52 209v231c0 13 10 22 21 22h109c12 0 22 -9 22 -22v-228c0 -52 15 -80 62 -80c45 0 63 31 63 72v236c0 19 14 22 25 22h105c12 0 22 -9 22 -22v-418c0 -12 -10 -22 -22 -22h-46c-10 0 -18 8 -22 16l-16 43c-28 -29 -77 -70 -146 -70c-135 0 -177 89 -177 220zM173 512
c-11 -6 -16 -4 -22 4l-33 47c-5 7 1 15 6 19l135 104c8 6 18 4 24 0l138 -104c5 -4 10 -11 6 -19l-34 -46c-5 -7 -14 -9 -21 -5l-99 58z" />
    <glyph glyph-name="utilde" unicode="&#x169;" horiz-adv-x="537" 
d="M52 209v231c0 13 10 22 21 22h109c12 0 22 -9 22 -22v-228c0 -52 15 -80 62 -80c45 0 63 31 63 72v236c0 19 14 22 25 22h105c12 0 22 -9 22 -22v-418c0 -12 -10 -22 -22 -22h-46c-10 0 -18 8 -22 16l-16 43c-28 -29 -77 -70 -146 -70c-135 0 -177 89 -177 220zM155 555
l-35 28c-7 5 -9 16 -6 23c10 18 53 84 107 84c48 0 69 -47 108 -47c16 0 31 20 38 31c5 8 15 11 25 2l34 -26c8 -6 9 -17 1 -29c-10 -17 -47 -78 -100 -78c-52 0 -76 48 -110 48c-18 0 -31 -25 -40 -35c-6 -6 -13 -7 -22 -1z" />
    <glyph glyph-name="udieresis" unicode="&#xfc;" horiz-adv-x="537" 
d="M52 209v231c0 13 10 22 21 22h109c12 0 22 -9 22 -22v-228c0 -52 15 -80 62 -80c45 0 63 31 63 72v236c0 19 14 22 25 22h105c12 0 22 -9 22 -22v-418c0 -12 -10 -22 -22 -22h-46c-10 0 -18 8 -22 16l-16 43c-28 -29 -77 -70 -146 -70c-135 0 -177 89 -177 220zM374 530
c-42 0 -75 34 -75 76s33 75 75 75s76 -33 76 -75s-34 -76 -76 -76zM169 530c-42 0 -75 34 -75 76s33 75 75 75s76 -33 76 -75s-34 -76 -76 -76z" />
    <glyph glyph-name="umacron" unicode="&#x16b;" horiz-adv-x="537" 
d="M52 209v231c0 13 10 22 21 22h109c12 0 22 -9 22 -22v-228c0 -52 15 -80 62 -80c45 0 63 31 63 72v236c0 19 14 22 25 22h105c12 0 22 -9 22 -22v-418c0 -12 -10 -22 -22 -22h-46c-10 0 -18 8 -22 16l-16 43c-28 -29 -77 -70 -146 -70c-135 0 -177 89 -177 220zM143 563
c-11 0 -19 8 -19 18v41c0 11 8 19 19 19h256c11 0 19 -8 19 -19v-41c0 -10 -8 -18 -19 -18h-256z" />
    <glyph glyph-name="ubreve" unicode="&#x16d;" horiz-adv-x="537" 
d="M52 209v231c0 13 10 22 21 22h109c12 0 22 -9 22 -22v-228c0 -52 15 -80 62 -80c45 0 63 31 63 72v236c0 19 14 22 25 22h105c12 0 22 -9 22 -22v-418c0 -12 -10 -22 -22 -22h-46c-10 0 -18 8 -22 16l-16 43c-28 -29 -77 -70 -146 -70c-135 0 -177 89 -177 220zM274 527
c-74 0 -132 52 -142 120c-2 12 6 22 19 22h45c8 0 15 -6 17 -12c9 -27 32 -48 61 -48c26 0 50 24 59 48c2 7 10 12 17 12h47c12 0 20 -10 19 -22c-11 -68 -69 -120 -142 -120z" />
    <glyph glyph-name="uring" unicode="&#x16f;" horiz-adv-x="537" 
d="M52 209v231c0 13 10 22 21 22h109c12 0 22 -9 22 -22v-228c0 -52 15 -80 62 -80c45 0 63 31 63 72v236c0 19 14 22 25 22h105c12 0 22 -9 22 -22v-418c0 -12 -10 -22 -22 -22h-46c-10 0 -18 8 -22 16l-16 43c-28 -29 -77 -70 -146 -70c-135 0 -177 89 -177 220zM274 511
c-64 0 -115 51 -115 115s51 115 115 115c63 0 115 -51 115 -115s-52 -115 -115 -115zM274 582c23 0 43 21 43 44s-20 43 -43 43s-44 -20 -44 -43s21 -44 44 -44z" />
    <glyph glyph-name="uhungarumlaut" unicode="&#x171;" horiz-adv-x="536" 
d="M51 209v231c0 13 10 22 21 22h109c12 0 22 -9 22 -22v-228c0 -52 15 -80 62 -80c45 0 63 31 63 72v236c0 19 14 22 25 22h105c12 0 22 -9 22 -22v-418c0 -12 -10 -22 -22 -22h-46c-10 0 -18 8 -22 16l-16 43c-28 -29 -77 -70 -146 -70c-135 0 -177 89 -177 220zM325 521
c-10 0 -22 9 -19 19l30 141c3 10 9 19 19 19h94c19 0 26 -13 18 -25l-78 -139c-5 -7 -11 -15 -18 -15h-46zM159 521c-10 0 -22 9 -19 19l30 141c3 10 9 19 19 19h94c19 0 25 -12 18 -25l-78 -139c-4 -8 -11 -15 -18 -15h-46z" />
    <glyph glyph-name="uogonek" unicode="&#x173;" horiz-adv-x="537" 
d="M52 217v223c0 13 10 22 21 22h109c12 0 22 -9 22 -22v-220c0 -52 15 -88 62 -88c45 0 63 39 63 80v228c0 19 14 22 25 22h105c12 0 22 -9 22 -22v-412c0 -13 -7 -22 -15 -27c-29 -19 -91 -73 -91 -119c0 -28 14 -37 34 -37c26 0 52 21 60 29c9 9 22 4 22 -8v-57
c0 -13 -3 -25 -16 -34c-17 -11 -52 -24 -92 -24c-72 0 -108 48 -108 107c0 66 74 128 116 157l-16 44c-28 -29 -55 -70 -144 -70c-137 0 -179 97 -179 228z" />
    <glyph glyph-name="wacute" unicode="&#x1e83;" horiz-adv-x="720" 
d="M168 3l-153 431c-5 15 4 28 21 28h99c7 0 18 -5 21 -14l67 -192h1l113 207c2 4 8 9 18 9h11c9 0 16 -4 18 -9l114 -207h1l66 192c4 11 11 14 23 14h97c16 0 26 -14 21 -28l-153 -431c-3 -8 -12 -14 -21 -14h-5c-5 0 -16 5 -18 10l-149 249h-1l-147 -249
c-3 -5 -13 -10 -18 -10h-6c-8 0 -17 6 -20 14zM291 512c-13 -8 -22 -1 -27 9l-21 42c-4 8 1 15 6 19l170 104c6 4 21 6 26 -3l34 -59c8 -15 2 -25 -6 -30z" />
    <glyph glyph-name="wcircumflex" unicode="&#x175;" horiz-adv-x="720" 
d="M168 3l-153 431c-5 15 4 28 21 28h99c7 0 18 -5 21 -14l67 -192h1l113 207c2 4 8 9 18 9h11c9 0 16 -4 18 -9l114 -207h1l66 192c4 11 11 14 23 14h97c16 0 26 -14 21 -28l-153 -431c-3 -8 -12 -14 -21 -14h-5c-5 0 -16 5 -18 10l-149 249h-1l-147 -249
c-3 -5 -13 -10 -18 -10h-6c-8 0 -17 6 -20 14zM264 512c-11 -6 -16 -4 -22 4l-33 47c-5 7 1 15 6 19l135 104c8 6 18 4 24 0l138 -104c5 -4 10 -11 6 -19l-34 -46c-5 -7 -14 -9 -21 -5l-99 58z" />
    <glyph glyph-name="wdieresis" unicode="&#x1e85;" horiz-adv-x="720" 
d="M168 3l-153 431c-5 15 4 28 21 28h99c7 0 18 -5 21 -14l67 -192h1l113 207c2 4 8 9 18 9h11c9 0 16 -4 18 -9l114 -207h1l66 192c4 11 11 14 23 14h97c16 0 26 -14 21 -28l-153 -431c-3 -8 -12 -14 -21 -14h-5c-5 0 -16 5 -18 10l-149 249h-1l-147 -249
c-3 -5 -13 -10 -18 -10h-6c-8 0 -17 6 -20 14zM465 530c-42 0 -75 34 -75 76s33 75 75 75s76 -33 76 -75s-34 -76 -76 -76zM260 530c-42 0 -75 34 -75 76s33 75 75 75s76 -33 76 -75s-34 -76 -76 -76z" />
    <glyph glyph-name="wgrave" unicode="&#x1e81;" horiz-adv-x="720" 
d="M168 3l-153 431c-5 15 4 28 21 28h99c7 0 18 -5 21 -14l67 -192h1l113 207c2 4 8 9 18 9h11c9 0 16 -4 18 -9l114 -207h1l66 192c4 11 11 14 23 14h97c16 0 26 -14 21 -28l-153 -431c-3 -8 -12 -14 -21 -14h-5c-5 0 -16 5 -18 10l-149 249h-1l-147 -249
c-3 -5 -13 -10 -18 -10h-6c-8 0 -17 6 -20 14zM432 512l-182 82c-8 5 -14 15 -6 30l34 59c5 9 20 7 26 3l170 -104c5 -4 10 -11 6 -19l-21 -42c-5 -10 -14 -17 -27 -9z" />
    <glyph glyph-name="yacute" unicode="&#xfd;" horiz-adv-x="495" 
d="M155 35l-137 397c-5 15 2 30 19 30h119c8 0 16 -5 18 -13l63 -245h2l89 245c3 8 11 13 20 13h114c18 0 27 -14 20 -30l-273 -656c-3 -7 -11 -14 -19 -14h-112c-17 0 -26 15 -19 31zM161 512c-13 -8 -22 -1 -27 9l-21 42c-4 8 1 15 6 19l170 104c6 4 21 6 26 -3l34 -59
c8 -15 2 -25 -6 -30z" />
    <glyph glyph-name="ycircumflex" unicode="&#x177;" horiz-adv-x="495" 
d="M155 35l-137 397c-5 15 2 30 19 30h119c8 0 16 -5 18 -13l63 -245h2l89 245c3 8 11 13 20 13h114c18 0 27 -14 20 -30l-273 -656c-3 -7 -11 -14 -19 -14h-112c-17 0 -26 15 -19 31zM154 512c-11 -6 -16 -4 -22 4l-33 47c-5 7 1 15 6 19l135 104c8 6 18 4 24 0l138 -104
c5 -4 10 -11 6 -19l-34 -46c-5 -7 -14 -9 -21 -5l-99 58z" />
    <glyph glyph-name="ydieresis" unicode="&#xff;" horiz-adv-x="495" 
d="M155 35l-137 397c-5 15 2 30 19 30h119c8 0 16 -5 18 -13l63 -245h2l89 245c3 8 11 13 20 13h114c18 0 27 -14 20 -30l-273 -656c-3 -7 -11 -14 -19 -14h-112c-17 0 -26 15 -19 31zM352 530c-42 0 -75 34 -75 76s33 75 75 75s76 -33 76 -75s-34 -76 -76 -76zM147 530
c-42 0 -75 34 -75 76s33 75 75 75s76 -33 76 -75s-34 -76 -76 -76z" />
    <glyph glyph-name="ygrave" unicode="&#x1ef3;" horiz-adv-x="495" 
d="M155 35l-137 397c-5 15 2 30 19 30h119c8 0 16 -5 18 -13l63 -245h2l89 245c3 8 11 13 20 13h114c18 0 27 -14 20 -30l-273 -656c-3 -7 -11 -14 -19 -14h-112c-17 0 -26 15 -19 31zM327 512l-182 82c-8 5 -14 15 -6 30l34 59c5 9 20 7 26 3l170 -104c5 -4 10 -11 6 -19
l-21 -42c-5 -10 -14 -17 -27 -9z" />
    <glyph glyph-name="zacute" unicode="&#x17a;" horiz-adv-x="420" 
d="M52 0c-12 0 -22 10 -22 22c0 9 0 12 7 26l144 273v2h-119c-11 0 -21 10 -21 22v95c0 13 10 22 21 22h313c17 0 28 -15 19 -32l-155 -290v-2h113c12 0 22 -9 22 -22v-94c0 -12 -10 -22 -22 -22h-300zM157 512c-13 -8 -22 -1 -27 9l-21 42c-4 8 1 15 6 19l170 104
c6 4 21 6 26 -3l34 -59c8 -15 2 -25 -6 -30z" />
    <glyph glyph-name="zcaron" unicode="&#x17e;" horiz-adv-x="420" 
d="M52 0c-12 0 -22 10 -22 22c0 9 0 12 7 26l144 273v2h-119c-11 0 -21 10 -21 22v95c0 13 10 22 21 22h313c17 0 28 -15 19 -32l-155 -290v-2h113c12 0 22 -9 22 -22v-94c0 -12 -10 -22 -22 -22h-300zM211 512l-138 104c-5 4 -10 11 -6 19l34 46c5 7 14 9 21 5l99 -58
l100 58c11 6 16 4 22 -4l33 -47c5 -7 -1 -15 -6 -19l-135 -104c-8 -6 -18 -4 -24 0z" />
    <glyph glyph-name="zdotaccent" unicode="&#x17c;" horiz-adv-x="420" 
d="M52 0c-12 0 -22 10 -22 22c0 9 0 12 7 26l144 273v2h-119c-11 0 -21 10 -21 22v95c0 13 10 22 21 22h313c17 0 28 -15 19 -32l-155 -290v-2h113c12 0 22 -9 22 -22v-94c0 -12 -10 -22 -22 -22h-300zM217 526c-48 0 -86 39 -86 86c0 48 38 88 86 88s87 -40 87 -88
c0 -47 -39 -86 -87 -86z" />
    <glyph glyph-name="IJ" unicode="&#x132;" horiz-adv-x="772" 
d="M79 19v662c0 10 9 19 19 19h120c10 0 19 -9 19 -19v-662c0 -10 -9 -19 -19 -19h-120c-10 0 -19 9 -19 19zM331 63c-5 8 -4 18 2 25l68 67c8 7 19 8 27 0c12 -12 28 -21 51 -21c28 0 59 11 59 66v481c0 10 8 19 19 19h122c11 0 19 -9 19 -19v-482
c0 -139 -98 -209 -206 -209c-96 0 -144 52 -161 73z" />
    <glyph glyph-name="ij" unicode="&#x133;" horiz-adv-x="539" 
d="M56 22v418c0 13 10 22 22 22h108c12 0 22 -9 22 -22v-418c0 -12 -10 -22 -22 -22h-108c-12 0 -22 10 -22 22zM131 526c-48 0 -86 39 -86 86c0 48 38 88 86 88s87 -40 87 -88c0 -47 -39 -86 -87 -86zM406 526c-48 0 -86 39 -86 86c0 48 38 88 86 88s87 -40 87 -88
c0 -47 -39 -86 -87 -86zM482 440v-444c0 -142 -81 -218 -170 -241c-28 -7 -41 -2 -49 17l-29 73c-8 21 6 30 16 34c41 16 80 44 80 105v456c0 13 10 22 22 22h108c12 0 22 -9 22 -22z" />
    <glyph glyph-name="grave.cap" horiz-adv-x="302" 
d="M222 762l-182 82c-8 5 -14 15 -6 30l34 59c5 9 20 7 26 3l170 -104c5 -4 10 -11 6 -19l-21 -42c-5 -10 -14 -17 -27 -9z" />
    <glyph glyph-name="acute" unicode="&#xb4;" horiz-adv-x="302" 
d="M80 512c-13 -8 -22 -1 -27 9l-21 42c-4 8 1 15 6 19l170 104c6 4 21 6 26 -3l34 -59c8 -15 2 -25 -6 -30z" />
    <glyph glyph-name="acute.cap" horiz-adv-x="302" 
d="M80 762c-13 -8 -22 -1 -27 9l-21 42c-4 8 1 15 6 19l170 104c6 4 21 6 26 -3l34 -59c8 -15 2 -25 -6 -30z" />
    <glyph glyph-name="circumflex" unicode="&#x2c6;" horiz-adv-x="373" 
d="M87 512c-11 -6 -16 -4 -22 4l-33 47c-5 7 1 15 6 19l135 104c8 6 18 4 24 0l138 -104c5 -4 10 -11 6 -19l-34 -46c-5 -7 -14 -9 -21 -5l-99 58z" />
    <glyph glyph-name="circumflex.cap" horiz-adv-x="373" 
d="M87 762c-11 -6 -16 -4 -22 4l-33 47c-5 7 1 15 6 19l135 104c8 6 18 4 24 0l138 -104c5 -4 10 -11 6 -19l-34 -46c-5 -7 -14 -9 -21 -5l-99 58z" />
    <glyph glyph-name="caron" unicode="&#x2c7;" horiz-adv-x="373" 
d="M175 512l-138 104c-5 4 -10 11 -6 19l34 46c5 7 14 9 21 5l99 -58l100 58c11 6 16 4 22 -4l33 -47c5 -7 -1 -15 -6 -19l-135 -104c-8 -6 -18 -4 -24 0z" />
    <glyph glyph-name="caron.cap" horiz-adv-x="373" 
d="M175 762l-138 104c-5 4 -10 11 -6 19l34 46c5 7 14 9 21 5l99 -58l100 58c11 6 16 4 22 -4l33 -47c5 -7 -1 -15 -6 -19l-135 -104c-8 -6 -18 -4 -24 0z" />
    <glyph glyph-name="caron.alt" horiz-adv-x="373" 
d="M67 630c0 51 36 80 86 80c51 0 96 -28 96 -104c0 -70 -27 -115 -52 -149c-7 -7 -15 -7 -23 -1l-30 22c-9 6 -9 16 -2 23c14 17 24 44 24 65v7c0 0 -14 -9 -33 -9c-41 0 -66 28 -66 66z" />
    <glyph glyph-name="tilde" unicode="&#x2dc;" horiz-adv-x="380" 
d="M73 555l-35 28c-7 5 -9 16 -6 23c10 18 53 84 107 84c48 0 69 -47 108 -47c16 0 31 20 38 31c5 8 15 11 25 2l34 -26c8 -6 9 -17 1 -29c-10 -17 -47 -78 -100 -78c-52 0 -76 48 -110 48c-18 0 -31 -25 -40 -35c-6 -6 -13 -7 -22 -1z" />
    <glyph glyph-name="tilde.cap" horiz-adv-x="380" 
d="M73 785l-35 28c-7 5 -9 16 -6 23c10 18 53 84 107 84c48 0 69 -47 108 -47c16 0 31 20 38 31c5 8 15 11 25 2l34 -26c8 -6 9 -17 1 -29c-10 -17 -47 -78 -100 -78c-52 0 -76 48 -110 48c-18 0 -31 -25 -40 -35c-6 -6 -13 -7 -22 -1z" />
    <glyph glyph-name="dieresis" unicode="&#xa8;" horiz-adv-x="414" 
d="M309 530c-42 0 -75 34 -75 76s33 75 75 75s76 -33 76 -75s-34 -76 -76 -76zM104 530c-42 0 -75 34 -75 76s33 75 75 75s76 -33 76 -75s-34 -76 -76 -76z" />
    <glyph glyph-name="dieresis.cap" horiz-adv-x="474" 
d="M369 763c-42 0 -75 34 -75 76s33 75 75 75s76 -33 76 -75s-34 -76 -76 -76zM104 763c-42 0 -75 34 -75 76s33 75 75 75s76 -33 76 -75s-34 -76 -76 -76z" />
    <glyph glyph-name="macron" unicode="&#xaf;" horiz-adv-x="414" 
d="M79 563c-11 0 -19 8 -19 18v41c0 11 8 19 19 19h256c11 0 19 -8 19 -19v-41c0 -10 -8 -18 -19 -18h-256z" />
    <glyph glyph-name="macron.cap" horiz-adv-x="414" 
d="M79 801c-11 0 -19 8 -19 18v41c0 11 8 19 19 19h256c11 0 19 -8 19 -19v-41c0 -10 -8 -18 -19 -18h-256z" />
    <glyph glyph-name="uni02C9" unicode="&#x2c9;" horiz-adv-x="414" 
d="M79 563c-11 0 -19 8 -19 18v41c0 11 8 19 19 19h256c11 0 19 -8 19 -19v-41c0 -10 -8 -18 -19 -18h-256z" />
    <glyph glyph-name="breve" unicode="&#x2d8;" horiz-adv-x="346" 
d="M173 527c-74 0 -132 52 -142 120c-2 12 6 22 19 22h45c8 0 15 -6 17 -12c9 -27 32 -48 61 -48c26 0 50 24 59 48c2 7 10 12 17 12h47c12 0 20 -10 19 -22c-11 -68 -69 -120 -142 -120z" />
    <glyph glyph-name="breve.cap" horiz-adv-x="346" 
d="M173 763c-74 0 -132 52 -142 120c-2 12 6 22 19 22h45c8 0 15 -6 17 -12c9 -27 32 -48 61 -48c26 0 50 24 59 48c2 7 10 12 17 12h47c12 0 20 -10 19 -22c-11 -68 -69 -120 -142 -120z" />
    <glyph glyph-name="ring" unicode="&#x2da;" horiz-adv-x="290" 
d="M145 480c-64 0 -115 51 -115 115s51 115 115 115c63 0 115 -51 115 -115s-52 -115 -115 -115zM145 551c23 0 43 21 43 44s-20 43 -43 43s-44 -20 -44 -43s21 -44 44 -44z" />
    <glyph glyph-name="ring.cap" horiz-adv-x="290" 
d="M145 752c-64 0 -115 51 -115 115s51 115 115 115c63 0 115 -51 115 -115s-52 -115 -115 -115zM145 823c23 0 43 21 43 44s-20 43 -43 43s-44 -20 -44 -43s21 -44 44 -44z" />
    <glyph glyph-name="hungarumlaut" unicode="&#x2dd;" horiz-adv-x="392" 
d="M216 521c-10 0 -22 9 -19 19l30 141c3 10 9 19 19 19h94c19 0 26 -13 18 -25l-78 -139c-5 -7 -11 -15 -18 -15h-46zM50 521c-10 0 -22 9 -19 19l30 141c3 10 9 19 19 19h94c19 0 25 -12 18 -25l-78 -139c-4 -8 -11 -15 -18 -15h-46z" />
    <glyph glyph-name="hungarumlaut.cap" horiz-adv-x="392" 
d="M216 768c-10 0 -22 9 -19 19l30 141c3 10 9 19 19 19h94c19 0 26 -13 18 -25l-78 -139c-5 -7 -11 -15 -18 -15h-46zM50 768c-10 0 -22 9 -19 19l30 141c3 10 9 19 19 19h94c19 0 25 -12 18 -25l-78 -139c-4 -8 -11 -15 -18 -15h-46z" />
    <glyph glyph-name="dotaccent" unicode="&#x2d9;" horiz-adv-x="219" 
d="M109 513c-48 0 -86 39 -86 86c0 48 38 88 86 88s87 -40 87 -88c0 -47 -39 -86 -87 -86z" />
    <glyph glyph-name="dotaccent.cap" horiz-adv-x="219" 
d="M109 766c-48 0 -86 39 -86 86c0 48 38 88 86 88s87 -40 87 -88c0 -47 -39 -86 -87 -86z" />
    <glyph glyph-name="cedilla" unicode="&#xb8;" horiz-adv-x="247" 
d="M105 3h72l-38 -60c6 1 11 1 15 1c45 0 90 -24 90 -88c0 -68 -57 -105 -125 -105c-39 0 -67 10 -84 24c-9 8 -7 18 -1 31l10 23c7 16 17 19 30 10c5 -4 22 -13 40 -13c25 0 42 10 42 33s-17 33 -42 33c-17 0 -28 -6 -36 -9c-11 -4 -25 9 -20 19z" />
    <glyph glyph-name="cedilla.cap" horiz-adv-x="247" 
d="M105 3h72l-38 -60c6 1 11 1 15 1c45 0 90 -24 90 -88c0 -68 -57 -105 -125 -105c-39 0 -67 10 -84 24c-9 8 -7 18 -1 31l10 23c7 16 17 19 30 10c5 -4 22 -13 40 -13c25 0 42 10 42 33s-17 33 -42 33c-17 0 -28 -6 -36 -9c-11 -4 -25 9 -20 19z" />
    <glyph glyph-name="ogonek" unicode="&#x2db;" horiz-adv-x="276" 
d="M215 3c-27 -19 -94 -74 -94 -121c0 -28 14 -37 34 -37c26 0 52 21 60 29c9 9 22 4 22 -8v-57c0 -13 -3 -25 -16 -34c-17 -11 -52 -24 -92 -24c-72 0 -108 48 -108 107c0 72 59 119 93 145h101z" />
    <glyph glyph-name="ogonek.cap" horiz-adv-x="276" 
d="M215 3c-27 -19 -94 -74 -94 -121c0 -28 14 -37 34 -37c26 0 52 21 60 29c9 9 22 4 22 -8v-57c0 -13 -3 -25 -16 -34c-17 -11 -52 -24 -92 -24c-72 0 -108 48 -108 107c0 72 59 119 93 145h101z" />
    <glyph glyph-name="commaaccent" unicode="&#xf6c3;" horiz-adv-x="292" 
d="M67 -144c0 51 36 80 86 80c51 0 96 -28 96 -104c0 -70 -27 -115 -52 -149c-7 -7 -15 -7 -23 -1l-30 22c-9 6 -9 16 -2 23c14 17 24 44 24 65v7c0 0 -14 -9 -33 -9c-41 0 -66 28 -66 66z" />
    <glyph glyph-name="commaaccent.alt" horiz-adv-x="292" 
d="M249 592c0 -51 -36 -80 -86 -80c-51 0 -96 28 -96 104c0 70 27 115 52 149c7 7 14 7 23 1l30 -22c9 -6 9 -17 2 -23c-14 -17 -25 -44 -25 -65v-7c0 0 15 9 33 9c42 0 67 -28 67 -66z" />
    <glyph glyph-name="commaaccent.cap" horiz-adv-x="292" 
d="M67 -144c0 51 36 80 86 80c51 0 96 -28 96 -104c0 -70 -27 -115 -52 -149c-7 -7 -15 -7 -23 -1l-30 22c-9 6 -9 16 -2 23c14 17 24 44 24 65v7c0 0 -14 -9 -33 -9c-41 0 -66 28 -66 66z" />
    <glyph glyph-name="ellipsis" unicode="&#x2026;" horiz-adv-x="677" 
d="M485 70c0 44 35 79 79 79s80 -35 80 -79s-36 -80 -80 -80s-79 36 -79 80zM260 70c0 44 35 79 79 79s80 -35 80 -79s-36 -80 -80 -80s-79 36 -79 80zM34 70c0 44 35 79 79 79s80 -35 80 -79s-36 -80 -80 -80s-79 36 -79 80z" />
    <glyph glyph-name="uni00AD" unicode="&#xad;" horiz-adv-x="365" 
 />
    <glyph glyph-name="exclamdown" unicode="&#xa1;" horiz-adv-x="260" 
d="M131 282c-52 0 -96 44 -96 96c0 51 44 94 96 94c51 0 94 -43 94 -94c0 -52 -43 -96 -94 -96zM90 174c1 8 10 16 19 16h42c9 0 18 -8 19 -16l49 -279v-114c0 -10 -9 -19 -19 -19h-140c-10 0 -19 9 -19 19v112z" />
    <glyph glyph-name="questiondown" unicode="&#xbf;" horiz-adv-x="501" 
d="M272 282c-52 0 -96 44 -96 96c0 51 44 94 96 94c51 0 94 -43 94 -94c0 -52 -43 -96 -94 -96zM49 -74c0 132 150 136 150 244c0 11 9 19 19 19h107c10 0 19 -8 19 -19v-42c0 -84 -138 -121 -138 -185c0 -31 32 -59 75 -59c70 0 89 63 114 41l61 -60c8 -7 7 -19 0 -26
c0 0 -74 -88 -203 -88c-106 0 -204 74 -204 175z" />
    <glyph glyph-name="quoteleft" unicode="&#x2018;" horiz-adv-x="239" 
d="M214 458c0 -46 -37 -81 -86 -81c-51 0 -96 36 -96 118c0 89 37 156 72 206c6 8 14 7 23 1l32 -22c8 -5 7 -14 0 -24c-26 -36 -49 -81 -49 -122c0 -3 0 -4 1 -8c8 6 22 10 35 10c45 0 68 -36 68 -78z" />
    <glyph glyph-name="quoteright" unicode="&#x2019;" horiz-adv-x="235" 
d="M23 629c0 46 37 81 86 81c51 0 96 -36 96 -118c0 -89 -37 -156 -72 -206c-6 -8 -14 -7 -23 -1l-32 22c-8 5 -6 15 0 24c25 37 49 81 49 122c0 3 0 4 -1 8c-8 -6 -22 -10 -35 -10c-45 0 -68 36 -68 78z" />
    <glyph glyph-name="quotedblleft" unicode="&#x201c;" horiz-adv-x="464" 
d="M214 458c0 -46 -37 -81 -86 -81c-51 0 -96 36 -96 118c0 89 37 156 72 206c6 8 14 7 23 1l32 -22c8 -5 7 -14 0 -24c-26 -36 -49 -81 -49 -122c0 -3 0 -4 1 -8c8 6 22 10 35 10c45 0 68 -36 68 -78zM439 458c0 -46 -37 -81 -86 -81c-51 0 -96 36 -96 118
c0 89 37 156 72 206c6 8 14 7 23 1l32 -22c8 -5 7 -14 0 -24c-26 -36 -49 -81 -49 -122c0 -3 0 -4 1 -8c8 6 22 10 35 10c45 0 68 -36 68 -78z" />
    <glyph glyph-name="quotedblright" unicode="&#x201d;" horiz-adv-x="460" 
d="M23 629c0 46 37 81 86 81c51 0 96 -36 96 -118c0 -89 -37 -156 -72 -206c-6 -8 -14 -7 -23 -1l-32 22c-8 5 -6 15 0 24c25 37 49 81 49 122c0 3 0 4 -1 8c-8 -6 -22 -10 -35 -10c-45 0 -68 36 -68 78zM248 629c0 46 37 81 86 81c51 0 96 -36 96 -118
c0 -89 -37 -156 -72 -206c-6 -8 -14 -7 -23 -1l-32 22c-8 5 -6 15 0 24c25 37 49 81 49 122c0 3 0 4 -1 8c-8 -6 -22 -10 -35 -10c-45 0 -68 36 -68 78z" />
    <glyph glyph-name="quotesinglbase" unicode="&#x201a;" horiz-adv-x="251" 
d="M34 78c0 46 37 81 86 81c51 0 96 -36 96 -118c0 -89 -37 -156 -72 -206c-6 -8 -14 -7 -23 -1l-32 22c-8 5 -6 15 0 24c25 37 49 81 49 122c0 3 0 4 -1 8c-8 -6 -22 -10 -35 -10c-45 0 -68 36 -68 78z" />
    <glyph glyph-name="quotedblbase" unicode="&#x201e;" horiz-adv-x="475" 
d="M34 78c0 46 37 81 86 81c51 0 96 -36 96 -118c0 -89 -37 -156 -72 -206c-6 -8 -14 -7 -23 -1l-32 22c-8 5 -6 15 0 24c25 37 49 81 49 122c0 3 0 4 -1 8c-8 -6 -22 -10 -35 -10c-45 0 -68 36 -68 78zM258 78c0 46 37 81 86 81c51 0 96 -36 96 -118
c0 -89 -37 -156 -72 -206c-6 -8 -14 -7 -23 -1l-32 22c-8 5 -6 15 0 24c25 37 49 81 49 122c0 3 0 4 -1 8c-8 -6 -22 -10 -35 -10c-45 0 -68 36 -68 78z" />
    <glyph glyph-name="guilsinglleft" unicode="&#x2039;" horiz-adv-x="297" 
d="M137 69l-104 155c-6 8 -4 18 0 24l109 148c3 5 10 12 18 12h79c17 0 23 -15 15 -31l-65 -139l62 -147c7 -16 2 -30 -15 -30h-84c-4 0 -12 4 -15 8z" />
    <glyph glyph-name="guilsinglright" unicode="&#x203a;" horiz-adv-x="297" 
d="M60 61c-17 0 -22 14 -15 30l62 147l-65 139c-8 16 -2 31 15 31h79c8 0 15 -7 18 -12l109 -148c4 -6 6 -16 0 -24l-104 -155c-3 -4 -11 -8 -15 -8h-84z" />
    <glyph glyph-name="guillemotleft" unicode="&#xab;" horiz-adv-x="515" 
d="M251 224c-6 8 -4 18 0 24l109 148c3 5 10 12 18 12h79c17 0 23 -15 15 -31l-65 -139l62 -147c7 -16 2 -30 -15 -30h-84c-4 0 -12 4 -15 8zM137 69l-104 155c-6 8 -4 18 0 24l109 148c3 5 10 12 18 12h79c17 0 23 -15 15 -31l-65 -139l62 -147c7 -16 2 -30 -15 -30h-84
c-4 0 -12 4 -15 8z" />
    <glyph glyph-name="guillemotright" unicode="&#xbb;" horiz-adv-x="515" 
d="M263 91l62 147l-65 139c-8 16 -2 31 15 31h79c8 0 15 -7 18 -12l109 -148c4 -6 6 -16 0 -24l-104 -155c-3 -4 -11 -8 -15 -8h-84c-17 0 -22 14 -15 30zM60 61c-17 0 -22 14 -15 30l62 147l-65 139c-8 16 -2 31 15 31h79c8 0 15 -7 18 -12l109 -148c4 -6 6 -16 0 -24
l-104 -155c-3 -4 -11 -8 -15 -8h-84z" />
    <glyph glyph-name="endash" unicode="&#x2013;" horiz-adv-x="548" 
d="M69 203c-11 0 -19 8 -19 18v51c0 11 8 19 19 19h409c11 0 19 -8 19 -19v-51c0 -10 -8 -18 -19 -18h-409z" />
    <glyph glyph-name="emdash" unicode="&#x2014;" horiz-adv-x="768" 
d="M69 203c-11 0 -19 8 -19 18v51c0 11 8 19 19 19h629c11 0 19 -8 19 -19v-51c0 -10 -8 -18 -19 -18h-629z" />
    <glyph glyph-name="bullet" unicode="&#x2022;" horiz-adv-x="398" 
d="M197 113c-76 0 -141 65 -141 141c0 79 65 145 141 145c79 0 145 -66 145 -145c0 -76 -66 -141 -145 -141z" />
    <glyph glyph-name="periodcentered" unicode="&#xb7;" horiz-adv-x="280" 
d="M138 149c-57 0 -105 48 -105 105c0 60 48 109 105 109c60 0 109 -49 109 -109c0 -57 -49 -105 -109 -105z" />
    <glyph glyph-name="uni2219" unicode="&#x2219;" horiz-adv-x="282" 
d="M139 149c-57 0 -105 48 -105 105c0 60 48 109 105 109c60 0 109 -49 109 -109c0 -57 -49 -105 -109 -105z" />
    <glyph glyph-name="dagger" unicode="&#x2020;" horiz-adv-x="602" 
d="M61 262c-10 0 -19 9 -19 19v100c0 10 9 19 19 19h157v281c0 10 9 19 19 19h120c10 0 19 -9 19 -19v-281h166c10 0 18 -9 18 -19v-100c0 -10 -8 -19 -18 -19h-176l-39 -484c-1 -8 -7 -16 -19 -16h-22c-11 0 -18 8 -19 16l-39 484h-167z" />
    <glyph glyph-name="daggerdbl" unicode="&#x2021;" horiz-adv-x="618" 
d="M80 20v100c0 10 9 19 19 19h145l-18 259v1h-157c-10 0 -19 9 -19 19v100c0 10 9 19 19 19h157v144c0 10 9 19 19 19h120c10 0 19 -9 19 -19v-144h166c10 0 18 -9 18 -19v-100c0 -10 -8 -19 -18 -19h-166l-19 -260h155c10 0 18 -9 18 -19v-100c0 -10 -8 -19 -18 -19h-165
l-20 -223c-1 -8 -8 -16 -19 -16h-22c-11 0 -18 8 -19 16l-21 223h-155c-10 0 -19 9 -19 19z" />
    <glyph glyph-name="section" unicode="&#xa7;" horiz-adv-x="558" 
d="M104 -77c8 14 21 21 38 11c10 -5 81 -50 131 -50c37 0 65 21 65 56c0 47 -43 72 -96 93c-82 33 -182 95 -182 208c0 55 22 103 68 141c-39 35 -68 81 -68 140c0 95 71 188 216 188c98 0 173 -51 201 -71c11 -6 11 -22 6 -29l-53 -78c-8 -12 -19 -14 -33 -4
c-17 12 -81 52 -128 52c-35 0 -60 -21 -60 -46c0 -36 28 -62 102 -92c74 -29 191 -86 191 -214c0 -54 -25 -102 -66 -139c37 -35 66 -80 66 -143c0 -96 -84 -194 -222 -194c-123 0 -189 52 -208 70c-11 11 -13 19 -4 34zM202 254c0 -49 47 -72 115 -100c0 0 28 23 28 71
c0 50 -46 70 -115 100l-4 -4c-8 -9 -24 -31 -24 -67z" />
    <glyph glyph-name="paragraph" unicode="&#xb6;" horiz-adv-x="771" 
d="M249 281c-113 0 -208 92 -208 210c0 114 85 209 194 209h462c10 0 19 -9 19 -19v-61c0 -11 -9 -19 -19 -19h-61v-820c0 -10 -8 -19 -19 -19h-71c-10 0 -19 9 -19 19v820h-126v-820c0 -10 -9 -19 -19 -19h-70c-10 0 -19 9 -19 19v500h-44z" />
    <glyph glyph-name="brokenbar.case" horiz-adv-x="176" 
d="M80 462c-10 0 -19 8 -19 18v331c0 11 9 19 19 19h17c10 0 18 -8 18 -19v-331c0 -10 -9 -18 -19 -18h-16zM61 181c0 11 9 19 19 19h17c10 0 18 -8 18 -19v-331c0 -10 -9 -18 -19 -18h-16c-10 0 -19 8 -19 18v331z" />
    <glyph glyph-name="copyright" unicode="&#xa9;" horiz-adv-x="827" 
d="M54 350c0 198 161 360 359 360s360 -162 360 -360s-162 -360 -360 -360s-359 162 -359 360zM141 350c0 -150 122 -273 272 -273c151 0 272 123 272 273c0 151 -121 272 -272 272c-150 0 -272 -121 -272 -272zM235 348c0 105 84 188 187 188c40 0 82 -12 115 -38
c9 -8 10 -20 2 -29l-48 -48c-6 -6 -17 -8 -24 -3c-14 10 -29 13 -45 13c-45 0 -78 -37 -78 -80c0 -45 33 -80 78 -80c16 0 30 3 44 13c7 5 18 3 24 -3l50 -50c7 -8 7 -20 -1 -28c-35 -30 -74 -42 -117 -42c-103 0 -187 84 -187 187z" />
    <glyph glyph-name="registered" unicode="&#xae;" horiz-adv-x="827" 
d="M54 350c0 198 161 360 359 360s360 -162 360 -360s-162 -360 -360 -360s-359 162 -359 360zM141 350c0 -150 122 -273 272 -273c151 0 272 123 272 273c0 151 -121 272 -272 272c-150 0 -272 -121 -272 -272zM275 187v328c0 10 8 19 19 19h162c62 0 123 -50 123 -130
c0 -62 -34 -93 -67 -112l40 -97c6 -13 -3 -27 -17 -27h-68c-8 0 -16 7 -18 14l-37 106h-39v-101c0 -10 -8 -19 -19 -19h-60c-11 0 -19 9 -19 19zM370 369h69c17 0 32 15 32 33c0 19 -15 33 -32 33h-69v-66z" />
    <glyph glyph-name="trademark" unicode="&#x2122;" horiz-adv-x="781" 
d="M364 378c-13 0 -21 11 -19 23l52 289c1 8 8 15 19 15h4c8 0 13 -4 17 -11l91 -172l92 172c4 8 9 11 17 11h4c9 0 18 -7 19 -15l53 -290c2 -12 -7 -22 -19 -22h-52c-9 0 -18 8 -19 17l-17 105l-59 -116c-3 -5 -7 -9 -16 -9h-6c-8 0 -14 4 -17 10l-57 115l-18 -106
c-1 -8 -11 -16 -19 -16h-50zM171 378c-11 0 -19 9 -19 19v216h-60c-10 0 -19 8 -19 19v49c0 10 9 19 19 19h211c11 0 19 -9 19 -19v-49c0 -11 -8 -19 -19 -19h-60v-216c0 -10 -9 -19 -19 -19h-53z" />
    <glyph glyph-name="currency" unicode="&#xa4;" horiz-adv-x="495" 
d="M120 147l-49 50c-7 7 -7 20 0 27l52 52c-6 15 -9 32 -9 48s3 32 8 47l-52 53c-7 7 -7 20 0 27l50 49c7 7 19 7 26 0l51 -51c17 7 34 11 52 11c16 0 33 -3 49 -9l51 51c7 7 20 7 27 -1l49 -49c7 -7 8 -19 1 -26l-51 -51c6 -16 10 -33 10 -50c0 -18 -4 -36 -11 -53l51 -51
c7 -7 6 -19 -1 -26l-49 -49c-7 -7 -19 -8 -26 -1l-53 53c-15 -5 -32 -8 -48 -8c-17 0 -34 3 -49 9l-52 -52c-7 -7 -20 -7 -27 0zM249 283c23 0 41 19 41 43c0 21 -19 40 -41 41c-23 -1 -41 -20 -41 -42c0 -23 19 -42 41 -42z" />
    <glyph glyph-name="Euro" unicode="&#x20ac;" 
d="M40 303h41c-1 15 -2 30 -2 46v19h-39c-10 0 -18 9 -18 19v17c0 10 8 19 18 19h44c22 156 117 287 296 287c79 0 133 -19 188 -77c8 -9 9 -20 1 -28l-62 -93c-7 -7 -18 -7 -25 0c-33 35 -61 47 -97 47c-57 0 -112 -45 -130 -136h205c11 0 19 -9 19 -19v-18
c0 -10 -8 -18 -19 -18h-211v-15c0 -17 0 -34 1 -50h170c11 0 19 -9 19 -19v-18c0 -10 -8 -18 -19 -18h-161c15 -58 49 -98 123 -98c40 0 66 16 94 42c7 6 20 6 26 -1l68 -90c7 -7 6 -20 -1 -27c-58 -61 -118 -84 -193 -84c-144 0 -255 95 -288 258h-48c-10 0 -18 9 -18 19
v17c0 10 8 19 18 19z" />
    <glyph glyph-name="cent" unicode="&#xa2;" horiz-adv-x="545" 
d="M59 231c0 136 113 241 245 241c9 0 18 -1 27 -2l13 49c4 11 16 19 27 14l19 -5c12 -2 19 -14 16 -27l-13 -47c32 -13 60 -35 84 -63c9 -11 5 -24 -6 -33l-65 -63c-5 -5 -17 -6 -26 2c-8 6 -16 13 -24 18l-50 -183h1c43 0 63 18 83 38c8 10 20 12 26 4l65 -56
c10 -10 16 -21 8 -33c-43 -64 -103 -96 -186 -96c-12 0 -24 1 -35 3l-31 -115c-2 -11 -15 -17 -26 -15l-19 7c-12 2 -18 13 -16 25l31 114c-86 36 -148 119 -148 223zM211 231c0 -32 13 -59 35 -77l47 174c-46 -8 -82 -51 -82 -97z" />
    <glyph glyph-name="sterling" unicode="&#xa3;" 
d="M120 19v18c33 61 44 118 44 171c0 28 -3 55 -8 81h-43c-10 0 -18 9 -18 19v17c0 10 8 19 18 19h31c-14 54 -29 103 -29 150c0 137 84 216 214 216c86 0 148 -49 173 -71c8 -6 9 -18 2 -26l-63 -76c-6 -8 -18 -8 -26 -3c0 0 -46 39 -83 39c-36 0 -65 -25 -65 -70
c0 -37 26 -88 41 -159h92c11 0 19 -9 19 -19v-18c0 -10 -8 -18 -19 -18h-83c1 -16 2 -33 2 -51c0 -32 -3 -67 -11 -104h169c10 0 18 -8 18 -19v-96c0 -10 -8 -19 -18 -19h-338c-10 0 -19 9 -19 19z" />
    <glyph glyph-name="florin" unicode="&#x192;" horiz-adv-x="404" 
d="M120 -31v304h-81c-11 0 -19 9 -19 19v89c0 11 8 19 19 19h81v93c0 137 86 217 214 217c58 0 95 -25 111 -38c6 -6 9 -17 4 -25l-48 -79c-5 -8 -15 -11 -23 -7c0 0 -25 11 -42 11c-36 0 -63 -25 -63 -80v-92h92c11 0 19 -8 19 -19v-89c0 -10 -8 -19 -19 -19h-92v-305
c0 -137 -92 -217 -214 -217c-58 0 -95 25 -111 38c-6 6 -9 17 -4 25l48 79c5 8 15 11 23 7c0 0 25 -11 42 -11c35 0 63 25 63 80z" />
    <glyph glyph-name="yen" unicode="&#xa5;" 
d="M119 118c-10 0 -18 9 -18 19v17c0 10 8 19 18 19h101v65h-101c-10 0 -18 9 -18 19v17c0 10 8 19 18 19h101v44l-221 334c-8 13 0 29 16 29h130c8 0 13 -5 16 -9l139 -205l139 205c3 4 7 9 16 9h130c16 0 24 -16 16 -29l-224 -333v-45h99c11 0 19 -9 19 -19v-18
c0 -10 -8 -18 -19 -18h-99v-65h99c11 0 19 -9 19 -19v-18c0 -10 -8 -18 -19 -18h-99v-99c0 -10 -9 -19 -19 -19h-119c-11 0 -19 9 -19 19v99h-101z" />
    <glyph glyph-name="ordfeminine" unicode="&#xaa;" horiz-adv-x="340" 
d="M133 396c-62 0 -105 40 -105 104c0 52 44 93 119 93c30 0 51 -7 51 -7c1 28 -10 43 -41 43c-20 0 -55 -5 -74 -9c-11 -2 -17 4 -18 16l-7 42c-2 14 5 19 11 21c7 2 59 11 100 11c92 0 126 -39 126 -127v-166c0 -7 -7 -14 -14 -14h-33c-5 0 -10 2 -14 10l-10 21
c-18 -17 -43 -38 -91 -38zM160 467c18 0 32 15 32 33c0 17 -14 32 -32 32c-19 0 -32 -15 -32 -32c0 -18 13 -33 32 -33z" />
    <glyph glyph-name="ordmasculine" unicode="&#xba;" horiz-adv-x="324" 
d="M162 394c-84 0 -131 60 -131 158c0 99 47 158 131 158s131 -59 131 -158c0 -98 -47 -158 -131 -158zM162 474c20 0 31 23 31 78c0 56 -11 78 -31 78s-31 -22 -31 -78c0 -55 11 -78 31 -78z" />
    <glyph glyph-name="onesuperior" unicode="&#xb9;" horiz-adv-x="219" 
d="M93 504c-6 0 -10 4 -10 9v184h-54c-5 0 -8 5 -8 11v38c0 5 3 8 8 11l76 43h63c5 0 9 -4 9 -9v-278c0 -5 -4 -9 -9 -9h-75z" />
    <glyph glyph-name="twosuperior" unicode="&#xb2;" horiz-adv-x="276" 
d="M34 504c-6 0 -10 4 -10 9v18l102 123c14 18 20 35 20 47c0 20 -15 29 -31 29c-15 0 -30 -10 -35 -15c-6 -4 -13 -5 -18 4l-22 36c-7 12 -11 16 4 27c9 7 44 28 93 28c58 0 104 -36 104 -94c0 -29 -11 -57 -30 -84l-40 -53h58c5 0 10 -4 10 -9v-57c0 -5 -5 -9 -10 -9h-195
z" />
    <glyph glyph-name="threesuperior" unicode="&#xb3;" horiz-adv-x="273" 
d="M123 494c-54 0 -82 23 -90 29s-9 13 -3 22l23 34c5 7 11 9 20 4c0 0 14 -11 36 -11c24 0 33 9 33 24c0 14 -11 25 -33 25h-33c-8 1 -13 3 -13 16v34c0 12 7 17 18 17h28c15 0 28 9 28 24c0 13 -11 22 -29 22c-12 0 -22 -5 -30 -11c-6 -4 -10 -6 -17 4l-26 35
c-7 9 -4 16 1 21c0 0 31 27 87 27c67 0 110 -32 110 -83c0 -37 -27 -58 -51 -70c23 -9 60 -30 60 -77c0 -57 -57 -86 -119 -86z" />
    <glyph glyph-name="fraction" unicode="&#x2044;" horiz-adv-x="120" 
d="M-68 10c-2 -4 -7 -10 -17 -10h-55c-15 0 -24 14 -17 27l344 663c3 6 9 10 17 10h56c15 0 24 -14 17 -27z" />
    <glyph glyph-name="uni2215" unicode="&#x2215;" horiz-adv-x="120" 
d="M-68 10c-2 -4 -7 -10 -17 -10h-55c-15 0 -24 14 -17 27l344 663c3 6 9 10 17 10h56c15 0 24 -14 17 -27z" />
    <glyph glyph-name="onehalf" unicode="&#xbd;" horiz-adv-x="668" 
d="M100 27l344 663c3 6 9 10 17 10h56c15 0 24 -14 17 -27l-345 -663c-2 -4 -7 -10 -17 -10h-55c-15 0 -24 14 -17 27zM119 404c-6 0 -10 4 -10 9v184h-54c-5 0 -8 5 -8 11v38c0 5 3 8 8 11l76 43h63c5 0 9 -4 9 -9v-278c0 -5 -4 -9 -9 -9h-75zM397 9v18l102 123
c14 18 20 35 20 47c0 20 -15 29 -31 29c-15 0 -30 -10 -35 -15c-6 -4 -13 -5 -18 4l-22 36c-7 12 -11 16 4 27c9 7 44 28 93 28c58 0 104 -36 104 -94c0 -29 -11 -57 -30 -84l-40 -53h58c5 0 10 -4 10 -9v-57c0 -5 -5 -9 -10 -9h-195c-6 0 -10 4 -10 9z" />
    <glyph glyph-name="onethird" unicode="&#x2153;" horiz-adv-x="672" 
d="M100 27l344 663c3 6 9 10 17 10h56c15 0 24 -14 17 -27l-345 -663c-2 -4 -7 -10 -17 -10h-55c-15 0 -24 14 -17 27zM119 404c-6 0 -10 4 -10 9v184h-54c-5 0 -8 5 -8 11v38c0 5 3 8 8 11l76 43h63c5 0 9 -4 9 -9v-278c0 -5 -4 -9 -9 -9h-75zM409 41l23 34c5 7 11 9 20 4
c0 0 14 -11 36 -11c24 0 33 9 33 24c0 14 -11 25 -33 25h-33c-8 1 -13 3 -13 16v34c0 12 7 17 18 17h28c15 0 28 9 28 24c0 13 -11 22 -29 22c-12 0 -22 -5 -30 -11c-6 -4 -10 -6 -17 4l-26 35c-7 9 -4 16 1 21c0 0 31 27 87 27c67 0 110 -32 110 -83c0 -37 -27 -58 -51 -70
c23 -9 60 -30 60 -77c0 -57 -57 -86 -119 -86c-54 0 -82 23 -90 29s-9 13 -3 22z" />
    <glyph glyph-name="onequarter" unicode="&#xbc;" horiz-adv-x="666" 
d="M100 27l344 663c3 6 9 10 17 10h56c15 0 24 -14 17 -27l-345 -663c-2 -4 -7 -10 -17 -10h-55c-15 0 -24 14 -17 27zM119 404c-6 0 -10 4 -10 9v184h-54c-5 0 -8 5 -8 11v38c0 5 3 8 8 11l76 43h63c5 0 9 -4 9 -9v-278c0 -5 -4 -9 -9 -9h-75zM343 64v62l139 167
c1 2 5 3 7 3h71c5 0 9 -4 9 -9v-163h39c5 0 9 -4 9 -8v-51c0 -5 -4 -9 -9 -9h-39v-47c0 -5 -4 -9 -9 -9h-68c-5 0 -10 4 -10 9v47h-130c-5 0 -9 4 -9 8zM432 122h51v65z" />
    <glyph glyph-name="oneeighth" unicode="&#x215b;" horiz-adv-x="687" 
d="M100 27l344 663c3 6 9 10 17 10h56c15 0 24 -14 17 -27l-345 -663c-2 -4 -7 -10 -17 -10h-55c-15 0 -24 14 -17 27zM119 404c-6 0 -10 4 -10 9v184h-54c-5 0 -8 5 -8 11v38c0 5 3 8 8 11l76 43h63c5 0 9 -4 9 -9v-278c0 -5 -4 -9 -9 -9h-75zM385 77c0 50 57 75 61 76v1
c-19 7 -52 29 -52 70c0 51 54 83 116 83c65 0 118 -32 118 -83c0 -40 -32 -64 -52 -70v-1c25 -6 62 -28 62 -76c0 -49 -51 -86 -128 -86c-75 0 -125 37 -125 86zM487 210c0 -13 12 -23 24 -23s23 10 23 23s-11 24 -23 24s-24 -11 -24 -24zM483 89c0 -16 15 -27 29 -27
c13 0 28 9 28 27c0 15 -11 28 -28 28c-15 0 -29 -13 -29 -28z" />
    <glyph glyph-name="twothirds" unicode="&#x2154;" horiz-adv-x="721" 
d="M59 404c-6 0 -10 4 -10 9v18l102 123c14 18 20 35 20 47c0 20 -15 29 -31 29c-15 0 -30 -10 -35 -15c-6 -4 -13 -5 -18 4l-22 36c-7 12 -11 16 4 27c9 7 44 28 93 28c58 0 104 -36 104 -94c0 -29 -11 -57 -30 -84l-40 -53h58c5 0 10 -4 10 -9v-57c0 -5 -5 -9 -10 -9h-195
zM151 27l344 663c3 6 9 10 17 10h56c15 0 24 -14 17 -27l-345 -663c-2 -4 -7 -10 -17 -10h-55c-15 0 -24 14 -17 27zM460 41l23 34c5 7 11 9 20 4c0 0 14 -11 36 -11c24 0 33 9 33 24c0 14 -11 25 -33 25h-33c-8 1 -13 3 -13 16v34c0 12 7 17 18 17h28c15 0 28 9 28 24
c0 13 -11 22 -29 22c-12 0 -22 -5 -30 -11c-6 -4 -10 -6 -17 4l-26 35c-7 9 -4 16 1 21c0 0 31 27 87 27c67 0 110 -32 110 -83c0 -37 -27 -58 -51 -70c23 -9 60 -30 60 -77c0 -57 -57 -86 -119 -86c-54 0 -82 23 -90 29s-9 13 -3 22z" />
    <glyph glyph-name="threequarters" unicode="&#xbe;" horiz-adv-x="690" 
d="M148 394c-54 0 -82 23 -90 29s-9 13 -3 22l23 34c5 7 11 9 20 4c0 0 14 -11 36 -11c24 0 33 9 33 24c0 14 -11 25 -33 25h-33c-8 1 -13 3 -13 16v34c0 12 7 17 18 17h28c15 0 28 9 28 24c0 13 -11 22 -29 22c-12 0 -22 -5 -30 -11c-6 -4 -10 -6 -17 4l-26 35
c-7 9 -4 16 1 21c0 0 31 27 87 27c67 0 110 -32 110 -83c0 -37 -27 -58 -51 -70c23 -9 60 -30 60 -77c0 -57 -57 -86 -119 -86zM125 27l344 663c3 6 9 10 17 10h56c15 0 24 -14 17 -27l-345 -663c-2 -4 -7 -10 -17 -10h-55c-15 0 -24 14 -17 27zM368 64v62l139 167
c1 2 5 3 7 3h71c5 0 9 -4 9 -9v-163h39c5 0 9 -4 9 -8v-51c0 -5 -4 -9 -9 -9h-39v-47c0 -5 -4 -9 -9 -9h-68c-5 0 -10 4 -10 9v47h-130c-5 0 -9 4 -9 8zM457 122h51v65z" />
    <glyph glyph-name="threeeighths" unicode="&#x215c;" horiz-adv-x="710" 
d="M148 394c-54 0 -82 23 -90 29s-9 13 -3 22l23 34c5 7 11 9 20 4c0 0 14 -11 36 -11c24 0 33 9 33 24c0 14 -11 25 -33 25h-33c-8 1 -13 3 -13 16v34c0 12 7 17 18 17h28c15 0 28 9 28 24c0 13 -11 22 -29 22c-12 0 -22 -5 -30 -11c-6 -4 -10 -6 -17 4l-26 35
c-7 9 -4 16 1 21c0 0 31 27 87 27c67 0 110 -32 110 -83c0 -37 -27 -58 -51 -70c23 -9 60 -30 60 -77c0 -57 -57 -86 -119 -86zM125 27l344 663c3 6 9 10 17 10h56c15 0 24 -14 17 -27l-345 -663c-2 -4 -7 -10 -17 -10h-55c-15 0 -24 14 -17 27zM409 77c0 50 57 75 61 76v1
c-19 7 -52 29 -52 70c0 51 54 83 116 83c65 0 118 -32 118 -83c0 -40 -32 -64 -52 -70v-1c25 -6 62 -28 62 -76c0 -49 -51 -86 -128 -86c-75 0 -125 37 -125 86zM511 210c0 -13 12 -23 24 -23s23 10 23 23s-11 24 -23 24s-24 -11 -24 -24zM507 89c0 -16 15 -27 29 -27
c13 0 28 9 28 27c0 15 -11 28 -28 28c-15 0 -29 -13 -29 -28z" />
    <glyph glyph-name="fiveeighths" unicode="&#x215d;" horiz-adv-x="722" 
d="M137 27l344 663c3 6 9 10 17 10h56c15 0 24 -14 17 -27l-345 -663c-2 -4 -7 -10 -17 -10h-55c-15 0 -24 14 -17 27zM152 394c-50 0 -84 24 -96 38c-4 4 -5 9 -1 15l30 39c6 9 12 9 17 4c0 0 19 -18 51 -18c16 0 35 10 35 28s-16 29 -38 29h-72c-10 0 -16 8 -16 15v147
c0 5 4 9 10 9h161c6 0 10 -4 10 -9v-53c0 -5 -4 -9 -10 -9h-96v-29h29c71 0 114 -35 114 -99c0 -63 -50 -107 -128 -107zM421 77c0 50 57 75 61 76v1c-19 7 -52 29 -52 70c0 51 54 83 116 83c65 0 118 -32 118 -83c0 -40 -32 -64 -52 -70v-1c25 -6 62 -28 62 -76
c0 -49 -51 -86 -128 -86c-75 0 -125 37 -125 86zM523 210c0 -13 12 -23 24 -23s23 10 23 23s-11 24 -23 24s-24 -11 -24 -24zM519 89c0 -16 15 -27 29 -27c13 0 28 9 28 27c0 15 -11 28 -28 28c-15 0 -29 -13 -29 -28z" />
    <glyph glyph-name="seveneighths" unicode="&#x215e;" horiz-adv-x="690" 
d="M105 27l344 663c3 6 9 10 17 10h56c15 0 24 -14 17 -27l-345 -663c-2 -4 -7 -10 -17 -10h-55c-15 0 -24 14 -17 27zM69 404c-8 0 -13 2 -13 9v5l108 208h-92c-5 0 -10 4 -10 8v57c0 5 5 9 10 9h198c5 0 10 -4 10 -9v-16l-127 -262c-4 -7 -9 -9 -16 -9h-68zM389 77
c0 50 57 75 61 76v1c-19 7 -52 29 -52 70c0 51 54 83 116 83c65 0 118 -32 118 -83c0 -40 -32 -64 -52 -70v-1c25 -6 62 -28 62 -76c0 -49 -51 -86 -128 -86c-75 0 -125 37 -125 86zM491 210c0 -13 12 -23 24 -23s23 10 23 23s-11 24 -23 24s-24 -11 -24 -24zM487 89
c0 -16 15 -27 29 -27c13 0 28 9 28 27c0 15 -11 28 -28 28c-15 0 -29 -13 -29 -28z" />
    <glyph glyph-name="perthousand" unicode="&#x2030;" horiz-adv-x="998" 
d="M185 441c-75 0 -135 60 -135 135s60 135 135 135c74 0 135 -60 135 -135s-61 -135 -135 -135zM124 27l343 663c4 7 12 10 17 10h76c15 0 24 -14 17 -27l-345 -663c-3 -4 -12 -10 -17 -10h-74c-15 0 -24 14 -17 27zM185 541c18 0 34 16 34 35c0 18 -16 34 -34 34
c-19 0 -35 -16 -35 -34c0 -19 16 -35 35 -35zM685 125c0 75 61 135 135 135c75 0 136 -60 136 -135c0 -74 -61 -135 -136 -135c-74 0 -135 61 -135 135zM385 125c0 75 61 135 135 135c75 0 136 -60 136 -135c0 -74 -61 -135 -136 -135c-74 0 -135 61 -135 135zM786 125
c0 -18 16 -34 34 -34c19 0 35 16 35 34c0 19 -16 35 -35 35c-18 0 -34 -16 -34 -35zM486 125c0 -18 16 -34 34 -34c19 0 35 16 35 34c0 19 -16 35 -35 35c-18 0 -34 -16 -34 -35z" />
    <glyph glyph-name="minus" unicode="&#x2212;" 
d="M100 293c-10 0 -19 9 -19 19v70c0 10 9 19 19 19h401c10 0 18 -9 18 -19v-70c0 -10 -8 -19 -18 -19h-401z" />
    <glyph glyph-name="plusminus" unicode="&#xb1;" 
d="M266 239c-10 0 -19 8 -19 18v96h-146c-10 0 -19 9 -19 19v70c0 10 9 19 19 19h146v147c0 10 9 18 19 18h70c10 0 19 -8 19 -18v-147h147c10 0 18 -9 18 -19v-70c0 -10 -8 -19 -18 -19h-147v-96c0 -10 -9 -18 -19 -18h-70zM92 58v70c0 10 9 19 19 19h374
c10 0 18 -9 18 -19v-70c0 -10 -8 -19 -18 -19h-374c-10 0 -19 9 -19 19z" />
    <glyph glyph-name="multiply" unicode="&#xd7;" 
d="M170 168l-50 50c-7 7 -7 19 0 26l103 103l-103 104c-7 7 -7 19 0 26l49 50c7 7 20 7 27 0l103 -103l104 104c7 7 19 6 26 -1l50 -50c7 -7 8 -19 1 -26l-104 -104l104 -104c7 -7 6 -19 -1 -26l-50 -49c-7 -7 -19 -8 -26 -1l-104 104l-103 -103c-7 -7 -19 -7 -26 0z" />
    <glyph glyph-name="divide" unicode="&#xf7;" 
d="M297 471c-41 0 -74 34 -74 75s33 74 74 74s75 -33 75 -74s-34 -75 -75 -75zM100 292c-10 0 -19 9 -19 19v70c0 10 9 19 19 19h401c10 0 18 -9 18 -19v-70c0 -10 -8 -19 -18 -19h-401zM222 154c0 41 33 74 74 74s75 -33 75 -74s-34 -75 -75 -75s-74 34 -74 75z" />
    <glyph glyph-name="notequal" unicode="&#x2260;" 
d="M184 48c-9 4 -14 15 -10 24l22 48h-67c-11 0 -19 9 -19 19v71c0 10 8 19 19 19h118l47 102h-165c-11 0 -19 9 -19 19v70c0 10 8 19 19 19h215l35 74c4 10 16 13 25 9l15 -8c10 -3 14 -14 9 -24l-24 -51h64c11 0 19 -9 19 -19v-70c0 -10 -8 -19 -19 -19h-114l-47 -102h161
c11 0 19 -9 19 -19v-71c0 -10 -8 -19 -19 -19h-211l-33 -72c-4 -9 -16 -12 -25 -8z" />
    <glyph glyph-name="approxequal" unicode="&#x2248;" 
d="M154 309l-47 41c-4 6 -6 14 -1 19c0 0 55 83 128 83c33 0 54 -18 77 -34c18 -11 36 -27 59 -27c22 0 43 28 54 44c7 8 16 8 24 1l44 -40c4 -5 6 -14 1 -20c0 0 -53 -82 -125 -82c-40 0 -59 21 -85 39c-16 10 -30 21 -49 21c-22 0 -46 -27 -57 -43c-6 -9 -17 -9 -23 -2z
M154 113l-47 41c-4 6 -6 14 -1 19c0 0 55 83 128 83c33 0 54 -18 77 -34c18 -11 36 -27 59 -27c22 0 43 28 54 44c7 8 16 8 24 1l44 -40c4 -5 6 -14 1 -20c0 0 -53 -82 -125 -82c-40 0 -59 21 -85 39c-16 10 -30 21 -49 21c-22 0 -46 -27 -57 -43c-6 -9 -17 -9 -23 -2z" />
    <glyph glyph-name="lessequal" unicode="&#x2264;" 
d="M93 383c-5 3 -10 6 -10 17v15c0 9 5 14 10 17l377 182c14 7 28 0 28 -16v-87c0 -7 -4 -12 -8 -14l-208 -88l208 -84c4 -2 8 -7 8 -14v-87c0 -16 -15 -24 -28 -16zM106 39c-10 0 -19 9 -19 19v70c0 10 9 19 19 19h374c10 0 18 -9 18 -19v-70c0 -10 -8 -19 -18 -19h-374z
" />
    <glyph glyph-name="greaterequal" unicode="&#x2265;" 
d="M130 208c-13 -8 -28 0 -28 16v87c0 7 4 12 8 14l208 84l-208 88c-4 2 -8 7 -8 14v87c0 16 14 23 28 16l377 -182c5 -3 10 -8 10 -17v-15c0 -11 -5 -14 -10 -17zM120 39c-10 0 -18 9 -18 19v70c0 10 8 19 18 19h374c10 0 19 -9 19 -19v-70c0 -10 -9 -19 -19 -19h-374z" />
    <glyph glyph-name="logicalnot" unicode="&#xac;" horiz-adv-x="572" 
d="M78 293c-10 0 -19 9 -19 19v70c0 10 9 19 19 19h400c11 0 19 -10 19 -19v-236c0 -10 -9 -18 -19 -18h-70c-10 0 -19 8 -19 18v147h-311z" />
    <glyph glyph-name="Delta" unicode="&#x2206;" horiz-adv-x="740" 
d="M44 45l305 654c3 6 10 11 17 11h10c7 0 14 -5 17 -11l304 -656c10 -22 3 -43 -20 -43h-604c-26 0 -44 13 -29 45zM252 144l238 1l-121 260h-1z" />
    <glyph glyph-name="uni0394" unicode="&#x394;" horiz-adv-x="740" 
d="M44 45l305 654c3 6 10 11 17 11h10c7 0 14 -5 17 -11l304 -656c10 -22 3 -43 -20 -43h-604c-26 0 -44 13 -29 45zM252 144l238 1l-121 260h-1z" />
    <glyph glyph-name="Omega" unicode="&#x2126;" horiz-adv-x="836" 
d="M54 19v109c0 10 8 19 19 19h77c-53 38 -92 135 -92 211c0 200 160 352 360 352s360 -152 360 -352c0 -76 -39 -173 -92 -211h77c11 0 19 -9 19 -19v-109c0 -10 -8 -19 -19 -19h-279c-11 0 -19 9 -19 19v65c0 32 9 35 28 46c84 50 125 140 125 219c0 110 -90 201 -200 201
s-200 -91 -200 -201c0 -79 41 -169 125 -219c19 -11 28 -14 28 -46v-65c0 -10 -8 -19 -19 -19h-279c-11 0 -19 9 -19 19z" />
    <glyph glyph-name="uni03A9" unicode="&#x3a9;" horiz-adv-x="836" 
d="M54 19v109c0 10 8 19 19 19h77c-53 38 -92 135 -92 211c0 200 160 352 360 352s360 -152 360 -352c0 -76 -39 -173 -92 -211h77c11 0 19 -9 19 -19v-109c0 -10 -8 -19 -19 -19h-279c-11 0 -19 9 -19 19v65c0 32 9 35 28 46c84 50 125 140 125 219c0 110 -90 201 -200 201
s-200 -91 -200 -201c0 -79 41 -169 125 -219c19 -11 28 -14 28 -46v-65c0 -10 -8 -19 -19 -19h-279c-11 0 -19 9 -19 19z" />
    <glyph glyph-name="mu" unicode="&#xb5;" horiz-adv-x="557" 
d="M74 -216v656c0 13 10 22 21 22h109c12 0 22 -9 22 -22v-220c0 -52 15 -88 62 -88c45 0 63 39 63 80v228c0 19 14 22 25 22h105c12 0 22 -9 22 -22v-418c0 -12 -10 -22 -22 -22h-46c-10 0 -18 8 -22 16l-16 43c-28 -29 -55 -70 -144 -70c-10 0 -19 1 -27 2v-207
c0 -12 -10 -22 -22 -22h-108c-12 0 -22 10 -22 22z" />
    <glyph glyph-name="uni03BC" unicode="&#x3bc;" horiz-adv-x="557" 
d="M74 -216v656c0 13 10 22 21 22h109c12 0 22 -9 22 -22v-220c0 -52 15 -88 62 -88c45 0 63 39 63 80v228c0 19 14 22 25 22h105c12 0 22 -9 22 -22v-418c0 -12 -10 -22 -22 -22h-46c-10 0 -18 8 -22 16l-16 43c-28 -29 -55 -70 -144 -70c-10 0 -19 1 -27 2v-207
c0 -12 -10 -22 -22 -22h-108c-12 0 -22 10 -22 22z" />
    <glyph glyph-name="pi" unicode="&#x3c0;" horiz-adv-x="696" 
d="M127 22v303h-87c-13 0 -22 10 -22 22v93c0 13 9 22 22 22h616c13 0 22 -9 22 -22v-93c0 -12 -9 -22 -22 -22h-96v-303c0 -12 -10 -22 -22 -22h-108c-11 0 -22 10 -22 22v303h-128v-303c0 -12 -11 -22 -22 -22h-109c-11 0 -22 10 -22 22z" />
    <glyph glyph-name="degree" unicode="&#xb0;" horiz-adv-x="324" 
d="M162 440c-75 0 -135 60 -135 135s60 135 135 135c74 0 135 -60 135 -135s-61 -135 -135 -135zM162 540c18 0 34 16 34 35c0 18 -16 34 -34 34c-19 0 -35 -16 -35 -34c0 -19 16 -35 35 -35z" />
    <glyph glyph-name="afii61289" unicode="&#x2113;" horiz-adv-x="478" 
d="M95 156c0 17 1 33 3 49c-12 -3 -31 -9 -41 -10c-9 -2 -14 3 -15 12l-5 45c-1 7 -4 17 16 21c21 4 41 8 61 15c5 28 9 53 15 81c40 218 104 341 209 341c75 0 119 -54 119 -139c0 -174 -135 -284 -279 -339c-5 -25 -8 -49 -8 -74c0 -47 20 -92 69 -92s95 14 143 43
c17 10 22 9 29 -5l16 -24c9 -16 10 -17 -2 -30c-14 -9 -92 -60 -186 -60c-101 0 -144 80 -144 166zM195 310c108 49 187 136 187 261c0 40 -17 63 -44 63c-60 0 -105 -106 -135 -278z" />
    <glyph glyph-name="estimated" unicode="&#x212e;" horiz-adv-x="834" 
d="M194 172c49 -68 139 -109 230 -109c67 0 139 30 196 79c11 10 19 15 31 3l24 -26c9 -10 6 -19 -7 -32c-69 -65 -154 -97 -244 -97c-203 0 -363 157 -363 359c0 203 160 361 363 361c201 0 361 -162 363 -365c0 -25 -6 -32 -26 -32h-567v-141zM194 384h461v142
c-53 67 -137 110 -231 110c-97 0 -178 -39 -230 -108v-144z" />
    <glyph glyph-name="eng" unicode="&#x14b;" horiz-adv-x="549" 
d="M346 -16v261c0 44 -15 85 -67 85c-46 0 -70 -32 -70 -79v-229c0 -10 -5 -22 -21 -22h-110c-12 0 -22 10 -22 22v418c0 13 10 22 22 22h45c7 0 16 -5 21 -14l17 -46c27 27 60 70 144 70c144 0 193 -102 193 -229v-222c0 -142 -81 -243 -170 -266c-28 -7 -41 -2 -49 17
l-29 73c-8 21 6 30 16 34c41 16 80 44 80 105z" />
    <glyph glyph-name="Eng" unicode="&#x14a;" horiz-adv-x="759" 
d="M522 -16v118l-285 290h-1v-373c0 -10 -8 -19 -19 -19h-119c-10 0 -19 9 -19 19v673c0 10 9 18 19 18h15c7 0 12 -2 17 -7l391 -383h1v361c0 10 8 19 19 19h120c10 0 19 -9 19 -19l-1 -685c0 -142 -80 -218 -169 -241c-28 -7 -41 -2 -49 17l-29 73c-8 21 0 30 10 34
c41 16 80 44 80 105z" />
    <glyph glyph-name="infinity" unicode="&#x221e;" horiz-adv-x="598" 
d="M196 156c-77 0 -140 63 -140 140c0 78 63 140 140 140c40 0 77 -23 102 -50c26 27 63 50 103 50c78 0 141 -62 141 -140c0 -77 -63 -140 -141 -140c-40 0 -77 22 -103 50c-25 -28 -62 -50 -102 -50zM358 296c0 -21 17 -38 38 -38c22 0 39 17 39 38c0 22 -17 39 -39 39
c-21 0 -38 -17 -38 -39zM201 258c22 0 39 17 39 38c0 22 -17 39 -39 39c-21 0 -38 -17 -38 -39c0 -21 17 -38 38 -38z" />
    <glyph glyph-name="partialdiff" unicode="&#x2202;" horiz-adv-x="593" 
d="M53 226c0 152 109 223 205 223c28 0 72 -9 98 -21c-21 107 -158 154 -207 169c-20 7 -23 18 -19 30l30 80c5 14 16 21 32 16c88 -28 346 -150 346 -453c0 -161 -89 -280 -249 -280c-128 0 -236 106 -236 236zM193 231c0 -54 44 -99 98 -99c55 0 99 45 99 99
s-44 100 -99 100c-54 0 -98 -46 -98 -100z" />
    <glyph glyph-name="integral" unicode="&#x222b;" horiz-adv-x="503" 
d="M175 -31v524c0 137 86 217 214 217c58 0 95 -25 111 -38c6 -6 9 -17 4 -25l-48 -79c-5 -8 -15 -11 -23 -7c0 0 -25 11 -42 11c-36 0 -63 -25 -63 -80v-524c0 -137 -92 -217 -214 -217c-58 0 -95 25 -111 38c-6 6 -9 17 -4 25l48 79c5 8 15 11 23 7c0 0 25 -11 42 -11
c35 0 63 25 63 80z" />
    <glyph glyph-name="radical" unicode="&#x221a;" horiz-adv-x="659" 
d="M194 1l-174 373c-6 13 2 26 17 26h113c8 0 15 -6 17 -11l47 -106h6l185 406c2 5 9 11 17 11h205c11 0 19 -8 19 -19v-89c0 -10 -8 -19 -19 -19h-122l-267 -572c-3 -6 -12 -11 -17 -11h-10c-5 0 -14 5 -17 11z" />
    <glyph glyph-name="summation" unicode="&#x2211;" horiz-adv-x="570" 
d="M52 19v49l265 285l-265 287v41c0 10 8 19 19 19h414c11 0 19 -9 19 -19v-109c0 -10 -8 -19 -19 -19h-184l135 -124c7 -7 19 -19 19 -41v-69c0 -19 -12 -30 -19 -37l-135 -135h184c11 0 19 -9 19 -19v-109c0 -10 -8 -19 -19 -19h-414c-11 0 -19 9 -19 19z" />
    <glyph glyph-name="product" unicode="&#x220f;" horiz-adv-x="778" 
d="M89 19v662c0 10 9 19 19 19h562c10 0 19 -9 19 -19v-662c0 -10 -9 -19 -19 -19h-119c-11 0 -19 9 -19 19v534h-286v-534c0 -10 -8 -19 -19 -19h-119c-10 0 -19 9 -19 19z" />
    <glyph glyph-name="lozenge" unicode="&#x25ca;" horiz-adv-x="663" 
d="M62 314c-18 22 -18 57 6 86l241 299c3 6 10 11 17 11h10c7 0 14 -5 17 -11l242 -299c23 -28 26 -58 -1 -91l-241 -308c-3 -6 -10 -11 -17 -11h-10c-7 0 -14 5 -17 11zM330 198h1l124 157l-124 157h-1l-124 -157z" />
    <glyph glyph-name="uniF8FF" unicode="&#xf8ff;" horiz-adv-x="599" 
d="M50 30v640c0 21 9 30 30 30h439c21 0 30 -9 30 -30v-640c0 -21 -9 -30 -30 -30h-439c-21 0 -30 9 -30 30zM262 314c0 -7 7 -12 14 -12h36c9 0 15 4 15 13v26c0 48 105 63 105 150c0 65 -54 111 -125 111c-87 0 -130 -61 -130 -61c-4 -6 -6 -13 0 -18l22 -22
c6 -4 11 -4 17 0c13 12 36 41 84 41c40 0 61 -25 61 -52c0 -63 -99 -72 -99 -147v-29zM245 156c0 -26 22 -48 48 -48c27 0 49 22 49 48s-22 48 -49 48c-26 0 -48 -22 -48 -48z" />
    <glyph glyph-name="zero.tf" 
d="M299 -10c-167 0 -250 135 -250 360c0 226 83 360 250 360c168 0 251 -134 251 -360c0 -225 -83 -360 -251 -360zM299 135c63 0 94 79 94 215c0 135 -31 214 -94 214c-62 0 -93 -79 -93 -214c0 -136 31 -215 93 -215z" />
    <glyph glyph-name="one.tf" 
d="M99 0c-11 0 -19 8 -19 19v93c0 12 8 20 19 20h155v399l-139 -41c-10 -2 -16 8 -18 19l-11 61c-2 10 1 20 7 23l199 98c13 6 24 9 38 9h58c10 0 18 -9 18 -19v-549h123c11 0 20 -8 20 -20v-93c0 -11 -9 -19 -20 -19h-430z" />
    <glyph glyph-name="two.tf" 
d="M70 0c-11 0 -20 9 -20 20v10c0 10 7 20 11 25c67 87 215 274 272 362c14 21 27 50 27 78c0 40 -33 75 -91 75c-42 0 -80 -30 -99 -52c-9 -8 -21 -8 -29 0l-63 64c-7 6 -8 19 -1 27c0 0 83 101 206 101c147 0 234 -94 234 -208c0 -55 -16 -85 -41 -133
c-32 -59 -127 -169 -175 -237h201c10 0 20 -9 20 -20v-92c0 -11 -10 -20 -20 -20h-432z" />
    <glyph glyph-name="three.tf" 
d="M64 79c-7 8 -6 19 1 26l62 67c7 8 18 8 26 2c0 0 58 -47 116 -47c63 0 92 37 92 82c0 50 -48 84 -124 84h-61c-10 0 -20 9 -20 19v86c0 11 10 19 20 19h61c72 0 112 34 112 78c0 45 -32 78 -85 78c-45 0 -77 -24 -92 -41c-7 -9 -21 -10 -28 -2l-60 64c-7 8 -7 20 0 27
c0 0 85 89 197 89c132 0 224 -73 224 -189c0 -79 -54 -136 -106 -158v-4c64 -23 125 -74 125 -173c0 -112 -100 -196 -242 -196c-130 0 -197 62 -218 89z" />
    <glyph glyph-name="four.tf" 
d="M52 145c-11 0 -19 9 -19 20v89c0 14 4 25 12 36l303 414c3 3 6 6 16 6h79c10 0 19 -9 19 -20v-417h70c11 0 19 -8 19 -19v-89c0 -10 -8 -20 -19 -20h-70v-125c0 -11 -10 -20 -20 -20h-107c-11 0 -20 9 -20 20v125h-263zM179 276v-3h140v190h-1z" />
    <glyph glyph-name="five.tf" 
d="M81 75c-14 16 -15 23 -3 35l63 66c7 7 20 7 27 1c39 -32 73 -49 123 -49c55 0 98 41 98 98c0 63 -40 99 -107 99h-158c-21 0 -32 20 -32 37v319c0 10 8 19 19 19h332c11 0 20 -9 20 -19v-91c0 -10 -9 -19 -20 -19h-212v-111h73c142 0 235 -90 235 -228
c0 -135 -110 -242 -255 -242c-107 0 -178 54 -203 85z" />
    <glyph glyph-name="six.tf" 
d="M59 269c0 303 250 427 347 449c15 3 26 -2 31 -16l30 -80c4 -12 1 -23 -19 -30c-49 -15 -182 -64 -207 -165c26 12 70 21 98 21c96 0 205 -71 205 -223c0 -130 -108 -236 -236 -236c-160 0 -249 119 -249 280zM207 230c0 -54 44 -99 99 -99c54 0 98 45 98 99
s-44 100 -98 100c-55 0 -99 -46 -99 -100z" />
    <glyph glyph-name="seven.tf" 
d="M347 567v2h-261c-11 0 -20 9 -20 19v93c0 10 9 19 20 19h452c11 0 20 -9 20 -19c0 -4 0 -7 -5 -18l-264 -633c-11 -26 -28 -30 -43 -30h-103c-11 0 -21 8 -21 20v2c0 7 0 9 3 17z" />
    <glyph glyph-name="eight.tf" 
d="M49 186c0 91 75 153 126 173v4c-55 31 -106 77 -106 158c0 116 103 189 228 189c131 0 234 -73 234 -189c0 -78 -55 -130 -106 -157v-5c59 -25 126 -84 126 -173c0 -122 -99 -196 -254 -196c-149 0 -248 74 -248 196zM299 431c49 17 74 49 74 84s-28 67 -74 67
c-43 0 -72 -32 -72 -67c0 -37 24 -66 72 -84zM216 194c0 -46 32 -78 85 -78c51 0 83 33 83 78c0 38 -29 76 -85 94c-53 -18 -83 -56 -83 -94z" />
    <glyph glyph-name="nine.tf" 
d="M132 81c-4 13 -1 24 20 30c48 16 180 59 207 160c-27 -11 -70 -21 -98 -21c-97 0 -205 72 -205 224c0 130 107 236 236 236c160 0 248 -120 248 -280c0 -311 -243 -420 -346 -449c-15 -5 -27 2 -32 16zM294 369c55 0 99 45 99 100c0 53 -44 99 -99 99
c-54 0 -99 -46 -99 -99c0 -55 45 -100 99 -100z" />
    <glyph glyph-name="zerosuperior" unicode="&#x2070;" horiz-adv-x="326" 
d="M163 494c-84 0 -131 60 -131 158c0 99 47 158 131 158s131 -59 131 -158c0 -98 -47 -158 -131 -158zM163 574c20 0 31 23 31 78c0 56 -11 78 -31 78s-31 -22 -31 -78c0 -55 11 -78 31 -78z" />
    <glyph glyph-name="foursuperior" unicode="&#x2074;" horiz-adv-x="325" 
d="M171 504c-5 0 -10 4 -10 9v47h-130c-5 0 -9 4 -9 8v62l139 167c1 2 5 3 7 3h71c5 0 9 -4 9 -9v-163h39c5 0 9 -4 9 -8v-51c0 -5 -4 -9 -9 -9h-39v-47c0 -5 -4 -9 -9 -9h-68zM104 626h58v65z" />
    <glyph glyph-name="fivesuperior" unicode="&#x2075;" horiz-adv-x="289" 
d="M132 494c-50 0 -84 24 -96 38c-4 4 -5 9 -1 15l30 39c6 9 12 9 17 4c0 0 19 -18 51 -18c16 0 35 10 35 28s-16 29 -38 29h-72c-10 0 -16 8 -16 15v147c0 5 4 9 10 9h161c6 0 10 -4 10 -9v-53c0 -5 -4 -9 -10 -9h-96v-29h29c71 0 114 -35 114 -99
c0 -63 -50 -107 -128 -107z" />
    <glyph glyph-name="sixsuperior" unicode="&#x2076;" horiz-adv-x="296" 
d="M152 494c-76 0 -123 50 -123 119c0 136 133 190 169 201c10 3 17 -1 20 -9l15 -40c2 -6 1 -14 -9 -17c-24 -7 -82 -31 -97 -65c0 0 17 12 50 12c44 0 91 -32 91 -97c0 -57 -53 -104 -116 -104zM152 574c16 0 29 12 29 29s-13 30 -29 30s-30 -13 -30 -30s14 -29 30 -29z
" />
    <glyph glyph-name="sevensuperior" unicode="&#x2077;" horiz-adv-x="268" 
d="M42 504c-8 0 -13 2 -13 9v5l108 208h-92c-5 0 -10 4 -10 8v57c0 5 5 9 10 9h198c5 0 10 -4 10 -9v-16l-127 -262c-4 -7 -9 -9 -16 -9h-68z" />
    <glyph glyph-name="eightsuperior" unicode="&#x2078;" horiz-adv-x="315" 
d="M156 494c-75 0 -125 37 -125 86c0 50 57 75 61 76v1c-19 7 -52 29 -52 70c0 51 54 83 116 83c65 0 118 -32 118 -83c0 -40 -32 -64 -52 -70v-1c25 -6 62 -28 62 -76c0 -49 -51 -86 -128 -86zM157 688c13 0 25 11 25 25s-12 26 -25 26s-26 -12 -26 -26s13 -25 26 -25z
M158 562c14 0 31 10 31 30c0 16 -12 31 -31 31c-16 0 -32 -15 -32 -31c0 -18 17 -30 32 -30z" />
    <glyph glyph-name="ninesuperior" unicode="&#x2079;" horiz-adv-x="296" 
d="M98 490c-10 -3 -17 1 -20 9l-15 40c-2 6 -1 14 9 17c24 7 82 31 97 65c0 0 -17 -12 -54 -12c-40 0 -87 34 -87 97c0 57 53 104 116 104c76 0 123 -50 123 -119c0 -136 -133 -190 -169 -201zM144 671c16 0 30 13 30 30s-14 29 -30 29s-29 -12 -29 -29s13 -30 29 -30z" />
    <glyph glyph-name="zeroinferior" unicode="&#x2080;" horiz-adv-x="326" 
d="M32 -2c0 99 47 158 131 158s131 -59 131 -158c0 -98 -47 -158 -131 -158s-131 60 -131 158zM132 -2c0 -55 11 -78 31 -78s31 23 31 78c0 56 -11 78 -31 78s-31 -22 -31 -78z" />
    <glyph glyph-name="oneinferior" unicode="&#x2081;" horiz-adv-x="220" 
d="M30 43c-5 0 -8 5 -8 11v38c0 5 3 8 8 11l76 43h63c5 0 9 -4 9 -9v-278c0 -5 -4 -9 -9 -9h-75c-6 0 -10 4 -10 9v184h-54z" />
    <glyph glyph-name="twoinferior" unicode="&#x2082;" horiz-adv-x="278" 
d="M63 65l-22 36c-7 12 -11 16 4 27c9 7 44 28 93 28c58 0 104 -36 104 -94c0 -29 -11 -57 -30 -84l-40 -53h58c5 0 10 -4 10 -9v-57c0 -5 -5 -9 -10 -9h-195c-6 0 -10 4 -10 9v18l102 123c14 18 20 35 20 47c0 20 -15 29 -31 29c-15 0 -30 -10 -35 -15c-6 -4 -13 -5 -18 4z
" />
    <glyph glyph-name="threeinferior" unicode="&#x2083;" horiz-adv-x="274" 
d="M64 17c0 12 7 17 18 17h28c15 0 28 9 28 24c0 13 -11 22 -29 22c-12 0 -22 -5 -30 -11c-6 -4 -10 -6 -17 4l-26 35c-7 9 -4 16 1 21c0 0 31 27 87 27c67 0 110 -32 110 -83c0 -37 -27 -58 -51 -70c23 -9 60 -30 60 -77c0 -57 -57 -86 -119 -86c-54 0 -82 23 -90 29
s-9 13 -3 22l23 34c5 7 11 9 20 4c0 0 14 -11 36 -11c24 0 33 9 33 24c0 14 -11 25 -33 25h-33c-8 1 -13 3 -13 16v34z" />
    <glyph glyph-name="fourinferior" unicode="&#x2084;" horiz-adv-x="326" 
d="M23 -24l139 167c1 2 5 3 7 3h71c5 0 9 -4 9 -9v-163h39c5 0 9 -4 9 -8v-51c0 -5 -4 -9 -9 -9h-39v-47c0 -5 -4 -9 -9 -9h-68c-5 0 -10 4 -10 9v47h-130c-5 0 -9 4 -9 8v62zM105 -28h58v65z" />
    <glyph glyph-name="fiveinferior" unicode="&#x2085;" horiz-adv-x="289" 
d="M42 -10v147c0 5 4 9 10 9h161c6 0 10 -4 10 -9v-53c0 -5 -4 -9 -10 -9h-96v-29h29c71 0 114 -35 114 -99c0 -63 -50 -107 -128 -107c-50 0 -84 24 -96 38c-4 4 -5 9 -1 15l30 39c6 9 12 9 17 4c0 0 19 -18 51 -18c16 0 35 10 35 28s-16 29 -38 29h-72c-10 0 -16 8 -16 15
z" />
    <glyph glyph-name="sixinferior" unicode="&#x2086;" horiz-adv-x="296" 
d="M29 -41c0 136 133 190 169 201c10 3 17 -1 20 -9l15 -40c2 -6 1 -14 -9 -17c-24 -7 -82 -31 -97 -65c0 0 17 12 50 12c44 0 91 -32 91 -97c0 -57 -53 -104 -116 -104c-76 0 -123 50 -123 119zM122 -51c0 -17 14 -29 30 -29s29 12 29 29s-13 30 -29 30s-30 -13 -30 -30z
" />
    <glyph glyph-name="seveninferior" unicode="&#x2087;" horiz-adv-x="268" 
d="M35 80v57c0 5 5 9 10 9h198c5 0 10 -4 10 -9v-16l-127 -262c-4 -7 -9 -9 -16 -9h-68c-8 0 -13 2 -13 9v5l108 208h-92c-5 0 -10 4 -10 8z" />
    <glyph glyph-name="eightinferior" unicode="&#x2088;" horiz-adv-x="315" 
d="M31 -74c0 50 57 75 61 76v1c-19 7 -52 29 -52 70c0 51 54 83 116 83c65 0 118 -32 118 -83c0 -40 -32 -64 -52 -70v-1c25 -6 62 -28 62 -76c0 -49 -51 -86 -128 -86c-75 0 -125 37 -125 86zM131 59c0 -14 13 -25 26 -25s25 11 25 25s-12 26 -25 26s-26 -12 -26 -26z
M126 -62c0 -18 17 -30 32 -30c14 0 31 10 31 30c0 16 -12 31 -31 31c-16 0 -32 -15 -32 -31z" />
    <glyph glyph-name="nineinferior" unicode="&#x2089;" horiz-adv-x="296" 
d="M28 52c0 57 53 104 116 104c76 0 123 -50 123 -119c0 -136 -133 -190 -169 -201c-10 -3 -17 1 -20 9l-15 40c-2 6 -1 14 9 17c24 7 82 31 97 65c0 0 -17 -12 -54 -12c-40 0 -87 34 -87 97zM115 47c0 -17 13 -30 29 -30s30 13 30 30s-14 29 -30 29s-29 -12 -29 -29z" />
    <glyph glyph-name="zero.denom" horiz-adv-x="328" 
d="M33 148c0 99 47 158 131 158s131 -59 131 -158c0 -98 -47 -158 -131 -158s-131 60 -131 158zM164 70c20 0 31 23 31 78c0 56 -11 78 -31 78s-31 -22 -31 -78c0 -55 11 -78 31 -78z" />
    <glyph glyph-name="one.denom" horiz-adv-x="232" 
d="M88 9v184h-54c-5 0 -8 5 -8 11v38c0 5 3 8 8 11l76 43h63c5 0 9 -4 9 -9v-278c0 -5 -4 -9 -9 -9h-75c-6 0 -10 4 -10 9z" />
    <glyph glyph-name="two.denom" horiz-adv-x="288" 
d="M31 9v18l102 123c14 18 20 35 20 47c0 20 -15 29 -31 29c-15 0 -30 -10 -35 -15c-6 -4 -13 -5 -18 4l-22 36c-7 12 -11 16 4 27c9 7 44 28 93 28c58 0 104 -36 104 -94c0 -29 -11 -57 -30 -84l-40 -53h58c5 0 10 -4 10 -9v-57c0 -5 -5 -9 -10 -9h-195c-6 0 -10 4 -10 9z
" />
    <glyph glyph-name="three.denom" horiz-adv-x="285" 
d="M41 19c-8 6 -9 13 -3 22l23 34c5 7 11 9 20 4c0 0 14 -11 36 -11c24 0 33 9 33 24c0 14 -11 25 -33 25h-33c-8 1 -13 3 -13 16v34c0 12 7 17 18 17h28c15 0 28 9 28 24c0 13 -11 22 -29 22c-12 0 -22 -5 -30 -11c-6 -4 -10 -6 -17 4l-26 35c-7 9 -4 16 1 21
c0 0 31 27 87 27c67 0 110 -32 110 -83c0 -37 -27 -58 -51 -70c23 -9 60 -30 60 -77c0 -57 -57 -86 -119 -86c-54 0 -82 23 -90 29z" />
    <glyph glyph-name="four.denom" horiz-adv-x="325" 
d="M22 64v62l139 167c1 2 5 3 7 3h71c5 0 9 -4 9 -9v-163h39c5 0 9 -4 9 -8v-51c0 -5 -4 -9 -9 -9h-39v-47c0 -5 -4 -9 -9 -9h-68c-5 0 -10 4 -10 9v47h-130c-5 0 -9 4 -9 8zM104 122h58v65z" />
    <glyph glyph-name="five.denom" horiz-adv-x="299" 
d="M44 28c-4 4 -5 9 -1 15l30 39c6 9 12 9 17 4c0 0 19 -18 51 -18c16 0 35 10 35 28s-16 29 -38 29h-72c-10 0 -16 8 -16 15v147c0 5 4 9 10 9h161c6 0 10 -4 10 -9v-53c0 -5 -4 -9 -10 -9h-96v-29h29c71 0 114 -35 114 -99c0 -63 -50 -107 -128 -107c-50 0 -84 24 -96 38z
" />
    <glyph glyph-name="six.denom" horiz-adv-x="316" 
d="M39 109c0 136 133 190 169 201c10 3 17 -1 20 -9l15 -40c2 -6 1 -14 -9 -17c-24 -7 -82 -31 -97 -65c0 0 17 12 50 12c44 0 91 -32 91 -97c0 -57 -53 -104 -116 -104c-76 0 -123 50 -123 119zM132 99c0 -17 14 -29 30 -29s29 12 29 29s-13 30 -29 30s-30 -13 -30 -30z
" />
    <glyph glyph-name="seven.denom" horiz-adv-x="285" 
d="M38 9v5l108 208h-92c-5 0 -10 4 -10 8v57c0 5 5 9 10 9h198c5 0 10 -4 10 -9v-16l-127 -262c-4 -7 -9 -9 -16 -9h-68c-8 0 -13 2 -13 9z" />
    <glyph glyph-name="eight.denom" horiz-adv-x="321" 
d="M34 76c0 50 57 75 61 76v1c-19 7 -52 29 -52 70c0 51 54 83 116 83c65 0 118 -32 118 -83c0 -40 -32 -64 -52 -70v-1c25 -6 62 -28 62 -76c0 -49 -51 -86 -128 -86c-75 0 -125 37 -125 86zM160 184c13 0 25 11 25 25s-12 26 -25 26s-26 -12 -26 -26s13 -25 26 -25z
M129 88c0 -18 17 -30 32 -30c14 0 31 10 31 30c0 16 -12 31 -31 31c-16 0 -32 -15 -32 -31z" />
    <glyph glyph-name="nine.denom" horiz-adv-x="297" 
d="M63 35c-2 6 -1 14 9 17c24 7 82 31 97 65c0 0 -17 -12 -54 -12c-40 0 -87 34 -87 97c0 57 53 104 116 104c76 0 123 -50 123 -119c0 -136 -133 -190 -169 -201c-10 -3 -17 1 -20 9zM144 167c16 0 30 13 30 30s-14 29 -30 29s-29 -12 -29 -29s13 -30 29 -30z" />
    <glyph glyph-name="zero.num" horiz-adv-x="326" 
d="M163 394c-84 0 -131 60 -131 158c0 99 47 158 131 158s131 -59 131 -158c0 -98 -47 -158 -131 -158zM163 474c20 0 31 23 31 78c0 56 -11 78 -31 78s-31 -22 -31 -78c0 -55 11 -78 31 -78z" />
    <glyph glyph-name="one.num" horiz-adv-x="219" 
d="M93 404c-6 0 -10 4 -10 9v184h-54c-5 0 -8 5 -8 11v38c0 5 3 8 8 11l76 43h63c5 0 9 -4 9 -9v-278c0 -5 -4 -9 -9 -9h-75z" />
    <glyph glyph-name="two.num" horiz-adv-x="276" 
d="M34 404c-6 0 -10 4 -10 9v18l102 123c14 18 20 35 20 47c0 20 -15 29 -31 29c-15 0 -30 -10 -35 -15c-6 -4 -13 -5 -18 4l-22 36c-7 12 -11 16 4 27c9 7 44 28 93 28c58 0 104 -36 104 -94c0 -29 -11 -57 -30 -84l-40 -53h58c5 0 10 -4 10 -9v-57c0 -5 -5 -9 -10 -9h-195
z" />
    <glyph glyph-name="three.num" horiz-adv-x="273" 
d="M123 394c-54 0 -82 23 -90 29s-9 13 -3 22l23 34c5 7 11 9 20 4c0 0 14 -11 36 -11c24 0 33 9 33 24c0 14 -11 25 -33 25h-33c-8 1 -13 3 -13 16v34c0 12 7 17 18 17h28c15 0 28 9 28 24c0 13 -11 22 -29 22c-12 0 -22 -5 -30 -11c-6 -4 -10 -6 -17 4l-26 35
c-7 9 -4 16 1 21c0 0 31 27 87 27c67 0 110 -32 110 -83c0 -37 -27 -58 -51 -70c23 -9 60 -30 60 -77c0 -57 -57 -86 -119 -86z" />
    <glyph glyph-name="four.num" horiz-adv-x="325" 
d="M171 404c-5 0 -10 4 -10 9v47h-130c-5 0 -9 4 -9 8v62l139 167c1 2 5 3 7 3h71c5 0 9 -4 9 -9v-163h39c5 0 9 -4 9 -8v-51c0 -5 -4 -9 -9 -9h-39v-47c0 -5 -4 -9 -9 -9h-68zM104 526h58v65z" />
    <glyph glyph-name="five.num" horiz-adv-x="289" 
d="M132 394c-50 0 -84 24 -96 38c-4 4 -5 9 -1 15l30 39c6 9 12 9 17 4c0 0 19 -18 51 -18c16 0 35 10 35 28s-16 29 -38 29h-72c-10 0 -16 8 -16 15v147c0 5 4 9 10 9h161c6 0 10 -4 10 -9v-53c0 -5 -4 -9 -10 -9h-96v-29h29c71 0 114 -35 114 -99
c0 -63 -50 -107 -128 -107z" />
    <glyph glyph-name="six.num" horiz-adv-x="296" 
d="M152 394c-76 0 -123 50 -123 119c0 136 133 190 169 201c10 3 17 -1 20 -9l15 -40c2 -6 1 -14 -9 -17c-24 -7 -82 -31 -97 -65c0 0 17 12 50 12c44 0 91 -32 91 -97c0 -57 -53 -104 -116 -104zM152 474c16 0 29 12 29 29s-13 30 -29 30s-30 -13 -30 -30s14 -29 30 -29z
" />
    <glyph glyph-name="seven.num" horiz-adv-x="268" 
d="M42 404c-8 0 -13 2 -13 9v5l108 208h-92c-5 0 -10 4 -10 8v57c0 5 5 9 10 9h198c5 0 10 -4 10 -9v-16l-127 -262c-4 -7 -9 -9 -16 -9h-68z" />
    <glyph glyph-name="eight.num" horiz-adv-x="315" 
d="M156 394c-75 0 -125 37 -125 86c0 50 57 75 61 76v1c-19 7 -52 29 -52 70c0 51 54 83 116 83c65 0 118 -32 118 -83c0 -40 -32 -64 -52 -70v-1c25 -6 62 -28 62 -76c0 -49 -51 -86 -128 -86zM157 588c13 0 25 11 25 25s-12 26 -25 26s-26 -12 -26 -26s13 -25 26 -25z
M158 462c14 0 31 10 31 30c0 16 -12 31 -31 31c-16 0 -32 -15 -32 -31c0 -18 17 -30 32 -30z" />
    <glyph glyph-name="nine.num" horiz-adv-x="296" 
d="M98 390c-10 -3 -17 1 -20 9l-15 40c-2 6 -1 14 9 17c24 7 82 31 97 65c0 0 -17 -12 -54 -12c-40 0 -87 34 -87 97c0 57 53 104 116 104c76 0 123 -50 123 -119c0 -136 -133 -190 -169 -201zM144 571c16 0 30 13 30 30s-14 29 -30 29s-29 -12 -29 -29s13 -30 29 -30z" />
    <glyph glyph-name="a.alt" horiz-adv-x="583" 
d="M527 440v-418c0 -12 -10 -22 -22 -22h-55c-11 0 -20 10 -24 23l-13 38s-53 -72 -155 -72c-131 0 -228 105 -228 242c0 132 97 241 227 241c102 0 156 -71 156 -71l13 38c4 12 13 23 24 23h55c12 0 22 -11 22 -22zM182 230c0 -56 43 -98 98 -98c57 0 98 42 98 98
c0 55 -41 100 -98 100c-55 0 -98 -45 -98 -100z" />
    <glyph glyph-name="agrave.alt" horiz-adv-x="583" 
d="M386 513l-182 82c-8 5 -14 15 -6 30l34 59c5 9 20 7 26 3l170 -104c5 -4 10 -11 6 -19l-21 -42c-5 -10 -14 -17 -27 -9zM527 440v-418c0 -12 -10 -22 -22 -22h-55c-11 0 -20 10 -24 23l-13 38s-53 -72 -155 -72c-131 0 -228 105 -228 242c0 132 97 241 227 241
c102 0 156 -71 156 -71l13 38c4 12 13 23 24 23h55c12 0 22 -11 22 -22zM182 230c0 -56 43 -98 98 -98c57 0 98 42 98 98c0 55 -41 100 -98 100c-55 0 -98 -45 -98 -100z" />
    <glyph glyph-name="aacute.alt" horiz-adv-x="583" 
d="M219 512c-13 -8 -22 -1 -27 9l-21 42c-4 8 1 15 6 19l170 104c6 4 21 6 26 -3l34 -59c8 -15 2 -25 -6 -30zM527 440v-418c0 -12 -10 -22 -22 -22h-55c-11 0 -20 10 -24 23l-13 38s-53 -72 -155 -72c-131 0 -228 105 -228 242c0 132 97 241 227 241c102 0 156 -71 156 -71
l13 38c4 12 13 23 24 23h55c12 0 22 -11 22 -22zM182 230c0 -56 43 -98 98 -98c57 0 98 42 98 98c0 55 -41 100 -98 100c-55 0 -98 -45 -98 -100z" />
    <glyph glyph-name="acircumflex.alt" horiz-adv-x="583" 
d="M183 512c-11 -6 -16 -4 -22 4l-33 47c-5 7 1 15 6 19l135 104c8 6 18 4 24 0l138 -104c5 -4 10 -11 6 -19l-34 -46c-5 -7 -14 -9 -21 -5l-99 58zM527 440v-418c0 -12 -10 -22 -22 -22h-55c-11 0 -20 10 -24 23l-13 38s-53 -72 -155 -72c-131 0 -228 105 -228 242
c0 132 97 241 227 241c102 0 156 -71 156 -71l13 38c4 12 13 23 24 23h55c12 0 22 -11 22 -22zM182 230c0 -56 43 -98 98 -98c57 0 98 42 98 98c0 55 -41 100 -98 100c-55 0 -98 -45 -98 -100z" />
    <glyph glyph-name="atilde.alt" horiz-adv-x="583" 
d="M176 555l-35 28c-7 5 -9 16 -6 23c10 18 53 84 107 84c48 0 69 -47 108 -47c16 0 31 20 38 31c5 8 15 11 25 2l34 -26c8 -6 9 -17 1 -29c-10 -17 -47 -78 -100 -78c-52 0 -76 48 -110 48c-18 0 -31 -25 -40 -35c-6 -6 -13 -7 -22 -1zM527 440v-418c0 -12 -10 -22 -22 -22
h-55c-11 0 -20 10 -24 23l-13 38s-53 -72 -155 -72c-131 0 -228 105 -228 242c0 132 97 241 227 241c102 0 156 -71 156 -71l13 38c4 12 13 23 24 23h55c12 0 22 -11 22 -22zM182 230c0 -56 43 -98 98 -98c57 0 98 42 98 98c0 55 -41 100 -98 100c-55 0 -98 -45 -98 -100z
" />
    <glyph glyph-name="adieresis.alt" horiz-adv-x="583" 
d="M394 535c-39 0 -70 32 -70 71s31 70 70 70s71 -31 71 -70s-32 -71 -71 -71zM189 535c-39 0 -70 32 -70 71s31 70 70 70s71 -31 71 -70s-32 -71 -71 -71zM527 440v-418c0 -12 -10 -22 -22 -22h-55c-11 0 -20 10 -24 23l-13 38s-53 -72 -155 -72c-131 0 -228 105 -228 242
c0 132 97 241 227 241c102 0 156 -71 156 -71l13 38c4 12 13 23 24 23h55c12 0 22 -11 22 -22zM182 230c0 -56 43 -98 98 -98c57 0 98 42 98 98c0 55 -41 100 -98 100c-55 0 -98 -45 -98 -100z" />
    <glyph glyph-name="amacron.alt" horiz-adv-x="583" 
d="M160 563c-11 0 -19 8 -19 18v41c0 11 8 19 19 19h256c11 0 19 -8 19 -19v-41c0 -10 -8 -18 -19 -18h-256zM527 440v-418c0 -12 -10 -22 -22 -22h-55c-11 0 -20 10 -24 23l-13 38s-53 -72 -155 -72c-131 0 -228 105 -228 242c0 132 97 241 227 241c102 0 156 -71 156 -71
l13 38c4 12 13 23 24 23h55c12 0 22 -11 22 -22zM182 230c0 -56 43 -98 98 -98c57 0 98 42 98 98c0 55 -41 100 -98 100c-55 0 -98 -45 -98 -100z" />
    <glyph glyph-name="abreve.alt" horiz-adv-x="583" 
d="M282 527c-74 0 -132 52 -142 120c-2 12 6 22 19 22h45c8 0 15 -6 17 -12c9 -27 32 -48 61 -48c26 0 50 24 59 48c2 7 10 12 17 12h47c12 0 20 -10 19 -22c-11 -68 -69 -120 -142 -120zM527 440v-418c0 -12 -10 -22 -22 -22h-55c-11 0 -20 10 -24 23l-13 38
s-53 -72 -155 -72c-131 0 -228 105 -228 242c0 132 97 241 227 241c102 0 156 -71 156 -71l13 38c4 12 13 23 24 23h55c12 0 22 -11 22 -22zM182 230c0 -56 43 -98 98 -98c57 0 98 42 98 98c0 55 -41 100 -98 100c-55 0 -98 -45 -98 -100z" />
    <glyph glyph-name="aring.alt" horiz-adv-x="583" 
d="M286 510c-64 0 -115 51 -115 115s51 115 115 115c63 0 115 -51 115 -115s-52 -115 -115 -115zM286 581c23 0 43 21 43 44s-20 43 -43 43s-44 -20 -44 -43s21 -44 44 -44zM527 440v-418c0 -12 -10 -22 -22 -22h-55c-11 0 -20 10 -24 23l-13 38s-53 -72 -155 -72
c-131 0 -228 105 -228 242c0 132 97 241 227 241c102 0 156 -71 156 -71l13 38c4 12 13 23 24 23h55c12 0 22 -11 22 -22zM182 230c0 -56 43 -98 98 -98c57 0 98 42 98 98c0 55 -41 100 -98 100c-55 0 -98 -45 -98 -100z" />
    <glyph glyph-name="aringacute.alt" horiz-adv-x="583" 
d="M277 510c-64 0 -115 41 -115 105s51 105 115 105c63 0 115 -41 115 -105s-52 -105 -115 -105zM277 581c23 0 43 11 43 34s-20 33 -43 33s-44 -10 -44 -33s21 -34 44 -34zM206 722c-13 -8 -22 -1 -27 9l-21 42c-4 8 1 15 6 19l170 84c6 4 22 6 27 -3l33 -59
c8 -15 2 -25 -6 -30zM527 440v-418c0 -12 -10 -22 -22 -22h-55c-11 0 -20 10 -24 23l-13 38s-53 -72 -155 -72c-131 0 -228 105 -228 242c0 132 97 241 227 241c102 0 156 -71 156 -71l13 38c4 12 13 23 24 23h55c12 0 22 -11 22 -22zM182 230c0 -56 43 -98 98 -98
c57 0 98 42 98 98c0 55 -41 100 -98 100c-55 0 -98 -45 -98 -100z" />
    <glyph glyph-name="aogonek.alt" horiz-adv-x="583" 
d="M527 440v-418c0 -8 -5 -15 -11 -19c-27 -19 -94 -74 -94 -121c0 -28 14 -37 34 -37c26 0 52 21 60 29c9 9 22 4 22 -8v-57c0 -13 -3 -25 -16 -34c-17 -11 -52 -24 -92 -24c-72 0 -108 48 -108 107c0 67 68 129 106 159l-15 44s-53 -72 -155 -72c-131 0 -228 105 -228 242
c0 132 97 241 227 241c102 0 156 -71 156 -71l13 38c4 12 13 23 24 23h55c12 0 22 -11 22 -22zM182 230c0 -56 43 -98 98 -98c57 0 98 42 98 98c0 55 -41 100 -98 100c-55 0 -98 -45 -98 -100z" />
    <glyph glyph-name="parenleft.case" horiz-adv-x="329" 
d="M309 -15l-4 -86c0 -10 -9 -18 -20 -18c-114 8 -254 140 -254 464s140 467 254 473c11 1 20 -8 20 -18l4 -85c0 -7 -6 -17 -13 -19c-84 -26 -115 -200 -115 -351c0 -152 31 -315 115 -342c6 -2 13 -11 13 -18z" />
    <glyph glyph-name="parenright.case" horiz-adv-x="329" 
d="M20 -15c0 7 7 16 13 18c84 27 115 190 115 342c0 151 -31 325 -115 351c-7 2 -13 12 -13 19l4 85c0 10 9 19 20 18c114 -6 254 -149 254 -473s-140 -456 -254 -464c-11 0 -20 8 -20 18z" />
    <glyph glyph-name="hyphen.case" horiz-adv-x="363" 
d="M67 268c-11 0 -19 8 -19 18v91c0 11 8 19 19 19h229c11 0 19 -8 19 -19v-91c0 -10 -8 -18 -19 -18h-229z" />
    <glyph glyph-name="bracketleft.case" horiz-adv-x="362" 
d="M196 -1h127c10 0 19 -8 19 -18v-81c0 -10 -9 -19 -19 -19h-246c-10 0 -19 9 -19 19v901c0 10 9 19 19 19h246c10 0 19 -9 19 -19v-80c0 -11 -9 -19 -19 -19h-127v-703z" />
    <glyph glyph-name="bracketright.case" horiz-adv-x="362" 
d="M39 -1h127v703h-127c-10 0 -19 8 -19 19v80c0 10 9 19 19 19h246c10 0 19 -9 19 -19v-901c0 -10 -9 -19 -19 -19h-246c-10 0 -19 9 -19 19v81c0 10 9 18 19 18z" />
    <glyph glyph-name="braceleft.case" horiz-adv-x="392" 
d="M98 143v94c0 45 -45 59 -69 64c-8 1 -15 10 -15 18v58c0 8 7 16 13 18c0 0 71 23 71 64v99c0 239 147 265 250 271c11 1 19 -6 20 -17l5 -85c0 -8 -7 -17 -14 -19c-70 -18 -110 -52 -110 -150v-79c0 -79 -85 -128 -85 -128v-4c26 -11 85 -48 85 -120v-84
c0 -98 40 -132 110 -150c7 -2 14 -11 14 -19l-5 -85c-1 -10 -10 -18 -20 -17c-103 6 -250 32 -250 271z" />
    <glyph glyph-name="bar.case" horiz-adv-x="170" 
d="M58 -150v961c0 11 9 19 19 19h17c10 0 18 -8 18 -19v-961c0 -10 -9 -18 -19 -18h-16c-10 0 -19 8 -19 18z" />
    <glyph glyph-name="braceright.case" horiz-adv-x="392" 
d="M294 237v-94c0 -239 -147 -265 -250 -271c-10 -1 -19 7 -20 17l-5 85c0 8 7 17 14 19c70 18 110 52 110 150v84c0 72 59 109 85 120v4s-85 49 -85 128v79c0 98 -40 132 -110 150c-7 2 -14 11 -14 19l5 85c1 11 9 18 20 17c103 -6 250 -32 250 -271v-99
c0 -41 71 -64 71 -64c6 -2 13 -10 13 -18v-58c0 -8 -7 -17 -15 -18c-24 -5 -69 -19 -69 -64z" />
    <glyph glyph-name="guilsinglleft.case" horiz-adv-x="297" 
d="M137 159l-104 155c-6 8 -4 18 0 24l109 148c3 5 10 12 18 12h79c17 0 23 -15 15 -31l-65 -139l62 -147c7 -16 2 -30 -15 -30h-84c-4 0 -12 4 -15 8z" />
    <glyph glyph-name="guilsinglright.case" horiz-adv-x="297" 
d="M60 151c-17 0 -22 14 -15 30l62 147l-65 139c-8 16 -2 31 15 31h79c8 0 15 -7 18 -12l109 -148c4 -6 6 -16 0 -24l-104 -155c-3 -4 -11 -8 -15 -8h-84z" />
    <glyph glyph-name="guillemotleft.case" horiz-adv-x="515" 
d="M251 314c-6 8 -4 18 0 24l109 148c3 5 10 12 18 12h79c17 0 23 -15 15 -31l-65 -139l62 -147c7 -16 2 -30 -15 -30h-84c-4 0 -12 4 -15 8zM137 159l-104 155c-6 8 -4 18 0 24l109 148c3 5 10 12 18 12h79c17 0 23 -15 15 -31l-65 -139l62 -147c7 -16 2 -30 -15 -30h-84
c-4 0 -12 4 -15 8z" />
    <glyph glyph-name="guillemotright.case" horiz-adv-x="515" 
d="M263 181l62 147l-65 139c-8 16 -2 31 15 31h79c8 0 15 -7 18 -12l109 -148c4 -6 6 -16 0 -24l-104 -155c-3 -4 -11 -8 -15 -8h-84c-17 0 -22 14 -15 30zM60 151c-17 0 -22 14 -15 30l62 147l-65 139c-8 16 -2 31 15 31h79c8 0 15 -7 18 -12l109 -148c4 -6 6 -16 0 -24
l-104 -155c-3 -4 -11 -8 -15 -8h-84z" />
    <glyph glyph-name="endash.case" horiz-adv-x="547" 
d="M69 293c-11 0 -19 8 -19 18v51c0 11 8 19 19 19h409c11 0 19 -8 19 -19v-51c0 -10 -8 -18 -19 -18h-409z" />
    <glyph glyph-name="emdash.case" horiz-adv-x="767" 
d="M69 293c-11 0 -19 8 -19 18v51c0 11 8 19 19 19h629c11 0 19 -8 19 -19v-51c0 -10 -8 -18 -19 -18h-629z" />
    <glyph glyph-name="bullet.case" horiz-adv-x="398" 
d="M197 173c-76 0 -141 65 -141 141c0 79 65 145 141 145c79 0 145 -66 145 -145c0 -76 -66 -141 -145 -141z" />
    <glyph glyph-name="periodcentered.case" horiz-adv-x="276" 
d="M136 239c-57 0 -105 48 -105 105c0 60 48 109 105 109c60 0 109 -49 109 -109c0 -57 -49 -105 -109 -105z" />
    <glyph glyph-name="brokenbar" unicode="&#xa6;" horiz-adv-x="176" 
d="M80 392c-10 0 -19 8 -19 18v331c0 11 9 19 19 19h17c10 0 18 -8 18 -19v-331c0 -10 -9 -18 -19 -18h-16zM61 111c0 11 9 19 19 19h17c10 0 18 -8 18 -19v-331c0 -10 -9 -18 -19 -18h-16c-10 0 -19 8 -19 18v331z" />
    <glyph glyph-name="q" unicode="q" horiz-adv-x="576" 
d="M31 232c0 132 98 240 228 240c102 0 156 -71 156 -71l13 38c4 12 13 23 24 23h45c12 0 22 -11 22 -22v-656c0 -12 -10 -22 -22 -22h-108c-12 0 -22 10 -22 22v233c-15 -12 -64 -28 -107 -28c-123 0 -229 80 -229 243zM184 231c0 -56 43 -99 98 -99c57 0 98 43 98 99
c0 55 -41 99 -98 99c-55 0 -98 -44 -98 -99z" />
    <glyph glyph-name="gcircumflex.alt" horiz-adv-x="541" 
d="M190 512c-11 -6 -16 -4 -22 4l-33 47c-5 7 1 15 6 19l135 104c8 6 18 4 24 0l138 -104c5 -4 10 -11 6 -19l-34 -46c-5 -7 -14 -9 -21 -5l-99 58zM15 83c0 92 92 111 92 111s-34 38 -34 96c0 107 92 182 204 182h218c13 0 23 -9 23 -22v-47c0 -8 -7 -16 -13 -20l-67 -24
s44 -19 44 -95c0 -85 -78 -156 -201 -156h-87c-24 0 -37 -9 -37 -23c0 -18 18 -23 36 -23h143c116 0 198 -46 198 -155c0 -104 -87 -156 -259 -156s-242 45 -242 119c0 69 58 88 71 95v3c-16 5 -89 24 -89 115zM217 279c0 -37 28 -51 64 -51c38 0 64 14 64 51s-26 51 -64 51
c-36 0 -64 -14 -64 -51zM171 -93c0 -28 39 -34 104 -34c67 0 102 7 102 34c0 16 -15 28 -57 28h-92c-33 0 -57 -8 -57 -28z" />
    <glyph glyph-name="gbreve.alt" horiz-adv-x="541" 
d="M288 527c-74 0 -132 52 -142 120c-2 12 6 22 19 22h45c8 0 15 -6 17 -12c9 -27 32 -48 61 -48c26 0 50 24 59 48c2 7 10 12 17 12h47c12 0 20 -10 19 -22c-11 -68 -69 -120 -142 -120zM15 83c0 92 92 111 92 111s-34 38 -34 96c0 107 92 182 204 182h218
c13 0 23 -9 23 -22v-47c0 -8 -7 -16 -13 -20l-67 -24s44 -19 44 -95c0 -85 -78 -156 -201 -156h-87c-24 0 -37 -9 -37 -23c0 -18 18 -23 36 -23h143c116 0 198 -46 198 -155c0 -104 -87 -156 -259 -156s-242 45 -242 119c0 69 58 88 71 95v3c-16 5 -89 24 -89 115zM217 279
c0 -37 28 -51 64 -51c38 0 64 14 64 51s-26 51 -64 51c-36 0 -64 -14 -64 -51zM171 -93c0 -28 39 -34 104 -34c67 0 102 7 102 34c0 16 -15 28 -57 28h-92c-33 0 -57 -8 -57 -28z" />
    <glyph glyph-name="gdotaccent.alt" horiz-adv-x="541" 
d="M284 521c-44 0 -79 35 -79 79s35 80 79 80s80 -36 80 -80s-36 -79 -80 -79zM15 83c0 92 92 111 92 111s-34 38 -34 96c0 107 92 182 204 182h218c13 0 23 -9 23 -22v-47c0 -8 -7 -16 -13 -20l-67 -24s44 -19 44 -95c0 -85 -78 -156 -201 -156h-87c-24 0 -37 -9 -37 -23
c0 -18 18 -23 36 -23h143c116 0 198 -46 198 -155c0 -104 -87 -156 -259 -156s-242 45 -242 119c0 69 58 88 71 95v3c-16 5 -89 24 -89 115zM217 279c0 -37 28 -51 64 -51c38 0 64 14 64 51s-26 51 -64 51c-36 0 -64 -14 -64 -51zM171 -93c0 -28 39 -34 104 -34
c67 0 102 7 102 34c0 16 -15 28 -57 28h-92c-33 0 -57 -8 -57 -28z" />
    <glyph glyph-name="gcommaaccent.alt" horiz-adv-x="541" 
d="M15 83c0 92 92 111 92 111s-34 38 -34 96c0 107 92 182 204 182h218c13 0 23 -9 23 -22v-47c0 -8 -7 -16 -13 -20l-67 -24s44 -19 44 -95c0 -85 -78 -156 -201 -156h-87c-24 0 -37 -9 -37 -23c0 -18 18 -23 36 -23h143c116 0 198 -46 198 -155c0 -104 -87 -156 -259 -156
s-242 45 -242 119c0 69 58 88 71 95v3c-16 5 -89 24 -89 115zM217 279c0 -37 28 -51 64 -51c38 0 64 14 64 51s-26 51 -64 51c-36 0 -64 -14 -64 -51zM171 -93c0 -28 39 -34 104 -34c67 0 102 7 102 34c0 16 -15 28 -57 28h-92c-33 0 -57 -8 -57 -28zM395 592
c0 -51 -36 -80 -86 -80c-51 0 -96 28 -96 104c0 70 27 115 52 149c7 7 14 7 23 1l30 -22c9 -6 9 -17 2 -23c-14 -17 -25 -44 -25 -65v-7c0 0 15 9 33 9c42 0 67 -28 67 -66z" />
    <glyph glyph-name="uni2117" unicode="&#x2117;" horiz-adv-x="827" 
d="M54 350c0 198 161 360 359 360s360 -162 360 -360s-162 -360 -360 -360s-359 162 -359 360zM141 350c0 -150 122 -273 272 -273c151 0 272 123 272 273c0 151 -121 272 -272 272c-150 0 -272 -121 -272 -272zM285 187v328c0 10 8 19 19 19h162c62 0 123 -50 123 -130
c0 -62 -41 -123 -140 -123h-66v-94c0 -10 -8 -19 -19 -19h-60c-11 0 -19 9 -19 19zM380 369h69c21 0 32 15 32 33c0 19 -11 33 -32 33h-69v-66z" />
    </font>
</defs>
</svg>
